%TF.GenerationSoftware,Altium Limited,Altium Designer,26.1.1 (7)*%
G04 Layer_Physical_Order=2*
G04 Layer_Color=16711680*
%FSLAX45Y45*%
%MOMM*%
%TF.SameCoordinates,24EA0A1D-C4C2-4479-9BD9-1B96D5021C57*%
%TF.FilePolarity,Positive*%
%TF.FileFunction,Copper,L2,Bot,Signal*%
%TF.Part,Single*%
G01*
G75*
%TA.AperFunction,Conductor*%
%ADD27C,0.25400*%
%ADD28C,0.40640*%
%ADD30C,0.20320*%
%TA.AperFunction,ComponentPad*%
%ADD31C,1.70000*%
%TA.AperFunction,ViaPad*%
%ADD32C,0.60000*%
%ADD33C,0.80000*%
G36*
X10329723Y10349332D02*
X10349332Y10329723D01*
X10373348Y10315857D01*
X10400134Y10308680D01*
X10427866D01*
X10454652Y10315857D01*
X10460915Y10319473D01*
X10697833Y10082555D01*
Y9763760D01*
Y9731100D01*
X10672433Y9720579D01*
X10629252Y9763760D01*
X10591320Y9801692D01*
Y9814409D01*
X10583659Y9832904D01*
X10569504Y9847059D01*
X10551009Y9854720D01*
X10530991D01*
X10526407Y9852821D01*
X10521327Y9850717D01*
X10501007Y9862119D01*
Y9868757D01*
Y10100766D01*
Y10180319D01*
X10501007Y10180320D01*
X10498444Y10193204D01*
X10491146Y10204126D01*
X10425106Y10270166D01*
X10414184Y10277464D01*
X10401300Y10280027D01*
X10367633D01*
X10315571Y10332089D01*
X10323429Y10352968D01*
X10327471Y10353233D01*
X10329723Y10349332D01*
D02*
G37*
G36*
X10119348Y10315857D02*
X10146134Y10308680D01*
X10173866D01*
X10200652Y10315857D01*
X10206915Y10319473D01*
X10274948Y10251440D01*
X10303834Y10222554D01*
X10314756Y10215256D01*
X10327640Y10212693D01*
X10387355D01*
X10433673Y10166375D01*
Y9743789D01*
X10436236Y9730905D01*
X10443534Y9719983D01*
X10525169Y9638348D01*
Y9625631D01*
X10532830Y9607136D01*
X10546985Y9592981D01*
X10565480Y9585320D01*
X10585498D01*
X10598412Y9590669D01*
X10616562Y9582769D01*
X10623812Y9576879D01*
Y9548744D01*
X10588015Y9512947D01*
X10507980D01*
X10495096Y9510384D01*
X10484174Y9503086D01*
X10415594Y9434506D01*
X10408296Y9423584D01*
X10405733Y9410700D01*
Y9123076D01*
X10396741Y9114084D01*
X10389080Y9095589D01*
Y9087789D01*
X10368760Y9079372D01*
X10363680Y9084452D01*
X10232402Y9215730D01*
Y10086066D01*
X10229839Y10098950D01*
X10222541Y10109872D01*
X10215880Y10116533D01*
D01*
X10207662Y10124751D01*
X10204326Y10126980D01*
X10196740Y10132049D01*
X10183856Y10134612D01*
X10146640D01*
X10053279Y10227973D01*
X10026326Y10254926D01*
X10020624Y10258736D01*
X10017760Y10261600D01*
Y10312400D01*
X10030460Y10325100D01*
X10103339D01*
X10119348Y10315857D01*
D02*
G37*
G36*
X9826007Y10288253D02*
X9816286Y10264787D01*
X9202420D01*
X9189536Y10262224D01*
X9178614Y10254926D01*
X9045108Y10121420D01*
X9032391D01*
X9013896Y10113759D01*
X8999741Y10099604D01*
X8992080Y10081109D01*
Y10061091D01*
X8999741Y10042596D01*
X9013896Y10028441D01*
X9032391Y10020780D01*
X9052409D01*
X9070904Y10028441D01*
X9085059Y10042596D01*
X9092720Y10061091D01*
Y10073808D01*
X9216365Y10197453D01*
X9315532D01*
X9326053Y10172053D01*
X9241700Y10087700D01*
X9232718Y10074257D01*
X9229564Y10058400D01*
Y9525000D01*
X9232718Y9509143D01*
X9241700Y9495700D01*
X9397204Y9340196D01*
Y9062104D01*
X9341300Y9006200D01*
X9327582D01*
X9305411Y8997017D01*
X9288443Y8980049D01*
X9279260Y8957878D01*
Y8933882D01*
X9288443Y8911711D01*
X9305411Y8894743D01*
X9327582Y8885560D01*
X9351578D01*
X9373749Y8894743D01*
X9390717Y8911711D01*
X9399900Y8933882D01*
Y8947600D01*
X9467940Y9015640D01*
X9476922Y9029083D01*
X9480076Y9044940D01*
Y9357360D01*
X9476922Y9373217D01*
X9467940Y9386660D01*
X9317298Y9537301D01*
X9319437Y9553671D01*
X9345392Y9563016D01*
X9524054Y9384354D01*
X9534976Y9377056D01*
X9547860Y9374493D01*
X9782835D01*
X9859633Y9297695D01*
Y9092596D01*
X9850641Y9083604D01*
X9842980Y9065109D01*
Y9045091D01*
X9850641Y9026596D01*
X9864796Y9012441D01*
X9883291Y9004780D01*
X9903309D01*
X9921804Y9012441D01*
X9935959Y9026596D01*
X9943620Y9045091D01*
Y9065109D01*
X9935959Y9083604D01*
X9926967Y9092596D01*
Y9311640D01*
X9924404Y9324524D01*
X9917106Y9335446D01*
X9820586Y9431966D01*
X9809664Y9439264D01*
X9796780Y9441827D01*
X9637617D01*
X9632914Y9451047D01*
X9629830Y9467227D01*
X9640562Y9477959D01*
X9648223Y9496454D01*
Y9516472D01*
X9640562Y9534967D01*
X9626407Y9549122D01*
X9607912Y9556783D01*
X9594694D01*
X9535807Y9615670D01*
Y9864115D01*
X9575005Y9903313D01*
X9581380D01*
X9594264Y9905876D01*
X9605186Y9913173D01*
X9646864Y9954852D01*
X9659581D01*
X9678076Y9962513D01*
X9692231Y9976668D01*
X9699892Y9995163D01*
Y10015181D01*
X9692231Y10033676D01*
X9678313Y10047593D01*
X9678332Y10048976D01*
X9683702Y10072993D01*
X9793399D01*
X9798625Y10048338D01*
X9798630Y10047593D01*
X9784601Y10033564D01*
X9776940Y10015069D01*
Y9995051D01*
X9784601Y9976556D01*
X9793593Y9967564D01*
Y9726905D01*
X9767595Y9700907D01*
X9659016D01*
X9650024Y9709899D01*
X9631529Y9717560D01*
X9611511D01*
X9593016Y9709899D01*
X9578861Y9695744D01*
X9571200Y9677249D01*
Y9657231D01*
X9578861Y9638736D01*
X9593016Y9624581D01*
X9611511Y9616920D01*
X9631529D01*
X9650024Y9624581D01*
X9659016Y9633573D01*
X9781540D01*
X9794424Y9636136D01*
X9805346Y9643434D01*
X9851066Y9689154D01*
X9858364Y9700076D01*
X9860927Y9712960D01*
Y9967564D01*
X9869919Y9976556D01*
X9877580Y9995051D01*
Y10015069D01*
X9870205Y10032874D01*
X9870580Y10034484D01*
X9871023Y10035476D01*
X9883064Y10056340D01*
X9895689D01*
X9914184Y10064001D01*
X9923176Y10072993D01*
X10011435D01*
X10106013Y9978415D01*
Y8986520D01*
X10108576Y8973636D01*
X10115874Y8962714D01*
X10160480Y8918108D01*
Y8905391D01*
X10168141Y8886896D01*
X10182296Y8872741D01*
X10188244Y8870277D01*
X10183191Y8844877D01*
X9829800D01*
X9817907Y8842512D01*
X9807825Y8835775D01*
X9660910Y8688860D01*
X9644531D01*
X9626036Y8681199D01*
X9611881Y8667044D01*
X9604220Y8648549D01*
Y8628531D01*
X9611881Y8610036D01*
X9626036Y8595881D01*
X9644531Y8588220D01*
X9664549D01*
X9683044Y8595881D01*
X9697199Y8610036D01*
X9704860Y8628531D01*
Y8644910D01*
X9842672Y8782723D01*
X10488214D01*
X10499796Y8771141D01*
X10518291Y8763480D01*
X10538309D01*
X10556804Y8771141D01*
X10565796Y8780133D01*
X10673080D01*
X10674309Y8780378D01*
X10678311Y8778720D01*
X10698329D01*
X10716824Y8786381D01*
X10730979Y8800536D01*
X10738640Y8819031D01*
Y8839049D01*
X10730979Y8857544D01*
X10716824Y8871699D01*
X10698329Y8879360D01*
X10678311D01*
X10659816Y8871699D01*
X10645661Y8857544D01*
X10641487Y8847467D01*
X10565796D01*
X10556804Y8856459D01*
X10538309Y8864120D01*
X10518291D01*
X10499796Y8856459D01*
X10488214Y8844877D01*
X10238409D01*
X10233356Y8870277D01*
X10239304Y8872741D01*
X10253459Y8886896D01*
X10261120Y8905391D01*
Y8925409D01*
X10253459Y8943904D01*
X10239304Y8958059D01*
X10220809Y8965720D01*
X10208092D01*
X10173347Y9000465D01*
Y9143640D01*
X10198747Y9154161D01*
X10397814Y8955094D01*
X10408736Y8947796D01*
X10421620Y8945233D01*
X10742264D01*
X10751256Y8936241D01*
X10769751Y8928580D01*
X10789769D01*
X10812133Y8910351D01*
Y8565745D01*
X10714915Y8468527D01*
X10708652Y8472143D01*
X10681866Y8479320D01*
X10654134D01*
X10627348Y8472143D01*
X10603332Y8458277D01*
X10583723Y8438668D01*
X10569857Y8414652D01*
X10562680Y8387866D01*
Y8360134D01*
X10569857Y8333348D01*
X10583723Y8309332D01*
X10603332Y8289723D01*
X10627348Y8275857D01*
X10648313Y8270240D01*
X10644969Y8244840D01*
X10437031D01*
X10433687Y8270240D01*
X10454652Y8275857D01*
X10478668Y8289723D01*
X10498277Y8309332D01*
X10512143Y8333348D01*
X10519320Y8360134D01*
Y8387866D01*
X10512143Y8414652D01*
X10498277Y8438668D01*
X10478668Y8458277D01*
X10454652Y8472143D01*
X10427866Y8479320D01*
X10400134D01*
X10373348Y8472143D01*
X10349332Y8458277D01*
X10329723Y8438668D01*
X10315857Y8414652D01*
X10308680Y8387866D01*
Y8360134D01*
X10315857Y8333348D01*
X10329723Y8309332D01*
X10349332Y8289723D01*
X10373348Y8275857D01*
X10394313Y8270240D01*
X10390969Y8244840D01*
X10183031D01*
X10179687Y8270240D01*
X10200652Y8275857D01*
X10224668Y8289723D01*
X10244277Y8309332D01*
X10258143Y8333348D01*
X10265320Y8360134D01*
Y8387866D01*
X10258143Y8414652D01*
X10244277Y8438668D01*
X10224668Y8458277D01*
X10200652Y8472143D01*
X10173866Y8479320D01*
X10146134D01*
X10119348Y8472143D01*
X10095332Y8458277D01*
X10075723Y8438668D01*
X10061857Y8414652D01*
X10054680Y8387866D01*
Y8360134D01*
X10061857Y8333348D01*
X10075723Y8309332D01*
X10095332Y8289723D01*
X10119348Y8275857D01*
X10140313Y8270240D01*
X10136969Y8244840D01*
X9929031D01*
X9925687Y8270240D01*
X9946652Y8275857D01*
X9970668Y8289723D01*
X9990277Y8309332D01*
X10004143Y8333348D01*
X10011320Y8360134D01*
Y8387866D01*
X10004143Y8414652D01*
X9990277Y8438668D01*
X9970668Y8458277D01*
X9946652Y8472143D01*
X9919866Y8479320D01*
X9892134D01*
X9865348Y8472143D01*
X9841332Y8458277D01*
X9821723Y8438668D01*
X9807857Y8414652D01*
X9800680Y8387866D01*
Y8360134D01*
X9807857Y8333348D01*
X9821723Y8309332D01*
X9841332Y8289723D01*
X9865348Y8275857D01*
X9886313Y8270240D01*
X9882969Y8244840D01*
X9675031D01*
X9671687Y8270240D01*
X9692652Y8275857D01*
X9716668Y8289723D01*
X9736277Y8309332D01*
X9750143Y8333348D01*
X9757320Y8360134D01*
Y8387866D01*
X9750143Y8414652D01*
X9736277Y8438668D01*
X9716668Y8458277D01*
X9692652Y8472143D01*
X9665866Y8479320D01*
X9638134D01*
X9611348Y8472143D01*
X9587332Y8458277D01*
X9567723Y8438668D01*
X9553857Y8414652D01*
X9546680Y8387866D01*
Y8360134D01*
X9553857Y8333348D01*
X9567723Y8309332D01*
X9587332Y8289723D01*
X9611348Y8275857D01*
X9632313Y8270240D01*
X9628969Y8244840D01*
X8313420D01*
Y7767320D01*
X8021320D01*
Y8059420D01*
X7635240Y8094980D01*
Y9702800D01*
X7762240Y9829800D01*
X8839200D01*
X8940800Y9931400D01*
Y10294620D01*
X9004300Y10358120D01*
X9756140D01*
X9826007Y10288253D01*
D02*
G37*
%LPC*%
G36*
X10614509Y8635520D02*
X10594491D01*
X10575996Y8627859D01*
X10561841Y8613704D01*
X10557646Y8603577D01*
X9946086D01*
X9934504Y8615159D01*
X9916009Y8622820D01*
X9895991D01*
X9877496Y8615159D01*
X9863341Y8601004D01*
X9855680Y8582509D01*
Y8562491D01*
X9863341Y8543996D01*
X9877496Y8529841D01*
X9895991Y8522180D01*
X9916009D01*
X9934504Y8529841D01*
X9946086Y8541423D01*
X10578695D01*
X10594491Y8534880D01*
X10614509D01*
X10633004Y8542541D01*
X10647159Y8556696D01*
X10654820Y8575191D01*
Y8595209D01*
X10647159Y8613704D01*
X10633004Y8627859D01*
X10614509Y8635520D01*
D02*
G37*
%LPD*%
D27*
X10439400Y9085580D02*
Y9410700D01*
X10507980Y9479280D01*
X10528300Y9110980D02*
Y9368960D01*
X10657479Y9534799D02*
Y9687921D01*
X10507980Y9479280D02*
X10601960D01*
X10657479Y9534799D01*
X10541000Y9804400D02*
X10657479Y9687921D01*
X10132695Y10100945D02*
X10183856D01*
X10198735Y10086066D01*
Y9201785D02*
X10421620Y8978900D01*
X10198735Y9201785D02*
Y10086066D01*
X10139680Y8986520D02*
X10210800Y8915400D01*
X10139680Y8986520D02*
Y9992360D01*
X10025380Y10106660D02*
X10139680Y9992360D01*
X9885680Y10106660D02*
X10025380D01*
X9641616D02*
X9885680D01*
X10160000Y10414000D02*
X10327640Y10246360D01*
X10401300D01*
X9581380Y9936980D02*
X9649572Y10005172D01*
X9502140Y9878060D02*
X9561060Y9936980D01*
X9581380D01*
X9502140Y9601725D02*
Y9878060D01*
X9545096Y10010140D02*
X9641616Y10106660D01*
X9423400Y10010140D02*
X9545096D01*
X9202420Y10231120D02*
X10002520D01*
X9042400Y10071100D02*
X9202420Y10231120D01*
X10002520D02*
X10132695Y10100945D01*
X9827260Y9712960D02*
Y10005060D01*
X9781540Y9667240D02*
X9827260Y9712960D01*
X9621520Y9667240D02*
X9781540D01*
X9796780Y9408160D02*
X9893300Y9311640D01*
X9354820Y9601200D02*
X9547860Y9408160D01*
X9796780D01*
X9354820Y9601200D02*
Y9832340D01*
X9893300Y9055100D02*
Y9311640D01*
X10467340Y9743789D02*
X10574151Y9636978D01*
X10401300Y10246360D02*
X10467340Y10180320D01*
Y9743789D02*
Y10180320D01*
X10668000Y9126220D02*
X10734810Y9193030D01*
X10767830D01*
X10617200Y9126220D02*
X10668000D01*
X10767830Y9193030D02*
X10820400Y9245600D01*
X10421620Y8978900D02*
X10779760D01*
X10812209Y9060751D02*
X10845800Y9027160D01*
X10668000Y8374000D02*
X10845800Y8551800D01*
Y9027160D01*
X10578529Y9060751D02*
X10812209D01*
X10673080Y8813800D02*
X10688320Y8829040D01*
X10528300Y8813800D02*
X10673080D01*
X10820400Y9245600D02*
Y10261600D01*
X10528300Y9110980D02*
X10578529Y9060751D01*
X9597402Y9506463D02*
X9597903D01*
X9502140Y9601725D02*
X9597402Y9506463D01*
X10616391Y9398000D02*
X10731500Y9513109D01*
X10414000Y10414000D02*
X10731500Y10096500D01*
Y9513109D02*
Y10096500D01*
X10668000Y10414000D02*
X10820400Y10261600D01*
D28*
X9339580Y8945880D02*
X9438640Y9044940D01*
Y9357360D01*
X9271000Y9525000D02*
X9438640Y9357360D01*
X9271000Y9525000D02*
Y10058400D01*
X9372600Y10160000D01*
X9519920D01*
D30*
X9654540Y8638540D02*
X9829800Y8813800D01*
X10528300D01*
X9906000Y8572500D02*
X10591800D01*
X10604500Y8585200D01*
D31*
X8128000Y7874000D02*
D03*
X8636000D02*
D03*
X10160000Y8374000D02*
D03*
X9906000D02*
D03*
X9652000D02*
D03*
X10414000D02*
D03*
X10668000D02*
D03*
Y10414000D02*
D03*
X10414000D02*
D03*
X10160000D02*
D03*
X9906000D02*
D03*
X7874000Y7874000D02*
D03*
D32*
X8300000Y8300000D02*
D03*
X8200000D02*
D03*
X8100000D02*
D03*
X8000000D02*
D03*
X7900000D02*
D03*
X8700000D02*
D03*
X8600000D02*
D03*
X8500000D02*
D03*
X8400000D02*
D03*
X7900000Y9500000D02*
D03*
X7700000D02*
D03*
X7900000Y9700000D02*
D03*
X7700000D02*
D03*
X8900000Y9100000D02*
D03*
X8800000D02*
D03*
Y9200000D02*
D03*
X8900000D02*
D03*
Y9300000D02*
D03*
X8800000D02*
D03*
X9347181Y9123912D02*
D03*
X9345322Y9057017D02*
D03*
X9349039Y9200097D02*
D03*
X9700000Y9100000D02*
D03*
Y9000000D02*
D03*
X9600000D02*
D03*
X10400000Y8700000D02*
D03*
X10300000D02*
D03*
X10200000D02*
D03*
X10100000D02*
D03*
X10000000D02*
D03*
X9900000D02*
D03*
X9400000Y8600000D02*
D03*
Y8500000D02*
D03*
X9300000D02*
D03*
Y8400000D02*
D03*
X9400000D02*
D03*
Y8300000D02*
D03*
X9300000D02*
D03*
X9200000D02*
D03*
X9100000D02*
D03*
X9039860Y9944100D02*
D03*
X9037320Y9870440D02*
D03*
X8966200D02*
D03*
X9600898Y9086903D02*
D03*
X9047480Y8846820D02*
D03*
X10617200Y10060940D02*
D03*
X10614660Y9964420D02*
D03*
X10533380Y9969500D02*
D03*
Y10060940D02*
D03*
Y10149840D02*
D03*
X9956800Y9370060D02*
D03*
X9959340Y9288780D02*
D03*
X10038080Y9291320D02*
D03*
Y9370060D02*
D03*
X10035540Y9448800D02*
D03*
X9954260D02*
D03*
X9865360Y9456420D02*
D03*
Y9550400D02*
D03*
Y9639300D02*
D03*
X10269220Y9999980D02*
D03*
X10335260Y10073640D02*
D03*
X10528300Y9368960D02*
D03*
X10287000Y9286240D02*
D03*
Y9400540D02*
D03*
Y9507220D02*
D03*
Y9616440D02*
D03*
X10284460Y9723120D02*
D03*
X9649572Y10005172D02*
D03*
X9519920Y10160000D02*
D03*
X10210800Y8915400D02*
D03*
X9885680Y10106660D02*
D03*
X9423400Y10010140D02*
D03*
X10083800Y8902700D02*
D03*
X10134600Y10232960D02*
D03*
X9621520Y9667240D02*
D03*
X9827260Y10005060D02*
D03*
X9893300Y9055100D02*
D03*
X9354820Y9832340D02*
D03*
X10617200Y9126220D02*
D03*
X10779760Y8978900D02*
D03*
X10688320Y8829040D02*
D03*
X10439400Y9085580D02*
D03*
X9597903Y9506463D02*
D03*
X9654540Y8638540D02*
D03*
X10604500Y8585200D02*
D03*
X10575489Y9635640D02*
D03*
X10616391Y9398000D02*
D03*
X10541000Y9804400D02*
D03*
X9042400Y10071100D02*
D03*
X9906000Y8572500D02*
D03*
X10528300Y8813800D02*
D03*
D33*
X9339580Y8945880D02*
D03*
X10340340Y10165080D02*
D03*
%TF.MD5,2770c83e8aead53d9bdf1aeb04dca9f9*%
M02*
