%TF.GenerationSoftware,Altium Limited,Altium Designer,20.2.3 (150)*%
G04 Layer_Color=65535*
%FSLAX26Y26*%
%MOIN*%
%TF.SameCoordinates,27716F98-0B22-40FE-96F5-AA6DB086EB47*%
%TF.FilePolarity,Positive*%
%TF.FileFunction,Legend,Top*%
%TF.Part,Single*%
G01*
G75*
%TA.AperFunction,NonConductor*%
%ADD41C,0.007874*%
%ADD42C,0.005000*%
%ADD47C,0.009842*%
%ADD48C,0.006000*%
G36*
X2654381Y2049034D02*
X2653733D01*
Y2049066D01*
X2653701Y2049164D01*
X2653668Y2049293D01*
X2653636Y2049455D01*
X2653571Y2049682D01*
X2653506Y2049941D01*
X2653280Y2050524D01*
X2652988Y2051205D01*
X2652599Y2051885D01*
X2652113Y2052566D01*
X2651498Y2053214D01*
X2651465Y2053246D01*
X2651433Y2053278D01*
X2651336Y2053376D01*
X2651206Y2053473D01*
X2651044Y2053602D01*
X2650850Y2053732D01*
X2650364Y2054024D01*
X2649813Y2054315D01*
X2649165Y2054574D01*
X2648452Y2054769D01*
X2648096Y2054801D01*
X2647707Y2054834D01*
X2647448D01*
X2647156Y2054801D01*
X2646800Y2054736D01*
X2646411Y2054639D01*
X2645990Y2054477D01*
X2645568Y2054283D01*
X2645212Y2053991D01*
X2645180Y2053959D01*
X2645082Y2053829D01*
X2644920Y2053667D01*
X2644758Y2053440D01*
X2644596Y2053149D01*
X2644434Y2052825D01*
X2644337Y2052436D01*
X2644305Y2052047D01*
Y2052015D01*
Y2051918D01*
X2644337Y2051788D01*
Y2051626D01*
X2644434Y2051237D01*
X2644629Y2050816D01*
X2644661Y2050784D01*
X2644726Y2050686D01*
X2644823Y2050557D01*
X2644953Y2050362D01*
X2645147Y2050136D01*
X2645406Y2049876D01*
X2645698Y2049617D01*
X2646054Y2049358D01*
X2646087Y2049326D01*
X2646216Y2049261D01*
X2646443Y2049131D01*
X2646767Y2048969D01*
X2646962Y2048840D01*
X2647221Y2048710D01*
X2647480Y2048580D01*
X2647804Y2048418D01*
X2648128Y2048224D01*
X2648517Y2048030D01*
X2648970Y2047803D01*
X2649424Y2047576D01*
X2649456Y2047544D01*
X2649586Y2047511D01*
X2649780Y2047414D01*
X2650007Y2047284D01*
X2650331Y2047122D01*
X2650655Y2046928D01*
X2651044Y2046701D01*
X2651433Y2046474D01*
X2652275Y2045956D01*
X2653085Y2045373D01*
X2653474Y2045049D01*
X2653830Y2044757D01*
X2654154Y2044433D01*
X2654414Y2044142D01*
Y2044109D01*
X2654478Y2044077D01*
X2654543Y2043980D01*
X2654608Y2043850D01*
X2654802Y2043526D01*
X2655062Y2043105D01*
X2655288Y2042554D01*
X2655483Y2041938D01*
X2655612Y2041226D01*
X2655677Y2040480D01*
Y2040448D01*
Y2040351D01*
Y2040221D01*
X2655645Y2040027D01*
X2655612Y2039800D01*
X2655580Y2039541D01*
X2655418Y2038925D01*
X2655159Y2038245D01*
X2654997Y2037856D01*
X2654802Y2037467D01*
X2654576Y2037078D01*
X2654284Y2036722D01*
X2653960Y2036333D01*
X2653604Y2035977D01*
X2653571Y2035944D01*
X2653506Y2035912D01*
X2653409Y2035815D01*
X2653247Y2035685D01*
X2653020Y2035556D01*
X2652794Y2035394D01*
X2652502Y2035199D01*
X2652178Y2035037D01*
X2651822Y2034875D01*
X2651433Y2034681D01*
X2651012Y2034519D01*
X2650558Y2034389D01*
X2650072Y2034260D01*
X2649554Y2034195D01*
X2649003Y2034130D01*
X2648420Y2034098D01*
X2648063D01*
X2647804Y2034130D01*
X2647512Y2034162D01*
X2647188Y2034195D01*
X2646540Y2034324D01*
X2646508D01*
X2646378Y2034357D01*
X2646184Y2034422D01*
X2645925Y2034486D01*
X2645633Y2034584D01*
X2645244Y2034713D01*
X2644823Y2034843D01*
X2644337Y2035037D01*
X2644305D01*
X2644208Y2035102D01*
X2644078Y2035134D01*
X2643916Y2035199D01*
X2643495Y2035296D01*
X2643106Y2035361D01*
X2643041D01*
X2642847Y2035329D01*
X2642588Y2035232D01*
X2642264Y2035037D01*
X2642231D01*
X2642199Y2034972D01*
X2642004Y2034810D01*
X2641778Y2034519D01*
X2641551Y2034098D01*
X2641000D01*
Y2042003D01*
X2641551D01*
Y2041971D01*
X2641583Y2041874D01*
X2641616Y2041679D01*
X2641680Y2041452D01*
X2641778Y2041161D01*
X2641875Y2040869D01*
X2642004Y2040513D01*
X2642134Y2040124D01*
X2642490Y2039282D01*
X2642944Y2038439D01*
X2643495Y2037629D01*
X2643786Y2037273D01*
X2644143Y2036916D01*
X2644175Y2036884D01*
X2644240Y2036852D01*
X2644337Y2036754D01*
X2644499Y2036657D01*
X2644661Y2036528D01*
X2644888Y2036366D01*
X2645406Y2036042D01*
X2646022Y2035718D01*
X2646735Y2035426D01*
X2647512Y2035232D01*
X2647934Y2035199D01*
X2648355Y2035167D01*
X2648646D01*
X2648938Y2035232D01*
X2649359Y2035296D01*
X2649780Y2035394D01*
X2650234Y2035556D01*
X2650688Y2035782D01*
X2651109Y2036106D01*
X2651141Y2036139D01*
X2651271Y2036268D01*
X2651433Y2036463D01*
X2651627Y2036722D01*
X2651822Y2037046D01*
X2651984Y2037435D01*
X2652113Y2037824D01*
X2652146Y2038277D01*
Y2038310D01*
Y2038407D01*
X2652113Y2038536D01*
X2652081Y2038731D01*
X2651984Y2039184D01*
X2651854Y2039444D01*
X2651724Y2039703D01*
X2651692Y2039735D01*
X2651660Y2039832D01*
X2651562Y2039962D01*
X2651433Y2040124D01*
X2651271Y2040351D01*
X2651044Y2040578D01*
X2650817Y2040804D01*
X2650526Y2041031D01*
X2650493Y2041064D01*
X2650364Y2041161D01*
X2650169Y2041290D01*
X2649878Y2041485D01*
X2649489Y2041712D01*
X2648970Y2042003D01*
X2648387Y2042327D01*
X2647674Y2042684D01*
X2647642Y2042716D01*
X2647545Y2042748D01*
X2647415Y2042813D01*
X2647221Y2042910D01*
X2646962Y2043040D01*
X2646702Y2043170D01*
X2646087Y2043494D01*
X2645406Y2043882D01*
X2644726Y2044271D01*
X2644078Y2044660D01*
X2643819Y2044854D01*
X2643560Y2045049D01*
X2643495Y2045081D01*
X2643365Y2045211D01*
X2643138Y2045438D01*
X2642847Y2045697D01*
X2642555Y2046021D01*
X2642231Y2046410D01*
X2641940Y2046798D01*
X2641648Y2047252D01*
X2641616Y2047317D01*
X2641551Y2047479D01*
X2641454Y2047706D01*
X2641324Y2048062D01*
X2641194Y2048451D01*
X2641097Y2048937D01*
X2641032Y2049423D01*
X2641000Y2049974D01*
Y2050006D01*
Y2050071D01*
Y2050200D01*
X2641032Y2050395D01*
X2641065Y2050622D01*
X2641097Y2050848D01*
X2641227Y2051432D01*
X2641454Y2052112D01*
X2641778Y2052825D01*
X2641972Y2053181D01*
X2642231Y2053538D01*
X2642490Y2053894D01*
X2642814Y2054218D01*
X2642847Y2054250D01*
X2642912Y2054283D01*
X2643009Y2054380D01*
X2643138Y2054510D01*
X2643333Y2054639D01*
X2643560Y2054769D01*
X2643819Y2054931D01*
X2644078Y2055125D01*
X2644402Y2055287D01*
X2644758Y2055449D01*
X2645568Y2055708D01*
X2646476Y2055935D01*
X2646962Y2055968D01*
X2647480Y2056000D01*
X2647836D01*
X2648096Y2055968D01*
X2648420Y2055935D01*
X2648744Y2055903D01*
X2649456Y2055741D01*
X2649489D01*
X2649586Y2055708D01*
X2649748Y2055644D01*
X2649942Y2055579D01*
X2650202Y2055482D01*
X2650493Y2055384D01*
X2650850Y2055222D01*
X2651206Y2055060D01*
X2651238Y2055028D01*
X2651368Y2054996D01*
X2651562Y2054898D01*
X2651789Y2054834D01*
X2652275Y2054639D01*
X2652502Y2054607D01*
X2652696Y2054574D01*
X2652761D01*
X2652923Y2054607D01*
X2653118Y2054672D01*
X2653312Y2054801D01*
X2653344Y2054866D01*
X2653409Y2054931D01*
X2653442Y2055060D01*
X2653539Y2055222D01*
X2653604Y2055417D01*
X2653668Y2055676D01*
X2653766Y2056000D01*
X2654219D01*
X2654381Y2049034D01*
D02*
G37*
G36*
X2688207Y2054963D02*
X2688110D01*
X2688012Y2054931D01*
X2687850Y2054898D01*
X2687526Y2054801D01*
X2687202Y2054607D01*
X2687170D01*
X2687138Y2054574D01*
X2686976Y2054412D01*
X2686749Y2054153D01*
X2686522Y2053764D01*
X2686490Y2053700D01*
X2686457Y2053602D01*
X2686360Y2053408D01*
X2686230Y2053084D01*
X2686166Y2052890D01*
X2686068Y2052663D01*
X2685971Y2052404D01*
X2685842Y2052112D01*
X2685712Y2051756D01*
X2685550Y2051367D01*
X2679005Y2034098D01*
X2678390D01*
X2673238Y2047673D01*
X2667503Y2034098D01*
X2666985D01*
X2660084Y2051172D01*
Y2051205D01*
X2660051Y2051302D01*
X2659986Y2051432D01*
X2659922Y2051594D01*
X2659824Y2051788D01*
X2659727Y2052015D01*
X2659500Y2052533D01*
X2659241Y2053084D01*
X2659014Y2053602D01*
X2658885Y2053829D01*
X2658788Y2054024D01*
X2658690Y2054186D01*
X2658593Y2054315D01*
X2658561Y2054348D01*
X2658528Y2054412D01*
X2658399Y2054510D01*
X2658269Y2054607D01*
X2658075Y2054704D01*
X2657816Y2054834D01*
X2657524Y2054898D01*
X2657200Y2054963D01*
Y2055514D01*
X2666272D01*
Y2054963D01*
X2666110D01*
X2665916Y2054931D01*
X2665689Y2054898D01*
X2665203Y2054801D01*
X2664976Y2054704D01*
X2664814Y2054607D01*
X2664749Y2054542D01*
X2664652Y2054412D01*
X2664522Y2054186D01*
X2664490Y2054024D01*
X2664458Y2053862D01*
Y2053829D01*
Y2053732D01*
X2664490Y2053570D01*
X2664555Y2053343D01*
X2664652Y2052987D01*
X2664782Y2052566D01*
X2664944Y2052015D01*
X2665203Y2051367D01*
X2669285Y2041193D01*
X2672590Y2049164D01*
X2671748Y2051367D01*
Y2051399D01*
X2671715Y2051464D01*
X2671683Y2051529D01*
X2671618Y2051658D01*
X2671488Y2051982D01*
X2671359Y2052371D01*
X2671164Y2052760D01*
X2670970Y2053181D01*
X2670808Y2053538D01*
X2670646Y2053797D01*
X2670614Y2053829D01*
X2670581Y2053894D01*
X2670484Y2053991D01*
X2670387Y2054153D01*
X2670095Y2054412D01*
X2669933Y2054574D01*
X2669739Y2054672D01*
X2669706D01*
X2669642Y2054704D01*
X2669544Y2054769D01*
X2669382Y2054834D01*
X2669156Y2054866D01*
X2668929Y2054931D01*
X2668637Y2054963D01*
X2668281D01*
Y2055514D01*
X2678390D01*
Y2054963D01*
X2678228D01*
X2678033Y2054931D01*
X2677806D01*
X2677288Y2054866D01*
X2677061Y2054834D01*
X2676867Y2054769D01*
X2676802Y2054736D01*
X2676672Y2054704D01*
X2676510Y2054574D01*
X2676348Y2054412D01*
X2676316Y2054380D01*
X2676284Y2054250D01*
X2676219Y2054056D01*
X2676186Y2053829D01*
Y2053797D01*
Y2053732D01*
X2676219Y2053635D01*
X2676284Y2053408D01*
X2676348Y2053149D01*
X2676478Y2052760D01*
X2676640Y2052242D01*
X2676737Y2051950D01*
X2676867Y2051626D01*
X2680658Y2041712D01*
X2684092Y2050686D01*
Y2050719D01*
X2684124Y2050751D01*
X2684189Y2050913D01*
X2684254Y2051140D01*
X2684384Y2051464D01*
X2684578Y2052080D01*
X2684675Y2052371D01*
X2684740Y2052598D01*
Y2052630D01*
X2684772Y2052695D01*
Y2052792D01*
X2684805Y2052922D01*
X2684837Y2053214D01*
X2684870Y2053538D01*
Y2053570D01*
Y2053635D01*
X2684837Y2053764D01*
X2684805Y2053894D01*
X2684675Y2054250D01*
X2684578Y2054412D01*
X2684416Y2054542D01*
X2684384Y2054574D01*
X2684319Y2054607D01*
X2684222Y2054672D01*
X2684060Y2054736D01*
X2683833Y2054801D01*
X2683541Y2054898D01*
X2683217Y2054931D01*
X2682796Y2054963D01*
Y2055514D01*
X2688207D01*
Y2054963D01*
D02*
G37*
G36*
X2699223Y2055482D02*
X2699579Y2055449D01*
X2700000Y2055417D01*
X2700454Y2055384D01*
X2701394Y2055255D01*
X2702398Y2055093D01*
X2703402Y2054834D01*
X2703856Y2054672D01*
X2704310Y2054477D01*
X2704342D01*
X2704439Y2054412D01*
X2704569Y2054348D01*
X2704763Y2054250D01*
X2705022Y2054121D01*
X2705282Y2053959D01*
X2705897Y2053538D01*
X2706578Y2052987D01*
X2707290Y2052339D01*
X2707971Y2051561D01*
X2708262Y2051140D01*
X2708554Y2050686D01*
X2708586Y2050654D01*
X2708619Y2050557D01*
X2708684Y2050427D01*
X2708781Y2050233D01*
X2708878Y2050006D01*
X2709008Y2049714D01*
X2709137Y2049390D01*
X2709299Y2049034D01*
X2709429Y2048613D01*
X2709558Y2048192D01*
X2709785Y2047220D01*
X2709947Y2046150D01*
X2710012Y2045567D01*
Y2044984D01*
Y2044952D01*
Y2044887D01*
Y2044757D01*
Y2044595D01*
X2709980Y2044401D01*
Y2044174D01*
X2709915Y2043623D01*
X2709850Y2043008D01*
X2709720Y2042327D01*
X2709526Y2041614D01*
X2709299Y2040902D01*
Y2040869D01*
X2709267Y2040837D01*
X2709234Y2040740D01*
X2709170Y2040610D01*
X2709008Y2040254D01*
X2708813Y2039832D01*
X2708522Y2039346D01*
X2708230Y2038828D01*
X2707874Y2038310D01*
X2707452Y2037824D01*
X2707388Y2037759D01*
X2707258Y2037629D01*
X2707031Y2037402D01*
X2706707Y2037143D01*
X2706318Y2036819D01*
X2705865Y2036495D01*
X2705379Y2036171D01*
X2704828Y2035880D01*
X2704763Y2035847D01*
X2704569Y2035750D01*
X2704245Y2035620D01*
X2703824Y2035458D01*
X2703305Y2035296D01*
X2702722Y2035102D01*
X2702009Y2034908D01*
X2701264Y2034746D01*
X2701232D01*
X2701102Y2034713D01*
X2700875Y2034681D01*
X2700551D01*
X2700130Y2034648D01*
X2699612Y2034616D01*
X2698996Y2034584D01*
X2688952D01*
Y2035134D01*
X2689956D01*
X2690151Y2035167D01*
X2690604Y2035232D01*
X2690831Y2035296D01*
X2691026Y2035394D01*
X2691058D01*
X2691090Y2035458D01*
X2691285Y2035588D01*
X2691544Y2035847D01*
X2691738Y2036171D01*
Y2036204D01*
X2691771Y2036236D01*
X2691803Y2036366D01*
X2691836Y2036528D01*
Y2036787D01*
X2691868Y2037143D01*
X2691900Y2037597D01*
Y2038148D01*
Y2051950D01*
Y2051982D01*
Y2052015D01*
Y2052209D01*
Y2052468D01*
X2691868Y2052792D01*
Y2053116D01*
X2691836Y2053440D01*
X2691771Y2053732D01*
X2691706Y2053926D01*
Y2053959D01*
X2691674Y2053991D01*
X2691576Y2054186D01*
X2691350Y2054412D01*
X2691220Y2054542D01*
X2691026Y2054639D01*
X2690993D01*
X2690928Y2054704D01*
X2690831Y2054736D01*
X2690669Y2054801D01*
X2690475Y2054866D01*
X2690216Y2054898D01*
X2689956Y2054963D01*
X2688952D01*
Y2055514D01*
X2698899D01*
X2699223Y2055482D01*
D02*
G37*
G36*
X2579829Y2047742D02*
X2579213D01*
Y2047775D01*
X2579181Y2047872D01*
X2579148Y2048002D01*
X2579084Y2048228D01*
X2578986Y2048455D01*
X2578889Y2048714D01*
X2578630Y2049362D01*
X2578306Y2050075D01*
X2577852Y2050788D01*
X2577334Y2051501D01*
X2576686Y2052116D01*
X2576654Y2052149D01*
X2576589Y2052181D01*
X2576492Y2052246D01*
X2576362Y2052343D01*
X2576200Y2052473D01*
X2575973Y2052602D01*
X2575487Y2052894D01*
X2574839Y2053153D01*
X2574159Y2053412D01*
X2573349Y2053574D01*
X2572928Y2053639D01*
X2572312D01*
X2572182Y2053607D01*
X2571988D01*
X2571794Y2053574D01*
X2571308Y2053510D01*
X2570757Y2053348D01*
X2570141Y2053153D01*
X2569526Y2052894D01*
X2568910Y2052505D01*
X2568878D01*
X2568845Y2052440D01*
X2568651Y2052311D01*
X2568359Y2052052D01*
X2568003Y2051695D01*
X2567614Y2051274D01*
X2567225Y2050756D01*
X2566836Y2050172D01*
X2566512Y2049524D01*
Y2049492D01*
X2566480Y2049427D01*
X2566415Y2049298D01*
X2566383Y2049103D01*
X2566286Y2048909D01*
X2566221Y2048650D01*
X2566124Y2048326D01*
X2566059Y2048002D01*
X2565962Y2047645D01*
X2565864Y2047224D01*
X2565735Y2046349D01*
X2565605Y2045377D01*
X2565573Y2044340D01*
Y2044308D01*
Y2044211D01*
Y2044081D01*
Y2043854D01*
X2565605Y2043628D01*
Y2043336D01*
X2565638Y2043012D01*
X2565670Y2042656D01*
X2565735Y2041846D01*
X2565864Y2041003D01*
X2566026Y2040096D01*
X2566253Y2039221D01*
Y2039189D01*
X2566286Y2039124D01*
X2566318Y2038994D01*
X2566383Y2038832D01*
X2566480Y2038638D01*
X2566545Y2038444D01*
X2566804Y2037925D01*
X2567096Y2037342D01*
X2567484Y2036791D01*
X2567938Y2036208D01*
X2568456Y2035722D01*
X2568489D01*
X2568521Y2035657D01*
X2568618Y2035625D01*
X2568748Y2035528D01*
X2569072Y2035366D01*
X2569526Y2035139D01*
X2570076Y2034912D01*
X2570757Y2034750D01*
X2571534Y2034620D01*
X2572377Y2034556D01*
X2572701D01*
X2572895Y2034588D01*
X2573090D01*
X2573576Y2034653D01*
X2574126Y2034750D01*
X2574742Y2034912D01*
X2575358Y2035106D01*
X2575973Y2035398D01*
X2576006D01*
X2576038Y2035430D01*
X2576135Y2035495D01*
X2576265Y2035560D01*
X2576589Y2035787D01*
X2577042Y2036111D01*
X2577561Y2036500D01*
X2578144Y2037018D01*
X2578792Y2037634D01*
X2579472Y2038379D01*
Y2036597D01*
X2579440Y2036564D01*
X2579408Y2036532D01*
X2579310Y2036435D01*
X2579181Y2036305D01*
X2578824Y2035981D01*
X2578338Y2035560D01*
X2577788Y2035139D01*
X2577172Y2034685D01*
X2576492Y2034264D01*
X2575779Y2033908D01*
X2575746D01*
X2575682Y2033875D01*
X2575584Y2033843D01*
X2575455Y2033778D01*
X2575260Y2033713D01*
X2575066Y2033648D01*
X2574807Y2033584D01*
X2574515Y2033519D01*
X2573867Y2033357D01*
X2573122Y2033227D01*
X2572280Y2033130D01*
X2571340Y2033098D01*
X2571016D01*
X2570789Y2033130D01*
X2570498D01*
X2570141Y2033162D01*
X2569752Y2033195D01*
X2569364Y2033260D01*
X2568424Y2033422D01*
X2567420Y2033648D01*
X2566415Y2033972D01*
X2565411Y2034426D01*
X2565378Y2034458D01*
X2565314Y2034491D01*
X2565152Y2034556D01*
X2564990Y2034685D01*
X2564763Y2034815D01*
X2564504Y2034977D01*
X2563953Y2035398D01*
X2563305Y2035949D01*
X2562624Y2036629D01*
X2561976Y2037407D01*
X2561393Y2038282D01*
Y2038314D01*
X2561328Y2038411D01*
X2561264Y2038541D01*
X2561166Y2038735D01*
X2561069Y2038962D01*
X2560940Y2039221D01*
X2560842Y2039545D01*
X2560713Y2039902D01*
X2560583Y2040290D01*
X2560454Y2040712D01*
X2560227Y2041619D01*
X2560065Y2042623D01*
X2560032Y2043142D01*
X2560000Y2043660D01*
Y2043692D01*
Y2043790D01*
Y2043952D01*
X2560032Y2044178D01*
Y2044438D01*
X2560097Y2044762D01*
X2560130Y2045086D01*
X2560194Y2045474D01*
X2560389Y2046349D01*
X2560648Y2047321D01*
X2561037Y2048326D01*
X2561296Y2048812D01*
X2561555Y2049330D01*
X2561588Y2049362D01*
X2561620Y2049460D01*
X2561717Y2049589D01*
X2561847Y2049784D01*
X2562009Y2050010D01*
X2562203Y2050270D01*
X2562398Y2050561D01*
X2562657Y2050853D01*
X2563272Y2051533D01*
X2563985Y2052214D01*
X2564828Y2052894D01*
X2565767Y2053510D01*
X2565800Y2053542D01*
X2565897Y2053574D01*
X2566026Y2053639D01*
X2566221Y2053736D01*
X2566480Y2053866D01*
X2566772Y2053996D01*
X2567096Y2054125D01*
X2567484Y2054255D01*
X2567873Y2054384D01*
X2568327Y2054514D01*
X2569266Y2054773D01*
X2570303Y2054935D01*
X2570854Y2055000D01*
X2571794D01*
X2571988Y2054968D01*
X2572247Y2054935D01*
X2572506D01*
X2572830Y2054870D01*
X2573511Y2054773D01*
X2574288Y2054579D01*
X2575163Y2054352D01*
X2576070Y2054028D01*
X2576103D01*
X2576135Y2053996D01*
X2576297Y2053931D01*
X2576556Y2053866D01*
X2576848Y2053769D01*
X2577140Y2053639D01*
X2577431Y2053574D01*
X2577690Y2053510D01*
X2577885Y2053477D01*
X2577982D01*
X2578176Y2053510D01*
X2578436Y2053639D01*
X2578598Y2053704D01*
X2578727Y2053834D01*
X2578760Y2053866D01*
X2578792Y2053898D01*
X2578857Y2053996D01*
X2578922Y2054125D01*
X2579019Y2054287D01*
X2579084Y2054482D01*
X2579148Y2054708D01*
X2579213Y2055000D01*
X2579829D01*
Y2047742D01*
D02*
G37*
G36*
X2626452Y2053963D02*
X2626420D01*
X2626258Y2053931D01*
X2626064D01*
X2625837Y2053866D01*
X2625254Y2053736D01*
X2624994Y2053639D01*
X2624735Y2053542D01*
X2624703Y2053510D01*
X2624606Y2053477D01*
X2624411Y2053348D01*
X2624152Y2053153D01*
X2623763Y2052894D01*
X2623536Y2052700D01*
X2623245Y2052505D01*
X2622953Y2052278D01*
X2622629Y2052019D01*
X2622273Y2051728D01*
X2621852Y2051404D01*
X2615760Y2046479D01*
X2623083Y2037245D01*
X2623115Y2037212D01*
X2623148Y2037148D01*
X2623245Y2037050D01*
X2623342Y2036921D01*
X2623634Y2036597D01*
X2623990Y2036176D01*
X2624411Y2035754D01*
X2624865Y2035333D01*
X2625318Y2034944D01*
X2625772Y2034620D01*
X2625804Y2034588D01*
X2625902Y2034556D01*
X2626064Y2034458D01*
X2626290Y2034394D01*
X2626550Y2034296D01*
X2626841Y2034199D01*
X2627165Y2034167D01*
X2627489Y2034134D01*
Y2033584D01*
X2616635D01*
Y2034134D01*
X2616797D01*
X2616992Y2034167D01*
X2617186Y2034199D01*
X2617640Y2034296D01*
X2617834Y2034361D01*
X2617964Y2034426D01*
X2617996Y2034458D01*
X2618126Y2034588D01*
X2618223Y2034782D01*
X2618255Y2035009D01*
Y2035042D01*
X2618223Y2035139D01*
X2618190Y2035301D01*
X2618093Y2035560D01*
X2617899Y2035884D01*
X2617640Y2036338D01*
X2617316Y2036856D01*
X2617089Y2037148D01*
X2616830Y2037472D01*
X2612067Y2043498D01*
X2611289Y2042850D01*
Y2037148D01*
Y2037115D01*
Y2037083D01*
Y2036888D01*
Y2036597D01*
X2611322Y2036273D01*
Y2035916D01*
X2611354Y2035592D01*
X2611386Y2035301D01*
X2611451Y2035074D01*
Y2035042D01*
X2611484Y2035009D01*
X2611613Y2034847D01*
X2611840Y2034620D01*
X2612164Y2034394D01*
X2612196D01*
X2612261Y2034361D01*
X2612391Y2034329D01*
X2612585Y2034264D01*
X2612812Y2034232D01*
X2613136Y2034167D01*
X2613460Y2034134D01*
X2613881D01*
Y2033584D01*
X2603319D01*
Y2034134D01*
X2604161D01*
X2604323Y2034167D01*
X2604518D01*
X2605004Y2034264D01*
X2605230Y2034361D01*
X2605457Y2034458D01*
X2605490D01*
X2605522Y2034491D01*
X2605684Y2034620D01*
X2605911Y2034847D01*
X2606073Y2035171D01*
Y2035204D01*
X2606105Y2035268D01*
X2606138Y2035366D01*
X2606170Y2035560D01*
X2606202Y2035819D01*
X2606235Y2036176D01*
X2606267Y2036597D01*
Y2037148D01*
Y2050950D01*
Y2050982D01*
Y2051015D01*
Y2051209D01*
Y2051468D01*
X2606235Y2051792D01*
Y2052116D01*
X2606202Y2052440D01*
X2606138Y2052732D01*
X2606073Y2052926D01*
Y2052959D01*
X2606040Y2052991D01*
X2605943Y2053186D01*
X2605716Y2053412D01*
X2605587Y2053542D01*
X2605392Y2053639D01*
X2605360D01*
X2605295Y2053704D01*
X2605198Y2053736D01*
X2605036Y2053801D01*
X2604842Y2053866D01*
X2604582Y2053898D01*
X2604323Y2053963D01*
X2603319D01*
Y2054514D01*
X2613719D01*
Y2053963D01*
X2613363D01*
X2613104Y2053931D01*
X2612585Y2053834D01*
X2612326Y2053736D01*
X2612099Y2053639D01*
X2612067D01*
X2612034Y2053607D01*
X2611872Y2053477D01*
X2611646Y2053250D01*
X2611451Y2052926D01*
Y2052894D01*
X2611419Y2052829D01*
X2611386Y2052732D01*
Y2052538D01*
X2611354Y2052278D01*
X2611322Y2051922D01*
X2611289Y2051501D01*
Y2050950D01*
Y2044405D01*
X2619033Y2050658D01*
X2619065D01*
X2619098Y2050723D01*
X2619292Y2050885D01*
X2619551Y2051112D01*
X2619843Y2051436D01*
X2620134Y2051760D01*
X2620394Y2052116D01*
X2620588Y2052473D01*
X2620620Y2052635D01*
X2620653Y2052797D01*
Y2052829D01*
Y2052894D01*
X2620620Y2052991D01*
X2620588Y2053121D01*
X2620491Y2053283D01*
X2620394Y2053445D01*
X2620232Y2053607D01*
X2620005Y2053736D01*
X2619972D01*
X2619940Y2053769D01*
X2619810Y2053801D01*
X2619648Y2053834D01*
X2619454Y2053866D01*
X2619130Y2053898D01*
X2618774Y2053931D01*
X2618320Y2053963D01*
Y2054514D01*
X2626452D01*
Y2053963D01*
D02*
G37*
G36*
X2593307D02*
X2592206D01*
X2592044Y2053931D01*
X2591849D01*
X2591363Y2053801D01*
X2591136Y2053736D01*
X2590910Y2053607D01*
X2590845Y2053574D01*
X2590683Y2053445D01*
X2590488Y2053218D01*
X2590294Y2052894D01*
Y2052862D01*
X2590262Y2052797D01*
X2590229Y2052700D01*
Y2052505D01*
X2590197Y2052246D01*
X2590164Y2051922D01*
X2590132Y2051468D01*
Y2050950D01*
Y2037569D01*
Y2037536D01*
Y2037504D01*
Y2037310D01*
Y2037050D01*
X2590164Y2036726D01*
Y2036370D01*
X2590197Y2036046D01*
X2590229Y2035754D01*
X2590294Y2035528D01*
Y2035495D01*
X2590326Y2035463D01*
X2590456Y2035268D01*
X2590683Y2035074D01*
X2590845Y2034977D01*
X2591039Y2034880D01*
X2591072D01*
X2591104Y2034847D01*
X2591234D01*
X2591396Y2034815D01*
X2591655Y2034782D01*
X2591979D01*
X2592368Y2034750D01*
X2594927D01*
X2595219Y2034782D01*
X2595608Y2034815D01*
X2596029Y2034880D01*
X2596482Y2035009D01*
X2596968Y2035139D01*
X2597390Y2035333D01*
X2597454Y2035366D01*
X2597584Y2035430D01*
X2597778Y2035592D01*
X2598038Y2035787D01*
X2598329Y2036046D01*
X2598653Y2036370D01*
X2598977Y2036726D01*
X2599301Y2037180D01*
X2599334Y2037245D01*
X2599431Y2037407D01*
X2599593Y2037698D01*
X2599787Y2038120D01*
X2600046Y2038638D01*
X2600306Y2039286D01*
X2600565Y2040031D01*
X2600856Y2040906D01*
X2601504D01*
X2600727Y2033584D01*
X2582162D01*
Y2034134D01*
X2583004D01*
X2583166Y2034167D01*
X2583360D01*
X2583846Y2034264D01*
X2584073Y2034361D01*
X2584300Y2034458D01*
X2584332D01*
X2584365Y2034491D01*
X2584527Y2034620D01*
X2584754Y2034847D01*
X2584916Y2035171D01*
Y2035204D01*
X2584948Y2035268D01*
X2584980Y2035366D01*
X2585013Y2035560D01*
X2585045Y2035819D01*
X2585078Y2036176D01*
X2585110Y2036597D01*
Y2037148D01*
Y2050950D01*
Y2050982D01*
Y2051015D01*
Y2051209D01*
Y2051468D01*
X2585078Y2051792D01*
Y2052116D01*
X2585045Y2052440D01*
X2584980Y2052732D01*
X2584916Y2052926D01*
Y2052959D01*
X2584883Y2052991D01*
X2584786Y2053186D01*
X2584559Y2053412D01*
X2584430Y2053542D01*
X2584235Y2053639D01*
X2584203D01*
X2584138Y2053704D01*
X2584041Y2053736D01*
X2583879Y2053801D01*
X2583684Y2053866D01*
X2583425Y2053898D01*
X2583166Y2053963D01*
X2582162D01*
Y2054514D01*
X2593307D01*
Y2053963D01*
D02*
G37*
G36*
X2747245Y1559466D02*
X2746459D01*
Y1559513D01*
X2746413Y1559651D01*
X2746321Y1559882D01*
X2746182Y1560159D01*
X2746043Y1560529D01*
X2745859Y1560945D01*
X2745350Y1561915D01*
X2744750Y1562931D01*
X2743964Y1564040D01*
X2743087Y1565057D01*
X2742578Y1565565D01*
X2742024Y1565981D01*
X2741978Y1566027D01*
X2741885Y1566073D01*
X2741747Y1566212D01*
X2741516Y1566350D01*
X2741239Y1566489D01*
X2740915Y1566720D01*
X2740546Y1566905D01*
X2740130Y1567136D01*
X2739160Y1567551D01*
X2738051Y1567875D01*
X2736896Y1568152D01*
X2736249Y1568198D01*
X2735602Y1568244D01*
X2735279D01*
X2735048Y1568198D01*
X2734771D01*
X2734401Y1568152D01*
X2733662Y1568013D01*
X2732738Y1567782D01*
X2731814Y1567459D01*
X2730890Y1566997D01*
X2730012Y1566350D01*
X2729966D01*
X2729920Y1566258D01*
X2729642Y1565981D01*
X2729273Y1565565D01*
X2728811Y1564964D01*
X2728256Y1564225D01*
X2727748Y1563347D01*
X2727286Y1562285D01*
X2726870Y1561083D01*
Y1561037D01*
X2726824Y1560945D01*
X2726778Y1560760D01*
X2726732Y1560529D01*
X2726639Y1560206D01*
X2726593Y1559836D01*
X2726501Y1559420D01*
X2726408Y1558958D01*
X2726224Y1557942D01*
X2726085Y1556787D01*
X2725993Y1555539D01*
X2725946Y1554200D01*
Y1554153D01*
Y1554015D01*
Y1553784D01*
Y1553460D01*
X2725993Y1553091D01*
Y1552675D01*
X2726039Y1552167D01*
X2726085Y1551659D01*
X2726177Y1550457D01*
X2726362Y1549210D01*
X2726639Y1547916D01*
X2726963Y1546669D01*
Y1546623D01*
X2727009Y1546530D01*
X2727055Y1546346D01*
X2727148Y1546161D01*
X2727286Y1545884D01*
X2727425Y1545560D01*
X2727748Y1544867D01*
X2728210Y1544082D01*
X2728765Y1543296D01*
X2729411Y1542557D01*
X2730197Y1541910D01*
X2730243D01*
X2730289Y1541864D01*
X2730428Y1541772D01*
X2730613Y1541679D01*
X2731075Y1541448D01*
X2731721Y1541171D01*
X2732507Y1540894D01*
X2733431Y1540663D01*
X2734447Y1540478D01*
X2735556Y1540432D01*
X2735972D01*
X2736249Y1540478D01*
X2736572D01*
X2736942Y1540524D01*
X2737727Y1540663D01*
X2737774D01*
X2737912Y1540709D01*
X2738143Y1540755D01*
X2738467Y1540848D01*
X2738790Y1540940D01*
X2739206Y1541033D01*
X2740084Y1541310D01*
Y1547547D01*
Y1547639D01*
Y1547824D01*
Y1548147D01*
X2740037Y1548471D01*
Y1548887D01*
X2739991Y1549256D01*
X2739899Y1549580D01*
X2739806Y1549811D01*
Y1549857D01*
X2739760Y1549903D01*
X2739575Y1550134D01*
X2739298Y1550411D01*
X2739067Y1550596D01*
X2738790Y1550735D01*
X2738744D01*
X2738651Y1550827D01*
X2738513Y1550873D01*
X2738282Y1550966D01*
X2738005Y1551058D01*
X2737727Y1551104D01*
X2736988Y1551197D01*
X2736249D01*
Y1551982D01*
X2750756D01*
Y1551197D01*
X2750663D01*
X2750479Y1551150D01*
X2750201D01*
X2749832Y1551104D01*
X2749046Y1550919D01*
X2748723Y1550827D01*
X2748400Y1550688D01*
X2748353D01*
X2748307Y1550642D01*
X2748030Y1550411D01*
X2747707Y1550088D01*
X2747429Y1549580D01*
X2747383Y1549487D01*
Y1549349D01*
X2747337Y1549164D01*
X2747291Y1548887D01*
Y1548563D01*
X2747245Y1548101D01*
Y1547547D01*
Y1541310D01*
X2747198D01*
X2747106Y1541264D01*
X2746967Y1541171D01*
X2746736Y1541125D01*
X2746505Y1540986D01*
X2746182Y1540894D01*
X2745443Y1540617D01*
X2744519Y1540293D01*
X2743502Y1539970D01*
X2742440Y1539693D01*
X2741285Y1539416D01*
X2741239D01*
X2741146Y1539369D01*
X2740961D01*
X2740730Y1539323D01*
X2740453Y1539277D01*
X2740130Y1539231D01*
X2739760Y1539138D01*
X2739344Y1539092D01*
X2738374Y1538954D01*
X2737265Y1538861D01*
X2736110Y1538815D01*
X2734863Y1538769D01*
X2734170D01*
X2733800Y1538815D01*
X2733385D01*
X2732923Y1538861D01*
X2732414Y1538907D01*
X2731306Y1539046D01*
X2730151Y1539231D01*
X2728949Y1539508D01*
X2727841Y1539878D01*
X2727794D01*
X2727702Y1539924D01*
X2727563Y1540016D01*
X2727379Y1540109D01*
X2726824Y1540340D01*
X2726177Y1540709D01*
X2725392Y1541125D01*
X2724560Y1541633D01*
X2723729Y1542234D01*
X2722897Y1542927D01*
Y1542973D01*
X2722805Y1543019D01*
X2722528Y1543250D01*
X2722158Y1543666D01*
X2721696Y1544174D01*
X2721142Y1544821D01*
X2720587Y1545514D01*
X2720033Y1546299D01*
X2719525Y1547177D01*
Y1547223D01*
X2719478Y1547316D01*
X2719386Y1547501D01*
X2719294Y1547732D01*
X2719155Y1548009D01*
X2719063Y1548332D01*
X2718924Y1548748D01*
X2718785Y1549164D01*
X2718462Y1550180D01*
X2718231Y1551335D01*
X2718046Y1552583D01*
X2718000Y1553969D01*
Y1554061D01*
Y1554292D01*
X2718046Y1554615D01*
X2718092Y1555077D01*
X2718139Y1555678D01*
X2718231Y1556371D01*
X2718416Y1557110D01*
X2718601Y1557942D01*
X2718832Y1558773D01*
X2719155Y1559697D01*
X2719525Y1560668D01*
X2719987Y1561592D01*
X2720541Y1562562D01*
X2721142Y1563532D01*
X2721881Y1564456D01*
X2722712Y1565334D01*
X2722759Y1565380D01*
X2722943Y1565519D01*
X2723221Y1565750D01*
X2723590Y1566073D01*
X2724052Y1566396D01*
X2724607Y1566812D01*
X2725253Y1567228D01*
X2725993Y1567690D01*
X2726824Y1568106D01*
X2727702Y1568522D01*
X2728718Y1568937D01*
X2729735Y1569261D01*
X2730890Y1569584D01*
X2732045Y1569815D01*
X2733338Y1569954D01*
X2734632Y1570000D01*
X2735417D01*
X2735972Y1569954D01*
X2736572Y1569908D01*
X2737265Y1569861D01*
X2738651Y1569630D01*
X2738698D01*
X2738836Y1569584D01*
X2739067Y1569538D01*
X2739391Y1569446D01*
X2739853Y1569307D01*
X2740361Y1569122D01*
X2741008Y1568891D01*
X2741747Y1568614D01*
X2741793D01*
X2741839Y1568568D01*
X2742116Y1568475D01*
X2742440Y1568383D01*
X2742902Y1568244D01*
X2743318Y1568060D01*
X2743733Y1567967D01*
X2744103Y1567875D01*
X2744334Y1567829D01*
X2744426D01*
X2744704Y1567875D01*
X2745073Y1568013D01*
X2745443Y1568244D01*
X2745489Y1568291D01*
X2745535Y1568337D01*
X2745628Y1568475D01*
X2745766Y1568660D01*
X2745951Y1568891D01*
X2746090Y1569168D01*
X2746274Y1569538D01*
X2746459Y1570000D01*
X2747245D01*
Y1559466D01*
D02*
G37*
G36*
X2782634Y1568522D02*
X2782541D01*
X2782310Y1568475D01*
X2781987Y1568429D01*
X2781571Y1568337D01*
X2780740Y1568106D01*
X2780324Y1567967D01*
X2780047Y1567829D01*
X2780000D01*
X2779954Y1567736D01*
X2779677Y1567551D01*
X2779354Y1567136D01*
X2779169Y1566905D01*
X2779030Y1566581D01*
Y1566535D01*
X2778984Y1566443D01*
X2778938Y1566212D01*
X2778892Y1565888D01*
X2778799Y1565472D01*
X2778753Y1564964D01*
X2778707Y1564364D01*
Y1563624D01*
Y1538769D01*
X2777921D01*
X2757871Y1563624D01*
Y1544636D01*
Y1544590D01*
Y1544544D01*
Y1544405D01*
Y1544220D01*
X2757917Y1543758D01*
X2758009Y1543250D01*
X2758148Y1542650D01*
X2758379Y1542049D01*
X2758656Y1541541D01*
X2759026Y1541125D01*
X2759072Y1541079D01*
X2759210Y1540986D01*
X2759488Y1540848D01*
X2759811Y1540709D01*
X2760181Y1540524D01*
X2760643Y1540386D01*
X2761151Y1540293D01*
X2761705Y1540247D01*
X2762444D01*
Y1539462D01*
X2751865D01*
Y1540247D01*
X2752280D01*
X2752696Y1540293D01*
X2753204Y1540386D01*
X2753759Y1540478D01*
X2754359Y1540663D01*
X2754868Y1540894D01*
X2755283Y1541217D01*
X2755330Y1541264D01*
X2755422Y1541402D01*
X2755607Y1541679D01*
X2755792Y1542049D01*
X2755930Y1542511D01*
X2756115Y1543112D01*
X2756207Y1543805D01*
X2756254Y1544636D01*
Y1565703D01*
X2755607Y1566489D01*
X2755561Y1566535D01*
X2755468Y1566674D01*
X2755283Y1566905D01*
X2755052Y1567136D01*
X2754498Y1567644D01*
X2754175Y1567875D01*
X2753897Y1568060D01*
X2753851D01*
X2753759Y1568106D01*
X2753620Y1568198D01*
X2753389Y1568291D01*
X2753066Y1568337D01*
X2752742Y1568429D01*
X2752327Y1568475D01*
X2751818Y1568522D01*
Y1569307D01*
X2762398D01*
X2777090Y1550781D01*
Y1563624D01*
Y1563671D01*
Y1563763D01*
Y1563902D01*
Y1564040D01*
X2777044Y1564502D01*
X2776997Y1565103D01*
X2776905Y1565703D01*
X2776766Y1566304D01*
X2776582Y1566858D01*
X2776304Y1567274D01*
X2776258Y1567320D01*
X2776120Y1567459D01*
X2775842Y1567690D01*
X2775473Y1567921D01*
X2774965Y1568106D01*
X2774364Y1568337D01*
X2773671Y1568475D01*
X2772793Y1568522D01*
Y1569307D01*
X2782634D01*
Y1568522D01*
D02*
G37*
G36*
X2798989Y1569261D02*
X2799497Y1569215D01*
X2800097Y1569168D01*
X2800744Y1569122D01*
X2802084Y1568937D01*
X2803516Y1568706D01*
X2804948Y1568337D01*
X2805595Y1568106D01*
X2806242Y1567829D01*
X2806288D01*
X2806427Y1567736D01*
X2806612Y1567644D01*
X2806889Y1567505D01*
X2807258Y1567320D01*
X2807628Y1567089D01*
X2808506Y1566489D01*
X2809476Y1565703D01*
X2810492Y1564779D01*
X2811463Y1563671D01*
X2811878Y1563070D01*
X2812294Y1562423D01*
X2812340Y1562377D01*
X2812387Y1562238D01*
X2812479Y1562054D01*
X2812618Y1561776D01*
X2812756Y1561453D01*
X2812941Y1561037D01*
X2813126Y1560575D01*
X2813357Y1560067D01*
X2813542Y1559466D01*
X2813726Y1558866D01*
X2814050Y1557480D01*
X2814281Y1555955D01*
X2814373Y1555124D01*
Y1554292D01*
Y1554246D01*
Y1554153D01*
Y1553969D01*
Y1553738D01*
X2814327Y1553460D01*
Y1553137D01*
X2814235Y1552352D01*
X2814142Y1551474D01*
X2813957Y1550504D01*
X2813680Y1549487D01*
X2813357Y1548471D01*
Y1548425D01*
X2813311Y1548378D01*
X2813264Y1548240D01*
X2813172Y1548055D01*
X2812941Y1547547D01*
X2812664Y1546946D01*
X2812248Y1546253D01*
X2811832Y1545514D01*
X2811324Y1544775D01*
X2810723Y1544082D01*
X2810631Y1543989D01*
X2810446Y1543805D01*
X2810123Y1543481D01*
X2809661Y1543112D01*
X2809106Y1542650D01*
X2808460Y1542188D01*
X2807767Y1541726D01*
X2806981Y1541310D01*
X2806889Y1541264D01*
X2806612Y1541125D01*
X2806150Y1540940D01*
X2805549Y1540709D01*
X2804810Y1540478D01*
X2803978Y1540201D01*
X2802962Y1539924D01*
X2801899Y1539693D01*
X2801853D01*
X2801668Y1539647D01*
X2801345Y1539600D01*
X2800883D01*
X2800282Y1539554D01*
X2799543Y1539508D01*
X2798665Y1539462D01*
X2784343D01*
Y1540247D01*
X2785775D01*
X2786053Y1540293D01*
X2786699Y1540386D01*
X2787023Y1540478D01*
X2787300Y1540617D01*
X2787346D01*
X2787392Y1540709D01*
X2787670Y1540894D01*
X2788039Y1541264D01*
X2788316Y1541726D01*
Y1541772D01*
X2788363Y1541818D01*
X2788409Y1542003D01*
X2788455Y1542234D01*
Y1542603D01*
X2788501Y1543112D01*
X2788547Y1543758D01*
Y1544544D01*
Y1564225D01*
Y1564271D01*
Y1564317D01*
Y1564595D01*
Y1564964D01*
X2788501Y1565426D01*
Y1565888D01*
X2788455Y1566350D01*
X2788363Y1566766D01*
X2788270Y1567043D01*
Y1567089D01*
X2788224Y1567136D01*
X2788085Y1567413D01*
X2787762Y1567736D01*
X2787577Y1567921D01*
X2787300Y1568060D01*
X2787254D01*
X2787161Y1568152D01*
X2787023Y1568198D01*
X2786792Y1568291D01*
X2786515Y1568383D01*
X2786145Y1568429D01*
X2785775Y1568522D01*
X2784343D01*
Y1569307D01*
X2798527D01*
X2798989Y1569261D01*
D02*
G37*
G36*
X2143844Y2066426D02*
X2131000D01*
Y2071000D01*
X2143844D01*
Y2066426D01*
D02*
G37*
G36*
X2123398Y1443420D02*
X2133978D01*
Y1440510D01*
X2123398D01*
Y1430022D01*
X2120580D01*
Y1440510D01*
X2110000D01*
Y1443420D01*
X2120580D01*
Y1454000D01*
X2123398D01*
Y1443420D01*
D02*
G37*
G36*
X2219736Y1440288D02*
X2219321D01*
Y1440311D01*
X2219298Y1440357D01*
Y1440449D01*
X2219251Y1440542D01*
X2219182Y1440842D01*
X2219090Y1441188D01*
X2218951Y1441558D01*
X2218812Y1441951D01*
X2218628Y1442297D01*
X2218420Y1442598D01*
X2218397Y1442621D01*
X2218304Y1442713D01*
X2218189Y1442852D01*
X2218004Y1442990D01*
X2217773Y1443175D01*
X2217496Y1443337D01*
X2217149Y1443498D01*
X2216780Y1443637D01*
X2216756D01*
X2216664Y1443660D01*
X2216502Y1443706D01*
X2216248Y1443753D01*
X2215948Y1443776D01*
X2215532Y1443822D01*
X2215301D01*
X2215047Y1443845D01*
X2212945D01*
Y1437770D01*
X2213361D01*
X2213453Y1437793D01*
X2213707Y1437816D01*
X2214031Y1437885D01*
X2214354Y1437978D01*
X2214701Y1438139D01*
X2215024Y1438347D01*
X2215301Y1438648D01*
X2215324Y1438694D01*
X2215417Y1438809D01*
X2215509Y1439017D01*
X2215648Y1439317D01*
X2215786Y1439687D01*
X2215925Y1440126D01*
X2216040Y1440657D01*
X2216133Y1441281D01*
X2216549D01*
Y1433473D01*
X2216133D01*
Y1433496D01*
Y1433519D01*
X2216110Y1433589D01*
Y1433681D01*
X2216064Y1433912D01*
X2216017Y1434212D01*
X2215925Y1434536D01*
X2215832Y1434882D01*
X2215717Y1435229D01*
X2215555Y1435552D01*
X2215532Y1435598D01*
X2215486Y1435691D01*
X2215394Y1435829D01*
X2215278Y1435991D01*
X2215140Y1436176D01*
X2214955Y1436361D01*
X2214770Y1436522D01*
X2214562Y1436638D01*
X2214539Y1436661D01*
X2214470Y1436684D01*
X2214331Y1436730D01*
X2214146Y1436800D01*
X2213915Y1436846D01*
X2213638Y1436892D01*
X2213315Y1436915D01*
X2212945Y1436938D01*
Y1432734D01*
Y1432711D01*
Y1432688D01*
Y1432549D01*
Y1432341D01*
X2212968Y1432087D01*
Y1431833D01*
X2212991Y1431579D01*
X2213014Y1431371D01*
X2213037Y1431232D01*
X2213061Y1431186D01*
X2213130Y1431071D01*
X2213245Y1430932D01*
X2213430Y1430770D01*
X2213453D01*
X2213476Y1430747D01*
X2213546Y1430724D01*
X2213661Y1430701D01*
X2213777Y1430655D01*
X2213938Y1430632D01*
X2214123Y1430609D01*
X2215440D01*
X2215578Y1430632D01*
X2215763D01*
X2215971Y1430655D01*
X2216202Y1430678D01*
X2216433Y1430724D01*
X2216964Y1430840D01*
X2217542Y1431001D01*
X2218073Y1431232D01*
X2218581Y1431556D01*
X2218604Y1431579D01*
X2218628Y1431602D01*
X2218697Y1431648D01*
X2218789Y1431741D01*
X2218905Y1431833D01*
X2219020Y1431972D01*
X2219136Y1432110D01*
X2219298Y1432295D01*
X2219436Y1432480D01*
X2219575Y1432711D01*
X2219736Y1432942D01*
X2219898Y1433219D01*
X2220037Y1433496D01*
X2220175Y1433820D01*
X2220291Y1434143D01*
X2220406Y1434513D01*
X2220822D01*
X2220129Y1429777D01*
X2207262D01*
Y1430170D01*
X2207863D01*
X2207979Y1430193D01*
X2208117D01*
X2208464Y1430262D01*
X2208625Y1430332D01*
X2208787Y1430401D01*
X2208810D01*
X2208833Y1430424D01*
X2208949Y1430516D01*
X2209110Y1430678D01*
X2209226Y1430909D01*
Y1430932D01*
X2209249Y1430978D01*
X2209272Y1431048D01*
X2209295Y1431186D01*
X2209318Y1431371D01*
X2209341Y1431625D01*
X2209365Y1431925D01*
Y1432318D01*
Y1442159D01*
Y1442182D01*
Y1442205D01*
Y1442320D01*
Y1442482D01*
Y1442690D01*
X2209341Y1442898D01*
Y1443106D01*
X2209318Y1443267D01*
X2209295Y1443383D01*
Y1443406D01*
X2209272Y1443452D01*
X2209249Y1443522D01*
X2209203Y1443614D01*
X2209064Y1443799D01*
X2208879Y1443984D01*
X2208856Y1444007D01*
X2208810Y1444030D01*
X2208718Y1444076D01*
X2208579Y1444145D01*
X2208417Y1444215D01*
X2208233Y1444261D01*
X2208002Y1444284D01*
X2207747Y1444307D01*
X2207262D01*
Y1444700D01*
X2219736D01*
Y1440288D01*
D02*
G37*
G36*
X2237870Y1444307D02*
X2237824D01*
X2237731Y1444284D01*
X2237570Y1444215D01*
X2237385Y1444145D01*
X2237154Y1444030D01*
X2236923Y1443868D01*
X2236669Y1443683D01*
X2236415Y1443429D01*
X2236392Y1443406D01*
X2236322Y1443314D01*
X2236230Y1443152D01*
X2236160Y1443036D01*
X2236068Y1442898D01*
X2235976Y1442736D01*
X2235883Y1442551D01*
X2235768Y1442343D01*
X2235652Y1442089D01*
X2235514Y1441835D01*
X2235375Y1441512D01*
X2235213Y1441188D01*
X2235052Y1440819D01*
X2229923Y1429431D01*
X2229531D01*
X2224449Y1441281D01*
Y1441304D01*
X2224403Y1441373D01*
X2224356Y1441489D01*
X2224310Y1441627D01*
X2224218Y1441789D01*
X2224148Y1441997D01*
X2223941Y1442413D01*
X2223733Y1442852D01*
X2223525Y1443267D01*
X2223432Y1443452D01*
X2223340Y1443614D01*
X2223271Y1443729D01*
X2223201Y1443822D01*
X2223178Y1443845D01*
X2223132Y1443891D01*
X2223063Y1443937D01*
X2222947Y1444030D01*
X2222786Y1444099D01*
X2222578Y1444191D01*
X2222324Y1444261D01*
X2222023Y1444307D01*
Y1444700D01*
X2229161D01*
Y1444307D01*
X2228769D01*
X2228607Y1444284D01*
X2228399D01*
X2227960Y1444191D01*
X2227775Y1444145D01*
X2227613Y1444053D01*
X2227567Y1444030D01*
X2227498Y1443937D01*
X2227406Y1443776D01*
X2227383Y1443683D01*
X2227359Y1443568D01*
Y1443522D01*
Y1443429D01*
X2227383Y1443267D01*
X2227429Y1443083D01*
Y1443060D01*
X2227452Y1443013D01*
X2227475Y1442944D01*
X2227544Y1442805D01*
X2227613Y1442621D01*
X2227729Y1442367D01*
X2227868Y1442043D01*
X2228029Y1441650D01*
X2231217Y1434212D01*
X2234151Y1440819D01*
Y1440842D01*
X2234174Y1440865D01*
X2234243Y1441004D01*
X2234336Y1441212D01*
X2234451Y1441466D01*
X2234567Y1441743D01*
X2234659Y1442020D01*
X2234751Y1442251D01*
X2234821Y1442436D01*
Y1442459D01*
X2234844Y1442505D01*
X2234867Y1442574D01*
X2234890Y1442690D01*
X2234913Y1442898D01*
X2234936Y1443129D01*
Y1443152D01*
Y1443198D01*
X2234913Y1443337D01*
X2234867Y1443522D01*
X2234751Y1443729D01*
Y1443753D01*
X2234728Y1443776D01*
X2234636Y1443868D01*
X2234474Y1443984D01*
X2234243Y1444099D01*
X2234220D01*
X2234151Y1444122D01*
X2234058Y1444168D01*
X2233920Y1444215D01*
X2233735Y1444238D01*
X2233527Y1444284D01*
X2233273Y1444307D01*
X2232996D01*
Y1444700D01*
X2237870D01*
Y1444307D01*
D02*
G37*
G36*
X2263049Y1432757D02*
Y1432734D01*
X2263072Y1432688D01*
X2263118Y1432595D01*
X2263188Y1432480D01*
X2263234Y1432341D01*
X2263326Y1432179D01*
X2263488Y1431833D01*
X2263696Y1431440D01*
X2263904Y1431094D01*
X2264111Y1430793D01*
X2264227Y1430655D01*
X2264319Y1430562D01*
X2264343Y1430539D01*
X2264389Y1430516D01*
X2264481Y1430447D01*
X2264597Y1430378D01*
X2264735Y1430308D01*
X2264920Y1430262D01*
X2265128Y1430193D01*
X2265382Y1430170D01*
Y1429777D01*
X2258152D01*
Y1430170D01*
X2258591D01*
X2258752Y1430193D01*
X2258937D01*
X2259330Y1430262D01*
X2259515Y1430332D01*
X2259676Y1430401D01*
X2259699D01*
X2259722Y1430447D01*
X2259815Y1430539D01*
X2259884Y1430701D01*
X2259930Y1430793D01*
Y1430909D01*
Y1430955D01*
Y1431048D01*
X2259907Y1431163D01*
X2259861Y1431325D01*
Y1431348D01*
X2259838Y1431394D01*
X2259815Y1431463D01*
X2259769Y1431579D01*
X2259699Y1431717D01*
X2259630Y1431902D01*
X2259515Y1432156D01*
X2258706Y1434027D01*
X2253485D01*
X2252839Y1432572D01*
X2252816Y1432549D01*
X2252793Y1432457D01*
X2252746Y1432318D01*
X2252700Y1432133D01*
X2252585Y1431741D01*
X2252561Y1431533D01*
X2252538Y1431348D01*
Y1431325D01*
Y1431255D01*
X2252561Y1431140D01*
X2252608Y1431001D01*
X2252654Y1430840D01*
X2252746Y1430701D01*
X2252885Y1430539D01*
X2253047Y1430424D01*
X2253070D01*
X2253116Y1430401D01*
X2253208Y1430355D01*
X2253347Y1430332D01*
X2253532Y1430285D01*
X2253786Y1430239D01*
X2254109Y1430193D01*
X2254502Y1430170D01*
Y1429777D01*
X2249535D01*
Y1430170D01*
X2249582D01*
X2249674Y1430193D01*
X2249813Y1430239D01*
X2249997Y1430285D01*
X2250205Y1430378D01*
X2250436Y1430493D01*
X2250644Y1430632D01*
X2250852Y1430817D01*
X2250875Y1430840D01*
X2250945Y1430932D01*
X2251060Y1431094D01*
X2251222Y1431302D01*
X2251407Y1431625D01*
X2251499Y1431810D01*
X2251614Y1432018D01*
X2251753Y1432249D01*
X2251869Y1432503D01*
X2252007Y1432780D01*
X2252146Y1433080D01*
X2257482Y1445000D01*
X2257690D01*
X2263049Y1432757D01*
D02*
G37*
G36*
X2198854Y1444677D02*
X2199131D01*
X2199432Y1444653D01*
X2200078Y1444607D01*
X2200748Y1444538D01*
X2201349Y1444446D01*
X2201626Y1444376D01*
X2201880Y1444307D01*
X2201903D01*
X2201926Y1444284D01*
X2201996Y1444261D01*
X2202088Y1444238D01*
X2202319Y1444145D01*
X2202619Y1444007D01*
X2202943Y1443799D01*
X2203289Y1443568D01*
X2203613Y1443267D01*
X2203936Y1442921D01*
X2203982Y1442875D01*
X2204075Y1442736D01*
X2204190Y1442528D01*
X2204352Y1442251D01*
X2204490Y1441905D01*
X2204629Y1441512D01*
X2204721Y1441050D01*
X2204744Y1440565D01*
Y1440542D01*
Y1440495D01*
Y1440403D01*
X2204721Y1440288D01*
X2204698Y1440149D01*
X2204675Y1439987D01*
X2204606Y1439618D01*
X2204444Y1439179D01*
X2204236Y1438717D01*
X2204098Y1438486D01*
X2203936Y1438278D01*
X2203751Y1438047D01*
X2203543Y1437839D01*
X2203497Y1437816D01*
X2203405Y1437724D01*
X2203220Y1437608D01*
X2202989Y1437446D01*
X2202689Y1437285D01*
X2202319Y1437100D01*
X2201903Y1436938D01*
X2201418Y1436800D01*
X2204999Y1431764D01*
X2205022Y1431717D01*
X2205114Y1431602D01*
X2205230Y1431440D01*
X2205391Y1431255D01*
X2205553Y1431048D01*
X2205715Y1430840D01*
X2205853Y1430655D01*
X2205992Y1430539D01*
X2206015Y1430516D01*
X2206084Y1430493D01*
X2206177Y1430447D01*
X2206292Y1430378D01*
X2206454Y1430308D01*
X2206639Y1430262D01*
X2206847Y1430216D01*
X2207055Y1430193D01*
Y1429777D01*
X2202342D01*
X2197537Y1436569D01*
X2196567D01*
Y1432364D01*
Y1432341D01*
Y1432318D01*
Y1432179D01*
Y1431972D01*
X2196590Y1431717D01*
Y1431463D01*
X2196636Y1431209D01*
X2196660Y1431001D01*
X2196706Y1430840D01*
Y1430817D01*
X2196729Y1430793D01*
X2196821Y1430678D01*
X2196983Y1430516D01*
X2197214Y1430355D01*
X2197237D01*
X2197283Y1430332D01*
X2197399Y1430308D01*
X2197537Y1430262D01*
X2197745Y1430239D01*
X2197976Y1430193D01*
X2198276Y1430170D01*
X2198646D01*
Y1429777D01*
X2191000D01*
Y1430170D01*
X2191347D01*
X2191577Y1430193D01*
X2192039Y1430239D01*
X2192247Y1430285D01*
X2192409Y1430355D01*
X2192432D01*
X2192478Y1430378D01*
X2192617Y1430493D01*
X2192779Y1430632D01*
X2192917Y1430840D01*
Y1430863D01*
X2192940Y1430909D01*
X2192963Y1431001D01*
X2193010Y1431163D01*
X2193033Y1431348D01*
X2193056Y1431625D01*
X2193079Y1431948D01*
Y1432364D01*
Y1442112D01*
Y1442136D01*
Y1442159D01*
Y1442297D01*
Y1442505D01*
X2193056Y1442736D01*
X2193033Y1442990D01*
X2193010Y1443244D01*
X2192963Y1443452D01*
X2192917Y1443591D01*
Y1443614D01*
X2192894Y1443637D01*
X2192802Y1443776D01*
X2192640Y1443937D01*
X2192525Y1444030D01*
X2192386Y1444099D01*
X2192363D01*
X2192317Y1444122D01*
X2192224Y1444168D01*
X2192086Y1444215D01*
X2191878Y1444238D01*
X2191647Y1444284D01*
X2191347Y1444307D01*
X2191000D01*
Y1444700D01*
X2198600D01*
X2198854Y1444677D01*
D02*
G37*
G36*
X2249582Y1424926D02*
X2237893D01*
Y1426335D01*
X2249582D01*
Y1424926D01*
D02*
G37*
G36*
X2031000Y1826602D02*
X2026958D01*
Y1826995D01*
X2026981D01*
X2027027Y1827018D01*
X2027096Y1827041D01*
X2027189Y1827064D01*
X2027420Y1827133D01*
X2027720Y1827226D01*
X2028043Y1827364D01*
X2028390Y1827480D01*
X2028690Y1827641D01*
X2028944Y1827803D01*
X2028967Y1827826D01*
X2029060Y1827872D01*
X2029152Y1827965D01*
X2029314Y1828103D01*
X2029452Y1828265D01*
X2029637Y1828473D01*
X2029799Y1828704D01*
X2029938Y1828958D01*
Y1828981D01*
X2029961Y1829027D01*
X2030007Y1829143D01*
X2030053Y1829305D01*
X2030076Y1829489D01*
X2030122Y1829744D01*
X2030145Y1830044D01*
Y1831522D01*
X2018619D01*
X2018595D01*
X2018572D01*
X2018434D01*
X2018249D01*
X2017995Y1831499D01*
X2017764D01*
X2017510Y1831476D01*
X2017302Y1831453D01*
X2017163Y1831407D01*
X2017140D01*
X2017117Y1831384D01*
X2017002Y1831291D01*
X2016840Y1831153D01*
X2016771Y1831037D01*
X2016678Y1830922D01*
Y1830899D01*
X2016655Y1830852D01*
X2016609Y1830760D01*
X2016586Y1830668D01*
X2016540Y1830506D01*
X2016493Y1830344D01*
X2016470Y1830159D01*
Y1829420D01*
X2016078D01*
Y1837205D01*
X2016470D01*
Y1836604D01*
X2016493Y1836489D01*
Y1836350D01*
X2016563Y1836004D01*
X2016632Y1835842D01*
X2016701Y1835680D01*
Y1835657D01*
X2016724Y1835634D01*
X2016817Y1835518D01*
X2016978Y1835380D01*
X2017209Y1835241D01*
X2017233D01*
X2017279Y1835218D01*
X2017348Y1835195D01*
X2017487Y1835172D01*
X2017671Y1835149D01*
X2017926Y1835126D01*
X2018226Y1835103D01*
X2018619D01*
X2030145D01*
Y1836443D01*
X2030122Y1836697D01*
X2030076Y1837043D01*
X2029984Y1837390D01*
X2029868Y1837759D01*
X2029707Y1838106D01*
X2029499Y1838383D01*
X2029452Y1838429D01*
X2029337Y1838545D01*
X2029129Y1838706D01*
X2028852Y1838891D01*
X2028482Y1839099D01*
X2028043Y1839307D01*
X2027535Y1839469D01*
X2026958Y1839584D01*
Y1840000D01*
X2031000D01*
Y1826602D01*
D02*
G37*
G36*
Y1812880D02*
X2026588D01*
Y1813296D01*
X2026611D01*
X2026657Y1813319D01*
X2026750D01*
X2026842Y1813366D01*
X2027142Y1813435D01*
X2027489Y1813527D01*
X2027859Y1813666D01*
X2028251Y1813804D01*
X2028598Y1813989D01*
X2028898Y1814197D01*
X2028921Y1814220D01*
X2029014Y1814313D01*
X2029152Y1814428D01*
X2029291Y1814613D01*
X2029476Y1814844D01*
X2029637Y1815121D01*
X2029799Y1815468D01*
X2029938Y1815837D01*
Y1815860D01*
X2029961Y1815953D01*
X2030007Y1816114D01*
X2030053Y1816369D01*
X2030076Y1816669D01*
X2030122Y1817085D01*
Y1817316D01*
X2030145Y1817570D01*
Y1819672D01*
X2024070D01*
Y1819256D01*
X2024093Y1819164D01*
X2024116Y1818910D01*
X2024186Y1818586D01*
X2024278Y1818263D01*
X2024440Y1817916D01*
X2024648Y1817593D01*
X2024948Y1817316D01*
X2024994Y1817293D01*
X2025110Y1817200D01*
X2025318Y1817108D01*
X2025618Y1816969D01*
X2025987Y1816831D01*
X2026426Y1816692D01*
X2026958Y1816576D01*
X2027581Y1816484D01*
Y1816068D01*
X2019774D01*
Y1816484D01*
X2019797D01*
X2019820D01*
X2019889Y1816507D01*
X2019981D01*
X2020212Y1816553D01*
X2020513Y1816600D01*
X2020836Y1816692D01*
X2021183Y1816784D01*
X2021529Y1816900D01*
X2021852Y1817062D01*
X2021899Y1817085D01*
X2021991Y1817131D01*
X2022130Y1817223D01*
X2022291Y1817339D01*
X2022476Y1817477D01*
X2022661Y1817662D01*
X2022823Y1817847D01*
X2022938Y1818055D01*
X2022961Y1818078D01*
X2022984Y1818147D01*
X2023031Y1818286D01*
X2023100Y1818471D01*
X2023146Y1818702D01*
X2023192Y1818979D01*
X2023215Y1819302D01*
X2023238Y1819672D01*
X2019034D01*
X2019011D01*
X2018988D01*
X2018850D01*
X2018642D01*
X2018388Y1819649D01*
X2018133D01*
X2017879Y1819626D01*
X2017671Y1819603D01*
X2017533Y1819580D01*
X2017487Y1819556D01*
X2017371Y1819487D01*
X2017233Y1819372D01*
X2017071Y1819187D01*
Y1819164D01*
X2017048Y1819141D01*
X2017025Y1819071D01*
X2017002Y1818956D01*
X2016955Y1818840D01*
X2016932Y1818679D01*
X2016909Y1818494D01*
Y1817177D01*
X2016932Y1817039D01*
Y1816854D01*
X2016955Y1816646D01*
X2016978Y1816415D01*
X2017025Y1816184D01*
X2017140Y1815652D01*
X2017302Y1815075D01*
X2017533Y1814544D01*
X2017856Y1814035D01*
X2017879Y1814012D01*
X2017902Y1813989D01*
X2017949Y1813920D01*
X2018041Y1813828D01*
X2018133Y1813712D01*
X2018272Y1813597D01*
X2018411Y1813481D01*
X2018595Y1813319D01*
X2018780Y1813181D01*
X2019011Y1813042D01*
X2019242Y1812880D01*
X2019519Y1812719D01*
X2019797Y1812580D01*
X2020120Y1812442D01*
X2020443Y1812326D01*
X2020813Y1812211D01*
Y1811795D01*
X2016078Y1812488D01*
Y1825354D01*
X2016470D01*
Y1824754D01*
X2016493Y1824638D01*
Y1824500D01*
X2016563Y1824153D01*
X2016632Y1823992D01*
X2016701Y1823830D01*
Y1823807D01*
X2016724Y1823784D01*
X2016817Y1823668D01*
X2016978Y1823506D01*
X2017209Y1823391D01*
X2017233D01*
X2017279Y1823368D01*
X2017348Y1823345D01*
X2017487Y1823322D01*
X2017671Y1823299D01*
X2017926Y1823275D01*
X2018226Y1823252D01*
X2018619D01*
X2028459D01*
X2028482D01*
X2028505D01*
X2028621D01*
X2028783D01*
X2028990D01*
X2029198Y1823275D01*
X2029406D01*
X2029568Y1823299D01*
X2029683Y1823322D01*
X2029707D01*
X2029753Y1823345D01*
X2029822Y1823368D01*
X2029914Y1823414D01*
X2030099Y1823553D01*
X2030284Y1823737D01*
X2030307Y1823761D01*
X2030330Y1823807D01*
X2030376Y1823899D01*
X2030446Y1824038D01*
X2030515Y1824199D01*
X2030561Y1824384D01*
X2030584Y1824615D01*
X2030607Y1824869D01*
Y1825354D01*
X2031000D01*
Y1812880D01*
D02*
G37*
G36*
Y1802393D02*
X2030607D01*
Y1803178D01*
X2030584Y1803294D01*
Y1803433D01*
X2030492Y1803779D01*
X2030446Y1803941D01*
X2030353Y1804102D01*
X2030330Y1804149D01*
X2030238Y1804264D01*
X2030076Y1804403D01*
X2029845Y1804541D01*
X2029822D01*
X2029776Y1804564D01*
X2029707Y1804588D01*
X2029568D01*
X2029383Y1804611D01*
X2029152Y1804634D01*
X2028829Y1804657D01*
X2028459D01*
X2018919D01*
X2018896D01*
X2018873D01*
X2018734D01*
X2018549D01*
X2018318Y1804634D01*
X2018064D01*
X2017833Y1804611D01*
X2017625Y1804588D01*
X2017464Y1804541D01*
X2017440D01*
X2017417Y1804518D01*
X2017279Y1804426D01*
X2017140Y1804264D01*
X2017071Y1804149D01*
X2017002Y1804010D01*
Y1803987D01*
X2016978Y1803964D01*
Y1803871D01*
X2016955Y1803756D01*
X2016932Y1803571D01*
Y1803340D01*
X2016909Y1803063D01*
Y1801238D01*
X2016932Y1801030D01*
X2016955Y1800753D01*
X2017002Y1800453D01*
X2017094Y1800129D01*
X2017186Y1799783D01*
X2017325Y1799483D01*
X2017348Y1799436D01*
X2017394Y1799344D01*
X2017510Y1799205D01*
X2017648Y1799021D01*
X2017833Y1798813D01*
X2018064Y1798582D01*
X2018318Y1798351D01*
X2018642Y1798120D01*
X2018688Y1798097D01*
X2018803Y1798027D01*
X2019011Y1797912D01*
X2019312Y1797773D01*
X2019681Y1797588D01*
X2020143Y1797403D01*
X2020674Y1797219D01*
X2021298Y1797011D01*
Y1796549D01*
X2016078Y1797103D01*
Y1810340D01*
X2016470D01*
Y1809739D01*
X2016493Y1809623D01*
Y1809485D01*
X2016563Y1809138D01*
X2016632Y1808977D01*
X2016701Y1808815D01*
Y1808792D01*
X2016724Y1808769D01*
X2016817Y1808653D01*
X2016978Y1808492D01*
X2017209Y1808376D01*
X2017233D01*
X2017279Y1808353D01*
X2017348Y1808330D01*
X2017487Y1808307D01*
X2017671Y1808284D01*
X2017926Y1808261D01*
X2018226Y1808237D01*
X2018619D01*
X2028459D01*
X2028482D01*
X2028505D01*
X2028644D01*
X2028829D01*
X2029060Y1808261D01*
X2029291D01*
X2029522Y1808284D01*
X2029730Y1808330D01*
X2029868Y1808376D01*
X2029891D01*
X2029914Y1808399D01*
X2030053Y1808468D01*
X2030215Y1808630D01*
X2030307Y1808723D01*
X2030376Y1808861D01*
Y1808884D01*
X2030423Y1808930D01*
X2030446Y1809000D01*
X2030492Y1809115D01*
X2030538Y1809254D01*
X2030561Y1809439D01*
X2030607Y1809623D01*
Y1810340D01*
X2031000D01*
Y1802393D01*
D02*
G37*
G36*
X2028004Y1756977D02*
X2028165Y1756954D01*
X2028327Y1756931D01*
X2028743Y1756838D01*
X2029228Y1756677D01*
X2029736Y1756446D01*
X2029990Y1756307D01*
X2030244Y1756122D01*
X2030498Y1755937D01*
X2030729Y1755706D01*
X2030753Y1755683D01*
X2030776Y1755637D01*
X2030845Y1755568D01*
X2030937Y1755475D01*
X2031030Y1755337D01*
X2031122Y1755175D01*
X2031238Y1754990D01*
X2031376Y1754805D01*
X2031492Y1754574D01*
X2031607Y1754320D01*
X2031792Y1753743D01*
X2031954Y1753096D01*
X2031977Y1752750D01*
X2032000Y1752380D01*
Y1752126D01*
X2031977Y1751941D01*
X2031954Y1751710D01*
X2031931Y1751479D01*
X2031815Y1750971D01*
Y1750948D01*
X2031792Y1750879D01*
X2031746Y1750763D01*
X2031700Y1750624D01*
X2031630Y1750440D01*
X2031561Y1750232D01*
X2031446Y1749978D01*
X2031330Y1749724D01*
X2031307Y1749700D01*
X2031284Y1749608D01*
X2031215Y1749469D01*
X2031168Y1749308D01*
X2031030Y1748961D01*
X2031007Y1748800D01*
X2030984Y1748661D01*
Y1748615D01*
X2031007Y1748499D01*
X2031053Y1748361D01*
X2031145Y1748222D01*
X2031191Y1748199D01*
X2031238Y1748153D01*
X2031330Y1748130D01*
X2031446Y1748060D01*
X2031584Y1748014D01*
X2031769Y1747968D01*
X2032000Y1747899D01*
Y1747575D01*
X2027034Y1747460D01*
Y1747922D01*
X2027057D01*
X2027126Y1747945D01*
X2027218Y1747968D01*
X2027334Y1747991D01*
X2027495Y1748037D01*
X2027680Y1748083D01*
X2028096Y1748245D01*
X2028581Y1748453D01*
X2029066Y1748730D01*
X2029551Y1749077D01*
X2030013Y1749516D01*
X2030036Y1749539D01*
X2030060Y1749562D01*
X2030129Y1749631D01*
X2030198Y1749724D01*
X2030291Y1749839D01*
X2030383Y1749978D01*
X2030591Y1750324D01*
X2030799Y1750717D01*
X2030984Y1751179D01*
X2031122Y1751687D01*
X2031145Y1751941D01*
X2031168Y1752218D01*
Y1752403D01*
X2031145Y1752611D01*
X2031099Y1752865D01*
X2031030Y1753142D01*
X2030914Y1753443D01*
X2030776Y1753743D01*
X2030568Y1753997D01*
X2030545Y1754020D01*
X2030452Y1754089D01*
X2030337Y1754205D01*
X2030175Y1754320D01*
X2029967Y1754436D01*
X2029736Y1754551D01*
X2029459Y1754621D01*
X2029182Y1754644D01*
X2029159D01*
X2029089D01*
X2028997Y1754621D01*
X2028881D01*
X2028604Y1754551D01*
X2028304Y1754413D01*
X2028281Y1754390D01*
X2028212Y1754343D01*
X2028119Y1754274D01*
X2027981Y1754182D01*
X2027819Y1754043D01*
X2027634Y1753858D01*
X2027449Y1753650D01*
X2027264Y1753396D01*
X2027241Y1753373D01*
X2027195Y1753281D01*
X2027103Y1753119D01*
X2026987Y1752888D01*
X2026895Y1752750D01*
X2026803Y1752565D01*
X2026710Y1752380D01*
X2026595Y1752149D01*
X2026456Y1751918D01*
X2026317Y1751641D01*
X2026156Y1751317D01*
X2025994Y1750994D01*
X2025971Y1750971D01*
X2025948Y1750879D01*
X2025879Y1750740D01*
X2025786Y1750578D01*
X2025671Y1750347D01*
X2025532Y1750116D01*
X2025370Y1749839D01*
X2025209Y1749562D01*
X2024839Y1748961D01*
X2024423Y1748384D01*
X2024192Y1748107D01*
X2023984Y1747852D01*
X2023753Y1747621D01*
X2023545Y1747437D01*
X2023522D01*
X2023499Y1747390D01*
X2023430Y1747344D01*
X2023338Y1747298D01*
X2023107Y1747159D01*
X2022806Y1746975D01*
X2022414Y1746813D01*
X2021975Y1746674D01*
X2021466Y1746582D01*
X2020935Y1746536D01*
X2020912D01*
X2020843D01*
X2020750D01*
X2020612Y1746559D01*
X2020450Y1746582D01*
X2020265Y1746605D01*
X2019826Y1746720D01*
X2019341Y1746905D01*
X2019064Y1747021D01*
X2018787Y1747159D01*
X2018510Y1747321D01*
X2018255Y1747529D01*
X2017978Y1747760D01*
X2017724Y1748014D01*
X2017701Y1748037D01*
X2017678Y1748083D01*
X2017609Y1748153D01*
X2017516Y1748268D01*
X2017424Y1748430D01*
X2017308Y1748592D01*
X2017170Y1748800D01*
X2017054Y1749031D01*
X2016939Y1749285D01*
X2016800Y1749562D01*
X2016685Y1749862D01*
X2016592Y1750186D01*
X2016500Y1750532D01*
X2016454Y1750902D01*
X2016408Y1751294D01*
X2016384Y1751710D01*
Y1751964D01*
X2016408Y1752149D01*
X2016431Y1752357D01*
X2016454Y1752588D01*
X2016546Y1753050D01*
Y1753073D01*
X2016569Y1753165D01*
X2016615Y1753304D01*
X2016662Y1753489D01*
X2016731Y1753697D01*
X2016823Y1753974D01*
X2016916Y1754274D01*
X2017054Y1754621D01*
Y1754644D01*
X2017101Y1754713D01*
X2017124Y1754805D01*
X2017170Y1754921D01*
X2017239Y1755221D01*
X2017285Y1755498D01*
Y1755545D01*
X2017262Y1755683D01*
X2017193Y1755868D01*
X2017054Y1756099D01*
Y1756122D01*
X2017008Y1756145D01*
X2016893Y1756284D01*
X2016685Y1756446D01*
X2016384Y1756607D01*
Y1757000D01*
X2022021D01*
Y1756607D01*
X2021998D01*
X2021928Y1756584D01*
X2021790Y1756561D01*
X2021628Y1756515D01*
X2021420Y1756446D01*
X2021212Y1756376D01*
X2020958Y1756284D01*
X2020681Y1756191D01*
X2020080Y1755937D01*
X2019480Y1755614D01*
X2018902Y1755221D01*
X2018648Y1755013D01*
X2018394Y1754759D01*
X2018371Y1754736D01*
X2018348Y1754690D01*
X2018279Y1754621D01*
X2018209Y1754505D01*
X2018117Y1754390D01*
X2018001Y1754228D01*
X2017770Y1753858D01*
X2017539Y1753419D01*
X2017332Y1752911D01*
X2017193Y1752357D01*
X2017170Y1752057D01*
X2017147Y1751756D01*
Y1751548D01*
X2017193Y1751341D01*
X2017239Y1751040D01*
X2017308Y1750740D01*
X2017424Y1750417D01*
X2017586Y1750093D01*
X2017817Y1749793D01*
X2017840Y1749770D01*
X2017932Y1749677D01*
X2018071Y1749562D01*
X2018255Y1749423D01*
X2018486Y1749285D01*
X2018764Y1749169D01*
X2019041Y1749077D01*
X2019364Y1749054D01*
X2019387D01*
X2019457D01*
X2019549Y1749077D01*
X2019688Y1749100D01*
X2020011Y1749169D01*
X2020196Y1749262D01*
X2020381Y1749354D01*
X2020404Y1749377D01*
X2020473Y1749400D01*
X2020565Y1749469D01*
X2020681Y1749562D01*
X2020843Y1749677D01*
X2021004Y1749839D01*
X2021166Y1750001D01*
X2021328Y1750209D01*
X2021351Y1750232D01*
X2021420Y1750324D01*
X2021513Y1750463D01*
X2021651Y1750671D01*
X2021813Y1750948D01*
X2022021Y1751317D01*
X2022252Y1751733D01*
X2022506Y1752241D01*
X2022529Y1752264D01*
X2022552Y1752334D01*
X2022598Y1752426D01*
X2022668Y1752565D01*
X2022760Y1752750D01*
X2022852Y1752934D01*
X2023083Y1753373D01*
X2023361Y1753858D01*
X2023638Y1754343D01*
X2023915Y1754805D01*
X2024054Y1754990D01*
X2024192Y1755175D01*
X2024215Y1755221D01*
X2024308Y1755314D01*
X2024469Y1755475D01*
X2024654Y1755683D01*
X2024885Y1755891D01*
X2025162Y1756122D01*
X2025440Y1756330D01*
X2025763Y1756538D01*
X2025809Y1756561D01*
X2025925Y1756607D01*
X2026086Y1756677D01*
X2026341Y1756769D01*
X2026618Y1756861D01*
X2026964Y1756931D01*
X2027311Y1756977D01*
X2027703Y1757000D01*
X2027726D01*
X2027773D01*
X2027865D01*
X2028004Y1756977D01*
D02*
G37*
G36*
X2031653Y1737411D02*
X2031261D01*
Y1738035D01*
X2031238Y1738150D01*
Y1738289D01*
X2031145Y1738636D01*
X2031099Y1738797D01*
X2031007Y1738959D01*
X2030984Y1739005D01*
X2030891Y1739121D01*
X2030729Y1739259D01*
X2030498Y1739398D01*
X2030475D01*
X2030429Y1739421D01*
X2030360Y1739444D01*
X2030221D01*
X2030036Y1739467D01*
X2029805Y1739490D01*
X2029482Y1739513D01*
X2029112D01*
X2019272D01*
X2019249D01*
X2019226D01*
X2019087D01*
X2018902D01*
X2018648Y1739490D01*
X2018417D01*
X2018163Y1739467D01*
X2017955Y1739444D01*
X2017817Y1739398D01*
X2017793D01*
X2017770Y1739375D01*
X2017655Y1739282D01*
X2017493Y1739144D01*
X2017424Y1739028D01*
X2017332Y1738913D01*
Y1738890D01*
X2017308Y1738843D01*
X2017262Y1738751D01*
X2017239Y1738659D01*
X2017193Y1738497D01*
X2017147Y1738335D01*
X2017124Y1738150D01*
Y1737411D01*
X2016731D01*
Y1745196D01*
X2017124D01*
Y1744595D01*
X2017147Y1744480D01*
Y1744341D01*
X2017216Y1743995D01*
X2017285Y1743833D01*
X2017355Y1743671D01*
Y1743648D01*
X2017378Y1743625D01*
X2017470Y1743510D01*
X2017632Y1743348D01*
X2017863Y1743232D01*
X2017886D01*
X2017932Y1743209D01*
X2018001Y1743186D01*
X2018140Y1743163D01*
X2018325Y1743140D01*
X2018579Y1743117D01*
X2018879Y1743094D01*
X2019272D01*
X2029112D01*
X2029136D01*
X2029159D01*
X2029297D01*
X2029482D01*
X2029713Y1743117D01*
X2029944D01*
X2030175Y1743140D01*
X2030383Y1743186D01*
X2030522Y1743232D01*
X2030545D01*
X2030568Y1743255D01*
X2030706Y1743325D01*
X2030868Y1743486D01*
X2030960Y1743579D01*
X2031030Y1743717D01*
Y1743741D01*
X2031076Y1743787D01*
X2031099Y1743856D01*
X2031145Y1743972D01*
X2031191Y1744110D01*
X2031215Y1744295D01*
X2031261Y1744480D01*
Y1745196D01*
X2031653D01*
Y1737411D01*
D02*
G37*
G36*
X2024308Y1735956D02*
X2024539Y1735933D01*
X2024839Y1735910D01*
X2025186Y1735863D01*
X2025555Y1735771D01*
X2025971Y1735679D01*
X2026387Y1735563D01*
X2026849Y1735401D01*
X2027334Y1735217D01*
X2027796Y1734986D01*
X2028281Y1734708D01*
X2028766Y1734408D01*
X2029228Y1734039D01*
X2029667Y1733623D01*
X2029690Y1733600D01*
X2029759Y1733507D01*
X2029875Y1733369D01*
X2030036Y1733184D01*
X2030198Y1732953D01*
X2030406Y1732676D01*
X2030614Y1732352D01*
X2030845Y1731983D01*
X2031053Y1731567D01*
X2031261Y1731128D01*
X2031469Y1730620D01*
X2031630Y1730112D01*
X2031792Y1729534D01*
X2031908Y1728957D01*
X2031977Y1728310D01*
X2032000Y1727663D01*
Y1727270D01*
X2031977Y1726993D01*
X2031954Y1726693D01*
X2031931Y1726346D01*
X2031815Y1725653D01*
Y1725630D01*
X2031792Y1725561D01*
X2031769Y1725445D01*
X2031723Y1725284D01*
X2031653Y1725053D01*
X2031561Y1724799D01*
X2031446Y1724475D01*
X2031307Y1724106D01*
Y1724082D01*
X2031284Y1724059D01*
X2031238Y1723921D01*
X2031191Y1723759D01*
X2031122Y1723528D01*
X2031030Y1723320D01*
X2030984Y1723112D01*
X2030937Y1722928D01*
X2030914Y1722812D01*
Y1722766D01*
X2030937Y1722627D01*
X2031007Y1722442D01*
X2031122Y1722258D01*
X2031145Y1722235D01*
X2031168Y1722211D01*
X2031238Y1722165D01*
X2031330Y1722096D01*
X2031446Y1722004D01*
X2031584Y1721934D01*
X2031769Y1721842D01*
X2032000Y1721749D01*
Y1721357D01*
X2026733D01*
Y1721749D01*
X2026756D01*
X2026826Y1721773D01*
X2026941Y1721819D01*
X2027080Y1721888D01*
X2027264Y1721957D01*
X2027472Y1722050D01*
X2027957Y1722304D01*
X2028466Y1722604D01*
X2029020Y1722997D01*
X2029528Y1723436D01*
X2029782Y1723690D01*
X2029990Y1723967D01*
X2030013Y1723990D01*
X2030036Y1724036D01*
X2030106Y1724106D01*
X2030175Y1724221D01*
X2030244Y1724360D01*
X2030360Y1724521D01*
X2030452Y1724706D01*
X2030568Y1724914D01*
X2030776Y1725399D01*
X2030937Y1725954D01*
X2031076Y1726531D01*
X2031099Y1726854D01*
X2031122Y1727178D01*
Y1727340D01*
X2031099Y1727455D01*
Y1727594D01*
X2031076Y1727778D01*
X2031007Y1728148D01*
X2030891Y1728610D01*
X2030729Y1729072D01*
X2030498Y1729534D01*
X2030175Y1729973D01*
Y1729996D01*
X2030129Y1730019D01*
X2029990Y1730158D01*
X2029782Y1730343D01*
X2029482Y1730574D01*
X2029112Y1730851D01*
X2028674Y1731105D01*
X2028142Y1731336D01*
X2027542Y1731544D01*
X2027519D01*
X2027472Y1731567D01*
X2027380Y1731590D01*
X2027264Y1731613D01*
X2027103Y1731659D01*
X2026918Y1731682D01*
X2026710Y1731729D01*
X2026479Y1731775D01*
X2025971Y1731867D01*
X2025393Y1731937D01*
X2024770Y1731983D01*
X2024100Y1732006D01*
X2024077D01*
X2024007D01*
X2023892D01*
X2023730D01*
X2023545Y1731983D01*
X2023338D01*
X2023083Y1731960D01*
X2022829Y1731937D01*
X2022229Y1731890D01*
X2021605Y1731798D01*
X2020958Y1731659D01*
X2020334Y1731498D01*
X2020311D01*
X2020265Y1731475D01*
X2020173Y1731451D01*
X2020080Y1731405D01*
X2019942Y1731336D01*
X2019780Y1731267D01*
X2019434Y1731105D01*
X2019041Y1730874D01*
X2018648Y1730597D01*
X2018279Y1730273D01*
X2017955Y1729881D01*
Y1729858D01*
X2017932Y1729834D01*
X2017886Y1729765D01*
X2017840Y1729673D01*
X2017724Y1729442D01*
X2017586Y1729118D01*
X2017447Y1728726D01*
X2017332Y1728264D01*
X2017239Y1727755D01*
X2017216Y1727201D01*
Y1726993D01*
X2017239Y1726854D01*
Y1726693D01*
X2017262Y1726508D01*
X2017332Y1726115D01*
Y1726092D01*
X2017355Y1726023D01*
X2017378Y1725907D01*
X2017424Y1725746D01*
X2017470Y1725584D01*
X2017516Y1725376D01*
X2017655Y1724937D01*
X2020773D01*
X2020820D01*
X2020912D01*
X2021074D01*
X2021235Y1724960D01*
X2021443D01*
X2021628Y1724983D01*
X2021790Y1725030D01*
X2021905Y1725076D01*
X2021928D01*
X2021951Y1725099D01*
X2022067Y1725191D01*
X2022206Y1725330D01*
X2022298Y1725445D01*
X2022367Y1725584D01*
Y1725607D01*
X2022414Y1725653D01*
X2022437Y1725723D01*
X2022483Y1725838D01*
X2022529Y1725977D01*
X2022552Y1726115D01*
X2022598Y1726485D01*
Y1726854D01*
X2022991D01*
Y1719601D01*
X2022598D01*
Y1719647D01*
X2022575Y1719740D01*
Y1719878D01*
X2022552Y1720063D01*
X2022460Y1720456D01*
X2022414Y1720618D01*
X2022344Y1720779D01*
Y1720802D01*
X2022321Y1720825D01*
X2022206Y1720964D01*
X2022044Y1721126D01*
X2021790Y1721264D01*
X2021744Y1721287D01*
X2021674D01*
X2021582Y1721311D01*
X2021443Y1721334D01*
X2021282D01*
X2021051Y1721357D01*
X2020773D01*
X2017655D01*
Y1721380D01*
X2017632Y1721426D01*
X2017586Y1721495D01*
X2017562Y1721611D01*
X2017493Y1721726D01*
X2017447Y1721888D01*
X2017308Y1722258D01*
X2017147Y1722720D01*
X2016985Y1723228D01*
X2016846Y1723759D01*
X2016708Y1724337D01*
Y1724360D01*
X2016685Y1724406D01*
Y1724498D01*
X2016662Y1724614D01*
X2016639Y1724752D01*
X2016615Y1724914D01*
X2016569Y1725099D01*
X2016546Y1725307D01*
X2016477Y1725792D01*
X2016431Y1726346D01*
X2016408Y1726924D01*
X2016384Y1727547D01*
Y1727894D01*
X2016408Y1728079D01*
Y1728287D01*
X2016431Y1728518D01*
X2016454Y1728772D01*
X2016523Y1729326D01*
X2016615Y1729904D01*
X2016754Y1730504D01*
X2016939Y1731059D01*
Y1731082D01*
X2016962Y1731128D01*
X2017008Y1731197D01*
X2017054Y1731290D01*
X2017170Y1731567D01*
X2017355Y1731890D01*
X2017562Y1732283D01*
X2017817Y1732699D01*
X2018117Y1733115D01*
X2018463Y1733530D01*
X2018486D01*
X2018510Y1733577D01*
X2018625Y1733715D01*
X2018833Y1733900D01*
X2019087Y1734131D01*
X2019410Y1734408D01*
X2019757Y1734685D01*
X2020150Y1734963D01*
X2020589Y1735217D01*
X2020612D01*
X2020658Y1735240D01*
X2020750Y1735286D01*
X2020866Y1735332D01*
X2021004Y1735401D01*
X2021166Y1735448D01*
X2021374Y1735517D01*
X2021582Y1735586D01*
X2022090Y1735748D01*
X2022668Y1735863D01*
X2023291Y1735956D01*
X2023984Y1735979D01*
X2024031D01*
X2024146D01*
X2024308Y1735956D01*
D02*
G37*
%LPC*%
G36*
X2697376Y2054348D02*
X2696922D01*
Y2038018D01*
Y2037953D01*
Y2037824D01*
Y2037597D01*
Y2037338D01*
X2696955Y2037046D01*
Y2036787D01*
X2696987Y2036560D01*
X2697020Y2036398D01*
X2697052Y2036366D01*
X2697117Y2036236D01*
X2697246Y2036106D01*
X2697441Y2035977D01*
X2697473D01*
X2697506Y2035944D01*
X2697603Y2035912D01*
X2697765Y2035880D01*
X2697927Y2035815D01*
X2698121Y2035782D01*
X2698380Y2035750D01*
X2698899D01*
X2699061Y2035782D01*
X2699288Y2035815D01*
X2699547Y2035847D01*
X2700098Y2035977D01*
X2700746Y2036171D01*
X2701394Y2036495D01*
X2701718Y2036690D01*
X2702009Y2036916D01*
X2702301Y2037208D01*
X2702560Y2037500D01*
X2702592Y2037532D01*
X2702657Y2037597D01*
X2702722Y2037759D01*
X2702852Y2037953D01*
X2702981Y2038212D01*
X2703143Y2038504D01*
X2703338Y2038893D01*
X2703500Y2039314D01*
X2703662Y2039800D01*
X2703856Y2040351D01*
X2704018Y2040934D01*
X2704148Y2041614D01*
X2704277Y2042327D01*
X2704374Y2043137D01*
X2704407Y2043980D01*
X2704439Y2044887D01*
Y2044919D01*
Y2045081D01*
Y2045276D01*
X2704407Y2045567D01*
Y2045891D01*
X2704374Y2046280D01*
X2704342Y2046734D01*
X2704277Y2047187D01*
X2704148Y2048224D01*
X2703921Y2049293D01*
X2703597Y2050330D01*
X2703402Y2050848D01*
X2703176Y2051302D01*
Y2051334D01*
X2703143Y2051399D01*
X2703078Y2051496D01*
X2702981Y2051594D01*
X2702787Y2051918D01*
X2702463Y2052339D01*
X2702106Y2052760D01*
X2701653Y2053181D01*
X2701167Y2053570D01*
X2700584Y2053862D01*
X2700519Y2053894D01*
X2700357Y2053926D01*
X2700098Y2054024D01*
X2699709Y2054121D01*
X2699223Y2054186D01*
X2698575Y2054283D01*
X2698218Y2054315D01*
X2697830D01*
X2697376Y2054348D01*
D02*
G37*
G36*
X2796355Y1567644D02*
X2795708D01*
Y1544359D01*
Y1544267D01*
Y1544082D01*
Y1543758D01*
Y1543389D01*
X2795755Y1542973D01*
Y1542603D01*
X2795801Y1542280D01*
X2795847Y1542049D01*
X2795893Y1542003D01*
X2795986Y1541818D01*
X2796170Y1541633D01*
X2796448Y1541448D01*
X2796494D01*
X2796540Y1541402D01*
X2796679Y1541356D01*
X2796910Y1541310D01*
X2797141Y1541217D01*
X2797418Y1541171D01*
X2797787Y1541125D01*
X2798527D01*
X2798758Y1541171D01*
X2799081Y1541217D01*
X2799451Y1541264D01*
X2800236Y1541448D01*
X2801160Y1541726D01*
X2802084Y1542188D01*
X2802546Y1542465D01*
X2802962Y1542788D01*
X2803378Y1543204D01*
X2803747Y1543620D01*
X2803793Y1543666D01*
X2803886Y1543758D01*
X2803978Y1543989D01*
X2804163Y1544267D01*
X2804348Y1544636D01*
X2804579Y1545052D01*
X2804856Y1545606D01*
X2805087Y1546207D01*
X2805318Y1546900D01*
X2805595Y1547685D01*
X2805826Y1548517D01*
X2806011Y1549487D01*
X2806196Y1550504D01*
X2806334Y1551659D01*
X2806381Y1552860D01*
X2806427Y1554153D01*
Y1554200D01*
Y1554431D01*
Y1554708D01*
X2806381Y1555124D01*
Y1555586D01*
X2806334Y1556140D01*
X2806288Y1556787D01*
X2806196Y1557434D01*
X2806011Y1558912D01*
X2805688Y1560437D01*
X2805226Y1561915D01*
X2804948Y1562654D01*
X2804625Y1563301D01*
Y1563347D01*
X2804579Y1563440D01*
X2804486Y1563578D01*
X2804348Y1563717D01*
X2804071Y1564179D01*
X2803609Y1564779D01*
X2803100Y1565380D01*
X2802454Y1565981D01*
X2801761Y1566535D01*
X2800929Y1566951D01*
X2800837Y1566997D01*
X2800606Y1567043D01*
X2800236Y1567182D01*
X2799682Y1567320D01*
X2798989Y1567413D01*
X2798065Y1567551D01*
X2797556Y1567598D01*
X2797002D01*
X2796355Y1567644D01*
D02*
G37*
G36*
X2256142Y1439918D02*
X2253855Y1434836D01*
X2258360D01*
X2256142Y1439918D01*
D02*
G37*
G36*
X2197745Y1443868D02*
X2196567D01*
Y1437354D01*
X2197445D01*
X2197722Y1437377D01*
X2198046Y1437400D01*
X2198415Y1437423D01*
X2198808Y1437469D01*
X2199154Y1437539D01*
X2199478Y1437631D01*
X2199501Y1437654D01*
X2199593Y1437677D01*
X2199732Y1437747D01*
X2199917Y1437862D01*
X2200101Y1438001D01*
X2200309Y1438162D01*
X2200494Y1438370D01*
X2200679Y1438624D01*
X2200702Y1438671D01*
X2200748Y1438763D01*
X2200818Y1438925D01*
X2200910Y1439133D01*
X2200979Y1439410D01*
X2201048Y1439756D01*
X2201095Y1440126D01*
X2201118Y1440542D01*
Y1440565D01*
Y1440611D01*
Y1440703D01*
X2201095Y1440819D01*
Y1440957D01*
X2201072Y1441119D01*
X2201025Y1441489D01*
X2200910Y1441881D01*
X2200771Y1442297D01*
X2200586Y1442690D01*
X2200309Y1443036D01*
X2200263Y1443083D01*
X2200148Y1443175D01*
X2199963Y1443291D01*
X2199686Y1443452D01*
X2199339Y1443614D01*
X2198877Y1443729D01*
X2198369Y1443822D01*
X2197745Y1443868D01*
D02*
G37*
%LPD*%
D41*
X3361417Y1479197D02*
G03*
X3361417Y1479197I-3937J0D01*
G01*
X3361071Y1699197D02*
G03*
X3361071Y1699197I-3937J0D01*
G01*
X3361417Y1919197D02*
G03*
X3361417Y1919197I-3937J0D01*
G01*
X2092937Y1690449D02*
G03*
X2092937Y1690449I-3937J0D01*
G01*
D42*
X2929465Y1889402D02*
X2962535D01*
X2929465Y1814598D02*
X2962535D01*
X2928465Y1512402D02*
X2961535D01*
X2928465Y1437598D02*
X2961535D01*
X2929465Y1603402D02*
X2962535D01*
X2929465Y1528598D02*
X2962535D01*
X2929465Y1699402D02*
X2962535D01*
X2929465Y1624598D02*
X2962535D01*
X2929465Y1984402D02*
X2962535D01*
X2929465Y1909598D02*
X2962535D01*
X2929465Y2079402D02*
X2962535D01*
X2929465Y2004598D02*
X2962535D01*
X2929465Y1794402D02*
X2962535D01*
X2929465Y1719598D02*
X2962535D01*
X3101575Y1453606D02*
X3298425D01*
X3101575Y1654394D02*
X3298425D01*
X3101228Y1673606D02*
X3298079D01*
X3101228Y1874394D02*
X3298079D01*
X3101575Y1893606D02*
X3298425D01*
X3101575Y2094394D02*
X3298425D01*
X2064394Y1747535D02*
X2066559D01*
X2111441D02*
X2113606D01*
X2064394Y1814465D02*
X2066559D01*
X2111441D02*
X2113606D01*
X2064394Y1747535D02*
Y1814465D01*
X2113606Y1747535D02*
Y1814465D01*
D47*
X2296362Y1883795D02*
G03*
X2296362Y1883795I-4921J0D01*
G01*
D48*
X2038000Y1614116D02*
Y1657884D01*
X2170000Y1614116D02*
Y1657884D01*
%TF.MD5,f534b65ef68d195258223e5c68d1c85a*%
M02*
