%TF.GenerationSoftware,Altium Limited,Altium Designer,20.2.3 (150)*%
G04 Layer_Physical_Order=6*
G04 Layer_Color=16711680*
%FSLAX26Y26*%
%MOIN*%
%TF.SameCoordinates,27716F98-0B22-40FE-96F5-AA6DB086EB47*%
%TF.FilePolarity,Positive*%
%TF.FileFunction,Copper,L6,Bot,Signal*%
%TF.Part,Single*%
G01*
G75*
%TA.AperFunction,Conductor*%
%ADD11C,0.010000*%
%ADD13C,0.012000*%
%ADD14C,0.008000*%
%TA.AperFunction,SMDPad,CuDef*%
%ADD23R,0.057087X0.033465*%
%ADD24R,0.041339X0.033465*%
%ADD25R,0.147638X0.185039*%
%TA.AperFunction,ViaPad*%
%ADD37C,0.023622*%
%ADD38C,0.022000*%
%ADD39C,0.090551*%
%TA.AperFunction,SMDPad,CuDef*%
%ADD40R,0.021260X0.023622*%
G36*
X3469763Y2084107D02*
X3475107Y2078763D01*
X3477765Y2072346D01*
Y1923161D01*
X3476962Y1919124D01*
X3474927Y1914211D01*
X3471972Y1909789D01*
X3468211Y1906028D01*
X3463789Y1903073D01*
X3458876Y1901037D01*
X3453659Y1900000D01*
X3294204D01*
X3292734Y1900609D01*
X3291609Y1901734D01*
X3291000Y1903204D01*
Y1904000D01*
Y2087000D01*
X3462779D01*
X3469763Y2084107D01*
D02*
G37*
G36*
X2116376Y2142501D02*
X2123473Y2139561D01*
X2129861Y2135293D01*
X2135293Y2129861D01*
X2139561Y2123473D01*
X2142501Y2116376D01*
X2144000Y2108841D01*
Y2105000D01*
X2144211Y2102854D01*
X2145854Y2098889D01*
X2148889Y2095854D01*
X2152854Y2094211D01*
X2155000Y2094000D01*
X2173720D01*
X2176753Y2084000D01*
X2176302Y2083698D01*
X2172102Y2077413D01*
X2170628Y2070000D01*
X2172102Y2062587D01*
X2176302Y2056302D01*
X2182587Y2052102D01*
X2190000Y2050628D01*
X2197413Y2052102D01*
X2203698Y2056302D01*
X2207898Y2062587D01*
X2209372Y2070000D01*
X2207898Y2077413D01*
X2203698Y2083698D01*
X2203247Y2084000D01*
X2206280Y2094000D01*
X2648283D01*
X2657118Y2090341D01*
X2663879Y2083579D01*
X2667539Y2074744D01*
Y2069963D01*
X2667702Y2066634D01*
X2669001Y2060104D01*
X2671549Y2053953D01*
X2675248Y2048417D01*
X2679956Y2043709D01*
X2685492Y2040010D01*
X2691643Y2037462D01*
X2698173Y2036164D01*
X2701502Y2036000D01*
X3121000D01*
Y1893000D01*
Y1873732D01*
X3055189D01*
Y1863255D01*
X2954556D01*
Y1863436D01*
X2941358Y1861699D01*
X2929060Y1856604D01*
X2923000Y1851955D01*
Y1851954D01*
X2918499Y1848501D01*
X2918598Y1848402D01*
X2915158Y1846103D01*
X2911101Y1845296D01*
Y1845255D01*
X2855174D01*
D01*
X2855174D01*
Y1845347D01*
Y1845347D01*
X2841124Y1843963D01*
X2840126Y1843660D01*
X2827614Y1839865D01*
X2815538Y1833410D01*
X2811627Y1834188D01*
X2804214Y1832713D01*
X2797929Y1828514D01*
X2793730Y1822229D01*
X2792255Y1814815D01*
X2793730Y1807402D01*
X2797929Y1801117D01*
X2804214Y1796918D01*
X2811627Y1795443D01*
X2819041Y1796918D01*
X2825326Y1801117D01*
X2829525Y1807402D01*
X2830272Y1811158D01*
X2832393Y1812786D01*
X2843382Y1817337D01*
X2845635Y1817634D01*
X2855174Y1818745D01*
Y1818745D01*
X2911101D01*
Y1818682D01*
X2920733Y1819950D01*
X2929709Y1823668D01*
X2937417Y1829582D01*
X2937418Y1829582D01*
X2945139Y1835083D01*
X2945170Y1835104D01*
X2953988Y1836858D01*
X2954556Y1836745D01*
X3055189D01*
Y1824268D01*
X3121000D01*
Y1653732D01*
X3055189D01*
Y1642255D01*
X2854000D01*
X2853678Y1642191D01*
X2843358Y1643549D01*
X2833441Y1647657D01*
X2824926Y1654191D01*
X2818392Y1662707D01*
X2815862Y1668814D01*
X2817632Y1671464D01*
X2819107Y1678877D01*
X2817632Y1686291D01*
X2813433Y1692576D01*
X2808140Y1696112D01*
Y1696984D01*
X2812339Y1703269D01*
X2813814Y1710682D01*
X2812339Y1718096D01*
X2808140Y1724380D01*
X2801855Y1728580D01*
X2794441Y1730054D01*
X2787028Y1728580D01*
X2780743Y1724380D01*
X2776544Y1718096D01*
X2775069Y1710682D01*
X2776544Y1703269D01*
X2780743Y1696984D01*
X2786037Y1693447D01*
Y1692575D01*
X2781837Y1686291D01*
X2780363Y1678877D01*
X2781837Y1671464D01*
X2786037Y1665179D01*
X2789997Y1662533D01*
X2791554Y1657399D01*
X2797800Y1645714D01*
X2806206Y1635471D01*
X2816449Y1627066D01*
X2828134Y1620820D01*
X2840814Y1616973D01*
X2854000Y1615675D01*
Y1615745D01*
X3055189D01*
Y1604268D01*
X3121000D01*
Y1462801D01*
X3120848Y1462434D01*
X3120566Y1462152D01*
X3120199Y1462000D01*
X2928392D01*
X2926755Y1461839D01*
X2923730Y1460586D01*
X2921414Y1458270D01*
X2920161Y1455245D01*
X2920000Y1453608D01*
Y1452293D01*
X2918994Y1449865D01*
X2917135Y1448006D01*
X2914707Y1447000D01*
X2173681D01*
X2163249Y1449075D01*
X2153421Y1453146D01*
X2144577Y1459055D01*
X2137055Y1466577D01*
X2131146Y1475421D01*
X2127075Y1485249D01*
X2125000Y1495681D01*
Y1501000D01*
X2124682Y1507469D01*
X2122158Y1520159D01*
X2117207Y1532112D01*
X2110019Y1542870D01*
X2100870Y1552019D01*
X2090112Y1559207D01*
X2078159Y1564158D01*
X2065469Y1566682D01*
X2059000Y1567000D01*
X1976878D01*
X1966832Y1568998D01*
X1957369Y1572918D01*
X1948852Y1578609D01*
X1941609Y1585852D01*
X1935918Y1594369D01*
X1931998Y1603832D01*
X1930000Y1613878D01*
Y1714417D01*
X1940000Y1720597D01*
X1944000Y1719801D01*
X1951730Y1721339D01*
X1957478Y1725179D01*
X1960587Y1723102D01*
X1968000Y1721628D01*
X1975413Y1723102D01*
X1979022Y1725514D01*
X1985270Y1721339D01*
X1993000Y1719801D01*
X2000730Y1721339D01*
X2007283Y1725717D01*
X2011661Y1732270D01*
X2013199Y1740000D01*
X2011661Y1747730D01*
X2007283Y1754283D01*
X2000730Y1758661D01*
X1993000Y1760199D01*
X1985270Y1758661D01*
X1980518Y1755486D01*
X1975413Y1758898D01*
X1968000Y1760372D01*
X1960587Y1758898D01*
X1955982Y1755821D01*
X1951730Y1758661D01*
X1944000Y1760199D01*
X1940000Y1759403D01*
X1930000Y1765583D01*
Y1793838D01*
X1933495Y1796585D01*
X1940000Y1799994D01*
X1946000Y1798801D01*
X1953730Y1800339D01*
X1958618Y1803605D01*
X1962450Y1801044D01*
X1969864Y1799570D01*
X1977277Y1801044D01*
X1981245Y1803696D01*
X1986270Y1800339D01*
X1994000Y1798801D01*
X2001730Y1800339D01*
X2008283Y1804717D01*
X2012661Y1811270D01*
X2014199Y1819000D01*
X2012661Y1826730D01*
X2008283Y1833283D01*
X2001730Y1837661D01*
X1994000Y1839199D01*
X1986270Y1837661D01*
X1981159Y1834246D01*
X1977277Y1836840D01*
X1969864Y1838314D01*
X1962450Y1836840D01*
X1958705Y1834337D01*
X1953730Y1837661D01*
X1946000Y1839199D01*
X1940000Y1838006D01*
X1933495Y1841415D01*
X1930000Y1844162D01*
Y2114000D01*
Y2116955D01*
X1931153Y2122751D01*
X1933414Y2128210D01*
X1936697Y2133124D01*
X1940876Y2137302D01*
X1945790Y2140586D01*
X1951249Y2142847D01*
X1957045Y2144000D01*
X2108841D01*
X2116376Y2142501D01*
D02*
G37*
G36*
X3466930Y1864869D02*
X3470869Y1860930D01*
X3473000Y1855785D01*
Y1853000D01*
Y1696000D01*
Y1693215D01*
X3470869Y1688070D01*
X3466930Y1684131D01*
X3461785Y1682000D01*
X3289000D01*
X3290000Y1867000D01*
X3357243D01*
X3352302Y1863698D01*
X3348102Y1857413D01*
X3346628Y1850000D01*
X3348102Y1842587D01*
X3352302Y1836302D01*
X3358587Y1832102D01*
X3366000Y1830628D01*
X3373413Y1832102D01*
X3379698Y1836302D01*
X3383898Y1842587D01*
X3385372Y1850000D01*
X3383898Y1857413D01*
X3379698Y1863698D01*
X3374757Y1867000D01*
X3461785D01*
X3466930Y1864869D01*
D02*
G37*
G36*
X3461462Y1642651D02*
X3467651Y1636462D01*
X3471000Y1628376D01*
Y1624000D01*
Y1481000D01*
Y1477221D01*
X3468107Y1470237D01*
X3462763Y1464892D01*
X3455779Y1462000D01*
X3277801D01*
X3277434Y1462152D01*
X3277152Y1462434D01*
X3277000Y1462801D01*
Y1463000D01*
Y1646000D01*
X3353948D01*
X3349828Y1643247D01*
X3345629Y1636963D01*
X3344154Y1629549D01*
X3345629Y1622136D01*
X3349828Y1615851D01*
X3356113Y1611651D01*
X3363526Y1610177D01*
X3370940Y1611651D01*
X3377225Y1615851D01*
X3381424Y1622136D01*
X3382899Y1629549D01*
X3381424Y1636963D01*
X3377225Y1643247D01*
X3373105Y1646000D01*
X3453376D01*
X3461462Y1642651D01*
D02*
G37*
%LPC*%
G36*
X2499218Y2070590D02*
X2491804Y2069115D01*
X2485520Y2064916D01*
X2481320Y2058631D01*
X2479846Y2051218D01*
X2481320Y2043804D01*
X2485520Y2037520D01*
X2491804Y2033320D01*
X2499218Y2031846D01*
X2506631Y2033320D01*
X2512916Y2037520D01*
X2517115Y2043804D01*
X2518590Y2051218D01*
X2517115Y2058631D01*
X2512916Y2064916D01*
X2506631Y2069115D01*
X2499218Y2070590D01*
D02*
G37*
G36*
X2808000Y1993372D02*
X2800587Y1991898D01*
X2794302Y1987698D01*
X2790102Y1981413D01*
X2788628Y1974000D01*
X2790102Y1966587D01*
X2794302Y1960302D01*
X2800587Y1956102D01*
X2808000Y1954628D01*
X2815413Y1956102D01*
X2821698Y1960302D01*
X2825898Y1966587D01*
X2827372Y1974000D01*
X2825898Y1981413D01*
X2821698Y1987698D01*
X2815413Y1991898D01*
X2808000Y1993372D01*
D02*
G37*
G36*
X2299103Y1985106D02*
X2291689Y1983632D01*
X2285405Y1979432D01*
X2281205Y1973147D01*
X2279731Y1965734D01*
X2281205Y1958321D01*
X2285405Y1952036D01*
X2291689Y1947836D01*
X2299103Y1946362D01*
X2306516Y1947836D01*
X2312801Y1952036D01*
X2317000Y1958321D01*
X2318475Y1965734D01*
X2317000Y1973147D01*
X2312801Y1979432D01*
X2306516Y1983632D01*
X2299103Y1985106D01*
D02*
G37*
G36*
X2156000Y1971372D02*
X2148587Y1969898D01*
X2142302Y1965698D01*
X2138102Y1959413D01*
X2136628Y1952000D01*
X2138102Y1944587D01*
X2142302Y1938302D01*
X2148587Y1934102D01*
X2156000Y1932628D01*
X2163413Y1934102D01*
X2169698Y1938302D01*
X2173898Y1944587D01*
X2175372Y1952000D01*
X2173898Y1959413D01*
X2169698Y1965698D01*
X2163413Y1969898D01*
X2156000Y1971372D01*
D02*
G37*
G36*
X2376000Y1969372D02*
X2368587Y1967898D01*
X2362302Y1963698D01*
X2358102Y1957413D01*
X2356628Y1950000D01*
X2358102Y1942587D01*
X2362302Y1936302D01*
X2368587Y1932102D01*
X2376000Y1930628D01*
X2383413Y1932102D01*
X2389698Y1936302D01*
X2393898Y1942587D01*
X2395372Y1950000D01*
X2393898Y1957413D01*
X2389698Y1963698D01*
X2383413Y1967898D01*
X2376000Y1969372D01*
D02*
G37*
G36*
X2510603Y1944372D02*
X2503190Y1942898D01*
X2496905Y1938698D01*
X2492706Y1932413D01*
X2491231Y1925000D01*
X2492706Y1917587D01*
X2496905Y1911302D01*
X2503190Y1907102D01*
X2510603Y1905628D01*
X2518017Y1907102D01*
X2524301Y1911302D01*
X2528501Y1917587D01*
X2529975Y1925000D01*
X2528501Y1932413D01*
X2524301Y1938698D01*
X2518017Y1942898D01*
X2510603Y1944372D01*
D02*
G37*
G36*
X2684000Y1865372D02*
X2676587Y1863898D01*
X2670302Y1859698D01*
X2666102Y1853413D01*
X2664628Y1846000D01*
X2666102Y1838587D01*
X2670302Y1832302D01*
X2676587Y1828102D01*
X2684000Y1826628D01*
X2691413Y1828102D01*
X2697698Y1832302D01*
X2701898Y1838587D01*
X2703372Y1846000D01*
X2701898Y1853413D01*
X2697698Y1859698D01*
X2691413Y1863898D01*
X2684000Y1865372D01*
D02*
G37*
G36*
X2447000Y1855372D02*
X2439587Y1853898D01*
X2433302Y1849698D01*
X2429102Y1843413D01*
X2427628Y1836000D01*
X2429102Y1828587D01*
X2433302Y1822302D01*
X2439587Y1818102D01*
X2447000Y1816628D01*
X2454413Y1818102D01*
X2460698Y1822302D01*
X2464898Y1828587D01*
X2466372Y1836000D01*
X2464898Y1843413D01*
X2460698Y1849698D01*
X2454413Y1853898D01*
X2447000Y1855372D01*
D02*
G37*
G36*
X2258136Y1775654D02*
X2248136Y1772747D01*
X2246413Y1773898D01*
X2239000Y1775372D01*
X2231587Y1773898D01*
X2225302Y1769698D01*
X2221102Y1763413D01*
X2219628Y1756000D01*
X2221102Y1748587D01*
X2225302Y1742302D01*
X2231587Y1738102D01*
X2239000Y1736628D01*
X2246413Y1738102D01*
X2248136Y1739253D01*
X2258136Y1736031D01*
Y1736032D01*
X2296508D01*
Y1615014D01*
X2296651Y1614294D01*
X2294898Y1600982D01*
X2289482Y1587906D01*
X2280866Y1576677D01*
X2269637Y1568061D01*
X2256561Y1562645D01*
X2253550Y1562248D01*
X2249942Y1564659D01*
X2242529Y1566134D01*
X2235115Y1564659D01*
X2228831Y1560460D01*
X2224631Y1554175D01*
X2223157Y1546761D01*
X2224631Y1539348D01*
X2228831Y1533063D01*
X2235115Y1528864D01*
X2242529Y1527389D01*
X2249942Y1528864D01*
X2256227Y1533063D01*
X2256691Y1533758D01*
X2258653Y1533951D01*
X2274158Y1538655D01*
X2288447Y1546293D01*
X2300972Y1556571D01*
X2311251Y1569096D01*
X2318888Y1583385D01*
X2323592Y1598890D01*
X2325180Y1615014D01*
X2325056D01*
Y1736032D01*
X2329412D01*
Y1775653D01*
X2258136D01*
X2258136Y1775654D01*
D02*
G37*
G36*
X2129915Y1808677D02*
X2122501Y1807202D01*
X2116216Y1803003D01*
X2112017Y1796718D01*
X2110542Y1789305D01*
X2112017Y1781891D01*
X2116216Y1775607D01*
X2122501Y1771407D01*
X2129915Y1769933D01*
X2137328Y1771407D01*
X2143613Y1775607D01*
X2147812Y1781891D01*
X2149287Y1789305D01*
X2147812Y1796718D01*
X2143613Y1803003D01*
X2137328Y1807202D01*
X2129915Y1808677D01*
D02*
G37*
G36*
X2685065Y1776678D02*
X2677651Y1775203D01*
X2671367Y1771004D01*
X2667167Y1764719D01*
X2665693Y1757306D01*
X2667167Y1749892D01*
X2671367Y1743608D01*
X2677651Y1739408D01*
X2685065Y1737934D01*
X2692478Y1739408D01*
X2698763Y1743608D01*
X2702962Y1749892D01*
X2704437Y1757306D01*
X2702962Y1764719D01*
X2698763Y1771004D01*
X2692478Y1775203D01*
X2685065Y1776678D01*
D02*
G37*
G36*
X2685971Y1688845D02*
X2678557Y1687371D01*
X2672272Y1683171D01*
X2668073Y1676887D01*
X2666598Y1669473D01*
X2668073Y1662060D01*
X2672272Y1655775D01*
X2678557Y1651575D01*
X2685971Y1650101D01*
X2693384Y1651575D01*
X2699669Y1655775D01*
X2703868Y1662060D01*
X2705343Y1669473D01*
X2703868Y1676887D01*
X2699669Y1683171D01*
X2693384Y1687371D01*
X2685971Y1688845D01*
D02*
G37*
G36*
X2756443Y1600995D02*
X2749030Y1599521D01*
X2742745Y1595321D01*
X2738546Y1589037D01*
X2737071Y1581623D01*
X2738546Y1574210D01*
X2742745Y1567925D01*
X2749030Y1563726D01*
X2756443Y1562251D01*
X2763857Y1563726D01*
X2770141Y1567925D01*
X2774341Y1574210D01*
X2775815Y1581623D01*
X2774341Y1589037D01*
X2770141Y1595321D01*
X2763857Y1599521D01*
X2756443Y1600995D01*
D02*
G37*
G36*
X2512000Y1560199D02*
X2504270Y1558661D01*
X2497717Y1554283D01*
X2493338Y1547730D01*
X2491801Y1540000D01*
X2493338Y1532270D01*
X2497717Y1525717D01*
X2504270Y1521339D01*
X2512000Y1519801D01*
X2519730Y1521339D01*
X2526283Y1525717D01*
X2530662Y1532270D01*
X2532199Y1540000D01*
X2530662Y1547730D01*
X2526283Y1554283D01*
X2519730Y1558661D01*
X2512000Y1560199D01*
D02*
G37*
G36*
X2190000Y1536372D02*
X2182587Y1534898D01*
X2176302Y1530698D01*
X2172102Y1524413D01*
X2170628Y1517000D01*
X2172102Y1509587D01*
X2176302Y1503302D01*
X2182587Y1499102D01*
X2190000Y1497628D01*
X2197413Y1499102D01*
X2203698Y1503302D01*
X2207898Y1509587D01*
X2209372Y1517000D01*
X2207898Y1524413D01*
X2203698Y1530698D01*
X2197413Y1534898D01*
X2190000Y1536372D01*
D02*
G37*
G36*
X2684000Y1501372D02*
X2676587Y1499898D01*
X2670302Y1495698D01*
X2666102Y1489413D01*
X2664628Y1482000D01*
X2666102Y1474587D01*
X2670302Y1468302D01*
X2676587Y1464102D01*
X2684000Y1462628D01*
X2691413Y1464102D01*
X2697698Y1468302D01*
X2701898Y1474587D01*
X2703372Y1482000D01*
X2701898Y1489413D01*
X2697698Y1495698D01*
X2691413Y1499898D01*
X2684000Y1501372D01*
D02*
G37*
%LPD*%
D11*
X2799911Y1678892D02*
G03*
X2854000Y1629000I54089J4374D01*
G01*
X2855174Y1832000D02*
G03*
X2813687Y1814815I0J-58672D01*
G01*
X2954556Y1850000D02*
G03*
X2928000Y1839000I0J-37556D01*
G01*
X2911101Y1832000D02*
G03*
X2928000Y1839000I0J23899D01*
G01*
X3091732Y1849000D02*
G03*
X3090732Y1850000I-1000J0D01*
G01*
X2854000Y1629000D02*
X3091732D01*
X2799735Y1678877D02*
X2799911Y1678892D01*
X2813687Y1814815D02*
X2813687D01*
X2811627Y1814815D02*
X2813687Y1814815D01*
X2855174Y1832000D02*
X2911101D01*
X2760000Y2060000D02*
X2762951D01*
X2771951Y2069000D01*
X3091732D01*
X2954556Y1850000D02*
X3090732D01*
X1969864Y1818942D02*
X1974942D01*
X1975000Y1819000D01*
D13*
X2242529Y1546761D02*
G03*
X2310782Y1615014I0J68253D01*
G01*
Y1755842D01*
D14*
X2239000Y1756000D02*
X2276766D01*
Y1755842D02*
Y1756000D01*
D23*
X3091732Y1919000D02*
D03*
Y1969000D02*
D03*
Y2019000D02*
D03*
Y2069000D02*
D03*
Y1699000D02*
D03*
Y1749000D02*
D03*
Y1799000D02*
D03*
Y1849000D02*
D03*
Y1479000D02*
D03*
Y1529000D02*
D03*
Y1579000D02*
D03*
Y1629000D02*
D03*
D24*
X3316142Y2069000D02*
D03*
Y2019000D02*
D03*
Y1969000D02*
D03*
Y1919000D02*
D03*
Y1849000D02*
D03*
Y1799000D02*
D03*
Y1749000D02*
D03*
Y1699000D02*
D03*
Y1629000D02*
D03*
Y1579000D02*
D03*
Y1529000D02*
D03*
Y1479000D02*
D03*
D25*
X3221653Y1994000D02*
D03*
Y1774000D02*
D03*
Y1554000D02*
D03*
D37*
X2602000Y1484992D02*
D03*
X2240000Y1646000D02*
D03*
X2216000D02*
D03*
X2301000Y2023000D02*
D03*
X2275000Y2023508D02*
D03*
X2847779Y1856483D02*
D03*
X2178000Y1383000D02*
D03*
X2206000D02*
D03*
X2236000Y1384000D02*
D03*
X2264000D02*
D03*
X2293000Y1383000D02*
D03*
X2349000D02*
D03*
X2400000Y1384000D02*
D03*
X2426000D02*
D03*
X2455000Y1383000D02*
D03*
X2486000D02*
D03*
X2513000D02*
D03*
X2571000D02*
D03*
X2655000Y1384000D02*
D03*
X2740000D02*
D03*
X2796000D02*
D03*
X2827000D02*
D03*
X2854000D02*
D03*
X2884000Y1383000D02*
D03*
X2910000D02*
D03*
X2940000Y1382000D02*
D03*
X2320779Y1382108D02*
D03*
X2374070Y1383249D02*
D03*
X2627501Y1383851D02*
D03*
X2597974Y1383236D02*
D03*
X2542611Y1382620D02*
D03*
X2766643Y1383443D02*
D03*
X2713267Y1383425D02*
D03*
X2683034Y1383840D02*
D03*
X2678034Y2131840D02*
D03*
X2708267Y2131425D02*
D03*
X2761643Y2131443D02*
D03*
X2537611Y2130620D02*
D03*
X2592974Y2131236D02*
D03*
X2622501Y2131851D02*
D03*
X2369070Y2131249D02*
D03*
X2315779Y2130108D02*
D03*
X2935000Y2130000D02*
D03*
X2905000Y2131000D02*
D03*
X2879000D02*
D03*
X2849000Y2132000D02*
D03*
X2822000D02*
D03*
X2791000D02*
D03*
X2735000D02*
D03*
X2650000D02*
D03*
X2566000Y2131000D02*
D03*
X2508000D02*
D03*
X2481000D02*
D03*
X2450000D02*
D03*
X2421000Y2132000D02*
D03*
X2395000D02*
D03*
X2344000Y2131000D02*
D03*
X2288000D02*
D03*
X2259000Y2132000D02*
D03*
X2231000D02*
D03*
X2201000Y2131000D02*
D03*
X2173000D02*
D03*
X2904312Y1461599D02*
D03*
X2877649Y1462160D02*
D03*
X2905995Y1489103D02*
D03*
X2878211Y1489664D02*
D03*
X2906276Y1515765D02*
D03*
X2878772Y1516326D02*
D03*
X2901555Y1688395D02*
D03*
X2874709D02*
D03*
X2901001Y1716347D02*
D03*
X2874986Y1714963D02*
D03*
X2903547Y1742786D02*
D03*
X2875636D02*
D03*
X2903180Y1769963D02*
D03*
X2875636Y1771432D02*
D03*
X2903547Y1798976D02*
D03*
X2876370Y1799343D02*
D03*
X2903011Y1883677D02*
D03*
X2875090Y1884771D02*
D03*
X2904379Y1910776D02*
D03*
X2876185Y1915155D02*
D03*
X2902190Y1940612D02*
D03*
X2875364Y1941981D02*
D03*
X2901010Y1996258D02*
D03*
X2874679Y1994713D02*
D03*
X2902282Y1586805D02*
D03*
X2875413D02*
D03*
X1993000Y1740000D02*
D03*
X1944000D02*
D03*
X1994000Y1819000D02*
D03*
X1946000D02*
D03*
X2438000Y1755000D02*
D03*
X2411000Y1754000D02*
D03*
X2438000Y1783000D02*
D03*
X2409000D02*
D03*
X2060000Y2018000D02*
D03*
X1982000Y2020000D02*
D03*
X2072000Y2092000D02*
D03*
X2088000Y2072000D02*
D03*
Y2048000D02*
D03*
Y2024000D02*
D03*
X2080000Y2002000D02*
D03*
X2058000Y1994000D02*
D03*
X2034000D02*
D03*
X2010000D02*
D03*
X1986000D02*
D03*
X1964000Y2002000D02*
D03*
X1956000Y2026000D02*
D03*
Y2050000D02*
D03*
Y2074000D02*
D03*
X1980000Y2102000D02*
D03*
X1956000Y2098000D02*
D03*
X2082000Y2116000D02*
D03*
X2060000Y2126000D02*
D03*
X2036000D02*
D03*
X2012000D02*
D03*
X1990000D02*
D03*
X1966000Y2120000D02*
D03*
X2076000Y1482000D02*
D03*
X2046000D02*
D03*
X2060000Y1460000D02*
D03*
X2064000Y1436000D02*
D03*
X2046000Y1400000D02*
D03*
X2076000Y1412000D02*
D03*
X2072000Y1388000D02*
D03*
X2050000Y1374000D02*
D03*
X2026000D02*
D03*
X2002000D02*
D03*
X1978000Y1378000D02*
D03*
X1954000Y1382000D02*
D03*
X1946000Y1406000D02*
D03*
Y1430000D02*
D03*
Y1456000D02*
D03*
X1948000Y1482000D02*
D03*
X2062000Y1504000D02*
D03*
X2036000Y1506000D02*
D03*
X2012000D02*
D03*
X1988000D02*
D03*
X1962000Y1502000D02*
D03*
X2908000Y2022000D02*
D03*
X2884000Y2020000D02*
D03*
X2858000Y2016000D02*
D03*
X2848000Y1990000D02*
D03*
Y1910000D02*
D03*
Y1886000D02*
D03*
Y1714000D02*
D03*
Y1688000D02*
D03*
Y1588000D02*
D03*
X2852000Y1516000D02*
D03*
Y1490000D02*
D03*
Y1464000D02*
D03*
X3440000Y1474000D02*
D03*
X3414000D02*
D03*
X3390000D02*
D03*
X3366000D02*
D03*
X3342000D02*
D03*
X3438000Y1500000D02*
D03*
X3414000D02*
D03*
X3390000D02*
D03*
X3366000D02*
D03*
X3342000D02*
D03*
X3438000Y1526000D02*
D03*
X3414000D02*
D03*
X3390000D02*
D03*
X3366000D02*
D03*
X3342000D02*
D03*
X3438000Y1550000D02*
D03*
X3414000Y1552000D02*
D03*
X3390000D02*
D03*
X3366000D02*
D03*
X3342000D02*
D03*
X3442000Y1602000D02*
D03*
X3418000D02*
D03*
X3394000D02*
D03*
X3438000Y1578000D02*
D03*
X3414000D02*
D03*
X3390000D02*
D03*
X3366000D02*
D03*
X3342000D02*
D03*
X3316000Y1504000D02*
D03*
Y1554000D02*
D03*
X3442000Y1698000D02*
D03*
X3416000D02*
D03*
X3392000D02*
D03*
X3368000D02*
D03*
X3342000D02*
D03*
X3442000Y1722000D02*
D03*
X3416000D02*
D03*
X3392000D02*
D03*
X3368000D02*
D03*
X3342000D02*
D03*
X3440000Y1746000D02*
D03*
X3416000D02*
D03*
X3390000D02*
D03*
X3366000D02*
D03*
X3342000D02*
D03*
X3440000Y1772000D02*
D03*
X3416000D02*
D03*
X3390000D02*
D03*
X3366000D02*
D03*
X3342000D02*
D03*
X3446000Y1822000D02*
D03*
X3422000D02*
D03*
X3398000D02*
D03*
X3438000Y1798000D02*
D03*
X3414000D02*
D03*
X3390000D02*
D03*
X3366000D02*
D03*
X3342000D02*
D03*
X3316000Y1724000D02*
D03*
Y1774000D02*
D03*
X3446000Y1918000D02*
D03*
X3420000D02*
D03*
X3394000D02*
D03*
X3370000D02*
D03*
X3344000D02*
D03*
X3446000Y1944000D02*
D03*
X3420000D02*
D03*
X3394000D02*
D03*
X3370000D02*
D03*
X3344000D02*
D03*
X3446000Y1970000D02*
D03*
X3420000D02*
D03*
X3394000D02*
D03*
X3370000D02*
D03*
X3344000D02*
D03*
X3446000Y1994000D02*
D03*
X3420000D02*
D03*
X3394000D02*
D03*
X3370000D02*
D03*
X3344000D02*
D03*
X3316000Y1944000D02*
D03*
Y1994000D02*
D03*
X3446000Y2018000D02*
D03*
X3420000D02*
D03*
X3448000Y2048000D02*
D03*
X3424000D02*
D03*
X3400000D02*
D03*
X3376000D02*
D03*
X3394000Y2018000D02*
D03*
X3370000D02*
D03*
X3344000D02*
D03*
X3316142Y1969000D02*
D03*
X2512000Y1540000D02*
D03*
X3316142Y1479000D02*
D03*
Y1529000D02*
D03*
Y1579000D02*
D03*
Y1699000D02*
D03*
Y1749000D02*
D03*
Y1799000D02*
D03*
Y1919000D02*
D03*
Y2019000D02*
D03*
X3230000Y1414000D02*
D03*
X3206000D02*
D03*
X3182000D02*
D03*
X3158000D02*
D03*
X3134000D02*
D03*
X3108000D02*
D03*
X3084000D02*
D03*
X3058000D02*
D03*
X3032000D02*
D03*
X3006000D02*
D03*
X2980000D02*
D03*
X3236000Y1438000D02*
D03*
X3208000D02*
D03*
X3182000D02*
D03*
X3156000D02*
D03*
X3130000D02*
D03*
X3104000D02*
D03*
X3078000D02*
D03*
X3052000D02*
D03*
X3026000D02*
D03*
X3000000D02*
D03*
X2974000D02*
D03*
Y2140000D02*
D03*
X3000000D02*
D03*
X3026000D02*
D03*
X3052000D02*
D03*
X3078000D02*
D03*
X3104000D02*
D03*
X3130000D02*
D03*
X3156000D02*
D03*
X3182000D02*
D03*
X3208000D02*
D03*
X3234000D02*
D03*
Y2114000D02*
D03*
X3208000D02*
D03*
X3182000D02*
D03*
X3156000D02*
D03*
X3130000D02*
D03*
X3104000D02*
D03*
X3078000D02*
D03*
X3052000D02*
D03*
X3026000D02*
D03*
X3000000D02*
D03*
X2974000D02*
D03*
D38*
X2299103Y1965734D02*
D03*
X2190000Y2070000D02*
D03*
X2499218Y2051218D02*
D03*
X2794441Y1710682D02*
D03*
X2799735Y1678877D02*
D03*
X2811627Y1814815D02*
D03*
X2756443Y1581623D02*
D03*
X2760000Y2060000D02*
D03*
X2129915Y1789305D02*
D03*
X1969864Y1818942D02*
D03*
X2447000Y1836000D02*
D03*
X1968000Y1741000D02*
D03*
X2190000Y1517000D02*
D03*
X2510603Y1925000D02*
D03*
X2242529Y1546761D02*
D03*
X2376000Y1950000D02*
D03*
X2156000Y1952000D02*
D03*
X2808000Y1974000D02*
D03*
X3363526Y1629549D02*
D03*
X3366000Y1850000D02*
D03*
X3308268Y2117732D02*
D03*
X2684000Y1482000D02*
D03*
X2239000Y1756000D02*
D03*
X2685971Y1669473D02*
D03*
X2685065Y1757306D02*
D03*
X2684000Y1846000D02*
D03*
D39*
X2022386Y2061758D02*
D03*
X2006000Y1442000D02*
D03*
D40*
X2276766Y1755842D02*
D03*
X2310782D02*
D03*
%TF.MD5,25d120560e242f884467d877b987145a*%
M02*
