%TF.GenerationSoftware,Altium Limited,Altium Designer,26.1.1 (7)*%
G04 Layer_Color=128*
%FSLAX45Y45*%
%MOMM*%
%TF.SameCoordinates,24EA0A1D-C4C2-4479-9BD9-1B96D5021C57*%
%TF.FilePolarity,Positive*%
%TF.FileFunction,Drillmap*%
%TF.Part,Single*%
G01*
G75*
%TA.AperFunction,NonConductor*%
%ADD37C,0.12700*%
D37*
X8078000Y7874000D02*
X8178000D01*
X8128000Y7824000D02*
Y7924000D01*
X8586000Y7874000D02*
X8686000D01*
X8636000Y7824000D02*
Y7924000D01*
X10110000Y8374000D02*
X10210000D01*
X10160000Y8324000D02*
Y8424000D01*
X9856000Y8374000D02*
X9956000D01*
X9906000Y8324000D02*
Y8424000D01*
X9602000Y8374000D02*
X9702000D01*
X9652000Y8324000D02*
Y8424000D01*
X10364000Y8374000D02*
X10464000D01*
X10414000Y8324000D02*
Y8424000D01*
X10618000Y8374000D02*
X10718000D01*
X10668000Y8324000D02*
Y8424000D01*
X10618000Y10414000D02*
X10718000D01*
X10668000Y10364000D02*
Y10464000D01*
X10364000Y10414000D02*
X10464000D01*
X10414000Y10364000D02*
Y10464000D01*
X10110000Y10414000D02*
X10210000D01*
X10160000Y10364000D02*
Y10464000D01*
X9856000Y10414000D02*
X9956000D01*
X9906000Y10364000D02*
Y10464000D01*
X7824000Y7874000D02*
X7924000D01*
X7874000Y7824000D02*
Y7924000D01*
X8285000Y8300000D02*
X8315000D01*
X8300000Y8285000D02*
Y8315000D01*
X8185000Y8300000D02*
X8215000D01*
X8200000Y8285000D02*
Y8315000D01*
X8085000Y8300000D02*
X8115000D01*
X8100000Y8285000D02*
Y8315000D01*
X7985000Y8300000D02*
X8015000D01*
X8000000Y8285000D02*
Y8315000D01*
X7885000Y8300000D02*
X7915000D01*
X7900000Y8285000D02*
Y8315000D01*
X8685000Y8300000D02*
X8715000D01*
X8700000Y8285000D02*
Y8315000D01*
X8585000Y8300000D02*
X8615000D01*
X8600000Y8285000D02*
Y8315000D01*
X8485000Y8300000D02*
X8515000D01*
X8500000Y8285000D02*
Y8315000D01*
X8385000Y8300000D02*
X8415000D01*
X8400000Y8285000D02*
Y8315000D01*
X7885000Y9500000D02*
X7915000D01*
X7900000Y9485000D02*
Y9515000D01*
X7685000Y9500000D02*
X7715000D01*
X7700000Y9485000D02*
Y9515000D01*
X7885000Y9700000D02*
X7915000D01*
X7900000Y9685000D02*
Y9715000D01*
X7685000Y9700000D02*
X7715000D01*
X7700000Y9685000D02*
Y9715000D01*
X8885000Y9100000D02*
X8915000D01*
X8900000Y9085000D02*
Y9115000D01*
X8785000Y9100000D02*
X8815000D01*
X8800000Y9085000D02*
Y9115000D01*
X8785000Y9200000D02*
X8815000D01*
X8800000Y9185000D02*
Y9215000D01*
X8885000Y9200000D02*
X8915000D01*
X8900000Y9185000D02*
Y9215000D01*
X8885000Y9300000D02*
X8915000D01*
X8900000Y9285000D02*
Y9315000D01*
X8785000Y9300000D02*
X8815000D01*
X8800000Y9285000D02*
Y9315000D01*
X9332181Y9123912D02*
X9362181D01*
X9347181Y9108912D02*
Y9138912D01*
X9330322Y9057017D02*
X9360322D01*
X9345322Y9042017D02*
Y9072017D01*
X9334039Y9200097D02*
X9364039D01*
X9349039Y9185097D02*
Y9215097D01*
X9685000Y9100000D02*
X9715000D01*
X9700000Y9085000D02*
Y9115000D01*
X9685000Y9000000D02*
X9715000D01*
X9700000Y8985000D02*
Y9015000D01*
X9585000Y9000000D02*
X9615000D01*
X9600000Y8985000D02*
Y9015000D01*
X10385000Y8700000D02*
X10415000D01*
X10400000Y8685000D02*
Y8715000D01*
X10285000Y8700000D02*
X10315000D01*
X10300000Y8685000D02*
Y8715000D01*
X10185000Y8700000D02*
X10215000D01*
X10200000Y8685000D02*
Y8715000D01*
X10085000Y8700000D02*
X10115000D01*
X10100000Y8685000D02*
Y8715000D01*
X9985000Y8700000D02*
X10015000D01*
X10000000Y8685000D02*
Y8715000D01*
X9885000Y8700000D02*
X9915000D01*
X9900000Y8685000D02*
Y8715000D01*
X9385000Y8600000D02*
X9415000D01*
X9400000Y8585000D02*
Y8615000D01*
X9385000Y8500000D02*
X9415000D01*
X9400000Y8485000D02*
Y8515000D01*
X9285000Y8500000D02*
X9315000D01*
X9300000Y8485000D02*
Y8515000D01*
X9285000Y8400000D02*
X9315000D01*
X9300000Y8385000D02*
Y8415000D01*
X9385000Y8400000D02*
X9415000D01*
X9400000Y8385000D02*
Y8415000D01*
X9385000Y8300000D02*
X9415000D01*
X9400000Y8285000D02*
Y8315000D01*
X9285000Y8300000D02*
X9315000D01*
X9300000Y8285000D02*
Y8315000D01*
X9185000Y8300000D02*
X9215000D01*
X9200000Y8285000D02*
Y8315000D01*
X9085000Y8300000D02*
X9115000D01*
X9100000Y8285000D02*
Y8315000D01*
X9024860Y9944100D02*
X9054860D01*
X9039860Y9929100D02*
Y9959100D01*
X9022320Y9870440D02*
X9052320D01*
X9037320Y9855440D02*
Y9885440D01*
X8951200Y9870440D02*
X8981200D01*
X8966200Y9855440D02*
Y9885440D01*
X9585898Y9086903D02*
X9615898D01*
X9600898Y9071903D02*
Y9101903D01*
X9032480Y8846820D02*
X9062480D01*
X9047480Y8831820D02*
Y8861820D01*
X10602200Y10060940D02*
X10632200D01*
X10617200Y10045940D02*
Y10075940D01*
X10599660Y9964420D02*
X10629660D01*
X10614660Y9949420D02*
Y9979420D01*
X10518380Y9969500D02*
X10548380D01*
X10533380Y9954500D02*
Y9984500D01*
X10518380Y10060940D02*
X10548380D01*
X10533380Y10045940D02*
Y10075940D01*
X10518380Y10149840D02*
X10548380D01*
X10533380Y10134840D02*
Y10164840D01*
X9941800Y9370060D02*
X9971800D01*
X9956800Y9355060D02*
Y9385060D01*
X9944340Y9288780D02*
X9974340D01*
X9959340Y9273780D02*
Y9303780D01*
X10023080Y9291320D02*
X10053080D01*
X10038080Y9276320D02*
Y9306320D01*
X10023080Y9370060D02*
X10053080D01*
X10038080Y9355060D02*
Y9385060D01*
X10020540Y9448800D02*
X10050540D01*
X10035540Y9433800D02*
Y9463800D01*
X9939260Y9448800D02*
X9969260D01*
X9954260Y9433800D02*
Y9463800D01*
X9850360Y9456420D02*
X9880360D01*
X9865360Y9441420D02*
Y9471420D01*
X9850360Y9550400D02*
X9880360D01*
X9865360Y9535400D02*
Y9565400D01*
X9850360Y9639300D02*
X9880360D01*
X9865360Y9624300D02*
Y9654300D01*
X10254220Y9999980D02*
X10284220D01*
X10269220Y9984980D02*
Y10014980D01*
X10320260Y10073640D02*
X10350260D01*
X10335260Y10058640D02*
Y10088640D01*
X10513300Y9368960D02*
X10543300D01*
X10528300Y9353960D02*
Y9383960D01*
X10272000Y9286240D02*
X10302000D01*
X10287000Y9271240D02*
Y9301240D01*
X10272000Y9400540D02*
X10302000D01*
X10287000Y9385540D02*
Y9415540D01*
X10272000Y9507220D02*
X10302000D01*
X10287000Y9492220D02*
Y9522220D01*
X10272000Y9616440D02*
X10302000D01*
X10287000Y9601440D02*
Y9631440D01*
X10269460Y9723120D02*
X10299460D01*
X10284460Y9708120D02*
Y9738120D01*
X9634572Y10005172D02*
X9664572D01*
X9649572Y9990172D02*
Y10020172D01*
X9504920Y10160000D02*
X9534920D01*
X9519920Y10145000D02*
Y10175000D01*
X9314580Y8945880D02*
X9364580D01*
X9339580Y8920880D02*
Y8970880D01*
X10195800Y8915400D02*
X10225800D01*
X10210800Y8900400D02*
Y8930400D01*
X9870680Y10106660D02*
X9900680D01*
X9885680Y10091660D02*
Y10121660D01*
X9408400Y10010140D02*
X9438400D01*
X9423400Y9995140D02*
Y10025140D01*
X10068800Y8902700D02*
X10098800D01*
X10083800Y8887700D02*
Y8917700D01*
X10119600Y10232960D02*
X10149600D01*
X10134600Y10217960D02*
Y10247960D01*
X10315340Y10165080D02*
X10365340D01*
X10340340Y10140080D02*
Y10190080D01*
X9606520Y9667240D02*
X9636520D01*
X9621520Y9652240D02*
Y9682240D01*
X9812260Y10005060D02*
X9842260D01*
X9827260Y9990060D02*
Y10020060D01*
X9878300Y9055100D02*
X9908300D01*
X9893300Y9040100D02*
Y9070100D01*
X9339820Y9832340D02*
X9369820D01*
X9354820Y9817340D02*
Y9847340D01*
X10602200Y9126220D02*
X10632200D01*
X10617200Y9111220D02*
Y9141220D01*
X10764760Y8978900D02*
X10794760D01*
X10779760Y8963900D02*
Y8993900D01*
X10673320Y8829040D02*
X10703320D01*
X10688320Y8814040D02*
Y8844040D01*
X10424400Y9085580D02*
X10454400D01*
X10439400Y9070580D02*
Y9100580D01*
X9582903Y9506463D02*
X9612903D01*
X9597903Y9491463D02*
Y9521463D01*
X9639540Y8638540D02*
X9669540D01*
X9654540Y8623540D02*
Y8653540D01*
X10589500Y8585200D02*
X10619500D01*
X10604500Y8570200D02*
Y8600200D01*
X10560489Y9635640D02*
X10590489D01*
X10575489Y9620640D02*
Y9650640D01*
X10601391Y9398000D02*
X10631391D01*
X10616391Y9383000D02*
Y9413000D01*
X10526000Y9804400D02*
X10556000D01*
X10541000Y9789400D02*
Y9819400D01*
X9027400Y10071100D02*
X9057400D01*
X9042400Y10056100D02*
Y10086100D01*
X9891000Y8572500D02*
X9921000D01*
X9906000Y8557500D02*
Y8587500D01*
X10513300Y8813800D02*
X10543300D01*
X10528300Y8798800D02*
Y8828800D01*
%TF.MD5,ab61296957d1295d9af74a152455cb7f*%
M02*
