%TF.GenerationSoftware,Altium Limited,Altium Designer,26.1.1 (7)*%
G04 Layer_Color=255*
%FSLAX45Y45*%
%MOMM*%
%TF.SameCoordinates,24EA0A1D-C4C2-4479-9BD9-1B96D5021C57*%
%TF.FilePolarity,Positive*%
%TF.FileFunction,Pads,Top*%
%TF.Part,Single*%
G01*
G75*
%TA.AperFunction,SMDPad,CuDef*%
%ADD12R,5.25780X5.25780*%
%ADD13R,0.25480X0.80800*%
%ADD14R,0.80800X0.25480*%
%ADD15R,0.93000X0.50800*%
%ADD16R,0.60000X0.43180*%
%ADD17R,0.60000X0.54000*%
%ADD18R,0.50000X1.05000*%
%ADD19R,0.50800X0.93000*%
%ADD20R,1.37000X1.91000*%
%ADD21R,1.90000X4.40000*%
%ADD22R,0.74248X1.55748*%
G04:AMPARAMS|DCode=23|XSize=1.55748mm|YSize=0.74248mm|CornerRadius=0.37124mm|HoleSize=0mm|Usage=FLASHONLY|Rotation=270.000|XOffset=0mm|YOffset=0mm|HoleType=Round|Shape=RoundedRectangle|*
%AMROUNDEDRECTD23*
21,1,1.55748,0.00000,0,0,270.0*
21,1,0.81501,0.74248,0,0,270.0*
1,1,0.74247,0.00000,-0.40750*
1,1,0.74247,0.00000,0.40750*
1,1,0.74247,0.00000,0.40750*
1,1,0.74247,0.00000,-0.40750*
%
%ADD23ROUNDEDRECTD23*%
%TA.AperFunction,ConnectorPad*%
%ADD24R,0.60000X0.43180*%
%TA.AperFunction,SMDPad,CuDef*%
%ADD25R,2.69240X0.99060*%
%TA.AperFunction,ComponentPad*%
%ADD31C,1.70000*%
D12*
X10069100Y9504440D02*
D03*
D13*
X9794100Y9852180D02*
D03*
X9844100D02*
D03*
X9894100D02*
D03*
X9944100D02*
D03*
X9994100D02*
D03*
X10044100D02*
D03*
X10094100D02*
D03*
X10144100D02*
D03*
X10194100D02*
D03*
X10244100D02*
D03*
X10294100D02*
D03*
X10344100D02*
D03*
Y9156700D02*
D03*
X10294100D02*
D03*
X10244100D02*
D03*
X10194100D02*
D03*
X10144100D02*
D03*
X10094100D02*
D03*
X10044100D02*
D03*
X9994100D02*
D03*
X9944100D02*
D03*
X9894100D02*
D03*
X9844100D02*
D03*
X9794100D02*
D03*
D14*
X10416840Y9779440D02*
D03*
Y9729440D02*
D03*
Y9679440D02*
D03*
Y9629440D02*
D03*
Y9579440D02*
D03*
Y9529440D02*
D03*
Y9479440D02*
D03*
Y9429440D02*
D03*
Y9379440D02*
D03*
Y9329440D02*
D03*
Y9279440D02*
D03*
Y9229440D02*
D03*
X9721360D02*
D03*
Y9279440D02*
D03*
Y9329440D02*
D03*
Y9379440D02*
D03*
Y9429440D02*
D03*
Y9479440D02*
D03*
Y9529440D02*
D03*
Y9579440D02*
D03*
Y9629440D02*
D03*
Y9679440D02*
D03*
Y9729440D02*
D03*
Y9779440D02*
D03*
D15*
X9410700Y9575000D02*
D03*
Y9729000D02*
D03*
D16*
X9525000Y9570700D02*
D03*
X9735820Y10165100D02*
D03*
X9525000Y9657100D02*
D03*
X9268460Y9621540D02*
D03*
X9146540D02*
D03*
X9601200Y9151600D02*
D03*
X10680700Y9542800D02*
D03*
X9146540Y9535140D02*
D03*
X9268460D02*
D03*
X10680700Y9456400D02*
D03*
X9735820Y10078700D02*
D03*
X10680700Y9659600D02*
D03*
Y9746000D02*
D03*
X9601200Y9238000D02*
D03*
D17*
X10414000Y8984000D02*
D03*
X10299700D02*
D03*
X10528300D02*
D03*
X9804400D02*
D03*
X10426700Y10078700D02*
D03*
X10020300Y10165100D02*
D03*
X10299700Y8897600D02*
D03*
X9359900Y10078700D02*
D03*
X10426700Y10165100D02*
D03*
X10134600D02*
D03*
X10414000Y8897600D02*
D03*
X9268460Y9735800D02*
D03*
X9245600Y10078700D02*
D03*
Y10165100D02*
D03*
X9359900D02*
D03*
X9131300D02*
D03*
X9146540Y9822200D02*
D03*
X9268460D02*
D03*
X9146540Y9735800D02*
D03*
X9131300Y10078700D02*
D03*
X10528300Y8897600D02*
D03*
X10134600Y10078700D02*
D03*
X10020300D02*
D03*
X10248900D02*
D03*
Y10165100D02*
D03*
X9804400Y8897600D02*
D03*
X9608820Y10165100D02*
D03*
Y10078700D02*
D03*
D18*
X9436100Y9114400D02*
D03*
Y9351400D02*
D03*
D19*
X9041600Y8940800D02*
D03*
X9195600D02*
D03*
D20*
X8831300Y9575800D02*
D03*
X7922400D02*
D03*
X8547100D02*
D03*
X8206600D02*
D03*
D21*
X8382000Y8315300D02*
D03*
Y9185300D02*
D03*
D22*
X7670800Y9301337D02*
D03*
D23*
Y8961263D02*
D03*
D24*
X10680700Y9253200D02*
D03*
Y9339600D02*
D03*
D25*
X9144000Y9123680D02*
D03*
Y9342120D02*
D03*
D31*
X8128000Y7874000D02*
D03*
X8636000D02*
D03*
X10160000Y8374000D02*
D03*
X9906000D02*
D03*
X9652000D02*
D03*
X10414000D02*
D03*
X10668000D02*
D03*
Y10414000D02*
D03*
X10414000D02*
D03*
X10160000D02*
D03*
X9906000D02*
D03*
X7874000Y7874000D02*
D03*
%TF.MD5,3d14c8f2dd4b0b13491c972888c58f48*%
M02*
