%TF.GenerationSoftware,Altium Limited,Altium Designer,20.2.3 (150)*%
G04 Layer_Color=2752767*
%FSLAX26Y26*%
%MOIN*%
%TF.SameCoordinates,27716F98-0B22-40FE-96F5-AA6DB086EB47*%
%TF.FilePolarity,Positive*%
%TF.FileFunction,Drawing*%
%TF.Part,Single*%
G01*
G75*
%TA.AperFunction,NonConductor*%
%ADD42C,0.005000*%
%ADD75C,0.006667*%
D42*
X2582000Y1464992D02*
Y1504992D01*
X2622000D01*
Y1464992D01*
X2582000D01*
X2220000Y1626000D02*
Y1666000D01*
X2260000D01*
Y1626000D01*
X2220000D01*
X2196000D02*
Y1666000D01*
X2236000D01*
Y1626000D01*
X2196000D01*
X2281000Y2003000D02*
Y2043000D01*
X2321000D01*
Y2003000D01*
X2281000D01*
X2255000Y2003508D02*
Y2043508D01*
X2295000D01*
Y2003508D01*
X2255000D01*
X2827779Y1836483D02*
Y1876483D01*
X2867779D01*
Y1836483D01*
X2827779D01*
X2158000Y1363000D02*
Y1403000D01*
X2198000D01*
Y1363000D01*
X2158000D01*
X2186000D02*
Y1403000D01*
X2226000D01*
Y1363000D01*
X2186000D01*
X2216000Y1364000D02*
Y1404000D01*
X2256000D01*
Y1364000D01*
X2216000D01*
X2244000D02*
Y1404000D01*
X2284000D01*
Y1364000D01*
X2244000D01*
X2273000Y1363000D02*
Y1403000D01*
X2313000D01*
Y1363000D01*
X2273000D01*
X2329000D02*
Y1403000D01*
X2369000D01*
Y1363000D01*
X2329000D01*
X2380000Y1364000D02*
Y1404000D01*
X2420000D01*
Y1364000D01*
X2380000D01*
X2406000D02*
Y1404000D01*
X2446000D01*
Y1364000D01*
X2406000D01*
X2435000Y1363000D02*
Y1403000D01*
X2475000D01*
Y1363000D01*
X2435000D01*
X2466000D02*
Y1403000D01*
X2506000D01*
Y1363000D01*
X2466000D01*
X2493000D02*
Y1403000D01*
X2533000D01*
Y1363000D01*
X2493000D01*
X2551000D02*
Y1403000D01*
X2591000D01*
Y1363000D01*
X2551000D01*
X2635000Y1364000D02*
Y1404000D01*
X2675000D01*
Y1364000D01*
X2635000D01*
X2720000D02*
Y1404000D01*
X2760000D01*
Y1364000D01*
X2720000D01*
X2776000D02*
Y1404000D01*
X2816000D01*
Y1364000D01*
X2776000D01*
X2807000D02*
Y1404000D01*
X2847000D01*
Y1364000D01*
X2807000D01*
X2834000D02*
Y1404000D01*
X2874000D01*
Y1364000D01*
X2834000D01*
X2864000Y1363000D02*
Y1403000D01*
X2904000D01*
Y1363000D01*
X2864000D01*
X2890000D02*
Y1403000D01*
X2930000D01*
Y1363000D01*
X2890000D01*
X2920000Y1362000D02*
Y1402000D01*
X2960000D01*
Y1362000D01*
X2920000D01*
X2300779Y1362108D02*
Y1402108D01*
X2340779D01*
Y1362108D01*
X2300779D01*
X2354070Y1363249D02*
Y1403249D01*
X2394070D01*
Y1363249D01*
X2354070D01*
X2607501Y1363851D02*
Y1403851D01*
X2647501D01*
Y1363851D01*
X2607501D01*
X2577974Y1363236D02*
Y1403236D01*
X2617974D01*
Y1363236D01*
X2577974D01*
X2522611Y1362620D02*
Y1402620D01*
X2562611D01*
Y1362620D01*
X2522611D01*
X2746643Y1363443D02*
Y1403443D01*
X2786643D01*
Y1363443D01*
X2746643D01*
X2693267Y1363425D02*
Y1403425D01*
X2733267D01*
Y1363425D01*
X2693267D01*
X2663034Y1363840D02*
Y1403840D01*
X2703034D01*
Y1363840D01*
X2663034D01*
X2658034Y2111840D02*
Y2151840D01*
X2698034D01*
Y2111840D01*
X2658034D01*
X2688267Y2111425D02*
Y2151425D01*
X2728267D01*
Y2111425D01*
X2688267D01*
X2741643Y2111443D02*
Y2151443D01*
X2781643D01*
Y2111443D01*
X2741643D01*
X2517611Y2110620D02*
Y2150620D01*
X2557611D01*
Y2110620D01*
X2517611D01*
X2572974Y2111236D02*
Y2151236D01*
X2612974D01*
Y2111236D01*
X2572974D01*
X2602501Y2111851D02*
Y2151851D01*
X2642501D01*
Y2111851D01*
X2602501D01*
X2349070Y2111249D02*
Y2151249D01*
X2389070D01*
Y2111249D01*
X2349070D01*
X2295779Y2110108D02*
Y2150108D01*
X2335779D01*
Y2110108D01*
X2295779D01*
X2915000Y2110000D02*
Y2150000D01*
X2955000D01*
Y2110000D01*
X2915000D01*
X2885000Y2111000D02*
Y2151000D01*
X2925000D01*
Y2111000D01*
X2885000D01*
X2859000D02*
Y2151000D01*
X2899000D01*
Y2111000D01*
X2859000D01*
X2829000Y2112000D02*
Y2152000D01*
X2869000D01*
Y2112000D01*
X2829000D01*
X2802000D02*
Y2152000D01*
X2842000D01*
Y2112000D01*
X2802000D01*
X2771000D02*
Y2152000D01*
X2811000D01*
Y2112000D01*
X2771000D01*
X2715000D02*
Y2152000D01*
X2755000D01*
Y2112000D01*
X2715000D01*
X2630000D02*
Y2152000D01*
X2670000D01*
Y2112000D01*
X2630000D01*
X2546000Y2111000D02*
Y2151000D01*
X2586000D01*
Y2111000D01*
X2546000D01*
X2488000D02*
Y2151000D01*
X2528000D01*
Y2111000D01*
X2488000D01*
X2461000D02*
Y2151000D01*
X2501000D01*
Y2111000D01*
X2461000D01*
X2430000D02*
Y2151000D01*
X2470000D01*
Y2111000D01*
X2430000D01*
X2401000Y2112000D02*
Y2152000D01*
X2441000D01*
Y2112000D01*
X2401000D01*
X2375000D02*
Y2152000D01*
X2415000D01*
Y2112000D01*
X2375000D01*
X2324000Y2111000D02*
Y2151000D01*
X2364000D01*
Y2111000D01*
X2324000D01*
X2268000D02*
Y2151000D01*
X2308000D01*
Y2111000D01*
X2268000D01*
X2239000Y2112000D02*
Y2152000D01*
X2279000D01*
Y2112000D01*
X2239000D01*
X2211000D02*
Y2152000D01*
X2251000D01*
Y2112000D01*
X2211000D01*
X2181000Y2111000D02*
Y2151000D01*
X2221000D01*
Y2111000D01*
X2181000D01*
X2153000D02*
Y2151000D01*
X2193000D01*
Y2111000D01*
X2153000D01*
X2884312Y1441599D02*
Y1481599D01*
X2924312D01*
Y1441599D01*
X2884312D01*
X2857649Y1442160D02*
Y1482160D01*
X2897649D01*
Y1442160D01*
X2857649D01*
X2885995Y1469103D02*
Y1509103D01*
X2925995D01*
Y1469103D01*
X2885995D01*
X2858211Y1469664D02*
Y1509664D01*
X2898211D01*
Y1469664D01*
X2858211D01*
X2886276Y1495765D02*
Y1535765D01*
X2926276D01*
Y1495765D01*
X2886276D01*
X2858772Y1496326D02*
Y1536326D01*
X2898772D01*
Y1496326D01*
X2858772D01*
X2881555Y1668395D02*
Y1708395D01*
X2921555D01*
Y1668395D01*
X2881555D01*
X2854709D02*
Y1708395D01*
X2894709D01*
Y1668395D01*
X2854709D01*
X2881001Y1696347D02*
Y1736347D01*
X2921001D01*
Y1696347D01*
X2881001D01*
X2854986Y1694963D02*
Y1734963D01*
X2894986D01*
Y1694963D01*
X2854986D01*
X2883547Y1722786D02*
Y1762786D01*
X2923547D01*
Y1722786D01*
X2883547D01*
X2855636D02*
Y1762786D01*
X2895636D01*
Y1722786D01*
X2855636D01*
X2883180Y1749963D02*
Y1789963D01*
X2923180D01*
Y1749963D01*
X2883180D01*
X2855636Y1751432D02*
Y1791432D01*
X2895636D01*
Y1751432D01*
X2855636D01*
X2883547Y1778976D02*
Y1818976D01*
X2923547D01*
Y1778976D01*
X2883547D01*
X2856370Y1779343D02*
Y1819343D01*
X2896370D01*
Y1779343D01*
X2856370D01*
X2883011Y1863677D02*
Y1903677D01*
X2923011D01*
Y1863677D01*
X2883011D01*
X2855090Y1864771D02*
Y1904771D01*
X2895090D01*
Y1864771D01*
X2855090D01*
X2884379Y1890776D02*
Y1930776D01*
X2924379D01*
Y1890776D01*
X2884379D01*
X2856185Y1895155D02*
Y1935155D01*
X2896185D01*
Y1895155D01*
X2856185D01*
X2882190Y1920612D02*
Y1960612D01*
X2922190D01*
Y1920612D01*
X2882190D01*
X2855364Y1921981D02*
Y1961981D01*
X2895364D01*
Y1921981D01*
X2855364D01*
X2881010Y1976258D02*
Y2016258D01*
X2921010D01*
Y1976258D01*
X2881010D01*
X2854679Y1974713D02*
Y2014713D01*
X2894679D01*
Y1974713D01*
X2854679D01*
X2882282Y1566805D02*
Y1606805D01*
X2922282D01*
Y1566805D01*
X2882282D01*
X2855413D02*
Y1606805D01*
X2895413D01*
Y1566805D01*
X2855413D01*
X1973000Y1720000D02*
Y1760000D01*
X2013000D01*
Y1720000D01*
X1973000D01*
X1924000D02*
Y1760000D01*
X1964000D01*
Y1720000D01*
X1924000D01*
X1974000Y1799000D02*
Y1839000D01*
X2014000D01*
Y1799000D01*
X1974000D01*
X1926000D02*
Y1839000D01*
X1966000D01*
Y1799000D01*
X1926000D01*
X2418000Y1735000D02*
Y1775000D01*
X2458000D01*
Y1735000D01*
X2418000D01*
X2391000Y1734000D02*
Y1774000D01*
X2431000D01*
Y1734000D01*
X2391000D01*
X2418000Y1763000D02*
Y1803000D01*
X2458000D01*
Y1763000D01*
X2418000D01*
X2389000D02*
Y1803000D01*
X2429000D01*
Y1763000D01*
X2389000D01*
X2022386Y2041758D02*
X2002386Y2081758D01*
X2042386D01*
X2022386Y2041758D01*
X2040000Y1998000D02*
Y2038000D01*
X2080000D01*
Y1998000D01*
X2040000D01*
X1962000Y2000000D02*
Y2040000D01*
X2002000D01*
Y2000000D01*
X1962000D01*
X2052000Y2072000D02*
Y2112000D01*
X2092000D01*
Y2072000D01*
X2052000D01*
X2068000Y2052000D02*
Y2092000D01*
X2108000D01*
Y2052000D01*
X2068000D01*
Y2028000D02*
Y2068000D01*
X2108000D01*
Y2028000D01*
X2068000D01*
Y2004000D02*
Y2044000D01*
X2108000D01*
Y2004000D01*
X2068000D01*
X2060000Y1982000D02*
Y2022000D01*
X2100000D01*
Y1982000D01*
X2060000D01*
X2038000Y1974000D02*
Y2014000D01*
X2078000D01*
Y1974000D01*
X2038000D01*
X2014000D02*
Y2014000D01*
X2054000D01*
Y1974000D01*
X2014000D01*
X1990000D02*
Y2014000D01*
X2030000D01*
Y1974000D01*
X1990000D01*
X1966000D02*
Y2014000D01*
X2006000D01*
Y1974000D01*
X1966000D01*
X1944000Y1982000D02*
Y2022000D01*
X1984000D01*
Y1982000D01*
X1944000D01*
X1936000Y2006000D02*
Y2046000D01*
X1976000D01*
Y2006000D01*
X1936000D01*
Y2030000D02*
Y2070000D01*
X1976000D01*
Y2030000D01*
X1936000D01*
Y2054000D02*
Y2094000D01*
X1976000D01*
Y2054000D01*
X1936000D01*
X1960000Y2082000D02*
Y2122000D01*
X2000000D01*
Y2082000D01*
X1960000D01*
X1936000Y2078000D02*
Y2118000D01*
X1976000D01*
Y2078000D01*
X1936000D01*
X2062000Y2096000D02*
Y2136000D01*
X2102000D01*
Y2096000D01*
X2062000D01*
X2040000Y2106000D02*
Y2146000D01*
X2080000D01*
Y2106000D01*
X2040000D01*
X2016000D02*
Y2146000D01*
X2056000D01*
Y2106000D01*
X2016000D01*
X1992000D02*
Y2146000D01*
X2032000D01*
Y2106000D01*
X1992000D01*
X1970000D02*
Y2146000D01*
X2010000D01*
Y2106000D01*
X1970000D01*
X1946000Y2100000D02*
Y2140000D01*
X1986000D01*
Y2100000D01*
X1946000D01*
X2056000Y1462000D02*
Y1502000D01*
X2096000D01*
Y1462000D01*
X2056000D01*
X2026000D02*
Y1502000D01*
X2066000D01*
Y1462000D01*
X2026000D01*
X2040000Y1440000D02*
Y1480000D01*
X2080000D01*
Y1440000D01*
X2040000D01*
X2044000Y1416000D02*
Y1456000D01*
X2084000D01*
Y1416000D01*
X2044000D01*
X2026000Y1380000D02*
Y1420000D01*
X2066000D01*
Y1380000D01*
X2026000D01*
X2056000Y1392000D02*
Y1432000D01*
X2096000D01*
Y1392000D01*
X2056000D01*
X2052000Y1368000D02*
Y1408000D01*
X2092000D01*
Y1368000D01*
X2052000D01*
X2030000Y1354000D02*
Y1394000D01*
X2070000D01*
Y1354000D01*
X2030000D01*
X2006000D02*
Y1394000D01*
X2046000D01*
Y1354000D01*
X2006000D01*
X1982000D02*
Y1394000D01*
X2022000D01*
Y1354000D01*
X1982000D01*
X1958000Y1358000D02*
Y1398000D01*
X1998000D01*
Y1358000D01*
X1958000D01*
X1934000Y1362000D02*
Y1402000D01*
X1974000D01*
Y1362000D01*
X1934000D01*
X1926000Y1386000D02*
Y1426000D01*
X1966000D01*
Y1386000D01*
X1926000D01*
Y1410000D02*
Y1450000D01*
X1966000D01*
Y1410000D01*
X1926000D01*
Y1436000D02*
Y1476000D01*
X1966000D01*
Y1436000D01*
X1926000D01*
X1928000Y1462000D02*
Y1502000D01*
X1968000D01*
Y1462000D01*
X1928000D01*
X2042000Y1484000D02*
Y1524000D01*
X2082000D01*
Y1484000D01*
X2042000D01*
X2016000Y1486000D02*
Y1526000D01*
X2056000D01*
Y1486000D01*
X2016000D01*
X1992000D02*
Y1526000D01*
X2032000D01*
Y1486000D01*
X1992000D01*
X1968000D02*
Y1526000D01*
X2008000D01*
Y1486000D01*
X1968000D01*
X2006000Y1422000D02*
X1986000Y1462000D01*
X2026000D01*
X2006000Y1422000D01*
X1942000Y1482000D02*
Y1522000D01*
X1982000D01*
Y1482000D01*
X1942000D01*
X2888000Y2002000D02*
Y2042000D01*
X2928000D01*
Y2002000D01*
X2888000D01*
X2864000Y2000000D02*
Y2040000D01*
X2904000D01*
Y2000000D01*
X2864000D01*
X2838000Y1996000D02*
Y2036000D01*
X2878000D01*
Y1996000D01*
X2838000D01*
X2828000Y1970000D02*
Y2010000D01*
X2868000D01*
Y1970000D01*
X2828000D01*
Y1890000D02*
Y1930000D01*
X2868000D01*
Y1890000D01*
X2828000D01*
Y1866000D02*
Y1906000D01*
X2868000D01*
Y1866000D01*
X2828000D01*
Y1694000D02*
Y1734000D01*
X2868000D01*
Y1694000D01*
X2828000D01*
Y1668000D02*
Y1708000D01*
X2868000D01*
Y1668000D01*
X2828000D01*
Y1568000D02*
Y1608000D01*
X2868000D01*
Y1568000D01*
X2828000D01*
X2832000Y1496000D02*
Y1536000D01*
X2872000D01*
Y1496000D01*
X2832000D01*
Y1470000D02*
Y1510000D01*
X2872000D01*
Y1470000D01*
X2832000D01*
Y1444000D02*
Y1484000D01*
X2872000D01*
Y1444000D01*
X2832000D01*
X3420000Y1454000D02*
Y1494000D01*
X3460000D01*
Y1454000D01*
X3420000D01*
X3394000D02*
Y1494000D01*
X3434000D01*
Y1454000D01*
X3394000D01*
X3370000D02*
Y1494000D01*
X3410000D01*
Y1454000D01*
X3370000D01*
X3346000D02*
Y1494000D01*
X3386000D01*
Y1454000D01*
X3346000D01*
X3322000D02*
Y1494000D01*
X3362000D01*
Y1454000D01*
X3322000D01*
X3418000Y1480000D02*
Y1520000D01*
X3458000D01*
Y1480000D01*
X3418000D01*
X3394000D02*
Y1520000D01*
X3434000D01*
Y1480000D01*
X3394000D01*
X3370000D02*
Y1520000D01*
X3410000D01*
Y1480000D01*
X3370000D01*
X3346000D02*
Y1520000D01*
X3386000D01*
Y1480000D01*
X3346000D01*
X3322000D02*
Y1520000D01*
X3362000D01*
Y1480000D01*
X3322000D01*
X3418000Y1506000D02*
Y1546000D01*
X3458000D01*
Y1506000D01*
X3418000D01*
X3394000D02*
Y1546000D01*
X3434000D01*
Y1506000D01*
X3394000D01*
X3370000D02*
Y1546000D01*
X3410000D01*
Y1506000D01*
X3370000D01*
X3346000D02*
Y1546000D01*
X3386000D01*
Y1506000D01*
X3346000D01*
X3322000D02*
Y1546000D01*
X3362000D01*
Y1506000D01*
X3322000D01*
X3418000Y1530000D02*
Y1570000D01*
X3458000D01*
Y1530000D01*
X3418000D01*
X3394000Y1532000D02*
Y1572000D01*
X3434000D01*
Y1532000D01*
X3394000D01*
X3370000D02*
Y1572000D01*
X3410000D01*
Y1532000D01*
X3370000D01*
X3346000D02*
Y1572000D01*
X3386000D01*
Y1532000D01*
X3346000D01*
X3322000D02*
Y1572000D01*
X3362000D01*
Y1532000D01*
X3322000D01*
X3422000Y1582000D02*
Y1622000D01*
X3462000D01*
Y1582000D01*
X3422000D01*
X3398000D02*
Y1622000D01*
X3438000D01*
Y1582000D01*
X3398000D01*
X3374000D02*
Y1622000D01*
X3414000D01*
Y1582000D01*
X3374000D01*
X3418000Y1558000D02*
Y1598000D01*
X3458000D01*
Y1558000D01*
X3418000D01*
X3394000D02*
Y1598000D01*
X3434000D01*
Y1558000D01*
X3394000D01*
X3370000D02*
Y1598000D01*
X3410000D01*
Y1558000D01*
X3370000D01*
X3346000D02*
Y1598000D01*
X3386000D01*
Y1558000D01*
X3346000D01*
X3322000D02*
Y1598000D01*
X3362000D01*
Y1558000D01*
X3322000D01*
X3296000Y1484000D02*
Y1524000D01*
X3336000D01*
Y1484000D01*
X3296000D01*
Y1534000D02*
Y1574000D01*
X3336000D01*
Y1534000D01*
X3296000D01*
X3422000Y1678000D02*
Y1718000D01*
X3462000D01*
Y1678000D01*
X3422000D01*
X3396000D02*
Y1718000D01*
X3436000D01*
Y1678000D01*
X3396000D01*
X3372000D02*
Y1718000D01*
X3412000D01*
Y1678000D01*
X3372000D01*
X3348000D02*
Y1718000D01*
X3388000D01*
Y1678000D01*
X3348000D01*
X3322000D02*
Y1718000D01*
X3362000D01*
Y1678000D01*
X3322000D01*
X3422000Y1702000D02*
Y1742000D01*
X3462000D01*
Y1702000D01*
X3422000D01*
X3396000D02*
Y1742000D01*
X3436000D01*
Y1702000D01*
X3396000D01*
X3372000D02*
Y1742000D01*
X3412000D01*
Y1702000D01*
X3372000D01*
X3348000D02*
Y1742000D01*
X3388000D01*
Y1702000D01*
X3348000D01*
X3322000D02*
Y1742000D01*
X3362000D01*
Y1702000D01*
X3322000D01*
X3420000Y1726000D02*
Y1766000D01*
X3460000D01*
Y1726000D01*
X3420000D01*
X3396000D02*
Y1766000D01*
X3436000D01*
Y1726000D01*
X3396000D01*
X3370000D02*
Y1766000D01*
X3410000D01*
Y1726000D01*
X3370000D01*
X3346000D02*
Y1766000D01*
X3386000D01*
Y1726000D01*
X3346000D01*
X3322000D02*
Y1766000D01*
X3362000D01*
Y1726000D01*
X3322000D01*
X3420000Y1752000D02*
Y1792000D01*
X3460000D01*
Y1752000D01*
X3420000D01*
X3396000D02*
Y1792000D01*
X3436000D01*
Y1752000D01*
X3396000D01*
X3370000D02*
Y1792000D01*
X3410000D01*
Y1752000D01*
X3370000D01*
X3346000D02*
Y1792000D01*
X3386000D01*
Y1752000D01*
X3346000D01*
X3322000D02*
Y1792000D01*
X3362000D01*
Y1752000D01*
X3322000D01*
X3426000Y1802000D02*
Y1842000D01*
X3466000D01*
Y1802000D01*
X3426000D01*
X3402000D02*
Y1842000D01*
X3442000D01*
Y1802000D01*
X3402000D01*
X3378000D02*
Y1842000D01*
X3418000D01*
Y1802000D01*
X3378000D01*
X3418000Y1778000D02*
Y1818000D01*
X3458000D01*
Y1778000D01*
X3418000D01*
X3394000D02*
Y1818000D01*
X3434000D01*
Y1778000D01*
X3394000D01*
X3370000D02*
Y1818000D01*
X3410000D01*
Y1778000D01*
X3370000D01*
X3346000D02*
Y1818000D01*
X3386000D01*
Y1778000D01*
X3346000D01*
X3322000D02*
Y1818000D01*
X3362000D01*
Y1778000D01*
X3322000D01*
X3296000Y1704000D02*
Y1744000D01*
X3336000D01*
Y1704000D01*
X3296000D01*
Y1754000D02*
Y1794000D01*
X3336000D01*
Y1754000D01*
X3296000D01*
X3426000Y1898000D02*
Y1938000D01*
X3466000D01*
Y1898000D01*
X3426000D01*
X3400000D02*
Y1938000D01*
X3440000D01*
Y1898000D01*
X3400000D01*
X3374000D02*
Y1938000D01*
X3414000D01*
Y1898000D01*
X3374000D01*
X3350000D02*
Y1938000D01*
X3390000D01*
Y1898000D01*
X3350000D01*
X3324000D02*
Y1938000D01*
X3364000D01*
Y1898000D01*
X3324000D01*
X3426000Y1924000D02*
Y1964000D01*
X3466000D01*
Y1924000D01*
X3426000D01*
X3400000D02*
Y1964000D01*
X3440000D01*
Y1924000D01*
X3400000D01*
X3374000D02*
Y1964000D01*
X3414000D01*
Y1924000D01*
X3374000D01*
X3350000D02*
Y1964000D01*
X3390000D01*
Y1924000D01*
X3350000D01*
X3324000D02*
Y1964000D01*
X3364000D01*
Y1924000D01*
X3324000D01*
X3426000Y1950000D02*
Y1990000D01*
X3466000D01*
Y1950000D01*
X3426000D01*
X3400000D02*
Y1990000D01*
X3440000D01*
Y1950000D01*
X3400000D01*
X3374000D02*
Y1990000D01*
X3414000D01*
Y1950000D01*
X3374000D01*
X3350000D02*
Y1990000D01*
X3390000D01*
Y1950000D01*
X3350000D01*
X3324000D02*
Y1990000D01*
X3364000D01*
Y1950000D01*
X3324000D01*
X3426000Y1974000D02*
Y2014000D01*
X3466000D01*
Y1974000D01*
X3426000D01*
X3400000D02*
Y2014000D01*
X3440000D01*
Y1974000D01*
X3400000D01*
X3374000D02*
Y2014000D01*
X3414000D01*
Y1974000D01*
X3374000D01*
X3350000D02*
Y2014000D01*
X3390000D01*
Y1974000D01*
X3350000D01*
X3324000D02*
Y2014000D01*
X3364000D01*
Y1974000D01*
X3324000D01*
X3296000Y1924000D02*
Y1964000D01*
X3336000D01*
Y1924000D01*
X3296000D01*
Y1974000D02*
Y2014000D01*
X3336000D01*
Y1974000D01*
X3296000D01*
X3426000Y1998000D02*
Y2038000D01*
X3466000D01*
Y1998000D01*
X3426000D01*
X3400000D02*
Y2038000D01*
X3440000D01*
Y1998000D01*
X3400000D01*
X3428000Y2028000D02*
Y2068000D01*
X3468000D01*
Y2028000D01*
X3428000D01*
X3404000D02*
Y2068000D01*
X3444000D01*
Y2028000D01*
X3404000D01*
X3380000D02*
Y2068000D01*
X3420000D01*
Y2028000D01*
X3380000D01*
X3356000D02*
Y2068000D01*
X3396000D01*
Y2028000D01*
X3356000D01*
X3374000Y1998000D02*
Y2038000D01*
X3414000D01*
Y1998000D01*
X3374000D01*
X3350000D02*
Y2038000D01*
X3390000D01*
Y1998000D01*
X3350000D01*
X3324000D02*
Y2038000D01*
X3364000D01*
Y1998000D01*
X3324000D01*
X3296142Y1949000D02*
Y1989000D01*
X3336142D01*
Y1949000D01*
X3296142D01*
X2492000Y1520000D02*
Y1560000D01*
X2532000D01*
Y1520000D01*
X2492000D01*
X3296142Y1459000D02*
Y1499000D01*
X3336142D01*
Y1459000D01*
X3296142D01*
Y1509000D02*
Y1549000D01*
X3336142D01*
Y1509000D01*
X3296142D01*
Y1559000D02*
Y1599000D01*
X3336142D01*
Y1559000D01*
X3296142D01*
Y1679000D02*
Y1719000D01*
X3336142D01*
Y1679000D01*
X3296142D01*
Y1729000D02*
Y1769000D01*
X3336142D01*
Y1729000D01*
X3296142D01*
Y1779000D02*
Y1819000D01*
X3336142D01*
Y1779000D01*
X3296142D01*
Y1899000D02*
Y1939000D01*
X3336142D01*
Y1899000D01*
X3296142D01*
Y1999000D02*
Y2039000D01*
X3336142D01*
Y1999000D01*
X3296142D01*
X3210000Y1394000D02*
Y1434000D01*
X3250000D01*
Y1394000D01*
X3210000D01*
X3186000D02*
Y1434000D01*
X3226000D01*
Y1394000D01*
X3186000D01*
X3162000D02*
Y1434000D01*
X3202000D01*
Y1394000D01*
X3162000D01*
X3138000D02*
Y1434000D01*
X3178000D01*
Y1394000D01*
X3138000D01*
X3114000D02*
Y1434000D01*
X3154000D01*
Y1394000D01*
X3114000D01*
X3088000D02*
Y1434000D01*
X3128000D01*
Y1394000D01*
X3088000D01*
X3064000D02*
Y1434000D01*
X3104000D01*
Y1394000D01*
X3064000D01*
X3038000D02*
Y1434000D01*
X3078000D01*
Y1394000D01*
X3038000D01*
X3012000D02*
Y1434000D01*
X3052000D01*
Y1394000D01*
X3012000D01*
X2986000D02*
Y1434000D01*
X3026000D01*
Y1394000D01*
X2986000D01*
X2960000D02*
Y1434000D01*
X3000000D01*
Y1394000D01*
X2960000D01*
X3216000Y1418000D02*
Y1458000D01*
X3256000D01*
Y1418000D01*
X3216000D01*
X3188000D02*
Y1458000D01*
X3228000D01*
Y1418000D01*
X3188000D01*
X3162000D02*
Y1458000D01*
X3202000D01*
Y1418000D01*
X3162000D01*
X3136000D02*
Y1458000D01*
X3176000D01*
Y1418000D01*
X3136000D01*
X3110000D02*
Y1458000D01*
X3150000D01*
Y1418000D01*
X3110000D01*
X3084000D02*
Y1458000D01*
X3124000D01*
Y1418000D01*
X3084000D01*
X3058000D02*
Y1458000D01*
X3098000D01*
Y1418000D01*
X3058000D01*
X3032000D02*
Y1458000D01*
X3072000D01*
Y1418000D01*
X3032000D01*
X3006000D02*
Y1458000D01*
X3046000D01*
Y1418000D01*
X3006000D01*
X2980000D02*
Y1458000D01*
X3020000D01*
Y1418000D01*
X2980000D01*
X2954000D02*
Y1458000D01*
X2994000D01*
Y1418000D01*
X2954000D01*
Y2120000D02*
Y2160000D01*
X2994000D01*
Y2120000D01*
X2954000D01*
X2980000D02*
Y2160000D01*
X3020000D01*
Y2120000D01*
X2980000D01*
X3006000D02*
Y2160000D01*
X3046000D01*
Y2120000D01*
X3006000D01*
X3032000D02*
Y2160000D01*
X3072000D01*
Y2120000D01*
X3032000D01*
X3058000D02*
Y2160000D01*
X3098000D01*
Y2120000D01*
X3058000D01*
X3084000D02*
Y2160000D01*
X3124000D01*
Y2120000D01*
X3084000D01*
X3110000D02*
Y2160000D01*
X3150000D01*
Y2120000D01*
X3110000D01*
X3136000D02*
Y2160000D01*
X3176000D01*
Y2120000D01*
X3136000D01*
X3162000D02*
Y2160000D01*
X3202000D01*
Y2120000D01*
X3162000D01*
X3188000D02*
Y2160000D01*
X3228000D01*
Y2120000D01*
X3188000D01*
X3214000D02*
Y2160000D01*
X3254000D01*
Y2120000D01*
X3214000D01*
Y2094000D02*
Y2134000D01*
X3254000D01*
Y2094000D01*
X3214000D01*
X3188000D02*
Y2134000D01*
X3228000D01*
Y2094000D01*
X3188000D01*
X3162000D02*
Y2134000D01*
X3202000D01*
Y2094000D01*
X3162000D01*
X3136000D02*
Y2134000D01*
X3176000D01*
Y2094000D01*
X3136000D01*
X3110000D02*
Y2134000D01*
X3150000D01*
Y2094000D01*
X3110000D01*
X3084000D02*
Y2134000D01*
X3124000D01*
Y2094000D01*
X3084000D01*
X3058000D02*
Y2134000D01*
X3098000D01*
Y2094000D01*
X3058000D01*
X3032000D02*
Y2134000D01*
X3072000D01*
Y2094000D01*
X3032000D01*
X3006000D02*
Y2134000D01*
X3046000D01*
Y2094000D01*
X3006000D01*
X2980000D02*
Y2134000D01*
X3020000D01*
Y2094000D01*
X2980000D01*
X2954000D02*
Y2134000D01*
X2994000D01*
Y2094000D01*
X2954000D01*
D75*
X2319103Y1965734D02*
G03*
X2319103Y1965734I-20000J0D01*
G01*
X2210000Y2070000D02*
G03*
X2210000Y2070000I-20000J0D01*
G01*
X2519218Y2051218D02*
G03*
X2519218Y2051218I-20000J0D01*
G01*
X2814441Y1710682D02*
G03*
X2814441Y1710682I-20000J0D01*
G01*
X2819735Y1678877D02*
G03*
X2819735Y1678877I-20000J0D01*
G01*
X2831627Y1814815D02*
G03*
X2831627Y1814815I-20000J0D01*
G01*
X2776443Y1581623D02*
G03*
X2776443Y1581623I-20000J0D01*
G01*
X2780000Y2060000D02*
G03*
X2780000Y2060000I-20000J0D01*
G01*
X2149915Y1789305D02*
G03*
X2149915Y1789305I-20000J0D01*
G01*
X1989864Y1818942D02*
G03*
X1989864Y1818942I-20000J0D01*
G01*
X2467000Y1836000D02*
G03*
X2467000Y1836000I-20000J0D01*
G01*
X1988000Y1741000D02*
G03*
X1988000Y1741000I-20000J0D01*
G01*
X2210000Y1517000D02*
G03*
X2210000Y1517000I-20000J0D01*
G01*
X2530603Y1925000D02*
G03*
X2530603Y1925000I-20000J0D01*
G01*
X2262529Y1546761D02*
G03*
X2262529Y1546761I-20000J0D01*
G01*
X2396000Y1950000D02*
G03*
X2396000Y1950000I-20000J0D01*
G01*
X2176000Y1952000D02*
G03*
X2176000Y1952000I-20000J0D01*
G01*
X2828000Y1974000D02*
G03*
X2828000Y1974000I-20000J0D01*
G01*
X3383526Y1629549D02*
G03*
X3383526Y1629549I-20000J0D01*
G01*
X3386000Y1850000D02*
G03*
X3386000Y1850000I-20000J0D01*
G01*
X3328268Y2117732D02*
G03*
X3328268Y2117732I-20000J0D01*
G01*
X2704000Y1482000D02*
G03*
X2704000Y1482000I-20000J0D01*
G01*
X2259000Y1756000D02*
G03*
X2259000Y1756000I-20000J0D01*
G01*
X2705971Y1669473D02*
G03*
X2705971Y1669473I-20000J0D01*
G01*
X2705065Y1757306D02*
G03*
X2705065Y1757306I-20000J0D01*
G01*
X2704000Y1846000D02*
G03*
X2704000Y1846000I-20000J0D01*
G01*
%TF.MD5,ceb135e5e14bd4bc552b8d50e5c3758d*%
M02*
