%TF.GenerationSoftware,Altium Limited,Altium Designer,26.1.1 (7)*%
G04 Layer_Color=32768*
%FSLAX45Y45*%
%MOMM*%
%TF.SameCoordinates,24EA0A1D-C4C2-4479-9BD9-1B96D5021C57*%
%TF.FilePolarity,Positive*%
%TF.FileFunction,Other,Top_Courtyard*%
%TF.Part,Single*%
G01*
G75*
%TA.AperFunction,NonConductor*%
%ADD35C,0.20000*%
%ADD36C,0.15240*%
%ADD43C,0.05000*%
G36*
X8983980Y9413240D02*
Y9417050D01*
X9304020D01*
Y9413240D01*
X9324340D01*
Y9052560D01*
X9304020D01*
Y9048750D01*
X8983980D01*
Y9052560D01*
X8963660D01*
Y9413240D01*
X8983980D01*
D02*
G37*
D35*
X7543300Y9429211D02*
X7798300D01*
X7543300Y8833389D02*
Y9429211D01*
Y8833389D02*
X7798300D01*
Y9429211D01*
X7832000Y8070300D02*
Y9430300D01*
X8932000D01*
Y8070300D02*
Y9430300D01*
X7832000Y8070300D02*
X8932000D01*
D36*
X8963660Y9052560D02*
Y9413240D01*
Y9052560D02*
X8983980D01*
X9304020D02*
X9324340D01*
Y9413240D01*
X9304020D02*
X9324340D01*
X8963660D02*
X8983980D01*
Y9417050D01*
Y9048750D02*
Y9052560D01*
Y9048750D02*
X9304020D01*
Y9052560D01*
Y9413240D02*
Y9417050D01*
X8983980D02*
X9304020D01*
D43*
X9339200Y9505500D02*
Y9798500D01*
X9482200Y9505500D02*
Y9798500D01*
X9339200D02*
X9482200D01*
X9339200Y9505500D02*
X9482200D01*
X8453700Y9696300D02*
X8924700D01*
X8453700Y9455300D02*
X8924700D01*
Y9696300D01*
X8453700Y9455300D02*
Y9696300D01*
X7829000Y9455300D02*
X8300000D01*
X7829000Y9696300D02*
X8300000D01*
X7829000Y9455300D02*
Y9696300D01*
X8300000Y9455300D02*
Y9696300D01*
X10079600Y10216900D02*
X10189600D01*
X10079600Y10026900D02*
X10189600D01*
X10079600D02*
Y10216900D01*
X10189600Y10026900D02*
Y10216900D01*
X10371700Y10026900D02*
X10481700D01*
X10371700Y10216900D02*
X10481700D01*
Y10026900D02*
Y10216900D01*
X10371700Y10026900D02*
Y10216900D01*
X9680820Y10026900D02*
Y10216900D01*
X9790820Y10026900D02*
Y10216900D01*
X9680820D02*
X9790820D01*
X9680820Y10026900D02*
X9790820D01*
X9470000Y9518900D02*
Y9708900D01*
X9580000Y9518900D02*
Y9708900D01*
X9470000D02*
X9580000D01*
X9470000Y9518900D02*
X9580000D01*
X10473300Y9035800D02*
X10583300D01*
X10473300Y8845800D02*
X10583300D01*
X10473300D02*
Y9035800D01*
X10583300Y8845800D02*
Y9035800D01*
X10359000Y8845800D02*
X10469000D01*
X10359000Y9035800D02*
X10469000D01*
Y8845800D02*
Y9035800D01*
X10359000Y8845800D02*
Y9035800D01*
X10244700Y8845800D02*
X10354700D01*
X10244700Y9035800D02*
X10354700D01*
Y8845800D02*
Y9035800D01*
X10244700Y8845800D02*
Y9035800D01*
X9076300Y10216900D02*
X9186300D01*
X9076300Y10026900D02*
X9186300D01*
X9076300D02*
Y10216900D01*
X9186300Y10026900D02*
Y10216900D01*
X9304900Y10026900D02*
X9414900D01*
X9304900Y10216900D02*
X9414900D01*
Y10026900D02*
Y10216900D01*
X9304900Y10026900D02*
Y10216900D01*
X9190600Y10026900D02*
X9300600D01*
X9190600Y10216900D02*
X9300600D01*
Y10026900D02*
Y10216900D01*
X9190600Y10026900D02*
Y10216900D01*
X9965300D02*
X10075300D01*
X9965300Y10026900D02*
X10075300D01*
X9965300D02*
Y10216900D01*
X10075300Y10026900D02*
Y10216900D01*
X10193900Y10026900D02*
X10303900D01*
X10193900Y10216900D02*
X10303900D01*
Y10026900D02*
Y10216900D01*
X10193900Y10026900D02*
Y10216900D01*
X10735700Y9607800D02*
Y9797800D01*
X10625700Y9607800D02*
Y9797800D01*
Y9607800D02*
X10735700D01*
X10625700Y9797800D02*
X10735700D01*
Y9201400D02*
Y9391400D01*
X10625700Y9201400D02*
Y9391400D01*
Y9201400D02*
X10735700D01*
X10625700Y9391400D02*
X10735700D01*
Y9404600D02*
Y9594600D01*
X10625700Y9404600D02*
Y9594600D01*
Y9404600D02*
X10735700D01*
X10625700Y9594600D02*
X10735700D01*
X9213460Y9874000D02*
X9323460D01*
X9213460Y9684000D02*
X9323460D01*
X9213460D02*
Y9874000D01*
X9323460Y9684000D02*
Y9874000D01*
X9091540Y9684000D02*
X9201540D01*
X9091540Y9874000D02*
X9201540D01*
Y9684000D02*
Y9874000D01*
X9091540Y9684000D02*
Y9874000D01*
X9749400Y9035800D02*
X9859400D01*
X9749400Y8845800D02*
X9859400D01*
X9749400D02*
Y9035800D01*
X9859400Y8845800D02*
Y9035800D01*
X9553820Y10216900D02*
X9663820D01*
X9553820Y10026900D02*
X9663820D01*
X9553820D02*
Y10216900D01*
X9663820Y10026900D02*
Y10216900D01*
X9656200Y9099800D02*
Y9289800D01*
X9546200Y9099800D02*
Y9289800D01*
Y9099800D02*
X9656200D01*
X9546200Y9289800D02*
X9656200D01*
X9523600Y9036900D02*
Y9428900D01*
X9348600Y9036900D02*
X9523600D01*
X9348600D02*
Y9428900D01*
X9523600D01*
X8972100Y8869300D02*
X9265100D01*
X8972100Y9012300D02*
X9265100D01*
X8972100Y8869300D02*
Y9012300D01*
X9265100Y8869300D02*
Y9012300D01*
X9091540Y9483340D02*
Y9673340D01*
X9201540Y9483340D02*
Y9673340D01*
X9091540D02*
X9201540D01*
X9091540Y9483340D02*
X9201540D01*
X9213460D02*
Y9673340D01*
X9323460Y9483340D02*
Y9673340D01*
X9213460D02*
X9323460D01*
X9213460Y9483340D02*
X9323460D01*
%TF.MD5,ae135d3317e9298c5355070f2a32e4e1*%
M02*
