%TF.GenerationSoftware,Altium Limited,Altium Designer,26.1.1 (7)*%
G04 Layer_Color=16711935*
%FSLAX45Y45*%
%MOMM*%
%TF.SameCoordinates,24EA0A1D-C4C2-4479-9BD9-1B96D5021C57*%
%TF.FilePolarity,Positive*%
%TF.FileFunction,Other,Top_3D_Body*%
%TF.Part,Single*%
G01*
G75*
%TA.AperFunction,NonConductor*%
%ADD35C,0.20000*%
%ADD37C,0.12700*%
%ADD39C,0.07620*%
%ADD42C,0.02540*%
D35*
X9446100Y9462900D02*
G03*
X9446100Y9462900I-10000J0D01*
G01*
X7593300Y9263800D02*
X7748300D01*
X7593300Y8998800D02*
Y9263800D01*
Y8998800D02*
X7748300D01*
Y9263800D01*
X7857000Y8225300D02*
Y9275300D01*
X8907000D01*
Y8225300D02*
Y9275300D01*
X7857000Y8225300D02*
X8907000D01*
D37*
X9365700Y9567000D02*
Y9737000D01*
X9455700Y9567000D02*
Y9737000D01*
X9365700Y9567000D02*
X9455700D01*
X9365700Y9737000D02*
X9455700D01*
X8514200Y9670800D02*
X8864200D01*
X8514200Y9480800D02*
X8864200D01*
X8514200D02*
Y9670800D01*
X8864200Y9480800D02*
Y9670800D01*
X7889500Y9480800D02*
X8239500D01*
X7889500Y9670800D02*
X8239500D01*
Y9480800D02*
Y9670800D01*
X7889500Y9480800D02*
Y9670800D01*
X10106600Y10068900D02*
X10162600D01*
X10106600Y10174900D02*
X10162600D01*
X10106600Y10068900D02*
Y10174900D01*
X10162600Y10068900D02*
Y10174900D01*
X10398700D02*
X10454700D01*
X10398700Y10068900D02*
X10454700D01*
Y10174900D01*
X10398700Y10068900D02*
Y10174900D01*
X9707820Y10068900D02*
Y10174900D01*
X9763820Y10068900D02*
Y10174900D01*
X9707820Y10068900D02*
X9763820D01*
X9707820Y10174900D02*
X9763820D01*
X9497000Y9560900D02*
Y9666900D01*
X9553000Y9560900D02*
Y9666900D01*
X9497000Y9560900D02*
X9553000D01*
X9497000Y9666900D02*
X9553000D01*
X10500300Y8887800D02*
X10556300D01*
X10500300Y8993800D02*
X10556300D01*
X10500300Y8887800D02*
Y8993800D01*
X10556300Y8887800D02*
Y8993800D01*
X10386000D02*
X10442000D01*
X10386000Y8887800D02*
X10442000D01*
Y8993800D01*
X10386000Y8887800D02*
Y8993800D01*
X10271700D02*
X10327700D01*
X10271700Y8887800D02*
X10327700D01*
Y8993800D01*
X10271700Y8887800D02*
Y8993800D01*
X9103300Y10068900D02*
X9159300D01*
X9103300Y10174900D02*
X9159300D01*
X9103300Y10068900D02*
Y10174900D01*
X9159300Y10068900D02*
Y10174900D01*
X9331900D02*
X9387900D01*
X9331900Y10068900D02*
X9387900D01*
Y10174900D01*
X9331900Y10068900D02*
Y10174900D01*
X9217600D02*
X9273600D01*
X9217600Y10068900D02*
X9273600D01*
Y10174900D01*
X9217600Y10068900D02*
Y10174900D01*
X9992300Y10068900D02*
X10048300D01*
X9992300Y10174900D02*
X10048300D01*
X9992300Y10068900D02*
Y10174900D01*
X10048300Y10068900D02*
Y10174900D01*
X10220900D02*
X10276900D01*
X10220900Y10068900D02*
X10276900D01*
Y10174900D01*
X10220900Y10068900D02*
Y10174900D01*
X10708700Y9649800D02*
Y9755800D01*
X10652700Y9649800D02*
Y9755800D01*
X10708700D01*
X10652700Y9649800D02*
X10708700D01*
Y9243400D02*
Y9349400D01*
X10652700Y9243400D02*
Y9349400D01*
X10708700D01*
X10652700Y9243400D02*
X10708700D01*
Y9446600D02*
Y9552600D01*
X10652700Y9446600D02*
Y9552600D01*
X10708700D01*
X10652700Y9446600D02*
X10708700D01*
X9240460Y9726000D02*
X9296460D01*
X9240460Y9832000D02*
X9296460D01*
X9240460Y9726000D02*
Y9832000D01*
X9296460Y9726000D02*
Y9832000D01*
X9118540D02*
X9174540D01*
X9118540Y9726000D02*
X9174540D01*
Y9832000D01*
X9118540Y9726000D02*
Y9832000D01*
X9776400Y8887800D02*
X9832400D01*
X9776400Y8993800D02*
X9832400D01*
X9776400Y8887800D02*
Y8993800D01*
X9832400Y8887800D02*
Y8993800D01*
X9580820Y10068900D02*
X9636820D01*
X9580820Y10174900D02*
X9636820D01*
X9580820Y10068900D02*
Y10174900D01*
X9636820Y10068900D02*
Y10174900D01*
X9629200Y9141800D02*
Y9247800D01*
X9573200Y9141800D02*
Y9247800D01*
X9629200D01*
X9573200Y9141800D02*
X9629200D01*
X9373600Y9147900D02*
Y9317900D01*
Y9147900D02*
X9498600D01*
Y9317900D01*
X9373600D02*
X9498600D01*
X9033600Y8895800D02*
X9203600D01*
X9033600Y8985800D02*
X9203600D01*
Y8895800D02*
Y8985800D01*
X9033600Y8895800D02*
Y8985800D01*
X9118540Y9525340D02*
Y9631340D01*
X9174540Y9525340D02*
Y9631340D01*
X9118540Y9525340D02*
X9174540D01*
X9118540Y9631340D02*
X9174540D01*
X9240460Y9525340D02*
Y9631340D01*
X9296460Y9525340D02*
Y9631340D01*
X9240460Y9525340D02*
X9296460D01*
X9240460Y9631340D02*
X9296460D01*
D39*
X9730010Y9846739D02*
X9814649Y9762100D01*
X9730010D02*
X9814649Y9846739D01*
X9730010Y9804419D02*
X9814649D01*
X9772330Y9762100D02*
Y9846739D01*
D42*
X9710960Y9146300D02*
Y9862580D01*
X10427240D01*
Y9146300D02*
Y9862580D01*
X9710960Y9146300D02*
X10427240D01*
Y9764200D02*
Y9794680D01*
Y9764200D02*
Y9794680D01*
Y9714200D02*
Y9744680D01*
Y9714200D02*
Y9744680D01*
Y9664200D02*
Y9694680D01*
Y9664200D02*
Y9694680D01*
Y9614200D02*
Y9644680D01*
Y9614200D02*
Y9644680D01*
Y9564200D02*
Y9594680D01*
Y9564200D02*
Y9594680D01*
Y9514200D02*
Y9544680D01*
Y9514200D02*
Y9544680D01*
Y9464200D02*
Y9494680D01*
Y9464200D02*
Y9494680D01*
Y9414200D02*
Y9444680D01*
Y9414200D02*
Y9444680D01*
Y9364200D02*
Y9394680D01*
Y9364200D02*
Y9394680D01*
Y9314200D02*
Y9344680D01*
Y9314200D02*
Y9344680D01*
Y9264200D02*
Y9294680D01*
Y9264200D02*
Y9294680D01*
Y9214200D02*
Y9244680D01*
Y9214200D02*
Y9244680D01*
X10328860Y9146300D02*
X10359340D01*
X10328860D02*
X10359340D01*
X10278860D02*
X10309340D01*
X10278860D02*
X10309340D01*
X10228860D02*
X10259340D01*
X10228860D02*
X10259340D01*
X10178860D02*
X10209340D01*
X10178860D02*
X10209340D01*
X10128860D02*
X10159340D01*
X10128860D02*
X10159340D01*
X10078860D02*
X10109340D01*
X10078860D02*
X10109340D01*
X10028860D02*
X10059340D01*
X10028860D02*
X10059340D01*
X9978860D02*
X10009340D01*
X9978860D02*
X10009340D01*
X9928860D02*
X9959340D01*
X9928860D02*
X9959340D01*
X9878860D02*
X9909340D01*
X9878860D02*
X9909340D01*
X9828860D02*
X9859340D01*
X9828860D02*
X9859340D01*
X9778860D02*
X9809340D01*
X9778860D02*
X9809340D01*
X9710960Y9214200D02*
Y9244680D01*
Y9214200D02*
Y9244680D01*
Y9264200D02*
Y9294680D01*
Y9264200D02*
Y9294680D01*
Y9314200D02*
Y9344680D01*
Y9314200D02*
Y9344680D01*
Y9364200D02*
Y9394680D01*
Y9364200D02*
Y9394680D01*
Y9414200D02*
Y9444680D01*
Y9414200D02*
Y9444680D01*
Y9464200D02*
Y9494680D01*
Y9464200D02*
Y9494680D01*
Y9514200D02*
Y9544680D01*
Y9514200D02*
Y9544680D01*
Y9564200D02*
Y9594680D01*
Y9564200D02*
Y9594680D01*
Y9614200D02*
Y9644680D01*
Y9614200D02*
Y9644680D01*
Y9664200D02*
Y9694680D01*
Y9664200D02*
Y9694680D01*
Y9714200D02*
Y9744680D01*
Y9714200D02*
Y9744680D01*
Y9764200D02*
Y9794680D01*
Y9764200D02*
Y9794680D01*
X9778860Y9862580D02*
X9809340D01*
X9778860D02*
X9809340D01*
X9828860D02*
X9859340D01*
X9828860D02*
X9859340D01*
X9878860D02*
X9909340D01*
X9878860D02*
X9909340D01*
X9928860D02*
X9959340D01*
X9928860D02*
X9959340D01*
X9978860D02*
X10009340D01*
X9978860D02*
X10009340D01*
X10028860D02*
X10059340D01*
X10028860D02*
X10059340D01*
X10078860D02*
X10109340D01*
X10078860D02*
X10109340D01*
X10128860D02*
X10159340D01*
X10128860D02*
X10159340D01*
X10178860D02*
X10209340D01*
X10178860D02*
X10209340D01*
X10228860D02*
X10259340D01*
X10228860D02*
X10259340D01*
X10278860D02*
X10309340D01*
X10278860D02*
X10309340D01*
X10328860D02*
X10359340D01*
X10328860D02*
X10359340D01*
X9710960Y9735580D02*
X9837960Y9862580D01*
X8989060Y9387840D02*
X9298940D01*
Y9077960D02*
Y9387840D01*
X8989060Y9077960D02*
X9298940D01*
X8989060D02*
Y9387840D01*
%TF.MD5,508ea43cb8638b8d841a8a34484c0fb1*%
M02*
