%TF.GenerationSoftware,Altium Limited,Altium Designer,20.2.3 (150)*%
G04 Layer_Color=128*
%FSLAX26Y26*%
%MOIN*%
%TF.SameCoordinates,27716F98-0B22-40FE-96F5-AA6DB086EB47*%
%TF.FilePolarity,Positive*%
%TF.FileFunction,Drillmap*%
%TF.Part,Single*%
G01*
G75*
%TA.AperFunction,NonConductor*%
%ADD42C,0.005000*%
D42*
X2596095Y1484992D02*
X2607905D01*
X2602000Y1479087D02*
Y1490898D01*
X2234095Y1646000D02*
X2245905D01*
X2240000Y1640094D02*
Y1651906D01*
X2210095Y1646000D02*
X2221905D01*
X2216000Y1640094D02*
Y1651906D01*
X2295095Y2023000D02*
X2306905D01*
X2301000Y2017094D02*
Y2028906D01*
X2294103Y1965734D02*
X2304103D01*
X2299103Y1960734D02*
Y1970734D01*
X2269095Y2023508D02*
X2280905D01*
X2275000Y2017603D02*
Y2029414D01*
X2185000Y2070000D02*
X2195000D01*
X2190000Y2065000D02*
Y2075000D01*
X2494218Y2051218D02*
X2504218D01*
X2499218Y2046218D02*
Y2056218D01*
X2789441Y1710682D02*
X2799441D01*
X2794441Y1705682D02*
Y1715682D01*
X2794735Y1678877D02*
X2804735D01*
X2799735Y1673877D02*
Y1683877D01*
X2841874Y1856483D02*
X2853685D01*
X2847779Y1850577D02*
Y1862388D01*
X2806627Y1814815D02*
X2816627D01*
X2811627Y1809815D02*
Y1819815D01*
X2751443Y1581623D02*
X2761443D01*
X2756443Y1576623D02*
Y1586623D01*
X2755000Y2060000D02*
X2765000D01*
X2760000Y2055000D02*
Y2065000D01*
X2172095Y1383000D02*
X2183905D01*
X2178000Y1377094D02*
Y1388906D01*
X2200095Y1383000D02*
X2211905D01*
X2206000Y1377094D02*
Y1388906D01*
X2230095Y1384000D02*
X2241905D01*
X2236000Y1378094D02*
Y1389906D01*
X2258095Y1384000D02*
X2269905D01*
X2264000Y1378094D02*
Y1389906D01*
X2287095Y1383000D02*
X2298905D01*
X2293000Y1377094D02*
Y1388906D01*
X2343095Y1383000D02*
X2354905D01*
X2349000Y1377094D02*
Y1388906D01*
X2394095Y1384000D02*
X2405905D01*
X2400000Y1378094D02*
Y1389906D01*
X2420095Y1384000D02*
X2431905D01*
X2426000Y1378094D02*
Y1389906D01*
X2449095Y1383000D02*
X2460905D01*
X2455000Y1377094D02*
Y1388906D01*
X2480095Y1383000D02*
X2491905D01*
X2486000Y1377094D02*
Y1388906D01*
X2507095Y1383000D02*
X2518905D01*
X2513000Y1377094D02*
Y1388906D01*
X2565095Y1383000D02*
X2576905D01*
X2571000Y1377094D02*
Y1388906D01*
X2649095Y1384000D02*
X2660905D01*
X2655000Y1378094D02*
Y1389906D01*
X2734095Y1384000D02*
X2745905D01*
X2740000Y1378094D02*
Y1389906D01*
X2790095Y1384000D02*
X2801905D01*
X2796000Y1378094D02*
Y1389906D01*
X2821095Y1384000D02*
X2832905D01*
X2827000Y1378094D02*
Y1389906D01*
X2848095Y1384000D02*
X2859905D01*
X2854000Y1378094D02*
Y1389906D01*
X2878095Y1383000D02*
X2889905D01*
X2884000Y1377094D02*
Y1388906D01*
X2904095Y1383000D02*
X2915905D01*
X2910000Y1377094D02*
Y1388906D01*
X2934095Y1382000D02*
X2945905D01*
X2940000Y1376094D02*
Y1387906D01*
X2314874Y1382108D02*
X2326685D01*
X2320779Y1376202D02*
Y1388013D01*
X2368165Y1383249D02*
X2379976D01*
X2374070Y1377344D02*
Y1389155D01*
X2621596Y1383851D02*
X2633407D01*
X2627501Y1377945D02*
Y1389756D01*
X2592069Y1383236D02*
X2603880D01*
X2597974Y1377330D02*
Y1389141D01*
X2536706Y1382620D02*
X2548517D01*
X2542611Y1376715D02*
Y1388526D01*
X2760738Y1383443D02*
X2772549D01*
X2766643Y1377537D02*
Y1389348D01*
X2707361Y1383425D02*
X2719172D01*
X2713267Y1377519D02*
Y1389330D01*
X2677129Y1383840D02*
X2688940D01*
X2683034Y1377934D02*
Y1389745D01*
X2672129Y2131840D02*
X2683940D01*
X2678034Y2125934D02*
Y2137745D01*
X2702361Y2131425D02*
X2714172D01*
X2708267Y2125519D02*
Y2137330D01*
X2755738Y2131443D02*
X2767549D01*
X2761643Y2125537D02*
Y2137348D01*
X2531706Y2130620D02*
X2543517D01*
X2537611Y2124715D02*
Y2136526D01*
X2587069Y2131236D02*
X2598880D01*
X2592974Y2125330D02*
Y2137141D01*
X2616596Y2131851D02*
X2628407D01*
X2622501Y2125945D02*
Y2137756D01*
X2363165Y2131249D02*
X2374976D01*
X2369070Y2125344D02*
Y2137155D01*
X2309874Y2130108D02*
X2321685D01*
X2315779Y2124202D02*
Y2136013D01*
X2929095Y2130000D02*
X2940905D01*
X2935000Y2124095D02*
Y2135905D01*
X2899095Y2131000D02*
X2910905D01*
X2905000Y2125095D02*
Y2136905D01*
X2873095Y2131000D02*
X2884905D01*
X2879000Y2125095D02*
Y2136905D01*
X2843095Y2132000D02*
X2854905D01*
X2849000Y2126095D02*
Y2137905D01*
X2816095Y2132000D02*
X2827905D01*
X2822000Y2126095D02*
Y2137905D01*
X2785095Y2132000D02*
X2796905D01*
X2791000Y2126095D02*
Y2137905D01*
X2729095Y2132000D02*
X2740905D01*
X2735000Y2126095D02*
Y2137905D01*
X2644095Y2132000D02*
X2655905D01*
X2650000Y2126095D02*
Y2137905D01*
X2560095Y2131000D02*
X2571905D01*
X2566000Y2125095D02*
Y2136905D01*
X2502095Y2131000D02*
X2513905D01*
X2508000Y2125095D02*
Y2136905D01*
X2475095Y2131000D02*
X2486905D01*
X2481000Y2125095D02*
Y2136905D01*
X2444095Y2131000D02*
X2455905D01*
X2450000Y2125095D02*
Y2136905D01*
X2415095Y2132000D02*
X2426905D01*
X2421000Y2126095D02*
Y2137905D01*
X2389095Y2132000D02*
X2400905D01*
X2395000Y2126095D02*
Y2137905D01*
X2338095Y2131000D02*
X2349905D01*
X2344000Y2125095D02*
Y2136905D01*
X2282095Y2131000D02*
X2293905D01*
X2288000Y2125095D02*
Y2136905D01*
X2253095Y2132000D02*
X2264905D01*
X2259000Y2126095D02*
Y2137905D01*
X2225095Y2132000D02*
X2236905D01*
X2231000Y2126095D02*
Y2137905D01*
X2195095Y2131000D02*
X2206905D01*
X2201000Y2125095D02*
Y2136905D01*
X2167095Y2131000D02*
X2178905D01*
X2173000Y2125095D02*
Y2136905D01*
X2898406Y1461599D02*
X2910217D01*
X2904312Y1455693D02*
Y1467504D01*
X2871744Y1462160D02*
X2883555D01*
X2877649Y1456255D02*
Y1468066D01*
X2900090Y1489103D02*
X2911901D01*
X2905995Y1483197D02*
Y1495008D01*
X2872305Y1489664D02*
X2884116D01*
X2878211Y1483759D02*
Y1495570D01*
X2900370Y1515765D02*
X2912182D01*
X2906276Y1509860D02*
Y1521671D01*
X2872867Y1516326D02*
X2884677D01*
X2878772Y1510421D02*
Y1522232D01*
X2895649Y1688395D02*
X2907460D01*
X2901555Y1682489D02*
Y1694301D01*
X2868804Y1688395D02*
X2880615D01*
X2874709Y1682489D02*
Y1694301D01*
X2895096Y1716347D02*
X2906907D01*
X2901001Y1710442D02*
Y1722253D01*
X2869081Y1714963D02*
X2880892D01*
X2874986Y1709058D02*
Y1720869D01*
X2897642Y1742786D02*
X2909452D01*
X2903547Y1736880D02*
Y1748691D01*
X2869730Y1742786D02*
X2881541D01*
X2875636Y1736880D02*
Y1748691D01*
X2897274Y1769963D02*
X2909085D01*
X2903180Y1764057D02*
Y1775869D01*
X2869730Y1771432D02*
X2881541D01*
X2875636Y1765526D02*
Y1777338D01*
X2897642Y1798976D02*
X2909452D01*
X2903547Y1793071D02*
Y1804882D01*
X2870465Y1799343D02*
X2882276D01*
X2876370Y1793438D02*
Y1805249D01*
X2897105Y1883677D02*
X2908916D01*
X2903011Y1877771D02*
Y1889582D01*
X2869185Y1884771D02*
X2880996D01*
X2875090Y1878866D02*
Y1890677D01*
X2898474Y1910776D02*
X2910285D01*
X2904379Y1904870D02*
Y1916681D01*
X2870280Y1915155D02*
X2882091D01*
X2876185Y1909250D02*
Y1921061D01*
X2896284Y1940612D02*
X2908095D01*
X2902190Y1934707D02*
Y1946517D01*
X2869459Y1941981D02*
X2881270D01*
X2875364Y1936075D02*
Y1947886D01*
X2895105Y1996258D02*
X2906916D01*
X2901010Y1990352D02*
Y2002163D01*
X2868773Y1994713D02*
X2880584D01*
X2874679Y1988807D02*
Y2000618D01*
X2896377Y1586805D02*
X2908188D01*
X2902282Y1580900D02*
Y1592711D01*
X2869508Y1586805D02*
X2881319D01*
X2875413Y1580900D02*
Y1592711D01*
X2124915Y1789305D02*
X2134915D01*
X2129915Y1784305D02*
Y1794305D01*
X1987094Y1740000D02*
X1998906D01*
X1993000Y1734094D02*
Y1745906D01*
X1938094Y1740000D02*
X1949906D01*
X1944000Y1734094D02*
Y1745906D01*
X1988094Y1819000D02*
X1999906D01*
X1994000Y1813094D02*
Y1824906D01*
X1964864Y1818942D02*
X1974864D01*
X1969864Y1813942D02*
Y1823942D01*
X1940094Y1819000D02*
X1951906D01*
X1946000Y1813094D02*
Y1824906D01*
X2442000Y1836000D02*
X2452000D01*
X2447000Y1831000D02*
Y1841000D01*
X1963000Y1741000D02*
X1973000D01*
X1968000Y1736000D02*
Y1746000D01*
X2185000Y1517000D02*
X2195000D01*
X2190000Y1512000D02*
Y1522000D01*
X2432095Y1755000D02*
X2443905D01*
X2438000Y1749094D02*
Y1760906D01*
X2405095Y1754000D02*
X2416905D01*
X2411000Y1748094D02*
Y1759906D01*
X2432095Y1783000D02*
X2443905D01*
X2438000Y1777094D02*
Y1788906D01*
X2403095Y1783000D02*
X2414905D01*
X2409000Y1777094D02*
Y1788906D01*
X2505603Y1925000D02*
X2515603D01*
X2510603Y1920000D02*
Y1930000D01*
X1983016Y2061758D02*
X2061756D01*
X2022386Y2022388D02*
Y2101128D01*
X2054095Y2018000D02*
X2065905D01*
X2060000Y2012094D02*
Y2023906D01*
X1976094Y2020000D02*
X1987906D01*
X1982000Y2014094D02*
Y2025906D01*
X2066095Y2092000D02*
X2077905D01*
X2072000Y2086095D02*
Y2097905D01*
X2082095Y2072000D02*
X2093905D01*
X2088000Y2066095D02*
Y2077905D01*
X2082095Y2048000D02*
X2093905D01*
X2088000Y2042094D02*
Y2053905D01*
X2082095Y2024000D02*
X2093905D01*
X2088000Y2018094D02*
Y2029906D01*
X2074095Y2002000D02*
X2085905D01*
X2080000Y1996094D02*
Y2007906D01*
X2052095Y1994000D02*
X2063905D01*
X2058000Y1988094D02*
Y1999906D01*
X2028094Y1994000D02*
X2039906D01*
X2034000Y1988094D02*
Y1999906D01*
X2004094Y1994000D02*
X2015906D01*
X2010000Y1988094D02*
Y1999906D01*
X1980094Y1994000D02*
X1991906D01*
X1986000Y1988094D02*
Y1999906D01*
X1958094Y2002000D02*
X1969906D01*
X1964000Y1996094D02*
Y2007906D01*
X1950094Y2026000D02*
X1961906D01*
X1956000Y2020094D02*
Y2031906D01*
X1950094Y2050000D02*
X1961906D01*
X1956000Y2044094D02*
Y2055905D01*
X1950094Y2074000D02*
X1961906D01*
X1956000Y2068095D02*
Y2079905D01*
X1974094Y2102000D02*
X1985906D01*
X1980000Y2096095D02*
Y2107905D01*
X1950094Y2098000D02*
X1961906D01*
X1956000Y2092095D02*
Y2103905D01*
X2076095Y2116000D02*
X2087905D01*
X2082000Y2110095D02*
Y2121905D01*
X2054095Y2126000D02*
X2065905D01*
X2060000Y2120095D02*
Y2131905D01*
X2030094Y2126000D02*
X2041906D01*
X2036000Y2120095D02*
Y2131905D01*
X2006094Y2126000D02*
X2017906D01*
X2012000Y2120095D02*
Y2131905D01*
X1984094Y2126000D02*
X1995906D01*
X1990000Y2120095D02*
Y2131905D01*
X1960094Y2120000D02*
X1971906D01*
X1966000Y2114095D02*
Y2125905D01*
X2070095Y1482000D02*
X2081905D01*
X2076000Y1476094D02*
Y1487906D01*
X2040094Y1482000D02*
X2051905D01*
X2046000Y1476094D02*
Y1487906D01*
X2054095Y1460000D02*
X2065905D01*
X2060000Y1454094D02*
Y1465906D01*
X2058095Y1436000D02*
X2069905D01*
X2064000Y1430094D02*
Y1441906D01*
X2040094Y1400000D02*
X2051905D01*
X2046000Y1394094D02*
Y1405906D01*
X2070095Y1412000D02*
X2081905D01*
X2076000Y1406094D02*
Y1417906D01*
X2066095Y1388000D02*
X2077905D01*
X2072000Y1382094D02*
Y1393906D01*
X2044094Y1374000D02*
X2055905D01*
X2050000Y1368094D02*
Y1379906D01*
X2020094Y1374000D02*
X2031906D01*
X2026000Y1368094D02*
Y1379906D01*
X1996094Y1374000D02*
X2007906D01*
X2002000Y1368094D02*
Y1379906D01*
X1972094Y1378000D02*
X1983906D01*
X1978000Y1372094D02*
Y1383906D01*
X1948094Y1382000D02*
X1959906D01*
X1954000Y1376094D02*
Y1387906D01*
X1940094Y1406000D02*
X1951906D01*
X1946000Y1400094D02*
Y1411906D01*
X1940094Y1430000D02*
X1951906D01*
X1946000Y1424094D02*
Y1435906D01*
X1940094Y1456000D02*
X1951906D01*
X1946000Y1450094D02*
Y1461906D01*
X1942094Y1482000D02*
X1953906D01*
X1948000Y1476094D02*
Y1487906D01*
X2056095Y1504000D02*
X2067905D01*
X2062000Y1498094D02*
Y1509906D01*
X2030094Y1506000D02*
X2041906D01*
X2036000Y1500094D02*
Y1511906D01*
X2006094Y1506000D02*
X2017906D01*
X2012000Y1500094D02*
Y1511906D01*
X1982094Y1506000D02*
X1993906D01*
X1988000Y1500094D02*
Y1511906D01*
X1966630Y1442000D02*
X2045370D01*
X2006000Y1402630D02*
Y1481370D01*
X1956094Y1502000D02*
X1967906D01*
X1962000Y1496094D02*
Y1507906D01*
X2902095Y2022000D02*
X2913905D01*
X2908000Y2016094D02*
Y2027906D01*
X2878095Y2020000D02*
X2889905D01*
X2884000Y2014094D02*
Y2025906D01*
X2852095Y2016000D02*
X2863905D01*
X2858000Y2010094D02*
Y2021906D01*
X2842095Y1990000D02*
X2853905D01*
X2848000Y1984094D02*
Y1995906D01*
X2842095Y1910000D02*
X2853905D01*
X2848000Y1904094D02*
Y1915906D01*
X2842095Y1886000D02*
X2853905D01*
X2848000Y1880094D02*
Y1891906D01*
X2842095Y1714000D02*
X2853905D01*
X2848000Y1708094D02*
Y1719906D01*
X2842095Y1688000D02*
X2853905D01*
X2848000Y1682094D02*
Y1693906D01*
X2842095Y1588000D02*
X2853905D01*
X2848000Y1582094D02*
Y1593906D01*
X2846095Y1516000D02*
X2857905D01*
X2852000Y1510094D02*
Y1521906D01*
X2846095Y1490000D02*
X2857905D01*
X2852000Y1484094D02*
Y1495906D01*
X2846095Y1464000D02*
X2857905D01*
X2852000Y1458094D02*
Y1469906D01*
X3434095Y1474000D02*
X3445905D01*
X3440000Y1468094D02*
Y1479906D01*
X3408095Y1474000D02*
X3419905D01*
X3414000Y1468094D02*
Y1479906D01*
X3384095Y1474000D02*
X3395905D01*
X3390000Y1468094D02*
Y1479906D01*
X3360095Y1474000D02*
X3371905D01*
X3366000Y1468094D02*
Y1479906D01*
X3336095Y1474000D02*
X3347905D01*
X3342000Y1468094D02*
Y1479906D01*
X3432095Y1500000D02*
X3443905D01*
X3438000Y1494094D02*
Y1505906D01*
X3408095Y1500000D02*
X3419905D01*
X3414000Y1494094D02*
Y1505906D01*
X3384095Y1500000D02*
X3395905D01*
X3390000Y1494094D02*
Y1505906D01*
X3360095Y1500000D02*
X3371905D01*
X3366000Y1494094D02*
Y1505906D01*
X3336095Y1500000D02*
X3347905D01*
X3342000Y1494094D02*
Y1505906D01*
X3432095Y1526000D02*
X3443905D01*
X3438000Y1520094D02*
Y1531906D01*
X3408095Y1526000D02*
X3419905D01*
X3414000Y1520094D02*
Y1531906D01*
X3384095Y1526000D02*
X3395905D01*
X3390000Y1520094D02*
Y1531906D01*
X3360095Y1526000D02*
X3371905D01*
X3366000Y1520094D02*
Y1531906D01*
X3336095Y1526000D02*
X3347905D01*
X3342000Y1520094D02*
Y1531906D01*
X3432095Y1550000D02*
X3443905D01*
X3438000Y1544094D02*
Y1555906D01*
X3408095Y1552000D02*
X3419905D01*
X3414000Y1546094D02*
Y1557906D01*
X3384095Y1552000D02*
X3395905D01*
X3390000Y1546094D02*
Y1557906D01*
X3360095Y1552000D02*
X3371905D01*
X3366000Y1546094D02*
Y1557906D01*
X3336095Y1552000D02*
X3347905D01*
X3342000Y1546094D02*
Y1557906D01*
X3436095Y1602000D02*
X3447905D01*
X3442000Y1596094D02*
Y1607906D01*
X3412095Y1602000D02*
X3423905D01*
X3418000Y1596094D02*
Y1607906D01*
X3388095Y1602000D02*
X3399905D01*
X3394000Y1596094D02*
Y1607906D01*
X3432095Y1578000D02*
X3443905D01*
X3438000Y1572094D02*
Y1583906D01*
X3408095Y1578000D02*
X3419905D01*
X3414000Y1572094D02*
Y1583906D01*
X3384095Y1578000D02*
X3395905D01*
X3390000Y1572094D02*
Y1583906D01*
X3360095Y1578000D02*
X3371905D01*
X3366000Y1572094D02*
Y1583906D01*
X3336095Y1578000D02*
X3347905D01*
X3342000Y1572094D02*
Y1583906D01*
X3310095Y1504000D02*
X3321905D01*
X3316000Y1498094D02*
Y1509906D01*
X3310095Y1554000D02*
X3321905D01*
X3316000Y1548094D02*
Y1559906D01*
X3436095Y1698000D02*
X3447905D01*
X3442000Y1692094D02*
Y1703906D01*
X3410095Y1698000D02*
X3421905D01*
X3416000Y1692094D02*
Y1703906D01*
X3386095Y1698000D02*
X3397905D01*
X3392000Y1692094D02*
Y1703906D01*
X3362095Y1698000D02*
X3373905D01*
X3368000Y1692094D02*
Y1703906D01*
X3336095Y1698000D02*
X3347905D01*
X3342000Y1692094D02*
Y1703906D01*
X3436095Y1722000D02*
X3447905D01*
X3442000Y1716094D02*
Y1727906D01*
X3410095Y1722000D02*
X3421905D01*
X3416000Y1716094D02*
Y1727906D01*
X3386095Y1722000D02*
X3397905D01*
X3392000Y1716094D02*
Y1727906D01*
X3362095Y1722000D02*
X3373905D01*
X3368000Y1716094D02*
Y1727906D01*
X3336095Y1722000D02*
X3347905D01*
X3342000Y1716094D02*
Y1727906D01*
X3434095Y1746000D02*
X3445905D01*
X3440000Y1740094D02*
Y1751906D01*
X3410095Y1746000D02*
X3421905D01*
X3416000Y1740094D02*
Y1751906D01*
X3384095Y1746000D02*
X3395905D01*
X3390000Y1740094D02*
Y1751906D01*
X3360095Y1746000D02*
X3371905D01*
X3366000Y1740094D02*
Y1751906D01*
X3336095Y1746000D02*
X3347905D01*
X3342000Y1740094D02*
Y1751906D01*
X3434095Y1772000D02*
X3445905D01*
X3440000Y1766094D02*
Y1777906D01*
X3410095Y1772000D02*
X3421905D01*
X3416000Y1766094D02*
Y1777906D01*
X3384095Y1772000D02*
X3395905D01*
X3390000Y1766094D02*
Y1777906D01*
X3360095Y1772000D02*
X3371905D01*
X3366000Y1766094D02*
Y1777906D01*
X3336095Y1772000D02*
X3347905D01*
X3342000Y1766094D02*
Y1777906D01*
X3440095Y1822000D02*
X3451905D01*
X3446000Y1816094D02*
Y1827906D01*
X3416095Y1822000D02*
X3427905D01*
X3422000Y1816094D02*
Y1827906D01*
X3392095Y1822000D02*
X3403905D01*
X3398000Y1816094D02*
Y1827906D01*
X3432095Y1798000D02*
X3443905D01*
X3438000Y1792094D02*
Y1803906D01*
X3408095Y1798000D02*
X3419905D01*
X3414000Y1792094D02*
Y1803906D01*
X3384095Y1798000D02*
X3395905D01*
X3390000Y1792094D02*
Y1803906D01*
X3360095Y1798000D02*
X3371905D01*
X3366000Y1792094D02*
Y1803906D01*
X3336095Y1798000D02*
X3347905D01*
X3342000Y1792094D02*
Y1803906D01*
X3310095Y1724000D02*
X3321905D01*
X3316000Y1718094D02*
Y1729906D01*
X3310095Y1774000D02*
X3321905D01*
X3316000Y1768094D02*
Y1779906D01*
X3440095Y1918000D02*
X3451905D01*
X3446000Y1912094D02*
Y1923906D01*
X3414095Y1918000D02*
X3425905D01*
X3420000Y1912094D02*
Y1923906D01*
X3388095Y1918000D02*
X3399905D01*
X3394000Y1912094D02*
Y1923906D01*
X3364095Y1918000D02*
X3375905D01*
X3370000Y1912094D02*
Y1923906D01*
X3338095Y1918000D02*
X3349905D01*
X3344000Y1912094D02*
Y1923906D01*
X3440095Y1944000D02*
X3451905D01*
X3446000Y1938094D02*
Y1949906D01*
X3414095Y1944000D02*
X3425905D01*
X3420000Y1938094D02*
Y1949906D01*
X3388095Y1944000D02*
X3399905D01*
X3394000Y1938094D02*
Y1949906D01*
X3364095Y1944000D02*
X3375905D01*
X3370000Y1938094D02*
Y1949906D01*
X3338095Y1944000D02*
X3349905D01*
X3344000Y1938094D02*
Y1949906D01*
X3440095Y1970000D02*
X3451905D01*
X3446000Y1964094D02*
Y1975906D01*
X3414095Y1970000D02*
X3425905D01*
X3420000Y1964094D02*
Y1975906D01*
X3388095Y1970000D02*
X3399905D01*
X3394000Y1964094D02*
Y1975906D01*
X3364095Y1970000D02*
X3375905D01*
X3370000Y1964094D02*
Y1975906D01*
X3338095Y1970000D02*
X3349905D01*
X3344000Y1964094D02*
Y1975906D01*
X3440095Y1994000D02*
X3451905D01*
X3446000Y1988094D02*
Y1999906D01*
X3414095Y1994000D02*
X3425905D01*
X3420000Y1988094D02*
Y1999906D01*
X3388095Y1994000D02*
X3399905D01*
X3394000Y1988094D02*
Y1999906D01*
X3364095Y1994000D02*
X3375905D01*
X3370000Y1988094D02*
Y1999906D01*
X3338095Y1994000D02*
X3349905D01*
X3344000Y1988094D02*
Y1999906D01*
X3310095Y1944000D02*
X3321905D01*
X3316000Y1938094D02*
Y1949906D01*
X3310095Y1994000D02*
X3321905D01*
X3316000Y1988094D02*
Y1999906D01*
X3440095Y2018000D02*
X3451905D01*
X3446000Y2012094D02*
Y2023906D01*
X3414095Y2018000D02*
X3425905D01*
X3420000Y2012094D02*
Y2023906D01*
X3442095Y2048000D02*
X3453905D01*
X3448000Y2042094D02*
Y2053905D01*
X3418095Y2048000D02*
X3429905D01*
X3424000Y2042094D02*
Y2053905D01*
X3394095Y2048000D02*
X3405905D01*
X3400000Y2042094D02*
Y2053905D01*
X3370095Y2048000D02*
X3381905D01*
X3376000Y2042094D02*
Y2053905D01*
X3388095Y2018000D02*
X3399905D01*
X3394000Y2012094D02*
Y2023906D01*
X3364095Y2018000D02*
X3375905D01*
X3370000Y2012094D02*
Y2023906D01*
X3338095Y2018000D02*
X3349905D01*
X3344000Y2012094D02*
Y2023906D01*
X3310236Y1969000D02*
X3322047D01*
X3316142Y1963094D02*
Y1974906D01*
X2237529Y1546761D02*
X2247529D01*
X2242529Y1541761D02*
Y1551761D01*
X2506095Y1540000D02*
X2517905D01*
X2512000Y1534094D02*
Y1545906D01*
X2371000Y1950000D02*
X2381000D01*
X2376000Y1945000D02*
Y1955000D01*
X2151000Y1952000D02*
X2161000D01*
X2156000Y1947000D02*
Y1957000D01*
X2803000Y1974000D02*
X2813000D01*
X2808000Y1969000D02*
Y1979000D01*
X3310236Y1479000D02*
X3322047D01*
X3316142Y1473094D02*
Y1484906D01*
X3310236Y1529000D02*
X3322047D01*
X3316142Y1523094D02*
Y1534906D01*
X3310236Y1579000D02*
X3322047D01*
X3316142Y1573094D02*
Y1584906D01*
X3310236Y1699000D02*
X3322047D01*
X3316142Y1693094D02*
Y1704906D01*
X3310236Y1749000D02*
X3322047D01*
X3316142Y1743094D02*
Y1754906D01*
X3310236Y1799000D02*
X3322047D01*
X3316142Y1793094D02*
Y1804906D01*
X3310236Y1919000D02*
X3322047D01*
X3316142Y1913094D02*
Y1924906D01*
X3310236Y2019000D02*
X3322047D01*
X3316142Y2013094D02*
Y2024906D01*
X3358526Y1629549D02*
X3368526D01*
X3363526Y1624549D02*
Y1634549D01*
X3361000Y1850000D02*
X3371000D01*
X3366000Y1845000D02*
Y1855000D01*
X3303268Y2117732D02*
X3313268D01*
X3308268Y2112732D02*
Y2122732D01*
X3224095Y1414000D02*
X3235905D01*
X3230000Y1408094D02*
Y1419906D01*
X3200095Y1414000D02*
X3211905D01*
X3206000Y1408094D02*
Y1419906D01*
X3176095Y1414000D02*
X3187905D01*
X3182000Y1408094D02*
Y1419906D01*
X3152095Y1414000D02*
X3163905D01*
X3158000Y1408094D02*
Y1419906D01*
X3128095Y1414000D02*
X3139905D01*
X3134000Y1408094D02*
Y1419906D01*
X3102095Y1414000D02*
X3113905D01*
X3108000Y1408094D02*
Y1419906D01*
X3078095Y1414000D02*
X3089905D01*
X3084000Y1408094D02*
Y1419906D01*
X3052095Y1414000D02*
X3063905D01*
X3058000Y1408094D02*
Y1419906D01*
X3026095Y1414000D02*
X3037905D01*
X3032000Y1408094D02*
Y1419906D01*
X3000095Y1414000D02*
X3011905D01*
X3006000Y1408094D02*
Y1419906D01*
X2974095Y1414000D02*
X2985905D01*
X2980000Y1408094D02*
Y1419906D01*
X3230095Y1438000D02*
X3241905D01*
X3236000Y1432094D02*
Y1443906D01*
X3202095Y1438000D02*
X3213905D01*
X3208000Y1432094D02*
Y1443906D01*
X3176095Y1438000D02*
X3187905D01*
X3182000Y1432094D02*
Y1443906D01*
X3150095Y1438000D02*
X3161905D01*
X3156000Y1432094D02*
Y1443906D01*
X3124095Y1438000D02*
X3135905D01*
X3130000Y1432094D02*
Y1443906D01*
X3098095Y1438000D02*
X3109905D01*
X3104000Y1432094D02*
Y1443906D01*
X3072095Y1438000D02*
X3083905D01*
X3078000Y1432094D02*
Y1443906D01*
X3046095Y1438000D02*
X3057905D01*
X3052000Y1432094D02*
Y1443906D01*
X3020095Y1438000D02*
X3031905D01*
X3026000Y1432094D02*
Y1443906D01*
X2994095Y1438000D02*
X3005905D01*
X3000000Y1432094D02*
Y1443906D01*
X2968095Y1438000D02*
X2979905D01*
X2974000Y1432094D02*
Y1443906D01*
X2968095Y2140000D02*
X2979905D01*
X2974000Y2134095D02*
Y2145905D01*
X2994095Y2140000D02*
X3005905D01*
X3000000Y2134095D02*
Y2145905D01*
X3020095Y2140000D02*
X3031905D01*
X3026000Y2134095D02*
Y2145905D01*
X3046095Y2140000D02*
X3057905D01*
X3052000Y2134095D02*
Y2145905D01*
X3072095Y2140000D02*
X3083905D01*
X3078000Y2134095D02*
Y2145905D01*
X3098095Y2140000D02*
X3109905D01*
X3104000Y2134095D02*
Y2145905D01*
X3124095Y2140000D02*
X3135905D01*
X3130000Y2134095D02*
Y2145905D01*
X3150095Y2140000D02*
X3161905D01*
X3156000Y2134095D02*
Y2145905D01*
X3176095Y2140000D02*
X3187905D01*
X3182000Y2134095D02*
Y2145905D01*
X3202095Y2140000D02*
X3213905D01*
X3208000Y2134095D02*
Y2145905D01*
X3228095Y2140000D02*
X3239905D01*
X3234000Y2134095D02*
Y2145905D01*
X3228095Y2114000D02*
X3239905D01*
X3234000Y2108095D02*
Y2119905D01*
X3202095Y2114000D02*
X3213905D01*
X3208000Y2108095D02*
Y2119905D01*
X3176095Y2114000D02*
X3187905D01*
X3182000Y2108095D02*
Y2119905D01*
X3150095Y2114000D02*
X3161905D01*
X3156000Y2108095D02*
Y2119905D01*
X3124095Y2114000D02*
X3135905D01*
X3130000Y2108095D02*
Y2119905D01*
X3098095Y2114000D02*
X3109905D01*
X3104000Y2108095D02*
Y2119905D01*
X3072095Y2114000D02*
X3083905D01*
X3078000Y2108095D02*
Y2119905D01*
X3046095Y2114000D02*
X3057905D01*
X3052000Y2108095D02*
Y2119905D01*
X3020095Y2114000D02*
X3031905D01*
X3026000Y2108095D02*
Y2119905D01*
X2994095Y2114000D02*
X3005905D01*
X3000000Y2108095D02*
Y2119905D01*
X2968095Y2114000D02*
X2979905D01*
X2974000Y2108095D02*
Y2119905D01*
X2679000Y1482000D02*
X2689000D01*
X2684000Y1477000D02*
Y1487000D01*
X2234000Y1756000D02*
X2244000D01*
X2239000Y1751000D02*
Y1761000D01*
X2680971Y1669473D02*
X2690971D01*
X2685971Y1664473D02*
Y1674473D01*
X2680065Y1757306D02*
X2690065D01*
X2685065Y1752306D02*
Y1762306D01*
X2679000Y1846000D02*
X2689000D01*
X2684000Y1841000D02*
Y1851000D01*
%TF.MD5,d5cb774dd3dba2b392e7f88e426d830e*%
M02*
