%TF.GenerationSoftware,Altium Limited,Altium Designer,20.2.3 (150)*%
G04 Layer_Physical_Order=2*
G04 Layer_Color=36540*
%FSLAX26Y26*%
%MOIN*%
%TF.SameCoordinates,27716F98-0B22-40FE-96F5-AA6DB086EB47*%
%TF.FilePolarity,Positive*%
%TF.FileFunction,Copper,L2,Inr,Signal*%
%TF.Part,Single*%
G01*
G75*
%TA.AperFunction,ViaPad*%
%ADD37C,0.023622*%
%ADD38C,0.022000*%
%ADD39C,0.090551*%
G36*
X3458099Y2156698D02*
X3463151Y2154606D01*
X3467700Y2151566D01*
X3471566Y2147700D01*
X3474606Y2143151D01*
X3476698Y2138099D01*
X3477765Y2132735D01*
Y2067911D01*
X3464899Y2063234D01*
X3461765Y2062629D01*
X3455730Y2066662D01*
X3448000Y2068199D01*
X3440270Y2066662D01*
X3436000Y2063808D01*
X3431730Y2066662D01*
X3424000Y2068199D01*
X3416270Y2066662D01*
X3412000Y2063808D01*
X3407730Y2066662D01*
X3400000Y2068199D01*
X3392270Y2066662D01*
X3388000Y2063808D01*
X3383730Y2066662D01*
X3376000Y2068199D01*
X3368270Y2066662D01*
X3361717Y2062283D01*
X3357338Y2055730D01*
X3356360Y2050812D01*
X3355305Y2047589D01*
X3344592Y2038691D01*
X3342547Y2037910D01*
X3336270Y2036661D01*
X3332265Y2033986D01*
X3330425Y2033283D01*
X3323872Y2037661D01*
X3316142Y2039199D01*
X3308412Y2037661D01*
X3301859Y2033283D01*
X3297480Y2026730D01*
X3295943Y2019000D01*
X3297480Y2011270D01*
X3300597Y2006606D01*
X3297338Y2001730D01*
X3295801Y1994000D01*
X3297338Y1986270D01*
X3300597Y1981394D01*
X3297480Y1976730D01*
X3295943Y1969000D01*
X3297480Y1961270D01*
X3300597Y1956606D01*
X3297338Y1951730D01*
X3295801Y1944000D01*
X3297338Y1936270D01*
X3300597Y1931394D01*
X3297480Y1926730D01*
X3295943Y1919000D01*
X3297480Y1911270D01*
X3301859Y1904717D01*
X3308412Y1900339D01*
X3316142Y1898801D01*
X3323872Y1900339D01*
X3329474Y1904082D01*
X3329717Y1903717D01*
X3336270Y1899339D01*
X3344000Y1897801D01*
X3351730Y1899339D01*
X3357000Y1902860D01*
X3362270Y1899339D01*
X3370000Y1897801D01*
X3377730Y1899339D01*
X3382000Y1902192D01*
X3386270Y1899339D01*
X3394000Y1897801D01*
X3401730Y1899339D01*
X3407000Y1902860D01*
X3412270Y1899339D01*
X3420000Y1897801D01*
X3427730Y1899339D01*
X3433000Y1902860D01*
X3438270Y1899339D01*
X3446000Y1897801D01*
X3453730Y1899339D01*
X3460283Y1903717D01*
X3461765Y1905936D01*
X3477765Y1901082D01*
Y1838918D01*
X3461765Y1834064D01*
X3460283Y1836283D01*
X3453730Y1840661D01*
X3446000Y1842199D01*
X3438270Y1840661D01*
X3434000Y1837808D01*
X3429730Y1840661D01*
X3422000Y1842199D01*
X3414270Y1840661D01*
X3410000Y1837808D01*
X3405730Y1840661D01*
X3400053Y1841791D01*
X3398000Y1842199D01*
X3384471Y1854555D01*
X3384462Y1854578D01*
X3383898Y1857413D01*
X3379698Y1863698D01*
X3373413Y1867898D01*
X3366000Y1869372D01*
X3358587Y1867898D01*
X3352302Y1863698D01*
X3348102Y1857413D01*
X3346628Y1850000D01*
X3348102Y1842587D01*
X3352302Y1836302D01*
X3351592Y1832323D01*
X3347403Y1820332D01*
X3342000Y1818199D01*
X3334270Y1816661D01*
X3329819Y1813688D01*
X3323872Y1817661D01*
X3316142Y1819199D01*
X3308412Y1817661D01*
X3301859Y1813283D01*
X3297480Y1806730D01*
X3295943Y1799000D01*
X3297480Y1791270D01*
X3300597Y1786606D01*
X3297338Y1781730D01*
X3295801Y1774000D01*
X3297338Y1766270D01*
X3300597Y1761394D01*
X3297480Y1756730D01*
X3295943Y1749000D01*
X3297480Y1741270D01*
X3300597Y1736606D01*
X3297338Y1731730D01*
X3295801Y1724000D01*
X3297338Y1716270D01*
X3300597Y1711394D01*
X3297480Y1706730D01*
X3295943Y1699000D01*
X3297480Y1691270D01*
X3301859Y1684717D01*
X3308412Y1680339D01*
X3316142Y1678801D01*
X3323872Y1680339D01*
X3328323Y1683312D01*
X3334270Y1679339D01*
X3342000Y1677801D01*
X3349730Y1679339D01*
X3355000Y1682860D01*
X3360270Y1679339D01*
X3368000Y1677801D01*
X3375730Y1679339D01*
X3380000Y1682192D01*
X3384270Y1679339D01*
X3392000Y1677801D01*
X3399730Y1679339D01*
X3404000Y1682192D01*
X3408270Y1679339D01*
X3416000Y1677801D01*
X3423730Y1679339D01*
X3429000Y1682860D01*
X3434270Y1679339D01*
X3442000Y1677801D01*
X3449730Y1679339D01*
X3456283Y1683717D01*
X3460662Y1690270D01*
X3461765Y1695820D01*
X3477765Y1694244D01*
Y1614181D01*
X3461765Y1608594D01*
X3460662Y1609730D01*
X3458646Y1612747D01*
X3456283Y1616283D01*
X3449730Y1620661D01*
X3442000Y1622199D01*
X3434270Y1620661D01*
X3430000Y1617808D01*
X3425730Y1620661D01*
X3418000Y1622199D01*
X3410270Y1620661D01*
X3406000Y1617808D01*
X3401730Y1620661D01*
X3396413Y1621719D01*
X3392155Y1624186D01*
X3381733Y1635408D01*
X3381424Y1636963D01*
X3377225Y1643247D01*
X3370940Y1647447D01*
X3363526Y1648921D01*
X3356113Y1647447D01*
X3349828Y1643247D01*
X3345629Y1636963D01*
X3344154Y1629549D01*
X3345629Y1622136D01*
X3349828Y1615851D01*
X3345083Y1599779D01*
X3344690Y1599368D01*
X3342000Y1598199D01*
X3334270Y1596661D01*
X3329819Y1593688D01*
X3323872Y1597661D01*
X3316142Y1599199D01*
X3308412Y1597661D01*
X3301859Y1593283D01*
X3297480Y1586730D01*
X3295943Y1579000D01*
X3297480Y1571270D01*
X3300597Y1566606D01*
X3297338Y1561730D01*
X3295801Y1554000D01*
X3297338Y1546270D01*
X3300597Y1541394D01*
X3297480Y1536730D01*
X3295943Y1529000D01*
X3297480Y1521270D01*
X3300597Y1516606D01*
X3297338Y1511730D01*
X3295801Y1504000D01*
X3297338Y1496270D01*
X3300597Y1491394D01*
X3297480Y1486730D01*
X3295943Y1479000D01*
X3297480Y1471270D01*
X3301859Y1464717D01*
X3308412Y1460339D01*
X3316142Y1458801D01*
X3323872Y1460339D01*
X3326243Y1461923D01*
X3327717Y1459717D01*
X3334270Y1455339D01*
X3342000Y1453801D01*
X3349730Y1455339D01*
X3354000Y1458192D01*
X3358270Y1455339D01*
X3366000Y1453801D01*
X3373730Y1455339D01*
X3378000Y1458192D01*
X3382270Y1455339D01*
X3390000Y1453801D01*
X3397730Y1455339D01*
X3402000Y1458192D01*
X3406270Y1455339D01*
X3414000Y1453801D01*
X3421730Y1455339D01*
X3427000Y1458860D01*
X3432270Y1455339D01*
X3440000Y1453801D01*
X3447730Y1455339D01*
X3454283Y1459717D01*
X3458662Y1466270D01*
X3460199Y1474000D01*
X3458662Y1481730D01*
X3454283Y1488283D01*
X3454086Y1488415D01*
X3456662Y1492270D01*
X3458199Y1500000D01*
X3456662Y1507730D01*
X3453140Y1513000D01*
X3456662Y1518270D01*
X3458199Y1526000D01*
X3456662Y1533730D01*
X3453808Y1538000D01*
X3456662Y1542270D01*
X3458199Y1550000D01*
X3456662Y1557730D01*
X3452472Y1564000D01*
X3456662Y1570270D01*
X3458199Y1578000D01*
X3456662Y1585730D01*
X3456603Y1585818D01*
X3459315Y1591050D01*
X3461352Y1594980D01*
X3461790Y1595397D01*
X3477765Y1589819D01*
Y1377265D01*
X3476698Y1371901D01*
X3474606Y1366848D01*
X3471566Y1362300D01*
X3467700Y1358433D01*
X3463151Y1355394D01*
X3458099Y1353302D01*
X3452735Y1352235D01*
X3450000D01*
X2959911D01*
X2955234Y1365101D01*
X2954629Y1368235D01*
X2958662Y1374270D01*
X2960199Y1382000D01*
X2959703Y1384492D01*
X2969984Y1393365D01*
X2972757Y1395242D01*
X2980000Y1393801D01*
X2987730Y1395339D01*
X2993000Y1398860D01*
X2998270Y1395339D01*
X3006000Y1393801D01*
X3013730Y1395339D01*
X3019000Y1398860D01*
X3024270Y1395339D01*
X3032000Y1393801D01*
X3039730Y1395339D01*
X3045000Y1398860D01*
X3050270Y1395339D01*
X3058000Y1393801D01*
X3065730Y1395339D01*
X3071000Y1398860D01*
X3076270Y1395339D01*
X3084000Y1393801D01*
X3091730Y1395339D01*
X3096000Y1398192D01*
X3100270Y1395339D01*
X3108000Y1393801D01*
X3115730Y1395339D01*
X3121000Y1398860D01*
X3126270Y1395339D01*
X3134000Y1393801D01*
X3141730Y1395339D01*
X3146000Y1398192D01*
X3150270Y1395339D01*
X3158000Y1393801D01*
X3165730Y1395339D01*
X3170000Y1398192D01*
X3174270Y1395339D01*
X3182000Y1393801D01*
X3189730Y1395339D01*
X3194000Y1398192D01*
X3198270Y1395339D01*
X3206000Y1393801D01*
X3213730Y1395339D01*
X3218000Y1398192D01*
X3222270Y1395339D01*
X3230000Y1393801D01*
X3237730Y1395339D01*
X3244283Y1399717D01*
X3248662Y1406270D01*
X3250199Y1414000D01*
X3248662Y1421730D01*
X3248244Y1422355D01*
X3250283Y1423717D01*
X3254662Y1430270D01*
X3256199Y1438000D01*
X3254662Y1445730D01*
X3250283Y1452283D01*
X3243730Y1456661D01*
X3236000Y1458199D01*
X3228270Y1456661D01*
X3222000Y1452472D01*
X3215730Y1456661D01*
X3208000Y1458199D01*
X3200270Y1456661D01*
X3195000Y1453140D01*
X3189730Y1456661D01*
X3182000Y1458199D01*
X3174270Y1456661D01*
X3169000Y1453140D01*
X3163730Y1456661D01*
X3156000Y1458199D01*
X3148270Y1456661D01*
X3143000Y1453140D01*
X3137730Y1456661D01*
X3130000Y1458199D01*
X3122270Y1456661D01*
X3117000Y1453140D01*
X3111730Y1456661D01*
X3104000Y1458199D01*
X3096270Y1456661D01*
X3091000Y1453140D01*
X3085730Y1456661D01*
X3078000Y1458199D01*
X3070270Y1456661D01*
X3065000Y1453140D01*
X3059730Y1456661D01*
X3052000Y1458199D01*
X3044270Y1456661D01*
X3039000Y1453140D01*
X3033730Y1456661D01*
X3026000Y1458199D01*
X3018270Y1456661D01*
X3013000Y1453140D01*
X3007730Y1456661D01*
X3000000Y1458199D01*
X2992270Y1456661D01*
X2987000Y1453140D01*
X2981730Y1456661D01*
X2974000Y1458199D01*
X2966270Y1456661D01*
X2959717Y1452283D01*
X2955338Y1445730D01*
X2953801Y1438000D01*
X2955338Y1430270D01*
X2959717Y1423717D01*
X2956592Y1408310D01*
X2950016Y1402635D01*
X2947243Y1400758D01*
X2940000Y1402199D01*
X2932270Y1400661D01*
X2924283Y1397283D01*
X2917730Y1401661D01*
X2910000Y1403199D01*
X2902270Y1401661D01*
X2897000Y1398140D01*
X2891730Y1401661D01*
X2884000Y1403199D01*
X2876270Y1401661D01*
X2868283Y1398283D01*
X2861730Y1402661D01*
X2854000Y1404199D01*
X2846270Y1402661D01*
X2840500Y1398806D01*
X2834730Y1402661D01*
X2827000Y1404199D01*
X2819270Y1402661D01*
X2811500Y1398876D01*
X2803730Y1402661D01*
X2796000Y1404199D01*
X2788270Y1402661D01*
X2781717Y1398283D01*
X2774373Y1402104D01*
X2766643Y1403642D01*
X2758914Y1402104D01*
X2753739Y1398647D01*
X2747730Y1402661D01*
X2740000Y1404199D01*
X2732270Y1402661D01*
X2726203Y1398608D01*
X2720997Y1402086D01*
X2713267Y1403624D01*
X2705537Y1402086D01*
X2697840Y1398375D01*
X2690764Y1402501D01*
X2683034Y1404039D01*
X2675304Y1402501D01*
X2669137Y1398380D01*
X2662730Y1402661D01*
X2655000Y1404199D01*
X2647270Y1402661D01*
X2641139Y1398565D01*
X2635231Y1402512D01*
X2627501Y1404050D01*
X2619771Y1402512D01*
X2612257Y1397518D01*
X2605704Y1401897D01*
X2597974Y1403435D01*
X2590244Y1401897D01*
X2584311Y1397932D01*
X2578730Y1401661D01*
X2571000Y1403199D01*
X2563270Y1401661D01*
X2556717Y1397283D01*
X2556596Y1397102D01*
X2550341Y1401282D01*
X2542611Y1402820D01*
X2534881Y1401282D01*
X2527521Y1397409D01*
X2520730Y1401662D01*
X2513000Y1403199D01*
X2505270Y1401661D01*
X2499500Y1397806D01*
X2493730Y1401661D01*
X2486000Y1403199D01*
X2478270Y1401661D01*
X2470500Y1397876D01*
X2462730Y1401661D01*
X2455000Y1403199D01*
X2447270Y1401661D01*
X2440879Y1397391D01*
X2440283Y1398283D01*
X2433730Y1402661D01*
X2426000Y1404199D01*
X2418270Y1402661D01*
X2413000Y1399140D01*
X2407730Y1402661D01*
X2400000Y1404199D01*
X2392270Y1402661D01*
X2386474Y1398788D01*
X2381800Y1401911D01*
X2374070Y1403448D01*
X2366340Y1401911D01*
X2361349Y1398575D01*
X2356730Y1401661D01*
X2349000Y1403199D01*
X2341270Y1401661D01*
X2334717Y1397283D01*
X2334411Y1396825D01*
X2328509Y1400769D01*
X2320779Y1402307D01*
X2313049Y1400769D01*
X2307452Y1397029D01*
X2307283Y1397283D01*
X2300730Y1401661D01*
X2293000Y1403199D01*
X2285270Y1401661D01*
X2278879Y1397391D01*
X2278283Y1398283D01*
X2271730Y1402661D01*
X2264000Y1404199D01*
X2256270Y1402661D01*
X2250000Y1398472D01*
X2243730Y1402661D01*
X2236000Y1404199D01*
X2228270Y1402661D01*
X2221717Y1398283D01*
X2213730Y1401661D01*
X2206000Y1403199D01*
X2198270Y1401661D01*
X2192000Y1397472D01*
X2185730Y1401661D01*
X2178000Y1403199D01*
X2170270Y1401661D01*
X2163717Y1397283D01*
X2159338Y1390730D01*
X2157801Y1383000D01*
X2159338Y1375270D01*
X2163717Y1368717D01*
X2164439Y1368235D01*
X2159585Y1352235D01*
X2094211D01*
X2090409Y1354089D01*
X2080871Y1368235D01*
X2081402Y1370456D01*
X2086283Y1373717D01*
X2090662Y1380270D01*
X2092199Y1388000D01*
X2090662Y1395730D01*
X2089627Y1397279D01*
X2090283Y1397717D01*
X2094662Y1404270D01*
X2096199Y1412000D01*
X2094662Y1419730D01*
X2090283Y1426283D01*
X2083730Y1430661D01*
X2083160Y1430775D01*
X2084199Y1436000D01*
X2082662Y1443730D01*
X2080239Y1447356D01*
X2082959Y1459809D01*
X2085161Y1464294D01*
X2090283Y1467717D01*
X2094662Y1474270D01*
X2096199Y1482000D01*
X2094662Y1489730D01*
X2090283Y1496283D01*
X2083730Y1500661D01*
X2081619Y1501082D01*
X2082199Y1504000D01*
X2080662Y1511730D01*
X2076283Y1518283D01*
X2069730Y1522661D01*
X2062000Y1524199D01*
X2054270Y1522661D01*
X2050415Y1520085D01*
X2050283Y1520283D01*
X2043730Y1524661D01*
X2036000Y1526199D01*
X2028270Y1524661D01*
X2024000Y1521808D01*
X2019730Y1524661D01*
X2012000Y1526199D01*
X2004270Y1524661D01*
X2000000Y1521808D01*
X1995730Y1524661D01*
X1988000Y1526199D01*
X1980270Y1524661D01*
X1973717Y1520283D01*
X1972661Y1518703D01*
X1969730Y1520661D01*
X1962000Y1522199D01*
X1954270Y1520661D01*
X1947717Y1516283D01*
X1943339Y1509730D01*
X1938235Y1508033D01*
X1922235Y1519575D01*
Y1711474D01*
X1933825Y1719620D01*
X1938235Y1720948D01*
X1944000Y1719801D01*
X1951730Y1721339D01*
X1957478Y1725179D01*
X1960587Y1723102D01*
X1968000Y1721628D01*
X1975413Y1723102D01*
X1979022Y1725514D01*
X1985270Y1721339D01*
X1993000Y1719801D01*
X2000730Y1721339D01*
X2007283Y1725717D01*
X2011661Y1732270D01*
X2013199Y1740000D01*
X2011661Y1747730D01*
X2007283Y1754283D01*
X2000730Y1758661D01*
X1993000Y1760199D01*
X1985270Y1758661D01*
X1980518Y1755486D01*
X1975413Y1758898D01*
X1968000Y1760372D01*
X1960587Y1758898D01*
X1955982Y1755821D01*
X1951730Y1758661D01*
X1944000Y1760199D01*
X1938235Y1759052D01*
X1933825Y1760380D01*
X1922235Y1768526D01*
Y1792302D01*
X1938235Y1800362D01*
X1938270Y1800339D01*
X1946000Y1798801D01*
X1953730Y1800339D01*
X1958618Y1803605D01*
X1962450Y1801044D01*
X1969864Y1799570D01*
X1977277Y1801044D01*
X1981245Y1803696D01*
X1986270Y1800339D01*
X1994000Y1798801D01*
X2001730Y1800339D01*
X2008283Y1804717D01*
X2012661Y1811270D01*
X2014199Y1819000D01*
X2012661Y1826730D01*
X2008283Y1833283D01*
X2001730Y1837661D01*
X1994000Y1839199D01*
X1986270Y1837661D01*
X1981159Y1834246D01*
X1977277Y1836840D01*
X1969864Y1838314D01*
X1962450Y1836840D01*
X1958705Y1834337D01*
X1953730Y1837661D01*
X1946000Y1839199D01*
X1938270Y1837661D01*
X1938235Y1837638D01*
X1922235Y1845698D01*
Y2130000D01*
Y2132735D01*
X1923302Y2138099D01*
X1925394Y2143151D01*
X1928433Y2147700D01*
X1932300Y2151566D01*
X1936848Y2154606D01*
X1941901Y2156698D01*
X1947265Y2157765D01*
X1950000Y2157765D01*
X2149279D01*
X2152084Y2154056D01*
X2156367Y2141765D01*
X2154338Y2138730D01*
X2152801Y2131000D01*
X2154338Y2123270D01*
X2158717Y2116717D01*
X2165270Y2112338D01*
X2173000Y2110801D01*
X2180730Y2112338D01*
X2187000Y2116528D01*
X2193270Y2112338D01*
X2201000Y2110801D01*
X2208730Y2112338D01*
X2215283Y2116717D01*
X2223270Y2113338D01*
X2231000Y2111801D01*
X2238730Y2113338D01*
X2245000Y2117528D01*
X2251270Y2113338D01*
X2259000Y2111801D01*
X2266730Y2113338D01*
X2273121Y2117609D01*
X2273717Y2116717D01*
X2280270Y2112338D01*
X2288000Y2110801D01*
X2295730Y2112338D01*
X2301327Y2116078D01*
X2301496Y2115825D01*
X2308049Y2111446D01*
X2315779Y2109909D01*
X2323509Y2111446D01*
X2330062Y2115825D01*
X2330368Y2116282D01*
X2336270Y2112338D01*
X2344000Y2110801D01*
X2351730Y2112338D01*
X2356722Y2115674D01*
X2361340Y2112588D01*
X2369070Y2111050D01*
X2376800Y2112588D01*
X2382597Y2116461D01*
X2387270Y2113338D01*
X2395000Y2111801D01*
X2402730Y2113338D01*
X2408000Y2116860D01*
X2413270Y2113338D01*
X2421000Y2111801D01*
X2428730Y2113338D01*
X2435121Y2117609D01*
X2435717Y2116717D01*
X2442270Y2112338D01*
X2450000Y2110801D01*
X2457730Y2112338D01*
X2464283Y2116717D01*
X2466717D01*
X2473270Y2112338D01*
X2481000Y2110801D01*
X2488730Y2112338D01*
X2494500Y2116194D01*
X2500270Y2112338D01*
X2508000Y2110801D01*
X2515730Y2112338D01*
X2523090Y2116212D01*
X2529881Y2111959D01*
X2537611Y2110421D01*
X2545341Y2111959D01*
X2551894Y2116338D01*
X2552015Y2116518D01*
X2558270Y2112338D01*
X2566000Y2110801D01*
X2573730Y2112338D01*
X2579664Y2116303D01*
X2585244Y2112574D01*
X2592974Y2111037D01*
X2600704Y2112574D01*
X2608219Y2117568D01*
X2614771Y2113189D01*
X2622501Y2111652D01*
X2630231Y2113189D01*
X2636362Y2117286D01*
X2642270Y2113338D01*
X2650000Y2111801D01*
X2657730Y2113338D01*
X2663897Y2117459D01*
X2670304Y2113178D01*
X2678034Y2111641D01*
X2685764Y2113178D01*
X2693461Y2116890D01*
X2700537Y2112763D01*
X2708267Y2111226D01*
X2715997Y2112763D01*
X2722064Y2116817D01*
X2727270Y2113338D01*
X2735000Y2111801D01*
X2742730Y2113338D01*
X2747905Y2116796D01*
X2753914Y2112781D01*
X2761643Y2111244D01*
X2769373Y2112781D01*
X2775926Y2117160D01*
X2783270Y2113338D01*
X2791000Y2111801D01*
X2798730Y2113338D01*
X2806500Y2117124D01*
X2814270Y2113338D01*
X2822000Y2111801D01*
X2829730Y2113338D01*
X2835500Y2117194D01*
X2841270Y2113338D01*
X2849000Y2111801D01*
X2856730Y2113338D01*
X2864717Y2116717D01*
X2871270Y2112338D01*
X2879000Y2110801D01*
X2886730Y2112338D01*
X2892000Y2115860D01*
X2897270Y2112338D01*
X2905000Y2110801D01*
X2912730Y2112338D01*
X2920717Y2115717D01*
X2927270Y2111338D01*
X2934999Y2109801D01*
X2948652Y2108051D01*
X2959717Y2099717D01*
X2966270Y2095338D01*
X2974000Y2093801D01*
X2981730Y2095338D01*
X2987000Y2098860D01*
X2992270Y2095338D01*
X3000000Y2093801D01*
X3007730Y2095338D01*
X3013000Y2098860D01*
X3018270Y2095338D01*
X3026000Y2093801D01*
X3033730Y2095338D01*
X3039000Y2098860D01*
X3044270Y2095338D01*
X3052000Y2093801D01*
X3059730Y2095338D01*
X3065000Y2098860D01*
X3070270Y2095338D01*
X3078000Y2093801D01*
X3085730Y2095338D01*
X3091000Y2098860D01*
X3096270Y2095338D01*
X3104000Y2093801D01*
X3111730Y2095338D01*
X3117000Y2098860D01*
X3122270Y2095338D01*
X3130000Y2093801D01*
X3137730Y2095338D01*
X3143000Y2098860D01*
X3148270Y2095338D01*
X3156000Y2093801D01*
X3163730Y2095338D01*
X3169000Y2098860D01*
X3174270Y2095338D01*
X3182000Y2093801D01*
X3189730Y2095338D01*
X3195000Y2098860D01*
X3200270Y2095338D01*
X3208000Y2093801D01*
X3215730Y2095338D01*
X3221000Y2098860D01*
X3226270Y2095338D01*
X3234000Y2093801D01*
X3241730Y2095338D01*
X3248283Y2099717D01*
X3252662Y2106270D01*
X3254199Y2114000D01*
X3252662Y2121730D01*
X3249140Y2127000D01*
X3252662Y2132270D01*
X3254199Y2140000D01*
X3253848Y2141765D01*
X3262301Y2155446D01*
X3265199Y2157765D01*
X3452735D01*
X3458099Y2156698D01*
D02*
G37*
%LPC*%
G36*
X3308268Y2137104D02*
X3300854Y2135630D01*
X3294570Y2131430D01*
X3290370Y2125146D01*
X3288896Y2117732D01*
X3290370Y2110319D01*
X3294570Y2104034D01*
X3300854Y2099835D01*
X3308268Y2098360D01*
X3315681Y2099835D01*
X3321966Y2104034D01*
X3326165Y2110319D01*
X3327640Y2117732D01*
X3326165Y2125146D01*
X3321966Y2131430D01*
X3315681Y2135630D01*
X3308268Y2137104D01*
D02*
G37*
G36*
X2190000Y2089372D02*
X2182587Y2087898D01*
X2176302Y2083698D01*
X2172102Y2077413D01*
X2170628Y2070000D01*
X2172102Y2062587D01*
X2176302Y2056302D01*
X2182587Y2052102D01*
X2190000Y2050628D01*
X2197413Y2052102D01*
X2203698Y2056302D01*
X2207898Y2062587D01*
X2209372Y2070000D01*
X2207898Y2077413D01*
X2203698Y2083698D01*
X2197413Y2087898D01*
X2190000Y2089372D01*
D02*
G37*
G36*
X2760000Y2079372D02*
X2752587Y2077898D01*
X2746302Y2073698D01*
X2742102Y2067413D01*
X2740628Y2060000D01*
X2742102Y2052587D01*
X2746302Y2046302D01*
X2752587Y2042102D01*
X2760000Y2040628D01*
X2767413Y2042102D01*
X2773698Y2046302D01*
X2777898Y2052587D01*
X2779372Y2060000D01*
X2777898Y2067413D01*
X2773698Y2073698D01*
X2767413Y2077898D01*
X2760000Y2079372D01*
D02*
G37*
G36*
X2499218Y2070590D02*
X2491804Y2069115D01*
X2485520Y2064916D01*
X2481320Y2058631D01*
X2479846Y2051218D01*
X2481320Y2043804D01*
X2485520Y2037520D01*
X2491804Y2033320D01*
X2499218Y2031846D01*
X2506631Y2033320D01*
X2512916Y2037520D01*
X2517115Y2043804D01*
X2518590Y2051218D01*
X2517115Y2058631D01*
X2512916Y2064916D01*
X2506631Y2069115D01*
X2499218Y2070590D01*
D02*
G37*
G36*
X2808000Y1993372D02*
X2800587Y1991898D01*
X2794302Y1987698D01*
X2790102Y1981413D01*
X2788628Y1974000D01*
X2790102Y1966587D01*
X2794302Y1960302D01*
X2800587Y1956102D01*
X2808000Y1954628D01*
X2815413Y1956102D01*
X2821698Y1960302D01*
X2825898Y1966587D01*
X2827372Y1974000D01*
X2825898Y1981413D01*
X2821698Y1987698D01*
X2815413Y1991898D01*
X2808000Y1993372D01*
D02*
G37*
G36*
X2299103Y1985106D02*
X2291689Y1983632D01*
X2285405Y1979432D01*
X2281205Y1973147D01*
X2279731Y1965734D01*
X2281205Y1958321D01*
X2285405Y1952036D01*
X2291689Y1947836D01*
X2299103Y1946362D01*
X2306516Y1947836D01*
X2312801Y1952036D01*
X2317000Y1958321D01*
X2318475Y1965734D01*
X2317000Y1973147D01*
X2312801Y1979432D01*
X2306516Y1983632D01*
X2299103Y1985106D01*
D02*
G37*
G36*
X2156000Y1971372D02*
X2148587Y1969898D01*
X2142302Y1965698D01*
X2138102Y1959413D01*
X2136628Y1952000D01*
X2138102Y1944587D01*
X2142302Y1938302D01*
X2148587Y1934102D01*
X2156000Y1932628D01*
X2163413Y1934102D01*
X2169698Y1938302D01*
X2173898Y1944587D01*
X2175372Y1952000D01*
X2173898Y1959413D01*
X2169698Y1965698D01*
X2163413Y1969898D01*
X2156000Y1971372D01*
D02*
G37*
G36*
X2376000Y1969372D02*
X2368587Y1967898D01*
X2362302Y1963698D01*
X2358102Y1957413D01*
X2356628Y1950000D01*
X2358102Y1942587D01*
X2362302Y1936302D01*
X2368587Y1932102D01*
X2376000Y1930628D01*
X2383413Y1932102D01*
X2389698Y1936302D01*
X2393898Y1942587D01*
X2395372Y1950000D01*
X2393898Y1957413D01*
X2389698Y1963698D01*
X2383413Y1967898D01*
X2376000Y1969372D01*
D02*
G37*
G36*
X2510603Y1944372D02*
X2503190Y1942898D01*
X2496905Y1938698D01*
X2492706Y1932413D01*
X2491231Y1925000D01*
X2492706Y1917587D01*
X2496905Y1911302D01*
X2503190Y1907102D01*
X2510603Y1905628D01*
X2518017Y1907102D01*
X2524301Y1911302D01*
X2528501Y1917587D01*
X2529975Y1925000D01*
X2528501Y1932413D01*
X2524301Y1938698D01*
X2518017Y1942898D01*
X2510603Y1944372D01*
D02*
G37*
G36*
X2684000Y1865372D02*
X2676587Y1863898D01*
X2670302Y1859698D01*
X2666102Y1853413D01*
X2664628Y1846000D01*
X2666102Y1838587D01*
X2670302Y1832302D01*
X2676587Y1828102D01*
X2684000Y1826628D01*
X2691413Y1828102D01*
X2697698Y1832302D01*
X2701898Y1838587D01*
X2703372Y1846000D01*
X2701898Y1853413D01*
X2697698Y1859698D01*
X2691413Y1863898D01*
X2684000Y1865372D01*
D02*
G37*
G36*
X2447000Y1855372D02*
X2439587Y1853898D01*
X2433302Y1849698D01*
X2429102Y1843413D01*
X2427628Y1836000D01*
X2429102Y1828587D01*
X2433302Y1822302D01*
X2439587Y1818102D01*
X2447000Y1816628D01*
X2454413Y1818102D01*
X2460698Y1822302D01*
X2464898Y1828587D01*
X2466372Y1836000D01*
X2464898Y1843413D01*
X2460698Y1849698D01*
X2454413Y1853898D01*
X2447000Y1855372D01*
D02*
G37*
G36*
X2811627Y1834188D02*
X2804214Y1832713D01*
X2797929Y1828514D01*
X2793730Y1822229D01*
X2792255Y1814815D01*
X2793730Y1807402D01*
X2797929Y1801117D01*
X2804214Y1796918D01*
X2811627Y1795443D01*
X2819041Y1796918D01*
X2825326Y1801117D01*
X2829525Y1807402D01*
X2831000Y1814815D01*
X2829525Y1822229D01*
X2825326Y1828514D01*
X2819041Y1832713D01*
X2811627Y1834188D01*
D02*
G37*
G36*
X2129915Y1808677D02*
X2122501Y1807202D01*
X2116216Y1803003D01*
X2112017Y1796718D01*
X2110542Y1789305D01*
X2112017Y1781891D01*
X2116216Y1775607D01*
X2122501Y1771407D01*
X2129915Y1769933D01*
X2137328Y1771407D01*
X2143613Y1775607D01*
X2147812Y1781891D01*
X2149287Y1789305D01*
X2147812Y1796718D01*
X2143613Y1803003D01*
X2137328Y1807202D01*
X2129915Y1808677D01*
D02*
G37*
G36*
X2685065Y1776678D02*
X2677651Y1775203D01*
X2671367Y1771004D01*
X2667167Y1764719D01*
X2665693Y1757306D01*
X2667167Y1749892D01*
X2671367Y1743608D01*
X2677651Y1739408D01*
X2685065Y1737934D01*
X2692478Y1739408D01*
X2698763Y1743608D01*
X2702962Y1749892D01*
X2704437Y1757306D01*
X2702962Y1764719D01*
X2698763Y1771004D01*
X2692478Y1775203D01*
X2685065Y1776678D01*
D02*
G37*
G36*
X2239000Y1775372D02*
X2231587Y1773898D01*
X2225302Y1769698D01*
X2221102Y1763413D01*
X2219628Y1756000D01*
X2221102Y1748587D01*
X2225302Y1742302D01*
X2231587Y1738102D01*
X2239000Y1736628D01*
X2246413Y1738102D01*
X2252698Y1742302D01*
X2256898Y1748587D01*
X2258372Y1756000D01*
X2256898Y1763413D01*
X2252698Y1769698D01*
X2246413Y1773898D01*
X2239000Y1775372D01*
D02*
G37*
G36*
X2794441Y1730054D02*
X2787028Y1728580D01*
X2780743Y1724380D01*
X2776544Y1718096D01*
X2775069Y1710682D01*
X2776544Y1703269D01*
X2780743Y1696984D01*
X2786037Y1693447D01*
Y1692575D01*
X2781837Y1686291D01*
X2780363Y1678877D01*
X2781837Y1671464D01*
X2786037Y1665179D01*
X2792321Y1660980D01*
X2799735Y1659505D01*
X2807148Y1660980D01*
X2813433Y1665179D01*
X2817632Y1671464D01*
X2819107Y1678877D01*
X2817632Y1686291D01*
X2813433Y1692576D01*
X2808140Y1696112D01*
Y1696984D01*
X2812339Y1703269D01*
X2813814Y1710682D01*
X2812339Y1718096D01*
X2808140Y1724380D01*
X2801855Y1728580D01*
X2794441Y1730054D01*
D02*
G37*
G36*
X2685971Y1688845D02*
X2678557Y1687371D01*
X2672272Y1683171D01*
X2668073Y1676887D01*
X2666598Y1669473D01*
X2668073Y1662060D01*
X2672272Y1655775D01*
X2678557Y1651575D01*
X2685971Y1650101D01*
X2693384Y1651575D01*
X2699669Y1655775D01*
X2703868Y1662060D01*
X2705343Y1669473D01*
X2703868Y1676887D01*
X2699669Y1683171D01*
X2693384Y1687371D01*
X2685971Y1688845D01*
D02*
G37*
G36*
X2756443Y1600995D02*
X2749030Y1599521D01*
X2742745Y1595321D01*
X2738546Y1589037D01*
X2737071Y1581623D01*
X2738546Y1574210D01*
X2742745Y1567925D01*
X2749030Y1563726D01*
X2756443Y1562251D01*
X2763857Y1563726D01*
X2770141Y1567925D01*
X2774341Y1574210D01*
X2775815Y1581623D01*
X2774341Y1589037D01*
X2770141Y1595321D01*
X2763857Y1599521D01*
X2756443Y1600995D01*
D02*
G37*
G36*
X2242529Y1566134D02*
X2235115Y1564659D01*
X2228831Y1560460D01*
X2224631Y1554175D01*
X2223157Y1546761D01*
X2224631Y1539348D01*
X2228831Y1533063D01*
X2235115Y1528864D01*
X2242529Y1527389D01*
X2249942Y1528864D01*
X2256227Y1533063D01*
X2260426Y1539348D01*
X2261901Y1546761D01*
X2260426Y1554175D01*
X2256227Y1560460D01*
X2249942Y1564659D01*
X2242529Y1566134D01*
D02*
G37*
G36*
X2512000Y1560199D02*
X2504270Y1558661D01*
X2497717Y1554283D01*
X2493338Y1547730D01*
X2491801Y1540000D01*
X2493338Y1532270D01*
X2497717Y1525717D01*
X2504270Y1521339D01*
X2512000Y1519801D01*
X2519730Y1521339D01*
X2526283Y1525717D01*
X2530662Y1532270D01*
X2532199Y1540000D01*
X2530662Y1547730D01*
X2526283Y1554283D01*
X2519730Y1558661D01*
X2512000Y1560199D01*
D02*
G37*
G36*
X2190000Y1536372D02*
X2182587Y1534898D01*
X2176302Y1530698D01*
X2172102Y1524413D01*
X2170628Y1517000D01*
X2172102Y1509587D01*
X2176302Y1503302D01*
X2182587Y1499102D01*
X2190000Y1497628D01*
X2197413Y1499102D01*
X2203698Y1503302D01*
X2207898Y1509587D01*
X2209372Y1517000D01*
X2207898Y1524413D01*
X2203698Y1530698D01*
X2197413Y1534898D01*
X2190000Y1536372D01*
D02*
G37*
G36*
X2684000Y1501372D02*
X2676587Y1499898D01*
X2670302Y1495698D01*
X2666102Y1489413D01*
X2664628Y1482000D01*
X2666102Y1474587D01*
X2670302Y1468302D01*
X2676587Y1464102D01*
X2684000Y1462628D01*
X2691413Y1464102D01*
X2697698Y1468302D01*
X2701898Y1474587D01*
X2703372Y1482000D01*
X2701898Y1489413D01*
X2697698Y1495698D01*
X2691413Y1499898D01*
X2684000Y1501372D01*
D02*
G37*
%LPD*%
D37*
X2602000Y1484992D02*
D03*
X2240000Y1646000D02*
D03*
X2216000D02*
D03*
X2301000Y2023000D02*
D03*
X2275000Y2023508D02*
D03*
X2847779Y1856483D02*
D03*
X2178000Y1383000D02*
D03*
X2206000D02*
D03*
X2236000Y1384000D02*
D03*
X2264000D02*
D03*
X2293000Y1383000D02*
D03*
X2349000D02*
D03*
X2400000Y1384000D02*
D03*
X2426000D02*
D03*
X2455000Y1383000D02*
D03*
X2486000D02*
D03*
X2513000D02*
D03*
X2571000D02*
D03*
X2655000Y1384000D02*
D03*
X2740000D02*
D03*
X2796000D02*
D03*
X2827000D02*
D03*
X2854000D02*
D03*
X2884000Y1383000D02*
D03*
X2910000D02*
D03*
X2940000Y1382000D02*
D03*
X2320779Y1382108D02*
D03*
X2374070Y1383249D02*
D03*
X2627501Y1383851D02*
D03*
X2597974Y1383236D02*
D03*
X2542611Y1382620D02*
D03*
X2766643Y1383443D02*
D03*
X2713267Y1383425D02*
D03*
X2683034Y1383840D02*
D03*
X2678034Y2131840D02*
D03*
X2708267Y2131425D02*
D03*
X2761643Y2131443D02*
D03*
X2537611Y2130620D02*
D03*
X2592974Y2131236D02*
D03*
X2622501Y2131851D02*
D03*
X2369070Y2131249D02*
D03*
X2315779Y2130108D02*
D03*
X2935000Y2130000D02*
D03*
X2905000Y2131000D02*
D03*
X2879000D02*
D03*
X2849000Y2132000D02*
D03*
X2822000D02*
D03*
X2791000D02*
D03*
X2735000D02*
D03*
X2650000D02*
D03*
X2566000Y2131000D02*
D03*
X2508000D02*
D03*
X2481000D02*
D03*
X2450000D02*
D03*
X2421000Y2132000D02*
D03*
X2395000D02*
D03*
X2344000Y2131000D02*
D03*
X2288000D02*
D03*
X2259000Y2132000D02*
D03*
X2231000D02*
D03*
X2201000Y2131000D02*
D03*
X2173000D02*
D03*
X2904312Y1461599D02*
D03*
X2877649Y1462160D02*
D03*
X2905995Y1489103D02*
D03*
X2878211Y1489664D02*
D03*
X2906276Y1515765D02*
D03*
X2878772Y1516326D02*
D03*
X2901555Y1688395D02*
D03*
X2874709D02*
D03*
X2901001Y1716347D02*
D03*
X2874986Y1714963D02*
D03*
X2903547Y1742786D02*
D03*
X2875636D02*
D03*
X2903180Y1769963D02*
D03*
X2875636Y1771432D02*
D03*
X2903547Y1798976D02*
D03*
X2876370Y1799343D02*
D03*
X2903011Y1883677D02*
D03*
X2875090Y1884771D02*
D03*
X2904379Y1910776D02*
D03*
X2876185Y1915155D02*
D03*
X2902190Y1940612D02*
D03*
X2875364Y1941981D02*
D03*
X2901010Y1996258D02*
D03*
X2874679Y1994713D02*
D03*
X2902282Y1586805D02*
D03*
X2875413D02*
D03*
X1993000Y1740000D02*
D03*
X1944000D02*
D03*
X1994000Y1819000D02*
D03*
X1946000D02*
D03*
X2438000Y1755000D02*
D03*
X2411000Y1754000D02*
D03*
X2438000Y1783000D02*
D03*
X2409000D02*
D03*
X2060000Y2018000D02*
D03*
X1982000Y2020000D02*
D03*
X2072000Y2092000D02*
D03*
X2088000Y2072000D02*
D03*
Y2048000D02*
D03*
Y2024000D02*
D03*
X2080000Y2002000D02*
D03*
X2058000Y1994000D02*
D03*
X2034000D02*
D03*
X2010000D02*
D03*
X1986000D02*
D03*
X1964000Y2002000D02*
D03*
X1956000Y2026000D02*
D03*
Y2050000D02*
D03*
Y2074000D02*
D03*
X1980000Y2102000D02*
D03*
X1956000Y2098000D02*
D03*
X2082000Y2116000D02*
D03*
X2060000Y2126000D02*
D03*
X2036000D02*
D03*
X2012000D02*
D03*
X1990000D02*
D03*
X1966000Y2120000D02*
D03*
X2076000Y1482000D02*
D03*
X2046000D02*
D03*
X2060000Y1460000D02*
D03*
X2064000Y1436000D02*
D03*
X2046000Y1400000D02*
D03*
X2076000Y1412000D02*
D03*
X2072000Y1388000D02*
D03*
X2050000Y1374000D02*
D03*
X2026000D02*
D03*
X2002000D02*
D03*
X1978000Y1378000D02*
D03*
X1954000Y1382000D02*
D03*
X1946000Y1406000D02*
D03*
Y1430000D02*
D03*
Y1456000D02*
D03*
X1948000Y1482000D02*
D03*
X2062000Y1504000D02*
D03*
X2036000Y1506000D02*
D03*
X2012000D02*
D03*
X1988000D02*
D03*
X1962000Y1502000D02*
D03*
X2908000Y2022000D02*
D03*
X2884000Y2020000D02*
D03*
X2858000Y2016000D02*
D03*
X2848000Y1990000D02*
D03*
Y1910000D02*
D03*
Y1886000D02*
D03*
Y1714000D02*
D03*
Y1688000D02*
D03*
Y1588000D02*
D03*
X2852000Y1516000D02*
D03*
Y1490000D02*
D03*
Y1464000D02*
D03*
X3440000Y1474000D02*
D03*
X3414000D02*
D03*
X3390000D02*
D03*
X3366000D02*
D03*
X3342000D02*
D03*
X3438000Y1500000D02*
D03*
X3414000D02*
D03*
X3390000D02*
D03*
X3366000D02*
D03*
X3342000D02*
D03*
X3438000Y1526000D02*
D03*
X3414000D02*
D03*
X3390000D02*
D03*
X3366000D02*
D03*
X3342000D02*
D03*
X3438000Y1550000D02*
D03*
X3414000Y1552000D02*
D03*
X3390000D02*
D03*
X3366000D02*
D03*
X3342000D02*
D03*
X3442000Y1602000D02*
D03*
X3418000D02*
D03*
X3394000D02*
D03*
X3438000Y1578000D02*
D03*
X3414000D02*
D03*
X3390000D02*
D03*
X3366000D02*
D03*
X3342000D02*
D03*
X3316000Y1504000D02*
D03*
Y1554000D02*
D03*
X3442000Y1698000D02*
D03*
X3416000D02*
D03*
X3392000D02*
D03*
X3368000D02*
D03*
X3342000D02*
D03*
X3442000Y1722000D02*
D03*
X3416000D02*
D03*
X3392000D02*
D03*
X3368000D02*
D03*
X3342000D02*
D03*
X3440000Y1746000D02*
D03*
X3416000D02*
D03*
X3390000D02*
D03*
X3366000D02*
D03*
X3342000D02*
D03*
X3440000Y1772000D02*
D03*
X3416000D02*
D03*
X3390000D02*
D03*
X3366000D02*
D03*
X3342000D02*
D03*
X3446000Y1822000D02*
D03*
X3422000D02*
D03*
X3398000D02*
D03*
X3438000Y1798000D02*
D03*
X3414000D02*
D03*
X3390000D02*
D03*
X3366000D02*
D03*
X3342000D02*
D03*
X3316000Y1724000D02*
D03*
Y1774000D02*
D03*
X3446000Y1918000D02*
D03*
X3420000D02*
D03*
X3394000D02*
D03*
X3370000D02*
D03*
X3344000D02*
D03*
X3446000Y1944000D02*
D03*
X3420000D02*
D03*
X3394000D02*
D03*
X3370000D02*
D03*
X3344000D02*
D03*
X3446000Y1970000D02*
D03*
X3420000D02*
D03*
X3394000D02*
D03*
X3370000D02*
D03*
X3344000D02*
D03*
X3446000Y1994000D02*
D03*
X3420000D02*
D03*
X3394000D02*
D03*
X3370000D02*
D03*
X3344000D02*
D03*
X3316000Y1944000D02*
D03*
Y1994000D02*
D03*
X3446000Y2018000D02*
D03*
X3420000D02*
D03*
X3448000Y2048000D02*
D03*
X3424000D02*
D03*
X3400000D02*
D03*
X3376000D02*
D03*
X3394000Y2018000D02*
D03*
X3370000D02*
D03*
X3344000D02*
D03*
X3316142Y1969000D02*
D03*
X2512000Y1540000D02*
D03*
X3316142Y1479000D02*
D03*
Y1529000D02*
D03*
Y1579000D02*
D03*
Y1699000D02*
D03*
Y1749000D02*
D03*
Y1799000D02*
D03*
Y1919000D02*
D03*
Y2019000D02*
D03*
X3230000Y1414000D02*
D03*
X3206000D02*
D03*
X3182000D02*
D03*
X3158000D02*
D03*
X3134000D02*
D03*
X3108000D02*
D03*
X3084000D02*
D03*
X3058000D02*
D03*
X3032000D02*
D03*
X3006000D02*
D03*
X2980000D02*
D03*
X3236000Y1438000D02*
D03*
X3208000D02*
D03*
X3182000D02*
D03*
X3156000D02*
D03*
X3130000D02*
D03*
X3104000D02*
D03*
X3078000D02*
D03*
X3052000D02*
D03*
X3026000D02*
D03*
X3000000D02*
D03*
X2974000D02*
D03*
Y2140000D02*
D03*
X3000000D02*
D03*
X3026000D02*
D03*
X3052000D02*
D03*
X3078000D02*
D03*
X3104000D02*
D03*
X3130000D02*
D03*
X3156000D02*
D03*
X3182000D02*
D03*
X3208000D02*
D03*
X3234000D02*
D03*
Y2114000D02*
D03*
X3208000D02*
D03*
X3182000D02*
D03*
X3156000D02*
D03*
X3130000D02*
D03*
X3104000D02*
D03*
X3078000D02*
D03*
X3052000D02*
D03*
X3026000D02*
D03*
X3000000D02*
D03*
X2974000D02*
D03*
D38*
X2299103Y1965734D02*
D03*
X2190000Y2070000D02*
D03*
X2499218Y2051218D02*
D03*
X2794441Y1710682D02*
D03*
X2799735Y1678877D02*
D03*
X2811627Y1814815D02*
D03*
X2756443Y1581623D02*
D03*
X2760000Y2060000D02*
D03*
X2129915Y1789305D02*
D03*
X1969864Y1818942D02*
D03*
X2447000Y1836000D02*
D03*
X1968000Y1741000D02*
D03*
X2190000Y1517000D02*
D03*
X2510603Y1925000D02*
D03*
X2242529Y1546761D02*
D03*
X2376000Y1950000D02*
D03*
X2156000Y1952000D02*
D03*
X2808000Y1974000D02*
D03*
X3363526Y1629549D02*
D03*
X3366000Y1850000D02*
D03*
X3308268Y2117732D02*
D03*
X2684000Y1482000D02*
D03*
X2239000Y1756000D02*
D03*
X2685971Y1669473D02*
D03*
X2685065Y1757306D02*
D03*
X2684000Y1846000D02*
D03*
D39*
X2022386Y2061758D02*
D03*
X2006000Y1442000D02*
D03*
%TF.MD5,cf24d024b383f7b20ef032e2f43d73d8*%
M02*
