%TF.GenerationSoftware,Altium Limited,Altium Designer,26.1.1 (7)*%
G04 Layer_Color=32768*
%FSLAX45Y45*%
%MOMM*%
%TF.SameCoordinates,24EA0A1D-C4C2-4479-9BD9-1B96D5021C57*%
%TF.FilePolarity,Positive*%
%TF.FileFunction,Other,Top_Designator*%
%TF.Part,Single*%
G01*
G75*
G36*
X8512303Y8205027D02*
X8512690D01*
X8513742Y8204916D01*
X8514905Y8204750D01*
X8516123Y8204473D01*
X8517452Y8204141D01*
X8518670Y8203698D01*
X8518726D01*
X8518836Y8203642D01*
X8519003Y8203531D01*
X8519224Y8203421D01*
X8519778Y8203144D01*
X8520498Y8202646D01*
X8521328Y8202092D01*
X8522159Y8201372D01*
X8522934Y8200541D01*
X8523654Y8199600D01*
Y8199545D01*
X8523709Y8199489D01*
X8523820Y8199323D01*
X8523931Y8199157D01*
X8524207Y8198603D01*
X8524540Y8197884D01*
X8524927Y8196998D01*
X8525204Y8195946D01*
X8525481Y8194838D01*
X8525592Y8193620D01*
X8520719Y8193232D01*
Y8193288D01*
Y8193398D01*
X8520664Y8193565D01*
X8520608Y8193841D01*
X8520442Y8194450D01*
X8520221Y8195281D01*
X8519888Y8196167D01*
X8519390Y8197053D01*
X8518781Y8197884D01*
X8518006Y8198659D01*
X8517895Y8198714D01*
X8517618Y8198936D01*
X8517064Y8199268D01*
X8516345Y8199600D01*
X8515403Y8199932D01*
X8514296Y8200265D01*
X8512912Y8200486D01*
X8511361Y8200541D01*
X8510586D01*
X8510254Y8200486D01*
X8509811Y8200431D01*
X8508814Y8200320D01*
X8507707Y8200098D01*
X8506599Y8199822D01*
X8505547Y8199379D01*
X8505104Y8199102D01*
X8504661Y8198825D01*
X8504550Y8198769D01*
X8504329Y8198548D01*
X8503997Y8198160D01*
X8503664Y8197717D01*
X8503277Y8197108D01*
X8502945Y8196444D01*
X8502723Y8195669D01*
X8502612Y8194783D01*
Y8194672D01*
Y8194450D01*
X8502668Y8194063D01*
X8502779Y8193620D01*
X8502945Y8193066D01*
X8503222Y8192512D01*
X8503554Y8191959D01*
X8504052Y8191405D01*
X8504107Y8191350D01*
X8504384Y8191184D01*
X8504606Y8191017D01*
X8504827Y8190907D01*
X8505160Y8190741D01*
X8505547Y8190519D01*
X8506045Y8190353D01*
X8506599Y8190131D01*
X8507208Y8189910D01*
X8507928Y8189633D01*
X8508703Y8189412D01*
X8509589Y8189135D01*
X8510586Y8188913D01*
X8511693Y8188636D01*
X8511749D01*
X8511970Y8188581D01*
X8512303Y8188526D01*
X8512690Y8188415D01*
X8513188Y8188304D01*
X8513798Y8188138D01*
X8514407Y8187972D01*
X8515071Y8187806D01*
X8516511Y8187418D01*
X8517895Y8187031D01*
X8518560Y8186809D01*
X8519169Y8186588D01*
X8519722Y8186422D01*
X8520165Y8186200D01*
X8520221D01*
X8520331Y8186145D01*
X8520498Y8186034D01*
X8520719Y8185923D01*
X8521328Y8185591D01*
X8522048Y8185148D01*
X8522879Y8184539D01*
X8523709Y8183874D01*
X8524484Y8183099D01*
X8525149Y8182269D01*
X8525204Y8182158D01*
X8525426Y8181881D01*
X8525647Y8181383D01*
X8525979Y8180718D01*
X8526256Y8179943D01*
X8526533Y8179002D01*
X8526699Y8177950D01*
X8526755Y8176842D01*
Y8176787D01*
Y8176731D01*
Y8176565D01*
Y8176344D01*
X8526644Y8175735D01*
X8526533Y8174960D01*
X8526312Y8174074D01*
X8526035Y8173132D01*
X8525592Y8172136D01*
X8524983Y8171083D01*
Y8171028D01*
X8524927Y8170973D01*
X8524650Y8170641D01*
X8524263Y8170142D01*
X8523709Y8169588D01*
X8522989Y8168924D01*
X8522103Y8168204D01*
X8521107Y8167540D01*
X8519944Y8166931D01*
X8519888D01*
X8519778Y8166875D01*
X8519612Y8166820D01*
X8519390Y8166709D01*
X8519058Y8166598D01*
X8518670Y8166432D01*
X8517784Y8166211D01*
X8516732Y8165934D01*
X8515459Y8165657D01*
X8514074Y8165491D01*
X8512579Y8165436D01*
X8511693D01*
X8511250Y8165491D01*
X8510752D01*
X8510198Y8165546D01*
X8509534Y8165602D01*
X8508150Y8165823D01*
X8506710Y8166045D01*
X8505270Y8166432D01*
X8503886Y8166931D01*
X8503831D01*
X8503720Y8166986D01*
X8503554Y8167097D01*
X8503332Y8167207D01*
X8502668Y8167540D01*
X8501893Y8168038D01*
X8501007Y8168702D01*
X8500065Y8169478D01*
X8499179Y8170419D01*
X8498349Y8171471D01*
Y8171526D01*
X8498238Y8171637D01*
X8498183Y8171803D01*
X8498017Y8172025D01*
X8497906Y8172302D01*
X8497740Y8172634D01*
X8497352Y8173464D01*
X8496964Y8174517D01*
X8496632Y8175679D01*
X8496411Y8177008D01*
X8496300Y8178393D01*
X8501062Y8178836D01*
Y8178780D01*
Y8178725D01*
X8501117Y8178559D01*
Y8178337D01*
X8501228Y8177839D01*
X8501394Y8177119D01*
X8501616Y8176399D01*
X8501837Y8175569D01*
X8502225Y8174793D01*
X8502612Y8174074D01*
X8502668Y8174018D01*
X8502834Y8173797D01*
X8503111Y8173409D01*
X8503554Y8173022D01*
X8504107Y8172523D01*
X8504717Y8172025D01*
X8505547Y8171526D01*
X8506433Y8171083D01*
X8506488D01*
X8506544Y8171028D01*
X8506710Y8170973D01*
X8506876Y8170917D01*
X8507430Y8170751D01*
X8508150Y8170530D01*
X8509036Y8170308D01*
X8510032Y8170142D01*
X8511140Y8170031D01*
X8512358Y8169976D01*
X8512856D01*
X8513410Y8170031D01*
X8514074Y8170087D01*
X8514850Y8170198D01*
X8515736Y8170308D01*
X8516622Y8170530D01*
X8517452Y8170807D01*
X8517563Y8170862D01*
X8517840Y8170973D01*
X8518227Y8171194D01*
X8518726Y8171416D01*
X8519224Y8171803D01*
X8519778Y8172191D01*
X8520331Y8172634D01*
X8520774Y8173188D01*
X8520830Y8173243D01*
X8520941Y8173464D01*
X8521107Y8173741D01*
X8521328Y8174184D01*
X8521550Y8174627D01*
X8521716Y8175181D01*
X8521826Y8175790D01*
X8521882Y8176455D01*
Y8176510D01*
Y8176787D01*
X8521826Y8177119D01*
X8521771Y8177562D01*
X8521605Y8178005D01*
X8521439Y8178559D01*
X8521162Y8179112D01*
X8520774Y8179611D01*
X8520719Y8179666D01*
X8520553Y8179832D01*
X8520331Y8180054D01*
X8519944Y8180386D01*
X8519501Y8180718D01*
X8518892Y8181106D01*
X8518172Y8181493D01*
X8517341Y8181826D01*
X8517286Y8181881D01*
X8517009Y8181936D01*
X8516566Y8182103D01*
X8516289Y8182158D01*
X8515902Y8182269D01*
X8515514Y8182435D01*
X8515016Y8182545D01*
X8514462Y8182712D01*
X8513798Y8182878D01*
X8513133Y8183044D01*
X8512358Y8183265D01*
X8511472Y8183487D01*
X8510531Y8183708D01*
X8510475D01*
X8510309Y8183764D01*
X8510032Y8183819D01*
X8509700Y8183930D01*
X8509257Y8184041D01*
X8508759Y8184151D01*
X8507651Y8184484D01*
X8506433Y8184871D01*
X8505160Y8185259D01*
X8504052Y8185646D01*
X8503554Y8185868D01*
X8503111Y8186089D01*
X8503055D01*
X8503000Y8186145D01*
X8502668Y8186366D01*
X8502169Y8186643D01*
X8501616Y8187086D01*
X8500951Y8187584D01*
X8500287Y8188193D01*
X8499622Y8188913D01*
X8499069Y8189688D01*
X8499013Y8189799D01*
X8498847Y8190076D01*
X8498626Y8190519D01*
X8498404Y8191073D01*
X8498183Y8191793D01*
X8497961Y8192623D01*
X8497795Y8193509D01*
X8497740Y8194450D01*
Y8194506D01*
Y8194561D01*
Y8194727D01*
Y8194949D01*
X8497850Y8195503D01*
X8497961Y8196222D01*
X8498127Y8197053D01*
X8498404Y8197994D01*
X8498792Y8198936D01*
X8499345Y8199877D01*
Y8199932D01*
X8499401Y8199988D01*
X8499678Y8200320D01*
X8500065Y8200763D01*
X8500564Y8201317D01*
X8501228Y8201926D01*
X8502059Y8202590D01*
X8503055Y8203199D01*
X8504163Y8203753D01*
X8504218D01*
X8504329Y8203808D01*
X8504495Y8203864D01*
X8504717Y8203974D01*
X8504993Y8204085D01*
X8505381Y8204196D01*
X8506212Y8204417D01*
X8507264Y8204639D01*
X8508482Y8204860D01*
X8509755Y8205027D01*
X8511195Y8205082D01*
X8511915D01*
X8512303Y8205027D01*
D02*
G37*
G36*
X8607930Y8204528D02*
X8608373Y8204473D01*
X8608927Y8204417D01*
X8609536Y8204307D01*
X8610145Y8204196D01*
X8611585Y8203808D01*
X8613024Y8203255D01*
X8613744Y8202922D01*
X8614464Y8202535D01*
X8615128Y8202036D01*
X8615737Y8201483D01*
X8615793Y8201427D01*
X8615904Y8201372D01*
X8616014Y8201150D01*
X8616236Y8200929D01*
X8616513Y8200652D01*
X8616789Y8200265D01*
X8617066Y8199877D01*
X8617399Y8199379D01*
X8617952Y8198327D01*
X8618506Y8196998D01*
X8618727Y8196333D01*
X8618838Y8195558D01*
X8618949Y8194783D01*
X8619004Y8193952D01*
Y8193841D01*
Y8193565D01*
X8618949Y8193122D01*
X8618894Y8192512D01*
X8618783Y8191848D01*
X8618561Y8191073D01*
X8618340Y8190242D01*
X8618008Y8189412D01*
X8617952Y8189301D01*
X8617842Y8189024D01*
X8617620Y8188581D01*
X8617288Y8187972D01*
X8616845Y8187307D01*
X8616291Y8186477D01*
X8615627Y8185646D01*
X8614851Y8184705D01*
X8614741Y8184594D01*
X8614464Y8184262D01*
X8614187Y8183985D01*
X8613910Y8183708D01*
X8613578Y8183376D01*
X8613135Y8182933D01*
X8612692Y8182490D01*
X8612138Y8181992D01*
X8611585Y8181438D01*
X8610920Y8180829D01*
X8610200Y8180220D01*
X8609425Y8179500D01*
X8608539Y8178780D01*
X8607653Y8178005D01*
X8607598Y8177950D01*
X8607487Y8177839D01*
X8607265Y8177673D01*
X8606989Y8177451D01*
X8606656Y8177119D01*
X8606269Y8176787D01*
X8605383Y8176067D01*
X8604442Y8175236D01*
X8603556Y8174406D01*
X8602780Y8173686D01*
X8602448Y8173409D01*
X8602171Y8173132D01*
X8602116Y8173077D01*
X8601950Y8172911D01*
X8601728Y8172689D01*
X8601451Y8172357D01*
X8601175Y8171969D01*
X8600842Y8171582D01*
X8600178Y8170641D01*
X8619060D01*
Y8166100D01*
X8593644D01*
Y8166155D01*
Y8166377D01*
Y8166709D01*
X8593699Y8167152D01*
X8593755Y8167650D01*
X8593865Y8168204D01*
X8593976Y8168758D01*
X8594198Y8169367D01*
Y8169422D01*
X8594253Y8169478D01*
X8594364Y8169810D01*
X8594585Y8170308D01*
X8594918Y8170973D01*
X8595361Y8171748D01*
X8595914Y8172634D01*
X8596523Y8173520D01*
X8597299Y8174461D01*
Y8174517D01*
X8597409Y8174572D01*
X8597686Y8174904D01*
X8598184Y8175402D01*
X8598904Y8176122D01*
X8599735Y8176953D01*
X8600787Y8177950D01*
X8602061Y8179057D01*
X8603445Y8180220D01*
X8603500Y8180275D01*
X8603722Y8180441D01*
X8604054Y8180718D01*
X8604442Y8181050D01*
X8604940Y8181493D01*
X8605549Y8181992D01*
X8606158Y8182545D01*
X8606878Y8183155D01*
X8608262Y8184484D01*
X8609646Y8185812D01*
X8610311Y8186477D01*
X8610920Y8187141D01*
X8611474Y8187750D01*
X8611917Y8188360D01*
Y8188415D01*
X8612027Y8188470D01*
X8612138Y8188636D01*
X8612249Y8188858D01*
X8612637Y8189467D01*
X8613080Y8190187D01*
X8613467Y8191073D01*
X8613855Y8192014D01*
X8614076Y8193066D01*
X8614187Y8194063D01*
Y8194118D01*
Y8194174D01*
X8614132Y8194506D01*
X8614076Y8195060D01*
X8613910Y8195669D01*
X8613689Y8196444D01*
X8613301Y8197219D01*
X8612803Y8197994D01*
X8612138Y8198769D01*
X8612027Y8198880D01*
X8611751Y8199102D01*
X8611363Y8199379D01*
X8610754Y8199766D01*
X8609979Y8200098D01*
X8609093Y8200431D01*
X8608041Y8200652D01*
X8606878Y8200708D01*
X8606546D01*
X8606324Y8200652D01*
X8605660Y8200597D01*
X8604884Y8200431D01*
X8604054Y8200209D01*
X8603113Y8199822D01*
X8602227Y8199323D01*
X8601396Y8198659D01*
X8601285Y8198548D01*
X8601064Y8198271D01*
X8600732Y8197828D01*
X8600399Y8197164D01*
X8600012Y8196388D01*
X8599680Y8195392D01*
X8599458Y8194284D01*
X8599347Y8193011D01*
X8594530Y8193509D01*
Y8193565D01*
X8594585Y8193731D01*
Y8194007D01*
X8594641Y8194395D01*
X8594751Y8194838D01*
X8594862Y8195336D01*
X8595028Y8195946D01*
X8595194Y8196555D01*
X8595637Y8197884D01*
X8596302Y8199212D01*
X8596689Y8199877D01*
X8597188Y8200541D01*
X8597686Y8201150D01*
X8598240Y8201704D01*
X8598295Y8201760D01*
X8598406Y8201815D01*
X8598572Y8201981D01*
X8598849Y8202147D01*
X8599181Y8202369D01*
X8599569Y8202590D01*
X8600012Y8202867D01*
X8600565Y8203144D01*
X8601175Y8203421D01*
X8601839Y8203698D01*
X8602559Y8203919D01*
X8603334Y8204141D01*
X8604165Y8204307D01*
X8605051Y8204473D01*
X8605992Y8204528D01*
X8606989Y8204584D01*
X8607542D01*
X8607930Y8204528D01*
D02*
G37*
G36*
X8582237Y8166100D02*
X8577531D01*
Y8196056D01*
X8577475Y8196001D01*
X8577198Y8195779D01*
X8576866Y8195447D01*
X8576313Y8195060D01*
X8575703Y8194561D01*
X8574928Y8194007D01*
X8574042Y8193398D01*
X8573046Y8192789D01*
X8572990D01*
X8572935Y8192734D01*
X8572603Y8192512D01*
X8572049Y8192236D01*
X8571384Y8191903D01*
X8570609Y8191516D01*
X8569779Y8191128D01*
X8568948Y8190741D01*
X8568117Y8190408D01*
Y8194949D01*
X8568173D01*
X8568284Y8195060D01*
X8568505Y8195115D01*
X8568782Y8195281D01*
X8569114Y8195447D01*
X8569502Y8195669D01*
X8570443Y8196222D01*
X8571551Y8196831D01*
X8572658Y8197607D01*
X8573821Y8198493D01*
X8574984Y8199434D01*
X8575039Y8199489D01*
X8575094Y8199545D01*
X8575260Y8199711D01*
X8575482Y8199877D01*
X8575980Y8200431D01*
X8576645Y8201095D01*
X8577309Y8201870D01*
X8578029Y8202756D01*
X8578638Y8203642D01*
X8579192Y8204584D01*
X8582237D01*
Y8166100D01*
D02*
G37*
G36*
X8561196Y8199877D02*
X8548571D01*
Y8166100D01*
X8543477D01*
Y8199877D01*
X8530852D01*
Y8204417D01*
X8561196D01*
Y8199877D01*
D02*
G37*
G36*
X10036303Y8705027D02*
X10036690D01*
X10037742Y8704916D01*
X10038905Y8704750D01*
X10040123Y8704473D01*
X10041452Y8704141D01*
X10042670Y8703698D01*
X10042726D01*
X10042836Y8703642D01*
X10043003Y8703531D01*
X10043224Y8703421D01*
X10043778Y8703144D01*
X10044498Y8702646D01*
X10045328Y8702092D01*
X10046159Y8701372D01*
X10046934Y8700541D01*
X10047654Y8699600D01*
Y8699545D01*
X10047709Y8699489D01*
X10047820Y8699323D01*
X10047931Y8699157D01*
X10048207Y8698603D01*
X10048540Y8697884D01*
X10048927Y8696998D01*
X10049204Y8695946D01*
X10049481Y8694838D01*
X10049592Y8693620D01*
X10044719Y8693232D01*
Y8693288D01*
Y8693398D01*
X10044664Y8693565D01*
X10044608Y8693841D01*
X10044442Y8694450D01*
X10044221Y8695281D01*
X10043888Y8696167D01*
X10043390Y8697053D01*
X10042781Y8697884D01*
X10042006Y8698659D01*
X10041895Y8698714D01*
X10041618Y8698936D01*
X10041065Y8699268D01*
X10040345Y8699600D01*
X10039403Y8699932D01*
X10038296Y8700265D01*
X10036912Y8700486D01*
X10035361Y8700541D01*
X10034586D01*
X10034254Y8700486D01*
X10033811Y8700431D01*
X10032814Y8700320D01*
X10031707Y8700098D01*
X10030599Y8699822D01*
X10029547Y8699379D01*
X10029104Y8699102D01*
X10028661Y8698825D01*
X10028550Y8698769D01*
X10028329Y8698548D01*
X10027997Y8698160D01*
X10027664Y8697717D01*
X10027277Y8697108D01*
X10026945Y8696444D01*
X10026723Y8695669D01*
X10026612Y8694783D01*
Y8694672D01*
Y8694450D01*
X10026668Y8694063D01*
X10026779Y8693620D01*
X10026945Y8693066D01*
X10027221Y8692512D01*
X10027554Y8691959D01*
X10028052Y8691405D01*
X10028107Y8691350D01*
X10028384Y8691184D01*
X10028606Y8691017D01*
X10028827Y8690907D01*
X10029160Y8690741D01*
X10029547Y8690519D01*
X10030045Y8690353D01*
X10030599Y8690131D01*
X10031208Y8689910D01*
X10031928Y8689633D01*
X10032703Y8689412D01*
X10033589Y8689135D01*
X10034586Y8688913D01*
X10035693Y8688636D01*
X10035749D01*
X10035970Y8688581D01*
X10036303Y8688526D01*
X10036690Y8688415D01*
X10037188Y8688304D01*
X10037798Y8688138D01*
X10038407Y8687972D01*
X10039071Y8687806D01*
X10040511Y8687418D01*
X10041895Y8687031D01*
X10042560Y8686809D01*
X10043169Y8686588D01*
X10043722Y8686422D01*
X10044165Y8686200D01*
X10044221D01*
X10044331Y8686145D01*
X10044498Y8686034D01*
X10044719Y8685923D01*
X10045328Y8685591D01*
X10046048Y8685148D01*
X10046879Y8684539D01*
X10047709Y8683874D01*
X10048484Y8683099D01*
X10049149Y8682269D01*
X10049204Y8682158D01*
X10049426Y8681881D01*
X10049647Y8681383D01*
X10049979Y8680718D01*
X10050256Y8679943D01*
X10050533Y8679002D01*
X10050699Y8677950D01*
X10050755Y8676842D01*
Y8676787D01*
Y8676731D01*
Y8676565D01*
Y8676344D01*
X10050644Y8675735D01*
X10050533Y8674960D01*
X10050312Y8674074D01*
X10050035Y8673132D01*
X10049592Y8672136D01*
X10048983Y8671083D01*
Y8671028D01*
X10048927Y8670973D01*
X10048650Y8670641D01*
X10048263Y8670142D01*
X10047709Y8669588D01*
X10046989Y8668924D01*
X10046103Y8668204D01*
X10045107Y8667540D01*
X10043944Y8666931D01*
X10043888D01*
X10043778Y8666875D01*
X10043612Y8666820D01*
X10043390Y8666709D01*
X10043058Y8666598D01*
X10042670Y8666432D01*
X10041784Y8666211D01*
X10040732Y8665934D01*
X10039459Y8665657D01*
X10038074Y8665491D01*
X10036579Y8665436D01*
X10035693D01*
X10035250Y8665491D01*
X10034752D01*
X10034198Y8665546D01*
X10033534Y8665602D01*
X10032150Y8665823D01*
X10030710Y8666045D01*
X10029270Y8666432D01*
X10027886Y8666931D01*
X10027831D01*
X10027720Y8666986D01*
X10027554Y8667097D01*
X10027332Y8667207D01*
X10026668Y8667540D01*
X10025893Y8668038D01*
X10025007Y8668703D01*
X10024065Y8669478D01*
X10023179Y8670419D01*
X10022349Y8671471D01*
Y8671526D01*
X10022238Y8671637D01*
X10022183Y8671803D01*
X10022017Y8672025D01*
X10021906Y8672302D01*
X10021740Y8672634D01*
X10021352Y8673464D01*
X10020964Y8674517D01*
X10020632Y8675679D01*
X10020411Y8677008D01*
X10020300Y8678393D01*
X10025062Y8678836D01*
Y8678780D01*
Y8678725D01*
X10025117Y8678559D01*
Y8678337D01*
X10025228Y8677839D01*
X10025394Y8677119D01*
X10025616Y8676399D01*
X10025837Y8675569D01*
X10026225Y8674793D01*
X10026612Y8674074D01*
X10026668Y8674018D01*
X10026834Y8673797D01*
X10027111Y8673409D01*
X10027554Y8673022D01*
X10028107Y8672523D01*
X10028717Y8672025D01*
X10029547Y8671526D01*
X10030433Y8671083D01*
X10030488D01*
X10030544Y8671028D01*
X10030710Y8670973D01*
X10030876Y8670917D01*
X10031430Y8670751D01*
X10032150Y8670530D01*
X10033036Y8670308D01*
X10034032Y8670142D01*
X10035140Y8670031D01*
X10036358Y8669976D01*
X10036856D01*
X10037410Y8670031D01*
X10038074Y8670087D01*
X10038850Y8670198D01*
X10039736Y8670308D01*
X10040622Y8670530D01*
X10041452Y8670807D01*
X10041563Y8670862D01*
X10041840Y8670973D01*
X10042227Y8671194D01*
X10042726Y8671416D01*
X10043224Y8671803D01*
X10043778Y8672191D01*
X10044331Y8672634D01*
X10044774Y8673188D01*
X10044830Y8673243D01*
X10044941Y8673464D01*
X10045107Y8673741D01*
X10045328Y8674184D01*
X10045550Y8674627D01*
X10045716Y8675181D01*
X10045826Y8675790D01*
X10045882Y8676455D01*
Y8676510D01*
Y8676787D01*
X10045826Y8677119D01*
X10045771Y8677562D01*
X10045605Y8678005D01*
X10045439Y8678559D01*
X10045162Y8679112D01*
X10044774Y8679611D01*
X10044719Y8679666D01*
X10044553Y8679832D01*
X10044331Y8680054D01*
X10043944Y8680386D01*
X10043501Y8680718D01*
X10042892Y8681106D01*
X10042172Y8681493D01*
X10041341Y8681826D01*
X10041286Y8681881D01*
X10041009Y8681936D01*
X10040566Y8682103D01*
X10040289Y8682158D01*
X10039902Y8682269D01*
X10039514Y8682435D01*
X10039016Y8682545D01*
X10038462Y8682712D01*
X10037798Y8682878D01*
X10037133Y8683044D01*
X10036358Y8683265D01*
X10035472Y8683487D01*
X10034531Y8683708D01*
X10034475D01*
X10034309Y8683764D01*
X10034032Y8683819D01*
X10033700Y8683930D01*
X10033257Y8684041D01*
X10032759Y8684151D01*
X10031651Y8684484D01*
X10030433Y8684871D01*
X10029160Y8685259D01*
X10028052Y8685646D01*
X10027554Y8685868D01*
X10027111Y8686089D01*
X10027055D01*
X10027000Y8686145D01*
X10026668Y8686366D01*
X10026169Y8686643D01*
X10025616Y8687086D01*
X10024951Y8687584D01*
X10024287Y8688193D01*
X10023622Y8688913D01*
X10023069Y8689688D01*
X10023013Y8689799D01*
X10022847Y8690076D01*
X10022626Y8690519D01*
X10022404Y8691073D01*
X10022183Y8691793D01*
X10021961Y8692623D01*
X10021795Y8693509D01*
X10021740Y8694450D01*
Y8694506D01*
Y8694561D01*
Y8694727D01*
Y8694949D01*
X10021850Y8695503D01*
X10021961Y8696222D01*
X10022127Y8697053D01*
X10022404Y8697994D01*
X10022792Y8698936D01*
X10023345Y8699877D01*
Y8699932D01*
X10023401Y8699988D01*
X10023678Y8700320D01*
X10024065Y8700763D01*
X10024564Y8701317D01*
X10025228Y8701926D01*
X10026059Y8702590D01*
X10027055Y8703199D01*
X10028163Y8703753D01*
X10028218D01*
X10028329Y8703808D01*
X10028495Y8703864D01*
X10028717Y8703974D01*
X10028993Y8704085D01*
X10029381Y8704196D01*
X10030212Y8704417D01*
X10031264Y8704639D01*
X10032482Y8704860D01*
X10033755Y8705027D01*
X10035195Y8705082D01*
X10035915D01*
X10036303Y8705027D01*
D02*
G37*
G36*
X10112107Y8699434D02*
X10096769D01*
X10094720Y8689079D01*
X10094775Y8689135D01*
X10094886Y8689190D01*
X10095052Y8689301D01*
X10095329Y8689467D01*
X10095661Y8689633D01*
X10096049Y8689855D01*
X10096935Y8690298D01*
X10098042Y8690741D01*
X10099260Y8691128D01*
X10100589Y8691405D01*
X10101254Y8691516D01*
X10102472D01*
X10102804Y8691460D01*
X10103247Y8691405D01*
X10103746Y8691350D01*
X10104299Y8691239D01*
X10104908Y8691073D01*
X10106237Y8690685D01*
X10106957Y8690408D01*
X10107677Y8690021D01*
X10108397Y8689633D01*
X10109117Y8689190D01*
X10109781Y8688636D01*
X10110446Y8688027D01*
X10110501Y8687972D01*
X10110612Y8687861D01*
X10110778Y8687695D01*
X10110999Y8687418D01*
X10111276Y8687031D01*
X10111553Y8686643D01*
X10111885Y8686145D01*
X10112218Y8685591D01*
X10112494Y8684982D01*
X10112827Y8684317D01*
X10113103Y8683542D01*
X10113380Y8682767D01*
X10113602Y8681936D01*
X10113768Y8680995D01*
X10113879Y8680054D01*
X10113934Y8679057D01*
Y8679002D01*
Y8678836D01*
Y8678559D01*
X10113879Y8678171D01*
X10113823Y8677728D01*
X10113768Y8677230D01*
X10113657Y8676621D01*
X10113546Y8676012D01*
X10113214Y8674572D01*
X10112660Y8673077D01*
X10112328Y8672302D01*
X10111885Y8671582D01*
X10111442Y8670807D01*
X10110889Y8670087D01*
X10110833Y8670031D01*
X10110722Y8669865D01*
X10110501Y8669644D01*
X10110224Y8669367D01*
X10109837Y8669035D01*
X10109394Y8668592D01*
X10108840Y8668204D01*
X10108231Y8667761D01*
X10107566Y8667318D01*
X10106791Y8666931D01*
X10105960Y8666543D01*
X10105075Y8666155D01*
X10104133Y8665879D01*
X10103081Y8665657D01*
X10101974Y8665491D01*
X10100811Y8665436D01*
X10100313D01*
X10099925Y8665491D01*
X10099482Y8665546D01*
X10098984Y8665602D01*
X10098375Y8665657D01*
X10097765Y8665823D01*
X10096381Y8666155D01*
X10094997Y8666654D01*
X10094277Y8666986D01*
X10093557Y8667374D01*
X10092893Y8667817D01*
X10092228Y8668315D01*
X10092173Y8668370D01*
X10092062Y8668426D01*
X10091951Y8668647D01*
X10091730Y8668869D01*
X10091453Y8669145D01*
X10091176Y8669478D01*
X10090844Y8669921D01*
X10090567Y8670419D01*
X10090235Y8670917D01*
X10089903Y8671526D01*
X10089294Y8672855D01*
X10088795Y8674406D01*
X10088629Y8675236D01*
X10088518Y8676122D01*
X10093446Y8676510D01*
Y8676455D01*
Y8676344D01*
X10093502Y8676178D01*
X10093557Y8675901D01*
X10093723Y8675292D01*
X10093945Y8674461D01*
X10094277Y8673631D01*
X10094720Y8672689D01*
X10095274Y8671859D01*
X10095938Y8671083D01*
X10096049Y8671028D01*
X10096270Y8670807D01*
X10096713Y8670530D01*
X10097322Y8670198D01*
X10097987Y8669865D01*
X10098817Y8669588D01*
X10099759Y8669367D01*
X10100811Y8669312D01*
X10101143D01*
X10101365Y8669367D01*
X10102029Y8669422D01*
X10102804Y8669644D01*
X10103746Y8669921D01*
X10104687Y8670364D01*
X10105684Y8671028D01*
X10106127Y8671416D01*
X10106570Y8671859D01*
X10106625Y8671914D01*
X10106680Y8671969D01*
X10106791Y8672136D01*
X10106957Y8672302D01*
X10107345Y8672911D01*
X10107788Y8673686D01*
X10108175Y8674627D01*
X10108563Y8675790D01*
X10108840Y8677174D01*
X10108951Y8677894D01*
Y8678669D01*
Y8678725D01*
Y8678836D01*
Y8679057D01*
X10108895Y8679334D01*
Y8679666D01*
X10108840Y8680054D01*
X10108674Y8680940D01*
X10108397Y8681992D01*
X10108009Y8683044D01*
X10107456Y8684041D01*
X10106680Y8684982D01*
Y8685037D01*
X10106570Y8685093D01*
X10106293Y8685369D01*
X10105794Y8685757D01*
X10105130Y8686200D01*
X10104244Y8686588D01*
X10103247Y8686975D01*
X10102084Y8687252D01*
X10101420Y8687363D01*
X10100368D01*
X10099925Y8687307D01*
X10099371Y8687252D01*
X10098707Y8687086D01*
X10098042Y8686920D01*
X10097322Y8686643D01*
X10096603Y8686311D01*
X10096547Y8686255D01*
X10096326Y8686145D01*
X10095994Y8685868D01*
X10095551Y8685591D01*
X10095108Y8685203D01*
X10094665Y8684705D01*
X10094166Y8684207D01*
X10093779Y8683598D01*
X10089349Y8684207D01*
X10093059Y8703919D01*
X10112107D01*
Y8699434D01*
D02*
G37*
G36*
X10085196Y8699877D02*
X10072571D01*
Y8666100D01*
X10067477D01*
Y8699877D01*
X10054852D01*
Y8704417D01*
X10085196D01*
Y8699877D01*
D02*
G37*
G36*
X9782303Y8705027D02*
X9782690D01*
X9783742Y8704916D01*
X9784905Y8704750D01*
X9786123Y8704473D01*
X9787452Y8704141D01*
X9788670Y8703698D01*
X9788726D01*
X9788836Y8703642D01*
X9789003Y8703531D01*
X9789224Y8703421D01*
X9789778Y8703144D01*
X9790498Y8702646D01*
X9791328Y8702092D01*
X9792159Y8701372D01*
X9792934Y8700541D01*
X9793654Y8699600D01*
Y8699545D01*
X9793709Y8699489D01*
X9793820Y8699323D01*
X9793931Y8699157D01*
X9794207Y8698603D01*
X9794540Y8697884D01*
X9794927Y8696998D01*
X9795204Y8695946D01*
X9795481Y8694838D01*
X9795592Y8693620D01*
X9790719Y8693232D01*
Y8693288D01*
Y8693398D01*
X9790664Y8693565D01*
X9790608Y8693841D01*
X9790442Y8694450D01*
X9790221Y8695281D01*
X9789888Y8696167D01*
X9789390Y8697053D01*
X9788781Y8697884D01*
X9788006Y8698659D01*
X9787895Y8698714D01*
X9787618Y8698936D01*
X9787064Y8699268D01*
X9786345Y8699600D01*
X9785403Y8699932D01*
X9784296Y8700265D01*
X9782912Y8700486D01*
X9781361Y8700541D01*
X9780586D01*
X9780254Y8700486D01*
X9779811Y8700431D01*
X9778814Y8700320D01*
X9777707Y8700098D01*
X9776599Y8699822D01*
X9775547Y8699379D01*
X9775104Y8699102D01*
X9774661Y8698825D01*
X9774550Y8698769D01*
X9774329Y8698548D01*
X9773997Y8698160D01*
X9773664Y8697717D01*
X9773277Y8697108D01*
X9772945Y8696444D01*
X9772723Y8695669D01*
X9772612Y8694783D01*
Y8694672D01*
Y8694450D01*
X9772668Y8694063D01*
X9772779Y8693620D01*
X9772945Y8693066D01*
X9773221Y8692512D01*
X9773554Y8691959D01*
X9774052Y8691405D01*
X9774107Y8691350D01*
X9774384Y8691184D01*
X9774606Y8691017D01*
X9774827Y8690907D01*
X9775160Y8690741D01*
X9775547Y8690519D01*
X9776045Y8690353D01*
X9776599Y8690131D01*
X9777208Y8689910D01*
X9777928Y8689633D01*
X9778703Y8689412D01*
X9779589Y8689135D01*
X9780586Y8688913D01*
X9781693Y8688636D01*
X9781749D01*
X9781970Y8688581D01*
X9782303Y8688526D01*
X9782690Y8688415D01*
X9783188Y8688304D01*
X9783798Y8688138D01*
X9784407Y8687972D01*
X9785071Y8687806D01*
X9786511Y8687418D01*
X9787895Y8687031D01*
X9788560Y8686809D01*
X9789169Y8686588D01*
X9789722Y8686422D01*
X9790165Y8686200D01*
X9790221D01*
X9790331Y8686145D01*
X9790498Y8686034D01*
X9790719Y8685923D01*
X9791328Y8685591D01*
X9792048Y8685148D01*
X9792879Y8684539D01*
X9793709Y8683874D01*
X9794484Y8683099D01*
X9795149Y8682269D01*
X9795204Y8682158D01*
X9795426Y8681881D01*
X9795647Y8681383D01*
X9795979Y8680718D01*
X9796256Y8679943D01*
X9796533Y8679002D01*
X9796699Y8677950D01*
X9796755Y8676842D01*
Y8676787D01*
Y8676731D01*
Y8676565D01*
Y8676344D01*
X9796644Y8675735D01*
X9796533Y8674960D01*
X9796312Y8674074D01*
X9796035Y8673132D01*
X9795592Y8672136D01*
X9794983Y8671083D01*
Y8671028D01*
X9794927Y8670973D01*
X9794650Y8670641D01*
X9794263Y8670142D01*
X9793709Y8669588D01*
X9792989Y8668924D01*
X9792103Y8668204D01*
X9791107Y8667540D01*
X9789944Y8666931D01*
X9789888D01*
X9789778Y8666875D01*
X9789612Y8666820D01*
X9789390Y8666709D01*
X9789058Y8666598D01*
X9788670Y8666432D01*
X9787784Y8666211D01*
X9786732Y8665934D01*
X9785459Y8665657D01*
X9784074Y8665491D01*
X9782579Y8665436D01*
X9781693D01*
X9781250Y8665491D01*
X9780752D01*
X9780198Y8665546D01*
X9779534Y8665602D01*
X9778150Y8665823D01*
X9776710Y8666045D01*
X9775270Y8666432D01*
X9773886Y8666931D01*
X9773831D01*
X9773720Y8666986D01*
X9773554Y8667097D01*
X9773332Y8667207D01*
X9772668Y8667540D01*
X9771893Y8668038D01*
X9771007Y8668703D01*
X9770065Y8669478D01*
X9769179Y8670419D01*
X9768349Y8671471D01*
Y8671526D01*
X9768238Y8671637D01*
X9768183Y8671803D01*
X9768017Y8672025D01*
X9767906Y8672302D01*
X9767740Y8672634D01*
X9767352Y8673464D01*
X9766964Y8674517D01*
X9766632Y8675679D01*
X9766411Y8677008D01*
X9766300Y8678393D01*
X9771062Y8678836D01*
Y8678780D01*
Y8678725D01*
X9771117Y8678559D01*
Y8678337D01*
X9771228Y8677839D01*
X9771394Y8677119D01*
X9771616Y8676399D01*
X9771837Y8675569D01*
X9772225Y8674793D01*
X9772612Y8674074D01*
X9772668Y8674018D01*
X9772834Y8673797D01*
X9773111Y8673409D01*
X9773554Y8673022D01*
X9774107Y8672523D01*
X9774717Y8672025D01*
X9775547Y8671526D01*
X9776433Y8671083D01*
X9776488D01*
X9776544Y8671028D01*
X9776710Y8670973D01*
X9776876Y8670917D01*
X9777430Y8670751D01*
X9778150Y8670530D01*
X9779036Y8670308D01*
X9780032Y8670142D01*
X9781140Y8670031D01*
X9782358Y8669976D01*
X9782856D01*
X9783410Y8670031D01*
X9784074Y8670087D01*
X9784850Y8670198D01*
X9785736Y8670308D01*
X9786622Y8670530D01*
X9787452Y8670807D01*
X9787563Y8670862D01*
X9787840Y8670973D01*
X9788227Y8671194D01*
X9788726Y8671416D01*
X9789224Y8671803D01*
X9789778Y8672191D01*
X9790331Y8672634D01*
X9790774Y8673188D01*
X9790830Y8673243D01*
X9790941Y8673464D01*
X9791107Y8673741D01*
X9791328Y8674184D01*
X9791550Y8674627D01*
X9791716Y8675181D01*
X9791826Y8675790D01*
X9791882Y8676455D01*
Y8676510D01*
Y8676787D01*
X9791826Y8677119D01*
X9791771Y8677562D01*
X9791605Y8678005D01*
X9791439Y8678559D01*
X9791162Y8679112D01*
X9790774Y8679611D01*
X9790719Y8679666D01*
X9790553Y8679832D01*
X9790331Y8680054D01*
X9789944Y8680386D01*
X9789501Y8680718D01*
X9788892Y8681106D01*
X9788172Y8681493D01*
X9787341Y8681826D01*
X9787286Y8681881D01*
X9787009Y8681936D01*
X9786566Y8682103D01*
X9786289Y8682158D01*
X9785902Y8682269D01*
X9785514Y8682435D01*
X9785016Y8682545D01*
X9784462Y8682712D01*
X9783798Y8682878D01*
X9783133Y8683044D01*
X9782358Y8683265D01*
X9781472Y8683487D01*
X9780531Y8683708D01*
X9780475D01*
X9780309Y8683764D01*
X9780032Y8683819D01*
X9779700Y8683930D01*
X9779257Y8684041D01*
X9778759Y8684151D01*
X9777651Y8684484D01*
X9776433Y8684871D01*
X9775160Y8685259D01*
X9774052Y8685646D01*
X9773554Y8685868D01*
X9773111Y8686089D01*
X9773055D01*
X9773000Y8686145D01*
X9772668Y8686366D01*
X9772169Y8686643D01*
X9771616Y8687086D01*
X9770951Y8687584D01*
X9770287Y8688193D01*
X9769622Y8688913D01*
X9769069Y8689688D01*
X9769013Y8689799D01*
X9768847Y8690076D01*
X9768626Y8690519D01*
X9768404Y8691073D01*
X9768183Y8691793D01*
X9767961Y8692623D01*
X9767795Y8693509D01*
X9767740Y8694450D01*
Y8694506D01*
Y8694561D01*
Y8694727D01*
Y8694949D01*
X9767850Y8695503D01*
X9767961Y8696222D01*
X9768127Y8697053D01*
X9768404Y8697994D01*
X9768792Y8698936D01*
X9769345Y8699877D01*
Y8699932D01*
X9769401Y8699988D01*
X9769678Y8700320D01*
X9770065Y8700763D01*
X9770564Y8701317D01*
X9771228Y8701926D01*
X9772059Y8702590D01*
X9773055Y8703199D01*
X9774163Y8703753D01*
X9774218D01*
X9774329Y8703808D01*
X9774495Y8703864D01*
X9774717Y8703974D01*
X9774993Y8704085D01*
X9775381Y8704196D01*
X9776212Y8704417D01*
X9777264Y8704639D01*
X9778482Y8704860D01*
X9779755Y8705027D01*
X9781195Y8705082D01*
X9781915D01*
X9782303Y8705027D01*
D02*
G37*
G36*
X9859657Y8700209D02*
X9859602Y8700154D01*
X9859491Y8700043D01*
X9859270Y8699822D01*
X9859048Y8699489D01*
X9858716Y8699102D01*
X9858273Y8698659D01*
X9857830Y8698105D01*
X9857332Y8697441D01*
X9856833Y8696776D01*
X9856224Y8696001D01*
X9855615Y8695115D01*
X9855006Y8694229D01*
X9854341Y8693232D01*
X9853677Y8692180D01*
X9853013Y8691017D01*
X9852348Y8689855D01*
X9852293Y8689799D01*
X9852182Y8689578D01*
X9852016Y8689246D01*
X9851739Y8688747D01*
X9851462Y8688138D01*
X9851130Y8687474D01*
X9850742Y8686698D01*
X9850355Y8685812D01*
X9849912Y8684816D01*
X9849413Y8683819D01*
X9848970Y8682712D01*
X9848527Y8681549D01*
X9847641Y8679168D01*
X9846811Y8676621D01*
Y8676565D01*
X9846756Y8676399D01*
X9846700Y8676122D01*
X9846589Y8675790D01*
X9846479Y8675347D01*
X9846368Y8674793D01*
X9846202Y8674184D01*
X9846091Y8673520D01*
X9845925Y8672745D01*
X9845759Y8671914D01*
X9845482Y8670142D01*
X9845205Y8668204D01*
X9845039Y8666100D01*
X9840222D01*
Y8666155D01*
Y8666322D01*
Y8666543D01*
X9840277Y8666875D01*
Y8667318D01*
X9840332Y8667872D01*
X9840388Y8668481D01*
X9840443Y8669145D01*
X9840554Y8669921D01*
X9840665Y8670696D01*
X9840831Y8671637D01*
X9840997Y8672579D01*
X9841163Y8673575D01*
X9841384Y8674683D01*
X9841938Y8676953D01*
Y8677008D01*
X9841994Y8677230D01*
X9842104Y8677562D01*
X9842270Y8678060D01*
X9842436Y8678614D01*
X9842658Y8679279D01*
X9842879Y8680054D01*
X9843212Y8680884D01*
X9843544Y8681826D01*
X9843876Y8682767D01*
X9844707Y8684871D01*
X9845703Y8687086D01*
X9846811Y8689301D01*
X9846866Y8689356D01*
X9846977Y8689578D01*
X9847143Y8689855D01*
X9847365Y8690298D01*
X9847641Y8690796D01*
X9848029Y8691405D01*
X9848417Y8692069D01*
X9848860Y8692789D01*
X9849912Y8694395D01*
X9851019Y8696056D01*
X9852293Y8697773D01*
X9853622Y8699379D01*
X9834851D01*
Y8703919D01*
X9859657D01*
Y8700209D01*
D02*
G37*
G36*
X9831196Y8699877D02*
X9818571D01*
Y8666100D01*
X9813477D01*
Y8699877D01*
X9800852D01*
Y8704417D01*
X9831196D01*
Y8699877D01*
D02*
G37*
G36*
X9528303Y8705027D02*
X9528690D01*
X9529742Y8704916D01*
X9530905Y8704750D01*
X9532123Y8704473D01*
X9533452Y8704141D01*
X9534670Y8703698D01*
X9534726D01*
X9534836Y8703642D01*
X9535003Y8703531D01*
X9535224Y8703421D01*
X9535778Y8703144D01*
X9536498Y8702646D01*
X9537328Y8702092D01*
X9538159Y8701372D01*
X9538934Y8700541D01*
X9539654Y8699600D01*
Y8699545D01*
X9539709Y8699489D01*
X9539820Y8699323D01*
X9539931Y8699157D01*
X9540207Y8698603D01*
X9540540Y8697884D01*
X9540927Y8696998D01*
X9541204Y8695946D01*
X9541481Y8694838D01*
X9541592Y8693620D01*
X9536719Y8693232D01*
Y8693288D01*
Y8693398D01*
X9536664Y8693565D01*
X9536608Y8693841D01*
X9536442Y8694450D01*
X9536221Y8695281D01*
X9535888Y8696167D01*
X9535390Y8697053D01*
X9534781Y8697884D01*
X9534006Y8698659D01*
X9533895Y8698714D01*
X9533618Y8698936D01*
X9533064Y8699268D01*
X9532345Y8699600D01*
X9531403Y8699932D01*
X9530296Y8700265D01*
X9528912Y8700486D01*
X9527361Y8700541D01*
X9526586D01*
X9526254Y8700486D01*
X9525811Y8700431D01*
X9524814Y8700320D01*
X9523707Y8700098D01*
X9522599Y8699822D01*
X9521547Y8699379D01*
X9521104Y8699102D01*
X9520661Y8698825D01*
X9520550Y8698769D01*
X9520329Y8698548D01*
X9519997Y8698160D01*
X9519664Y8697717D01*
X9519277Y8697108D01*
X9518945Y8696444D01*
X9518723Y8695669D01*
X9518612Y8694783D01*
Y8694672D01*
Y8694450D01*
X9518668Y8694063D01*
X9518779Y8693620D01*
X9518945Y8693066D01*
X9519221Y8692512D01*
X9519554Y8691959D01*
X9520052Y8691405D01*
X9520107Y8691350D01*
X9520384Y8691184D01*
X9520606Y8691017D01*
X9520827Y8690907D01*
X9521160Y8690741D01*
X9521547Y8690519D01*
X9522045Y8690353D01*
X9522599Y8690131D01*
X9523208Y8689910D01*
X9523928Y8689633D01*
X9524703Y8689412D01*
X9525589Y8689135D01*
X9526586Y8688913D01*
X9527693Y8688636D01*
X9527749D01*
X9527970Y8688581D01*
X9528303Y8688526D01*
X9528690Y8688415D01*
X9529188Y8688304D01*
X9529798Y8688138D01*
X9530407Y8687972D01*
X9531071Y8687806D01*
X9532511Y8687418D01*
X9533895Y8687031D01*
X9534560Y8686809D01*
X9535169Y8686588D01*
X9535722Y8686422D01*
X9536165Y8686200D01*
X9536221D01*
X9536331Y8686145D01*
X9536498Y8686034D01*
X9536719Y8685923D01*
X9537328Y8685591D01*
X9538048Y8685148D01*
X9538879Y8684539D01*
X9539709Y8683874D01*
X9540484Y8683099D01*
X9541149Y8682269D01*
X9541204Y8682158D01*
X9541426Y8681881D01*
X9541647Y8681383D01*
X9541979Y8680718D01*
X9542256Y8679943D01*
X9542533Y8679002D01*
X9542699Y8677950D01*
X9542755Y8676842D01*
Y8676787D01*
Y8676731D01*
Y8676565D01*
Y8676344D01*
X9542644Y8675735D01*
X9542533Y8674960D01*
X9542312Y8674074D01*
X9542035Y8673132D01*
X9541592Y8672136D01*
X9540983Y8671083D01*
Y8671028D01*
X9540927Y8670973D01*
X9540650Y8670641D01*
X9540263Y8670142D01*
X9539709Y8669588D01*
X9538989Y8668924D01*
X9538103Y8668204D01*
X9537107Y8667540D01*
X9535944Y8666931D01*
X9535888D01*
X9535778Y8666875D01*
X9535612Y8666820D01*
X9535390Y8666709D01*
X9535058Y8666598D01*
X9534670Y8666432D01*
X9533784Y8666211D01*
X9532732Y8665934D01*
X9531459Y8665657D01*
X9530074Y8665491D01*
X9528579Y8665436D01*
X9527693D01*
X9527250Y8665491D01*
X9526752D01*
X9526198Y8665546D01*
X9525534Y8665602D01*
X9524150Y8665823D01*
X9522710Y8666045D01*
X9521270Y8666432D01*
X9519886Y8666931D01*
X9519831D01*
X9519720Y8666986D01*
X9519554Y8667097D01*
X9519332Y8667207D01*
X9518668Y8667540D01*
X9517893Y8668038D01*
X9517007Y8668703D01*
X9516065Y8669478D01*
X9515179Y8670419D01*
X9514349Y8671471D01*
Y8671526D01*
X9514238Y8671637D01*
X9514183Y8671803D01*
X9514017Y8672025D01*
X9513906Y8672302D01*
X9513740Y8672634D01*
X9513352Y8673464D01*
X9512964Y8674517D01*
X9512632Y8675679D01*
X9512411Y8677008D01*
X9512300Y8678393D01*
X9517062Y8678836D01*
Y8678780D01*
Y8678725D01*
X9517117Y8678559D01*
Y8678337D01*
X9517228Y8677839D01*
X9517394Y8677119D01*
X9517616Y8676399D01*
X9517837Y8675569D01*
X9518225Y8674793D01*
X9518612Y8674074D01*
X9518668Y8674018D01*
X9518834Y8673797D01*
X9519111Y8673409D01*
X9519554Y8673022D01*
X9520107Y8672523D01*
X9520717Y8672025D01*
X9521547Y8671526D01*
X9522433Y8671083D01*
X9522488D01*
X9522544Y8671028D01*
X9522710Y8670973D01*
X9522876Y8670917D01*
X9523430Y8670751D01*
X9524150Y8670530D01*
X9525036Y8670308D01*
X9526032Y8670142D01*
X9527140Y8670031D01*
X9528358Y8669976D01*
X9528856D01*
X9529410Y8670031D01*
X9530074Y8670087D01*
X9530850Y8670198D01*
X9531736Y8670308D01*
X9532622Y8670530D01*
X9533452Y8670807D01*
X9533563Y8670862D01*
X9533840Y8670973D01*
X9534227Y8671194D01*
X9534726Y8671416D01*
X9535224Y8671803D01*
X9535778Y8672191D01*
X9536331Y8672634D01*
X9536774Y8673188D01*
X9536830Y8673243D01*
X9536941Y8673464D01*
X9537107Y8673741D01*
X9537328Y8674184D01*
X9537550Y8674627D01*
X9537716Y8675181D01*
X9537826Y8675790D01*
X9537882Y8676455D01*
Y8676510D01*
Y8676787D01*
X9537826Y8677119D01*
X9537771Y8677562D01*
X9537605Y8678005D01*
X9537439Y8678559D01*
X9537162Y8679112D01*
X9536774Y8679611D01*
X9536719Y8679666D01*
X9536553Y8679832D01*
X9536331Y8680054D01*
X9535944Y8680386D01*
X9535501Y8680718D01*
X9534892Y8681106D01*
X9534172Y8681493D01*
X9533341Y8681826D01*
X9533286Y8681881D01*
X9533009Y8681936D01*
X9532566Y8682103D01*
X9532289Y8682158D01*
X9531902Y8682269D01*
X9531514Y8682435D01*
X9531016Y8682545D01*
X9530462Y8682712D01*
X9529798Y8682878D01*
X9529133Y8683044D01*
X9528358Y8683265D01*
X9527472Y8683487D01*
X9526531Y8683708D01*
X9526475D01*
X9526309Y8683764D01*
X9526032Y8683819D01*
X9525700Y8683930D01*
X9525257Y8684041D01*
X9524759Y8684151D01*
X9523651Y8684484D01*
X9522433Y8684871D01*
X9521160Y8685259D01*
X9520052Y8685646D01*
X9519554Y8685868D01*
X9519111Y8686089D01*
X9519055D01*
X9519000Y8686145D01*
X9518668Y8686366D01*
X9518169Y8686643D01*
X9517616Y8687086D01*
X9516951Y8687584D01*
X9516287Y8688193D01*
X9515622Y8688913D01*
X9515069Y8689688D01*
X9515013Y8689799D01*
X9514847Y8690076D01*
X9514626Y8690519D01*
X9514404Y8691073D01*
X9514183Y8691793D01*
X9513961Y8692623D01*
X9513795Y8693509D01*
X9513740Y8694450D01*
Y8694506D01*
Y8694561D01*
Y8694727D01*
Y8694949D01*
X9513850Y8695503D01*
X9513961Y8696222D01*
X9514127Y8697053D01*
X9514404Y8697994D01*
X9514792Y8698936D01*
X9515345Y8699877D01*
Y8699932D01*
X9515401Y8699988D01*
X9515678Y8700320D01*
X9516065Y8700763D01*
X9516564Y8701317D01*
X9517228Y8701926D01*
X9518059Y8702590D01*
X9519055Y8703199D01*
X9520163Y8703753D01*
X9520218D01*
X9520329Y8703808D01*
X9520495Y8703864D01*
X9520717Y8703974D01*
X9520993Y8704085D01*
X9521381Y8704196D01*
X9522212Y8704417D01*
X9523264Y8704639D01*
X9524482Y8704860D01*
X9525755Y8705027D01*
X9527195Y8705082D01*
X9527915D01*
X9528303Y8705027D01*
D02*
G37*
G36*
X9598237Y8666100D02*
X9593531D01*
Y8696056D01*
X9593475Y8696001D01*
X9593198Y8695779D01*
X9592866Y8695447D01*
X9592313Y8695060D01*
X9591703Y8694561D01*
X9590928Y8694008D01*
X9590042Y8693398D01*
X9589046Y8692789D01*
X9588990D01*
X9588935Y8692734D01*
X9588603Y8692512D01*
X9588049Y8692236D01*
X9587384Y8691903D01*
X9586609Y8691516D01*
X9585779Y8691128D01*
X9584948Y8690741D01*
X9584117Y8690408D01*
Y8694949D01*
X9584173D01*
X9584284Y8695060D01*
X9584505Y8695115D01*
X9584782Y8695281D01*
X9585114Y8695447D01*
X9585502Y8695669D01*
X9586443Y8696222D01*
X9587551Y8696831D01*
X9588658Y8697607D01*
X9589821Y8698493D01*
X9590984Y8699434D01*
X9591039Y8699489D01*
X9591094Y8699545D01*
X9591260Y8699711D01*
X9591482Y8699877D01*
X9591980Y8700431D01*
X9592645Y8701095D01*
X9593309Y8701870D01*
X9594029Y8702756D01*
X9594638Y8703642D01*
X9595192Y8704584D01*
X9598237D01*
Y8666100D01*
D02*
G37*
G36*
X9577196Y8699877D02*
X9564571D01*
Y8666100D01*
X9559477D01*
Y8699877D01*
X9546852D01*
Y8704417D01*
X9577196D01*
Y8699877D01*
D02*
G37*
G36*
X9623930Y8704528D02*
X9624650Y8704417D01*
X9625480Y8704251D01*
X9626366Y8704030D01*
X9627308Y8703753D01*
X9628194Y8703310D01*
X9628249D01*
X9628304Y8703255D01*
X9628581Y8703089D01*
X9629024Y8702812D01*
X9629578Y8702424D01*
X9630187Y8701870D01*
X9630851Y8701261D01*
X9631461Y8700541D01*
X9632070Y8699711D01*
X9632125Y8699600D01*
X9632346Y8699323D01*
X9632568Y8698825D01*
X9632956Y8698105D01*
X9633288Y8697274D01*
X9633731Y8696333D01*
X9634118Y8695226D01*
X9634451Y8694008D01*
Y8693952D01*
X9634506Y8693841D01*
X9634561Y8693675D01*
X9634617Y8693398D01*
X9634672Y8693066D01*
X9634727Y8692679D01*
X9634838Y8692180D01*
X9634894Y8691627D01*
X9635004Y8691017D01*
X9635060Y8690353D01*
X9635115Y8689578D01*
X9635226Y8688803D01*
X9635281Y8687917D01*
Y8687031D01*
X9635337Y8686034D01*
Y8684982D01*
Y8684926D01*
Y8684705D01*
Y8684317D01*
Y8683874D01*
X9635281Y8683265D01*
Y8682601D01*
X9635226Y8681881D01*
X9635170Y8681106D01*
X9635004Y8679334D01*
X9634727Y8677507D01*
X9634395Y8675735D01*
X9634174Y8674904D01*
X9633897Y8674074D01*
Y8674018D01*
X9633842Y8673907D01*
X9633731Y8673686D01*
X9633620Y8673409D01*
X9633509Y8673022D01*
X9633288Y8672634D01*
X9632845Y8671693D01*
X9632291Y8670696D01*
X9631571Y8669588D01*
X9630741Y8668592D01*
X9629744Y8667650D01*
X9629689D01*
X9629633Y8667540D01*
X9629467Y8667429D01*
X9629246Y8667318D01*
X9628969Y8667152D01*
X9628692Y8666931D01*
X9627861Y8666543D01*
X9626865Y8666155D01*
X9625702Y8665768D01*
X9624318Y8665546D01*
X9622823Y8665436D01*
X9622269D01*
X9621881Y8665491D01*
X9621438Y8665546D01*
X9620884Y8665657D01*
X9620275Y8665768D01*
X9619611Y8665934D01*
X9618946Y8666155D01*
X9618227Y8666377D01*
X9617507Y8666709D01*
X9616787Y8667097D01*
X9616067Y8667540D01*
X9615347Y8668093D01*
X9614683Y8668703D01*
X9614074Y8669367D01*
X9614018Y8669422D01*
X9613908Y8669588D01*
X9613742Y8669865D01*
X9613465Y8670308D01*
X9613188Y8670807D01*
X9612911Y8671471D01*
X9612523Y8672246D01*
X9612191Y8673132D01*
X9611859Y8674129D01*
X9611527Y8675292D01*
X9611194Y8676565D01*
X9610918Y8678005D01*
X9610641Y8679555D01*
X9610475Y8681217D01*
X9610364Y8683044D01*
X9610308Y8684982D01*
Y8685037D01*
Y8685259D01*
Y8685646D01*
Y8686089D01*
X9610364Y8686698D01*
Y8687363D01*
X9610419Y8688083D01*
X9610475Y8688913D01*
X9610641Y8690630D01*
X9610918Y8692457D01*
X9611250Y8694284D01*
X9611471Y8695115D01*
X9611693Y8695946D01*
Y8696001D01*
X9611748Y8696112D01*
X9611859Y8696333D01*
X9611970Y8696610D01*
X9612080Y8696998D01*
X9612302Y8697385D01*
X9612745Y8698327D01*
X9613299Y8699323D01*
X9614018Y8700375D01*
X9614849Y8701427D01*
X9615846Y8702313D01*
X9615901D01*
X9615956Y8702424D01*
X9616123Y8702535D01*
X9616344Y8702646D01*
X9616621Y8702867D01*
X9616953Y8703033D01*
X9617784Y8703476D01*
X9618780Y8703864D01*
X9619943Y8704251D01*
X9621327Y8704473D01*
X9622823Y8704584D01*
X9623321D01*
X9623930Y8704528D01*
D02*
G37*
G36*
X10290303Y8705027D02*
X10290690D01*
X10291742Y8704916D01*
X10292905Y8704750D01*
X10294123Y8704473D01*
X10295452Y8704141D01*
X10296670Y8703698D01*
X10296726D01*
X10296836Y8703642D01*
X10297003Y8703531D01*
X10297224Y8703421D01*
X10297778Y8703144D01*
X10298498Y8702646D01*
X10299328Y8702092D01*
X10300159Y8701372D01*
X10300934Y8700541D01*
X10301654Y8699600D01*
Y8699545D01*
X10301709Y8699489D01*
X10301820Y8699323D01*
X10301931Y8699157D01*
X10302207Y8698603D01*
X10302540Y8697884D01*
X10302927Y8696998D01*
X10303204Y8695946D01*
X10303481Y8694838D01*
X10303592Y8693620D01*
X10298719Y8693232D01*
Y8693288D01*
Y8693398D01*
X10298664Y8693565D01*
X10298608Y8693841D01*
X10298442Y8694450D01*
X10298221Y8695281D01*
X10297888Y8696167D01*
X10297390Y8697053D01*
X10296781Y8697884D01*
X10296006Y8698659D01*
X10295895Y8698714D01*
X10295618Y8698936D01*
X10295064Y8699268D01*
X10294345Y8699600D01*
X10293403Y8699932D01*
X10292296Y8700265D01*
X10290912Y8700486D01*
X10289361Y8700541D01*
X10288586D01*
X10288254Y8700486D01*
X10287811Y8700431D01*
X10286814Y8700320D01*
X10285707Y8700098D01*
X10284599Y8699822D01*
X10283547Y8699379D01*
X10283104Y8699102D01*
X10282661Y8698825D01*
X10282550Y8698769D01*
X10282329Y8698548D01*
X10281997Y8698160D01*
X10281664Y8697717D01*
X10281277Y8697108D01*
X10280945Y8696444D01*
X10280723Y8695669D01*
X10280612Y8694783D01*
Y8694672D01*
Y8694450D01*
X10280668Y8694063D01*
X10280779Y8693620D01*
X10280945Y8693066D01*
X10281221Y8692512D01*
X10281554Y8691959D01*
X10282052Y8691405D01*
X10282107Y8691350D01*
X10282384Y8691184D01*
X10282606Y8691017D01*
X10282827Y8690907D01*
X10283160Y8690741D01*
X10283547Y8690519D01*
X10284045Y8690353D01*
X10284599Y8690131D01*
X10285208Y8689910D01*
X10285928Y8689633D01*
X10286703Y8689412D01*
X10287589Y8689135D01*
X10288586Y8688913D01*
X10289693Y8688636D01*
X10289749D01*
X10289970Y8688581D01*
X10290303Y8688526D01*
X10290690Y8688415D01*
X10291188Y8688304D01*
X10291798Y8688138D01*
X10292407Y8687972D01*
X10293071Y8687806D01*
X10294511Y8687418D01*
X10295895Y8687031D01*
X10296560Y8686809D01*
X10297169Y8686588D01*
X10297722Y8686422D01*
X10298165Y8686200D01*
X10298221D01*
X10298331Y8686145D01*
X10298498Y8686034D01*
X10298719Y8685923D01*
X10299328Y8685591D01*
X10300048Y8685148D01*
X10300879Y8684539D01*
X10301709Y8683874D01*
X10302484Y8683099D01*
X10303149Y8682269D01*
X10303204Y8682158D01*
X10303426Y8681881D01*
X10303647Y8681383D01*
X10303979Y8680718D01*
X10304256Y8679943D01*
X10304533Y8679002D01*
X10304699Y8677950D01*
X10304755Y8676842D01*
Y8676787D01*
Y8676731D01*
Y8676565D01*
Y8676344D01*
X10304644Y8675735D01*
X10304533Y8674960D01*
X10304312Y8674074D01*
X10304035Y8673132D01*
X10303592Y8672136D01*
X10302983Y8671083D01*
Y8671028D01*
X10302927Y8670973D01*
X10302650Y8670641D01*
X10302263Y8670142D01*
X10301709Y8669588D01*
X10300989Y8668924D01*
X10300103Y8668204D01*
X10299107Y8667540D01*
X10297944Y8666931D01*
X10297888D01*
X10297778Y8666875D01*
X10297612Y8666820D01*
X10297390Y8666709D01*
X10297058Y8666598D01*
X10296670Y8666432D01*
X10295784Y8666211D01*
X10294732Y8665934D01*
X10293459Y8665657D01*
X10292074Y8665491D01*
X10290579Y8665436D01*
X10289693D01*
X10289250Y8665491D01*
X10288752D01*
X10288198Y8665546D01*
X10287534Y8665602D01*
X10286150Y8665823D01*
X10284710Y8666045D01*
X10283270Y8666432D01*
X10281886Y8666931D01*
X10281831D01*
X10281720Y8666986D01*
X10281554Y8667097D01*
X10281332Y8667207D01*
X10280668Y8667540D01*
X10279893Y8668038D01*
X10279007Y8668703D01*
X10278065Y8669478D01*
X10277179Y8670419D01*
X10276349Y8671471D01*
Y8671526D01*
X10276238Y8671637D01*
X10276183Y8671803D01*
X10276017Y8672025D01*
X10275906Y8672302D01*
X10275740Y8672634D01*
X10275352Y8673464D01*
X10274964Y8674517D01*
X10274632Y8675679D01*
X10274411Y8677008D01*
X10274300Y8678393D01*
X10279062Y8678836D01*
Y8678780D01*
Y8678725D01*
X10279117Y8678559D01*
Y8678337D01*
X10279228Y8677839D01*
X10279394Y8677119D01*
X10279616Y8676399D01*
X10279837Y8675569D01*
X10280225Y8674793D01*
X10280612Y8674074D01*
X10280668Y8674018D01*
X10280834Y8673797D01*
X10281111Y8673409D01*
X10281554Y8673022D01*
X10282107Y8672523D01*
X10282717Y8672025D01*
X10283547Y8671526D01*
X10284433Y8671083D01*
X10284488D01*
X10284544Y8671028D01*
X10284710Y8670973D01*
X10284876Y8670917D01*
X10285430Y8670751D01*
X10286150Y8670530D01*
X10287036Y8670308D01*
X10288032Y8670142D01*
X10289140Y8670031D01*
X10290358Y8669976D01*
X10290856D01*
X10291410Y8670031D01*
X10292074Y8670087D01*
X10292850Y8670198D01*
X10293736Y8670308D01*
X10294622Y8670530D01*
X10295452Y8670807D01*
X10295563Y8670862D01*
X10295840Y8670973D01*
X10296227Y8671194D01*
X10296726Y8671416D01*
X10297224Y8671803D01*
X10297778Y8672191D01*
X10298331Y8672634D01*
X10298774Y8673188D01*
X10298830Y8673243D01*
X10298941Y8673464D01*
X10299107Y8673741D01*
X10299328Y8674184D01*
X10299550Y8674627D01*
X10299716Y8675181D01*
X10299826Y8675790D01*
X10299882Y8676455D01*
Y8676510D01*
Y8676787D01*
X10299826Y8677119D01*
X10299771Y8677562D01*
X10299605Y8678005D01*
X10299439Y8678559D01*
X10299162Y8679112D01*
X10298774Y8679611D01*
X10298719Y8679666D01*
X10298553Y8679832D01*
X10298331Y8680054D01*
X10297944Y8680386D01*
X10297501Y8680718D01*
X10296892Y8681106D01*
X10296172Y8681493D01*
X10295341Y8681826D01*
X10295286Y8681881D01*
X10295009Y8681936D01*
X10294566Y8682103D01*
X10294289Y8682158D01*
X10293902Y8682269D01*
X10293514Y8682435D01*
X10293016Y8682545D01*
X10292462Y8682712D01*
X10291798Y8682878D01*
X10291133Y8683044D01*
X10290358Y8683265D01*
X10289472Y8683487D01*
X10288531Y8683708D01*
X10288475D01*
X10288309Y8683764D01*
X10288032Y8683819D01*
X10287700Y8683930D01*
X10287257Y8684041D01*
X10286759Y8684151D01*
X10285651Y8684484D01*
X10284433Y8684871D01*
X10283160Y8685259D01*
X10282052Y8685646D01*
X10281554Y8685868D01*
X10281111Y8686089D01*
X10281055D01*
X10281000Y8686145D01*
X10280668Y8686366D01*
X10280169Y8686643D01*
X10279616Y8687086D01*
X10278951Y8687584D01*
X10278287Y8688193D01*
X10277622Y8688913D01*
X10277069Y8689688D01*
X10277013Y8689799D01*
X10276847Y8690076D01*
X10276626Y8690519D01*
X10276404Y8691073D01*
X10276183Y8691793D01*
X10275961Y8692623D01*
X10275795Y8693509D01*
X10275740Y8694450D01*
Y8694506D01*
Y8694561D01*
Y8694727D01*
Y8694949D01*
X10275850Y8695503D01*
X10275961Y8696222D01*
X10276127Y8697053D01*
X10276404Y8697994D01*
X10276792Y8698936D01*
X10277345Y8699877D01*
Y8699932D01*
X10277401Y8699988D01*
X10277678Y8700320D01*
X10278065Y8700763D01*
X10278564Y8701317D01*
X10279228Y8701926D01*
X10280059Y8702590D01*
X10281055Y8703199D01*
X10282163Y8703753D01*
X10282218D01*
X10282329Y8703808D01*
X10282495Y8703864D01*
X10282717Y8703974D01*
X10282993Y8704085D01*
X10283381Y8704196D01*
X10284212Y8704417D01*
X10285264Y8704639D01*
X10286482Y8704860D01*
X10287755Y8705027D01*
X10289195Y8705082D01*
X10289915D01*
X10290303Y8705027D01*
D02*
G37*
G36*
X10339196Y8699877D02*
X10326571D01*
Y8666100D01*
X10321477D01*
Y8699877D01*
X10308852D01*
Y8704417D01*
X10339196D01*
Y8699877D01*
D02*
G37*
G36*
X10355808Y8704528D02*
X10356251Y8704473D01*
X10356749Y8704417D01*
X10357303Y8704362D01*
X10357856Y8704196D01*
X10359185Y8703864D01*
X10360514Y8703365D01*
X10361179Y8703033D01*
X10361843Y8702646D01*
X10362452Y8702147D01*
X10363061Y8701649D01*
X10363117Y8701593D01*
X10363172Y8701538D01*
X10363338Y8701372D01*
X10363560Y8701150D01*
X10363781Y8700818D01*
X10364058Y8700486D01*
X10364612Y8699655D01*
X10365165Y8698603D01*
X10365664Y8697385D01*
X10366051Y8696001D01*
X10366107Y8695281D01*
X10366162Y8694506D01*
Y8694450D01*
Y8694395D01*
Y8694063D01*
X10366107Y8693565D01*
X10365996Y8692955D01*
X10365830Y8692180D01*
X10365553Y8691405D01*
X10365221Y8690630D01*
X10364722Y8689855D01*
X10364667Y8689744D01*
X10364446Y8689522D01*
X10364113Y8689190D01*
X10363670Y8688747D01*
X10363061Y8688249D01*
X10362341Y8687750D01*
X10361511Y8687252D01*
X10360514Y8686809D01*
X10360570D01*
X10360680Y8686754D01*
X10360846Y8686698D01*
X10361068Y8686588D01*
X10361732Y8686311D01*
X10362508Y8685923D01*
X10363338Y8685369D01*
X10364224Y8684760D01*
X10365055Y8683985D01*
X10365830Y8683099D01*
Y8683044D01*
X10365885Y8682988D01*
X10366107Y8682656D01*
X10366439Y8682103D01*
X10366771Y8681383D01*
X10367103Y8680497D01*
X10367436Y8679445D01*
X10367657Y8678282D01*
X10367713Y8677008D01*
Y8676953D01*
Y8676787D01*
Y8676510D01*
X10367657Y8676178D01*
X10367602Y8675790D01*
X10367546Y8675292D01*
X10367436Y8674738D01*
X10367270Y8674129D01*
X10366882Y8672855D01*
X10366605Y8672136D01*
X10366218Y8671471D01*
X10365830Y8670751D01*
X10365387Y8670087D01*
X10364833Y8669422D01*
X10364224Y8668758D01*
X10364169Y8668703D01*
X10364058Y8668592D01*
X10363892Y8668426D01*
X10363615Y8668260D01*
X10363227Y8667983D01*
X10362840Y8667706D01*
X10362341Y8667429D01*
X10361788Y8667097D01*
X10361179Y8666764D01*
X10360459Y8666488D01*
X10359684Y8666211D01*
X10358908Y8665934D01*
X10358022Y8665768D01*
X10357081Y8665602D01*
X10356140Y8665491D01*
X10355088Y8665436D01*
X10354534D01*
X10354146Y8665491D01*
X10353648Y8665546D01*
X10353094Y8665602D01*
X10352485Y8665712D01*
X10351821Y8665879D01*
X10350326Y8666266D01*
X10349551Y8666543D01*
X10348831Y8666820D01*
X10348056Y8667207D01*
X10347280Y8667650D01*
X10346560Y8668149D01*
X10345896Y8668758D01*
X10345841Y8668813D01*
X10345730Y8668924D01*
X10345564Y8669090D01*
X10345342Y8669367D01*
X10345121Y8669699D01*
X10344789Y8670087D01*
X10344512Y8670530D01*
X10344179Y8671083D01*
X10343847Y8671637D01*
X10343570Y8672302D01*
X10343017Y8673686D01*
X10342795Y8674517D01*
X10342629Y8675347D01*
X10342518Y8676233D01*
X10342463Y8677119D01*
Y8677174D01*
Y8677285D01*
Y8677507D01*
X10342518Y8677728D01*
Y8678060D01*
X10342574Y8678448D01*
X10342684Y8679334D01*
X10342906Y8680331D01*
X10343238Y8681327D01*
X10343736Y8682379D01*
X10344346Y8683376D01*
Y8683431D01*
X10344456Y8683487D01*
X10344678Y8683764D01*
X10345121Y8684207D01*
X10345730Y8684760D01*
X10346505Y8685314D01*
X10347446Y8685923D01*
X10348498Y8686422D01*
X10349772Y8686809D01*
X10349717D01*
X10349661Y8686865D01*
X10349495Y8686920D01*
X10349274Y8687031D01*
X10348775Y8687252D01*
X10348111Y8687584D01*
X10347391Y8688027D01*
X10346671Y8688581D01*
X10346007Y8689190D01*
X10345398Y8689855D01*
X10345342Y8689965D01*
X10345176Y8690187D01*
X10344955Y8690630D01*
X10344733Y8691184D01*
X10344456Y8691903D01*
X10344235Y8692734D01*
X10344069Y8693675D01*
X10344013Y8694672D01*
Y8694727D01*
Y8694838D01*
Y8695060D01*
X10344069Y8695392D01*
X10344124Y8695724D01*
X10344179Y8696167D01*
X10344401Y8697108D01*
X10344733Y8698216D01*
X10345287Y8699379D01*
X10345619Y8699988D01*
X10346007Y8700597D01*
X10346505Y8701150D01*
X10347003Y8701704D01*
X10347059Y8701760D01*
X10347170Y8701815D01*
X10347336Y8701981D01*
X10347557Y8702147D01*
X10347834Y8702369D01*
X10348222Y8702590D01*
X10348665Y8702867D01*
X10349108Y8703144D01*
X10349661Y8703421D01*
X10350270Y8703698D01*
X10350935Y8703919D01*
X10351655Y8704141D01*
X10353205Y8704473D01*
X10354091Y8704528D01*
X10354977Y8704584D01*
X10355475D01*
X10355808Y8704528D01*
D02*
G37*
G36*
X10544303Y8705027D02*
X10544690D01*
X10545742Y8704916D01*
X10546905Y8704750D01*
X10548123Y8704473D01*
X10549452Y8704141D01*
X10550670Y8703698D01*
X10550726D01*
X10550836Y8703642D01*
X10551003Y8703531D01*
X10551224Y8703421D01*
X10551778Y8703144D01*
X10552498Y8702646D01*
X10553328Y8702092D01*
X10554159Y8701372D01*
X10554934Y8700541D01*
X10555654Y8699600D01*
Y8699545D01*
X10555709Y8699489D01*
X10555820Y8699323D01*
X10555931Y8699157D01*
X10556207Y8698603D01*
X10556540Y8697884D01*
X10556927Y8696998D01*
X10557204Y8695946D01*
X10557481Y8694838D01*
X10557592Y8693620D01*
X10552719Y8693232D01*
Y8693288D01*
Y8693398D01*
X10552664Y8693565D01*
X10552608Y8693841D01*
X10552442Y8694450D01*
X10552221Y8695281D01*
X10551888Y8696167D01*
X10551390Y8697053D01*
X10550781Y8697884D01*
X10550006Y8698659D01*
X10549895Y8698714D01*
X10549618Y8698936D01*
X10549065Y8699268D01*
X10548345Y8699600D01*
X10547403Y8699932D01*
X10546296Y8700265D01*
X10544912Y8700486D01*
X10543361Y8700541D01*
X10542586D01*
X10542254Y8700486D01*
X10541811Y8700431D01*
X10540814Y8700320D01*
X10539707Y8700098D01*
X10538599Y8699822D01*
X10537547Y8699379D01*
X10537104Y8699102D01*
X10536661Y8698825D01*
X10536550Y8698769D01*
X10536329Y8698548D01*
X10535997Y8698160D01*
X10535664Y8697717D01*
X10535277Y8697108D01*
X10534945Y8696444D01*
X10534723Y8695669D01*
X10534612Y8694783D01*
Y8694672D01*
Y8694450D01*
X10534668Y8694063D01*
X10534779Y8693620D01*
X10534945Y8693066D01*
X10535221Y8692512D01*
X10535554Y8691959D01*
X10536052Y8691405D01*
X10536107Y8691350D01*
X10536384Y8691184D01*
X10536606Y8691017D01*
X10536827Y8690907D01*
X10537160Y8690741D01*
X10537547Y8690519D01*
X10538045Y8690353D01*
X10538599Y8690131D01*
X10539208Y8689910D01*
X10539928Y8689633D01*
X10540703Y8689412D01*
X10541589Y8689135D01*
X10542586Y8688913D01*
X10543693Y8688636D01*
X10543749D01*
X10543970Y8688581D01*
X10544303Y8688526D01*
X10544690Y8688415D01*
X10545188Y8688304D01*
X10545798Y8688138D01*
X10546407Y8687972D01*
X10547071Y8687806D01*
X10548511Y8687418D01*
X10549895Y8687031D01*
X10550560Y8686809D01*
X10551169Y8686588D01*
X10551722Y8686422D01*
X10552165Y8686200D01*
X10552221D01*
X10552331Y8686145D01*
X10552498Y8686034D01*
X10552719Y8685923D01*
X10553328Y8685591D01*
X10554048Y8685148D01*
X10554879Y8684539D01*
X10555709Y8683874D01*
X10556484Y8683099D01*
X10557149Y8682269D01*
X10557204Y8682158D01*
X10557426Y8681881D01*
X10557647Y8681383D01*
X10557979Y8680718D01*
X10558256Y8679943D01*
X10558533Y8679002D01*
X10558699Y8677950D01*
X10558755Y8676842D01*
Y8676787D01*
Y8676731D01*
Y8676565D01*
Y8676344D01*
X10558644Y8675735D01*
X10558533Y8674960D01*
X10558312Y8674074D01*
X10558035Y8673132D01*
X10557592Y8672136D01*
X10556983Y8671083D01*
Y8671028D01*
X10556927Y8670973D01*
X10556650Y8670641D01*
X10556263Y8670142D01*
X10555709Y8669588D01*
X10554989Y8668924D01*
X10554103Y8668204D01*
X10553107Y8667540D01*
X10551944Y8666931D01*
X10551888D01*
X10551778Y8666875D01*
X10551612Y8666820D01*
X10551390Y8666709D01*
X10551058Y8666598D01*
X10550670Y8666432D01*
X10549784Y8666211D01*
X10548732Y8665934D01*
X10547459Y8665657D01*
X10546074Y8665491D01*
X10544579Y8665436D01*
X10543693D01*
X10543250Y8665491D01*
X10542752D01*
X10542198Y8665546D01*
X10541534Y8665602D01*
X10540150Y8665823D01*
X10538710Y8666045D01*
X10537270Y8666432D01*
X10535886Y8666931D01*
X10535831D01*
X10535720Y8666986D01*
X10535554Y8667097D01*
X10535332Y8667207D01*
X10534668Y8667540D01*
X10533893Y8668038D01*
X10533007Y8668703D01*
X10532065Y8669478D01*
X10531179Y8670419D01*
X10530349Y8671471D01*
Y8671526D01*
X10530238Y8671637D01*
X10530183Y8671803D01*
X10530017Y8672025D01*
X10529906Y8672302D01*
X10529740Y8672634D01*
X10529352Y8673464D01*
X10528964Y8674517D01*
X10528632Y8675679D01*
X10528411Y8677008D01*
X10528300Y8678393D01*
X10533062Y8678836D01*
Y8678780D01*
Y8678725D01*
X10533117Y8678559D01*
Y8678337D01*
X10533228Y8677839D01*
X10533394Y8677119D01*
X10533616Y8676399D01*
X10533837Y8675569D01*
X10534225Y8674793D01*
X10534612Y8674074D01*
X10534668Y8674018D01*
X10534834Y8673797D01*
X10535111Y8673409D01*
X10535554Y8673022D01*
X10536107Y8672523D01*
X10536717Y8672025D01*
X10537547Y8671526D01*
X10538433Y8671083D01*
X10538488D01*
X10538544Y8671028D01*
X10538710Y8670973D01*
X10538876Y8670917D01*
X10539430Y8670751D01*
X10540150Y8670530D01*
X10541036Y8670308D01*
X10542032Y8670142D01*
X10543140Y8670031D01*
X10544358Y8669976D01*
X10544856D01*
X10545410Y8670031D01*
X10546074Y8670087D01*
X10546850Y8670198D01*
X10547736Y8670308D01*
X10548622Y8670530D01*
X10549452Y8670807D01*
X10549563Y8670862D01*
X10549840Y8670973D01*
X10550227Y8671194D01*
X10550726Y8671416D01*
X10551224Y8671803D01*
X10551778Y8672191D01*
X10552331Y8672634D01*
X10552774Y8673188D01*
X10552830Y8673243D01*
X10552941Y8673464D01*
X10553107Y8673741D01*
X10553328Y8674184D01*
X10553550Y8674627D01*
X10553716Y8675181D01*
X10553826Y8675790D01*
X10553882Y8676455D01*
Y8676510D01*
Y8676787D01*
X10553826Y8677119D01*
X10553771Y8677562D01*
X10553605Y8678005D01*
X10553439Y8678559D01*
X10553162Y8679112D01*
X10552774Y8679611D01*
X10552719Y8679666D01*
X10552553Y8679832D01*
X10552331Y8680054D01*
X10551944Y8680386D01*
X10551501Y8680718D01*
X10550892Y8681106D01*
X10550172Y8681493D01*
X10549341Y8681826D01*
X10549286Y8681881D01*
X10549009Y8681936D01*
X10548566Y8682103D01*
X10548289Y8682158D01*
X10547902Y8682269D01*
X10547514Y8682435D01*
X10547016Y8682545D01*
X10546462Y8682712D01*
X10545798Y8682878D01*
X10545133Y8683044D01*
X10544358Y8683265D01*
X10543472Y8683487D01*
X10542531Y8683708D01*
X10542475D01*
X10542309Y8683764D01*
X10542032Y8683819D01*
X10541700Y8683930D01*
X10541257Y8684041D01*
X10540759Y8684151D01*
X10539651Y8684484D01*
X10538433Y8684871D01*
X10537160Y8685259D01*
X10536052Y8685646D01*
X10535554Y8685868D01*
X10535111Y8686089D01*
X10535055D01*
X10535000Y8686145D01*
X10534668Y8686366D01*
X10534169Y8686643D01*
X10533616Y8687086D01*
X10532951Y8687584D01*
X10532287Y8688193D01*
X10531622Y8688913D01*
X10531069Y8689688D01*
X10531013Y8689799D01*
X10530847Y8690076D01*
X10530626Y8690519D01*
X10530404Y8691073D01*
X10530183Y8691793D01*
X10529961Y8692623D01*
X10529795Y8693509D01*
X10529740Y8694450D01*
Y8694506D01*
Y8694561D01*
Y8694727D01*
Y8694949D01*
X10529850Y8695503D01*
X10529961Y8696222D01*
X10530127Y8697053D01*
X10530404Y8697994D01*
X10530792Y8698936D01*
X10531345Y8699877D01*
Y8699932D01*
X10531401Y8699988D01*
X10531678Y8700320D01*
X10532065Y8700763D01*
X10532564Y8701317D01*
X10533228Y8701926D01*
X10534059Y8702590D01*
X10535055Y8703199D01*
X10536163Y8703753D01*
X10536218D01*
X10536329Y8703808D01*
X10536495Y8703864D01*
X10536717Y8703974D01*
X10536993Y8704085D01*
X10537381Y8704196D01*
X10538212Y8704417D01*
X10539264Y8704639D01*
X10540482Y8704860D01*
X10541755Y8705027D01*
X10543195Y8705082D01*
X10543915D01*
X10544303Y8705027D01*
D02*
G37*
G36*
X10644027Y8666100D02*
X10639321D01*
Y8696056D01*
X10639265Y8696001D01*
X10638989Y8695779D01*
X10638656Y8695447D01*
X10638103Y8695060D01*
X10637494Y8694561D01*
X10636718Y8694008D01*
X10635832Y8693398D01*
X10634836Y8692789D01*
X10634780D01*
X10634725Y8692734D01*
X10634393Y8692512D01*
X10633839Y8692236D01*
X10633175Y8691903D01*
X10632399Y8691516D01*
X10631569Y8691128D01*
X10630738Y8690741D01*
X10629908Y8690408D01*
Y8694949D01*
X10629963D01*
X10630074Y8695060D01*
X10630295Y8695115D01*
X10630572Y8695281D01*
X10630904Y8695447D01*
X10631292Y8695669D01*
X10632233Y8696222D01*
X10633341Y8696831D01*
X10634448Y8697607D01*
X10635611Y8698493D01*
X10636774Y8699434D01*
X10636829Y8699489D01*
X10636884Y8699545D01*
X10637051Y8699711D01*
X10637272Y8699877D01*
X10637770Y8700431D01*
X10638435Y8701095D01*
X10639099Y8701870D01*
X10639819Y8702756D01*
X10640428Y8703642D01*
X10640982Y8704584D01*
X10644027D01*
Y8666100D01*
D02*
G37*
G36*
X10614237D02*
X10609531D01*
Y8696056D01*
X10609475Y8696001D01*
X10609198Y8695779D01*
X10608866Y8695447D01*
X10608313Y8695060D01*
X10607703Y8694561D01*
X10606928Y8694008D01*
X10606042Y8693398D01*
X10605046Y8692789D01*
X10604990D01*
X10604935Y8692734D01*
X10604603Y8692512D01*
X10604049Y8692236D01*
X10603384Y8691903D01*
X10602609Y8691516D01*
X10601779Y8691128D01*
X10600948Y8690741D01*
X10600117Y8690408D01*
Y8694949D01*
X10600173D01*
X10600284Y8695060D01*
X10600505Y8695115D01*
X10600782Y8695281D01*
X10601114Y8695447D01*
X10601502Y8695669D01*
X10602443Y8696222D01*
X10603551Y8696831D01*
X10604658Y8697607D01*
X10605821Y8698493D01*
X10606984Y8699434D01*
X10607039Y8699489D01*
X10607094Y8699545D01*
X10607260Y8699711D01*
X10607482Y8699877D01*
X10607980Y8700431D01*
X10608645Y8701095D01*
X10609309Y8701870D01*
X10610029Y8702756D01*
X10610638Y8703642D01*
X10611192Y8704584D01*
X10614237D01*
Y8666100D01*
D02*
G37*
G36*
X10593196Y8699877D02*
X10580571D01*
Y8666100D01*
X10575477D01*
Y8699877D01*
X10562852D01*
Y8704417D01*
X10593196D01*
Y8699877D01*
D02*
G37*
G36*
X10544303Y10745027D02*
X10544690D01*
X10545742Y10744916D01*
X10546905Y10744750D01*
X10548123Y10744473D01*
X10549452Y10744141D01*
X10550670Y10743698D01*
X10550726D01*
X10550836Y10743642D01*
X10551003Y10743531D01*
X10551224Y10743421D01*
X10551778Y10743144D01*
X10552498Y10742646D01*
X10553328Y10742092D01*
X10554159Y10741372D01*
X10554934Y10740541D01*
X10555654Y10739600D01*
Y10739545D01*
X10555709Y10739489D01*
X10555820Y10739323D01*
X10555931Y10739157D01*
X10556207Y10738603D01*
X10556540Y10737884D01*
X10556927Y10736998D01*
X10557204Y10735946D01*
X10557481Y10734838D01*
X10557592Y10733620D01*
X10552719Y10733232D01*
Y10733288D01*
Y10733398D01*
X10552664Y10733565D01*
X10552608Y10733841D01*
X10552442Y10734450D01*
X10552221Y10735281D01*
X10551888Y10736167D01*
X10551390Y10737053D01*
X10550781Y10737884D01*
X10550006Y10738659D01*
X10549895Y10738714D01*
X10549618Y10738936D01*
X10549065Y10739268D01*
X10548345Y10739600D01*
X10547403Y10739932D01*
X10546296Y10740265D01*
X10544912Y10740486D01*
X10543361Y10740541D01*
X10542586D01*
X10542254Y10740486D01*
X10541811Y10740431D01*
X10540814Y10740320D01*
X10539707Y10740098D01*
X10538599Y10739822D01*
X10537547Y10739379D01*
X10537104Y10739102D01*
X10536661Y10738825D01*
X10536550Y10738769D01*
X10536329Y10738548D01*
X10535997Y10738160D01*
X10535664Y10737717D01*
X10535277Y10737108D01*
X10534945Y10736444D01*
X10534723Y10735669D01*
X10534612Y10734783D01*
Y10734672D01*
Y10734450D01*
X10534668Y10734063D01*
X10534779Y10733620D01*
X10534945Y10733066D01*
X10535221Y10732512D01*
X10535554Y10731959D01*
X10536052Y10731405D01*
X10536107Y10731350D01*
X10536384Y10731184D01*
X10536606Y10731017D01*
X10536827Y10730907D01*
X10537160Y10730741D01*
X10537547Y10730519D01*
X10538045Y10730353D01*
X10538599Y10730131D01*
X10539208Y10729910D01*
X10539928Y10729633D01*
X10540703Y10729412D01*
X10541589Y10729135D01*
X10542586Y10728913D01*
X10543693Y10728636D01*
X10543749D01*
X10543970Y10728581D01*
X10544303Y10728526D01*
X10544690Y10728415D01*
X10545188Y10728304D01*
X10545798Y10728138D01*
X10546407Y10727972D01*
X10547071Y10727806D01*
X10548511Y10727418D01*
X10549895Y10727031D01*
X10550560Y10726809D01*
X10551169Y10726588D01*
X10551722Y10726422D01*
X10552165Y10726200D01*
X10552221D01*
X10552331Y10726145D01*
X10552498Y10726034D01*
X10552719Y10725923D01*
X10553328Y10725591D01*
X10554048Y10725148D01*
X10554879Y10724539D01*
X10555709Y10723874D01*
X10556484Y10723099D01*
X10557149Y10722269D01*
X10557204Y10722158D01*
X10557426Y10721881D01*
X10557647Y10721383D01*
X10557979Y10720718D01*
X10558256Y10719943D01*
X10558533Y10719002D01*
X10558699Y10717950D01*
X10558755Y10716842D01*
Y10716787D01*
Y10716731D01*
Y10716565D01*
Y10716344D01*
X10558644Y10715735D01*
X10558533Y10714960D01*
X10558312Y10714074D01*
X10558035Y10713132D01*
X10557592Y10712136D01*
X10556983Y10711083D01*
Y10711028D01*
X10556927Y10710973D01*
X10556650Y10710641D01*
X10556263Y10710142D01*
X10555709Y10709588D01*
X10554989Y10708924D01*
X10554103Y10708204D01*
X10553107Y10707540D01*
X10551944Y10706931D01*
X10551888D01*
X10551778Y10706875D01*
X10551612Y10706820D01*
X10551390Y10706709D01*
X10551058Y10706598D01*
X10550670Y10706432D01*
X10549784Y10706211D01*
X10548732Y10705934D01*
X10547459Y10705657D01*
X10546074Y10705491D01*
X10544579Y10705436D01*
X10543693D01*
X10543250Y10705491D01*
X10542752D01*
X10542198Y10705546D01*
X10541534Y10705602D01*
X10540150Y10705823D01*
X10538710Y10706045D01*
X10537270Y10706432D01*
X10535886Y10706931D01*
X10535831D01*
X10535720Y10706986D01*
X10535554Y10707097D01*
X10535332Y10707207D01*
X10534668Y10707540D01*
X10533893Y10708038D01*
X10533007Y10708702D01*
X10532065Y10709478D01*
X10531179Y10710419D01*
X10530349Y10711471D01*
Y10711526D01*
X10530238Y10711637D01*
X10530183Y10711803D01*
X10530017Y10712025D01*
X10529906Y10712302D01*
X10529740Y10712634D01*
X10529352Y10713464D01*
X10528964Y10714517D01*
X10528632Y10715679D01*
X10528411Y10717008D01*
X10528300Y10718393D01*
X10533062Y10718836D01*
Y10718780D01*
Y10718725D01*
X10533117Y10718559D01*
Y10718337D01*
X10533228Y10717839D01*
X10533394Y10717119D01*
X10533616Y10716399D01*
X10533837Y10715569D01*
X10534225Y10714793D01*
X10534612Y10714074D01*
X10534668Y10714018D01*
X10534834Y10713797D01*
X10535111Y10713409D01*
X10535554Y10713021D01*
X10536107Y10712523D01*
X10536717Y10712025D01*
X10537547Y10711526D01*
X10538433Y10711083D01*
X10538488D01*
X10538544Y10711028D01*
X10538710Y10710973D01*
X10538876Y10710917D01*
X10539430Y10710751D01*
X10540150Y10710530D01*
X10541036Y10710308D01*
X10542032Y10710142D01*
X10543140Y10710031D01*
X10544358Y10709976D01*
X10544856D01*
X10545410Y10710031D01*
X10546074Y10710087D01*
X10546850Y10710198D01*
X10547736Y10710308D01*
X10548622Y10710530D01*
X10549452Y10710807D01*
X10549563Y10710862D01*
X10549840Y10710973D01*
X10550227Y10711194D01*
X10550726Y10711416D01*
X10551224Y10711803D01*
X10551778Y10712191D01*
X10552331Y10712634D01*
X10552774Y10713188D01*
X10552830Y10713243D01*
X10552941Y10713464D01*
X10553107Y10713741D01*
X10553328Y10714184D01*
X10553550Y10714627D01*
X10553716Y10715181D01*
X10553826Y10715790D01*
X10553882Y10716455D01*
Y10716510D01*
Y10716787D01*
X10553826Y10717119D01*
X10553771Y10717562D01*
X10553605Y10718005D01*
X10553439Y10718559D01*
X10553162Y10719112D01*
X10552774Y10719611D01*
X10552719Y10719666D01*
X10552553Y10719832D01*
X10552331Y10720054D01*
X10551944Y10720386D01*
X10551501Y10720718D01*
X10550892Y10721106D01*
X10550172Y10721493D01*
X10549341Y10721826D01*
X10549286Y10721881D01*
X10549009Y10721936D01*
X10548566Y10722103D01*
X10548289Y10722158D01*
X10547902Y10722269D01*
X10547514Y10722435D01*
X10547016Y10722545D01*
X10546462Y10722712D01*
X10545798Y10722878D01*
X10545133Y10723044D01*
X10544358Y10723265D01*
X10543472Y10723487D01*
X10542531Y10723708D01*
X10542475D01*
X10542309Y10723764D01*
X10542032Y10723819D01*
X10541700Y10723930D01*
X10541257Y10724041D01*
X10540759Y10724151D01*
X10539651Y10724484D01*
X10538433Y10724871D01*
X10537160Y10725259D01*
X10536052Y10725646D01*
X10535554Y10725868D01*
X10535111Y10726089D01*
X10535055D01*
X10535000Y10726145D01*
X10534668Y10726366D01*
X10534169Y10726643D01*
X10533616Y10727086D01*
X10532951Y10727584D01*
X10532287Y10728193D01*
X10531622Y10728913D01*
X10531069Y10729688D01*
X10531013Y10729799D01*
X10530847Y10730076D01*
X10530626Y10730519D01*
X10530404Y10731073D01*
X10530183Y10731793D01*
X10529961Y10732623D01*
X10529795Y10733509D01*
X10529740Y10734450D01*
Y10734506D01*
Y10734561D01*
Y10734727D01*
Y10734949D01*
X10529850Y10735503D01*
X10529961Y10736222D01*
X10530127Y10737053D01*
X10530404Y10737994D01*
X10530792Y10738936D01*
X10531345Y10739877D01*
Y10739932D01*
X10531401Y10739988D01*
X10531678Y10740320D01*
X10532065Y10740763D01*
X10532564Y10741317D01*
X10533228Y10741926D01*
X10534059Y10742590D01*
X10535055Y10743199D01*
X10536163Y10743753D01*
X10536218D01*
X10536329Y10743808D01*
X10536495Y10743864D01*
X10536717Y10743974D01*
X10536993Y10744085D01*
X10537381Y10744196D01*
X10538212Y10744417D01*
X10539264Y10744639D01*
X10540482Y10744860D01*
X10541755Y10745027D01*
X10543195Y10745082D01*
X10543915D01*
X10544303Y10745027D01*
D02*
G37*
G36*
X10609198Y10744528D02*
X10609475D01*
X10609863Y10744473D01*
X10610804Y10744307D01*
X10611856Y10744085D01*
X10613019Y10743698D01*
X10614182Y10743199D01*
X10615345Y10742535D01*
X10615400D01*
X10615456Y10742424D01*
X10615622Y10742313D01*
X10615843Y10742147D01*
X10616397Y10741704D01*
X10617117Y10741095D01*
X10617837Y10740265D01*
X10618667Y10739268D01*
X10619387Y10738105D01*
X10620051Y10736776D01*
Y10736721D01*
X10620107Y10736610D01*
X10620218Y10736388D01*
X10620328Y10736112D01*
X10620439Y10735724D01*
X10620605Y10735226D01*
X10620716Y10734672D01*
X10620882Y10734063D01*
X10621048Y10733343D01*
X10621214Y10732512D01*
X10621325Y10731626D01*
X10621436Y10730685D01*
X10621546Y10729633D01*
X10621657Y10728526D01*
X10621713Y10727307D01*
Y10726034D01*
Y10725979D01*
Y10725702D01*
Y10725314D01*
Y10724816D01*
X10621657Y10724207D01*
Y10723487D01*
X10621602Y10722656D01*
X10621491Y10721826D01*
X10621325Y10719943D01*
X10621048Y10717950D01*
X10620660Y10716067D01*
X10620384Y10715126D01*
X10620107Y10714295D01*
Y10714240D01*
X10620051Y10714129D01*
X10619941Y10713907D01*
X10619830Y10713575D01*
X10619664Y10713243D01*
X10619442Y10712800D01*
X10618889Y10711859D01*
X10618224Y10710807D01*
X10617449Y10709699D01*
X10616452Y10708647D01*
X10615345Y10707706D01*
X10615289D01*
X10615179Y10707595D01*
X10615013Y10707484D01*
X10614791Y10707374D01*
X10614459Y10707207D01*
X10614127Y10706986D01*
X10613684Y10706764D01*
X10613241Y10706598D01*
X10612189Y10706155D01*
X10610915Y10705768D01*
X10609531Y10705546D01*
X10607980Y10705436D01*
X10607537D01*
X10607260Y10705491D01*
X10606873D01*
X10606430Y10705546D01*
X10605378Y10705768D01*
X10604215Y10706045D01*
X10602997Y10706488D01*
X10601779Y10707097D01*
X10601170Y10707484D01*
X10600616Y10707927D01*
X10600560Y10707983D01*
X10600505Y10708038D01*
X10600339Y10708204D01*
X10600173Y10708370D01*
X10599951Y10708647D01*
X10599675Y10708979D01*
X10599121Y10709755D01*
X10598567Y10710751D01*
X10598013Y10711969D01*
X10597570Y10713354D01*
X10597238Y10714960D01*
X10601779Y10715347D01*
Y10715292D01*
X10601834Y10715181D01*
Y10715070D01*
X10601889Y10714849D01*
X10602056Y10714240D01*
X10602277Y10713575D01*
X10602554Y10712800D01*
X10602941Y10712025D01*
X10603384Y10711305D01*
X10603938Y10710696D01*
X10603994Y10710641D01*
X10604215Y10710474D01*
X10604603Y10710253D01*
X10605046Y10710031D01*
X10605655Y10709755D01*
X10606375Y10709533D01*
X10607205Y10709367D01*
X10608091Y10709312D01*
X10608479D01*
X10608866Y10709367D01*
X10609365Y10709422D01*
X10609974Y10709533D01*
X10610583Y10709699D01*
X10611247Y10709921D01*
X10611856Y10710253D01*
X10611912Y10710308D01*
X10612133Y10710419D01*
X10612465Y10710641D01*
X10612798Y10710973D01*
X10613241Y10711360D01*
X10613684Y10711803D01*
X10614127Y10712302D01*
X10614570Y10712911D01*
X10614625Y10712966D01*
X10614736Y10713243D01*
X10614957Y10713631D01*
X10615179Y10714129D01*
X10615456Y10714793D01*
X10615732Y10715569D01*
X10616009Y10716455D01*
X10616286Y10717451D01*
Y10717507D01*
X10616341Y10717562D01*
Y10717728D01*
X10616397Y10717950D01*
X10616508Y10718503D01*
X10616674Y10719223D01*
X10616784Y10720109D01*
X10616895Y10721050D01*
X10616951Y10722103D01*
X10617006Y10723210D01*
Y10723265D01*
Y10723431D01*
Y10723708D01*
Y10724151D01*
X10616951Y10724041D01*
X10616729Y10723764D01*
X10616397Y10723376D01*
X10616009Y10722822D01*
X10615456Y10722269D01*
X10614791Y10721660D01*
X10614016Y10721050D01*
X10613130Y10720497D01*
X10613019Y10720441D01*
X10612687Y10720275D01*
X10612189Y10720054D01*
X10611579Y10719832D01*
X10610749Y10719555D01*
X10609863Y10719334D01*
X10608866Y10719168D01*
X10607814Y10719112D01*
X10607371D01*
X10607039Y10719168D01*
X10606596Y10719223D01*
X10606153Y10719279D01*
X10605599Y10719389D01*
X10605046Y10719555D01*
X10603772Y10719943D01*
X10603108Y10720220D01*
X10602443Y10720552D01*
X10601723Y10720940D01*
X10601059Y10721438D01*
X10600394Y10721936D01*
X10599785Y10722545D01*
X10599730Y10722601D01*
X10599619Y10722712D01*
X10599508Y10722878D01*
X10599287Y10723155D01*
X10599010Y10723542D01*
X10598733Y10723930D01*
X10598456Y10724428D01*
X10598179Y10724982D01*
X10597847Y10725591D01*
X10597570Y10726255D01*
X10597294Y10727031D01*
X10597017Y10727806D01*
X10596795Y10728692D01*
X10596684Y10729633D01*
X10596574Y10730574D01*
X10596518Y10731626D01*
Y10731682D01*
Y10731903D01*
Y10732180D01*
X10596574Y10732568D01*
X10596629Y10733066D01*
X10596684Y10733675D01*
X10596795Y10734284D01*
X10596961Y10735004D01*
X10597349Y10736444D01*
X10597626Y10737219D01*
X10597958Y10738050D01*
X10598346Y10738825D01*
X10598844Y10739545D01*
X10599342Y10740320D01*
X10599951Y10740984D01*
X10600007Y10741040D01*
X10600117Y10741150D01*
X10600284Y10741317D01*
X10600560Y10741538D01*
X10600893Y10741815D01*
X10601336Y10742147D01*
X10601779Y10742424D01*
X10602332Y10742812D01*
X10602886Y10743144D01*
X10603551Y10743421D01*
X10605046Y10744030D01*
X10605821Y10744251D01*
X10606707Y10744417D01*
X10607593Y10744528D01*
X10608534Y10744584D01*
X10608922D01*
X10609198Y10744528D01*
D02*
G37*
G36*
X10593196Y10739877D02*
X10580571D01*
Y10706100D01*
X10575477D01*
Y10739877D01*
X10562852D01*
Y10744417D01*
X10593196D01*
Y10739877D01*
D02*
G37*
G36*
X10356860Y10744528D02*
X10357247D01*
X10357690Y10744473D01*
X10358742Y10744251D01*
X10359905Y10743974D01*
X10361123Y10743531D01*
X10362341Y10742867D01*
X10362951Y10742479D01*
X10363504Y10742036D01*
X10363560Y10741981D01*
X10363615Y10741926D01*
X10363781Y10741760D01*
X10363947Y10741593D01*
X10364224Y10741317D01*
X10364446Y10740984D01*
X10365055Y10740209D01*
X10365664Y10739212D01*
X10366218Y10737994D01*
X10366716Y10736610D01*
X10367048Y10735060D01*
X10362341Y10734672D01*
Y10734727D01*
X10362286Y10734783D01*
X10362231Y10735115D01*
X10362065Y10735613D01*
X10361843Y10736222D01*
X10361622Y10736887D01*
X10361289Y10737551D01*
X10360902Y10738160D01*
X10360514Y10738659D01*
X10360403Y10738769D01*
X10360182Y10738991D01*
X10359794Y10739323D01*
X10359241Y10739711D01*
X10358521Y10740043D01*
X10357746Y10740375D01*
X10356804Y10740597D01*
X10355808Y10740708D01*
X10355420D01*
X10354977Y10740652D01*
X10354479Y10740541D01*
X10353814Y10740375D01*
X10353150Y10740154D01*
X10352485Y10739877D01*
X10351821Y10739434D01*
X10351710Y10739379D01*
X10351433Y10739157D01*
X10351046Y10738769D01*
X10350547Y10738216D01*
X10349994Y10737551D01*
X10349384Y10736776D01*
X10348831Y10735779D01*
X10348277Y10734672D01*
Y10734617D01*
X10348222Y10734506D01*
X10348166Y10734340D01*
X10348056Y10734118D01*
X10348000Y10733786D01*
X10347889Y10733398D01*
X10347779Y10732955D01*
X10347668Y10732402D01*
X10347502Y10731793D01*
X10347391Y10731128D01*
X10347280Y10730408D01*
X10347225Y10729633D01*
X10347114Y10728747D01*
X10347059Y10727861D01*
X10347003Y10726864D01*
Y10725868D01*
X10347059Y10725923D01*
X10347280Y10726255D01*
X10347668Y10726698D01*
X10348166Y10727252D01*
X10348720Y10727917D01*
X10349440Y10728526D01*
X10350215Y10729135D01*
X10351101Y10729688D01*
X10351156D01*
X10351212Y10729744D01*
X10351544Y10729910D01*
X10352042Y10730076D01*
X10352707Y10730353D01*
X10353482Y10730574D01*
X10354368Y10730741D01*
X10355309Y10730907D01*
X10356306Y10730962D01*
X10356749D01*
X10357081Y10730907D01*
X10357524Y10730851D01*
X10357967Y10730796D01*
X10358521Y10730685D01*
X10359075Y10730519D01*
X10360348Y10730131D01*
X10361013Y10729855D01*
X10361677Y10729467D01*
X10362341Y10729079D01*
X10363061Y10728636D01*
X10363726Y10728083D01*
X10364335Y10727474D01*
X10364390Y10727418D01*
X10364501Y10727307D01*
X10364667Y10727141D01*
X10364833Y10726864D01*
X10365110Y10726477D01*
X10365387Y10726089D01*
X10365664Y10725591D01*
X10365996Y10725037D01*
X10366328Y10724428D01*
X10366605Y10723764D01*
X10366882Y10722988D01*
X10367159Y10722213D01*
X10367325Y10721383D01*
X10367491Y10720441D01*
X10367602Y10719500D01*
X10367657Y10718503D01*
Y10718448D01*
Y10718337D01*
Y10718171D01*
Y10717894D01*
X10367602Y10717562D01*
Y10717230D01*
X10367436Y10716344D01*
X10367270Y10715292D01*
X10366993Y10714184D01*
X10366605Y10712966D01*
X10366051Y10711803D01*
Y10711748D01*
X10365996Y10711693D01*
X10365885Y10711526D01*
X10365775Y10711305D01*
X10365442Y10710751D01*
X10364944Y10710031D01*
X10364335Y10709256D01*
X10363615Y10708481D01*
X10362729Y10707706D01*
X10361788Y10707041D01*
X10361732D01*
X10361677Y10706986D01*
X10361511Y10706875D01*
X10361289Y10706820D01*
X10360736Y10706543D01*
X10360016Y10706266D01*
X10359075Y10705934D01*
X10358022Y10705712D01*
X10356860Y10705491D01*
X10355586Y10705436D01*
X10355309D01*
X10355032Y10705491D01*
X10354589D01*
X10354091Y10705546D01*
X10353537Y10705657D01*
X10352873Y10705823D01*
X10352208Y10705989D01*
X10351433Y10706211D01*
X10350658Y10706488D01*
X10349883Y10706820D01*
X10349052Y10707263D01*
X10348277Y10707761D01*
X10347502Y10708315D01*
X10346727Y10708979D01*
X10346007Y10709755D01*
X10345951Y10709810D01*
X10345841Y10709976D01*
X10345675Y10710198D01*
X10345453Y10710585D01*
X10345121Y10711083D01*
X10344844Y10711637D01*
X10344512Y10712357D01*
X10344179Y10713132D01*
X10343792Y10714074D01*
X10343460Y10715126D01*
X10343183Y10716288D01*
X10342906Y10717562D01*
X10342629Y10719002D01*
X10342463Y10720552D01*
X10342352Y10722213D01*
X10342297Y10723985D01*
Y10724041D01*
Y10724096D01*
Y10724262D01*
Y10724484D01*
X10342352Y10725037D01*
Y10725812D01*
X10342408Y10726698D01*
X10342518Y10727750D01*
X10342629Y10728913D01*
X10342795Y10730187D01*
X10343017Y10731460D01*
X10343294Y10732845D01*
X10343626Y10734174D01*
X10344013Y10735503D01*
X10344512Y10736776D01*
X10345065Y10737994D01*
X10345675Y10739157D01*
X10346394Y10740154D01*
X10346450Y10740209D01*
X10346560Y10740320D01*
X10346782Y10740541D01*
X10347059Y10740874D01*
X10347391Y10741206D01*
X10347834Y10741538D01*
X10348388Y10741981D01*
X10348941Y10742369D01*
X10349606Y10742756D01*
X10350326Y10743199D01*
X10351156Y10743531D01*
X10351987Y10743919D01*
X10352928Y10744196D01*
X10353925Y10744417D01*
X10354977Y10744528D01*
X10356084Y10744584D01*
X10356527D01*
X10356860Y10744528D01*
D02*
G37*
G36*
X10290303Y10745027D02*
X10290690D01*
X10291742Y10744916D01*
X10292905Y10744750D01*
X10294123Y10744473D01*
X10295452Y10744141D01*
X10296670Y10743698D01*
X10296726D01*
X10296836Y10743642D01*
X10297003Y10743531D01*
X10297224Y10743421D01*
X10297778Y10743144D01*
X10298498Y10742646D01*
X10299328Y10742092D01*
X10300159Y10741372D01*
X10300934Y10740541D01*
X10301654Y10739600D01*
Y10739545D01*
X10301709Y10739489D01*
X10301820Y10739323D01*
X10301931Y10739157D01*
X10302207Y10738603D01*
X10302540Y10737884D01*
X10302927Y10736998D01*
X10303204Y10735946D01*
X10303481Y10734838D01*
X10303592Y10733620D01*
X10298719Y10733232D01*
Y10733288D01*
Y10733398D01*
X10298664Y10733565D01*
X10298608Y10733841D01*
X10298442Y10734450D01*
X10298221Y10735281D01*
X10297888Y10736167D01*
X10297390Y10737053D01*
X10296781Y10737884D01*
X10296006Y10738659D01*
X10295895Y10738714D01*
X10295618Y10738936D01*
X10295064Y10739268D01*
X10294345Y10739600D01*
X10293403Y10739932D01*
X10292296Y10740265D01*
X10290912Y10740486D01*
X10289361Y10740541D01*
X10288586D01*
X10288254Y10740486D01*
X10287811Y10740431D01*
X10286814Y10740320D01*
X10285707Y10740098D01*
X10284599Y10739822D01*
X10283547Y10739379D01*
X10283104Y10739102D01*
X10282661Y10738825D01*
X10282550Y10738769D01*
X10282329Y10738548D01*
X10281997Y10738160D01*
X10281664Y10737717D01*
X10281277Y10737108D01*
X10280945Y10736444D01*
X10280723Y10735669D01*
X10280612Y10734783D01*
Y10734672D01*
Y10734450D01*
X10280668Y10734063D01*
X10280779Y10733620D01*
X10280945Y10733066D01*
X10281221Y10732512D01*
X10281554Y10731959D01*
X10282052Y10731405D01*
X10282107Y10731350D01*
X10282384Y10731184D01*
X10282606Y10731017D01*
X10282827Y10730907D01*
X10283160Y10730741D01*
X10283547Y10730519D01*
X10284045Y10730353D01*
X10284599Y10730131D01*
X10285208Y10729910D01*
X10285928Y10729633D01*
X10286703Y10729412D01*
X10287589Y10729135D01*
X10288586Y10728913D01*
X10289693Y10728636D01*
X10289749D01*
X10289970Y10728581D01*
X10290303Y10728526D01*
X10290690Y10728415D01*
X10291188Y10728304D01*
X10291798Y10728138D01*
X10292407Y10727972D01*
X10293071Y10727806D01*
X10294511Y10727418D01*
X10295895Y10727031D01*
X10296560Y10726809D01*
X10297169Y10726588D01*
X10297722Y10726422D01*
X10298165Y10726200D01*
X10298221D01*
X10298331Y10726145D01*
X10298498Y10726034D01*
X10298719Y10725923D01*
X10299328Y10725591D01*
X10300048Y10725148D01*
X10300879Y10724539D01*
X10301709Y10723874D01*
X10302484Y10723099D01*
X10303149Y10722269D01*
X10303204Y10722158D01*
X10303426Y10721881D01*
X10303647Y10721383D01*
X10303979Y10720718D01*
X10304256Y10719943D01*
X10304533Y10719002D01*
X10304699Y10717950D01*
X10304755Y10716842D01*
Y10716787D01*
Y10716731D01*
Y10716565D01*
Y10716344D01*
X10304644Y10715735D01*
X10304533Y10714960D01*
X10304312Y10714074D01*
X10304035Y10713132D01*
X10303592Y10712136D01*
X10302983Y10711083D01*
Y10711028D01*
X10302927Y10710973D01*
X10302650Y10710641D01*
X10302263Y10710142D01*
X10301709Y10709588D01*
X10300989Y10708924D01*
X10300103Y10708204D01*
X10299107Y10707540D01*
X10297944Y10706931D01*
X10297888D01*
X10297778Y10706875D01*
X10297612Y10706820D01*
X10297390Y10706709D01*
X10297058Y10706598D01*
X10296670Y10706432D01*
X10295784Y10706211D01*
X10294732Y10705934D01*
X10293459Y10705657D01*
X10292074Y10705491D01*
X10290579Y10705436D01*
X10289693D01*
X10289250Y10705491D01*
X10288752D01*
X10288198Y10705546D01*
X10287534Y10705602D01*
X10286150Y10705823D01*
X10284710Y10706045D01*
X10283270Y10706432D01*
X10281886Y10706931D01*
X10281831D01*
X10281720Y10706986D01*
X10281554Y10707097D01*
X10281332Y10707207D01*
X10280668Y10707540D01*
X10279893Y10708038D01*
X10279007Y10708702D01*
X10278065Y10709478D01*
X10277179Y10710419D01*
X10276349Y10711471D01*
Y10711526D01*
X10276238Y10711637D01*
X10276183Y10711803D01*
X10276017Y10712025D01*
X10275906Y10712302D01*
X10275740Y10712634D01*
X10275352Y10713464D01*
X10274964Y10714517D01*
X10274632Y10715679D01*
X10274411Y10717008D01*
X10274300Y10718393D01*
X10279062Y10718836D01*
Y10718780D01*
Y10718725D01*
X10279117Y10718559D01*
Y10718337D01*
X10279228Y10717839D01*
X10279394Y10717119D01*
X10279616Y10716399D01*
X10279837Y10715569D01*
X10280225Y10714793D01*
X10280612Y10714074D01*
X10280668Y10714018D01*
X10280834Y10713797D01*
X10281111Y10713409D01*
X10281554Y10713021D01*
X10282107Y10712523D01*
X10282717Y10712025D01*
X10283547Y10711526D01*
X10284433Y10711083D01*
X10284488D01*
X10284544Y10711028D01*
X10284710Y10710973D01*
X10284876Y10710917D01*
X10285430Y10710751D01*
X10286150Y10710530D01*
X10287036Y10710308D01*
X10288032Y10710142D01*
X10289140Y10710031D01*
X10290358Y10709976D01*
X10290856D01*
X10291410Y10710031D01*
X10292074Y10710087D01*
X10292850Y10710198D01*
X10293736Y10710308D01*
X10294622Y10710530D01*
X10295452Y10710807D01*
X10295563Y10710862D01*
X10295840Y10710973D01*
X10296227Y10711194D01*
X10296726Y10711416D01*
X10297224Y10711803D01*
X10297778Y10712191D01*
X10298331Y10712634D01*
X10298774Y10713188D01*
X10298830Y10713243D01*
X10298941Y10713464D01*
X10299107Y10713741D01*
X10299328Y10714184D01*
X10299550Y10714627D01*
X10299716Y10715181D01*
X10299826Y10715790D01*
X10299882Y10716455D01*
Y10716510D01*
Y10716787D01*
X10299826Y10717119D01*
X10299771Y10717562D01*
X10299605Y10718005D01*
X10299439Y10718559D01*
X10299162Y10719112D01*
X10298774Y10719611D01*
X10298719Y10719666D01*
X10298553Y10719832D01*
X10298331Y10720054D01*
X10297944Y10720386D01*
X10297501Y10720718D01*
X10296892Y10721106D01*
X10296172Y10721493D01*
X10295341Y10721826D01*
X10295286Y10721881D01*
X10295009Y10721936D01*
X10294566Y10722103D01*
X10294289Y10722158D01*
X10293902Y10722269D01*
X10293514Y10722435D01*
X10293016Y10722545D01*
X10292462Y10722712D01*
X10291798Y10722878D01*
X10291133Y10723044D01*
X10290358Y10723265D01*
X10289472Y10723487D01*
X10288531Y10723708D01*
X10288475D01*
X10288309Y10723764D01*
X10288032Y10723819D01*
X10287700Y10723930D01*
X10287257Y10724041D01*
X10286759Y10724151D01*
X10285651Y10724484D01*
X10284433Y10724871D01*
X10283160Y10725259D01*
X10282052Y10725646D01*
X10281554Y10725868D01*
X10281111Y10726089D01*
X10281055D01*
X10281000Y10726145D01*
X10280668Y10726366D01*
X10280169Y10726643D01*
X10279616Y10727086D01*
X10278951Y10727584D01*
X10278287Y10728193D01*
X10277622Y10728913D01*
X10277069Y10729688D01*
X10277013Y10729799D01*
X10276847Y10730076D01*
X10276626Y10730519D01*
X10276404Y10731073D01*
X10276183Y10731793D01*
X10275961Y10732623D01*
X10275795Y10733509D01*
X10275740Y10734450D01*
Y10734506D01*
Y10734561D01*
Y10734727D01*
Y10734949D01*
X10275850Y10735503D01*
X10275961Y10736222D01*
X10276127Y10737053D01*
X10276404Y10737994D01*
X10276792Y10738936D01*
X10277345Y10739877D01*
Y10739932D01*
X10277401Y10739988D01*
X10277678Y10740320D01*
X10278065Y10740763D01*
X10278564Y10741317D01*
X10279228Y10741926D01*
X10280059Y10742590D01*
X10281055Y10743199D01*
X10282163Y10743753D01*
X10282218D01*
X10282329Y10743808D01*
X10282495Y10743864D01*
X10282717Y10743974D01*
X10282993Y10744085D01*
X10283381Y10744196D01*
X10284212Y10744417D01*
X10285264Y10744639D01*
X10286482Y10744860D01*
X10287755Y10745027D01*
X10289195Y10745082D01*
X10289915D01*
X10290303Y10745027D01*
D02*
G37*
G36*
X10339196Y10739877D02*
X10326571D01*
Y10706100D01*
X10321477D01*
Y10739877D01*
X10308852D01*
Y10744417D01*
X10339196D01*
Y10739877D01*
D02*
G37*
G36*
X10036303Y10745027D02*
X10036690D01*
X10037742Y10744916D01*
X10038905Y10744750D01*
X10040123Y10744473D01*
X10041452Y10744141D01*
X10042670Y10743698D01*
X10042726D01*
X10042836Y10743642D01*
X10043003Y10743531D01*
X10043224Y10743421D01*
X10043778Y10743144D01*
X10044498Y10742646D01*
X10045328Y10742092D01*
X10046159Y10741372D01*
X10046934Y10740541D01*
X10047654Y10739600D01*
Y10739545D01*
X10047709Y10739489D01*
X10047820Y10739323D01*
X10047931Y10739157D01*
X10048207Y10738603D01*
X10048540Y10737884D01*
X10048927Y10736998D01*
X10049204Y10735946D01*
X10049481Y10734838D01*
X10049592Y10733620D01*
X10044719Y10733232D01*
Y10733288D01*
Y10733398D01*
X10044664Y10733565D01*
X10044608Y10733841D01*
X10044442Y10734450D01*
X10044221Y10735281D01*
X10043888Y10736167D01*
X10043390Y10737053D01*
X10042781Y10737884D01*
X10042006Y10738659D01*
X10041895Y10738714D01*
X10041618Y10738936D01*
X10041065Y10739268D01*
X10040345Y10739600D01*
X10039403Y10739932D01*
X10038296Y10740265D01*
X10036912Y10740486D01*
X10035361Y10740541D01*
X10034586D01*
X10034254Y10740486D01*
X10033811Y10740431D01*
X10032814Y10740320D01*
X10031707Y10740098D01*
X10030599Y10739822D01*
X10029547Y10739379D01*
X10029104Y10739102D01*
X10028661Y10738825D01*
X10028550Y10738769D01*
X10028329Y10738548D01*
X10027997Y10738160D01*
X10027664Y10737717D01*
X10027277Y10737108D01*
X10026945Y10736444D01*
X10026723Y10735669D01*
X10026612Y10734783D01*
Y10734672D01*
Y10734450D01*
X10026668Y10734063D01*
X10026779Y10733620D01*
X10026945Y10733066D01*
X10027221Y10732512D01*
X10027554Y10731959D01*
X10028052Y10731405D01*
X10028107Y10731350D01*
X10028384Y10731184D01*
X10028606Y10731017D01*
X10028827Y10730907D01*
X10029160Y10730741D01*
X10029547Y10730519D01*
X10030045Y10730353D01*
X10030599Y10730131D01*
X10031208Y10729910D01*
X10031928Y10729633D01*
X10032703Y10729412D01*
X10033589Y10729135D01*
X10034586Y10728913D01*
X10035693Y10728636D01*
X10035749D01*
X10035970Y10728581D01*
X10036303Y10728526D01*
X10036690Y10728415D01*
X10037188Y10728304D01*
X10037798Y10728138D01*
X10038407Y10727972D01*
X10039071Y10727806D01*
X10040511Y10727418D01*
X10041895Y10727031D01*
X10042560Y10726809D01*
X10043169Y10726588D01*
X10043722Y10726422D01*
X10044165Y10726200D01*
X10044221D01*
X10044331Y10726145D01*
X10044498Y10726034D01*
X10044719Y10725923D01*
X10045328Y10725591D01*
X10046048Y10725148D01*
X10046879Y10724539D01*
X10047709Y10723874D01*
X10048484Y10723099D01*
X10049149Y10722269D01*
X10049204Y10722158D01*
X10049426Y10721881D01*
X10049647Y10721383D01*
X10049979Y10720718D01*
X10050256Y10719943D01*
X10050533Y10719002D01*
X10050699Y10717950D01*
X10050755Y10716842D01*
Y10716787D01*
Y10716731D01*
Y10716565D01*
Y10716344D01*
X10050644Y10715735D01*
X10050533Y10714960D01*
X10050312Y10714074D01*
X10050035Y10713132D01*
X10049592Y10712136D01*
X10048983Y10711083D01*
Y10711028D01*
X10048927Y10710973D01*
X10048650Y10710641D01*
X10048263Y10710142D01*
X10047709Y10709588D01*
X10046989Y10708924D01*
X10046103Y10708204D01*
X10045107Y10707540D01*
X10043944Y10706931D01*
X10043888D01*
X10043778Y10706875D01*
X10043612Y10706820D01*
X10043390Y10706709D01*
X10043058Y10706598D01*
X10042670Y10706432D01*
X10041784Y10706211D01*
X10040732Y10705934D01*
X10039459Y10705657D01*
X10038074Y10705491D01*
X10036579Y10705436D01*
X10035693D01*
X10035250Y10705491D01*
X10034752D01*
X10034198Y10705546D01*
X10033534Y10705602D01*
X10032150Y10705823D01*
X10030710Y10706045D01*
X10029270Y10706432D01*
X10027886Y10706931D01*
X10027831D01*
X10027720Y10706986D01*
X10027554Y10707097D01*
X10027332Y10707207D01*
X10026668Y10707540D01*
X10025893Y10708038D01*
X10025007Y10708702D01*
X10024065Y10709478D01*
X10023179Y10710419D01*
X10022349Y10711471D01*
Y10711526D01*
X10022238Y10711637D01*
X10022183Y10711803D01*
X10022017Y10712025D01*
X10021906Y10712302D01*
X10021740Y10712634D01*
X10021352Y10713464D01*
X10020964Y10714517D01*
X10020632Y10715679D01*
X10020411Y10717008D01*
X10020300Y10718393D01*
X10025062Y10718836D01*
Y10718780D01*
Y10718725D01*
X10025117Y10718559D01*
Y10718337D01*
X10025228Y10717839D01*
X10025394Y10717119D01*
X10025616Y10716399D01*
X10025837Y10715569D01*
X10026225Y10714793D01*
X10026612Y10714074D01*
X10026668Y10714018D01*
X10026834Y10713797D01*
X10027111Y10713409D01*
X10027554Y10713021D01*
X10028107Y10712523D01*
X10028717Y10712025D01*
X10029547Y10711526D01*
X10030433Y10711083D01*
X10030488D01*
X10030544Y10711028D01*
X10030710Y10710973D01*
X10030876Y10710917D01*
X10031430Y10710751D01*
X10032150Y10710530D01*
X10033036Y10710308D01*
X10034032Y10710142D01*
X10035140Y10710031D01*
X10036358Y10709976D01*
X10036856D01*
X10037410Y10710031D01*
X10038074Y10710087D01*
X10038850Y10710198D01*
X10039736Y10710308D01*
X10040622Y10710530D01*
X10041452Y10710807D01*
X10041563Y10710862D01*
X10041840Y10710973D01*
X10042227Y10711194D01*
X10042726Y10711416D01*
X10043224Y10711803D01*
X10043778Y10712191D01*
X10044331Y10712634D01*
X10044774Y10713188D01*
X10044830Y10713243D01*
X10044941Y10713464D01*
X10045107Y10713741D01*
X10045328Y10714184D01*
X10045550Y10714627D01*
X10045716Y10715181D01*
X10045826Y10715790D01*
X10045882Y10716455D01*
Y10716510D01*
Y10716787D01*
X10045826Y10717119D01*
X10045771Y10717562D01*
X10045605Y10718005D01*
X10045439Y10718559D01*
X10045162Y10719112D01*
X10044774Y10719611D01*
X10044719Y10719666D01*
X10044553Y10719832D01*
X10044331Y10720054D01*
X10043944Y10720386D01*
X10043501Y10720718D01*
X10042892Y10721106D01*
X10042172Y10721493D01*
X10041341Y10721826D01*
X10041286Y10721881D01*
X10041009Y10721936D01*
X10040566Y10722103D01*
X10040289Y10722158D01*
X10039902Y10722269D01*
X10039514Y10722435D01*
X10039016Y10722545D01*
X10038462Y10722712D01*
X10037798Y10722878D01*
X10037133Y10723044D01*
X10036358Y10723265D01*
X10035472Y10723487D01*
X10034531Y10723708D01*
X10034475D01*
X10034309Y10723764D01*
X10034032Y10723819D01*
X10033700Y10723930D01*
X10033257Y10724041D01*
X10032759Y10724151D01*
X10031651Y10724484D01*
X10030433Y10724871D01*
X10029160Y10725259D01*
X10028052Y10725646D01*
X10027554Y10725868D01*
X10027111Y10726089D01*
X10027055D01*
X10027000Y10726145D01*
X10026668Y10726366D01*
X10026169Y10726643D01*
X10025616Y10727086D01*
X10024951Y10727584D01*
X10024287Y10728193D01*
X10023622Y10728913D01*
X10023069Y10729688D01*
X10023013Y10729799D01*
X10022847Y10730076D01*
X10022626Y10730519D01*
X10022404Y10731073D01*
X10022183Y10731793D01*
X10021961Y10732623D01*
X10021795Y10733509D01*
X10021740Y10734450D01*
Y10734506D01*
Y10734561D01*
Y10734727D01*
Y10734949D01*
X10021850Y10735503D01*
X10021961Y10736222D01*
X10022127Y10737053D01*
X10022404Y10737994D01*
X10022792Y10738936D01*
X10023345Y10739877D01*
Y10739932D01*
X10023401Y10739988D01*
X10023678Y10740320D01*
X10024065Y10740763D01*
X10024564Y10741317D01*
X10025228Y10741926D01*
X10026059Y10742590D01*
X10027055Y10743199D01*
X10028163Y10743753D01*
X10028218D01*
X10028329Y10743808D01*
X10028495Y10743864D01*
X10028717Y10743974D01*
X10028993Y10744085D01*
X10029381Y10744196D01*
X10030212Y10744417D01*
X10031264Y10744639D01*
X10032482Y10744860D01*
X10033755Y10745027D01*
X10035195Y10745082D01*
X10035915D01*
X10036303Y10745027D01*
D02*
G37*
G36*
X10101697Y10744528D02*
X10102417Y10744417D01*
X10103303Y10744251D01*
X10104299Y10743974D01*
X10105296Y10743642D01*
X10106293Y10743199D01*
X10106348D01*
X10106403Y10743144D01*
X10106736Y10742978D01*
X10107234Y10742646D01*
X10107788Y10742258D01*
X10108452Y10741704D01*
X10109117Y10741095D01*
X10109781Y10740375D01*
X10110335Y10739545D01*
X10110390Y10739434D01*
X10110556Y10739157D01*
X10110778Y10738659D01*
X10111055Y10738050D01*
X10111332Y10737330D01*
X10111553Y10736499D01*
X10111719Y10735558D01*
X10111775Y10734617D01*
Y10734506D01*
Y10734174D01*
X10111719Y10733731D01*
X10111608Y10733122D01*
X10111442Y10732402D01*
X10111165Y10731626D01*
X10110833Y10730851D01*
X10110390Y10730076D01*
X10110335Y10729965D01*
X10110169Y10729744D01*
X10109837Y10729356D01*
X10109394Y10728913D01*
X10108840Y10728415D01*
X10108175Y10727861D01*
X10107400Y10727363D01*
X10106459Y10726864D01*
X10106514D01*
X10106625Y10726809D01*
X10106791Y10726754D01*
X10107013Y10726698D01*
X10107622Y10726477D01*
X10108397Y10726145D01*
X10109283Y10725702D01*
X10110169Y10725148D01*
X10110999Y10724428D01*
X10111775Y10723598D01*
X10111830Y10723487D01*
X10112051Y10723155D01*
X10112384Y10722601D01*
X10112716Y10721881D01*
X10113048Y10720995D01*
X10113380Y10719943D01*
X10113602Y10718725D01*
X10113657Y10717396D01*
Y10717341D01*
Y10717174D01*
Y10716898D01*
X10113602Y10716565D01*
X10113546Y10716122D01*
X10113436Y10715624D01*
X10113325Y10715070D01*
X10113214Y10714461D01*
X10112771Y10713132D01*
X10112439Y10712412D01*
X10112107Y10711748D01*
X10111664Y10711028D01*
X10111165Y10710308D01*
X10110612Y10709588D01*
X10109947Y10708924D01*
X10109892Y10708869D01*
X10109781Y10708758D01*
X10109560Y10708592D01*
X10109283Y10708370D01*
X10108951Y10708093D01*
X10108508Y10707817D01*
X10108009Y10707484D01*
X10107400Y10707207D01*
X10106791Y10706875D01*
X10106071Y10706543D01*
X10105351Y10706266D01*
X10104521Y10705989D01*
X10103635Y10705768D01*
X10102694Y10705602D01*
X10101752Y10705491D01*
X10100700Y10705436D01*
X10100202D01*
X10099870Y10705491D01*
X10099427Y10705546D01*
X10098928Y10705602D01*
X10098375Y10705712D01*
X10097765Y10705823D01*
X10096436Y10706155D01*
X10095052Y10706709D01*
X10094332Y10707041D01*
X10093668Y10707429D01*
X10093003Y10707927D01*
X10092339Y10708426D01*
X10092284Y10708481D01*
X10092173Y10708592D01*
X10092007Y10708758D01*
X10091841Y10708979D01*
X10091564Y10709256D01*
X10091287Y10709644D01*
X10090955Y10710031D01*
X10090622Y10710530D01*
X10090290Y10711083D01*
X10089958Y10711637D01*
X10089349Y10712966D01*
X10088851Y10714517D01*
X10088684Y10715347D01*
X10088574Y10716233D01*
X10093280Y10716842D01*
Y10716787D01*
X10093336Y10716676D01*
X10093391Y10716455D01*
X10093446Y10716178D01*
X10093502Y10715845D01*
X10093613Y10715458D01*
X10093889Y10714627D01*
X10094277Y10713631D01*
X10094775Y10712689D01*
X10095329Y10711803D01*
X10095994Y10711028D01*
X10096104Y10710973D01*
X10096326Y10710751D01*
X10096769Y10710474D01*
X10097322Y10710198D01*
X10097987Y10709865D01*
X10098817Y10709588D01*
X10099759Y10709367D01*
X10100756Y10709312D01*
X10101088D01*
X10101309Y10709367D01*
X10101918Y10709422D01*
X10102694Y10709588D01*
X10103579Y10709865D01*
X10104521Y10710253D01*
X10105462Y10710807D01*
X10106348Y10711582D01*
X10106459Y10711693D01*
X10106736Y10712025D01*
X10107068Y10712523D01*
X10107511Y10713188D01*
X10107954Y10714018D01*
X10108286Y10714960D01*
X10108563Y10716067D01*
X10108674Y10717285D01*
Y10717341D01*
Y10717451D01*
Y10717617D01*
X10108618Y10717839D01*
X10108563Y10718448D01*
X10108397Y10719168D01*
X10108175Y10720054D01*
X10107788Y10720940D01*
X10107234Y10721826D01*
X10106514Y10722656D01*
X10106403Y10722767D01*
X10106127Y10722988D01*
X10105684Y10723321D01*
X10105075Y10723708D01*
X10104299Y10724096D01*
X10103358Y10724428D01*
X10102306Y10724650D01*
X10101143Y10724760D01*
X10100645D01*
X10100257Y10724705D01*
X10099759Y10724650D01*
X10099205Y10724539D01*
X10098541Y10724428D01*
X10097821Y10724262D01*
X10098375Y10728415D01*
X10098651D01*
X10098873Y10728360D01*
X10099593D01*
X10100202Y10728470D01*
X10100922Y10728581D01*
X10101752Y10728747D01*
X10102694Y10729024D01*
X10103579Y10729412D01*
X10104521Y10729910D01*
X10104576D01*
X10104632Y10729965D01*
X10104908Y10730187D01*
X10105296Y10730574D01*
X10105739Y10731073D01*
X10106182Y10731793D01*
X10106570Y10732623D01*
X10106846Y10733565D01*
X10106957Y10734118D01*
Y10734727D01*
Y10734783D01*
Y10734838D01*
Y10735170D01*
X10106846Y10735613D01*
X10106736Y10736222D01*
X10106514Y10736887D01*
X10106237Y10737607D01*
X10105794Y10738327D01*
X10105185Y10738991D01*
X10105130Y10739046D01*
X10104853Y10739268D01*
X10104465Y10739545D01*
X10103967Y10739877D01*
X10103303Y10740154D01*
X10102527Y10740431D01*
X10101641Y10740652D01*
X10100645Y10740708D01*
X10100202D01*
X10099703Y10740597D01*
X10099039Y10740486D01*
X10098319Y10740265D01*
X10097599Y10739988D01*
X10096824Y10739545D01*
X10096104Y10738991D01*
X10096049Y10738936D01*
X10095827Y10738659D01*
X10095495Y10738271D01*
X10095108Y10737717D01*
X10094720Y10736998D01*
X10094332Y10736112D01*
X10094000Y10735060D01*
X10093779Y10733841D01*
X10089072Y10734672D01*
Y10734727D01*
X10089127Y10734893D01*
X10089183Y10735115D01*
X10089238Y10735447D01*
X10089349Y10735835D01*
X10089515Y10736278D01*
X10089847Y10737330D01*
X10090401Y10738548D01*
X10091065Y10739766D01*
X10091896Y10740929D01*
X10092948Y10741981D01*
X10093003Y10742036D01*
X10093114Y10742092D01*
X10093280Y10742203D01*
X10093502Y10742369D01*
X10093779Y10742590D01*
X10094166Y10742812D01*
X10094554Y10743033D01*
X10095052Y10743310D01*
X10096160Y10743753D01*
X10097433Y10744196D01*
X10098928Y10744473D01*
X10099703Y10744584D01*
X10101088D01*
X10101697Y10744528D01*
D02*
G37*
G36*
X10085196Y10739877D02*
X10072571D01*
Y10706100D01*
X10067477D01*
Y10739877D01*
X10054852D01*
Y10744417D01*
X10085196D01*
Y10739877D01*
D02*
G37*
G36*
X9782303Y10745027D02*
X9782690D01*
X9783742Y10744916D01*
X9784905Y10744750D01*
X9786123Y10744473D01*
X9787452Y10744141D01*
X9788670Y10743698D01*
X9788726D01*
X9788836Y10743642D01*
X9789003Y10743531D01*
X9789224Y10743421D01*
X9789778Y10743144D01*
X9790498Y10742646D01*
X9791328Y10742092D01*
X9792159Y10741372D01*
X9792934Y10740541D01*
X9793654Y10739600D01*
Y10739545D01*
X9793709Y10739489D01*
X9793820Y10739323D01*
X9793931Y10739157D01*
X9794207Y10738603D01*
X9794540Y10737884D01*
X9794927Y10736998D01*
X9795204Y10735946D01*
X9795481Y10734838D01*
X9795592Y10733620D01*
X9790719Y10733232D01*
Y10733288D01*
Y10733398D01*
X9790664Y10733565D01*
X9790608Y10733841D01*
X9790442Y10734450D01*
X9790221Y10735281D01*
X9789888Y10736167D01*
X9789390Y10737053D01*
X9788781Y10737884D01*
X9788006Y10738659D01*
X9787895Y10738714D01*
X9787618Y10738936D01*
X9787064Y10739268D01*
X9786345Y10739600D01*
X9785403Y10739932D01*
X9784296Y10740265D01*
X9782912Y10740486D01*
X9781361Y10740541D01*
X9780586D01*
X9780254Y10740486D01*
X9779811Y10740431D01*
X9778814Y10740320D01*
X9777707Y10740098D01*
X9776599Y10739822D01*
X9775547Y10739379D01*
X9775104Y10739102D01*
X9774661Y10738825D01*
X9774550Y10738769D01*
X9774329Y10738548D01*
X9773997Y10738160D01*
X9773664Y10737717D01*
X9773277Y10737108D01*
X9772945Y10736444D01*
X9772723Y10735669D01*
X9772612Y10734783D01*
Y10734672D01*
Y10734450D01*
X9772668Y10734063D01*
X9772779Y10733620D01*
X9772945Y10733066D01*
X9773221Y10732512D01*
X9773554Y10731959D01*
X9774052Y10731405D01*
X9774107Y10731350D01*
X9774384Y10731184D01*
X9774606Y10731017D01*
X9774827Y10730907D01*
X9775160Y10730741D01*
X9775547Y10730519D01*
X9776045Y10730353D01*
X9776599Y10730131D01*
X9777208Y10729910D01*
X9777928Y10729633D01*
X9778703Y10729412D01*
X9779589Y10729135D01*
X9780586Y10728913D01*
X9781693Y10728636D01*
X9781749D01*
X9781970Y10728581D01*
X9782303Y10728526D01*
X9782690Y10728415D01*
X9783188Y10728304D01*
X9783798Y10728138D01*
X9784407Y10727972D01*
X9785071Y10727806D01*
X9786511Y10727418D01*
X9787895Y10727031D01*
X9788560Y10726809D01*
X9789169Y10726588D01*
X9789722Y10726422D01*
X9790165Y10726200D01*
X9790221D01*
X9790331Y10726145D01*
X9790498Y10726034D01*
X9790719Y10725923D01*
X9791328Y10725591D01*
X9792048Y10725148D01*
X9792879Y10724539D01*
X9793709Y10723874D01*
X9794484Y10723099D01*
X9795149Y10722269D01*
X9795204Y10722158D01*
X9795426Y10721881D01*
X9795647Y10721383D01*
X9795979Y10720718D01*
X9796256Y10719943D01*
X9796533Y10719002D01*
X9796699Y10717950D01*
X9796755Y10716842D01*
Y10716787D01*
Y10716731D01*
Y10716565D01*
Y10716344D01*
X9796644Y10715735D01*
X9796533Y10714960D01*
X9796312Y10714074D01*
X9796035Y10713132D01*
X9795592Y10712136D01*
X9794983Y10711083D01*
Y10711028D01*
X9794927Y10710973D01*
X9794650Y10710641D01*
X9794263Y10710142D01*
X9793709Y10709588D01*
X9792989Y10708924D01*
X9792103Y10708204D01*
X9791107Y10707540D01*
X9789944Y10706931D01*
X9789888D01*
X9789778Y10706875D01*
X9789612Y10706820D01*
X9789390Y10706709D01*
X9789058Y10706598D01*
X9788670Y10706432D01*
X9787784Y10706211D01*
X9786732Y10705934D01*
X9785459Y10705657D01*
X9784074Y10705491D01*
X9782579Y10705436D01*
X9781693D01*
X9781250Y10705491D01*
X9780752D01*
X9780198Y10705546D01*
X9779534Y10705602D01*
X9778150Y10705823D01*
X9776710Y10706045D01*
X9775270Y10706432D01*
X9773886Y10706931D01*
X9773831D01*
X9773720Y10706986D01*
X9773554Y10707097D01*
X9773332Y10707207D01*
X9772668Y10707540D01*
X9771893Y10708038D01*
X9771007Y10708702D01*
X9770065Y10709478D01*
X9769179Y10710419D01*
X9768349Y10711471D01*
Y10711526D01*
X9768238Y10711637D01*
X9768183Y10711803D01*
X9768017Y10712025D01*
X9767906Y10712302D01*
X9767740Y10712634D01*
X9767352Y10713464D01*
X9766964Y10714517D01*
X9766632Y10715679D01*
X9766411Y10717008D01*
X9766300Y10718393D01*
X9771062Y10718836D01*
Y10718780D01*
Y10718725D01*
X9771117Y10718559D01*
Y10718337D01*
X9771228Y10717839D01*
X9771394Y10717119D01*
X9771616Y10716399D01*
X9771837Y10715569D01*
X9772225Y10714793D01*
X9772612Y10714074D01*
X9772668Y10714018D01*
X9772834Y10713797D01*
X9773111Y10713409D01*
X9773554Y10713021D01*
X9774107Y10712523D01*
X9774717Y10712025D01*
X9775547Y10711526D01*
X9776433Y10711083D01*
X9776488D01*
X9776544Y10711028D01*
X9776710Y10710973D01*
X9776876Y10710917D01*
X9777430Y10710751D01*
X9778150Y10710530D01*
X9779036Y10710308D01*
X9780032Y10710142D01*
X9781140Y10710031D01*
X9782358Y10709976D01*
X9782856D01*
X9783410Y10710031D01*
X9784074Y10710087D01*
X9784850Y10710198D01*
X9785736Y10710308D01*
X9786622Y10710530D01*
X9787452Y10710807D01*
X9787563Y10710862D01*
X9787840Y10710973D01*
X9788227Y10711194D01*
X9788726Y10711416D01*
X9789224Y10711803D01*
X9789778Y10712191D01*
X9790331Y10712634D01*
X9790774Y10713188D01*
X9790830Y10713243D01*
X9790941Y10713464D01*
X9791107Y10713741D01*
X9791328Y10714184D01*
X9791550Y10714627D01*
X9791716Y10715181D01*
X9791826Y10715790D01*
X9791882Y10716455D01*
Y10716510D01*
Y10716787D01*
X9791826Y10717119D01*
X9791771Y10717562D01*
X9791605Y10718005D01*
X9791439Y10718559D01*
X9791162Y10719112D01*
X9790774Y10719611D01*
X9790719Y10719666D01*
X9790553Y10719832D01*
X9790331Y10720054D01*
X9789944Y10720386D01*
X9789501Y10720718D01*
X9788892Y10721106D01*
X9788172Y10721493D01*
X9787341Y10721826D01*
X9787286Y10721881D01*
X9787009Y10721936D01*
X9786566Y10722103D01*
X9786289Y10722158D01*
X9785902Y10722269D01*
X9785514Y10722435D01*
X9785016Y10722545D01*
X9784462Y10722712D01*
X9783798Y10722878D01*
X9783133Y10723044D01*
X9782358Y10723265D01*
X9781472Y10723487D01*
X9780531Y10723708D01*
X9780475D01*
X9780309Y10723764D01*
X9780032Y10723819D01*
X9779700Y10723930D01*
X9779257Y10724041D01*
X9778759Y10724151D01*
X9777651Y10724484D01*
X9776433Y10724871D01*
X9775160Y10725259D01*
X9774052Y10725646D01*
X9773554Y10725868D01*
X9773111Y10726089D01*
X9773055D01*
X9773000Y10726145D01*
X9772668Y10726366D01*
X9772169Y10726643D01*
X9771616Y10727086D01*
X9770951Y10727584D01*
X9770287Y10728193D01*
X9769622Y10728913D01*
X9769069Y10729688D01*
X9769013Y10729799D01*
X9768847Y10730076D01*
X9768626Y10730519D01*
X9768404Y10731073D01*
X9768183Y10731793D01*
X9767961Y10732623D01*
X9767795Y10733509D01*
X9767740Y10734450D01*
Y10734506D01*
Y10734561D01*
Y10734727D01*
Y10734949D01*
X9767850Y10735503D01*
X9767961Y10736222D01*
X9768127Y10737053D01*
X9768404Y10737994D01*
X9768792Y10738936D01*
X9769345Y10739877D01*
Y10739932D01*
X9769401Y10739988D01*
X9769678Y10740320D01*
X9770065Y10740763D01*
X9770564Y10741317D01*
X9771228Y10741926D01*
X9772059Y10742590D01*
X9773055Y10743199D01*
X9774163Y10743753D01*
X9774218D01*
X9774329Y10743808D01*
X9774495Y10743864D01*
X9774717Y10743974D01*
X9774993Y10744085D01*
X9775381Y10744196D01*
X9776212Y10744417D01*
X9777264Y10744639D01*
X9778482Y10744860D01*
X9779755Y10745027D01*
X9781195Y10745082D01*
X9781915D01*
X9782303Y10745027D01*
D02*
G37*
G36*
X9854286Y10719611D02*
X9859491D01*
Y10715292D01*
X9854286D01*
Y10706100D01*
X9849579D01*
Y10715292D01*
X9832913D01*
Y10719611D01*
X9850465Y10744417D01*
X9854286D01*
Y10719611D01*
D02*
G37*
G36*
X9831196Y10739877D02*
X9818571D01*
Y10706100D01*
X9813477D01*
Y10739877D01*
X9800852D01*
Y10744417D01*
X9831196D01*
Y10739877D01*
D02*
G37*
G36*
X8004303Y8205027D02*
X8004690D01*
X8005742Y8204916D01*
X8006905Y8204750D01*
X8008123Y8204473D01*
X8009452Y8204141D01*
X8010670Y8203698D01*
X8010726D01*
X8010836Y8203642D01*
X8011003Y8203531D01*
X8011224Y8203421D01*
X8011778Y8203144D01*
X8012498Y8202646D01*
X8013328Y8202092D01*
X8014159Y8201372D01*
X8014934Y8200541D01*
X8015654Y8199600D01*
Y8199545D01*
X8015709Y8199489D01*
X8015820Y8199323D01*
X8015931Y8199157D01*
X8016207Y8198603D01*
X8016540Y8197884D01*
X8016927Y8196998D01*
X8017204Y8195946D01*
X8017481Y8194838D01*
X8017592Y8193620D01*
X8012719Y8193232D01*
Y8193288D01*
Y8193398D01*
X8012664Y8193565D01*
X8012608Y8193841D01*
X8012442Y8194450D01*
X8012221Y8195281D01*
X8011888Y8196167D01*
X8011390Y8197053D01*
X8010781Y8197884D01*
X8010006Y8198659D01*
X8009895Y8198714D01*
X8009618Y8198936D01*
X8009064Y8199268D01*
X8008345Y8199600D01*
X8007403Y8199932D01*
X8006296Y8200265D01*
X8004912Y8200486D01*
X8003361Y8200541D01*
X8002586D01*
X8002254Y8200486D01*
X8001811Y8200431D01*
X8000814Y8200320D01*
X7999707Y8200098D01*
X7998599Y8199822D01*
X7997547Y8199379D01*
X7997104Y8199102D01*
X7996661Y8198825D01*
X7996550Y8198769D01*
X7996329Y8198548D01*
X7995997Y8198160D01*
X7995664Y8197717D01*
X7995277Y8197108D01*
X7994945Y8196444D01*
X7994723Y8195669D01*
X7994612Y8194783D01*
Y8194672D01*
Y8194450D01*
X7994668Y8194063D01*
X7994779Y8193620D01*
X7994945Y8193066D01*
X7995221Y8192512D01*
X7995554Y8191959D01*
X7996052Y8191405D01*
X7996107Y8191350D01*
X7996384Y8191184D01*
X7996606Y8191017D01*
X7996827Y8190907D01*
X7997160Y8190741D01*
X7997547Y8190519D01*
X7998045Y8190353D01*
X7998599Y8190131D01*
X7999208Y8189910D01*
X7999928Y8189633D01*
X8000703Y8189412D01*
X8001589Y8189135D01*
X8002586Y8188913D01*
X8003693Y8188636D01*
X8003749D01*
X8003970Y8188581D01*
X8004303Y8188526D01*
X8004690Y8188415D01*
X8005188Y8188304D01*
X8005798Y8188138D01*
X8006407Y8187972D01*
X8007071Y8187806D01*
X8008511Y8187418D01*
X8009895Y8187031D01*
X8010560Y8186809D01*
X8011169Y8186588D01*
X8011722Y8186422D01*
X8012165Y8186200D01*
X8012221D01*
X8012331Y8186145D01*
X8012498Y8186034D01*
X8012719Y8185923D01*
X8013328Y8185591D01*
X8014048Y8185148D01*
X8014879Y8184539D01*
X8015709Y8183874D01*
X8016484Y8183099D01*
X8017149Y8182269D01*
X8017204Y8182158D01*
X8017426Y8181881D01*
X8017647Y8181383D01*
X8017979Y8180718D01*
X8018256Y8179943D01*
X8018533Y8179002D01*
X8018699Y8177950D01*
X8018755Y8176842D01*
Y8176787D01*
Y8176731D01*
Y8176565D01*
Y8176344D01*
X8018644Y8175735D01*
X8018533Y8174960D01*
X8018312Y8174074D01*
X8018035Y8173132D01*
X8017592Y8172136D01*
X8016983Y8171083D01*
Y8171028D01*
X8016927Y8170973D01*
X8016650Y8170641D01*
X8016263Y8170142D01*
X8015709Y8169588D01*
X8014989Y8168924D01*
X8014103Y8168204D01*
X8013107Y8167540D01*
X8011944Y8166931D01*
X8011888D01*
X8011778Y8166875D01*
X8011612Y8166820D01*
X8011390Y8166709D01*
X8011058Y8166598D01*
X8010670Y8166432D01*
X8009784Y8166211D01*
X8008732Y8165934D01*
X8007459Y8165657D01*
X8006074Y8165491D01*
X8004579Y8165436D01*
X8003693D01*
X8003250Y8165491D01*
X8002752D01*
X8002198Y8165546D01*
X8001534Y8165602D01*
X8000150Y8165823D01*
X7998710Y8166045D01*
X7997270Y8166432D01*
X7995886Y8166931D01*
X7995831D01*
X7995720Y8166986D01*
X7995554Y8167097D01*
X7995332Y8167207D01*
X7994668Y8167540D01*
X7993893Y8168038D01*
X7993007Y8168702D01*
X7992065Y8169478D01*
X7991179Y8170419D01*
X7990349Y8171471D01*
Y8171526D01*
X7990238Y8171637D01*
X7990183Y8171803D01*
X7990017Y8172025D01*
X7989906Y8172302D01*
X7989740Y8172634D01*
X7989352Y8173464D01*
X7988964Y8174517D01*
X7988632Y8175679D01*
X7988411Y8177008D01*
X7988300Y8178393D01*
X7993062Y8178836D01*
Y8178780D01*
Y8178725D01*
X7993117Y8178559D01*
Y8178337D01*
X7993228Y8177839D01*
X7993394Y8177119D01*
X7993616Y8176399D01*
X7993837Y8175569D01*
X7994225Y8174793D01*
X7994612Y8174074D01*
X7994668Y8174018D01*
X7994834Y8173797D01*
X7995111Y8173409D01*
X7995554Y8173022D01*
X7996107Y8172523D01*
X7996717Y8172025D01*
X7997547Y8171526D01*
X7998433Y8171083D01*
X7998488D01*
X7998544Y8171028D01*
X7998710Y8170973D01*
X7998876Y8170917D01*
X7999430Y8170751D01*
X8000150Y8170530D01*
X8001036Y8170308D01*
X8002032Y8170142D01*
X8003140Y8170031D01*
X8004358Y8169976D01*
X8004856D01*
X8005410Y8170031D01*
X8006074Y8170087D01*
X8006850Y8170198D01*
X8007736Y8170308D01*
X8008622Y8170530D01*
X8009452Y8170807D01*
X8009563Y8170862D01*
X8009840Y8170973D01*
X8010227Y8171194D01*
X8010726Y8171416D01*
X8011224Y8171803D01*
X8011778Y8172191D01*
X8012331Y8172634D01*
X8012774Y8173188D01*
X8012830Y8173243D01*
X8012941Y8173464D01*
X8013107Y8173741D01*
X8013328Y8174184D01*
X8013550Y8174627D01*
X8013716Y8175181D01*
X8013826Y8175790D01*
X8013882Y8176455D01*
Y8176510D01*
Y8176787D01*
X8013826Y8177119D01*
X8013771Y8177562D01*
X8013605Y8178005D01*
X8013439Y8178559D01*
X8013162Y8179112D01*
X8012774Y8179611D01*
X8012719Y8179666D01*
X8012553Y8179832D01*
X8012331Y8180054D01*
X8011944Y8180386D01*
X8011501Y8180718D01*
X8010892Y8181106D01*
X8010172Y8181493D01*
X8009341Y8181826D01*
X8009286Y8181881D01*
X8009009Y8181936D01*
X8008566Y8182103D01*
X8008289Y8182158D01*
X8007902Y8182269D01*
X8007514Y8182435D01*
X8007016Y8182545D01*
X8006462Y8182712D01*
X8005798Y8182878D01*
X8005133Y8183044D01*
X8004358Y8183265D01*
X8003472Y8183487D01*
X8002531Y8183708D01*
X8002475D01*
X8002309Y8183764D01*
X8002032Y8183819D01*
X8001700Y8183930D01*
X8001257Y8184041D01*
X8000759Y8184151D01*
X7999651Y8184484D01*
X7998433Y8184871D01*
X7997160Y8185259D01*
X7996052Y8185646D01*
X7995554Y8185868D01*
X7995111Y8186089D01*
X7995055D01*
X7995000Y8186145D01*
X7994668Y8186366D01*
X7994169Y8186643D01*
X7993616Y8187086D01*
X7992951Y8187584D01*
X7992287Y8188193D01*
X7991622Y8188913D01*
X7991069Y8189688D01*
X7991013Y8189799D01*
X7990847Y8190076D01*
X7990626Y8190519D01*
X7990404Y8191073D01*
X7990183Y8191793D01*
X7989961Y8192623D01*
X7989795Y8193509D01*
X7989740Y8194450D01*
Y8194506D01*
Y8194561D01*
Y8194727D01*
Y8194949D01*
X7989850Y8195503D01*
X7989961Y8196222D01*
X7990127Y8197053D01*
X7990404Y8197994D01*
X7990792Y8198936D01*
X7991345Y8199877D01*
Y8199932D01*
X7991401Y8199988D01*
X7991678Y8200320D01*
X7992065Y8200763D01*
X7992564Y8201317D01*
X7993228Y8201926D01*
X7994059Y8202590D01*
X7995055Y8203199D01*
X7996163Y8203753D01*
X7996218D01*
X7996329Y8203808D01*
X7996495Y8203864D01*
X7996717Y8203974D01*
X7996993Y8204085D01*
X7997381Y8204196D01*
X7998212Y8204417D01*
X7999264Y8204639D01*
X8000482Y8204860D01*
X8001755Y8205027D01*
X8003195Y8205082D01*
X8003915D01*
X8004303Y8205027D01*
D02*
G37*
G36*
X8070140Y8204528D02*
X8070583Y8204473D01*
X8071137Y8204417D01*
X8071746Y8204307D01*
X8072355Y8204196D01*
X8073794Y8203808D01*
X8075234Y8203255D01*
X8075954Y8202922D01*
X8076674Y8202535D01*
X8077338Y8202036D01*
X8077947Y8201483D01*
X8078003Y8201427D01*
X8078113Y8201372D01*
X8078224Y8201150D01*
X8078446Y8200929D01*
X8078722Y8200652D01*
X8078999Y8200265D01*
X8079276Y8199877D01*
X8079608Y8199379D01*
X8080162Y8198327D01*
X8080716Y8196998D01*
X8080937Y8196333D01*
X8081048Y8195558D01*
X8081159Y8194783D01*
X8081214Y8193952D01*
Y8193841D01*
Y8193565D01*
X8081159Y8193122D01*
X8081103Y8192512D01*
X8080993Y8191848D01*
X8080771Y8191073D01*
X8080550Y8190242D01*
X8080218Y8189412D01*
X8080162Y8189301D01*
X8080051Y8189024D01*
X8079830Y8188581D01*
X8079498Y8187972D01*
X8079055Y8187307D01*
X8078501Y8186477D01*
X8077837Y8185646D01*
X8077061Y8184705D01*
X8076951Y8184594D01*
X8076674Y8184262D01*
X8076397Y8183985D01*
X8076120Y8183708D01*
X8075788Y8183376D01*
X8075345Y8182933D01*
X8074902Y8182490D01*
X8074348Y8181992D01*
X8073794Y8181438D01*
X8073130Y8180829D01*
X8072410Y8180220D01*
X8071635Y8179500D01*
X8070749Y8178780D01*
X8069863Y8178005D01*
X8069808Y8177950D01*
X8069697Y8177839D01*
X8069475Y8177673D01*
X8069198Y8177451D01*
X8068866Y8177119D01*
X8068479Y8176787D01*
X8067593Y8176067D01*
X8066651Y8175236D01*
X8065765Y8174406D01*
X8064990Y8173686D01*
X8064658Y8173409D01*
X8064381Y8173132D01*
X8064326Y8173077D01*
X8064160Y8172911D01*
X8063938Y8172689D01*
X8063661Y8172357D01*
X8063384Y8171969D01*
X8063052Y8171582D01*
X8062388Y8170641D01*
X8081270D01*
Y8166100D01*
X8055854D01*
Y8166155D01*
Y8166377D01*
Y8166709D01*
X8055909Y8167152D01*
X8055965Y8167650D01*
X8056075Y8168204D01*
X8056186Y8168758D01*
X8056408Y8169367D01*
Y8169422D01*
X8056463Y8169478D01*
X8056574Y8169810D01*
X8056795Y8170308D01*
X8057127Y8170973D01*
X8057570Y8171748D01*
X8058124Y8172634D01*
X8058733Y8173520D01*
X8059508Y8174461D01*
Y8174517D01*
X8059619Y8174572D01*
X8059896Y8174904D01*
X8060394Y8175402D01*
X8061114Y8176122D01*
X8061945Y8176953D01*
X8062997Y8177950D01*
X8064270Y8179057D01*
X8065655Y8180220D01*
X8065710Y8180275D01*
X8065932Y8180441D01*
X8066264Y8180718D01*
X8066651Y8181050D01*
X8067150Y8181493D01*
X8067759Y8181992D01*
X8068368Y8182545D01*
X8069088Y8183155D01*
X8070472Y8184484D01*
X8071856Y8185812D01*
X8072521Y8186477D01*
X8073130Y8187141D01*
X8073684Y8187750D01*
X8074127Y8188360D01*
Y8188415D01*
X8074237Y8188470D01*
X8074348Y8188636D01*
X8074459Y8188858D01*
X8074846Y8189467D01*
X8075289Y8190187D01*
X8075677Y8191073D01*
X8076065Y8192014D01*
X8076286Y8193066D01*
X8076397Y8194063D01*
Y8194118D01*
Y8194174D01*
X8076341Y8194506D01*
X8076286Y8195060D01*
X8076120Y8195669D01*
X8075899Y8196444D01*
X8075511Y8197219D01*
X8075013Y8197994D01*
X8074348Y8198769D01*
X8074237Y8198880D01*
X8073960Y8199102D01*
X8073573Y8199379D01*
X8072964Y8199766D01*
X8072189Y8200098D01*
X8071303Y8200431D01*
X8070251Y8200652D01*
X8069088Y8200708D01*
X8068756D01*
X8068534Y8200652D01*
X8067870Y8200597D01*
X8067094Y8200431D01*
X8066264Y8200209D01*
X8065322Y8199822D01*
X8064437Y8199323D01*
X8063606Y8198659D01*
X8063495Y8198548D01*
X8063274Y8198271D01*
X8062941Y8197828D01*
X8062609Y8197164D01*
X8062222Y8196388D01*
X8061889Y8195392D01*
X8061668Y8194284D01*
X8061557Y8193011D01*
X8056740Y8193509D01*
Y8193565D01*
X8056795Y8193731D01*
Y8194007D01*
X8056851Y8194395D01*
X8056961Y8194838D01*
X8057072Y8195336D01*
X8057238Y8195946D01*
X8057404Y8196555D01*
X8057847Y8197884D01*
X8058512Y8199212D01*
X8058899Y8199877D01*
X8059398Y8200541D01*
X8059896Y8201150D01*
X8060450Y8201704D01*
X8060505Y8201760D01*
X8060616Y8201815D01*
X8060782Y8201981D01*
X8061059Y8202147D01*
X8061391Y8202369D01*
X8061779Y8202590D01*
X8062222Y8202867D01*
X8062775Y8203144D01*
X8063384Y8203421D01*
X8064049Y8203698D01*
X8064769Y8203919D01*
X8065544Y8204141D01*
X8066375Y8204307D01*
X8067260Y8204473D01*
X8068202Y8204528D01*
X8069198Y8204584D01*
X8069752D01*
X8070140Y8204528D01*
D02*
G37*
G36*
X8053196Y8199877D02*
X8040571D01*
Y8166100D01*
X8035477D01*
Y8199877D01*
X8022852D01*
Y8204417D01*
X8053196D01*
Y8199877D01*
D02*
G37*
G36*
X7750303Y8205027D02*
X7750690D01*
X7751742Y8204916D01*
X7752905Y8204750D01*
X7754123Y8204473D01*
X7755452Y8204141D01*
X7756670Y8203698D01*
X7756726D01*
X7756836Y8203642D01*
X7757003Y8203531D01*
X7757224Y8203421D01*
X7757778Y8203144D01*
X7758498Y8202646D01*
X7759328Y8202092D01*
X7760159Y8201372D01*
X7760934Y8200541D01*
X7761654Y8199600D01*
Y8199545D01*
X7761709Y8199489D01*
X7761820Y8199323D01*
X7761931Y8199157D01*
X7762207Y8198603D01*
X7762540Y8197884D01*
X7762927Y8196998D01*
X7763204Y8195946D01*
X7763481Y8194838D01*
X7763592Y8193620D01*
X7758719Y8193232D01*
Y8193288D01*
Y8193398D01*
X7758664Y8193565D01*
X7758608Y8193841D01*
X7758442Y8194450D01*
X7758221Y8195281D01*
X7757888Y8196167D01*
X7757390Y8197053D01*
X7756781Y8197884D01*
X7756006Y8198659D01*
X7755895Y8198714D01*
X7755618Y8198936D01*
X7755064Y8199268D01*
X7754345Y8199600D01*
X7753403Y8199932D01*
X7752296Y8200265D01*
X7750912Y8200486D01*
X7749361Y8200541D01*
X7748586D01*
X7748254Y8200486D01*
X7747811Y8200431D01*
X7746814Y8200320D01*
X7745707Y8200098D01*
X7744599Y8199822D01*
X7743547Y8199379D01*
X7743104Y8199102D01*
X7742661Y8198825D01*
X7742550Y8198769D01*
X7742329Y8198548D01*
X7741997Y8198160D01*
X7741664Y8197717D01*
X7741277Y8197108D01*
X7740945Y8196444D01*
X7740723Y8195669D01*
X7740612Y8194783D01*
Y8194672D01*
Y8194450D01*
X7740668Y8194063D01*
X7740779Y8193620D01*
X7740945Y8193066D01*
X7741222Y8192512D01*
X7741554Y8191959D01*
X7742052Y8191405D01*
X7742107Y8191350D01*
X7742384Y8191184D01*
X7742606Y8191017D01*
X7742827Y8190907D01*
X7743160Y8190741D01*
X7743547Y8190519D01*
X7744045Y8190353D01*
X7744599Y8190131D01*
X7745208Y8189910D01*
X7745928Y8189633D01*
X7746703Y8189412D01*
X7747589Y8189135D01*
X7748586Y8188913D01*
X7749693Y8188636D01*
X7749749D01*
X7749970Y8188581D01*
X7750303Y8188526D01*
X7750690Y8188415D01*
X7751188Y8188304D01*
X7751798Y8188138D01*
X7752407Y8187972D01*
X7753071Y8187806D01*
X7754511Y8187418D01*
X7755895Y8187031D01*
X7756560Y8186809D01*
X7757169Y8186588D01*
X7757722Y8186422D01*
X7758165Y8186200D01*
X7758221D01*
X7758331Y8186145D01*
X7758498Y8186034D01*
X7758719Y8185923D01*
X7759328Y8185591D01*
X7760048Y8185148D01*
X7760879Y8184539D01*
X7761709Y8183874D01*
X7762484Y8183099D01*
X7763149Y8182269D01*
X7763204Y8182158D01*
X7763426Y8181881D01*
X7763647Y8181383D01*
X7763979Y8180718D01*
X7764256Y8179943D01*
X7764533Y8179002D01*
X7764699Y8177950D01*
X7764755Y8176842D01*
Y8176787D01*
Y8176731D01*
Y8176565D01*
Y8176344D01*
X7764644Y8175735D01*
X7764533Y8174960D01*
X7764312Y8174074D01*
X7764035Y8173132D01*
X7763592Y8172136D01*
X7762983Y8171083D01*
Y8171028D01*
X7762927Y8170973D01*
X7762650Y8170641D01*
X7762263Y8170142D01*
X7761709Y8169588D01*
X7760989Y8168924D01*
X7760103Y8168204D01*
X7759107Y8167540D01*
X7757944Y8166931D01*
X7757888D01*
X7757778Y8166875D01*
X7757612Y8166820D01*
X7757390Y8166709D01*
X7757058Y8166598D01*
X7756670Y8166432D01*
X7755784Y8166211D01*
X7754732Y8165934D01*
X7753459Y8165657D01*
X7752074Y8165491D01*
X7750579Y8165436D01*
X7749693D01*
X7749250Y8165491D01*
X7748752D01*
X7748198Y8165546D01*
X7747534Y8165602D01*
X7746150Y8165823D01*
X7744710Y8166045D01*
X7743270Y8166432D01*
X7741886Y8166931D01*
X7741831D01*
X7741720Y8166986D01*
X7741554Y8167097D01*
X7741332Y8167207D01*
X7740668Y8167540D01*
X7739893Y8168038D01*
X7739007Y8168702D01*
X7738065Y8169478D01*
X7737179Y8170419D01*
X7736349Y8171471D01*
Y8171526D01*
X7736238Y8171637D01*
X7736183Y8171803D01*
X7736017Y8172025D01*
X7735906Y8172302D01*
X7735740Y8172634D01*
X7735352Y8173464D01*
X7734964Y8174517D01*
X7734632Y8175679D01*
X7734411Y8177008D01*
X7734300Y8178393D01*
X7739062Y8178836D01*
Y8178780D01*
Y8178725D01*
X7739117Y8178559D01*
Y8178337D01*
X7739228Y8177839D01*
X7739394Y8177119D01*
X7739616Y8176399D01*
X7739837Y8175569D01*
X7740225Y8174793D01*
X7740612Y8174074D01*
X7740668Y8174018D01*
X7740834Y8173797D01*
X7741111Y8173409D01*
X7741554Y8173022D01*
X7742107Y8172523D01*
X7742717Y8172025D01*
X7743547Y8171526D01*
X7744433Y8171083D01*
X7744488D01*
X7744544Y8171028D01*
X7744710Y8170973D01*
X7744876Y8170917D01*
X7745430Y8170751D01*
X7746150Y8170530D01*
X7747036Y8170308D01*
X7748032Y8170142D01*
X7749140Y8170031D01*
X7750358Y8169976D01*
X7750856D01*
X7751410Y8170031D01*
X7752074Y8170087D01*
X7752850Y8170198D01*
X7753736Y8170308D01*
X7754622Y8170530D01*
X7755452Y8170807D01*
X7755563Y8170862D01*
X7755840Y8170973D01*
X7756227Y8171194D01*
X7756726Y8171416D01*
X7757224Y8171803D01*
X7757778Y8172191D01*
X7758331Y8172634D01*
X7758774Y8173188D01*
X7758830Y8173243D01*
X7758941Y8173464D01*
X7759107Y8173741D01*
X7759328Y8174184D01*
X7759550Y8174627D01*
X7759716Y8175181D01*
X7759826Y8175790D01*
X7759882Y8176455D01*
Y8176510D01*
Y8176787D01*
X7759826Y8177119D01*
X7759771Y8177562D01*
X7759605Y8178005D01*
X7759439Y8178559D01*
X7759162Y8179112D01*
X7758774Y8179611D01*
X7758719Y8179666D01*
X7758553Y8179832D01*
X7758331Y8180054D01*
X7757944Y8180386D01*
X7757501Y8180718D01*
X7756892Y8181106D01*
X7756172Y8181493D01*
X7755341Y8181826D01*
X7755286Y8181881D01*
X7755009Y8181936D01*
X7754566Y8182103D01*
X7754289Y8182158D01*
X7753902Y8182269D01*
X7753514Y8182435D01*
X7753016Y8182545D01*
X7752462Y8182712D01*
X7751798Y8182878D01*
X7751133Y8183044D01*
X7750358Y8183265D01*
X7749472Y8183487D01*
X7748531Y8183708D01*
X7748475D01*
X7748309Y8183764D01*
X7748032Y8183819D01*
X7747700Y8183930D01*
X7747257Y8184041D01*
X7746759Y8184151D01*
X7745651Y8184484D01*
X7744433Y8184871D01*
X7743160Y8185259D01*
X7742052Y8185646D01*
X7741554Y8185868D01*
X7741111Y8186089D01*
X7741055D01*
X7741000Y8186145D01*
X7740668Y8186366D01*
X7740169Y8186643D01*
X7739616Y8187086D01*
X7738951Y8187584D01*
X7738287Y8188193D01*
X7737622Y8188913D01*
X7737069Y8189688D01*
X7737013Y8189799D01*
X7736847Y8190076D01*
X7736626Y8190519D01*
X7736404Y8191073D01*
X7736183Y8191793D01*
X7735961Y8192623D01*
X7735795Y8193509D01*
X7735740Y8194450D01*
Y8194506D01*
Y8194561D01*
Y8194727D01*
Y8194949D01*
X7735850Y8195503D01*
X7735961Y8196222D01*
X7736127Y8197053D01*
X7736404Y8197994D01*
X7736792Y8198936D01*
X7737345Y8199877D01*
Y8199932D01*
X7737401Y8199988D01*
X7737678Y8200320D01*
X7738065Y8200763D01*
X7738564Y8201317D01*
X7739228Y8201926D01*
X7740059Y8202590D01*
X7741055Y8203199D01*
X7742163Y8203753D01*
X7742218D01*
X7742329Y8203808D01*
X7742495Y8203864D01*
X7742717Y8203974D01*
X7742993Y8204085D01*
X7743381Y8204196D01*
X7744212Y8204417D01*
X7745264Y8204639D01*
X7746482Y8204860D01*
X7747755Y8205027D01*
X7749195Y8205082D01*
X7749915D01*
X7750303Y8205027D01*
D02*
G37*
G36*
X7820237Y8166100D02*
X7815531D01*
Y8196056D01*
X7815475Y8196001D01*
X7815198Y8195779D01*
X7814866Y8195447D01*
X7814313Y8195060D01*
X7813703Y8194561D01*
X7812928Y8194007D01*
X7812042Y8193398D01*
X7811046Y8192789D01*
X7810990D01*
X7810935Y8192734D01*
X7810603Y8192512D01*
X7810049Y8192236D01*
X7809384Y8191903D01*
X7808609Y8191516D01*
X7807779Y8191128D01*
X7806948Y8190741D01*
X7806117Y8190408D01*
Y8194949D01*
X7806173D01*
X7806284Y8195060D01*
X7806505Y8195115D01*
X7806782Y8195281D01*
X7807114Y8195447D01*
X7807502Y8195669D01*
X7808443Y8196222D01*
X7809551Y8196831D01*
X7810658Y8197607D01*
X7811821Y8198493D01*
X7812984Y8199434D01*
X7813039Y8199489D01*
X7813094Y8199545D01*
X7813260Y8199711D01*
X7813482Y8199877D01*
X7813980Y8200431D01*
X7814645Y8201095D01*
X7815309Y8201870D01*
X7816029Y8202756D01*
X7816638Y8203642D01*
X7817192Y8204584D01*
X7820237D01*
Y8166100D01*
D02*
G37*
G36*
X7799196Y8199877D02*
X7786571D01*
Y8166100D01*
X7781477D01*
Y8199877D01*
X7768852D01*
Y8204417D01*
X7799196D01*
Y8199877D01*
D02*
G37*
%LPC*%
G36*
X9622767Y8700708D02*
X9622435D01*
X9622213Y8700652D01*
X9621604Y8700541D01*
X9620884Y8700375D01*
X9620054Y8700043D01*
X9619168Y8699545D01*
X9618725Y8699212D01*
X9618282Y8698880D01*
X9617894Y8698437D01*
X9617507Y8697939D01*
Y8697884D01*
X9617396Y8697773D01*
X9617285Y8697551D01*
X9617119Y8697274D01*
X9616953Y8696831D01*
X9616732Y8696333D01*
X9616565Y8695724D01*
X9616344Y8695004D01*
X9616123Y8694174D01*
X9615901Y8693232D01*
X9615680Y8692180D01*
X9615513Y8691017D01*
X9615347Y8689688D01*
X9615237Y8688249D01*
X9615181Y8686698D01*
X9615126Y8684982D01*
Y8684871D01*
Y8684594D01*
Y8684096D01*
X9615181Y8683431D01*
Y8682712D01*
X9615237Y8681826D01*
X9615292Y8680884D01*
X9615403Y8679888D01*
X9615680Y8677728D01*
X9615846Y8676676D01*
X9616067Y8675679D01*
X9616289Y8674738D01*
X9616621Y8673852D01*
X9616953Y8673077D01*
X9617341Y8672412D01*
Y8672357D01*
X9617451Y8672302D01*
X9617728Y8671914D01*
X9618227Y8671416D01*
X9618836Y8670862D01*
X9619666Y8670308D01*
X9620608Y8669810D01*
X9621660Y8669422D01*
X9622213Y8669367D01*
X9622823Y8669312D01*
X9623155D01*
X9623376Y8669367D01*
X9623930Y8669478D01*
X9624705Y8669699D01*
X9625536Y8670087D01*
X9626477Y8670641D01*
X9626920Y8670973D01*
X9627363Y8671416D01*
X9627806Y8671859D01*
X9628249Y8672412D01*
Y8672468D01*
X9628360Y8672579D01*
X9628470Y8672745D01*
X9628581Y8673022D01*
X9628803Y8673409D01*
X9628969Y8673907D01*
X9629190Y8674461D01*
X9629412Y8675126D01*
X9629578Y8675956D01*
X9629799Y8676842D01*
X9630021Y8677894D01*
X9630187Y8679002D01*
X9630298Y8680331D01*
X9630408Y8681715D01*
X9630519Y8683265D01*
Y8684982D01*
Y8685037D01*
Y8685093D01*
Y8685369D01*
Y8685868D01*
X9630464Y8686532D01*
Y8687252D01*
X9630408Y8688138D01*
X9630353Y8689079D01*
X9630242Y8690131D01*
X9629965Y8692236D01*
X9629799Y8693288D01*
X9629578Y8694284D01*
X9629356Y8695226D01*
X9629024Y8696112D01*
X9628692Y8696887D01*
X9628304Y8697551D01*
Y8697607D01*
X9628194Y8697662D01*
X9628083Y8697828D01*
X9627917Y8698050D01*
X9627418Y8698548D01*
X9626809Y8699157D01*
X9625979Y8699711D01*
X9625037Y8700209D01*
X9624539Y8700431D01*
X9623985Y8700597D01*
X9623376Y8700652D01*
X9622767Y8700708D01*
D02*
G37*
G36*
X10355088D02*
X10354645D01*
X10354146Y8700597D01*
X10353482Y8700486D01*
X10352762Y8700265D01*
X10351987Y8699988D01*
X10351267Y8699545D01*
X10350547Y8698936D01*
X10350492Y8698880D01*
X10350270Y8698659D01*
X10349994Y8698271D01*
X10349717Y8697773D01*
X10349384Y8697164D01*
X10349108Y8696444D01*
X10348886Y8695669D01*
X10348831Y8694783D01*
Y8694727D01*
Y8694672D01*
X10348886Y8694340D01*
X10348941Y8693841D01*
X10349052Y8693232D01*
X10349274Y8692512D01*
X10349551Y8691793D01*
X10349994Y8691017D01*
X10350547Y8690353D01*
X10350603Y8690298D01*
X10350879Y8690076D01*
X10351267Y8689799D01*
X10351765Y8689522D01*
X10352430Y8689190D01*
X10353205Y8688913D01*
X10354091Y8688692D01*
X10355088Y8688636D01*
X10355198D01*
X10355531Y8688692D01*
X10356029Y8688747D01*
X10356694Y8688858D01*
X10357413Y8689079D01*
X10358133Y8689356D01*
X10358908Y8689799D01*
X10359573Y8690353D01*
X10359628Y8690408D01*
X10359850Y8690685D01*
X10360127Y8691017D01*
X10360459Y8691516D01*
X10360791Y8692125D01*
X10361068Y8692845D01*
X10361289Y8693675D01*
X10361345Y8694561D01*
Y8694617D01*
Y8694672D01*
Y8695004D01*
X10361234Y8695503D01*
X10361123Y8696112D01*
X10360902Y8696776D01*
X10360570Y8697496D01*
X10360127Y8698216D01*
X10359518Y8698936D01*
X10359462Y8698991D01*
X10359185Y8699212D01*
X10358798Y8699489D01*
X10358299Y8699822D01*
X10357635Y8700154D01*
X10356915Y8700431D01*
X10356029Y8700652D01*
X10355088Y8700708D01*
D02*
G37*
G36*
X10354922Y8684816D02*
X10354589D01*
X10354368Y8684760D01*
X10353759Y8684705D01*
X10352984Y8684539D01*
X10352098Y8684262D01*
X10351212Y8683874D01*
X10350270Y8683321D01*
X10349440Y8682601D01*
X10349329Y8682490D01*
X10349108Y8682213D01*
X10348775Y8681715D01*
X10348388Y8681106D01*
X10347945Y8680275D01*
X10347613Y8679334D01*
X10347391Y8678282D01*
X10347280Y8677119D01*
Y8677008D01*
Y8676787D01*
X10347336Y8676399D01*
X10347391Y8675901D01*
X10347502Y8675292D01*
X10347668Y8674627D01*
X10347889Y8673963D01*
X10348166Y8673243D01*
X10348222Y8673188D01*
X10348332Y8672911D01*
X10348554Y8672579D01*
X10348886Y8672191D01*
X10349274Y8671693D01*
X10349772Y8671194D01*
X10350326Y8670751D01*
X10350990Y8670308D01*
X10351101Y8670253D01*
X10351322Y8670142D01*
X10351710Y8669976D01*
X10352208Y8669810D01*
X10352817Y8669644D01*
X10353537Y8669478D01*
X10354313Y8669367D01*
X10355088Y8669312D01*
X10355420D01*
X10355641Y8669367D01*
X10356306Y8669422D01*
X10357081Y8669588D01*
X10357967Y8669865D01*
X10358908Y8670198D01*
X10359794Y8670751D01*
X10360680Y8671471D01*
X10360791Y8671582D01*
X10361013Y8671859D01*
X10361400Y8672357D01*
X10361788Y8672966D01*
X10362175Y8673741D01*
X10362563Y8674683D01*
X10362784Y8675790D01*
X10362895Y8676953D01*
Y8677008D01*
Y8677119D01*
Y8677285D01*
X10362840Y8677507D01*
X10362784Y8678116D01*
X10362618Y8678946D01*
X10362341Y8679777D01*
X10361954Y8680718D01*
X10361400Y8681660D01*
X10360625Y8682545D01*
X10360514Y8682656D01*
X10360237Y8682878D01*
X10359739Y8683265D01*
X10359075Y8683708D01*
X10358244Y8684096D01*
X10357247Y8684484D01*
X10356140Y8684705D01*
X10354922Y8684816D01*
D02*
G37*
G36*
X10609697Y10740708D02*
X10608811D01*
X10608589Y10740652D01*
X10607980Y10740597D01*
X10607260Y10740375D01*
X10606375Y10740098D01*
X10605433Y10739600D01*
X10604492Y10738991D01*
X10604049Y10738548D01*
X10603606Y10738105D01*
Y10738050D01*
X10603495Y10737994D01*
X10603384Y10737828D01*
X10603274Y10737662D01*
X10602886Y10737108D01*
X10602498Y10736333D01*
X10602056Y10735392D01*
X10601668Y10734229D01*
X10601446Y10732900D01*
X10601336Y10731460D01*
Y10731405D01*
Y10731294D01*
Y10731128D01*
X10601391Y10730851D01*
Y10730519D01*
X10601446Y10730187D01*
X10601613Y10729356D01*
X10601889Y10728415D01*
X10602222Y10727418D01*
X10602775Y10726422D01*
X10603495Y10725536D01*
X10603606Y10725425D01*
X10603883Y10725203D01*
X10604381Y10724816D01*
X10604990Y10724428D01*
X10605821Y10723985D01*
X10606762Y10723598D01*
X10607814Y10723376D01*
X10608977Y10723265D01*
X10609309D01*
X10609531Y10723321D01*
X10610140Y10723376D01*
X10610860Y10723542D01*
X10611746Y10723819D01*
X10612632Y10724207D01*
X10613518Y10724760D01*
X10614348Y10725536D01*
X10614459Y10725646D01*
X10614680Y10725979D01*
X10615013Y10726477D01*
X10615456Y10727197D01*
X10615843Y10728083D01*
X10616175Y10729135D01*
X10616397Y10730408D01*
X10616508Y10731848D01*
Y10731903D01*
Y10732014D01*
Y10732236D01*
X10616452Y10732512D01*
Y10732900D01*
X10616397Y10733288D01*
X10616231Y10734174D01*
X10616009Y10735226D01*
X10615622Y10736333D01*
X10615068Y10737385D01*
X10614348Y10738327D01*
Y10738382D01*
X10614237Y10738437D01*
X10613960Y10738714D01*
X10613518Y10739102D01*
X10612908Y10739545D01*
X10612133Y10739932D01*
X10611247Y10740320D01*
X10610251Y10740597D01*
X10609697Y10740708D01*
D02*
G37*
G36*
X10355365Y10726809D02*
X10355032D01*
X10354811Y10726754D01*
X10354257Y10726698D01*
X10353482Y10726532D01*
X10352651Y10726255D01*
X10351710Y10725812D01*
X10350824Y10725259D01*
X10349938Y10724484D01*
X10349827Y10724373D01*
X10349606Y10724096D01*
X10349218Y10723598D01*
X10348831Y10722878D01*
X10348443Y10722047D01*
X10348056Y10720995D01*
X10347834Y10719832D01*
X10347723Y10718503D01*
Y10718393D01*
Y10718116D01*
X10347779Y10717617D01*
X10347834Y10717008D01*
X10347945Y10716288D01*
X10348166Y10715513D01*
X10348388Y10714683D01*
X10348720Y10713852D01*
X10348775Y10713741D01*
X10348941Y10713464D01*
X10349163Y10713077D01*
X10349495Y10712579D01*
X10349883Y10712080D01*
X10350381Y10711471D01*
X10350935Y10710973D01*
X10351599Y10710474D01*
X10351710Y10710419D01*
X10351932Y10710308D01*
X10352319Y10710087D01*
X10352817Y10709921D01*
X10353371Y10709699D01*
X10354036Y10709478D01*
X10354756Y10709367D01*
X10355531Y10709312D01*
X10355808D01*
X10356029Y10709367D01*
X10356583Y10709422D01*
X10357303Y10709588D01*
X10358078Y10709921D01*
X10358964Y10710308D01*
X10359850Y10710917D01*
X10360293Y10711250D01*
X10360680Y10711693D01*
Y10711748D01*
X10360791Y10711803D01*
X10361013Y10712136D01*
X10361345Y10712689D01*
X10361788Y10713409D01*
X10362175Y10714350D01*
X10362508Y10715458D01*
X10362729Y10716731D01*
X10362840Y10718226D01*
Y10718282D01*
Y10718393D01*
Y10718614D01*
X10362784Y10718891D01*
Y10719223D01*
X10362729Y10719611D01*
X10362563Y10720497D01*
X10362341Y10721493D01*
X10361954Y10722545D01*
X10361400Y10723542D01*
X10360680Y10724484D01*
X10360570Y10724594D01*
X10360293Y10724871D01*
X10359850Y10725203D01*
X10359241Y10725646D01*
X10358465Y10726089D01*
X10357579Y10726422D01*
X10356527Y10726698D01*
X10355365Y10726809D01*
D02*
G37*
G36*
X9849579Y10736776D02*
X9837508Y10719611D01*
X9849579D01*
Y10736776D01*
D02*
G37*
%LPD*%
%TF.MD5,5bdb52c560ee788898da6e9b02aa9322*%
M02*
