%TF.GenerationSoftware,Altium Limited,Altium Designer,26.1.1 (7)*%
G04 Layer_Color=16711935*
%FSLAX45Y45*%
%MOMM*%
%TF.SameCoordinates,24EA0A1D-C4C2-4479-9BD9-1B96D5021C57*%
%TF.FilePolarity,Positive*%
%TF.FileFunction,Other,Mechanical_1*%
%TF.Part,Single*%
G01*
G75*
%TA.AperFunction,NonConductor*%
%ADD40C,0.25400*%
D40*
X9800000Y10600000D02*
G03*
X9700000Y10500000I0J-100000D01*
G01*
X9600000Y10400000D02*
G03*
X9700000Y10500000I0J100000D01*
G01*
X9027000Y10400000D02*
G03*
X8900000Y10273000I0J-127000D01*
G01*
X8800000Y9900000D02*
G03*
X8900000Y10000000I0J100000D01*
G01*
X7600000Y9900000D02*
G03*
X7500000Y9800000I0J-100000D01*
G01*
Y7827000D02*
G03*
X7627000Y7700000I127000J0D01*
G01*
X8873000D02*
G03*
X9000000Y7827000I0J127000D01*
G01*
X9100000Y8200000D02*
G03*
X9000000Y8100000I0J-100000D01*
G01*
X10773000Y8200000D02*
G03*
X10900000Y8327000I0J127000D01*
G01*
Y10500000D02*
G03*
X10800000Y10600000I-100000J0D01*
G01*
X9800000D02*
X9800000D01*
X9027000Y10400000D02*
X9600000D01*
X8900000Y10000000D02*
Y10273000D01*
X7600000Y9900000D02*
X8800000D01*
X7500000Y7827000D02*
Y9800000D01*
X7627000Y7700000D02*
X8873000D01*
X9000000Y7827000D02*
Y8100000D01*
X9100000Y8200000D02*
X10773000D01*
X10900000Y8327000D02*
Y10500000D01*
X9800000Y10600000D02*
X10800000D01*
%TF.MD5,2044aa85883ec8c9744235005bd2aff9*%
M02*
