%TF.GenerationSoftware,Altium Limited,Altium Designer,26.1.1 (7)*%
G04 Layer_Color=32896*
%FSLAX45Y45*%
%MOMM*%
%TF.SameCoordinates,24EA0A1D-C4C2-4479-9BD9-1B96D5021C57*%
%TF.FilePolarity,Positive*%
%TF.FileFunction,Legend,Bot*%
%TF.Part,Single*%
G01*
G75*
%TA.AperFunction,NonConductor*%
%ADD41C,0.20320*%
G36*
X9229214Y9759721D02*
X9229881Y9759499D01*
X9277408Y9759277D01*
X9419766D01*
X9423319Y9759499D01*
X9424207Y9759277D01*
X9424763Y9758500D01*
X9424541Y9756501D01*
X9424763Y9755835D01*
X9424985Y9752947D01*
X9424763Y9752059D01*
X9424429Y9751726D01*
X9423652Y9751393D01*
X9422209Y9751504D01*
X9421320Y9751282D01*
X9420987Y9750949D01*
X9420654Y9747284D01*
X9420432Y9746396D01*
X9420543Y9744508D01*
X9420321Y9743620D01*
X9419988Y9743287D01*
X9417767Y9743065D01*
X9416879Y9742843D01*
X9416657Y9742398D01*
X9416434Y9741510D01*
X9416546Y9740511D01*
X9416323Y9738956D01*
X9415324Y9738179D01*
X9413880Y9738290D01*
X9412881Y9738179D01*
X9412326Y9737179D01*
X9412548Y9735403D01*
X9412326Y9734736D01*
X9411993Y9730628D01*
X9410882Y9729961D01*
X9409550Y9730183D01*
X9408661Y9729961D01*
X9408106Y9729406D01*
X9407884Y9726297D01*
X9407218Y9724742D01*
X9407440Y9723188D01*
X9407218Y9722299D01*
X9406663Y9721966D01*
X9405108Y9722188D01*
X9404220Y9721966D01*
X9403331Y9721078D01*
X9402887Y9720856D01*
X9402443Y9720412D01*
X9400666Y9720634D01*
X9400111Y9720079D01*
X9400333Y9718524D01*
X9399889Y9717414D01*
X9399445Y9715637D01*
X9399667Y9714971D01*
X9399445Y9712972D01*
X9399223Y9712305D01*
X9399445Y9710973D01*
X9399223Y9709418D01*
X9398779Y9708974D01*
X9397890Y9708752D01*
X9396447Y9708863D01*
X9395558Y9708641D01*
X9395003Y9708086D01*
X9394781Y9705421D01*
X9394337Y9704310D01*
X9391672Y9704088D01*
X9391450Y9701423D01*
X9391005Y9700313D01*
X9390783Y9697204D01*
X9390450Y9696204D01*
X9388007Y9695982D01*
X9387119Y9695760D01*
X9386564Y9694761D01*
X9386786Y9693206D01*
X9386564Y9692318D01*
X9386008Y9691762D01*
X9385120Y9691540D01*
X9384454Y9691762D01*
X9382899Y9691540D01*
X9382566Y9691207D01*
X9382344Y9688098D01*
X9382122Y9687432D01*
X9381900Y9683878D01*
X9381567Y9683545D01*
X9380678Y9683323D01*
X9379790Y9683545D01*
X9378901Y9683323D01*
X9378346Y9682768D01*
X9378124Y9679881D01*
X9377902Y9678992D01*
X9377569Y9678659D01*
X9375348Y9678437D01*
X9374460Y9678215D01*
X9374127Y9677438D01*
X9374349Y9675883D01*
X9373905Y9674773D01*
X9373683Y9671663D01*
X9373349Y9670664D01*
X9370906Y9670442D01*
X9370018Y9670220D01*
X9369685Y9669665D01*
X9369463Y9668110D01*
X9369685Y9667444D01*
X9369352Y9665778D01*
X9369130Y9662669D01*
X9368352Y9662114D01*
X9366243Y9662225D01*
X9365465Y9661448D01*
X9365243Y9658560D01*
X9364688Y9657339D01*
X9362023Y9657117D01*
X9361690Y9656784D01*
X9361468Y9655895D01*
X9361690Y9655229D01*
X9361468Y9653896D01*
X9361023Y9653452D01*
X9360801Y9653008D01*
X9360246Y9652453D01*
X9359358Y9652231D01*
X9358692Y9652453D01*
X9357914Y9652342D01*
X9357692Y9651453D01*
X9357914Y9650565D01*
X9356915Y9648677D01*
X9356693Y9645124D01*
X9356471Y9644013D01*
X9356582Y9642126D01*
X9356360Y9641238D01*
X9355360Y9640682D01*
X9353806Y9640904D01*
X9352695Y9640460D01*
X9351918Y9639239D01*
X9352140Y9637684D01*
X9351918Y9636796D01*
X9351585Y9636463D01*
X9350697Y9636241D01*
X9350030Y9636463D01*
X9349142Y9636241D01*
X9348809Y9635907D01*
X9348587Y9632798D01*
X9347809Y9632021D01*
X9345366Y9631799D01*
X9344478Y9631577D01*
X9344145Y9631021D01*
X9343923Y9624359D01*
X9343368Y9623804D01*
X9340480Y9623581D01*
X9339925Y9623026D01*
X9339703Y9619917D01*
X9339259Y9618807D01*
X9338482Y9618252D01*
X9336705Y9618474D01*
X9336372Y9618140D01*
X9336150Y9617474D01*
X9336372Y9616586D01*
X9335705Y9615031D01*
X9335483Y9611922D01*
X9335261Y9611034D01*
X9334928Y9610700D01*
X9333596Y9610478D01*
X9332930Y9610700D01*
X9332596Y9610589D01*
X9331708Y9610367D01*
X9331042Y9609257D01*
X9331153Y9608257D01*
X9331042Y9603705D01*
X9330820Y9602816D01*
X9330042Y9602261D01*
X9328599Y9602372D01*
X9327599Y9602261D01*
X9327044Y9601706D01*
X9326822Y9600151D01*
X9327044Y9599485D01*
X9326822Y9598819D01*
X9326600Y9597931D01*
X9325823Y9597375D01*
X9324268Y9597597D01*
X9323269Y9597264D01*
X9323047Y9594599D01*
X9322824Y9593933D01*
X9322602Y9591934D01*
X9322824Y9591268D01*
X9322269Y9589602D01*
X9321492Y9589269D01*
X9319826Y9589380D01*
X9318938Y9589158D01*
X9318605Y9588825D01*
X9318272Y9588047D01*
X9318383Y9586160D01*
X9317494Y9584161D01*
X9317716Y9582162D01*
X9317383Y9581829D01*
X9316717Y9581607D01*
X9315829Y9581829D01*
X9314940Y9581607D01*
X9312720Y9579386D01*
X9312275Y9579608D01*
X9310943Y9579830D01*
X9310721Y9579386D01*
X9310832Y9578831D01*
X9311054Y9577942D01*
X9310166Y9576388D01*
X9309943Y9573057D01*
X9309610Y9571835D01*
X9309388Y9568948D01*
X9308611Y9568393D01*
X9307167Y9568504D01*
X9306279Y9568282D01*
X9305724Y9567726D01*
X9305502Y9565061D01*
X9305280Y9564173D01*
X9304946Y9563840D01*
X9302726Y9563618D01*
X9301726Y9563285D01*
X9301504Y9559953D01*
X9300616Y9558621D01*
X9300394Y9557955D01*
X9300616Y9557288D01*
X9300505Y9556289D01*
X9299394Y9556067D01*
X9298728Y9556289D01*
X9298062Y9556067D01*
X9297729Y9555734D01*
X9296840Y9554179D01*
X9297062Y9552625D01*
X9296840Y9551736D01*
X9296285Y9551181D01*
X9294286Y9550959D01*
X9293398Y9551181D01*
X9293065Y9551514D01*
X9292843Y9554179D01*
X9292620Y9555068D01*
X9292287Y9555400D01*
X9289622Y9555623D01*
X9289289Y9555956D01*
X9289067Y9558621D01*
X9288401Y9560175D01*
X9288512Y9561619D01*
X9288401Y9563063D01*
X9288068Y9563396D01*
X9285181Y9563618D01*
X9284514Y9564284D01*
X9284292Y9565172D01*
X9284403Y9566616D01*
X9284181Y9567504D01*
X9283626Y9568060D01*
X9281405Y9568282D01*
X9280517Y9568504D01*
X9280184Y9569059D01*
X9279962Y9575722D01*
X9279406Y9576277D01*
X9276519Y9576499D01*
X9275964Y9577054D01*
X9275742Y9580163D01*
X9275298Y9581274D01*
X9275076Y9582384D01*
X9275298Y9583273D01*
X9274965Y9584272D01*
X9272299Y9584494D01*
X9271522Y9585271D01*
X9271300Y9587936D01*
X9271078Y9588825D01*
X9270745Y9589158D01*
X9268746Y9589380D01*
X9267747Y9589713D01*
X9267525Y9592378D01*
X9267303Y9593267D01*
X9266303Y9594044D01*
X9264638Y9593933D01*
X9263860Y9594044D01*
X9263527Y9594377D01*
X9263305Y9597042D01*
X9263083Y9597708D01*
X9262861Y9601262D01*
X9262306Y9601817D01*
X9259418Y9602039D01*
X9258863Y9602594D01*
X9258641Y9605703D01*
X9258197Y9606814D01*
X9257975Y9607258D01*
X9257531Y9607702D01*
X9257975Y9609257D01*
X9257531Y9609701D01*
X9255643Y9609590D01*
X9254644Y9610589D01*
X9254421Y9614143D01*
X9253866Y9614698D01*
X9251423Y9614920D01*
X9250535Y9615142D01*
X9250313Y9615586D01*
X9249980Y9621916D01*
X9249647Y9622915D01*
X9246760Y9623137D01*
X9246204Y9623692D01*
X9245982Y9626580D01*
X9245427Y9627801D01*
X9242540Y9628023D01*
X9242096Y9628689D01*
X9241874Y9631577D01*
X9241652Y9632687D01*
X9241763Y9634131D01*
X9241540Y9635685D01*
X9241207Y9636018D01*
X9238098Y9636241D01*
X9237765Y9636574D01*
X9237099Y9637684D01*
X9237321Y9639461D01*
X9237099Y9640127D01*
X9236877Y9643680D01*
X9236543Y9644013D01*
X9234323Y9644236D01*
X9233656Y9644458D01*
X9233212Y9644680D01*
X9232879Y9645013D01*
X9231657Y9646012D01*
X9230547Y9645568D01*
X9229881Y9645790D01*
X9229770Y9646790D01*
X9229992Y9647456D01*
X9229326Y9649010D01*
X9228992Y9652675D01*
X9228770Y9654008D01*
X9228881Y9655895D01*
X9228659Y9656784D01*
X9228326Y9657117D01*
X9227549Y9657450D01*
X9225883Y9657339D01*
X9224773Y9657783D01*
X9224329Y9658893D01*
X9224440Y9660337D01*
X9224107Y9661336D01*
X9221219Y9661559D01*
X9220886Y9661892D01*
X9220220Y9663002D01*
X9220442Y9664557D01*
X9219998Y9666111D01*
X9219665Y9666444D01*
X9217000Y9666666D01*
X9216445Y9667444D01*
X9216667Y9668998D01*
X9216445Y9669665D01*
X9216222Y9673218D01*
X9215667Y9674440D01*
X9212558Y9674662D01*
X9212003Y9675217D01*
X9211781Y9678326D01*
X9211114Y9679881D01*
X9211336Y9681435D01*
X9211114Y9682324D01*
X9210670Y9682546D01*
X9208560Y9682435D01*
X9207783Y9683212D01*
X9207561Y9686099D01*
X9207339Y9686987D01*
X9207006Y9687321D01*
X9204119Y9687543D01*
X9203564Y9688098D01*
X9203341Y9689430D01*
X9203564Y9690319D01*
X9203341Y9690985D01*
X9203119Y9694538D01*
X9202786Y9695538D01*
X9199899Y9695760D01*
X9199344Y9696315D01*
X9199122Y9698980D01*
X9198900Y9699869D01*
X9198344Y9700424D01*
X9197012Y9700646D01*
X9196346Y9700424D01*
X9195679Y9700646D01*
X9195346Y9700979D01*
X9195124Y9703200D01*
X9194902Y9704088D01*
X9193570Y9705199D01*
X9191682Y9705088D01*
X9191349Y9705421D01*
X9191127Y9706309D01*
X9191349Y9707198D01*
X9190682Y9708752D01*
X9190460Y9712083D01*
X9190016Y9713194D01*
X9189794Y9713638D01*
X9189350Y9713860D01*
X9187462Y9713749D01*
X9187018Y9714193D01*
X9187129Y9716081D01*
X9186241Y9717414D01*
X9186018Y9720079D01*
X9185685Y9721078D01*
X9182798Y9721300D01*
X9182243Y9721855D01*
X9182021Y9724965D01*
X9181466Y9726186D01*
X9180689Y9726741D01*
X9179911Y9726630D01*
X9179245Y9726408D01*
X9178690Y9726741D01*
X9178468Y9727408D01*
X9178690Y9728296D01*
X9178023Y9729850D01*
X9177801Y9732293D01*
X9177579Y9733848D01*
X9177246Y9734181D01*
X9174803Y9734403D01*
X9173804Y9734736D01*
X9173582Y9737401D01*
X9173360Y9738290D01*
X9173026Y9738623D01*
X9170139Y9738845D01*
X9169584Y9739400D01*
X9169362Y9740511D01*
X9169584Y9741399D01*
X9169362Y9742287D01*
X9169140Y9742954D01*
X9168918Y9746285D01*
X9168251Y9747840D01*
X9168029Y9748506D01*
X9168251Y9749172D01*
X9168140Y9750172D01*
X9167474Y9750394D01*
X9166364Y9749949D01*
X9165031Y9751282D01*
X9164587Y9751504D01*
X9164143Y9751948D01*
X9163254Y9752170D01*
X9162366Y9751948D01*
X9161367Y9752281D01*
X9161145Y9753614D01*
X9161367Y9754502D01*
X9161589Y9755168D01*
X9161367Y9758500D01*
X9161700Y9758833D01*
X9163254Y9759055D01*
X9163921Y9758833D01*
X9164365Y9759055D01*
X9166475Y9759388D01*
X9189239Y9759277D01*
X9190349Y9759721D01*
X9226327Y9759943D01*
X9229214Y9759721D01*
D02*
G37*
G36*
X9166808Y9749283D02*
X9166919Y9749172D01*
X9167141Y9748950D01*
X9167363Y9748284D01*
X9167030Y9747951D01*
X9166031Y9748062D01*
X9165808Y9748506D01*
X9166364Y9749505D01*
X9166808Y9749283D01*
D02*
G37*
G36*
X9402554Y9718746D02*
X9402443Y9718413D01*
X9401999Y9718191D01*
X9401665Y9718524D01*
X9401777Y9719079D01*
X9402221D01*
X9402554Y9718746D01*
D02*
G37*
G36*
X9359913Y9650121D02*
X9359358Y9650010D01*
X9359136D01*
X9358803Y9650343D01*
X9358914Y9650898D01*
X9359802Y9651120D01*
X9359913Y9650121D01*
D02*
G37*
G36*
X9338371Y9616364D02*
X9338259Y9616253D01*
X9338148Y9616364D01*
X9338259Y9616475D01*
X9338371Y9616364D01*
D02*
G37*
G36*
X9256309Y9608480D02*
X9256864Y9607924D01*
X9256531Y9607591D01*
X9255865Y9607369D01*
X9255754Y9607480D01*
X9255532Y9607924D01*
X9255754Y9608591D01*
X9256309Y9608480D01*
D02*
G37*
G36*
X9607430Y9593378D02*
X9608096Y9592711D01*
X9608429Y9585716D01*
X9608873Y9584605D01*
X9609095Y9583050D01*
X9608873Y9582384D01*
X9609206Y9581829D01*
X9611649Y9581607D01*
X9613315Y9579941D01*
X9613537Y9579275D01*
X9613315Y9577720D01*
X9613648Y9577387D01*
X9614315Y9577165D01*
X9615425Y9577609D01*
X9616424Y9576610D01*
X9616646Y9573723D01*
X9616868Y9572835D01*
X9617424Y9572279D01*
X9620311Y9572057D01*
X9620644Y9571724D01*
X9620977Y9568282D01*
X9621199Y9567171D01*
X9621088Y9565284D01*
X9621643Y9563840D01*
X9624530Y9563618D01*
X9624864Y9563285D01*
X9625086Y9561286D01*
X9625308Y9559731D01*
X9626196Y9558399D01*
X9625974Y9556400D01*
X9626529Y9555845D01*
X9628528Y9556067D01*
X9628861Y9555734D01*
X9629416Y9554957D01*
X9629639Y9554068D01*
X9629527Y9552403D01*
X9629972Y9550848D01*
X9630305Y9550515D01*
X9631415Y9550293D01*
X9632082Y9550515D01*
X9633081Y9550182D01*
X9633303Y9547961D01*
X9633747Y9546850D01*
X9633969Y9543297D01*
X9634524Y9542742D01*
X9636745Y9542520D01*
X9637634Y9542297D01*
X9637967Y9541964D01*
X9638300Y9538300D01*
X9638633Y9536634D01*
X9638411Y9535746D01*
X9638633Y9534857D01*
X9638966Y9534524D01*
X9641631Y9534302D01*
X9642186Y9533747D01*
X9642408Y9530860D01*
X9642631Y9529972D01*
X9643630Y9529194D01*
X9645185Y9529416D01*
X9646073Y9529194D01*
X9646295Y9528750D01*
X9646628Y9522643D01*
X9646850Y9521754D01*
X9647183Y9521421D01*
X9650071Y9521199D01*
X9650848Y9520422D01*
X9651070Y9518867D01*
X9650848Y9518201D01*
X9651070Y9517313D01*
X9651292Y9516646D01*
X9651514Y9513537D01*
X9651847Y9513204D01*
X9652736Y9512982D01*
X9653402Y9513204D01*
X9654290Y9512982D01*
X9654845Y9512427D01*
X9655068Y9510206D01*
X9655290Y9508651D01*
X9655845Y9508096D01*
X9656955Y9507874D01*
X9657844Y9508096D01*
X9658843Y9507763D01*
X9659176Y9506986D01*
X9659065Y9505098D01*
X9659509Y9503987D01*
X9659731Y9500656D01*
X9660065Y9500323D01*
X9662285Y9500101D01*
X9663174Y9499879D01*
X9663507Y9499546D01*
X9663729Y9496436D01*
X9663951Y9495770D01*
X9664173Y9492217D01*
X9664728Y9491661D01*
X9666394Y9491772D01*
X9667171Y9491661D01*
X9667949Y9490884D01*
X9668171Y9488219D01*
X9668393Y9487331D01*
X9668726Y9486998D01*
X9670725Y9486776D01*
X9671613Y9486554D01*
X9671835Y9486109D01*
X9672168Y9480002D01*
X9672501Y9479002D01*
X9673612Y9478336D01*
X9674500Y9478558D01*
X9676055Y9478336D01*
X9676499Y9477670D01*
X9676832Y9471562D01*
X9677165Y9470563D01*
X9679608Y9470341D01*
X9680275Y9470119D01*
X9680719Y9469897D01*
X9681274Y9469119D01*
X9681496Y9466455D01*
X9681940Y9466010D01*
X9684050Y9466122D01*
X9684716Y9465011D01*
X9685049Y9458237D01*
X9684827Y9457349D01*
X9684494Y9457016D01*
X9683717Y9456683D01*
X9485948Y9456794D01*
X9484837Y9456350D01*
X9484504Y9456016D01*
X9484282Y9455128D01*
X9484726Y9454018D01*
X9484615Y9450797D01*
X9484726Y9449798D01*
X9484949Y9448910D01*
X9485282Y9448576D01*
X9488169Y9448354D01*
X9488613Y9447688D01*
X9488946Y9441581D01*
X9489168Y9440692D01*
X9489501Y9440359D01*
X9491944Y9440137D01*
X9492944Y9439804D01*
X9493166Y9436917D01*
X9493499Y9435695D01*
X9493943Y9434585D01*
X9493832Y9432697D01*
X9494276Y9432253D01*
X9496386Y9432364D01*
X9497163Y9431587D01*
X9497385Y9428477D01*
X9497941Y9427256D01*
X9500828Y9427034D01*
X9501161Y9426701D01*
X9501494Y9425923D01*
X9501383Y9424258D01*
X9501605Y9423592D01*
X9501827Y9419594D01*
X9502382Y9419039D01*
X9503493Y9418817D01*
X9504159Y9419039D01*
X9505270Y9418817D01*
X9505825Y9418262D01*
X9506047Y9415596D01*
Y9415374D01*
Y9415152D01*
X9506380Y9413931D01*
X9506602Y9411044D01*
X9509267Y9410822D01*
X9510044Y9410044D01*
X9510266Y9407823D01*
X9510488Y9406269D01*
X9510822Y9405936D01*
X9513042Y9405713D01*
X9514042Y9405380D01*
X9514264Y9404048D01*
X9514042Y9403382D01*
X9514264Y9402716D01*
X9514708Y9401605D01*
X9515485Y9400384D01*
X9515374Y9398940D01*
X9515596Y9398274D01*
X9517706Y9398385D01*
X9518039Y9398052D01*
X9518595Y9397274D01*
X9518817Y9396386D01*
X9519150Y9390056D01*
X9519927Y9389279D01*
X9521482Y9389501D01*
X9522370Y9389279D01*
X9522925Y9388724D01*
X9523592Y9387613D01*
X9523370Y9386059D01*
X9523592Y9385170D01*
X9524258Y9384726D01*
X9525702Y9384837D01*
X9526701Y9384504D01*
X9526923Y9381839D01*
X9527145Y9380951D01*
X9527700Y9380396D01*
X9529033Y9380174D01*
X9529699Y9380396D01*
X9530809Y9380174D01*
X9531143Y9379840D01*
X9531476Y9379063D01*
X9531365Y9377175D01*
X9531587Y9376509D01*
X9531809Y9372289D01*
X9532475Y9370735D01*
X9532253Y9370291D01*
X9532364Y9368625D01*
X9534807Y9368403D01*
X9535584Y9367626D01*
X9535806Y9364738D01*
X9536029Y9363850D01*
X9537028Y9363073D01*
X9538583Y9363295D01*
X9539471Y9363073D01*
X9539915Y9362406D01*
X9540248Y9356299D01*
X9540581Y9355300D01*
X9543469Y9355078D01*
X9544024Y9354522D01*
X9544246Y9354078D01*
X9544468Y9353412D01*
X9544246Y9352524D01*
X9544468Y9350969D01*
X9545023Y9350414D01*
X9547688Y9350192D01*
X9548021Y9349859D01*
X9548243Y9347416D01*
X9548466Y9346749D01*
X9548688Y9343640D01*
X9548910Y9342752D01*
X9549243Y9342419D01*
X9551464Y9342196D01*
X9552352Y9341974D01*
X9552685Y9341641D01*
X9552907Y9338754D01*
X9553129Y9337866D01*
X9553795Y9337200D01*
X9556238Y9336978D01*
X9556461Y9334757D01*
X9556905Y9333646D01*
X9557127Y9330759D01*
X9557349Y9329871D01*
X9557682Y9329538D01*
X9560569Y9329315D01*
X9561124Y9328760D01*
X9561347Y9326539D01*
X9561569Y9324985D01*
X9562013Y9323874D01*
X9561902Y9322431D01*
X9562013Y9321431D01*
X9562346Y9321098D01*
X9563456Y9320876D01*
X9564123Y9321098D01*
X9564789Y9320876D01*
X9565122Y9320543D01*
X9565344Y9317878D01*
X9565566Y9316989D01*
X9565899Y9316656D01*
X9568342Y9316434D01*
X9569342Y9316101D01*
X9570008Y9314991D01*
X9569897Y9313992D01*
X9570008Y9309439D01*
X9570230Y9308550D01*
X9571007Y9307995D01*
X9572451Y9308106D01*
X9573450Y9307995D01*
X9574005Y9307440D01*
X9574228Y9304553D01*
X9574450Y9303664D01*
X9575116Y9302998D01*
X9577559Y9302776D01*
X9577781Y9300555D01*
X9578114Y9299556D01*
X9578336Y9298445D01*
X9578225Y9297224D01*
X9578447Y9295669D01*
X9578891Y9295225D01*
X9579780Y9295003D01*
X9581223Y9295114D01*
X9582112Y9294892D01*
X9582556Y9294226D01*
X9582889Y9288562D01*
X9583111Y9287008D01*
X9583888Y9286453D01*
X9585443Y9286675D01*
X9586331Y9286453D01*
X9586776Y9285342D01*
X9586665Y9283899D01*
X9587109Y9282344D01*
X9588330Y9281344D01*
X9588997Y9281567D01*
X9590218Y9281456D01*
X9590440Y9280567D01*
X9590218Y9279679D01*
X9590662Y9278568D01*
X9591106Y9278124D01*
X9591328Y9275015D01*
X9591662Y9274016D01*
X9594105Y9273793D01*
X9594993Y9273571D01*
X9595548Y9272350D01*
X9595326Y9271018D01*
X9595548Y9269463D01*
X9595770Y9268797D01*
X9595548Y9267020D01*
X9595770Y9266132D01*
X9596769Y9265354D01*
X9598324Y9265576D01*
X9599212Y9265354D01*
X9599546Y9265021D01*
X9599768Y9262134D01*
X9600434Y9260579D01*
X9600656Y9260135D01*
X9601100Y9259691D01*
X9600989Y9259358D01*
X9600656Y9258136D01*
X9601211Y9257581D01*
X9601433Y9257803D01*
X9602766Y9258025D01*
X9603765Y9256804D01*
X9603987Y9253917D01*
X9604209Y9253028D01*
X9604765Y9252473D01*
X9605875Y9252251D01*
X9606541Y9252473D01*
X9607652Y9252251D01*
X9608207Y9251474D01*
X9608429Y9244811D01*
X9608984Y9244256D01*
X9610095Y9244034D01*
X9610761Y9244256D01*
X9611872Y9244034D01*
X9612427Y9243479D01*
X9612649Y9240591D01*
X9612871Y9239703D01*
X9613426Y9239148D01*
X9614315Y9238926D01*
X9614981Y9239148D01*
X9615980Y9238815D01*
X9616202Y9237704D01*
X9615980Y9237038D01*
X9616646Y9235483D01*
X9616868Y9232374D01*
X9617090Y9231486D01*
X9617424Y9231153D01*
X9620311Y9230931D01*
X9620644Y9230597D01*
X9620866Y9227933D01*
X9621088Y9227044D01*
X9621532Y9225934D01*
X9621310Y9224379D01*
X9621532Y9223491D01*
X9621865Y9223158D01*
X9624530Y9222936D01*
X9625086Y9222380D01*
X9625308Y9219715D01*
X9625530Y9218827D01*
X9626085Y9218272D01*
X9628750Y9218050D01*
X9629083Y9217716D01*
X9629416Y9216939D01*
X9629305Y9215273D01*
X9629527Y9214607D01*
X9629750Y9211276D01*
X9630083Y9210276D01*
X9631193Y9209610D01*
X9631415Y9209832D01*
X9633081Y9209721D01*
X9633747Y9208611D01*
X9633525Y9207056D01*
X9634080Y9205613D01*
X9635191Y9204946D01*
X9636523Y9205169D01*
X9637412Y9204946D01*
X9637745Y9204169D01*
X9637523Y9202615D01*
X9637967Y9201504D01*
X9638189Y9198617D01*
X9638411Y9197729D01*
X9638744Y9197395D01*
X9640965Y9197173D01*
X9641853Y9196951D01*
X9642186Y9196618D01*
X9642408Y9193509D01*
X9643297Y9191510D01*
X9643075Y9190177D01*
X9643297Y9189289D01*
X9643741Y9189067D01*
X9645629Y9189178D01*
X9646184Y9188623D01*
X9646406Y9186402D01*
X9646628Y9184848D01*
X9646961Y9184514D01*
X9649626Y9184292D01*
X9650515Y9184070D01*
X9651070Y9182849D01*
X9650848Y9181072D01*
X9651070Y9180406D01*
X9651292Y9176630D01*
X9651514Y9175742D01*
X9652069Y9175187D01*
X9654068Y9175409D01*
X9654512Y9174742D01*
X9654401Y9173077D01*
X9654623Y9172411D01*
X9654845Y9171966D01*
X9655845Y9171189D01*
X9656955Y9170967D01*
X9657622Y9171189D01*
X9658732Y9170967D01*
X9659065Y9170634D01*
X9659287Y9169079D01*
X9659065Y9168191D01*
X9658510Y9167636D01*
X9656844Y9167747D01*
X9656067Y9167636D01*
X9655512Y9167080D01*
X9655290Y9164859D01*
X9655068Y9163305D01*
X9654734Y9162972D01*
X9651847Y9162750D01*
X9651514Y9162417D01*
X9651292Y9160196D01*
X9651070Y9159307D01*
X9650737Y9158974D01*
X9648294Y9158752D01*
X9647405Y9158530D01*
X9646850Y9157975D01*
X9646628Y9156864D01*
X9646850Y9155976D01*
X9646517Y9154755D01*
X9645407Y9154088D01*
X9644074Y9154310D01*
X9643186Y9154088D01*
X9642853Y9153755D01*
X9642631Y9150868D01*
X9641853Y9150091D01*
X9638966Y9149869D01*
X9638633Y9149535D01*
X9638411Y9146648D01*
X9637856Y9146093D01*
X9634747Y9145871D01*
X9634191Y9145316D01*
X9633969Y9142873D01*
X9633747Y9141985D01*
X9633414Y9141652D01*
X9630527Y9141429D01*
X9629972Y9140874D01*
X9629750Y9139986D01*
X9629972Y9139320D01*
X9629750Y9137987D01*
X9628528Y9136988D01*
X9626973Y9137210D01*
X9625974Y9136877D01*
X9625641Y9136099D01*
X9625752Y9134656D01*
X9625530Y9133767D01*
X9624975Y9133212D01*
X9621865Y9132990D01*
X9621310Y9132435D01*
X9621088Y9131324D01*
X9621310Y9130658D01*
X9621088Y9129326D01*
X9620755Y9128992D01*
X9619978Y9128659D01*
X9618534Y9128770D01*
X9617313Y9128437D01*
X9617090Y9125772D01*
X9616313Y9123884D01*
X9616091Y9121220D01*
X9613426Y9120997D01*
X9612649Y9119998D01*
X9612427Y9118665D01*
X9612649Y9117777D01*
X9612094Y9116334D01*
X9608984Y9116111D01*
X9608429Y9115556D01*
X9608207Y9112669D01*
X9607652Y9112114D01*
X9605209Y9111892D01*
X9604320Y9111670D01*
X9603987Y9111336D01*
X9603765Y9108893D01*
X9603543Y9108005D01*
X9602544Y9107672D01*
X9601877Y9107894D01*
X9600323Y9107672D01*
X9599879Y9107006D01*
X9599657Y9106117D01*
X9599768Y9105340D01*
X9599546Y9103785D01*
X9598546Y9103230D01*
X9596992Y9103452D01*
X9596103Y9103230D01*
X9595770Y9102897D01*
X9595437Y9102120D01*
X9595548Y9100676D01*
X9595326Y9099788D01*
X9594327Y9099011D01*
X9592550Y9099233D01*
X9591328Y9098678D01*
X9590995Y9097900D01*
X9591106Y9096235D01*
X9590773Y9095235D01*
X9588330Y9095013D01*
X9587442Y9094791D01*
X9587109Y9094458D01*
X9586887Y9091349D01*
X9586331Y9090793D01*
X9583444Y9090571D01*
X9582889Y9090016D01*
X9582667Y9087573D01*
X9582334Y9086574D01*
X9579669Y9086352D01*
X9578780Y9086130D01*
X9578447Y9085796D01*
X9578225Y9082909D01*
X9577670Y9082354D01*
X9574561Y9082132D01*
X9571674Y9081910D01*
X9570230Y9082465D01*
X9570008Y9084908D01*
X9569675Y9085907D01*
X9567232Y9086130D01*
X9566344Y9086352D01*
X9565566Y9087351D01*
X9565677Y9089239D01*
X9565566Y9090238D01*
X9565122Y9092015D01*
X9565344Y9092681D01*
X9565122Y9094236D01*
X9564456Y9094680D01*
X9562568Y9094569D01*
X9562013Y9095124D01*
X9561791Y9097789D01*
X9561569Y9098456D01*
X9561347Y9101787D01*
X9561124Y9102675D01*
X9560791Y9103008D01*
X9557904Y9103230D01*
X9557349Y9103785D01*
X9557127Y9106673D01*
X9556683Y9107783D01*
X9555905Y9108338D01*
X9554573Y9108116D01*
X9553684Y9108338D01*
X9553573Y9110448D01*
X9553129Y9111559D01*
X9552241Y9113113D01*
X9552463Y9114446D01*
X9552130Y9115445D01*
X9551242Y9115667D01*
X9550353Y9115445D01*
X9549465Y9115667D01*
X9548910Y9116222D01*
X9548688Y9119110D01*
X9548466Y9119998D01*
X9547910Y9120553D01*
X9546800Y9120775D01*
X9546134Y9120553D01*
X9545245Y9120775D01*
X9544912Y9121108D01*
X9544690Y9123329D01*
X9544468Y9124884D01*
X9544246Y9125550D01*
X9544468Y9126660D01*
X9544246Y9128215D01*
X9543691Y9128770D01*
X9542580Y9128992D01*
X9541914Y9128770D01*
X9540692Y9129103D01*
X9540026Y9130214D01*
X9540248Y9132213D01*
X9539804Y9133323D01*
X9539582Y9134656D01*
X9539804Y9135544D01*
X9539582Y9136432D01*
X9539027Y9136988D01*
X9537361Y9136877D01*
X9536584Y9136988D01*
X9536029Y9137765D01*
X9535806Y9140652D01*
X9535584Y9141541D01*
X9535251Y9141874D01*
X9532586Y9142096D01*
X9532253Y9142429D01*
X9532031Y9144872D01*
X9531809Y9145538D01*
X9531587Y9148869D01*
X9531365Y9149758D01*
X9530365Y9150313D01*
X9528811Y9150091D01*
X9527811Y9150424D01*
X9527256Y9151201D01*
X9526923Y9157753D01*
X9526590Y9158086D01*
X9523925Y9158308D01*
X9523370Y9158863D01*
X9523148Y9159307D01*
X9522925Y9160196D01*
X9523148Y9161084D01*
X9522925Y9162639D01*
X9522370Y9163194D01*
X9519705Y9163416D01*
X9519372Y9163749D01*
X9519150Y9165082D01*
X9519372Y9165748D01*
X9519261Y9166081D01*
X9519039Y9166969D01*
X9518706Y9168635D01*
X9518928Y9169301D01*
X9518706Y9170856D01*
X9518373Y9171189D01*
X9517262Y9171633D01*
X9516596Y9171411D01*
X9515041Y9171633D01*
X9514597Y9172299D01*
X9514264Y9178407D01*
X9513931Y9179406D01*
X9511710Y9179628D01*
X9510822Y9179851D01*
X9510488Y9180184D01*
X9510266Y9183293D01*
X9509822Y9184403D01*
X9509156Y9184848D01*
X9507046Y9184737D01*
X9506713Y9185070D01*
X9506491Y9187512D01*
X9506047Y9188623D01*
X9505714Y9188956D01*
X9505381Y9190177D01*
X9505603Y9191066D01*
X9505381Y9191954D01*
X9504714Y9192398D01*
X9503271Y9192287D01*
X9502382Y9192509D01*
X9502049Y9193065D01*
X9501827Y9195508D01*
X9501605Y9197062D01*
X9501383Y9197729D01*
X9501605Y9199727D01*
X9501161Y9200838D01*
X9500384Y9201171D01*
X9498829Y9200949D01*
X9497718Y9201393D01*
X9497385Y9201948D01*
X9497163Y9204613D01*
X9496830Y9205613D01*
X9494165Y9205835D01*
X9493610Y9206834D01*
X9493832Y9208611D01*
X9493388Y9209721D01*
X9493166Y9213497D01*
X9492610Y9214052D01*
X9491278Y9214274D01*
X9490612Y9214052D01*
X9489390Y9214385D01*
X9488724Y9215496D01*
X9488946Y9217272D01*
X9488724Y9218161D01*
X9488502Y9218827D01*
X9488613Y9220715D01*
X9488502Y9221714D01*
X9488169Y9222047D01*
X9485948Y9222269D01*
X9485060Y9222491D01*
X9484060Y9223491D01*
X9483838Y9226156D01*
X9483505Y9226489D01*
X9481506Y9226267D01*
X9480951Y9226822D01*
X9480729Y9229931D01*
X9480507Y9230597D01*
X9480285Y9234595D01*
X9479729Y9235150D01*
X9476842Y9235372D01*
X9476287Y9235928D01*
X9475843Y9237038D01*
X9476065Y9237926D01*
X9475843Y9239481D01*
X9474843Y9240258D01*
X9474177Y9240036D01*
X9472956Y9240147D01*
X9472400Y9240925D01*
X9472511Y9242590D01*
X9472067Y9243701D01*
X9471845Y9246810D01*
X9471623Y9247698D01*
X9471290Y9248031D01*
X9468403Y9248254D01*
X9467848Y9248809D01*
X9467625Y9251696D01*
X9466959Y9253250D01*
X9466737Y9254139D01*
X9466959Y9255027D01*
X9466626Y9256026D01*
X9464960Y9255915D01*
X9464405Y9256026D01*
X9463628Y9257026D01*
X9463406Y9260357D01*
X9462851Y9260912D01*
X9459742Y9261135D01*
X9459408Y9261468D01*
X9459186Y9264355D01*
X9458964Y9265021D01*
X9458742Y9268130D01*
X9458520Y9269019D01*
X9457854Y9269241D01*
X9456410Y9269130D01*
X9455411Y9269463D01*
X9454745Y9270573D01*
X9454856Y9272239D01*
X9454745Y9272794D01*
X9454411Y9273793D01*
X9453634Y9274127D01*
X9452190Y9274016D01*
X9451302Y9274238D01*
X9450858Y9274904D01*
X9450525Y9281011D01*
X9450192Y9282011D01*
X9447749Y9282233D01*
X9446860Y9282455D01*
X9446527Y9282788D01*
X9446305Y9285675D01*
X9446083Y9286564D01*
X9445528Y9287785D01*
X9445639Y9289895D01*
X9445195Y9290339D01*
X9443085Y9290228D01*
X9442530Y9290783D01*
X9442308Y9293671D01*
X9442086Y9294559D01*
X9441530Y9295114D01*
X9438643Y9295336D01*
X9438088Y9295891D01*
X9437866Y9297224D01*
X9438088Y9298112D01*
X9437866Y9298778D01*
X9437644Y9302332D01*
X9437311Y9303331D01*
X9434868Y9303553D01*
X9433979Y9303775D01*
X9433646Y9304108D01*
X9433424Y9307440D01*
X9432980Y9308550D01*
X9432758Y9309661D01*
X9432980Y9310327D01*
X9432647Y9311326D01*
X9431758Y9311549D01*
X9431092Y9311326D01*
X9430204Y9311549D01*
X9429426Y9312326D01*
X9429204Y9315879D01*
X9428649Y9316434D01*
X9425984Y9316656D01*
X9425318Y9317323D01*
X9424985Y9323430D01*
X9424763Y9324318D01*
X9424429Y9324652D01*
X9421542Y9324874D01*
X9420987Y9325429D01*
X9420765Y9328316D01*
X9420543Y9328982D01*
X9420321Y9330759D01*
X9420543Y9331647D01*
X9420210Y9332869D01*
X9419433Y9333202D01*
X9417989Y9333091D01*
X9417101Y9333313D01*
X9416768Y9333646D01*
X9416546Y9335867D01*
X9416323Y9337422D01*
X9415990Y9337755D01*
X9415213Y9338088D01*
X9413769Y9337977D01*
X9412881Y9338199D01*
X9412548Y9338532D01*
X9412326Y9339865D01*
X9412548Y9340531D01*
X9412326Y9341863D01*
X9412104Y9342530D01*
X9412215Y9344417D01*
X9412104Y9345639D01*
X9411771Y9345972D01*
X9409328Y9346194D01*
X9408439Y9346416D01*
X9408106Y9346749D01*
X9407884Y9350081D01*
X9407329Y9351302D01*
X9407107Y9353967D01*
X9406218Y9354189D01*
X9405330Y9353967D01*
X9404442Y9354189D01*
X9403886Y9354967D01*
X9403664Y9358076D01*
X9403220Y9359186D01*
X9402665Y9359519D01*
X9400999Y9359408D01*
X9400222Y9359519D01*
X9399889Y9359853D01*
X9399667Y9362517D01*
X9399445Y9363184D01*
X9399223Y9366293D01*
X9398890Y9367292D01*
X9396447Y9367514D01*
X9395558Y9367737D01*
X9395336Y9368181D01*
X9395114Y9369069D01*
X9395225Y9370069D01*
X9395003Y9371623D01*
X9394448Y9372178D01*
X9393337Y9372400D01*
X9392671Y9372178D01*
X9391783Y9372400D01*
X9391450Y9372734D01*
X9391227Y9375177D01*
X9391005Y9375843D01*
X9390783Y9379174D01*
X9390561Y9380063D01*
X9389784Y9380840D01*
X9388229Y9380618D01*
X9387230Y9380951D01*
X9387008Y9383394D01*
X9386564Y9384504D01*
X9386342Y9384948D01*
X9385564Y9385726D01*
X9383565Y9385504D01*
X9383232Y9385837D01*
X9383454Y9387613D01*
X9382566Y9388946D01*
X9382344Y9392277D01*
X9381900Y9394054D01*
X9382122Y9395609D01*
X9381900Y9396497D01*
X9381567Y9396830D01*
X9379124Y9397052D01*
X9378013Y9397718D01*
X9377569Y9398829D01*
X9377680Y9400939D01*
X9377014Y9401605D01*
X9374904Y9401494D01*
X9374349Y9402049D01*
X9374127Y9405158D01*
X9373349Y9405936D01*
X9370906Y9406158D01*
X9370018Y9406380D01*
X9369685Y9406935D01*
X9369463Y9413598D01*
X9369019Y9414708D01*
X9368797Y9417595D01*
X9368130Y9418039D01*
X9366243Y9417928D01*
X9365576Y9418595D01*
X9365132Y9418817D01*
X9364577Y9419372D01*
X9361912Y9419594D01*
X9361579Y9420371D01*
X9361690Y9422037D01*
X9361468Y9422703D01*
X9361246Y9426034D01*
X9361023Y9426701D01*
X9360801Y9430032D01*
X9360468Y9431032D01*
X9357581Y9431254D01*
X9356693Y9432142D01*
X9356360Y9433363D01*
X9356582Y9434030D01*
X9356360Y9435362D01*
X9355805Y9435917D01*
X9354139Y9435806D01*
X9353362Y9435917D01*
X9353028Y9436251D01*
X9352806Y9439138D01*
X9352584Y9439804D01*
X9352362Y9443135D01*
X9352029Y9444357D01*
X9351252Y9444912D01*
X9349364Y9444801D01*
X9349031Y9445134D01*
X9348809Y9446023D01*
X9349031Y9446911D01*
X9348809Y9447799D01*
X9348365Y9448243D01*
X9348142Y9448687D01*
X9347809Y9448798D01*
X9347476Y9449132D01*
X9344811Y9449354D01*
X9344589Y9451575D01*
X9343923Y9453129D01*
X9343701Y9455794D01*
X9343479Y9456683D01*
X9342701Y9457016D01*
X9341369Y9456794D01*
X9340480Y9457016D01*
X9339925Y9457571D01*
X9339703Y9460680D01*
X9339481Y9461347D01*
X9339259Y9464678D01*
X9338926Y9465011D01*
X9337815Y9465233D01*
X9337149Y9465011D01*
X9336261Y9465233D01*
X9335705Y9465788D01*
X9335483Y9468675D01*
X9335261Y9469564D01*
X9334928Y9469897D01*
X9332485Y9470119D01*
X9331486Y9470452D01*
X9331264Y9471562D01*
X9331042Y9475782D01*
X9331264Y9476671D01*
X9330709Y9478114D01*
X9328266Y9478336D01*
X9327377Y9478558D01*
X9327044Y9479114D01*
X9326822Y9480668D01*
X9327044Y9481334D01*
X9326822Y9482001D01*
X9326600Y9482889D01*
X9326045Y9483444D01*
X9325156Y9483666D01*
X9324490Y9483444D01*
X9323602Y9483666D01*
X9323380Y9484333D01*
X9323491Y9485776D01*
X9323047Y9486887D01*
X9322824Y9490440D01*
X9322047Y9491217D01*
X9319160Y9491439D01*
X9318716Y9491883D01*
X9318383Y9493105D01*
X9318605Y9493993D01*
X9318383Y9495548D01*
X9318161Y9496214D01*
X9318272Y9497658D01*
X9318161Y9499101D01*
X9317605Y9499657D01*
X9316495Y9499879D01*
X9315829Y9499657D01*
X9314940Y9499879D01*
X9314607Y9500212D01*
X9314385Y9502655D01*
X9313941Y9504209D01*
X9312720Y9505431D01*
X9311831Y9504987D01*
X9311054Y9505098D01*
X9310832Y9505542D01*
X9311054Y9506430D01*
X9311387Y9506541D01*
X9312720Y9505653D01*
X9313275Y9506652D01*
X9313164Y9507208D01*
X9312720Y9507430D01*
X9312053Y9507208D01*
X9311165Y9506986D01*
X9310832Y9507319D01*
X9310610Y9507763D01*
X9310166Y9508207D01*
X9309721Y9510206D01*
X9309943Y9511761D01*
X9310388Y9513315D01*
X9310610Y9513981D01*
X9310388Y9515314D01*
X9310721Y9516313D01*
X9311831Y9516535D01*
X9312498Y9516313D01*
X9313164Y9516535D01*
X9313497Y9516868D01*
X9313719Y9517313D01*
X9313941Y9517979D01*
X9313719Y9518867D01*
X9313941Y9520422D01*
X9314496Y9520977D01*
X9316939Y9521199D01*
X9317827Y9521421D01*
X9318161Y9521754D01*
X9318383Y9524419D01*
X9318605Y9526640D01*
X9318383Y9527307D01*
X9318605Y9528861D01*
X9318938Y9529194D01*
X9321159Y9529416D01*
X9322047Y9529639D01*
X9322380Y9529972D01*
X9322602Y9532193D01*
X9322824Y9533747D01*
X9323158Y9534080D01*
X9323935Y9534635D01*
X9325823Y9534524D01*
X9326378Y9535079D01*
X9326156Y9536634D01*
X9326378Y9537300D01*
X9326600Y9537745D01*
X9327377Y9538300D01*
X9330264Y9538522D01*
X9330598Y9538855D01*
X9330820Y9541520D01*
X9331042Y9542186D01*
X9331264Y9544407D01*
X9331042Y9545074D01*
X9331264Y9545518D01*
X9331486Y9549960D01*
X9331819Y9550293D01*
X9334040Y9550515D01*
X9335150Y9550959D01*
X9336150Y9552180D01*
X9335928Y9553513D01*
X9336150Y9554401D01*
X9336705Y9554734D01*
X9338037Y9554512D01*
X9338926Y9554734D01*
X9339481Y9555289D01*
X9339703Y9558177D01*
X9339925Y9559065D01*
X9340258Y9559398D01*
X9343145Y9559620D01*
X9343701Y9560175D01*
X9343923Y9563729D01*
X9344145Y9564395D01*
X9343923Y9566172D01*
X9344256Y9567393D01*
X9345366Y9568060D01*
X9346255Y9567838D01*
X9347809Y9568060D01*
X9348365Y9568615D01*
X9348587Y9571946D01*
X9349142Y9572501D01*
X9350030Y9572724D01*
X9350697Y9572501D01*
X9351585Y9572724D01*
X9351918Y9573279D01*
X9351696Y9574833D01*
X9351918Y9575722D01*
X9352917Y9576721D01*
X9354250Y9576943D01*
X9354916Y9576721D01*
X9356026Y9576943D01*
X9356582Y9577942D01*
X9356360Y9579497D01*
X9356582Y9580163D01*
X9356804Y9583717D01*
X9357137Y9584716D01*
X9359580Y9584938D01*
X9360468Y9585160D01*
X9361023Y9585716D01*
X9361357Y9589380D01*
X9361579Y9590268D01*
X9361468Y9591934D01*
X9361690Y9592822D01*
X9362467Y9593156D01*
X9364022Y9592933D01*
X9365132Y9593378D01*
X9600767Y9593600D01*
X9605653Y9593378D01*
X9606319Y9593600D01*
X9607430Y9593378D01*
D02*
G37*
G36*
X9615536Y9579497D02*
X9615758Y9579053D01*
X9615647Y9578942D01*
X9615425Y9578720D01*
X9615092Y9578831D01*
X9614870Y9579275D01*
X9615203Y9579608D01*
X9615536Y9579497D01*
D02*
G37*
G36*
X9312830Y9578831D02*
X9313053Y9577498D01*
X9312275Y9577387D01*
X9311942Y9577720D01*
X9311720Y9578164D01*
X9311831Y9578276D01*
X9312720Y9578942D01*
X9312830Y9578831D01*
D02*
G37*
G36*
X8993802Y9593822D02*
X9219443Y9593600D01*
X9221219Y9593156D01*
X9222774Y9593378D01*
X9223662Y9593156D01*
X9224440Y9592156D01*
X9224329Y9591379D01*
X9224440Y9586604D01*
X9224662Y9585716D01*
X9224995Y9585382D01*
X9225772Y9585049D01*
X9227438Y9585160D01*
X9228326Y9584938D01*
X9228659Y9584605D01*
X9228881Y9581496D01*
X9229103Y9580830D01*
X9229326Y9577942D01*
X9229659Y9576943D01*
X9230547Y9576721D01*
X9231435Y9576943D01*
X9232324Y9576721D01*
X9232657Y9576388D01*
X9232879Y9574167D01*
X9233101Y9572612D01*
X9233656Y9572057D01*
X9236543Y9571835D01*
X9236877Y9571502D01*
X9237099Y9570169D01*
X9236877Y9569503D01*
X9237321Y9567726D01*
X9237543Y9567060D01*
X9237321Y9565950D01*
X9237543Y9564395D01*
X9237876Y9564062D01*
X9240319Y9563840D01*
X9241207Y9563618D01*
X9241540Y9563063D01*
X9241763Y9561952D01*
X9241540Y9561286D01*
X9241763Y9559731D01*
X9242429Y9559065D01*
X9245094Y9558843D01*
X9245427Y9558066D01*
X9245316Y9556400D01*
X9245760Y9555289D01*
X9245982Y9551958D01*
X9246204Y9551070D01*
X9246538Y9550737D01*
X9249202Y9550515D01*
X9249535Y9550182D01*
X9249758Y9547739D01*
X9249980Y9547072D01*
X9250202Y9546628D01*
X9250646Y9546184D01*
X9250868Y9543519D01*
X9251534Y9543075D01*
X9253422Y9543186D01*
X9254199Y9542408D01*
X9254421Y9539521D01*
X9254644Y9538633D01*
X9254977Y9538300D01*
X9257864Y9538078D01*
X9258419Y9537522D01*
X9258641Y9534635D01*
X9258863Y9533969D01*
X9259085Y9530860D01*
X9259307Y9529972D01*
X9259974Y9529527D01*
X9261861Y9529639D01*
X9262639Y9528639D01*
X9262417Y9526862D01*
X9262861Y9525752D01*
X9263194Y9525419D01*
X9266303Y9525197D01*
X9266859Y9524642D01*
X9267081Y9521976D01*
X9267303Y9521310D01*
X9267525Y9517757D01*
X9267858Y9517424D01*
X9270523Y9517201D01*
X9271300Y9516424D01*
X9271522Y9513315D01*
X9271966Y9512204D01*
X9272633Y9511538D01*
X9274742Y9511649D01*
X9274853Y9510872D01*
X9274631Y9509984D01*
X9274853Y9509318D01*
X9275076Y9508873D01*
X9275520Y9508429D01*
X9275742Y9505320D01*
X9275964Y9504432D01*
X9276963Y9503876D01*
X9278518Y9504098D01*
X9279406Y9503876D01*
X9279739Y9503543D01*
X9279962Y9503099D01*
X9280184Y9502433D01*
X9280073Y9501878D01*
X9280184Y9497103D01*
X9280406Y9496214D01*
X9281183Y9495659D01*
X9282738Y9495881D01*
X9283626Y9495659D01*
X9283959Y9495326D01*
X9284181Y9494882D01*
X9284403Y9493993D01*
X9284181Y9493327D01*
X9284403Y9491550D01*
X9284959Y9490995D01*
X9286069Y9490773D01*
X9286735Y9490995D01*
X9287624Y9490773D01*
X9287957Y9490440D01*
X9288179Y9487775D01*
X9288401Y9487109D01*
X9288623Y9485332D01*
X9288401Y9484666D01*
X9288512Y9484111D01*
X9288734Y9483222D01*
X9289511Y9482667D01*
X9292176Y9482445D01*
X9292843Y9481334D01*
X9292620Y9479780D01*
X9292843Y9478891D01*
X9293398Y9477670D01*
X9293620Y9475005D01*
X9294508Y9474783D01*
X9295397Y9475005D01*
X9296285Y9474783D01*
X9296840Y9474005D01*
X9297062Y9472451D01*
Y9472229D01*
Y9470896D01*
X9297506Y9469786D01*
X9297729Y9469342D01*
X9298284Y9469008D01*
X9300060Y9469231D01*
X9300616Y9468675D01*
X9300394Y9467343D01*
X9300838Y9466233D01*
X9301060Y9465788D01*
X9301504Y9465344D01*
X9301726Y9464012D01*
X9301504Y9463345D01*
X9301726Y9462013D01*
X9302503Y9461458D01*
X9304058Y9461680D01*
X9304946Y9461458D01*
X9305502Y9460458D01*
X9305724Y9453795D01*
X9306279Y9453240D01*
X9309166Y9453018D01*
X9309943Y9452241D01*
X9310166Y9450908D01*
X9309943Y9450020D01*
X9310166Y9449132D01*
X9310610Y9448021D01*
X9310943Y9447688D01*
X9310832Y9445578D01*
X9311165Y9445245D01*
X9311831Y9445467D01*
X9312941Y9445689D01*
X9314829Y9443802D01*
X9317494Y9443580D01*
X9317716Y9441359D01*
X9318272Y9439471D01*
X9318605Y9432919D01*
X9318938Y9431920D01*
X9321381Y9431698D01*
X9322380Y9431365D01*
X9322602Y9429144D01*
X9322824Y9427589D01*
X9323380Y9427034D01*
X9324268Y9426812D01*
X9325156Y9427034D01*
X9326045Y9426812D01*
X9326378Y9426479D01*
X9326600Y9423814D01*
X9327044Y9422037D01*
X9326822Y9420482D01*
X9327377Y9419039D01*
X9329820Y9418817D01*
X9330709Y9418595D01*
X9331042Y9418262D01*
X9331264Y9415374D01*
X9331486Y9414486D01*
X9332374Y9413154D01*
X9331930Y9412043D01*
X9332152Y9411377D01*
X9332707Y9411044D01*
X9333818Y9411488D01*
X9334595Y9411155D01*
X9334817Y9410711D01*
X9335261Y9410266D01*
X9335483Y9406713D01*
X9336039Y9406158D01*
X9338259Y9405936D01*
X9339148Y9405713D01*
X9339703Y9404714D01*
X9339592Y9403270D01*
X9339703Y9402271D01*
X9339925Y9401605D01*
X9340147Y9398274D01*
X9340480Y9397941D01*
X9342479Y9397718D01*
X9343479Y9397385D01*
X9343701Y9394720D01*
X9343923Y9393832D01*
X9344478Y9393277D01*
X9347365Y9393055D01*
X9348031Y9392166D01*
X9348365Y9386281D01*
X9348587Y9385392D01*
X9348920Y9385059D01*
X9351807Y9384837D01*
X9352362Y9384282D01*
X9352584Y9380729D01*
X9353584Y9379729D01*
X9355138Y9379952D01*
X9356137Y9379618D01*
X9356360Y9378286D01*
X9356137Y9377620D01*
X9356360Y9376953D01*
X9356582Y9373400D01*
X9356804Y9372512D01*
X9357137Y9372178D01*
X9359580Y9371956D01*
X9360468Y9371734D01*
X9360801Y9371401D01*
X9361023Y9368292D01*
X9361246Y9367626D01*
X9361468Y9364072D01*
X9362134Y9363406D01*
X9364244Y9363517D01*
X9364799Y9362962D01*
X9365021Y9361629D01*
X9364799Y9360963D01*
X9365243Y9359408D01*
X9366465Y9358631D01*
X9367797Y9358853D01*
X9368686Y9358631D01*
X9369130Y9358187D01*
X9369463Y9352079D01*
X9369907Y9350525D01*
X9370351Y9350081D01*
X9373016Y9349859D01*
X9373238Y9347416D01*
X9373683Y9346305D01*
X9374127Y9345861D01*
X9374349Y9344528D01*
X9374127Y9343862D01*
X9374460Y9342641D01*
X9376681Y9342419D01*
X9377569Y9342196D01*
X9377902Y9341641D01*
X9378124Y9338754D01*
X9378346Y9337866D01*
X9378679Y9337533D01*
X9381567Y9337311D01*
X9382122Y9336311D01*
X9381900Y9334757D01*
X9382122Y9334090D01*
X9382344Y9330537D01*
X9382788Y9329427D01*
X9384010Y9329093D01*
X9384676Y9329315D01*
X9386008Y9329093D01*
X9386342Y9328760D01*
X9386564Y9325873D01*
X9386786Y9325207D01*
X9387008Y9321653D01*
X9387341Y9321320D01*
X9390006Y9321098D01*
X9390672Y9320432D01*
X9390894Y9319321D01*
X9390783Y9318322D01*
X9391005Y9316767D01*
X9391561Y9316212D01*
X9394226Y9315990D01*
X9394559Y9315657D01*
X9394781Y9314325D01*
X9394559Y9313658D01*
X9395003Y9312104D01*
X9395225Y9311437D01*
X9395003Y9309661D01*
X9395336Y9308439D01*
X9396447Y9307773D01*
X9397335Y9307995D01*
X9398890Y9307773D01*
X9399334Y9307107D01*
X9399667Y9300999D01*
X9400000Y9300000D01*
X9402221Y9299778D01*
X9403109Y9299556D01*
X9403442Y9299223D01*
X9403664Y9296113D01*
X9403886Y9295225D01*
X9404775Y9294559D01*
X9406885Y9294670D01*
X9407218Y9294337D01*
X9407440Y9291894D01*
X9407662Y9291228D01*
X9407884Y9288118D01*
X9408106Y9287230D01*
X9408439Y9286897D01*
X9409217Y9286564D01*
X9410660Y9286675D01*
X9411548Y9286453D01*
X9411882Y9286119D01*
X9412104Y9283232D01*
X9412326Y9282344D01*
X9412548Y9281678D01*
X9412326Y9279679D01*
X9412770Y9278568D01*
X9413436Y9278346D01*
X9414880Y9278457D01*
X9415768Y9278235D01*
X9416323Y9277680D01*
X9416546Y9274793D01*
X9416768Y9273904D01*
X9417545Y9273127D01*
X9419544Y9273349D01*
X9419877Y9273016D01*
X9420099Y9270795D01*
X9420543Y9269685D01*
X9420765Y9265909D01*
X9421320Y9265354D01*
X9422653Y9265132D01*
X9423319Y9265354D01*
X9424429Y9265132D01*
X9424874Y9264466D01*
X9425207Y9257692D01*
X9425762Y9257137D01*
X9426872Y9256915D01*
X9427539Y9257137D01*
X9428649Y9256915D01*
X9429426Y9256138D01*
X9429649Y9254805D01*
X9429426Y9254139D01*
X9429538Y9253583D01*
X9429760Y9252695D01*
X9430537Y9252140D01*
X9432425Y9252251D01*
X9432758Y9251918D01*
X9432980Y9249475D01*
X9433202Y9248809D01*
X9433424Y9245477D01*
X9433757Y9244478D01*
X9434868Y9243812D01*
X9436422Y9244034D01*
X9437533Y9243590D01*
X9437755Y9243145D01*
X9438088Y9237038D01*
X9438421Y9236039D01*
X9440864Y9235817D01*
X9441752Y9235594D01*
X9442863Y9234262D01*
X9442752Y9232152D01*
X9443196Y9231708D01*
X9445084Y9231819D01*
X9445861Y9231042D01*
X9446083Y9227710D01*
X9446527Y9225934D01*
X9446305Y9224379D01*
X9446860Y9222936D01*
X9448193Y9222713D01*
X9448859Y9222936D01*
X9449970Y9222713D01*
X9450525Y9222158D01*
X9450747Y9218827D01*
X9451857Y9217939D01*
X9453745Y9218050D01*
X9454078Y9217716D01*
X9454300Y9215273D01*
X9454745Y9214163D01*
X9454967Y9210610D01*
X9455522Y9210054D01*
X9456632Y9209832D01*
X9457299Y9210054D01*
X9458409Y9209832D01*
X9458742Y9209499D01*
X9458964Y9209055D01*
X9459186Y9208389D01*
X9458964Y9207278D01*
X9459186Y9205724D01*
X9460075Y9204391D01*
X9459853Y9202392D01*
X9460186Y9202059D01*
X9462185Y9202281D01*
X9462962Y9201504D01*
X9463184Y9198617D01*
X9463406Y9197729D01*
X9464405Y9196951D01*
X9466182Y9197173D01*
X9467292Y9196729D01*
X9467514Y9196285D01*
X9467848Y9190177D01*
X9468070Y9189289D01*
X9468736Y9188845D01*
X9470402Y9188956D01*
X9471290Y9188734D01*
X9471623Y9188401D01*
X9471845Y9185514D01*
X9472067Y9184625D01*
X9472400Y9184292D01*
X9474621Y9184070D01*
X9475621Y9183737D01*
X9475843Y9183293D01*
X9476065Y9182627D01*
X9475954Y9182071D01*
X9476065Y9177297D01*
X9476287Y9176408D01*
X9476620Y9176075D01*
X9479063Y9175853D01*
X9479951Y9175631D01*
X9480285Y9175076D01*
X9480507Y9171966D01*
X9481173Y9170412D01*
X9481062Y9168968D01*
X9481173Y9167969D01*
X9481617Y9167747D01*
X9483505Y9167858D01*
X9484282Y9167080D01*
X9484504Y9164193D01*
X9484726Y9163305D01*
X9485060Y9162972D01*
X9487502Y9162750D01*
X9488391Y9162528D01*
X9488613Y9162084D01*
X9488946Y9155976D01*
X9489168Y9155088D01*
X9489501Y9154755D01*
X9492388Y9154533D01*
X9492944Y9153977D01*
X9493166Y9151090D01*
X9493610Y9149980D01*
X9493832Y9147315D01*
X9494054Y9146648D01*
X9496719Y9146426D01*
X9497274Y9145649D01*
X9497496Y9144761D01*
X9497385Y9143095D01*
X9497941Y9141652D01*
X9500161Y9141429D01*
X9501272Y9140985D01*
X9501494Y9140097D01*
X9501383Y9138431D01*
X9501605Y9137765D01*
X9501827Y9135766D01*
X9501605Y9134878D01*
X9502160Y9133434D01*
X9504603Y9133212D01*
X9505492Y9132990D01*
X9505825Y9132657D01*
X9506047Y9129548D01*
X9506269Y9128881D01*
X9506491Y9125550D01*
X9507157Y9125106D01*
X9509267Y9125217D01*
X9509711Y9124773D01*
X9510710Y9123551D01*
X9510599Y9121886D01*
X9510710Y9120886D01*
X9511044Y9120553D01*
X9512154Y9120331D01*
X9512820Y9120553D01*
X9513709Y9120331D01*
X9514153Y9119665D01*
X9514486Y9113335D01*
X9514708Y9112447D01*
X9515041Y9112114D01*
X9517484Y9111892D01*
X9518373Y9111670D01*
X9518706Y9111336D01*
X9518928Y9108449D01*
X9519483Y9106562D01*
X9519372Y9104452D01*
X9519927Y9103896D01*
X9521926Y9104119D01*
X9522259Y9103785D01*
X9523148Y9102231D01*
X9522925Y9100676D01*
X9523370Y9099122D01*
X9523703Y9098789D01*
X9526368Y9098567D01*
X9526701Y9098233D01*
X9526923Y9095790D01*
X9527145Y9095124D01*
X9527367Y9092015D01*
X9527589Y9091127D01*
X9528367Y9090571D01*
X9530032Y9090682D01*
X9530809Y9090571D01*
X9531365Y9090016D01*
X9531587Y9086907D01*
X9531809Y9086241D01*
X9532031Y9084686D01*
X9531809Y9083798D01*
X9532031Y9082909D01*
X9532364Y9082576D01*
X9535029Y9082354D01*
X9535806Y9081577D01*
X9536029Y9078689D01*
X9536251Y9077801D01*
X9536584Y9077468D01*
X9537472Y9077246D01*
X9538360Y9077468D01*
X9539360Y9077135D01*
X9539582Y9074914D01*
X9540248Y9073360D01*
X9541470Y9072360D01*
X9541914Y9072582D01*
X9543357Y9072471D01*
X9543580Y9071583D01*
X9543357Y9070694D01*
X9543913Y9069473D01*
X9544357Y9068363D01*
X9544690Y9061589D01*
X9545023Y9061256D01*
X9547244Y9061034D01*
X9548132Y9060811D01*
X9548910Y9060034D01*
X9549132Y9056481D01*
X9549354Y9055593D01*
X9549798Y9054482D01*
X9550131Y9054371D01*
X9551242Y9055037D01*
X9551797Y9054926D01*
X9552019Y9053816D01*
X9551464Y9053261D01*
X9550131Y9053927D01*
X9549354Y9053150D01*
X9549132Y9052705D01*
X9548132Y9051928D01*
X9545912Y9051706D01*
X9544912Y9051373D01*
X9544690Y9050262D01*
X9544912Y9049596D01*
X9544801Y9048819D01*
X9544468Y9047597D01*
X9544246Y9046709D01*
X9544468Y9045821D01*
X9544246Y9044266D01*
X9543913Y9043933D01*
X9542802Y9043489D01*
X9542136Y9043711D01*
X9540581Y9043489D01*
X9540248Y9043156D01*
X9540026Y9040713D01*
X9539804Y9039824D01*
X9538805Y9039269D01*
X9537916Y9039491D01*
X9536362Y9039269D01*
X9536029Y9038936D01*
X9535806Y9036271D01*
X9535473Y9035271D01*
X9534696Y9034938D01*
X9533030Y9035049D01*
X9532142Y9034827D01*
X9531809Y9034494D01*
X9531587Y9033162D01*
X9531809Y9032495D01*
X9531587Y9031385D01*
X9531254Y9031052D01*
X9528589Y9030830D01*
X9527700Y9030608D01*
X9527367Y9030275D01*
X9527145Y9027165D01*
X9526812Y9026832D01*
X9524369Y9026610D01*
X9523370Y9026277D01*
X9523148Y9025833D01*
X9522925Y9025167D01*
X9523148Y9024278D01*
X9522925Y9022724D01*
X9522592Y9022390D01*
X9520149Y9022168D01*
X9519150Y9021835D01*
X9518928Y9019392D01*
X9518706Y9018504D01*
X9518373Y9018171D01*
X9515708Y9017949D01*
X9514708Y9017615D01*
X9514486Y9015172D01*
X9514264Y9014284D01*
X9513265Y9013729D01*
X9511710Y9013951D01*
X9510822Y9013729D01*
X9510488Y9013396D01*
X9510266Y9010731D01*
X9509822Y9009620D01*
X9508601Y9009287D01*
X9507935Y9009509D01*
X9506602Y9009287D01*
X9506269Y9008954D01*
X9506047Y9005845D01*
X9505714Y9005512D01*
X9504936Y9005179D01*
X9503049Y9005290D01*
X9501827Y9004734D01*
X9501605Y9001625D01*
X9501272Y9001292D01*
X9498829Y9001070D01*
X9497941Y9000848D01*
X9497607Y9000515D01*
X9497385Y8997850D01*
X9497052Y8996850D01*
X9494609Y8996628D01*
X9493499Y8996184D01*
X9493277Y8995296D01*
X9493388Y8993852D01*
X9493166Y8992964D01*
X9492832Y8992631D01*
X9489723Y8992408D01*
X9489168Y8991853D01*
X9488946Y8989633D01*
X9488724Y8988744D01*
X9488391Y8988411D01*
X9485282Y8988189D01*
X9484837Y8987745D01*
X9484615Y8986856D01*
X9484726Y8985413D01*
X9484504Y8984525D01*
X9483949Y8983969D01*
X9482839Y8983747D01*
X9482172Y8983969D01*
X9481062Y8983747D01*
X9480729Y8983414D01*
X9480507Y8980971D01*
X9480285Y8980083D01*
X9479951Y8979750D01*
X9476842Y8979527D01*
X9476287Y8978972D01*
X9476065Y8976085D01*
X9475732Y8975752D01*
X9473289Y8975530D01*
X9472400Y8975308D01*
X9472067Y8974975D01*
X9471845Y8971643D01*
X9471290Y8971088D01*
X9468403Y8970866D01*
X9468070Y8970533D01*
X9467848Y8967646D01*
X9467292Y8967091D01*
X9464849Y8966869D01*
X9463961Y8966647D01*
X9463517Y8966202D01*
X9463184Y8964981D01*
X9463406Y8964315D01*
X9463295Y8963093D01*
X9463073Y8962205D01*
X9462851Y8959095D01*
X9461740Y8958429D01*
X9460186Y8958651D01*
X9459075Y8959095D01*
X9458520Y8959651D01*
X9458742Y8961649D01*
X9458076Y8962094D01*
X9455966Y8961983D01*
X9455411Y8962538D01*
X9455189Y8964759D01*
X9454967Y8966313D01*
X9454411Y8966869D01*
X9451302Y8967091D01*
X9450858Y8967535D01*
X9450525Y8974308D01*
X9449970Y8975530D01*
X9447304Y8975752D01*
X9446971Y8976085D01*
X9446749Y8978528D01*
X9446527Y8979194D01*
X9446305Y8979639D01*
X9445639Y8980305D01*
X9445417Y8981415D01*
X9445639Y8982082D01*
X9445417Y8982970D01*
X9444417Y8983081D01*
X9443751Y8982859D01*
X9443085Y8983081D01*
X9442308Y8983858D01*
X9442086Y8987190D01*
X9441086Y8989522D01*
X9441197Y8991409D01*
X9440753Y8991631D01*
X9438865Y8991520D01*
X9437866Y8992742D01*
X9437644Y8995407D01*
X9437311Y8996406D01*
X9434868Y8996628D01*
X9433979Y8996850D01*
X9433424Y8998072D01*
X9433646Y8999848D01*
X9432980Y9001403D01*
X9432758Y9002736D01*
X9432980Y9003402D01*
X9432758Y9004290D01*
X9432203Y9004623D01*
X9430870Y9004401D01*
X9429982Y9004623D01*
X9429871Y9004957D01*
X9429426Y9005401D01*
X9429204Y9008954D01*
X9428649Y9009509D01*
X9426428Y9009731D01*
X9425540Y9009954D01*
X9425318Y9010398D01*
X9424985Y9016505D01*
X9424763Y9017393D01*
X9424429Y9017726D01*
X9421542Y9017949D01*
X9420987Y9018504D01*
X9420765Y9021391D01*
X9420321Y9022501D01*
X9420099Y9025611D01*
X9419766Y9025944D01*
X9418100Y9025833D01*
X9417323Y9025944D01*
X9416768Y9026499D01*
X9416546Y9029386D01*
X9416323Y9030275D01*
X9415324Y9031052D01*
X9413880Y9030941D01*
X9412881Y9031052D01*
X9412326Y9031829D01*
X9412104Y9038492D01*
X9411548Y9039047D01*
X9408661Y9039269D01*
X9408106Y9039824D01*
X9407884Y9042933D01*
X9407329Y9043933D01*
X9404664Y9044155D01*
X9404331Y9044488D01*
X9404108Y9046931D01*
X9403886Y9047597D01*
X9403664Y9050929D01*
X9403442Y9051817D01*
X9403109Y9052150D01*
X9400444Y9052372D01*
X9399667Y9053150D01*
X9399778Y9054815D01*
X9399667Y9055371D01*
X9398556Y9057813D01*
X9398779Y9058480D01*
X9398668Y9059701D01*
X9396669Y9059923D01*
X9395780Y9060145D01*
X9395669Y9060478D01*
X9395336Y9060811D01*
X9395114Y9061700D01*
X9395225Y9063588D01*
X9394670Y9064809D01*
X9392227Y9065031D01*
X9391227Y9065364D01*
X9391005Y9068252D01*
X9390783Y9068918D01*
X9390561Y9072027D01*
X9390339Y9072915D01*
X9390006Y9073249D01*
X9389118Y9073471D01*
X9388451Y9073249D01*
X9387563Y9073471D01*
X9387230Y9073804D01*
X9387008Y9076247D01*
X9386786Y9077135D01*
X9386230Y9077690D01*
X9383121Y9077912D01*
X9382788Y9078245D01*
X9382566Y9081132D01*
X9382344Y9081799D01*
X9382122Y9085574D01*
X9381900Y9086241D01*
X9381678Y9087795D01*
X9381900Y9088461D01*
X9381567Y9089683D01*
X9380456Y9089905D01*
X9379790Y9089683D01*
X9378235Y9090349D01*
X9376681Y9091460D01*
X9376237Y9091238D01*
X9374793Y9091349D01*
X9374460Y9092126D01*
X9374571Y9093570D01*
X9374238Y9094791D01*
X9374016Y9095679D01*
X9373683Y9101787D01*
X9373349Y9102786D01*
X9372239Y9103230D01*
X9371573Y9103008D01*
X9370018Y9103230D01*
X9369463Y9103785D01*
X9369241Y9106451D01*
X9368908Y9107450D01*
X9366243Y9107672D01*
X9365909Y9108005D01*
X9365687Y9110448D01*
X9365465Y9111336D01*
X9364688Y9112114D01*
X9362023Y9112336D01*
X9361690Y9112669D01*
X9361468Y9114002D01*
X9361690Y9114668D01*
X9361246Y9116000D01*
X9361023Y9119554D01*
X9360579Y9120664D01*
X9359802Y9121220D01*
X9358025Y9120997D01*
X9357692Y9121330D01*
X9357470Y9121997D01*
X9357692Y9122885D01*
X9356360Y9125772D01*
X9356582Y9127105D01*
X9356249Y9128326D01*
X9354028Y9128548D01*
X9353140Y9128770D01*
X9352806Y9129103D01*
X9352584Y9132213D01*
X9352140Y9133767D01*
X9351918Y9134656D01*
X9352140Y9135322D01*
X9351918Y9136877D01*
X9351252Y9137321D01*
X9349364Y9137210D01*
X9348809Y9137765D01*
X9348587Y9140874D01*
X9347920Y9141541D01*
X9346699Y9141874D01*
X9346033Y9141652D01*
X9344700Y9141874D01*
X9344367Y9142207D01*
X9344145Y9142651D01*
X9343923Y9143317D01*
X9344034Y9143872D01*
X9343923Y9148647D01*
X9343701Y9149535D01*
X9343368Y9149869D01*
X9340480Y9150091D01*
X9339925Y9150646D01*
X9339703Y9153533D01*
X9339481Y9154421D01*
X9338259Y9155421D01*
X9337815Y9155199D01*
X9336372Y9155310D01*
X9336150Y9157753D01*
X9335928Y9158419D01*
X9335705Y9161306D01*
X9335372Y9162528D01*
X9334262Y9163194D01*
X9332707Y9162972D01*
X9331819Y9163194D01*
X9331375Y9163860D01*
X9331042Y9170190D01*
X9330820Y9171078D01*
X9330487Y9171411D01*
X9329376Y9171633D01*
X9328710Y9171411D01*
X9327821Y9171633D01*
X9327488Y9171966D01*
X9327266Y9174631D01*
X9326822Y9175742D01*
X9326045Y9176519D01*
X9325379Y9176741D01*
X9324712Y9176519D01*
X9323713Y9176630D01*
X9323491Y9177741D01*
X9323713Y9178407D01*
X9322824Y9180184D01*
X9322602Y9183293D01*
X9322380Y9184181D01*
X9321381Y9184959D01*
X9320048Y9184737D01*
X9319160Y9184959D01*
X9318827Y9185514D01*
X9319049Y9187068D01*
X9318383Y9188623D01*
X9318161Y9190177D01*
X9318383Y9191066D01*
X9317827Y9192509D01*
X9316495Y9192732D01*
X9315607Y9192509D01*
X9314385Y9193065D01*
X9314163Y9196174D01*
X9313719Y9197284D01*
X9313497Y9197729D01*
X9312830Y9198395D01*
X9313053Y9199061D01*
X9313275Y9199949D01*
X9312720Y9200505D01*
X9312386Y9200394D01*
X9311165Y9200061D01*
X9310166Y9201282D01*
X9309943Y9204169D01*
X9309721Y9205058D01*
X9308944Y9205835D01*
X9307278Y9205724D01*
X9306279Y9205835D01*
X9305724Y9206612D01*
X9305502Y9213275D01*
X9304946Y9213830D01*
X9302059Y9214052D01*
X9301504Y9214607D01*
X9301282Y9217716D01*
X9300838Y9218827D01*
X9300172Y9219271D01*
X9298284Y9219160D01*
X9297840Y9219604D01*
X9297951Y9221492D01*
X9297284Y9222602D01*
X9297062Y9225712D01*
X9296840Y9226600D01*
X9295841Y9227155D01*
X9294286Y9226933D01*
X9293398Y9227155D01*
X9292954Y9227822D01*
X9292620Y9233929D01*
X9292287Y9234928D01*
X9289400Y9235150D01*
X9288845Y9235705D01*
X9288623Y9238593D01*
X9288068Y9239814D01*
X9285181Y9240036D01*
X9284848Y9240369D01*
X9284625Y9242812D01*
X9284403Y9243479D01*
X9284181Y9247032D01*
X9283959Y9247920D01*
X9283182Y9248476D01*
X9281627Y9248254D01*
X9280739Y9248476D01*
X9280406Y9248809D01*
X9280184Y9250141D01*
X9280406Y9250808D01*
X9279962Y9252362D01*
X9279295Y9253028D01*
X9276630Y9253250D01*
X9276408Y9255471D01*
X9275964Y9256582D01*
X9275742Y9259913D01*
X9275520Y9260801D01*
X9275076Y9261912D01*
X9275298Y9263466D01*
X9274965Y9264466D01*
X9272299Y9264688D01*
X9270967Y9266021D01*
X9270745Y9268908D01*
X9269634Y9269130D01*
X9268968Y9268908D01*
X9268080Y9269130D01*
X9267747Y9269685D01*
X9267525Y9270351D01*
X9267303Y9271240D01*
X9267525Y9271906D01*
X9267414Y9273127D01*
X9267192Y9274460D01*
X9267303Y9275903D01*
X9267081Y9277458D01*
X9266747Y9277791D01*
X9264304Y9278013D01*
X9263416Y9278235D01*
X9262861Y9278790D01*
X9262639Y9282122D01*
X9261417Y9283121D01*
X9261306Y9283010D01*
X9260418Y9282788D01*
X9259863Y9282899D01*
X9259418Y9283565D01*
X9259530Y9285009D01*
X9258863Y9286564D01*
X9258641Y9288340D01*
X9258863Y9289007D01*
X9258308Y9290672D01*
X9257531Y9291005D01*
X9255865Y9290894D01*
X9254977Y9291116D01*
X9254644Y9291450D01*
X9254421Y9294559D01*
X9254199Y9295225D01*
X9253977Y9296557D01*
X9254199Y9297224D01*
X9253977Y9298556D01*
X9253200Y9299111D01*
X9251867Y9298889D01*
X9250979Y9299111D01*
X9250424Y9299667D01*
X9250202Y9302332D01*
X9249980Y9303220D01*
X9249424Y9303775D01*
X9248536Y9303997D01*
X9247648Y9303775D01*
X9246760Y9303997D01*
X9246426Y9304331D01*
X9246093Y9305108D01*
X9246204Y9306774D01*
X9245982Y9307440D01*
X9245760Y9310549D01*
X9245538Y9311437D01*
X9245205Y9311771D01*
X9242984Y9311993D01*
X9242096Y9312215D01*
X9241874Y9312659D01*
X9241540Y9313880D01*
X9241763Y9314547D01*
X9241540Y9316101D01*
X9240985Y9316656D01*
X9238320Y9316878D01*
X9237987Y9317212D01*
X9237765Y9319655D01*
X9237543Y9320321D01*
X9237321Y9324096D01*
X9236766Y9324652D01*
X9233878Y9324874D01*
X9233323Y9325429D01*
X9233101Y9328538D01*
X9232435Y9330093D01*
X9232213Y9331203D01*
X9232435Y9331870D01*
X9232213Y9332758D01*
X9231657Y9332869D01*
X9230103Y9332647D01*
X9229326Y9333646D01*
X9229103Y9336978D01*
X9228548Y9337533D01*
X9226105Y9337755D01*
X9225217Y9337977D01*
X9224773Y9338421D01*
X9224440Y9344750D01*
X9224218Y9345639D01*
X9223440Y9346194D01*
X9221886Y9345972D01*
X9220997Y9346194D01*
X9220442Y9346749D01*
X9220220Y9348082D01*
X9220442Y9348748D01*
X9220220Y9350303D01*
X9219665Y9350858D01*
X9217000Y9351080D01*
X9216445Y9351857D01*
X9216667Y9353634D01*
X9216445Y9354300D01*
X9216222Y9357632D01*
X9216000Y9358520D01*
X9215667Y9358853D01*
X9213224Y9359075D01*
X9212336Y9359297D01*
X9211892Y9359963D01*
X9211559Y9366737D01*
X9210781Y9367514D01*
X9209116Y9367403D01*
X9208338Y9367514D01*
X9207894Y9367959D01*
X9207561Y9369402D01*
X9207783Y9370069D01*
X9207672Y9371068D01*
X9207228Y9372845D01*
X9207339Y9374510D01*
X9207006Y9375510D01*
X9206228Y9375843D01*
X9204785Y9375732D01*
X9203897Y9375954D01*
X9203564Y9376287D01*
X9203341Y9379174D01*
X9203119Y9380063D01*
X9202786Y9380396D01*
X9200565Y9380618D01*
X9199677Y9380840D01*
X9199122Y9381839D01*
X9199344Y9383394D01*
X9198900Y9384948D01*
X9198678Y9385615D01*
X9198900Y9387169D01*
X9198567Y9388391D01*
X9197789Y9388724D01*
X9196346Y9388613D01*
X9195457Y9388835D01*
X9194902Y9389390D01*
X9194680Y9392944D01*
X9193570Y9394720D01*
X9194014Y9395609D01*
X9193681Y9396608D01*
X9191682Y9396386D01*
X9190682Y9397607D01*
X9190460Y9400495D01*
X9190238Y9401383D01*
X9189905Y9401716D01*
X9188795Y9401938D01*
X9187906Y9401716D01*
X9187018Y9401938D01*
X9186463Y9402493D01*
X9186241Y9405825D01*
X9186018Y9406491D01*
X9186129Y9408156D01*
X9186018Y9409378D01*
X9185463Y9409933D01*
X9184353Y9410155D01*
X9183686Y9409933D01*
X9182576Y9410155D01*
X9182243Y9410488D01*
X9182021Y9413598D01*
X9181577Y9414708D01*
X9181022Y9415263D01*
X9180355Y9415485D01*
X9179467Y9415263D01*
X9178579Y9415485D01*
X9178468Y9416263D01*
X9178690Y9417151D01*
X9178023Y9418706D01*
X9177801Y9421593D01*
X9177579Y9422481D01*
X9177024Y9423037D01*
X9174137Y9423259D01*
X9173804Y9423592D01*
X9173582Y9426257D01*
X9173249Y9427478D01*
X9172804Y9428589D01*
X9172915Y9430476D01*
X9172582Y9430809D01*
X9171472Y9431032D01*
X9170806Y9430809D01*
X9170139Y9431032D01*
X9169362Y9431809D01*
X9169140Y9435140D01*
X9168696Y9436251D01*
X9167918Y9437028D01*
X9167474Y9437250D01*
X9167030Y9436806D01*
X9166031Y9436917D01*
X9165808Y9437361D01*
X9166031Y9438027D01*
X9166253Y9438472D01*
X9166586Y9438583D01*
X9166697Y9438249D01*
X9167030Y9438138D01*
X9167474Y9437694D01*
X9168029Y9437805D01*
X9168251Y9438916D01*
X9167918Y9439249D01*
X9166808Y9438805D01*
X9165808Y9439138D01*
X9165586Y9439582D01*
X9164920Y9440248D01*
X9164698Y9442913D01*
X9164476Y9443802D01*
X9164143Y9444135D01*
X9163254Y9444357D01*
X9162366Y9444135D01*
X9161478Y9444357D01*
X9161145Y9444690D01*
X9160700Y9445801D01*
X9160923Y9447355D01*
X9160700Y9448021D01*
X9160479Y9451575D01*
X9160145Y9452574D01*
X9157036Y9452796D01*
X9156481Y9453351D01*
X9156259Y9456238D01*
X9155704Y9456794D01*
X9152150Y9457016D01*
X9151484Y9457238D01*
X9131607Y9457127D01*
X9130497Y9456905D01*
X9129608Y9456683D01*
X8894751Y9456794D01*
X8890531Y9457016D01*
X8889865Y9456794D01*
X8888532Y9457016D01*
X8887977Y9457571D01*
X8887755Y9460236D01*
X8887422Y9461236D01*
X8886644Y9461569D01*
X8884979Y9461458D01*
X8883979Y9461791D01*
X8883535Y9462901D01*
X8883757Y9464456D01*
X8883091Y9466010D01*
X8882869Y9466455D01*
X8882536Y9466788D01*
X8882647Y9468897D01*
X8882092Y9469231D01*
X8880981Y9468786D01*
X8880315Y9469008D01*
X8879538Y9469786D01*
X8879315Y9472451D01*
X8879093Y9474005D01*
X8878205Y9475338D01*
X8876095Y9475227D01*
X8875984Y9476226D01*
X8876317Y9476559D01*
X8876762Y9476782D01*
X8877428Y9476115D01*
X8877872Y9475893D01*
X8878205Y9476226D01*
X8878427Y9477115D01*
X8877872Y9477670D01*
X8876540Y9477004D01*
X8875873Y9477670D01*
X8874763Y9479002D01*
X8874541Y9479891D01*
X8874652Y9481334D01*
X8874319Y9482334D01*
X8873208Y9482556D01*
X8872542Y9482334D01*
X8871654Y9482556D01*
X8871098Y9483111D01*
X8870876Y9485776D01*
X8870654Y9486665D01*
X8870321Y9486998D01*
X8867878Y9487220D01*
X8866879Y9487553D01*
X8866657Y9490440D01*
X8866434Y9491106D01*
X8866212Y9494882D01*
X8865768Y9495992D01*
X8865435Y9496325D01*
X8864991Y9496547D01*
X8863880Y9496103D01*
X8863325Y9496214D01*
X8863103Y9497103D01*
X8863325Y9497991D01*
X8863103Y9498657D01*
X8862881Y9499101D01*
X8862548Y9499435D01*
X8862104Y9499657D01*
X8861660Y9500101D01*
X8858994Y9500323D01*
X8858661Y9500656D01*
X8858439Y9503099D01*
X8858217Y9503765D01*
X8857884Y9507652D01*
X8857107Y9508207D01*
X8854220Y9508429D01*
X8853553Y9509540D01*
X8853665Y9511427D01*
X8853553Y9512204D01*
X8853331Y9512871D01*
X8853109Y9514425D01*
X8853331Y9515092D01*
X8853109Y9516202D01*
X8852776Y9516535D01*
X8851888Y9516757D01*
X8851222Y9516535D01*
X8850333Y9516757D01*
X8850000Y9517090D01*
X8849778Y9519756D01*
X8849556Y9520644D01*
X8849001Y9521199D01*
X8845891Y9521421D01*
X8845336Y9522199D01*
X8845114Y9528861D01*
X8844559Y9529416D01*
X8842116Y9529639D01*
X8841116Y9529972D01*
X8840894Y9533081D01*
X8840450Y9534191D01*
X8839784Y9534857D01*
X8837674Y9534746D01*
X8837341Y9535079D01*
X8837563Y9536634D01*
X8837341Y9537522D01*
X8836897Y9537967D01*
X8836675Y9541298D01*
X8836119Y9542520D01*
X8833232Y9542742D01*
X8832899Y9543075D01*
X8832677Y9545518D01*
X8832455Y9546406D01*
X8832011Y9547517D01*
X8832122Y9549182D01*
X8832011Y9550182D01*
X8831678Y9550515D01*
X8830567Y9550737D01*
X8829901Y9550515D01*
X8828791Y9550737D01*
X8828235Y9551292D01*
X8828013Y9554179D01*
X8827791Y9555068D01*
X8827458Y9555400D01*
X8826348Y9555623D01*
X8825459Y9555400D01*
X8824571Y9555623D01*
X8824238Y9555956D01*
X8824016Y9557510D01*
X8824238Y9558177D01*
X8823794Y9559509D01*
X8823572Y9560842D01*
X8823794Y9561508D01*
X8823572Y9563063D01*
X8823238Y9563396D01*
X8820351Y9563618D01*
X8819796Y9564173D01*
X8819574Y9567060D01*
X8819019Y9568282D01*
X8816354Y9568504D01*
X8816021Y9568837D01*
X8815798Y9571058D01*
X8815576Y9571946D01*
X8815132Y9573057D01*
X8815354Y9575055D01*
X8814799Y9576277D01*
X8812356Y9576499D01*
X8811468Y9576721D01*
X8810913Y9578164D01*
X8811135Y9579053D01*
X8810913Y9580607D01*
X8810357Y9581829D01*
X8810469Y9583939D01*
X8809913Y9584494D01*
X8807914Y9584272D01*
X8807137Y9585049D01*
X8806693Y9586160D01*
X8806915Y9587714D01*
X8806360Y9589158D01*
X8803251Y9589380D01*
X8802695Y9589935D01*
X8802473Y9592378D01*
X8802917Y9593489D01*
X8803251Y9593822D01*
X8993135Y9594044D01*
X8993802Y9593822D01*
D02*
G37*
G36*
X8881314Y9467343D02*
X8881203Y9467010D01*
X8880537Y9466788D01*
X8880426Y9467343D01*
Y9467565D01*
X8880981Y9467676D01*
X8881314Y9467343D01*
D02*
G37*
G36*
X9313053Y9447577D02*
X9312941Y9446578D01*
X9312830Y9446467D01*
Y9446245D01*
X9312275Y9446356D01*
X9311942Y9446689D01*
X9311720Y9447355D01*
X9312720Y9447910D01*
X9313053Y9447577D01*
D02*
G37*
G36*
X9334373Y9412709D02*
X9334040Y9412376D01*
X9333374Y9412598D01*
X9333263Y9412931D01*
Y9413154D01*
Y9413376D01*
X9334262Y9413487D01*
X9334373Y9412709D01*
D02*
G37*
G36*
X9517595Y9400273D02*
Y9400050D01*
X9517040Y9399939D01*
X9516929Y9400273D01*
X9517262Y9400606D01*
X9517595Y9400273D01*
D02*
G37*
G36*
X9192459Y9395164D02*
X9192570Y9395053D01*
X9192681Y9394498D01*
X9191904Y9394165D01*
X9191571Y9394498D01*
X9191682Y9395275D01*
X9192459Y9395164D01*
D02*
G37*
G36*
X9230658Y9331203D02*
X9230880Y9330759D01*
X9230547Y9330426D01*
X9230325D01*
X9230214Y9330537D01*
X9229992Y9330981D01*
X9230325Y9331314D01*
X9230658Y9331203D01*
D02*
G37*
G36*
X9603099Y9259913D02*
X9602988Y9258914D01*
X9602322Y9258692D01*
X9601877Y9259136D01*
X9601433Y9259358D01*
X9601322Y9259691D01*
X9602322Y9260246D01*
X9602544D01*
X9603099Y9259913D01*
D02*
G37*
G36*
X9465183Y9253917D02*
X9464849Y9253806D01*
X9464738Y9254139D01*
X9464849Y9254250D01*
X9465071D01*
X9465183Y9253917D01*
D02*
G37*
G36*
X9462296Y9204169D02*
X9462073Y9203503D01*
X9461740Y9203392D01*
X9461185Y9203947D01*
X9461296Y9204058D01*
X9461407Y9204391D01*
X9461962Y9204502D01*
X9462296Y9204169D01*
D02*
G37*
G36*
X9311942Y9199283D02*
X9312053Y9199172D01*
X9312609Y9198617D01*
X9311831Y9198062D01*
X9311054Y9198173D01*
X9310832Y9199061D01*
X9311387Y9199616D01*
X9311942Y9199283D01*
D02*
G37*
G36*
X9439865Y8989855D02*
X9439754Y8989522D01*
X9439643Y8989411D01*
X9439087Y8989299D01*
X9438976Y8989855D01*
X9439310Y8990188D01*
X9439865Y8989855D01*
D02*
G37*
G36*
X9443862Y8981193D02*
X9443529Y8980860D01*
X9443196Y8981193D01*
X9443751Y8981304D01*
X9443862Y8981193D01*
D02*
G37*
G36*
X10257056Y8880212D02*
X10238307D01*
Y8897551D01*
X10257056D01*
Y8880212D01*
D02*
G37*
G36*
X9953830Y8872036D02*
X9956085Y8871895D01*
X9958059Y8871472D01*
X9960033Y8871190D01*
X9961724Y8870767D01*
X9963275Y8870203D01*
X9964685Y8869780D01*
X9965812Y8869357D01*
X9966940Y8868793D01*
X9967786Y8868370D01*
X9968632Y8868088D01*
X9969196Y8867666D01*
X9969619Y8867525D01*
X9969760Y8867243D01*
X9969901D01*
X9972297Y8865128D01*
X9974271Y8862732D01*
X9975962Y8860194D01*
X9977372Y8857798D01*
X9978359Y8855542D01*
X9978782Y8854555D01*
X9979064Y8853709D01*
X9979346Y8853005D01*
X9979487Y8852441D01*
X9979627Y8852159D01*
Y8852018D01*
X9962852Y8848917D01*
X9962147Y8850608D01*
X9961442Y8852018D01*
X9960738Y8853287D01*
X9959892Y8854273D01*
X9959328Y8854978D01*
X9958764Y8855401D01*
X9958482Y8855683D01*
X9958341Y8855824D01*
X9957213Y8856529D01*
X9955945Y8857093D01*
X9954535Y8857375D01*
X9953266Y8857657D01*
X9952138Y8857798D01*
X9951293Y8857939D01*
X9950447D01*
X9947909Y8857798D01*
X9945795Y8857516D01*
X9944103Y8857234D01*
X9942693Y8856811D01*
X9941707Y8856247D01*
X9941002Y8855965D01*
X9940579Y8855683D01*
X9940438Y8855542D01*
X9939451Y8854555D01*
X9938746Y8853428D01*
X9938323Y8852159D01*
X9937900Y8850890D01*
X9937759Y8849621D01*
X9937618Y8848635D01*
Y8848071D01*
Y8847789D01*
Y8845956D01*
X9938605Y8845533D01*
X9939874Y8845110D01*
X9942552Y8844265D01*
X9945654Y8843560D01*
X9948614Y8842855D01*
X9951433Y8842150D01*
X9952702Y8841868D01*
X9953830Y8841727D01*
X9954676Y8841586D01*
X9955381Y8841445D01*
X9955804Y8841304D01*
X9955945D01*
X9959328Y8840599D01*
X9962429Y8839894D01*
X9964967Y8839190D01*
X9967081Y8838485D01*
X9968773Y8837780D01*
X9969901Y8837357D01*
X9970605Y8837075D01*
X9970887Y8836934D01*
X9972720Y8835947D01*
X9974271Y8834820D01*
X9975680Y8833551D01*
X9976667Y8832423D01*
X9977654Y8831436D01*
X9978218Y8830590D01*
X9978641Y8830027D01*
X9978782Y8829745D01*
X9979768Y8827912D01*
X9980473Y8826079D01*
X9980896Y8824388D01*
X9981178Y8822696D01*
X9981460Y8821286D01*
X9981601Y8820159D01*
Y8819454D01*
Y8819172D01*
X9981460Y8817480D01*
X9981319Y8815930D01*
X9980614Y8812969D01*
X9979627Y8810432D01*
X9978500Y8808317D01*
X9977372Y8806626D01*
X9976385Y8805357D01*
X9975680Y8804511D01*
X9975398Y8804370D01*
Y8804229D01*
X9972861Y8802255D01*
X9970042Y8800846D01*
X9967222Y8799859D01*
X9964403Y8799154D01*
X9962006Y8798731D01*
X9960878Y8798590D01*
X9960033D01*
X9959187Y8798449D01*
X9958200D01*
X9955945Y8798590D01*
X9953689Y8798872D01*
X9951715Y8799154D01*
X9950024Y8799577D01*
X9948614Y8800000D01*
X9947486Y8800423D01*
X9946781Y8800564D01*
X9946500Y8800705D01*
X9944526Y8801692D01*
X9942552Y8802678D01*
X9940861Y8803947D01*
X9939310Y8805075D01*
X9938041Y8806062D01*
X9937055Y8806907D01*
X9936491Y8807471D01*
X9936209Y8807612D01*
X9936068Y8807048D01*
X9935786Y8806344D01*
X9935645Y8805780D01*
X9935504Y8805639D01*
Y8805498D01*
X9935081Y8804229D01*
X9934799Y8803101D01*
X9934517Y8802114D01*
X9934235Y8801410D01*
X9933953Y8800846D01*
X9933812Y8800282D01*
X9933671Y8800141D01*
Y8800000D01*
X9915204D01*
X9916050Y8801833D01*
X9916755Y8803524D01*
X9917319Y8805075D01*
X9917883Y8806485D01*
X9918165Y8807612D01*
X9918447Y8808599D01*
X9918587Y8809163D01*
Y8809304D01*
X9918869Y8811137D01*
X9919010Y8813392D01*
X9919292Y8815648D01*
Y8817903D01*
X9919433Y8819877D01*
Y8821568D01*
Y8822273D01*
Y8822696D01*
Y8822978D01*
Y8823119D01*
X9919151Y8844969D01*
Y8847225D01*
X9919292Y8849198D01*
X9919433Y8851031D01*
X9919574Y8852723D01*
X9919715Y8854273D01*
X9919997Y8855683D01*
X9920138Y8856952D01*
X9920420Y8857939D01*
X9920702Y8858925D01*
X9920843Y8859630D01*
X9921266Y8860899D01*
X9921548Y8861463D01*
X9921689Y8861745D01*
X9922817Y8863295D01*
X9924085Y8864846D01*
X9925495Y8866115D01*
X9927046Y8867243D01*
X9928314Y8868088D01*
X9929442Y8868652D01*
X9930147Y8869075D01*
X9930288Y8869216D01*
X9930429D01*
X9931698Y8869780D01*
X9932966Y8870203D01*
X9935927Y8871049D01*
X9939028Y8871613D01*
X9941988Y8871895D01*
X9944808Y8872177D01*
X9945936D01*
X9946922Y8872318D01*
X9951574D01*
X9953830Y8872036D01*
D02*
G37*
G36*
X9605211D02*
X9607467Y8871895D01*
X9609440Y8871472D01*
X9611414Y8871190D01*
X9613105Y8870767D01*
X9614656Y8870203D01*
X9616066Y8869780D01*
X9617194Y8869357D01*
X9618321Y8868793D01*
X9619167Y8868370D01*
X9620013Y8868088D01*
X9620577Y8867666D01*
X9621000Y8867525D01*
X9621141Y8867243D01*
X9621282D01*
X9623678Y8865128D01*
X9625652Y8862732D01*
X9627343Y8860194D01*
X9628753Y8857798D01*
X9629740Y8855542D01*
X9630163Y8854555D01*
X9630445Y8853709D01*
X9630727Y8853005D01*
X9630868Y8852441D01*
X9631009Y8852159D01*
Y8852018D01*
X9614233Y8848917D01*
X9613528Y8850608D01*
X9612824Y8852018D01*
X9612119Y8853287D01*
X9611273Y8854273D01*
X9610709Y8854978D01*
X9610145Y8855401D01*
X9609863Y8855683D01*
X9609722Y8855824D01*
X9608594Y8856529D01*
X9607326Y8857093D01*
X9605916Y8857375D01*
X9604647Y8857657D01*
X9603520Y8857798D01*
X9602674Y8857939D01*
X9601828D01*
X9599290Y8857798D01*
X9597176Y8857516D01*
X9595484Y8857234D01*
X9594075Y8856811D01*
X9593088Y8856247D01*
X9592383Y8855965D01*
X9591960Y8855683D01*
X9591819Y8855542D01*
X9590832Y8854555D01*
X9590127Y8853428D01*
X9589704Y8852159D01*
X9589282Y8850890D01*
X9589141Y8849621D01*
X9589000Y8848635D01*
Y8848071D01*
Y8847789D01*
Y8845956D01*
X9589986Y8845533D01*
X9591255Y8845110D01*
X9593934Y8844265D01*
X9597035Y8843560D01*
X9599995Y8842855D01*
X9602815Y8842150D01*
X9604083Y8841868D01*
X9605211Y8841727D01*
X9606057Y8841586D01*
X9606762Y8841445D01*
X9607185Y8841304D01*
X9607326D01*
X9610709Y8840599D01*
X9613810Y8839894D01*
X9616348Y8839190D01*
X9618462Y8838485D01*
X9620154Y8837780D01*
X9621282Y8837357D01*
X9621987Y8837075D01*
X9622269Y8836934D01*
X9624101Y8835947D01*
X9625652Y8834820D01*
X9627062Y8833551D01*
X9628048Y8832423D01*
X9629035Y8831436D01*
X9629599Y8830590D01*
X9630022Y8830027D01*
X9630163Y8829745D01*
X9631150Y8827912D01*
X9631854Y8826079D01*
X9632277Y8824388D01*
X9632559Y8822696D01*
X9632841Y8821286D01*
X9632982Y8820159D01*
Y8819454D01*
Y8819172D01*
X9632841Y8817480D01*
X9632700Y8815930D01*
X9631995Y8812969D01*
X9631009Y8810432D01*
X9629881Y8808317D01*
X9628753Y8806626D01*
X9627766Y8805357D01*
X9627062Y8804511D01*
X9626780Y8804370D01*
Y8804229D01*
X9624242Y8802255D01*
X9621423Y8800846D01*
X9618603Y8799859D01*
X9615784Y8799154D01*
X9613387Y8798731D01*
X9612260Y8798590D01*
X9611414D01*
X9610568Y8798449D01*
X9609581D01*
X9607326Y8798590D01*
X9605070Y8798872D01*
X9603097Y8799154D01*
X9601405Y8799577D01*
X9599995Y8800000D01*
X9598868Y8800423D01*
X9598163Y8800564D01*
X9597881Y8800705D01*
X9595907Y8801692D01*
X9593934Y8802678D01*
X9592242Y8803947D01*
X9590691Y8805075D01*
X9589423Y8806062D01*
X9588436Y8806907D01*
X9587872Y8807471D01*
X9587590Y8807612D01*
X9587449Y8807048D01*
X9587167Y8806344D01*
X9587026Y8805780D01*
X9586885Y8805639D01*
Y8805498D01*
X9586462Y8804229D01*
X9586180Y8803101D01*
X9585898Y8802114D01*
X9585616Y8801410D01*
X9585334Y8800846D01*
X9585193Y8800282D01*
X9585052Y8800141D01*
Y8800000D01*
X9566585D01*
X9567431Y8801833D01*
X9568136Y8803524D01*
X9568700Y8805075D01*
X9569264Y8806485D01*
X9569546Y8807612D01*
X9569828Y8808599D01*
X9569969Y8809163D01*
Y8809304D01*
X9570251Y8811137D01*
X9570392Y8813392D01*
X9570674Y8815648D01*
Y8817903D01*
X9570814Y8819877D01*
Y8821568D01*
Y8822273D01*
Y8822696D01*
Y8822978D01*
Y8823119D01*
X9570533Y8844969D01*
Y8847225D01*
X9570674Y8849198D01*
X9570814Y8851031D01*
X9570955Y8852723D01*
X9571096Y8854273D01*
X9571378Y8855683D01*
X9571519Y8856952D01*
X9571801Y8857939D01*
X9572083Y8858925D01*
X9572224Y8859630D01*
X9572647Y8860899D01*
X9572929Y8861463D01*
X9573070Y8861745D01*
X9574198Y8863295D01*
X9575466Y8864846D01*
X9576876Y8866115D01*
X9578427Y8867243D01*
X9579696Y8868088D01*
X9580823Y8868652D01*
X9581528Y8869075D01*
X9581669Y8869216D01*
X9581810D01*
X9583079Y8869780D01*
X9584348Y8870203D01*
X9587308Y8871049D01*
X9590409Y8871613D01*
X9593370Y8871895D01*
X9596189Y8872177D01*
X9597317D01*
X9598304Y8872318D01*
X9602956D01*
X9605211Y8872036D01*
D02*
G37*
G36*
X9165526D02*
X9167781Y8871895D01*
X9169755Y8871472D01*
X9171728Y8871190D01*
X9173420Y8870767D01*
X9174971Y8870203D01*
X9176380Y8869780D01*
X9177508Y8869357D01*
X9178636Y8868793D01*
X9179482Y8868370D01*
X9180328Y8868088D01*
X9180891Y8867666D01*
X9181314Y8867525D01*
X9181455Y8867243D01*
X9181596D01*
X9183993Y8865128D01*
X9185966Y8862732D01*
X9187658Y8860194D01*
X9189068Y8857798D01*
X9190055Y8855542D01*
X9190477Y8854555D01*
X9190759Y8853709D01*
X9191041Y8853005D01*
X9191182Y8852441D01*
X9191323Y8852159D01*
Y8852018D01*
X9174548Y8848917D01*
X9173843Y8850608D01*
X9173138Y8852018D01*
X9172433Y8853287D01*
X9171587Y8854273D01*
X9171024Y8854978D01*
X9170460Y8855401D01*
X9170178Y8855683D01*
X9170037Y8855824D01*
X9168909Y8856529D01*
X9167640Y8857093D01*
X9166231Y8857375D01*
X9164962Y8857657D01*
X9163834Y8857798D01*
X9162988Y8857939D01*
X9162142D01*
X9159605Y8857798D01*
X9157490Y8857516D01*
X9155799Y8857234D01*
X9154389Y8856811D01*
X9153402Y8856247D01*
X9152697Y8855965D01*
X9152275Y8855683D01*
X9152134Y8855542D01*
X9151147Y8854555D01*
X9150442Y8853428D01*
X9150019Y8852159D01*
X9149596Y8850890D01*
X9149455Y8849621D01*
X9149314Y8848635D01*
Y8848071D01*
Y8847789D01*
Y8845956D01*
X9150301Y8845533D01*
X9151570Y8845110D01*
X9154248Y8844265D01*
X9157349Y8843560D01*
X9160310Y8842855D01*
X9163129Y8842150D01*
X9164398Y8841868D01*
X9165526Y8841727D01*
X9166372Y8841586D01*
X9167076Y8841445D01*
X9167499Y8841304D01*
X9167640D01*
X9171024Y8840599D01*
X9174125Y8839894D01*
X9176662Y8839190D01*
X9178777Y8838485D01*
X9180469Y8837780D01*
X9181596Y8837357D01*
X9182301Y8837075D01*
X9182583Y8836934D01*
X9184416Y8835947D01*
X9185966Y8834820D01*
X9187376Y8833551D01*
X9188363Y8832423D01*
X9189350Y8831436D01*
X9189914Y8830590D01*
X9190336Y8830027D01*
X9190477Y8829745D01*
X9191464Y8827912D01*
X9192169Y8826079D01*
X9192592Y8824388D01*
X9192874Y8822696D01*
X9193156Y8821286D01*
X9193297Y8820159D01*
Y8819454D01*
Y8819172D01*
X9193156Y8817480D01*
X9193015Y8815930D01*
X9192310Y8812969D01*
X9191323Y8810432D01*
X9190195Y8808317D01*
X9189068Y8806626D01*
X9188081Y8805357D01*
X9187376Y8804511D01*
X9187094Y8804370D01*
Y8804229D01*
X9184557Y8802255D01*
X9181737Y8800846D01*
X9178918Y8799859D01*
X9176098Y8799154D01*
X9173702Y8798731D01*
X9172574Y8798590D01*
X9171728D01*
X9170883Y8798449D01*
X9169896D01*
X9167640Y8798590D01*
X9165385Y8798872D01*
X9163411Y8799154D01*
X9161720Y8799577D01*
X9160310Y8800000D01*
X9159182Y8800423D01*
X9158477Y8800564D01*
X9158195Y8800705D01*
X9156222Y8801692D01*
X9154248Y8802678D01*
X9152556Y8803947D01*
X9151006Y8805075D01*
X9149737Y8806062D01*
X9148750Y8806907D01*
X9148186Y8807471D01*
X9147904Y8807612D01*
X9147764Y8807048D01*
X9147482Y8806344D01*
X9147341Y8805780D01*
X9147200Y8805639D01*
Y8805498D01*
X9146777Y8804229D01*
X9146495Y8803101D01*
X9146213Y8802114D01*
X9145931Y8801410D01*
X9145649Y8800846D01*
X9145508Y8800282D01*
X9145367Y8800141D01*
Y8800000D01*
X9126900D01*
X9127746Y8801833D01*
X9128451Y8803524D01*
X9129015Y8805075D01*
X9129578Y8806485D01*
X9129860Y8807612D01*
X9130142Y8808599D01*
X9130283Y8809163D01*
Y8809304D01*
X9130565Y8811137D01*
X9130706Y8813392D01*
X9130988Y8815648D01*
Y8817903D01*
X9131129Y8819877D01*
Y8821568D01*
Y8822273D01*
Y8822696D01*
Y8822978D01*
Y8823119D01*
X9130847Y8844969D01*
Y8847225D01*
X9130988Y8849198D01*
X9131129Y8851031D01*
X9131270Y8852723D01*
X9131411Y8854273D01*
X9131693Y8855683D01*
X9131834Y8856952D01*
X9132116Y8857939D01*
X9132398Y8858925D01*
X9132539Y8859630D01*
X9132962Y8860899D01*
X9133244Y8861463D01*
X9133385Y8861745D01*
X9134512Y8863295D01*
X9135781Y8864846D01*
X9137191Y8866115D01*
X9138741Y8867243D01*
X9140010Y8868088D01*
X9141138Y8868652D01*
X9141843Y8869075D01*
X9141984Y8869216D01*
X9142125D01*
X9143393Y8869780D01*
X9144662Y8870203D01*
X9147623Y8871049D01*
X9150724Y8871613D01*
X9153684Y8871895D01*
X9156504Y8872177D01*
X9157631D01*
X9158618Y8872318D01*
X9163270D01*
X9165526Y8872036D01*
D02*
G37*
G36*
X9552770Y8800000D02*
X9534021D01*
Y8822555D01*
X9525563Y8831718D01*
X9507660Y8800000D01*
X9487501D01*
X9513440Y8844828D01*
X9489193Y8870767D01*
X9512171D01*
X9534021Y8845815D01*
Y8897551D01*
X9552770D01*
Y8800000D01*
D02*
G37*
G36*
X9741670D02*
X9723485D01*
Y8876688D01*
X9704313Y8800000D01*
X9685282D01*
X9666110Y8876688D01*
X9665969Y8800000D01*
X9647784D01*
Y8897551D01*
X9677388D01*
X9694727Y8830872D01*
X9712207Y8897551D01*
X9741670D01*
Y8800000D01*
D02*
G37*
G36*
X8806757D02*
X8785471D01*
X8750792Y8897551D01*
X8771797D01*
X8795620Y8825375D01*
X8820431Y8897551D01*
X8841718D01*
X8806757Y8800000D01*
D02*
G37*
G36*
X10033196D02*
X10016280D01*
X9988227Y8870767D01*
X10007399D01*
X10020932Y8834538D01*
X10021778Y8832423D01*
X10022341Y8830449D01*
X10022623Y8829745D01*
X10022764Y8829181D01*
X10022905Y8828758D01*
Y8828617D01*
X10023046Y8827912D01*
X10023328Y8827066D01*
X10024033Y8824952D01*
X10024315Y8824106D01*
X10024597Y8823260D01*
X10024738Y8822696D01*
X10024879Y8822555D01*
X10028685Y8834538D01*
X10042077Y8870767D01*
X10061672D01*
X10033196Y8800000D01*
D02*
G37*
G36*
X9899838Y8884864D02*
Y8870767D01*
X9908438D01*
Y8855824D01*
X9899838D01*
Y8824952D01*
Y8823119D01*
Y8821568D01*
Y8820018D01*
X9899697Y8818749D01*
Y8816493D01*
X9899557Y8814661D01*
X9899416Y8813251D01*
Y8812405D01*
X9899275Y8811841D01*
Y8811700D01*
X9898993Y8810150D01*
X9898570Y8808740D01*
X9898147Y8807471D01*
X9897724Y8806485D01*
X9897301Y8805639D01*
X9897019Y8805075D01*
X9896878Y8804652D01*
X9896737Y8804511D01*
X9895891Y8803524D01*
X9894905Y8802678D01*
X9892931Y8801269D01*
X9892085Y8800846D01*
X9891380Y8800423D01*
X9890816Y8800282D01*
X9890675Y8800141D01*
X9889125Y8799577D01*
X9887574Y8799154D01*
X9886023Y8798872D01*
X9884614Y8798731D01*
X9883345Y8798590D01*
X9882358Y8798449D01*
X9881512D01*
X9878552Y8798590D01*
X9875733Y8798872D01*
X9873195Y8799295D01*
X9871081Y8799859D01*
X9869248Y8800282D01*
X9867838Y8800705D01*
X9866992Y8800987D01*
X9866851Y8801128D01*
X9866711D01*
X9868402Y8815648D01*
X9870094Y8815084D01*
X9871644Y8814661D01*
X9872913Y8814379D01*
X9874041Y8814238D01*
X9874887Y8814097D01*
X9875451Y8813956D01*
X9876015D01*
X9877283Y8814097D01*
X9878270Y8814379D01*
X9878834Y8814661D01*
X9879116Y8814802D01*
X9879962Y8815648D01*
X9880385Y8816352D01*
X9880667Y8816916D01*
X9880808Y8817198D01*
Y8817480D01*
X9880948Y8818044D01*
Y8819313D01*
Y8821004D01*
X9881089Y8822696D01*
Y8824388D01*
Y8825797D01*
Y8826361D01*
Y8826784D01*
Y8827066D01*
Y8827207D01*
Y8855824D01*
X9868261D01*
Y8870767D01*
X9881089D01*
Y8895860D01*
X9899838Y8884864D01*
D02*
G37*
G36*
X9085314Y8872177D02*
X9087992Y8871895D01*
X9090671Y8871472D01*
X9092926Y8870767D01*
X9095182Y8870062D01*
X9097296Y8869216D01*
X9099129Y8868370D01*
X9100821Y8867384D01*
X9102371Y8866538D01*
X9103640Y8865551D01*
X9104768Y8864705D01*
X9105754Y8864000D01*
X9106459Y8863295D01*
X9107023Y8862873D01*
X9107305Y8862591D01*
X9107446Y8862450D01*
X9108997Y8860476D01*
X9110406Y8858502D01*
X9111675Y8856388D01*
X9112803Y8854132D01*
X9113649Y8851877D01*
X9114354Y8849621D01*
X9115481Y8845251D01*
X9115904Y8843137D01*
X9116186Y8841304D01*
X9116327Y8839612D01*
X9116468Y8838062D01*
X9116609Y8836934D01*
Y8835947D01*
Y8835383D01*
Y8835242D01*
X9116468Y8832141D01*
X9116186Y8829040D01*
X9115763Y8826361D01*
X9115199Y8823683D01*
X9114495Y8821286D01*
X9113649Y8819031D01*
X9112944Y8817057D01*
X9111957Y8815225D01*
X9111111Y8813533D01*
X9110406Y8812123D01*
X9109561Y8810996D01*
X9108856Y8810009D01*
X9108292Y8809163D01*
X9107869Y8808599D01*
X9107587Y8808317D01*
X9107446Y8808176D01*
X9105613Y8806485D01*
X9103781Y8804934D01*
X9101807Y8803665D01*
X9099693Y8802537D01*
X9097719Y8801551D01*
X9095605Y8800846D01*
X9093631Y8800141D01*
X9091657Y8799718D01*
X9089825Y8799295D01*
X9088133Y8799013D01*
X9086583Y8798731D01*
X9085314Y8798590D01*
X9084327Y8798449D01*
X9082776D01*
X9080239Y8798590D01*
X9077983Y8798731D01*
X9075728Y8799013D01*
X9073613Y8799436D01*
X9071640Y8799859D01*
X9069948Y8800423D01*
X9068256Y8800987D01*
X9066847Y8801692D01*
X9065437Y8802255D01*
X9064309Y8802819D01*
X9063322Y8803383D01*
X9062477Y8803806D01*
X9061913Y8804229D01*
X9061490Y8804511D01*
X9061208Y8804793D01*
X9061067D01*
X9059657Y8806062D01*
X9058248Y8807471D01*
X9055851Y8810573D01*
X9053877Y8813674D01*
X9052468Y8816775D01*
X9051340Y8819595D01*
X9050917Y8820863D01*
X9050494Y8821850D01*
X9050212Y8822696D01*
X9050071Y8823401D01*
X9049930Y8823824D01*
Y8823965D01*
X9068256Y8827066D01*
X9068820Y8824529D01*
X9069666Y8822273D01*
X9070371Y8820441D01*
X9071217Y8819031D01*
X9072063Y8817903D01*
X9072627Y8817198D01*
X9073049Y8816775D01*
X9073190Y8816634D01*
X9074600Y8815648D01*
X9076010Y8814943D01*
X9077419Y8814379D01*
X9078829Y8814097D01*
X9080098Y8813815D01*
X9081085Y8813674D01*
X9081931D01*
X9084468Y8813956D01*
X9086724Y8814520D01*
X9088556Y8815225D01*
X9090248Y8816211D01*
X9091516Y8817198D01*
X9092362Y8817903D01*
X9093067Y8818467D01*
X9093208Y8818749D01*
X9093913Y8819877D01*
X9094618Y8821004D01*
X9095605Y8823683D01*
X9096450Y8826643D01*
X9096873Y8829604D01*
X9097155Y8832423D01*
X9097296Y8833551D01*
Y8834538D01*
X9097437Y8835383D01*
Y8836088D01*
Y8836511D01*
Y8836652D01*
Y8838626D01*
X9097296Y8840599D01*
X9097014Y8842291D01*
X9096732Y8843983D01*
X9096450Y8845392D01*
X9096168Y8846661D01*
X9095323Y8848917D01*
X9094618Y8850608D01*
X9093913Y8851736D01*
X9093490Y8852441D01*
X9093349Y8852723D01*
X9091657Y8854414D01*
X9089825Y8855542D01*
X9087992Y8856388D01*
X9086301Y8857093D01*
X9084609Y8857375D01*
X9083340Y8857516D01*
X9082494Y8857657D01*
X9082212D01*
X9080380Y8857516D01*
X9078688Y8857234D01*
X9077279Y8856811D01*
X9076010Y8856247D01*
X9075023Y8855683D01*
X9074318Y8855260D01*
X9073895Y8854978D01*
X9073754Y8854837D01*
X9072627Y8853709D01*
X9071640Y8852441D01*
X9070935Y8851031D01*
X9070230Y8849762D01*
X9069807Y8848494D01*
X9069525Y8847507D01*
X9069384Y8846943D01*
Y8846661D01*
X9050917Y8850044D01*
X9052327Y8853991D01*
X9054018Y8857375D01*
X9055851Y8860194D01*
X9057684Y8862591D01*
X9059375Y8864423D01*
X9060644Y8865692D01*
X9061208Y8866115D01*
X9061631Y8866397D01*
X9061772Y8866679D01*
X9061913D01*
X9065014Y8868511D01*
X9068397Y8869921D01*
X9071781Y8870908D01*
X9075023Y8871613D01*
X9076574Y8871895D01*
X9077983Y8872036D01*
X9079252Y8872177D01*
X9080380D01*
X9081226Y8872318D01*
X9082494D01*
X9085314Y8872177D01*
D02*
G37*
G36*
X9831045D02*
X9833442Y8871895D01*
X9835838Y8871331D01*
X9837953Y8870767D01*
X9840067Y8870062D01*
X9841900Y8869216D01*
X9843732Y8868229D01*
X9845283Y8867384D01*
X9846693Y8866397D01*
X9847962Y8865410D01*
X9849089Y8864564D01*
X9849935Y8863859D01*
X9850640Y8863295D01*
X9851204Y8862732D01*
X9851486Y8862450D01*
X9851627Y8862309D01*
X9853177Y8860335D01*
X9854587Y8858221D01*
X9855856Y8856106D01*
X9856984Y8853850D01*
X9857829Y8851454D01*
X9858534Y8849198D01*
X9859662Y8844828D01*
X9860085Y8842714D01*
X9860367Y8840881D01*
X9860508Y8839190D01*
X9860649Y8837780D01*
X9860790Y8836511D01*
Y8835524D01*
Y8834960D01*
Y8834820D01*
X9860649Y8832141D01*
X9860508Y8829463D01*
X9860085Y8827066D01*
X9859662Y8824811D01*
X9859239Y8822555D01*
X9858534Y8820582D01*
X9857970Y8818749D01*
X9857266Y8817057D01*
X9856702Y8815507D01*
X9855997Y8814238D01*
X9855433Y8813110D01*
X9855010Y8812123D01*
X9854446Y8811418D01*
X9854164Y8810855D01*
X9854023Y8810573D01*
X9853882Y8810432D01*
X9852050Y8808317D01*
X9850217Y8806485D01*
X9848102Y8804934D01*
X9845847Y8803524D01*
X9843591Y8802396D01*
X9841336Y8801410D01*
X9839080Y8800564D01*
X9836825Y8800000D01*
X9834851Y8799436D01*
X9832878Y8799154D01*
X9831045Y8798872D01*
X9829494Y8798590D01*
X9828226D01*
X9827380Y8798449D01*
X9826534D01*
X9822446Y8798731D01*
X9818640Y8799295D01*
X9815397Y8800141D01*
X9812578Y8801128D01*
X9811309Y8801692D01*
X9810323Y8802114D01*
X9809336Y8802537D01*
X9808631Y8802960D01*
X9808067Y8803383D01*
X9807503Y8803524D01*
X9807362Y8803806D01*
X9807221D01*
X9804543Y8806062D01*
X9802146Y8808458D01*
X9800173Y8811137D01*
X9798622Y8813674D01*
X9797353Y8815930D01*
X9796930Y8816916D01*
X9796507Y8817762D01*
X9796226Y8818467D01*
X9795944Y8819031D01*
X9795803Y8819313D01*
Y8819454D01*
X9814411Y8822555D01*
X9815115Y8820723D01*
X9815820Y8819031D01*
X9816525Y8817762D01*
X9817371Y8816634D01*
X9817935Y8815789D01*
X9818499Y8815225D01*
X9818922Y8814943D01*
X9819063Y8814802D01*
X9820190Y8813956D01*
X9821459Y8813392D01*
X9822728Y8812969D01*
X9823856Y8812687D01*
X9824842Y8812546D01*
X9825688Y8812405D01*
X9826393D01*
X9828649Y8812546D01*
X9830763Y8813110D01*
X9832737Y8813815D01*
X9834287Y8814661D01*
X9835556Y8815507D01*
X9836402Y8816211D01*
X9837107Y8816775D01*
X9837248Y8816916D01*
X9838657Y8818749D01*
X9839644Y8820863D01*
X9840490Y8823119D01*
X9841054Y8825093D01*
X9841336Y8827066D01*
X9841477Y8828476D01*
X9841618Y8829040D01*
Y8829463D01*
Y8829745D01*
Y8829886D01*
X9794816D01*
Y8833833D01*
X9795098Y8837357D01*
X9795521Y8840740D01*
X9796085Y8843842D01*
X9796789Y8846802D01*
X9797494Y8849339D01*
X9798340Y8851736D01*
X9799186Y8853850D01*
X9800032Y8855683D01*
X9800878Y8857375D01*
X9801582Y8858643D01*
X9802287Y8859771D01*
X9802851Y8860617D01*
X9803274Y8861322D01*
X9803556Y8861604D01*
X9803697Y8861745D01*
X9805389Y8863577D01*
X9807362Y8865269D01*
X9809336Y8866679D01*
X9811309Y8867806D01*
X9813424Y8868934D01*
X9815538Y8869780D01*
X9817512Y8870485D01*
X9819486Y8871049D01*
X9821318Y8871472D01*
X9823010Y8871754D01*
X9824560Y8872036D01*
X9825829Y8872177D01*
X9826957Y8872318D01*
X9828508D01*
X9831045Y8872177D01*
D02*
G37*
G36*
X9451977D02*
X9454373Y8871895D01*
X9456770Y8871331D01*
X9458884Y8870767D01*
X9460999Y8870062D01*
X9462831Y8869216D01*
X9464664Y8868229D01*
X9466215Y8867384D01*
X9467624Y8866397D01*
X9468893Y8865410D01*
X9470021Y8864564D01*
X9470867Y8863859D01*
X9471572Y8863295D01*
X9472135Y8862732D01*
X9472417Y8862450D01*
X9472558Y8862309D01*
X9474109Y8860335D01*
X9475519Y8858221D01*
X9476787Y8856106D01*
X9477915Y8853850D01*
X9478761Y8851454D01*
X9479466Y8849198D01*
X9480594Y8844828D01*
X9481017Y8842714D01*
X9481299Y8840881D01*
X9481440Y8839190D01*
X9481580Y8837780D01*
X9481721Y8836511D01*
Y8835524D01*
Y8834960D01*
Y8834820D01*
X9481580Y8832141D01*
X9481440Y8829463D01*
X9481017Y8827066D01*
X9480594Y8824811D01*
X9480171Y8822555D01*
X9479466Y8820582D01*
X9478902Y8818749D01*
X9478197Y8817057D01*
X9477633Y8815507D01*
X9476928Y8814238D01*
X9476365Y8813110D01*
X9475942Y8812123D01*
X9475378Y8811418D01*
X9475096Y8810855D01*
X9474955Y8810573D01*
X9474814Y8810432D01*
X9472981Y8808317D01*
X9471149Y8806485D01*
X9469034Y8804934D01*
X9466779Y8803524D01*
X9464523Y8802396D01*
X9462268Y8801410D01*
X9460012Y8800564D01*
X9457757Y8800000D01*
X9455783Y8799436D01*
X9453809Y8799154D01*
X9451977Y8798872D01*
X9450426Y8798590D01*
X9449157D01*
X9448312Y8798449D01*
X9447466D01*
X9443378Y8798731D01*
X9439571Y8799295D01*
X9436329Y8800141D01*
X9433510Y8801128D01*
X9432241Y8801692D01*
X9431254Y8802114D01*
X9430267Y8802537D01*
X9429563Y8802960D01*
X9428999Y8803383D01*
X9428435Y8803524D01*
X9428294Y8803806D01*
X9428153D01*
X9425474Y8806062D01*
X9423078Y8808458D01*
X9421104Y8811137D01*
X9419554Y8813674D01*
X9418285Y8815930D01*
X9417862Y8816916D01*
X9417439Y8817762D01*
X9417157Y8818467D01*
X9416875Y8819031D01*
X9416734Y8819313D01*
Y8819454D01*
X9435342Y8822555D01*
X9436047Y8820723D01*
X9436752Y8819031D01*
X9437457Y8817762D01*
X9438303Y8816634D01*
X9438867Y8815789D01*
X9439430Y8815225D01*
X9439853Y8814943D01*
X9439994Y8814802D01*
X9441122Y8813956D01*
X9442391Y8813392D01*
X9443660Y8812969D01*
X9444787Y8812687D01*
X9445774Y8812546D01*
X9446620Y8812405D01*
X9447325D01*
X9449580Y8812546D01*
X9451695Y8813110D01*
X9453668Y8813815D01*
X9455219Y8814661D01*
X9456488Y8815507D01*
X9457334Y8816211D01*
X9458038Y8816775D01*
X9458179Y8816916D01*
X9459589Y8818749D01*
X9460576Y8820863D01*
X9461422Y8823119D01*
X9461986Y8825093D01*
X9462268Y8827066D01*
X9462409Y8828476D01*
X9462550Y8829040D01*
Y8829463D01*
Y8829745D01*
Y8829886D01*
X9415747D01*
Y8833833D01*
X9416029Y8837357D01*
X9416452Y8840740D01*
X9417016Y8843842D01*
X9417721Y8846802D01*
X9418426Y8849339D01*
X9419272Y8851736D01*
X9420118Y8853850D01*
X9420963Y8855683D01*
X9421809Y8857375D01*
X9422514Y8858643D01*
X9423219Y8859771D01*
X9423783Y8860617D01*
X9424206Y8861322D01*
X9424488Y8861604D01*
X9424629Y8861745D01*
X9426320Y8863577D01*
X9428294Y8865269D01*
X9430267Y8866679D01*
X9432241Y8867806D01*
X9434356Y8868934D01*
X9436470Y8869780D01*
X9438444Y8870485D01*
X9440417Y8871049D01*
X9442250Y8871472D01*
X9443941Y8871754D01*
X9445492Y8872036D01*
X9446761Y8872177D01*
X9447889Y8872318D01*
X9449439D01*
X9451977Y8872177D01*
D02*
G37*
G36*
X9012291D02*
X9014688Y8871895D01*
X9017084Y8871331D01*
X9019199Y8870767D01*
X9021313Y8870062D01*
X9023146Y8869216D01*
X9024979Y8868229D01*
X9026529Y8867384D01*
X9027939Y8866397D01*
X9029208Y8865410D01*
X9030336Y8864564D01*
X9031181Y8863859D01*
X9031886Y8863295D01*
X9032450Y8862732D01*
X9032732Y8862450D01*
X9032873Y8862309D01*
X9034424Y8860335D01*
X9035833Y8858221D01*
X9037102Y8856106D01*
X9038230Y8853850D01*
X9039076Y8851454D01*
X9039780Y8849198D01*
X9040908Y8844828D01*
X9041331Y8842714D01*
X9041613Y8840881D01*
X9041754Y8839190D01*
X9041895Y8837780D01*
X9042036Y8836511D01*
Y8835524D01*
Y8834960D01*
Y8834820D01*
X9041895Y8832141D01*
X9041754Y8829463D01*
X9041331Y8827066D01*
X9040908Y8824811D01*
X9040485Y8822555D01*
X9039780Y8820582D01*
X9039217Y8818749D01*
X9038512Y8817057D01*
X9037948Y8815507D01*
X9037243Y8814238D01*
X9036679Y8813110D01*
X9036256Y8812123D01*
X9035692Y8811418D01*
X9035410Y8810855D01*
X9035269Y8810573D01*
X9035128Y8810432D01*
X9033296Y8808317D01*
X9031463Y8806485D01*
X9029349Y8804934D01*
X9027093Y8803524D01*
X9024838Y8802396D01*
X9022582Y8801410D01*
X9020327Y8800564D01*
X9018071Y8800000D01*
X9016098Y8799436D01*
X9014124Y8799154D01*
X9012291Y8798872D01*
X9010741Y8798590D01*
X9009472D01*
X9008626Y8798449D01*
X9007780D01*
X9003692Y8798731D01*
X8999886Y8799295D01*
X8996644Y8800141D01*
X8993824Y8801128D01*
X8992556Y8801692D01*
X8991569Y8802114D01*
X8990582Y8802537D01*
X8989877Y8802960D01*
X8989313Y8803383D01*
X8988749Y8803524D01*
X8988608Y8803806D01*
X8988467D01*
X8985789Y8806062D01*
X8983392Y8808458D01*
X8981419Y8811137D01*
X8979868Y8813674D01*
X8978600Y8815930D01*
X8978177Y8816916D01*
X8977754Y8817762D01*
X8977472Y8818467D01*
X8977190Y8819031D01*
X8977049Y8819313D01*
Y8819454D01*
X8995657Y8822555D01*
X8996362Y8820723D01*
X8997067Y8819031D01*
X8997771Y8817762D01*
X8998617Y8816634D01*
X8999181Y8815789D01*
X8999745Y8815225D01*
X9000168Y8814943D01*
X9000309Y8814802D01*
X9001437Y8813956D01*
X9002705Y8813392D01*
X9003974Y8812969D01*
X9005102Y8812687D01*
X9006089Y8812546D01*
X9006934Y8812405D01*
X9007639D01*
X9009895Y8812546D01*
X9012009Y8813110D01*
X9013983Y8813815D01*
X9015534Y8814661D01*
X9016802Y8815507D01*
X9017648Y8816211D01*
X9018353Y8816775D01*
X9018494Y8816916D01*
X9019904Y8818749D01*
X9020891Y8820863D01*
X9021736Y8823119D01*
X9022300Y8825093D01*
X9022582Y8827066D01*
X9022723Y8828476D01*
X9022864Y8829040D01*
Y8829463D01*
Y8829745D01*
Y8829886D01*
X8976062D01*
Y8833833D01*
X8976344Y8837357D01*
X8976767Y8840740D01*
X8977331Y8843842D01*
X8978036Y8846802D01*
X8978740Y8849339D01*
X8979586Y8851736D01*
X8980432Y8853850D01*
X8981278Y8855683D01*
X8982124Y8857375D01*
X8982829Y8858643D01*
X8983533Y8859771D01*
X8984097Y8860617D01*
X8984520Y8861322D01*
X8984802Y8861604D01*
X8984943Y8861745D01*
X8986635Y8863577D01*
X8988608Y8865269D01*
X8990582Y8866679D01*
X8992556Y8867806D01*
X8994670Y8868934D01*
X8996785Y8869780D01*
X8998758Y8870485D01*
X9000732Y8871049D01*
X9002564Y8871472D01*
X9004256Y8871754D01*
X9005807Y8872036D01*
X9007075Y8872177D01*
X9008203Y8872318D01*
X9009754D01*
X9012291Y8872177D01*
D02*
G37*
G36*
X10400000Y8881058D02*
X10371101D01*
Y8800000D01*
X10351365D01*
Y8881058D01*
X10322607D01*
Y8897551D01*
X10400000D01*
Y8881058D01*
D02*
G37*
G36*
X10279189Y8872177D02*
X10280598Y8872036D01*
X10282008Y8871613D01*
X10283136Y8871190D01*
X10284123Y8870767D01*
X10284969Y8870485D01*
X10285391Y8870203D01*
X10285532Y8870062D01*
X10286942Y8869075D01*
X10288211Y8867666D01*
X10289621Y8866115D01*
X10290748Y8864564D01*
X10291876Y8863014D01*
X10292722Y8861745D01*
X10293286Y8860899D01*
X10293427Y8860758D01*
Y8870767D01*
X10310766D01*
Y8800000D01*
X10292017D01*
Y8821709D01*
Y8824952D01*
Y8827912D01*
X10291876Y8830590D01*
X10291735Y8832987D01*
Y8835242D01*
X10291594Y8837075D01*
X10291453Y8838908D01*
X10291312Y8840317D01*
X10291171Y8841586D01*
X10291030Y8842714D01*
X10290889Y8843560D01*
Y8844265D01*
X10290748Y8844687D01*
X10290607Y8845110D01*
Y8845392D01*
X10290043Y8847366D01*
X10289339Y8849057D01*
X10288634Y8850467D01*
X10287929Y8851454D01*
X10287365Y8852300D01*
X10286801Y8852864D01*
X10286519Y8853146D01*
X10286378Y8853287D01*
X10285250Y8853991D01*
X10284123Y8854555D01*
X10282995Y8854978D01*
X10282008Y8855260D01*
X10281162Y8855401D01*
X10280316Y8855542D01*
X10279753D01*
X10278202Y8855401D01*
X10276651Y8855119D01*
X10275242Y8854555D01*
X10273832Y8853991D01*
X10272704Y8853428D01*
X10271858Y8852864D01*
X10271153Y8852582D01*
X10271012Y8852441D01*
X10265092Y8868652D01*
X10267347Y8869921D01*
X10269462Y8870767D01*
X10271576Y8871472D01*
X10273550Y8871895D01*
X10275101Y8872177D01*
X10276369Y8872318D01*
X10277497D01*
X10279189Y8872177D01*
D02*
G37*
G36*
X10257056Y8800000D02*
X10238307D01*
Y8870767D01*
X10257056D01*
Y8800000D01*
D02*
G37*
G36*
X10181215Y8872177D02*
X10183752Y8871754D01*
X10186008Y8871190D01*
X10188263Y8870485D01*
X10190378Y8869498D01*
X10192210Y8868511D01*
X10194043Y8867384D01*
X10195594Y8866397D01*
X10197003Y8865269D01*
X10198272Y8864141D01*
X10199400Y8863154D01*
X10200246Y8862168D01*
X10200950Y8861463D01*
X10201514Y8860899D01*
X10201796Y8860476D01*
X10201937Y8860335D01*
Y8870767D01*
X10219276D01*
Y8800000D01*
X10200527D01*
Y8831859D01*
Y8833974D01*
Y8835947D01*
X10200387Y8837780D01*
X10200246Y8839331D01*
Y8840881D01*
X10200105Y8842150D01*
X10199964Y8843419D01*
X10199823Y8844405D01*
X10199541Y8846097D01*
X10199400Y8847225D01*
X10199118Y8847930D01*
Y8848071D01*
X10198554Y8849621D01*
X10197708Y8851172D01*
X10196862Y8852300D01*
X10196016Y8853428D01*
X10195171Y8854132D01*
X10194466Y8854837D01*
X10194043Y8855119D01*
X10193902Y8855260D01*
X10192351Y8856106D01*
X10190801Y8856811D01*
X10189391Y8857234D01*
X10187981Y8857657D01*
X10186853Y8857798D01*
X10186008Y8857939D01*
X10185162D01*
X10183752Y8857798D01*
X10182483Y8857657D01*
X10181497Y8857375D01*
X10180510Y8856952D01*
X10179664Y8856529D01*
X10179100Y8856247D01*
X10178818Y8856106D01*
X10178677Y8855965D01*
X10177690Y8855260D01*
X10176985Y8854414D01*
X10175717Y8852723D01*
X10175294Y8851877D01*
X10175012Y8851313D01*
X10174730Y8850890D01*
Y8850749D01*
X10174448Y8850044D01*
X10174307Y8849198D01*
X10174025Y8847084D01*
X10173743Y8844546D01*
X10173602Y8842150D01*
X10173461Y8839753D01*
Y8838767D01*
Y8837780D01*
Y8837075D01*
Y8836511D01*
Y8836088D01*
Y8835947D01*
Y8800000D01*
X10154712D01*
Y8843842D01*
Y8846802D01*
X10154853Y8849198D01*
X10154994Y8851454D01*
X10155276Y8853146D01*
X10155417Y8854555D01*
X10155699Y8855542D01*
X10155840Y8856247D01*
Y8856388D01*
X10156263Y8858080D01*
X10156827Y8859489D01*
X10157391Y8860899D01*
X10158096Y8862027D01*
X10158659Y8863014D01*
X10159082Y8863718D01*
X10159364Y8864141D01*
X10159505Y8864282D01*
X10160633Y8865551D01*
X10161902Y8866679D01*
X10163170Y8867666D01*
X10164439Y8868511D01*
X10165567Y8869216D01*
X10166554Y8869639D01*
X10167118Y8869921D01*
X10167400Y8870062D01*
X10169373Y8870767D01*
X10171347Y8871331D01*
X10173179Y8871754D01*
X10174871Y8872036D01*
X10176422Y8872177D01*
X10177690Y8872318D01*
X10178677D01*
X10181215Y8872177D01*
D02*
G37*
G36*
X9369650D02*
X9371060Y8872036D01*
X9372470Y8871613D01*
X9373597Y8871190D01*
X9374584Y8870767D01*
X9375430Y8870485D01*
X9375853Y8870203D01*
X9375994Y8870062D01*
X9377404Y8869075D01*
X9378672Y8867666D01*
X9380082Y8866115D01*
X9381210Y8864564D01*
X9382338Y8863014D01*
X9383183Y8861745D01*
X9383747Y8860899D01*
X9383888Y8860758D01*
Y8870767D01*
X9401228D01*
Y8800000D01*
X9382479D01*
Y8821709D01*
Y8824952D01*
Y8827912D01*
X9382338Y8830590D01*
X9382197Y8832987D01*
Y8835242D01*
X9382056Y8837075D01*
X9381915Y8838908D01*
X9381774Y8840317D01*
X9381633Y8841586D01*
X9381492Y8842714D01*
X9381351Y8843560D01*
Y8844265D01*
X9381210Y8844687D01*
X9381069Y8845110D01*
Y8845392D01*
X9380505Y8847366D01*
X9379800Y8849057D01*
X9379095Y8850467D01*
X9378390Y8851454D01*
X9377827Y8852300D01*
X9377263Y8852864D01*
X9376981Y8853146D01*
X9376840Y8853287D01*
X9375712Y8853991D01*
X9374584Y8854555D01*
X9373456Y8854978D01*
X9372470Y8855260D01*
X9371624Y8855401D01*
X9370778Y8855542D01*
X9370214D01*
X9368664Y8855401D01*
X9367113Y8855119D01*
X9365703Y8854555D01*
X9364293Y8853991D01*
X9363166Y8853428D01*
X9362320Y8852864D01*
X9361615Y8852582D01*
X9361474Y8852441D01*
X9355553Y8868652D01*
X9357809Y8869921D01*
X9359923Y8870767D01*
X9362038Y8871472D01*
X9364011Y8871895D01*
X9365562Y8872177D01*
X9366831Y8872318D01*
X9367959D01*
X9369650Y8872177D01*
D02*
G37*
G36*
X8922634Y8800000D02*
X8902899D01*
Y8836793D01*
X8885418D01*
X8883304Y8836934D01*
X8881330D01*
X8879498Y8837075D01*
X8877806Y8837216D01*
X8876255Y8837357D01*
X8874987Y8837498D01*
X8873718D01*
X8872731Y8837639D01*
X8871744Y8837780D01*
X8871039Y8837921D01*
X8870476D01*
X8870053Y8838062D01*
X8869771D01*
X8867797Y8838626D01*
X8865964Y8839331D01*
X8864273Y8840035D01*
X8862722Y8840881D01*
X8861453Y8841586D01*
X8860467Y8842150D01*
X8859903Y8842573D01*
X8859621Y8842714D01*
X8857788Y8844124D01*
X8856238Y8845674D01*
X8854687Y8847366D01*
X8853559Y8848776D01*
X8852572Y8850185D01*
X8851867Y8851313D01*
X8851445Y8852018D01*
X8851304Y8852300D01*
X8850176Y8854696D01*
X8849330Y8857234D01*
X8848766Y8859912D01*
X8848343Y8862309D01*
X8848061Y8864282D01*
Y8865269D01*
X8847920Y8865974D01*
Y8866679D01*
Y8867102D01*
Y8867384D01*
Y8867525D01*
X8848202Y8871613D01*
X8848766Y8875419D01*
X8849753Y8878520D01*
X8850740Y8881340D01*
X8851304Y8882467D01*
X8851867Y8883454D01*
X8852290Y8884300D01*
X8852854Y8885146D01*
X8853136Y8885710D01*
X8853418Y8886133D01*
X8853700Y8886274D01*
Y8886415D01*
X8855956Y8888952D01*
X8858211Y8891067D01*
X8860608Y8892758D01*
X8862722Y8894027D01*
X8864696Y8894873D01*
X8866246Y8895578D01*
X8866810Y8895719D01*
X8867233Y8895860D01*
X8867515Y8896000D01*
X8867656D01*
X8868784Y8896282D01*
X8870194Y8896564D01*
X8871885Y8896705D01*
X8873577Y8896846D01*
X8877524Y8897128D01*
X8881471Y8897410D01*
X8885136D01*
X8886687Y8897551D01*
X8922634D01*
Y8800000D01*
D02*
G37*
G36*
X8747691Y8881058D02*
X8718792D01*
Y8800000D01*
X8699056D01*
Y8881058D01*
X8670298D01*
Y8897551D01*
X8747691D01*
Y8881058D01*
D02*
G37*
G36*
X8657752Y8800000D02*
X8639003D01*
Y8818749D01*
X8657752D01*
Y8800000D01*
D02*
G37*
G36*
X8581205D02*
X8512412D01*
Y8816493D01*
X8561469D01*
Y8896846D01*
X8581205D01*
Y8800000D01*
D02*
G37*
G36*
X8505222Y8881058D02*
X8476323D01*
Y8800000D01*
X8456588D01*
Y8881058D01*
X8427830D01*
Y8897551D01*
X8505222D01*
Y8881058D01*
D02*
G37*
G36*
X8415001Y8800000D02*
X8378067D01*
X8374261Y8800141D01*
X8370737Y8800282D01*
X8367777Y8800564D01*
X8365380Y8800987D01*
X8363406Y8801410D01*
X8361856Y8801692D01*
X8361433Y8801833D01*
X8361010D01*
X8360869Y8801974D01*
X8360728D01*
X8357627Y8803101D01*
X8354807Y8804370D01*
X8352552Y8805639D01*
X8350578Y8806907D01*
X8349027Y8808035D01*
X8347900Y8808881D01*
X8347195Y8809445D01*
X8346913Y8809727D01*
X8344516Y8812405D01*
X8342402Y8815225D01*
X8340569Y8818185D01*
X8339160Y8820863D01*
X8338032Y8823401D01*
X8337468Y8824388D01*
X8337186Y8825234D01*
X8336904Y8826079D01*
X8336622Y8826643D01*
X8336481Y8826925D01*
Y8827066D01*
X8335494Y8830449D01*
X8334649Y8833974D01*
X8334085Y8837357D01*
X8333803Y8840599D01*
X8333662Y8842150D01*
X8333521Y8843560D01*
Y8844687D01*
X8333380Y8845815D01*
Y8846661D01*
Y8847225D01*
Y8847648D01*
Y8847789D01*
X8333521Y8852723D01*
X8333944Y8857093D01*
X8334085Y8859207D01*
X8334367Y8861040D01*
X8334649Y8862873D01*
X8334930Y8864423D01*
X8335353Y8865833D01*
X8335635Y8867102D01*
X8335917Y8868229D01*
X8336058Y8869075D01*
X8336340Y8869780D01*
X8336481Y8870344D01*
X8336622Y8870626D01*
Y8870767D01*
X8337891Y8874150D01*
X8339442Y8877251D01*
X8340992Y8879930D01*
X8342543Y8882185D01*
X8343812Y8884018D01*
X8344939Y8885428D01*
X8345644Y8886274D01*
X8345785Y8886556D01*
X8345926D01*
X8348323Y8888811D01*
X8350719Y8890644D01*
X8353257Y8892194D01*
X8355512Y8893463D01*
X8357486Y8894450D01*
X8359177Y8895155D01*
X8359741Y8895296D01*
X8360164Y8895437D01*
X8360446Y8895578D01*
X8360587D01*
X8363265Y8896282D01*
X8366226Y8896705D01*
X8369327Y8897128D01*
X8372288Y8897269D01*
X8374966Y8897410D01*
X8376094Y8897551D01*
X8415001D01*
Y8800000D01*
D02*
G37*
G36*
X10107487Y8872177D02*
X10111012Y8871613D01*
X10114254Y8870908D01*
X10117073Y8870062D01*
X10118201Y8869498D01*
X10119329Y8869075D01*
X10120316Y8868793D01*
X10121020Y8868370D01*
X10121725Y8868088D01*
X10122148Y8867806D01*
X10122430Y8867666D01*
X10122571D01*
X10125531Y8865692D01*
X10128069Y8863577D01*
X10130324Y8861322D01*
X10132157Y8859207D01*
X10133567Y8857234D01*
X10134694Y8855683D01*
X10135117Y8855119D01*
X10135258Y8854696D01*
X10135540Y8854414D01*
Y8854273D01*
X10137091Y8851031D01*
X10138078Y8847789D01*
X10138924Y8844828D01*
X10139487Y8842150D01*
X10139769Y8839753D01*
X10139910Y8838767D01*
Y8837921D01*
X10140051Y8837357D01*
Y8836793D01*
Y8836511D01*
Y8836370D01*
X10139910Y8832000D01*
X10139346Y8827912D01*
X10138642Y8824388D01*
X10138219Y8822837D01*
X10137796Y8821427D01*
X10137373Y8820159D01*
X10136950Y8819031D01*
X10136527Y8818044D01*
X10136245Y8817198D01*
X10135963Y8816493D01*
X10135681Y8816071D01*
X10135540Y8815789D01*
Y8815648D01*
X10133567Y8812687D01*
X10131452Y8810150D01*
X10129197Y8807894D01*
X10127082Y8806062D01*
X10125109Y8804652D01*
X10123558Y8803665D01*
X10122994Y8803242D01*
X10122571Y8802960D01*
X10122289Y8802819D01*
X10122148D01*
X10118765Y8801410D01*
X10115523Y8800282D01*
X10112421Y8799577D01*
X10109461Y8799013D01*
X10107064Y8798731D01*
X10106078Y8798590D01*
X10105232D01*
X10104527Y8798449D01*
X10103540D01*
X10100580Y8798590D01*
X10097901Y8798872D01*
X10095223Y8799436D01*
X10092826Y8800141D01*
X10090430Y8800846D01*
X10088315Y8801692D01*
X10086342Y8802678D01*
X10084509Y8803665D01*
X10082958Y8804652D01*
X10081549Y8805639D01*
X10080280Y8806485D01*
X10079293Y8807189D01*
X10078447Y8807894D01*
X10077884Y8808458D01*
X10077602Y8808740D01*
X10077461Y8808881D01*
X10075628Y8810996D01*
X10074077Y8813110D01*
X10072668Y8815225D01*
X10071399Y8817480D01*
X10070412Y8819736D01*
X10069566Y8821991D01*
X10068861Y8824106D01*
X10068298Y8826220D01*
X10067875Y8828053D01*
X10067593Y8829886D01*
X10067311Y8831436D01*
X10067170Y8832846D01*
X10067029Y8833974D01*
Y8834820D01*
Y8835383D01*
Y8835524D01*
X10067170Y8838485D01*
X10067452Y8841304D01*
X10068016Y8843842D01*
X10068580Y8846379D01*
X10069425Y8848635D01*
X10070271Y8850890D01*
X10071258Y8852864D01*
X10072104Y8854696D01*
X10073091Y8856247D01*
X10074077Y8857798D01*
X10074923Y8858925D01*
X10075769Y8860053D01*
X10076333Y8860758D01*
X10076897Y8861463D01*
X10077179Y8861745D01*
X10077320Y8861886D01*
X10079293Y8863718D01*
X10081408Y8865269D01*
X10083522Y8866679D01*
X10085778Y8867947D01*
X10088033Y8868934D01*
X10090148Y8869780D01*
X10092263Y8870485D01*
X10094377Y8871049D01*
X10096210Y8871472D01*
X10098042Y8871754D01*
X10099593Y8872036D01*
X10101003Y8872177D01*
X10102130Y8872318D01*
X10103681D01*
X10107487Y8872177D01*
D02*
G37*
G36*
X9327077Y8872036D02*
X9329474Y8871754D01*
X9331729Y8871331D01*
X9333703Y8870908D01*
X9335536Y8870344D01*
X9337227Y8869780D01*
X9338778Y8869216D01*
X9340047Y8868511D01*
X9341174Y8867947D01*
X9342161Y8867384D01*
X9342866Y8866961D01*
X9343571Y8866538D01*
X9343994Y8866256D01*
X9344135Y8866115D01*
X9344276Y8865974D01*
X9345544Y8864846D01*
X9346672Y8863577D01*
X9347659Y8862309D01*
X9348364Y8860899D01*
X9349774Y8858362D01*
X9350619Y8855965D01*
X9351042Y8853850D01*
X9351183Y8852864D01*
X9351324Y8852159D01*
X9351465Y8851454D01*
Y8851031D01*
Y8850749D01*
Y8850608D01*
X9351324Y8848776D01*
X9351042Y8847084D01*
X9350760Y8845392D01*
X9350196Y8843842D01*
X9348787Y8841163D01*
X9347236Y8838908D01*
X9345826Y8837075D01*
X9344417Y8835806D01*
X9343853Y8835242D01*
X9343571Y8834960D01*
X9343289Y8834820D01*
X9343148Y8834679D01*
X9341879Y8833974D01*
X9340188Y8833128D01*
X9338214Y8832282D01*
X9336099Y8831577D01*
X9333844Y8830731D01*
X9331447Y8830027D01*
X9326513Y8828617D01*
X9324117Y8827912D01*
X9321861Y8827348D01*
X9319888Y8826784D01*
X9318055Y8826361D01*
X9316505Y8826079D01*
X9315377Y8825797D01*
X9314672Y8825515D01*
X9314390D01*
X9312698Y8825093D01*
X9311430Y8824670D01*
X9310302Y8824247D01*
X9309456Y8823965D01*
X9308892Y8823542D01*
X9308469Y8823401D01*
X9308187Y8823119D01*
X9307342Y8821991D01*
X9306919Y8820863D01*
X9306778Y8820018D01*
Y8819736D01*
Y8819595D01*
X9306919Y8818467D01*
X9307201Y8817480D01*
X9307623Y8816634D01*
X9308046Y8815930D01*
X9308469Y8815366D01*
X9308892Y8814943D01*
X9309174Y8814661D01*
X9309315Y8814520D01*
X9310866Y8813674D01*
X9312557Y8813110D01*
X9314390Y8812546D01*
X9316082Y8812264D01*
X9317632Y8812123D01*
X9319042Y8811982D01*
X9320170D01*
X9322566Y8812123D01*
X9324540Y8812405D01*
X9326373Y8812828D01*
X9327782Y8813392D01*
X9328910Y8813815D01*
X9329756Y8814238D01*
X9330320Y8814520D01*
X9330461Y8814661D01*
X9331729Y8815789D01*
X9332716Y8817198D01*
X9333562Y8818467D01*
X9334267Y8819877D01*
X9334690Y8821145D01*
X9334972Y8822132D01*
X9335254Y8822696D01*
Y8822978D01*
X9354003Y8820159D01*
X9352734Y8816634D01*
X9351183Y8813392D01*
X9349492Y8810714D01*
X9347659Y8808458D01*
X9345967Y8806626D01*
X9344417Y8805357D01*
X9343994Y8804793D01*
X9343571Y8804511D01*
X9343289Y8804370D01*
X9343148Y8804229D01*
X9341456Y8803242D01*
X9339765Y8802255D01*
X9335958Y8800846D01*
X9332152Y8799859D01*
X9328487Y8799154D01*
X9326795Y8798872D01*
X9325245Y8798731D01*
X9323835Y8798590D01*
X9322566D01*
X9321580Y8798449D01*
X9320170D01*
X9317350Y8798590D01*
X9314672Y8798731D01*
X9312135Y8799154D01*
X9309738Y8799577D01*
X9307623Y8800000D01*
X9305650Y8800705D01*
X9303817Y8801269D01*
X9302267Y8801974D01*
X9300857Y8802537D01*
X9299588Y8803242D01*
X9298601Y8803806D01*
X9297756Y8804229D01*
X9297051Y8804793D01*
X9296628Y8805075D01*
X9296346Y8805216D01*
X9296205Y8805357D01*
X9294795Y8806766D01*
X9293526Y8808176D01*
X9292399Y8809586D01*
X9291412Y8810996D01*
X9290707Y8812405D01*
X9290002Y8813815D01*
X9289015Y8816352D01*
X9288452Y8818749D01*
X9288311Y8819736D01*
X9288170Y8820441D01*
X9288029Y8821145D01*
Y8821709D01*
Y8821991D01*
Y8822132D01*
X9288311Y8825234D01*
X9289015Y8828053D01*
X9289861Y8830449D01*
X9290989Y8832423D01*
X9292117Y8833974D01*
X9292963Y8835101D01*
X9293667Y8835665D01*
X9293949Y8835947D01*
X9295218Y8836793D01*
X9296487Y8837780D01*
X9298038Y8838485D01*
X9299729Y8839331D01*
X9303112Y8840740D01*
X9306637Y8842009D01*
X9309738Y8842996D01*
X9311148Y8843278D01*
X9312416Y8843701D01*
X9313403Y8843983D01*
X9314108Y8844124D01*
X9314672Y8844265D01*
X9314813D01*
X9317491Y8844969D01*
X9319888Y8845533D01*
X9322002Y8846097D01*
X9323835Y8846661D01*
X9325527Y8847084D01*
X9326936Y8847507D01*
X9328064Y8847930D01*
X9329192Y8848212D01*
X9330038Y8848635D01*
X9330743Y8848917D01*
X9331306Y8849057D01*
X9331588Y8849339D01*
X9332152Y8849480D01*
X9332293Y8849621D01*
X9332857Y8850185D01*
X9333280Y8850749D01*
X9333844Y8851877D01*
X9334126Y8852723D01*
Y8852864D01*
Y8853005D01*
X9333985Y8853850D01*
X9333844Y8854555D01*
X9332998Y8855824D01*
X9332293Y8856529D01*
X9332152Y8856811D01*
X9332011D01*
X9330602Y8857516D01*
X9329051Y8858080D01*
X9327359Y8858362D01*
X9325527Y8858643D01*
X9323976Y8858784D01*
X9322707Y8858925D01*
X9321439D01*
X9319324Y8858784D01*
X9317491Y8858643D01*
X9315941Y8858221D01*
X9314672Y8857798D01*
X9313685Y8857375D01*
X9312980Y8857093D01*
X9312557Y8856811D01*
X9312416Y8856670D01*
X9311289Y8855824D01*
X9310443Y8854837D01*
X9309597Y8853850D01*
X9309033Y8852723D01*
X9308610Y8851877D01*
X9308328Y8851172D01*
X9308046Y8850608D01*
Y8850467D01*
X9290425Y8853709D01*
X9291553Y8856952D01*
X9293104Y8859771D01*
X9294654Y8862168D01*
X9296346Y8864000D01*
X9297756Y8865551D01*
X9299024Y8866679D01*
X9299870Y8867243D01*
X9300011Y8867525D01*
X9300152D01*
X9301562Y8868370D01*
X9303112Y8869075D01*
X9306496Y8870344D01*
X9310020Y8871190D01*
X9313544Y8871754D01*
X9315236Y8871895D01*
X9316787Y8872036D01*
X9318196Y8872177D01*
X9319324Y8872318D01*
X9324540D01*
X9327077Y8872036D01*
D02*
G37*
G36*
X9235165Y8872177D02*
X9237561Y8871754D01*
X9239817Y8871190D01*
X9241650Y8870626D01*
X9243200Y8870062D01*
X9244469Y8869498D01*
X9245174Y8869075D01*
X9245456Y8868934D01*
X9247570Y8867666D01*
X9249262Y8866256D01*
X9250954Y8864846D01*
X9252222Y8863436D01*
X9253209Y8862168D01*
X9254055Y8861181D01*
X9254478Y8860617D01*
X9254619Y8860335D01*
Y8870767D01*
X9272099D01*
Y8772934D01*
X9253350D01*
Y8808740D01*
X9251376Y8806766D01*
X9249544Y8805075D01*
X9247993Y8803665D01*
X9246443Y8802678D01*
X9245174Y8801833D01*
X9244328Y8801128D01*
X9243623Y8800846D01*
X9243482Y8800705D01*
X9241650Y8800000D01*
X9239817Y8799436D01*
X9237984Y8799013D01*
X9236293Y8798731D01*
X9234883Y8798590D01*
X9233755Y8798449D01*
X9232768D01*
X9230513Y8798590D01*
X9228398Y8798872D01*
X9226284Y8799295D01*
X9224310Y8800000D01*
X9220786Y8801551D01*
X9219235Y8802396D01*
X9217685Y8803383D01*
X9216416Y8804229D01*
X9215288Y8805075D01*
X9214301Y8805921D01*
X9213456Y8806626D01*
X9212751Y8807330D01*
X9212328Y8807753D01*
X9212046Y8808035D01*
X9211905Y8808176D01*
X9210354Y8810150D01*
X9209085Y8812264D01*
X9207817Y8814379D01*
X9206830Y8816634D01*
X9205984Y8818890D01*
X9205279Y8821145D01*
X9204292Y8825656D01*
X9203870Y8827630D01*
X9203588Y8829604D01*
X9203447Y8831295D01*
X9203306Y8832705D01*
X9203165Y8833974D01*
Y8834960D01*
Y8835524D01*
Y8835665D01*
X9203306Y8838767D01*
X9203588Y8841868D01*
X9204011Y8844546D01*
X9204433Y8847225D01*
X9205138Y8849621D01*
X9205843Y8851877D01*
X9206689Y8853850D01*
X9207394Y8855683D01*
X9208240Y8857234D01*
X9209085Y8858643D01*
X9209790Y8859912D01*
X9210354Y8860758D01*
X9210918Y8861604D01*
X9211341Y8862168D01*
X9211623Y8862450D01*
X9211764Y8862591D01*
X9213456Y8864282D01*
X9215147Y8865833D01*
X9216839Y8867102D01*
X9218671Y8868229D01*
X9220363Y8869216D01*
X9222196Y8869921D01*
X9223746Y8870626D01*
X9225438Y8871049D01*
X9226848Y8871472D01*
X9228257Y8871754D01*
X9229526Y8872036D01*
X9230513Y8872177D01*
X9231500Y8872318D01*
X9232627D01*
X9235165Y8872177D01*
D02*
G37*
%LPC*%
G36*
X9180355Y9728851D02*
X9180022Y9728518D01*
X9180133Y9728407D01*
X9180577Y9728185D01*
X9180689Y9728296D01*
Y9728740D01*
X9180355Y9728851D01*
D02*
G37*
G36*
X9188795Y9715970D02*
X9188684Y9715637D01*
X9188795Y9715526D01*
X9189017Y9715304D01*
X9189128Y9715415D01*
X9189350Y9715859D01*
X9188795Y9715970D01*
D02*
G37*
G36*
X9231657Y9648233D02*
X9231435D01*
X9231102Y9647900D01*
X9230880Y9647456D01*
X9231435Y9646901D01*
X9231769Y9647012D01*
X9231991Y9647900D01*
X9231657Y9648233D01*
D02*
G37*
G36*
X9315607Y9584050D02*
X9315273Y9583717D01*
X9315384Y9583384D01*
X9315940Y9583495D01*
X9315718Y9583939D01*
X9315607Y9584050D01*
D02*
G37*
G36*
X9298728Y9558288D02*
X9298506D01*
X9298395Y9558177D01*
X9298506Y9557621D01*
X9298839Y9557732D01*
X9298728Y9558288D01*
D02*
G37*
G36*
X9385342Y9387947D02*
X9384565Y9387835D01*
X9384343Y9387169D01*
X9384898Y9386614D01*
X9385120D01*
X9385675Y9387613D01*
X9385342Y9387947D01*
D02*
G37*
G36*
X9588552Y9280012D02*
X9588219Y9279679D01*
X9588330Y9279346D01*
X9588885Y9279457D01*
X9588663Y9279901D01*
X9588552Y9280012D01*
D02*
G37*
G36*
X8839007Y9536967D02*
X8838896Y9536856D01*
Y9536412D01*
X8839673Y9536301D01*
X8839784Y9536856D01*
X8839007Y9536967D01*
D02*
G37*
G36*
X9272744Y9510539D02*
X9272411Y9509762D01*
X9272966Y9509206D01*
X9273632Y9509429D01*
X9273965Y9509762D01*
X9273743Y9510206D01*
X9273632Y9510317D01*
X9272744Y9510539D01*
D02*
G37*
G36*
X8865213Y9498546D02*
X8864436Y9498435D01*
X8864769Y9497436D01*
X8865102Y9497547D01*
X8865213Y9497658D01*
X8865324Y9497769D01*
X8865546Y9498213D01*
X8865213Y9498546D01*
D02*
G37*
G36*
X9298506Y9467454D02*
X9298395Y9467121D01*
Y9466899D01*
X9298506Y9466788D01*
X9298617Y9466899D01*
X9298839Y9467343D01*
X9298506Y9467454D01*
D02*
G37*
G36*
X9180577Y9417484D02*
X9180244Y9417373D01*
X9180577Y9417040D01*
X9180689Y9417151D01*
X9180577Y9417484D01*
D02*
G37*
G36*
X9325601Y9178740D02*
X9325045Y9178629D01*
X9325156Y9178296D01*
X9325267Y9178185D01*
X9325379Y9178074D01*
X9325712Y9178407D01*
X9325601Y9178740D01*
D02*
G37*
G36*
X9541470Y9071028D02*
X9541359Y9070694D01*
Y9070472D01*
X9541692Y9070361D01*
X9542025Y9070694D01*
X9541914Y9070806D01*
X9541470Y9071028D01*
D02*
G37*
G36*
X9937759Y8833833D02*
X9937618D01*
Y8830027D01*
Y8827771D01*
X9937759Y8825797D01*
X9937900Y8824247D01*
X9938041Y8822978D01*
X9938182Y8822132D01*
X9938323Y8821427D01*
X9938464Y8821145D01*
Y8821004D01*
X9938887Y8819736D01*
X9939592Y8818467D01*
X9940297Y8817480D01*
X9941002Y8816493D01*
X9941707Y8815789D01*
X9942270Y8815225D01*
X9942693Y8814943D01*
X9942834Y8814802D01*
X9944526Y8813674D01*
X9946359Y8812969D01*
X9947909Y8812405D01*
X9949460Y8811982D01*
X9950729Y8811700D01*
X9951715Y8811559D01*
X9952561D01*
X9954112Y8811700D01*
X9955663Y8811982D01*
X9956931Y8812405D01*
X9957918Y8812969D01*
X9958905Y8813533D01*
X9959469Y8813956D01*
X9959892Y8814238D01*
X9960033Y8814379D01*
X9961019Y8815507D01*
X9961724Y8816634D01*
X9962147Y8817762D01*
X9962429Y8818890D01*
X9962711Y8819736D01*
X9962852Y8820441D01*
Y8821004D01*
Y8821145D01*
X9962711Y8822555D01*
X9962288Y8823824D01*
X9961724Y8824952D01*
X9961019Y8825938D01*
X9960456Y8826643D01*
X9959892Y8827207D01*
X9959469Y8827489D01*
X9959328Y8827630D01*
X9958200Y8828194D01*
X9956790Y8828899D01*
X9955099Y8829463D01*
X9953407Y8829886D01*
X9951715Y8830308D01*
X9950447Y8830590D01*
X9949883Y8830731D01*
X9949460Y8830872D01*
X9949178D01*
X9946359Y8831436D01*
X9944103Y8832000D01*
X9941988Y8832564D01*
X9940438Y8832987D01*
X9939169Y8833410D01*
X9938323Y8833551D01*
X9937759Y8833833D01*
D02*
G37*
G36*
X9589141D02*
X9589000D01*
Y8830027D01*
Y8827771D01*
X9589141Y8825797D01*
X9589282Y8824247D01*
X9589423Y8822978D01*
X9589563Y8822132D01*
X9589704Y8821427D01*
X9589845Y8821145D01*
Y8821004D01*
X9590268Y8819736D01*
X9590973Y8818467D01*
X9591678Y8817480D01*
X9592383Y8816493D01*
X9593088Y8815789D01*
X9593652Y8815225D01*
X9594075Y8814943D01*
X9594216Y8814802D01*
X9595907Y8813674D01*
X9597740Y8812969D01*
X9599290Y8812405D01*
X9600841Y8811982D01*
X9602110Y8811700D01*
X9603097Y8811559D01*
X9603942D01*
X9605493Y8811700D01*
X9607044Y8811982D01*
X9608313Y8812405D01*
X9609299Y8812969D01*
X9610286Y8813533D01*
X9610850Y8813956D01*
X9611273Y8814238D01*
X9611414Y8814379D01*
X9612401Y8815507D01*
X9613105Y8816634D01*
X9613528Y8817762D01*
X9613810Y8818890D01*
X9614092Y8819736D01*
X9614233Y8820441D01*
Y8821004D01*
Y8821145D01*
X9614092Y8822555D01*
X9613669Y8823824D01*
X9613105Y8824952D01*
X9612401Y8825938D01*
X9611837Y8826643D01*
X9611273Y8827207D01*
X9610850Y8827489D01*
X9610709Y8827630D01*
X9609581Y8828194D01*
X9608172Y8828899D01*
X9606480Y8829463D01*
X9604788Y8829886D01*
X9603097Y8830308D01*
X9601828Y8830590D01*
X9601264Y8830731D01*
X9600841Y8830872D01*
X9600559D01*
X9597740Y8831436D01*
X9595484Y8832000D01*
X9593370Y8832564D01*
X9591819Y8832987D01*
X9590550Y8833410D01*
X9589704Y8833551D01*
X9589141Y8833833D01*
D02*
G37*
G36*
X9149455D02*
X9149314D01*
Y8830027D01*
Y8827771D01*
X9149455Y8825797D01*
X9149596Y8824247D01*
X9149737Y8822978D01*
X9149878Y8822132D01*
X9150019Y8821427D01*
X9150160Y8821145D01*
Y8821004D01*
X9150583Y8819736D01*
X9151288Y8818467D01*
X9151993Y8817480D01*
X9152697Y8816493D01*
X9153402Y8815789D01*
X9153966Y8815225D01*
X9154389Y8814943D01*
X9154530Y8814802D01*
X9156222Y8813674D01*
X9158054Y8812969D01*
X9159605Y8812405D01*
X9161156Y8811982D01*
X9162424Y8811700D01*
X9163411Y8811559D01*
X9164257D01*
X9165808Y8811700D01*
X9167358Y8811982D01*
X9168627Y8812405D01*
X9169614Y8812969D01*
X9170601Y8813533D01*
X9171165Y8813956D01*
X9171587Y8814238D01*
X9171728Y8814379D01*
X9172715Y8815507D01*
X9173420Y8816634D01*
X9173843Y8817762D01*
X9174125Y8818890D01*
X9174407Y8819736D01*
X9174548Y8820441D01*
Y8821004D01*
Y8821145D01*
X9174407Y8822555D01*
X9173984Y8823824D01*
X9173420Y8824952D01*
X9172715Y8825938D01*
X9172151Y8826643D01*
X9171587Y8827207D01*
X9171165Y8827489D01*
X9171024Y8827630D01*
X9169896Y8828194D01*
X9168486Y8828899D01*
X9166794Y8829463D01*
X9165103Y8829886D01*
X9163411Y8830308D01*
X9162142Y8830590D01*
X9161579Y8830731D01*
X9161156Y8830872D01*
X9160874D01*
X9158054Y8831436D01*
X9155799Y8832000D01*
X9153684Y8832564D01*
X9152134Y8832987D01*
X9150865Y8833410D01*
X9150019Y8833551D01*
X9149455Y8833833D01*
D02*
G37*
G36*
X9828367Y8857939D02*
X9827380D01*
X9825265Y8857798D01*
X9823433Y8857234D01*
X9821741Y8856529D01*
X9820331Y8855824D01*
X9819204Y8854978D01*
X9818358Y8854273D01*
X9817794Y8853709D01*
X9817653Y8853569D01*
X9816384Y8851877D01*
X9815256Y8849903D01*
X9814552Y8847789D01*
X9813988Y8845815D01*
X9813706Y8844124D01*
X9813565Y8842573D01*
X9813424Y8842009D01*
Y8841727D01*
Y8841445D01*
Y8841304D01*
X9841336D01*
X9841195Y8843983D01*
X9840772Y8846379D01*
X9840208Y8848494D01*
X9839362Y8850185D01*
X9838657Y8851595D01*
X9837953Y8852582D01*
X9837530Y8853287D01*
X9837389Y8853428D01*
X9835838Y8854978D01*
X9834146Y8856106D01*
X9832455Y8856811D01*
X9830904Y8857375D01*
X9829494Y8857657D01*
X9828367Y8857939D01*
D02*
G37*
G36*
X9449298D02*
X9448312D01*
X9446197Y8857798D01*
X9444364Y8857234D01*
X9442673Y8856529D01*
X9441263Y8855824D01*
X9440135Y8854978D01*
X9439289Y8854273D01*
X9438726Y8853709D01*
X9438585Y8853569D01*
X9437316Y8851877D01*
X9436188Y8849903D01*
X9435483Y8847789D01*
X9434919Y8845815D01*
X9434637Y8844124D01*
X9434496Y8842573D01*
X9434356Y8842009D01*
Y8841727D01*
Y8841445D01*
Y8841304D01*
X9462268D01*
X9462127Y8843983D01*
X9461704Y8846379D01*
X9461140Y8848494D01*
X9460294Y8850185D01*
X9459589Y8851595D01*
X9458884Y8852582D01*
X9458461Y8853287D01*
X9458320Y8853428D01*
X9456770Y8854978D01*
X9455078Y8856106D01*
X9453386Y8856811D01*
X9451836Y8857375D01*
X9450426Y8857657D01*
X9449298Y8857939D01*
D02*
G37*
G36*
X9009613D02*
X9008626D01*
X9006512Y8857798D01*
X9004679Y8857234D01*
X9002987Y8856529D01*
X9001578Y8855824D01*
X9000450Y8854978D01*
X8999604Y8854273D01*
X8999040Y8853709D01*
X8998899Y8853569D01*
X8997630Y8851877D01*
X8996503Y8849903D01*
X8995798Y8847789D01*
X8995234Y8845815D01*
X8994952Y8844124D01*
X8994811Y8842573D01*
X8994670Y8842009D01*
Y8841727D01*
Y8841445D01*
Y8841304D01*
X9022582D01*
X9022441Y8843983D01*
X9022018Y8846379D01*
X9021454Y8848494D01*
X9020609Y8850185D01*
X9019904Y8851595D01*
X9019199Y8852582D01*
X9018776Y8853287D01*
X9018635Y8853428D01*
X9017084Y8854978D01*
X9015393Y8856106D01*
X9013701Y8856811D01*
X9012150Y8857375D01*
X9010741Y8857657D01*
X9009613Y8857939D01*
D02*
G37*
G36*
X8902899Y8881058D02*
X8888238D01*
X8886828Y8880917D01*
X8885559D01*
X8884291Y8880776D01*
X8882458D01*
X8881048Y8880635D01*
X8880061Y8880494D01*
X8879498Y8880353D01*
X8879357D01*
X8877665Y8879930D01*
X8876114Y8879366D01*
X8874705Y8878661D01*
X8873577Y8877815D01*
X8872731Y8877111D01*
X8872026Y8876547D01*
X8871603Y8876124D01*
X8871462Y8875983D01*
X8870335Y8874573D01*
X8869630Y8873163D01*
X8869066Y8871613D01*
X8868643Y8870203D01*
X8868361Y8868934D01*
X8868220Y8867947D01*
Y8867384D01*
Y8867102D01*
X8868361Y8865551D01*
X8868502Y8864141D01*
X8868925Y8862873D01*
X8869348Y8861745D01*
X8869771Y8860758D01*
X8870053Y8860053D01*
X8870335Y8859630D01*
X8870476Y8859489D01*
X8871321Y8858362D01*
X8872449Y8857375D01*
X8873436Y8856529D01*
X8874423Y8855824D01*
X8875269Y8855401D01*
X8875973Y8854978D01*
X8876537Y8854837D01*
X8876678Y8854696D01*
X8877524Y8854414D01*
X8878511Y8854273D01*
X8880766Y8853850D01*
X8883304Y8853569D01*
X8885841Y8853428D01*
X8888379D01*
X8889366Y8853287D01*
X8902899D01*
Y8881058D01*
D02*
G37*
G36*
X8395266D02*
X8382437D01*
X8380605Y8880917D01*
X8378913D01*
X8377503Y8880776D01*
X8376235D01*
X8374966Y8880635D01*
X8373979D01*
X8372429Y8880353D01*
X8371301Y8880212D01*
X8370596Y8880071D01*
X8370455D01*
X8368481Y8879507D01*
X8366790Y8878802D01*
X8365239Y8878097D01*
X8363829Y8877251D01*
X8362843Y8876547D01*
X8361997Y8875983D01*
X8361574Y8875560D01*
X8361433Y8875419D01*
X8360164Y8874009D01*
X8359036Y8872459D01*
X8358050Y8870908D01*
X8357204Y8869498D01*
X8356640Y8868088D01*
X8356217Y8866961D01*
X8355935Y8866256D01*
X8355794Y8866115D01*
Y8865974D01*
X8355089Y8863436D01*
X8354525Y8860758D01*
X8354243Y8857798D01*
X8353961Y8854978D01*
X8353820Y8852582D01*
X8353680Y8851454D01*
Y8850467D01*
Y8849762D01*
Y8849198D01*
Y8848776D01*
Y8848635D01*
X8353820Y8844687D01*
X8353961Y8841022D01*
X8354384Y8838062D01*
X8354666Y8835524D01*
X8355089Y8833410D01*
X8355230Y8832564D01*
X8355512Y8832000D01*
X8355653Y8831436D01*
Y8831013D01*
X8355794Y8830872D01*
Y8830731D01*
X8356640Y8828476D01*
X8357345Y8826502D01*
X8358332Y8824952D01*
X8359036Y8823683D01*
X8359741Y8822696D01*
X8360305Y8821991D01*
X8360728Y8821568D01*
X8360869Y8821427D01*
X8362138Y8820441D01*
X8363406Y8819595D01*
X8364675Y8818890D01*
X8365944Y8818326D01*
X8367072Y8817903D01*
X8367917Y8817621D01*
X8368481Y8817339D01*
X8368763D01*
X8370314Y8817057D01*
X8372147Y8816916D01*
X8374120Y8816634D01*
X8376094D01*
X8377926Y8816493D01*
X8395266D01*
Y8881058D01*
D02*
G37*
G36*
X10104245Y8857093D02*
X10103540D01*
X10100862Y8856811D01*
X10098465Y8856247D01*
X10096492Y8855260D01*
X10094659Y8854273D01*
X10093249Y8853287D01*
X10092122Y8852300D01*
X10091558Y8851736D01*
X10091276Y8851454D01*
X10089584Y8849198D01*
X10088315Y8846520D01*
X10087470Y8843842D01*
X10086765Y8841304D01*
X10086483Y8839049D01*
X10086342Y8837921D01*
Y8837075D01*
X10086201Y8836370D01*
Y8835806D01*
Y8835524D01*
Y8835383D01*
X10086483Y8831718D01*
X10087047Y8828335D01*
X10087751Y8825656D01*
X10088738Y8823260D01*
X10089725Y8821568D01*
X10090430Y8820159D01*
X10090994Y8819454D01*
X10091276Y8819172D01*
X10093249Y8817339D01*
X10095223Y8815930D01*
X10097337Y8815084D01*
X10099311Y8814379D01*
X10101003Y8813956D01*
X10102271Y8813815D01*
X10102835Y8813674D01*
X10103540D01*
X10106219Y8813956D01*
X10108615Y8814520D01*
X10110730Y8815366D01*
X10112421Y8816493D01*
X10113972Y8817480D01*
X10115100Y8818326D01*
X10115664Y8818890D01*
X10115945Y8819172D01*
X10117637Y8821427D01*
X10118765Y8824106D01*
X10119611Y8826784D01*
X10120316Y8829463D01*
X10120597Y8831718D01*
X10120738Y8832705D01*
Y8833692D01*
X10120879Y8834397D01*
Y8834960D01*
Y8835242D01*
Y8835383D01*
X10120597Y8839049D01*
X10120034Y8842291D01*
X10119329Y8845110D01*
X10118342Y8847366D01*
X10117496Y8849057D01*
X10116650Y8850467D01*
X10116086Y8851172D01*
X10115945Y8851454D01*
X10113972Y8853287D01*
X10111857Y8854696D01*
X10109743Y8855683D01*
X10107769Y8856388D01*
X10106078Y8856811D01*
X10104809Y8856952D01*
X10104245Y8857093D01*
D02*
G37*
G36*
X9238125Y8857516D02*
X9237843D01*
X9235447Y8857234D01*
X9233332Y8856670D01*
X9231500Y8855824D01*
X9229949Y8854837D01*
X9228680Y8853709D01*
X9227694Y8852864D01*
X9226989Y8852300D01*
X9226848Y8852018D01*
X9225297Y8849762D01*
X9224169Y8847225D01*
X9223464Y8844405D01*
X9222901Y8841727D01*
X9222619Y8839331D01*
X9222478Y8838344D01*
X9222337Y8837357D01*
Y8836652D01*
Y8836088D01*
Y8835665D01*
Y8835524D01*
Y8833410D01*
X9222478Y8831436D01*
X9222760Y8829604D01*
X9223041Y8827912D01*
X9223323Y8826361D01*
X9223746Y8824952D01*
X9224169Y8823683D01*
X9224451Y8822555D01*
X9225297Y8820723D01*
X9226002Y8819454D01*
X9226566Y8818749D01*
X9226707Y8818467D01*
X9228398Y8816775D01*
X9230231Y8815507D01*
X9232064Y8814520D01*
X9233755Y8813956D01*
X9235306Y8813533D01*
X9236434Y8813392D01*
X9237279Y8813251D01*
X9237561D01*
X9239958Y8813533D01*
X9242213Y8814097D01*
X9244187Y8815084D01*
X9245738Y8816071D01*
X9247147Y8817057D01*
X9248134Y8818044D01*
X9248698Y8818608D01*
X9248980Y8818890D01*
X9249826Y8820018D01*
X9250531Y8821286D01*
X9251658Y8823965D01*
X9252504Y8826925D01*
X9253068Y8829886D01*
X9253350Y8832423D01*
X9253491Y8833551D01*
Y8834538D01*
X9253632Y8835383D01*
Y8835947D01*
Y8836370D01*
Y8836511D01*
X9253491Y8840176D01*
X9252927Y8843278D01*
X9252222Y8845956D01*
X9251376Y8848212D01*
X9250672Y8849903D01*
X9249967Y8851172D01*
X9249403Y8851877D01*
X9249262Y8852159D01*
X9247429Y8853991D01*
X9245597Y8855260D01*
X9243623Y8856247D01*
X9241791Y8856811D01*
X9240240Y8857234D01*
X9238971Y8857375D01*
X9238125Y8857516D01*
D02*
G37*
%LPD*%
D41*
X10328897Y8709191D02*
X10379680D01*
Y8633016D01*
X10328897D01*
X10379680Y8671104D02*
X10354288D01*
X10252721Y8696495D02*
X10265417Y8709191D01*
X10290809D01*
X10303505Y8696495D01*
Y8683799D01*
X10290809Y8671104D01*
X10265417D01*
X10252721Y8658408D01*
Y8645712D01*
X10265417Y8633016D01*
X10290809D01*
X10303505Y8645712D01*
X10176546Y8696495D02*
X10189241Y8709191D01*
X10214633D01*
X10227329Y8696495D01*
Y8645712D01*
X10214633Y8633016D01*
X10189241D01*
X10176546Y8645712D01*
X10151154Y8620320D02*
X10100370D01*
X10074979Y8709191D02*
Y8633016D01*
X10036891D01*
X10024195Y8645712D01*
Y8696495D01*
X10036891Y8709191D01*
X10074979D01*
X9998803Y8633016D02*
Y8709191D01*
X9960715D01*
X9948020Y8696495D01*
Y8671104D01*
X9960715Y8658408D01*
X9998803D01*
X9973411D02*
X9948020Y8633016D01*
X9922628Y8709191D02*
Y8658408D01*
X9897236Y8633016D01*
X9871844Y8658408D01*
Y8709191D01*
X9846452Y8620320D02*
X9795669D01*
X9770277Y8633016D02*
X9744885D01*
X9757581D01*
Y8709191D01*
X9770277Y8696495D01*
X9706798Y8633016D02*
Y8645712D01*
X9694102D01*
Y8633016D01*
X9706798D01*
X9643318Y8696495D02*
X9630622Y8709191D01*
X9605230D01*
X9592535Y8696495D01*
Y8645712D01*
X9605230Y8633016D01*
X9630622D01*
X9643318Y8645712D01*
Y8696495D01*
X9567143Y8633016D02*
Y8645712D01*
X9554447D01*
Y8633016D01*
X9567143D01*
X9503663Y8696495D02*
X9490968Y8709191D01*
X9465576D01*
X9452880Y8696495D01*
Y8645712D01*
X9465576Y8633016D01*
X9490968D01*
X9503663Y8645712D01*
Y8696495D01*
%TF.MD5,38328babc6e9b01958ff463f5064e013*%
M02*
