%TF.GenerationSoftware,Altium Limited,Altium Designer,20.2.3 (150)*%
G04 Layer_Color=0*
%FSLAX26Y26*%
%MOIN*%
%TF.SameCoordinates,27716F98-0B22-40FE-96F5-AA6DB086EB47*%
%TF.FilePolarity,Positive*%
%TF.FileFunction,Plated,1,6,PTH,Drill*%
%TF.Part,Single*%
G01*
G75*
%TA.AperFunction,ViaDrill,NotFilled*%
%ADD71C,0.011811*%
%ADD72C,0.010000*%
%ADD73C,0.078740*%
D71*
X2602000Y1484992D02*
D03*
X2240000Y1646000D02*
D03*
X2216000D02*
D03*
X2301000Y2023000D02*
D03*
X2275000Y2023508D02*
D03*
X2847779Y1856483D02*
D03*
X2178000Y1383000D02*
D03*
X2206000D02*
D03*
X2236000Y1384000D02*
D03*
X2264000D02*
D03*
X2293000Y1383000D02*
D03*
X2349000D02*
D03*
X2400000Y1384000D02*
D03*
X2426000D02*
D03*
X2455000Y1383000D02*
D03*
X2486000D02*
D03*
X2513000D02*
D03*
X2571000D02*
D03*
X2655000Y1384000D02*
D03*
X2740000D02*
D03*
X2796000D02*
D03*
X2827000D02*
D03*
X2854000D02*
D03*
X2884000Y1383000D02*
D03*
X2910000D02*
D03*
X2940000Y1382000D02*
D03*
X2320779Y1382108D02*
D03*
X2374070Y1383249D02*
D03*
X2627501Y1383851D02*
D03*
X2597974Y1383236D02*
D03*
X2542611Y1382620D02*
D03*
X2766643Y1383443D02*
D03*
X2713267Y1383425D02*
D03*
X2683034Y1383840D02*
D03*
X2678034Y2131840D02*
D03*
X2708267Y2131425D02*
D03*
X2761643Y2131443D02*
D03*
X2537611Y2130620D02*
D03*
X2592974Y2131236D02*
D03*
X2622501Y2131851D02*
D03*
X2369070Y2131249D02*
D03*
X2315779Y2130108D02*
D03*
X2935000Y2130000D02*
D03*
X2905000Y2131000D02*
D03*
X2879000D02*
D03*
X2849000Y2132000D02*
D03*
X2822000D02*
D03*
X2791000D02*
D03*
X2735000D02*
D03*
X2650000D02*
D03*
X2566000Y2131000D02*
D03*
X2508000D02*
D03*
X2481000D02*
D03*
X2450000D02*
D03*
X2421000Y2132000D02*
D03*
X2395000D02*
D03*
X2344000Y2131000D02*
D03*
X2288000D02*
D03*
X2259000Y2132000D02*
D03*
X2231000D02*
D03*
X2201000Y2131000D02*
D03*
X2173000D02*
D03*
X2904312Y1461599D02*
D03*
X2877649Y1462160D02*
D03*
X2905995Y1489103D02*
D03*
X2878211Y1489664D02*
D03*
X2906276Y1515765D02*
D03*
X2878772Y1516326D02*
D03*
X2901555Y1688395D02*
D03*
X2874709D02*
D03*
X2901001Y1716347D02*
D03*
X2874986Y1714963D02*
D03*
X2903547Y1742786D02*
D03*
X2875636D02*
D03*
X2903180Y1769963D02*
D03*
X2875636Y1771432D02*
D03*
X2903547Y1798976D02*
D03*
X2876370Y1799343D02*
D03*
X2903011Y1883677D02*
D03*
X2875090Y1884771D02*
D03*
X2904379Y1910776D02*
D03*
X2876185Y1915155D02*
D03*
X2902190Y1940612D02*
D03*
X2875364Y1941981D02*
D03*
X2901010Y1996258D02*
D03*
X2874679Y1994713D02*
D03*
X2902282Y1586805D02*
D03*
X2875413D02*
D03*
X1993000Y1740000D02*
D03*
X1944000D02*
D03*
X1994000Y1819000D02*
D03*
X1946000D02*
D03*
X2438000Y1755000D02*
D03*
X2411000Y1754000D02*
D03*
X2438000Y1783000D02*
D03*
X2409000D02*
D03*
X2060000Y2018000D02*
D03*
X1982000Y2020000D02*
D03*
X2072000Y2092000D02*
D03*
X2088000Y2072000D02*
D03*
Y2048000D02*
D03*
Y2024000D02*
D03*
X2080000Y2002000D02*
D03*
X2058000Y1994000D02*
D03*
X2034000D02*
D03*
X2010000D02*
D03*
X1986000D02*
D03*
X1964000Y2002000D02*
D03*
X1956000Y2026000D02*
D03*
Y2050000D02*
D03*
Y2074000D02*
D03*
X1980000Y2102000D02*
D03*
X1956000Y2098000D02*
D03*
X2082000Y2116000D02*
D03*
X2060000Y2126000D02*
D03*
X2036000D02*
D03*
X2012000D02*
D03*
X1990000D02*
D03*
X1966000Y2120000D02*
D03*
X2076000Y1482000D02*
D03*
X2046000D02*
D03*
X2060000Y1460000D02*
D03*
X2064000Y1436000D02*
D03*
X2046000Y1400000D02*
D03*
X2076000Y1412000D02*
D03*
X2072000Y1388000D02*
D03*
X2050000Y1374000D02*
D03*
X2026000D02*
D03*
X2002000D02*
D03*
X1978000Y1378000D02*
D03*
X1954000Y1382000D02*
D03*
X1946000Y1406000D02*
D03*
Y1430000D02*
D03*
Y1456000D02*
D03*
X1948000Y1482000D02*
D03*
X2062000Y1504000D02*
D03*
X2036000Y1506000D02*
D03*
X2012000D02*
D03*
X1988000D02*
D03*
X1962000Y1502000D02*
D03*
X2908000Y2022000D02*
D03*
X2884000Y2020000D02*
D03*
X2858000Y2016000D02*
D03*
X2848000Y1990000D02*
D03*
Y1910000D02*
D03*
Y1886000D02*
D03*
Y1714000D02*
D03*
Y1688000D02*
D03*
Y1588000D02*
D03*
X2852000Y1516000D02*
D03*
Y1490000D02*
D03*
Y1464000D02*
D03*
X3440000Y1474000D02*
D03*
X3414000D02*
D03*
X3390000D02*
D03*
X3366000D02*
D03*
X3342000D02*
D03*
X3438000Y1500000D02*
D03*
X3414000D02*
D03*
X3390000D02*
D03*
X3366000D02*
D03*
X3342000D02*
D03*
X3438000Y1526000D02*
D03*
X3414000D02*
D03*
X3390000D02*
D03*
X3366000D02*
D03*
X3342000D02*
D03*
X3438000Y1550000D02*
D03*
X3414000Y1552000D02*
D03*
X3390000D02*
D03*
X3366000D02*
D03*
X3342000D02*
D03*
X3442000Y1602000D02*
D03*
X3418000D02*
D03*
X3394000D02*
D03*
X3438000Y1578000D02*
D03*
X3414000D02*
D03*
X3390000D02*
D03*
X3366000D02*
D03*
X3342000D02*
D03*
X3316000Y1504000D02*
D03*
Y1554000D02*
D03*
X3442000Y1698000D02*
D03*
X3416000D02*
D03*
X3392000D02*
D03*
X3368000D02*
D03*
X3342000D02*
D03*
X3442000Y1722000D02*
D03*
X3416000D02*
D03*
X3392000D02*
D03*
X3368000D02*
D03*
X3342000D02*
D03*
X3440000Y1746000D02*
D03*
X3416000D02*
D03*
X3390000D02*
D03*
X3366000D02*
D03*
X3342000D02*
D03*
X3440000Y1772000D02*
D03*
X3416000D02*
D03*
X3390000D02*
D03*
X3366000D02*
D03*
X3342000D02*
D03*
X3446000Y1822000D02*
D03*
X3422000D02*
D03*
X3398000D02*
D03*
X3438000Y1798000D02*
D03*
X3414000D02*
D03*
X3390000D02*
D03*
X3366000D02*
D03*
X3342000D02*
D03*
X3316000Y1724000D02*
D03*
Y1774000D02*
D03*
X3446000Y1918000D02*
D03*
X3420000D02*
D03*
X3394000D02*
D03*
X3370000D02*
D03*
X3344000D02*
D03*
X3446000Y1944000D02*
D03*
X3420000D02*
D03*
X3394000D02*
D03*
X3370000D02*
D03*
X3344000D02*
D03*
X3446000Y1970000D02*
D03*
X3420000D02*
D03*
X3394000D02*
D03*
X3370000D02*
D03*
X3344000D02*
D03*
X3446000Y1994000D02*
D03*
X3420000D02*
D03*
X3394000D02*
D03*
X3370000D02*
D03*
X3344000D02*
D03*
X3316000Y1944000D02*
D03*
Y1994000D02*
D03*
X3446000Y2018000D02*
D03*
X3420000D02*
D03*
X3448000Y2048000D02*
D03*
X3424000D02*
D03*
X3400000D02*
D03*
X3376000D02*
D03*
X3394000Y2018000D02*
D03*
X3370000D02*
D03*
X3344000D02*
D03*
X3316142Y1969000D02*
D03*
X2512000Y1540000D02*
D03*
X3316142Y1479000D02*
D03*
Y1529000D02*
D03*
Y1579000D02*
D03*
Y1699000D02*
D03*
Y1749000D02*
D03*
Y1799000D02*
D03*
Y1919000D02*
D03*
Y2019000D02*
D03*
X3230000Y1414000D02*
D03*
X3206000D02*
D03*
X3182000D02*
D03*
X3158000D02*
D03*
X3134000D02*
D03*
X3108000D02*
D03*
X3084000D02*
D03*
X3058000D02*
D03*
X3032000D02*
D03*
X3006000D02*
D03*
X2980000D02*
D03*
X3236000Y1438000D02*
D03*
X3208000D02*
D03*
X3182000D02*
D03*
X3156000D02*
D03*
X3130000D02*
D03*
X3104000D02*
D03*
X3078000D02*
D03*
X3052000D02*
D03*
X3026000D02*
D03*
X3000000D02*
D03*
X2974000D02*
D03*
Y2140000D02*
D03*
X3000000D02*
D03*
X3026000D02*
D03*
X3052000D02*
D03*
X3078000D02*
D03*
X3104000D02*
D03*
X3130000D02*
D03*
X3156000D02*
D03*
X3182000D02*
D03*
X3208000D02*
D03*
X3234000D02*
D03*
Y2114000D02*
D03*
X3208000D02*
D03*
X3182000D02*
D03*
X3156000D02*
D03*
X3130000D02*
D03*
X3104000D02*
D03*
X3078000D02*
D03*
X3052000D02*
D03*
X3026000D02*
D03*
X3000000D02*
D03*
X2974000D02*
D03*
D72*
X2299103Y1965734D02*
D03*
X2190000Y2070000D02*
D03*
X2499218Y2051218D02*
D03*
X2794441Y1710682D02*
D03*
X2799735Y1678877D02*
D03*
X2811627Y1814815D02*
D03*
X2756443Y1581623D02*
D03*
X2760000Y2060000D02*
D03*
X2129915Y1789305D02*
D03*
X1969864Y1818942D02*
D03*
X2447000Y1836000D02*
D03*
X1968000Y1741000D02*
D03*
X2190000Y1517000D02*
D03*
X2510603Y1925000D02*
D03*
X2242529Y1546761D02*
D03*
X2376000Y1950000D02*
D03*
X2156000Y1952000D02*
D03*
X2808000Y1974000D02*
D03*
X3363526Y1629549D02*
D03*
X3366000Y1850000D02*
D03*
X3308268Y2117732D02*
D03*
X2684000Y1482000D02*
D03*
X2239000Y1756000D02*
D03*
X2685971Y1669473D02*
D03*
X2685065Y1757306D02*
D03*
X2684000Y1846000D02*
D03*
D73*
X2022386Y2061758D02*
D03*
X2006000Y1442000D02*
D03*
%TF.MD5,d9eb1e80b4187801f020ef31dcaeba5c*%
M02*
