%TF.GenerationSoftware,Altium Limited,Altium Designer,20.2.3 (150)*%
G04 Layer_Color=255*
%FSLAX26Y26*%
%MOIN*%
%TF.SameCoordinates,27716F98-0B22-40FE-96F5-AA6DB086EB47*%
%TF.FilePolarity,Positive*%
%TF.FileFunction,Pads,Bot*%
%TF.Part,Single*%
G01*
G75*
%TA.AperFunction,SMDPad,CuDef*%
%ADD23R,0.057087X0.033465*%
%ADD24R,0.041339X0.033465*%
%ADD25R,0.147638X0.185039*%
%ADD40R,0.021260X0.023622*%
D23*
X3091732Y1919000D02*
D03*
Y1969000D02*
D03*
Y2019000D02*
D03*
Y2069000D02*
D03*
Y1699000D02*
D03*
Y1749000D02*
D03*
Y1799000D02*
D03*
Y1849000D02*
D03*
Y1479000D02*
D03*
Y1529000D02*
D03*
Y1579000D02*
D03*
Y1629000D02*
D03*
D24*
X3316142Y2069000D02*
D03*
Y2019000D02*
D03*
Y1969000D02*
D03*
Y1919000D02*
D03*
Y1849000D02*
D03*
Y1799000D02*
D03*
Y1749000D02*
D03*
Y1699000D02*
D03*
Y1629000D02*
D03*
Y1579000D02*
D03*
Y1529000D02*
D03*
Y1479000D02*
D03*
D25*
X3221653Y1994000D02*
D03*
Y1774000D02*
D03*
Y1554000D02*
D03*
D40*
X2276766Y1755842D02*
D03*
X2310782D02*
D03*
%TF.MD5,a49bde4d1a53b9fb6b29736281be7c18*%
M02*
