%TF.GenerationSoftware,Altium Limited,Altium Designer,20.2.3 (150)*%
G04 Layer_Physical_Order=3*
G04 Layer_Color=16440176*
%FSLAX26Y26*%
%MOIN*%
%TF.SameCoordinates,27716F98-0B22-40FE-96F5-AA6DB086EB47*%
%TF.FilePolarity,Positive*%
%TF.FileFunction,Copper,L3,Inr,Signal*%
%TF.Part,Single*%
G01*
G75*
%TA.AperFunction,Conductor*%
%ADD11C,0.010000*%
%ADD13C,0.012000*%
%TA.AperFunction,ViaPad*%
%ADD37C,0.023622*%
%ADD38C,0.022000*%
%ADD39C,0.090551*%
D11*
X2235319Y2048319D02*
G03*
X2106000Y1919000I0J-129319D01*
G01*
X2412000Y1977000D02*
G03*
X2340681Y2048319I-71319J0D01*
G01*
X2452000Y2050000D02*
G03*
X2416017Y2085983I-35983J0D01*
G01*
X2412000Y1977000D02*
G03*
X2464000Y1925000I52000J0D01*
G01*
X2006000Y1819000D02*
G03*
X2106000Y1919000I0J100000D01*
G01*
X2821000Y1759000D02*
G03*
X2794441Y1732441I0J-26559D01*
G01*
X2907608Y1850000D02*
G03*
X2844976Y1787426I0J-62632D01*
G01*
X2821000Y1759000D02*
G03*
X2844976Y1782976I0J23976D01*
G01*
X2722000Y1701354D02*
G03*
X2771175Y1652179I49175J0D01*
G01*
X3060180D02*
G03*
X3140000Y1732000I0J79820D01*
G01*
X2795820Y1621000D02*
G03*
X2756443Y1581623I0J-39377D01*
G01*
X2447000Y1836000D02*
G03*
X2444000Y1833000I0J-3000D01*
G01*
X2190000Y1641000D02*
G03*
X2090000Y1741000I-100000J0D01*
G01*
X2869000Y1969000D02*
G03*
X2850000Y1950000I0J-19000D01*
G01*
X2832000Y1932000D02*
G03*
X2850000Y1950000I0J18000D01*
G01*
X2812000Y1932000D02*
G03*
X2792000Y1912000I0J-20000D01*
G01*
X2750000Y1846000D02*
G03*
X2792000Y1888000I0J42000D01*
G01*
X2684000Y1846000D02*
G03*
X2686000Y1848000I0J2000D01*
G01*
X2452000Y2046392D02*
G03*
X2510392Y1988000I58392J0D01*
G01*
X2626000Y1816371D02*
G03*
X2685065Y1757306I59065J0D01*
G01*
X2626000Y1964000D02*
G03*
X2602000Y1988000I-24000J0D01*
G01*
X2686000D02*
G03*
X2622782Y2051218I-63218J0D01*
G01*
X3207000Y1799000D02*
G03*
X3140000Y1732000I0J-67000D01*
G01*
X2722000Y1742000D02*
G03*
X2706694Y1757306I-15306J0D01*
G01*
X2886000Y2052000D02*
G03*
X2808000Y1974000I0J-78000D01*
G01*
X3305732Y2117732D02*
G03*
X3266000Y2078000I0J-39732D01*
G01*
X3240000Y2052000D02*
G03*
X3266000Y2078000I0J26000D01*
G01*
X2235319Y2048319D02*
X2340681D01*
X2201575Y2085983D02*
X2416017D01*
X2190222Y2074629D02*
X2201575Y2085983D01*
X2190000Y2070000D02*
Y2074407D01*
X2190222Y2074629D01*
X2684000Y1846000D02*
X2750000D01*
X2499218Y2051218D02*
X2622782D01*
X2464000Y1925000D02*
X2510603D01*
X1994000Y1819000D02*
X2006000D01*
X2794441Y1710682D02*
Y1732441D01*
X2844976Y1782976D02*
Y1787426D01*
X2771175Y1652179D02*
X3060180D01*
X2722000Y1701354D02*
Y1742000D01*
X3360279Y1629549D02*
X3363526D01*
X3351730Y1621000D02*
X3360279Y1629549D01*
X2795820Y1621000D02*
X3351730D01*
X2907608Y1850000D02*
X3366000D01*
X1968000Y1741000D02*
X2090000D01*
X2190000Y1517000D02*
Y1641000D01*
X2812000Y1932000D02*
X2832000D01*
X2792000Y1888000D02*
Y1912000D01*
X2686000Y1848000D02*
Y1988000D01*
X2869000Y1969000D02*
X3316142D01*
X2510456Y1988000D02*
X2602000D01*
X2510392Y1988000D02*
X2510456Y1988000D01*
X2452000Y2046392D02*
Y2050000D01*
X2684000Y1667503D02*
X2685971Y1669473D01*
X2684000Y1482000D02*
Y1667503D01*
X2684985Y1556000D02*
X3300325D01*
X3313535Y1531606D02*
X3316142Y1529000D01*
X3300325Y1556000D02*
X3313535Y1542790D01*
Y1531606D02*
Y1542790D01*
X2685065Y1757306D02*
X2706694D01*
X2626000Y1816371D02*
Y1964000D01*
X3207000Y1799000D02*
X3316142D01*
X2886000Y2052000D02*
X3240000D01*
X3305732Y2117732D02*
X3308268D01*
D13*
X2232000Y1952000D02*
G03*
X2261000Y1981000I0J29000D01*
G01*
X2376000Y1958668D02*
G03*
X2339207Y1996043I-37380J0D01*
G01*
X2276043D02*
G03*
X2261000Y1981000I0J-15043D01*
G01*
X2339204Y1996043D02*
G03*
X2338620Y1996048I-583J-37375D01*
G01*
X2376000Y1640000D02*
G03*
X2476000Y1540000I100000J0D01*
G01*
X2267283Y1571516D02*
G03*
X2298662Y1647211I-75611J75696D01*
G01*
X2156000Y1952000D02*
X2232000D01*
X2339204Y1996043D02*
X2339207D01*
X2276043D02*
X2339204D01*
X2299103Y1647652D02*
Y1965734D01*
X2298662Y1647211D02*
X2299103Y1647652D01*
X2376000Y1950000D02*
Y1958668D01*
Y1640000D02*
Y1950000D01*
X2476000Y1540000D02*
X2512000D01*
X2242529Y1546761D02*
X2267283Y1571516D01*
D37*
X2602000Y1484992D02*
D03*
X2240000Y1646000D02*
D03*
X2216000D02*
D03*
X2301000Y2023000D02*
D03*
X2275000Y2023508D02*
D03*
X2847779Y1856483D02*
D03*
X2178000Y1383000D02*
D03*
X2206000D02*
D03*
X2236000Y1384000D02*
D03*
X2264000D02*
D03*
X2293000Y1383000D02*
D03*
X2349000D02*
D03*
X2400000Y1384000D02*
D03*
X2426000D02*
D03*
X2455000Y1383000D02*
D03*
X2486000D02*
D03*
X2513000D02*
D03*
X2571000D02*
D03*
X2655000Y1384000D02*
D03*
X2740000D02*
D03*
X2796000D02*
D03*
X2827000D02*
D03*
X2854000D02*
D03*
X2884000Y1383000D02*
D03*
X2910000D02*
D03*
X2940000Y1382000D02*
D03*
X2320779Y1382108D02*
D03*
X2374070Y1383249D02*
D03*
X2627501Y1383851D02*
D03*
X2597974Y1383236D02*
D03*
X2542611Y1382620D02*
D03*
X2766643Y1383443D02*
D03*
X2713267Y1383425D02*
D03*
X2683034Y1383840D02*
D03*
X2678034Y2131840D02*
D03*
X2708267Y2131425D02*
D03*
X2761643Y2131443D02*
D03*
X2537611Y2130620D02*
D03*
X2592974Y2131236D02*
D03*
X2622501Y2131851D02*
D03*
X2369070Y2131249D02*
D03*
X2315779Y2130108D02*
D03*
X2935000Y2130000D02*
D03*
X2905000Y2131000D02*
D03*
X2879000D02*
D03*
X2849000Y2132000D02*
D03*
X2822000D02*
D03*
X2791000D02*
D03*
X2735000D02*
D03*
X2650000D02*
D03*
X2566000Y2131000D02*
D03*
X2508000D02*
D03*
X2481000D02*
D03*
X2450000D02*
D03*
X2421000Y2132000D02*
D03*
X2395000D02*
D03*
X2344000Y2131000D02*
D03*
X2288000D02*
D03*
X2259000Y2132000D02*
D03*
X2231000D02*
D03*
X2201000Y2131000D02*
D03*
X2173000D02*
D03*
X2904312Y1461599D02*
D03*
X2877649Y1462160D02*
D03*
X2905995Y1489103D02*
D03*
X2878211Y1489664D02*
D03*
X2906276Y1515765D02*
D03*
X2878772Y1516326D02*
D03*
X2901555Y1688395D02*
D03*
X2874709D02*
D03*
X2901001Y1716347D02*
D03*
X2874986Y1714963D02*
D03*
X2903547Y1742786D02*
D03*
X2875636D02*
D03*
X2903180Y1769963D02*
D03*
X2875636Y1771432D02*
D03*
X2903547Y1798976D02*
D03*
X2876370Y1799343D02*
D03*
X2903011Y1883677D02*
D03*
X2875090Y1884771D02*
D03*
X2904379Y1910776D02*
D03*
X2876185Y1915155D02*
D03*
X2902190Y1940612D02*
D03*
X2875364Y1941981D02*
D03*
X2901010Y1996258D02*
D03*
X2874679Y1994713D02*
D03*
X2902282Y1586805D02*
D03*
X2875413D02*
D03*
X1993000Y1740000D02*
D03*
X1944000D02*
D03*
X1994000Y1819000D02*
D03*
X1946000D02*
D03*
X2438000Y1755000D02*
D03*
X2411000Y1754000D02*
D03*
X2438000Y1783000D02*
D03*
X2409000D02*
D03*
X2060000Y2018000D02*
D03*
X1982000Y2020000D02*
D03*
X2072000Y2092000D02*
D03*
X2088000Y2072000D02*
D03*
Y2048000D02*
D03*
Y2024000D02*
D03*
X2080000Y2002000D02*
D03*
X2058000Y1994000D02*
D03*
X2034000D02*
D03*
X2010000D02*
D03*
X1986000D02*
D03*
X1964000Y2002000D02*
D03*
X1956000Y2026000D02*
D03*
Y2050000D02*
D03*
Y2074000D02*
D03*
X1980000Y2102000D02*
D03*
X1956000Y2098000D02*
D03*
X2082000Y2116000D02*
D03*
X2060000Y2126000D02*
D03*
X2036000D02*
D03*
X2012000D02*
D03*
X1990000D02*
D03*
X1966000Y2120000D02*
D03*
X2076000Y1482000D02*
D03*
X2046000D02*
D03*
X2060000Y1460000D02*
D03*
X2064000Y1436000D02*
D03*
X2046000Y1400000D02*
D03*
X2076000Y1412000D02*
D03*
X2072000Y1388000D02*
D03*
X2050000Y1374000D02*
D03*
X2026000D02*
D03*
X2002000D02*
D03*
X1978000Y1378000D02*
D03*
X1954000Y1382000D02*
D03*
X1946000Y1406000D02*
D03*
Y1430000D02*
D03*
Y1456000D02*
D03*
X1948000Y1482000D02*
D03*
X2062000Y1504000D02*
D03*
X2036000Y1506000D02*
D03*
X2012000D02*
D03*
X1988000D02*
D03*
X1962000Y1502000D02*
D03*
X2908000Y2022000D02*
D03*
X2884000Y2020000D02*
D03*
X2858000Y2016000D02*
D03*
X2848000Y1990000D02*
D03*
Y1910000D02*
D03*
Y1886000D02*
D03*
Y1714000D02*
D03*
Y1688000D02*
D03*
Y1588000D02*
D03*
X2852000Y1516000D02*
D03*
Y1490000D02*
D03*
Y1464000D02*
D03*
X3440000Y1474000D02*
D03*
X3414000D02*
D03*
X3390000D02*
D03*
X3366000D02*
D03*
X3342000D02*
D03*
X3438000Y1500000D02*
D03*
X3414000D02*
D03*
X3390000D02*
D03*
X3366000D02*
D03*
X3342000D02*
D03*
X3438000Y1526000D02*
D03*
X3414000D02*
D03*
X3390000D02*
D03*
X3366000D02*
D03*
X3342000D02*
D03*
X3438000Y1550000D02*
D03*
X3414000Y1552000D02*
D03*
X3390000D02*
D03*
X3366000D02*
D03*
X3342000D02*
D03*
X3442000Y1602000D02*
D03*
X3418000D02*
D03*
X3394000D02*
D03*
X3438000Y1578000D02*
D03*
X3414000D02*
D03*
X3390000D02*
D03*
X3366000D02*
D03*
X3342000D02*
D03*
X3316000Y1504000D02*
D03*
Y1554000D02*
D03*
X3442000Y1698000D02*
D03*
X3416000D02*
D03*
X3392000D02*
D03*
X3368000D02*
D03*
X3342000D02*
D03*
X3442000Y1722000D02*
D03*
X3416000D02*
D03*
X3392000D02*
D03*
X3368000D02*
D03*
X3342000D02*
D03*
X3440000Y1746000D02*
D03*
X3416000D02*
D03*
X3390000D02*
D03*
X3366000D02*
D03*
X3342000D02*
D03*
X3440000Y1772000D02*
D03*
X3416000D02*
D03*
X3390000D02*
D03*
X3366000D02*
D03*
X3342000D02*
D03*
X3446000Y1822000D02*
D03*
X3422000D02*
D03*
X3398000D02*
D03*
X3438000Y1798000D02*
D03*
X3414000D02*
D03*
X3390000D02*
D03*
X3366000D02*
D03*
X3342000D02*
D03*
X3316000Y1724000D02*
D03*
Y1774000D02*
D03*
X3446000Y1918000D02*
D03*
X3420000D02*
D03*
X3394000D02*
D03*
X3370000D02*
D03*
X3344000D02*
D03*
X3446000Y1944000D02*
D03*
X3420000D02*
D03*
X3394000D02*
D03*
X3370000D02*
D03*
X3344000D02*
D03*
X3446000Y1970000D02*
D03*
X3420000D02*
D03*
X3394000D02*
D03*
X3370000D02*
D03*
X3344000D02*
D03*
X3446000Y1994000D02*
D03*
X3420000D02*
D03*
X3394000D02*
D03*
X3370000D02*
D03*
X3344000D02*
D03*
X3316000Y1944000D02*
D03*
Y1994000D02*
D03*
X3446000Y2018000D02*
D03*
X3420000D02*
D03*
X3448000Y2048000D02*
D03*
X3424000D02*
D03*
X3400000D02*
D03*
X3376000D02*
D03*
X3394000Y2018000D02*
D03*
X3370000D02*
D03*
X3344000D02*
D03*
X3316142Y1969000D02*
D03*
X2512000Y1540000D02*
D03*
X3316142Y1479000D02*
D03*
Y1529000D02*
D03*
Y1579000D02*
D03*
Y1699000D02*
D03*
Y1749000D02*
D03*
Y1799000D02*
D03*
Y1919000D02*
D03*
Y2019000D02*
D03*
X3230000Y1414000D02*
D03*
X3206000D02*
D03*
X3182000D02*
D03*
X3158000D02*
D03*
X3134000D02*
D03*
X3108000D02*
D03*
X3084000D02*
D03*
X3058000D02*
D03*
X3032000D02*
D03*
X3006000D02*
D03*
X2980000D02*
D03*
X3236000Y1438000D02*
D03*
X3208000D02*
D03*
X3182000D02*
D03*
X3156000D02*
D03*
X3130000D02*
D03*
X3104000D02*
D03*
X3078000D02*
D03*
X3052000D02*
D03*
X3026000D02*
D03*
X3000000D02*
D03*
X2974000D02*
D03*
Y2140000D02*
D03*
X3000000D02*
D03*
X3026000D02*
D03*
X3052000D02*
D03*
X3078000D02*
D03*
X3104000D02*
D03*
X3130000D02*
D03*
X3156000D02*
D03*
X3182000D02*
D03*
X3208000D02*
D03*
X3234000D02*
D03*
Y2114000D02*
D03*
X3208000D02*
D03*
X3182000D02*
D03*
X3156000D02*
D03*
X3130000D02*
D03*
X3104000D02*
D03*
X3078000D02*
D03*
X3052000D02*
D03*
X3026000D02*
D03*
X3000000D02*
D03*
X2974000D02*
D03*
D38*
X2299103Y1965734D02*
D03*
X2190000Y2070000D02*
D03*
X2499218Y2051218D02*
D03*
X2794441Y1710682D02*
D03*
X2799735Y1678877D02*
D03*
X2811627Y1814815D02*
D03*
X2756443Y1581623D02*
D03*
X2760000Y2060000D02*
D03*
X2129915Y1789305D02*
D03*
X1969864Y1818942D02*
D03*
X2447000Y1836000D02*
D03*
X1968000Y1741000D02*
D03*
X2190000Y1517000D02*
D03*
X2510603Y1925000D02*
D03*
X2242529Y1546761D02*
D03*
X2376000Y1950000D02*
D03*
X2156000Y1952000D02*
D03*
X2808000Y1974000D02*
D03*
X3363526Y1629549D02*
D03*
X3366000Y1850000D02*
D03*
X3308268Y2117732D02*
D03*
X2684000Y1482000D02*
D03*
X2239000Y1756000D02*
D03*
X2685971Y1669473D02*
D03*
X2685065Y1757306D02*
D03*
X2684000Y1846000D02*
D03*
D39*
X2022386Y2061758D02*
D03*
X2006000Y1442000D02*
D03*
%TF.MD5,bf547695cb285cde90ce56036922a057*%
M02*
