%TF.GenerationSoftware,Altium Limited,Altium Designer,20.2.3 (150)*%
G04 Layer_Color=255*
%FSLAX26Y26*%
%MOIN*%
%TF.SameCoordinates,27716F98-0B22-40FE-96F5-AA6DB086EB47*%
%TF.FilePolarity,Positive*%
%TF.FileFunction,Pads,Top*%
%TF.Part,Single*%
G01*
G75*
%TA.AperFunction,SMDPad,SMDef*%
G04:AMPARAMS|DCode=16|XSize=78.74mil|YSize=59.055mil|CornerRadius=14.764mil|HoleSize=0mil|Usage=FLASHONLY|Rotation=270.000|XOffset=0mil|YOffset=0mil|HoleType=Round|Shape=RoundedRectangle|*
%AMROUNDEDRECTD16*
21,1,0.078740,0.029527,0,0,270.0*
21,1,0.049213,0.059055,0,0,270.0*
1,1,0.029528,-0.014764,-0.024606*
1,1,0.029528,-0.014764,0.024606*
1,1,0.029528,0.014764,0.024606*
1,1,0.029528,0.014764,-0.024606*
%
%ADD16ROUNDEDRECTD16*%
G04:AMPARAMS|DCode=17|XSize=59.055mil|YSize=1102.362mil|CornerRadius=14.764mil|HoleSize=0mil|Usage=FLASHONLY|Rotation=90.000|XOffset=0mil|YOffset=0mil|HoleType=Round|Shape=RoundedRectangle|*
%AMROUNDEDRECTD17*
21,1,0.059055,1.072835,0,0,90.0*
21,1,0.029527,1.102362,0,0,90.0*
1,1,0.029528,0.536417,0.014764*
1,1,0.029528,0.536417,-0.014764*
1,1,0.029528,-0.536417,-0.014764*
1,1,0.029528,-0.536417,0.014764*
%
%ADD17ROUNDEDRECTD17*%
G04:AMPARAMS|DCode=18|XSize=39.37mil|YSize=78.74mil|CornerRadius=9.842mil|HoleSize=0mil|Usage=FLASHONLY|Rotation=90.000|XOffset=0mil|YOffset=0mil|HoleType=Round|Shape=RoundedRectangle|*
%AMROUNDEDRECTD18*
21,1,0.039370,0.059055,0,0,90.0*
21,1,0.019685,0.078740,0,0,90.0*
1,1,0.019685,0.029528,0.009843*
1,1,0.019685,0.029528,-0.009843*
1,1,0.019685,-0.029528,-0.009843*
1,1,0.019685,-0.029528,0.009843*
%
%ADD18ROUNDEDRECTD18*%
G04:AMPARAMS|DCode=19|XSize=39.37mil|YSize=39.37mil|CornerRadius=9.842mil|HoleSize=0mil|Usage=FLASHONLY|Rotation=90.000|XOffset=0mil|YOffset=0mil|HoleType=Round|Shape=RoundedRectangle|*
%AMROUNDEDRECTD19*
21,1,0.039370,0.019685,0,0,90.0*
21,1,0.019685,0.039370,0,0,90.0*
1,1,0.019685,0.009843,0.009843*
1,1,0.019685,0.009843,-0.009843*
1,1,0.019685,-0.009843,-0.009843*
1,1,0.019685,-0.009843,0.009843*
%
%ADD19ROUNDEDRECTD19*%
G04:AMPARAMS|DCode=20|XSize=157.48mil|YSize=157.48mil|CornerRadius=39.37mil|HoleSize=0mil|Usage=FLASHONLY|Rotation=270.000|XOffset=0mil|YOffset=0mil|HoleType=Round|Shape=RoundedRectangle|*
%AMROUNDEDRECTD20*
21,1,0.157480,0.078740,0,0,270.0*
21,1,0.078740,0.157480,0,0,270.0*
1,1,0.078740,-0.039370,-0.039370*
1,1,0.078740,-0.039370,0.039370*
1,1,0.078740,0.039370,0.039370*
1,1,0.078740,0.039370,-0.039370*
%
%ADD20ROUNDEDRECTD20*%
G04:AMPARAMS|DCode=21|XSize=157.48mil|YSize=78.74mil|CornerRadius=19.685mil|HoleSize=0mil|Usage=FLASHONLY|Rotation=90.000|XOffset=0mil|YOffset=0mil|HoleType=Round|Shape=RoundedRectangle|*
%AMROUNDEDRECTD21*
21,1,0.157480,0.039370,0,0,90.0*
21,1,0.118110,0.078740,0,0,90.0*
1,1,0.039370,0.019685,0.059055*
1,1,0.039370,0.019685,-0.059055*
1,1,0.039370,-0.019685,-0.059055*
1,1,0.039370,-0.019685,0.059055*
%
%ADD21ROUNDEDRECTD21*%
%TA.AperFunction,SMDPad,CuDef*%
%ADD22R,0.053937X0.075197*%
%ADD23R,0.057087X0.033465*%
%ADD24R,0.041339X0.033465*%
%ADD25R,0.147638X0.185039*%
%ADD26R,0.106000X0.039000*%
%ADD27R,0.023622X0.016000*%
%ADD28R,0.017000X0.023622*%
%ADD29R,0.016000X0.023622*%
%ADD30R,0.019685X0.041339*%
%ADD31R,0.033465X0.011811*%
%ADD32R,0.011811X0.033465*%
%ADD33R,0.106299X0.106299*%
%ADD34R,0.036614X0.020000*%
%ADD35R,0.020000X0.036614*%
%ADD36R,0.023622X0.017000*%
D16*
X2774000Y1493000D02*
D03*
D17*
X2703000Y2131000D02*
D03*
Y1385000D02*
D03*
D18*
X1967779Y1818324D02*
D03*
X1968000Y1741000D02*
D03*
D19*
X2647906Y2005382D02*
D03*
X2600000Y2005000D02*
D03*
D20*
X2022000Y2060000D02*
D03*
X2012000Y1440000D02*
D03*
D21*
X3430000Y1536000D02*
D03*
Y1756000D02*
D03*
Y1984000D02*
D03*
D22*
X2890055Y1852000D02*
D03*
X3001945D02*
D03*
X2889055Y1475000D02*
D03*
X3000945D02*
D03*
X2890055Y1566000D02*
D03*
X3001945D02*
D03*
X2890055Y1662000D02*
D03*
X3001945D02*
D03*
X2890055Y1947000D02*
D03*
X3001945D02*
D03*
X2890055Y2042000D02*
D03*
X3001945D02*
D03*
X2890055Y1757000D02*
D03*
X3001945D02*
D03*
D23*
X3308268Y1479000D02*
D03*
Y1529000D02*
D03*
Y1579000D02*
D03*
Y1629000D02*
D03*
X3307921Y1699000D02*
D03*
Y1749000D02*
D03*
Y1799000D02*
D03*
Y1849000D02*
D03*
X3308268Y1919000D02*
D03*
Y1969000D02*
D03*
Y2019000D02*
D03*
Y2069000D02*
D03*
D24*
X3083858Y1629000D02*
D03*
Y1579000D02*
D03*
Y1529000D02*
D03*
Y1479000D02*
D03*
X3083512Y1849000D02*
D03*
Y1799000D02*
D03*
Y1749000D02*
D03*
Y1699000D02*
D03*
X3083858Y2069000D02*
D03*
Y2019000D02*
D03*
Y1969000D02*
D03*
Y1919000D02*
D03*
D25*
X3178347Y1554000D02*
D03*
X3178000Y1774000D02*
D03*
X3178347Y1994000D02*
D03*
D26*
X2104000Y1679000D02*
D03*
Y1593000D02*
D03*
D27*
X2249000Y1648008D02*
D03*
Y1613992D02*
D03*
X2334000Y2017008D02*
D03*
Y1982992D02*
D03*
D28*
X2681008Y1846000D02*
D03*
X2646992D02*
D03*
X2681008Y1756000D02*
D03*
X2646992D02*
D03*
X2681008Y1670000D02*
D03*
X2646992D02*
D03*
X2757008Y1856000D02*
D03*
X2722992D02*
D03*
X2757008Y1816000D02*
D03*
X2722992D02*
D03*
X2757008Y1776000D02*
D03*
X2722992D02*
D03*
X2757008Y1736000D02*
D03*
X2722992D02*
D03*
X2757008Y1696000D02*
D03*
X2722992D02*
D03*
X2757008Y1656000D02*
D03*
X2722992D02*
D03*
X2188992Y2040000D02*
D03*
X2223008D02*
D03*
Y1952000D02*
D03*
X2188992D02*
D03*
X2223008Y1996000D02*
D03*
X2188992D02*
D03*
X2288992Y1538000D02*
D03*
X2323008D02*
D03*
D29*
X2166992Y1766000D02*
D03*
X2201008D02*
D03*
X2166992Y1821000D02*
D03*
X2201008D02*
D03*
X2166992Y1726000D02*
D03*
X2201008D02*
D03*
D30*
X2089000Y1734347D02*
D03*
Y1827653D02*
D03*
D31*
X2308173Y1854268D02*
D03*
Y1834583D02*
D03*
Y1814898D02*
D03*
Y1795213D02*
D03*
Y1775528D02*
D03*
Y1755842D02*
D03*
Y1736158D02*
D03*
Y1716472D02*
D03*
Y1696787D02*
D03*
Y1677102D02*
D03*
Y1657417D02*
D03*
Y1637732D02*
D03*
X2579827D02*
D03*
Y1657417D02*
D03*
Y1677102D02*
D03*
Y1696787D02*
D03*
Y1716472D02*
D03*
Y1736158D02*
D03*
Y1755842D02*
D03*
Y1775528D02*
D03*
Y1795213D02*
D03*
Y1814898D02*
D03*
Y1834583D02*
D03*
Y1854268D02*
D03*
D32*
X2335732Y1610173D02*
D03*
X2355417D02*
D03*
X2375102D02*
D03*
X2394787D02*
D03*
X2414472D02*
D03*
X2434157D02*
D03*
X2453843D02*
D03*
X2473528D02*
D03*
X2493213D02*
D03*
X2512898D02*
D03*
X2532583D02*
D03*
X2552268D02*
D03*
Y1881827D02*
D03*
X2532583D02*
D03*
X2512898D02*
D03*
X2493213D02*
D03*
X2473528D02*
D03*
X2453843D02*
D03*
X2434157D02*
D03*
X2414472D02*
D03*
X2394787D02*
D03*
X2375102D02*
D03*
X2355417D02*
D03*
X2335732D02*
D03*
D33*
X2444000Y1746000D02*
D03*
D34*
X2204000Y1585685D02*
D03*
Y1646315D02*
D03*
D35*
X2199315Y1871000D02*
D03*
X2138685D02*
D03*
D36*
X2646000Y1484992D02*
D03*
Y1519008D02*
D03*
X2558000D02*
D03*
Y1484992D02*
D03*
X2499218Y2019567D02*
D03*
Y1985551D02*
D03*
X2415218D02*
D03*
Y2019567D02*
D03*
X2546000Y2019567D02*
D03*
Y1985551D02*
D03*
X2602000Y1519008D02*
D03*
Y1484992D02*
D03*
X2457218Y1985551D02*
D03*
Y2019567D02*
D03*
%TF.MD5,6aed2f7bec11047a4cf2a604827b2400*%
M02*
