%TF.GenerationSoftware,Altium Limited,Altium Designer,20.2.3 (150)*%
G04 Layer_Color=128*
%FSLAX26Y26*%
%MOIN*%
%TF.SameCoordinates,27716F98-0B22-40FE-96F5-AA6DB086EB47*%
%TF.FilePolarity,Positive*%
%TF.FileFunction,Paste,Bot*%
%TF.Part,Single*%
G01*
G75*
%TA.AperFunction,SMDPad,CuDef*%
%ADD23R,0.057087X0.033465*%
%ADD24R,0.041339X0.033465*%
%ADD40R,0.021260X0.023622*%
G36*
X3280315Y1600693D02*
X3162992D01*
Y1507307D01*
X3280315D01*
Y1600693D01*
D02*
G37*
G36*
Y1820693D02*
X3162992D01*
Y1727307D01*
X3280315D01*
Y1820693D01*
D02*
G37*
G36*
Y2040693D02*
X3162992D01*
Y1947307D01*
X3280315D01*
Y2040693D01*
D02*
G37*
D23*
X3091732Y1919000D02*
D03*
Y1969000D02*
D03*
Y2019000D02*
D03*
Y2069000D02*
D03*
Y1699000D02*
D03*
Y1749000D02*
D03*
Y1799000D02*
D03*
Y1849000D02*
D03*
Y1479000D02*
D03*
Y1529000D02*
D03*
Y1579000D02*
D03*
Y1629000D02*
D03*
D24*
X3316142Y2069000D02*
D03*
Y2019000D02*
D03*
Y1969000D02*
D03*
Y1919000D02*
D03*
Y1849000D02*
D03*
Y1799000D02*
D03*
Y1749000D02*
D03*
Y1699000D02*
D03*
Y1629000D02*
D03*
Y1579000D02*
D03*
Y1529000D02*
D03*
Y1479000D02*
D03*
D40*
X2276766Y1755842D02*
D03*
X2310782D02*
D03*
%TF.MD5,93001fec99e1702885b0829ab89e7591*%
M02*
