%TF.GenerationSoftware,Altium Limited,Altium Designer,26.1.1 (7)*%
G04 Layer_Color=65535*
%FSLAX45Y45*%
%MOMM*%
%TF.SameCoordinates,24EA0A1D-C4C2-4479-9BD9-1B96D5021C57*%
%TF.FilePolarity,Positive*%
%TF.FileFunction,Legend,Top*%
%TF.Part,Single*%
G01*
G75*
%TA.AperFunction,NonConductor*%
%ADD34C,0.25000*%
%ADD35C,0.20000*%
%ADD36C,0.15240*%
%ADD37C,0.12700*%
%ADD38C,0.17000*%
%ADD39C,0.07620*%
%ADD40C,0.25400*%
G36*
X9655560Y9348490D02*
X9630160D01*
Y9310390D01*
X9655560D01*
Y9348490D01*
D02*
G37*
G36*
X10163150Y9090900D02*
X10125050D01*
Y9065500D01*
X10163150D01*
Y9090900D01*
D02*
G37*
G36*
X10482640Y9498490D02*
X10508040D01*
Y9460390D01*
X10482640D01*
Y9498490D01*
D02*
G37*
G36*
X10213150Y9917980D02*
X10175050D01*
Y9943380D01*
X10213150D01*
Y9917980D01*
D02*
G37*
D34*
X7685424Y9458253D02*
G03*
X7685424Y9458253I-12500J0D01*
G01*
X8394500Y8037800D02*
G03*
X8394500Y8037800I-12500J0D01*
G01*
D35*
X9446100Y9462900D02*
G03*
X9446100Y9462900I-10000J0D01*
G01*
X7745424Y9263800D02*
X7748300D01*
X7593300D02*
X7596176D01*
X7593300Y8998800D02*
Y9263800D01*
X7745424Y8998800D02*
X7748300D01*
X7593300D02*
X7596176D01*
X7748300D02*
Y9263800D01*
X8514500Y8225300D02*
X8907000D01*
X7857000D02*
X8249500D01*
X7857000D02*
Y9075300D01*
X8907000Y8225300D02*
Y9075300D01*
X8707000Y9275300D02*
X8907000Y9075300D01*
X7857000D02*
X8057000Y9275300D01*
X8157000D01*
X8607000D02*
X8707000D01*
D36*
X9698260Y9875280D02*
X9748086D01*
X10439940Y9825454D02*
Y9875280D01*
X10390114Y9133600D02*
X10439940D01*
X9698260D02*
Y9183426D01*
Y9825454D02*
Y9875280D01*
X10390114D02*
X10439940D01*
Y9133600D02*
Y9183426D01*
X9698260Y9133600D02*
X9748086D01*
X9311640Y9177314D02*
Y9288486D01*
X8976360Y9177314D02*
Y9288486D01*
D37*
X8647200Y9480800D02*
X8731200D01*
X8647200Y9670800D02*
X8731200D01*
X8022500D02*
X8106500D01*
X8022500Y9480800D02*
X8106500D01*
X9373600Y9147900D02*
Y9317900D01*
X9498600Y9147900D02*
Y9317900D01*
X9373600Y9147900D02*
X9379100D01*
X9493100D02*
X9498600D01*
X9373600Y9317900D02*
X9379100D01*
X9493100D02*
X9498600D01*
D38*
X7644010Y8093993D02*
X7634013Y8103990D01*
X7614019D01*
X7604023Y8093993D01*
Y8083997D01*
X7614019Y8074000D01*
X7634013D01*
X7644010Y8064003D01*
Y8054006D01*
X7634013Y8044010D01*
X7614019D01*
X7604023Y8054006D01*
X7664003Y8103990D02*
X7703990D01*
X7683997D01*
Y8044010D01*
X7723984D02*
X7743977D01*
X7733980D01*
Y8103990D01*
X7723984Y8093993D01*
X9688621Y9986790D02*
X9708615D01*
X9698618D01*
Y9926810D01*
X9688621D01*
X9708615D01*
X9778592Y9976793D02*
X9768595Y9986790D01*
X9748602D01*
X9738605Y9976793D01*
Y9936806D01*
X9748602Y9926810D01*
X9768595D01*
X9778592Y9936806D01*
X9798585Y9926810D02*
X9818579D01*
X9808582D01*
Y9986790D01*
X9798585Y9976793D01*
X9410863Y9839633D02*
X9400867Y9849630D01*
X9380873D01*
X9370876Y9839633D01*
Y9799646D01*
X9380873Y9789650D01*
X9400867D01*
X9410863Y9799646D01*
X9430857Y9839633D02*
X9440854Y9849630D01*
X9460847D01*
X9470844Y9839633D01*
Y9829637D01*
X9460847Y9819640D01*
X9450851D01*
X9460847D01*
X9470844Y9809643D01*
Y9799646D01*
X9460847Y9789650D01*
X9440854D01*
X9430857Y9799646D01*
X8778811Y9786293D02*
X8768815Y9796290D01*
X8748821D01*
X8738825Y9786293D01*
Y9746306D01*
X8748821Y9736310D01*
X8768815D01*
X8778811Y9746306D01*
X8798805Y9736310D02*
X8818799D01*
X8808802D01*
Y9796290D01*
X8798805Y9786293D01*
X8878779Y9736310D02*
Y9796290D01*
X8848789Y9766300D01*
X8888776D01*
X8131112Y9786293D02*
X8121115Y9796290D01*
X8101121D01*
X8091125Y9786293D01*
Y9746306D01*
X8101121Y9736310D01*
X8121115D01*
X8131112Y9746306D01*
X8151105Y9736310D02*
X8171099D01*
X8161102D01*
Y9796290D01*
X8151105Y9786293D01*
X8241076Y9796290D02*
X8201089D01*
Y9766300D01*
X8221082Y9776297D01*
X8231079D01*
X8241076Y9766300D01*
Y9746306D01*
X8231079Y9736310D01*
X8211085D01*
X8201089Y9746306D01*
X7551420Y9610381D02*
Y9550400D01*
X7581410D01*
X7591407Y9560397D01*
Y9600384D01*
X7581410Y9610381D01*
X7551420D01*
X7651388Y9550400D02*
X7611401D01*
X7651388Y9590387D01*
Y9600384D01*
X7641391Y9610381D01*
X7621397D01*
X7611401Y9600384D01*
X8571199Y8059562D02*
X8561202Y8069559D01*
X8541209D01*
X8531212Y8059562D01*
Y8049565D01*
X8541209Y8039568D01*
X8561202D01*
X8571199Y8029572D01*
Y8019575D01*
X8561202Y8009578D01*
X8541209D01*
X8531212Y8019575D01*
X8591193Y8069559D02*
X8631180D01*
X8611186D01*
Y8009578D01*
X8651173D02*
X8671167D01*
X8661170D01*
Y8069559D01*
X8651173Y8059562D01*
X8741144Y8009578D02*
X8701157D01*
X8741144Y8049565D01*
Y8059562D01*
X8731147Y8069559D01*
X8711154D01*
X8701157Y8059562D01*
X10131407Y8576764D02*
X10121410Y8586761D01*
X10101417D01*
X10091420Y8576764D01*
Y8566767D01*
X10101417Y8556770D01*
X10121410D01*
X10131407Y8546774D01*
Y8536777D01*
X10121410Y8526780D01*
X10101417D01*
X10091420Y8536777D01*
X10151401Y8586761D02*
X10191388D01*
X10171394D01*
Y8526780D01*
X10251368Y8586761D02*
X10211381D01*
Y8556770D01*
X10231375Y8566767D01*
X10241371D01*
X10251368Y8556770D01*
Y8536777D01*
X10241371Y8526780D01*
X10221378D01*
X10211381Y8536777D01*
X9877407Y8576764D02*
X9867410Y8586761D01*
X9847417D01*
X9837420Y8576764D01*
Y8566767D01*
X9847417Y8556770D01*
X9867410D01*
X9877407Y8546774D01*
Y8536777D01*
X9867410Y8526780D01*
X9847417D01*
X9837420Y8536777D01*
X9897401Y8586761D02*
X9937388D01*
X9917394D01*
Y8526780D01*
X9957381Y8586761D02*
X9997368D01*
Y8576764D01*
X9957381Y8536777D01*
Y8526780D01*
X9623407Y8576764D02*
X9613410Y8586761D01*
X9593417D01*
X9583420Y8576764D01*
Y8566767D01*
X9593417Y8556770D01*
X9613410D01*
X9623407Y8546774D01*
Y8536777D01*
X9613410Y8526780D01*
X9593417D01*
X9583420Y8536777D01*
X9643401Y8586761D02*
X9683388D01*
X9663394D01*
Y8526780D01*
X9703381D02*
X9723375D01*
X9713378D01*
Y8586761D01*
X9703381Y8576764D01*
X9753365D02*
X9763361Y8586761D01*
X9783355D01*
X9793352Y8576764D01*
Y8536777D01*
X9783355Y8526780D01*
X9763361D01*
X9753365Y8536777D01*
Y8576764D01*
X10385407D02*
X10375410Y8586761D01*
X10355417D01*
X10345420Y8576764D01*
Y8566767D01*
X10355417Y8556770D01*
X10375410D01*
X10385407Y8546774D01*
Y8536777D01*
X10375410Y8526780D01*
X10355417D01*
X10345420Y8536777D01*
X10405401Y8586761D02*
X10445388D01*
X10425394D01*
Y8526780D01*
X10465381Y8576764D02*
X10475378Y8586761D01*
X10495371D01*
X10505368Y8576764D01*
Y8566767D01*
X10495371Y8556770D01*
X10505368Y8546774D01*
Y8536777D01*
X10495371Y8526780D01*
X10475378D01*
X10465381Y8536777D01*
Y8546774D01*
X10475378Y8556770D01*
X10465381Y8566767D01*
Y8576764D01*
X10475378Y8556770D02*
X10495371D01*
X10639407Y8576764D02*
X10629410Y8586761D01*
X10609417D01*
X10599420Y8576764D01*
Y8566767D01*
X10609417Y8556770D01*
X10629410D01*
X10639407Y8546774D01*
Y8536777D01*
X10629410Y8526780D01*
X10609417D01*
X10599420Y8536777D01*
X10659401Y8586761D02*
X10699388D01*
X10679394D01*
Y8526780D01*
X10719381D02*
X10739375D01*
X10729378D01*
Y8586761D01*
X10719381Y8576764D01*
X10769365Y8526780D02*
X10789358D01*
X10779361D01*
Y8586761D01*
X10769365Y8576764D01*
X10630553Y10289213D02*
X10620556Y10299210D01*
X10600563D01*
X10590566Y10289213D01*
Y10279217D01*
X10600563Y10269220D01*
X10620556D01*
X10630553Y10259223D01*
Y10249226D01*
X10620556Y10239230D01*
X10600563D01*
X10590566Y10249226D01*
X10650547Y10299210D02*
X10690534D01*
X10670540D01*
Y10239230D01*
X10710527Y10249226D02*
X10720524Y10239230D01*
X10740518D01*
X10750514Y10249226D01*
Y10289213D01*
X10740518Y10299210D01*
X10720524D01*
X10710527Y10289213D01*
Y10279217D01*
X10720524Y10269220D01*
X10750514D01*
X10374013Y10291753D02*
X10364016Y10301750D01*
X10344023D01*
X10334026Y10291753D01*
Y10281757D01*
X10344023Y10271760D01*
X10364016D01*
X10374013Y10261763D01*
Y10251766D01*
X10364016Y10241770D01*
X10344023D01*
X10334026Y10251766D01*
X10394007Y10301750D02*
X10433994D01*
X10414000D01*
Y10241770D01*
X10493974Y10301750D02*
X10473981Y10291753D01*
X10453987Y10271760D01*
Y10251766D01*
X10463984Y10241770D01*
X10483978D01*
X10493974Y10251766D01*
Y10261763D01*
X10483978Y10271760D01*
X10453987D01*
X10115096Y9969990D02*
Y10029970D01*
X10145087D01*
X10155083Y10019973D01*
Y9999980D01*
X10145087Y9989983D01*
X10115096D01*
X10135090D02*
X10155083Y9969990D01*
X10175077Y10019973D02*
X10185074Y10029970D01*
X10205067D01*
X10215064Y10019973D01*
Y10009977D01*
X10205067Y9999980D01*
X10215064Y9989983D01*
Y9979986D01*
X10205067Y9969990D01*
X10185074D01*
X10175077Y9979986D01*
Y9989983D01*
X10185074Y9999980D01*
X10175077Y10009977D01*
Y10019973D01*
X10185074Y9999980D02*
X10205067D01*
X10122553Y10294293D02*
X10112556Y10304290D01*
X10092563D01*
X10082566Y10294293D01*
Y10284297D01*
X10092563Y10274300D01*
X10112556D01*
X10122553Y10264303D01*
Y10254306D01*
X10112556Y10244310D01*
X10092563D01*
X10082566Y10254306D01*
X10142547Y10304290D02*
X10182534D01*
X10162540D01*
Y10244310D01*
X10202527Y10294293D02*
X10212524Y10304290D01*
X10232518D01*
X10242514Y10294293D01*
Y10284297D01*
X10232518Y10274300D01*
X10222521D01*
X10232518D01*
X10242514Y10264303D01*
Y10254306D01*
X10232518Y10244310D01*
X10212524D01*
X10202527Y10254306D01*
X9881253Y10294293D02*
X9871256Y10304290D01*
X9851263D01*
X9841266Y10294293D01*
Y10284297D01*
X9851263Y10274300D01*
X9871256D01*
X9881253Y10264303D01*
Y10254306D01*
X9871256Y10244310D01*
X9851263D01*
X9841266Y10254306D01*
X9901247Y10304290D02*
X9941234D01*
X9921240D01*
Y10244310D01*
X9991218D02*
Y10304290D01*
X9961227Y10274300D01*
X10001214D01*
X10409736Y9969990D02*
Y10029970D01*
X10439727D01*
X10449723Y10019973D01*
Y9999980D01*
X10439727Y9989983D01*
X10409736D01*
X10429730D02*
X10449723Y9969990D01*
X10469717Y10029970D02*
X10509704D01*
Y10019973D01*
X10469717Y9979986D01*
Y9969990D01*
X9730903Y10294293D02*
X9720907Y10304290D01*
X9700913D01*
X9690916Y10294293D01*
Y10254306D01*
X9700913Y10244310D01*
X9720907D01*
X9730903Y10254306D01*
X9790884Y10304290D02*
X9750897D01*
Y10274300D01*
X9770891Y10284297D01*
X9780887D01*
X9790884Y10274300D01*
Y10254306D01*
X9780887Y10244310D01*
X9760894D01*
X9750897Y10254306D01*
X8313556Y7895931D02*
X8303559Y7905928D01*
X8283566D01*
X8273569Y7895931D01*
Y7885935D01*
X8283566Y7875938D01*
X8303559D01*
X8313556Y7865941D01*
Y7855944D01*
X8303559Y7845948D01*
X8283566D01*
X8273569Y7855944D01*
X8333549Y7905928D02*
X8373536D01*
X8353543D01*
Y7845948D01*
X8433517D02*
X8393530D01*
X8433517Y7885935D01*
Y7895931D01*
X8423520Y7905928D01*
X8403527D01*
X8393530Y7895931D01*
X9550563Y9778673D02*
X9540567Y9788670D01*
X9520573D01*
X9510576Y9778673D01*
Y9738686D01*
X9520573Y9728690D01*
X9540567D01*
X9550563Y9738686D01*
X9600547Y9728690D02*
Y9788670D01*
X9570557Y9758680D01*
X9610544D01*
X10567216Y8758410D02*
Y8818390D01*
X10597207D01*
X10607203Y8808393D01*
Y8788400D01*
X10597207Y8778403D01*
X10567216D01*
X10587210D02*
X10607203Y8758410D01*
X10667184Y8818390D02*
X10647191Y8808393D01*
X10627197Y8788400D01*
Y8768406D01*
X10637194Y8758410D01*
X10657187D01*
X10667184Y8768406D01*
Y8778403D01*
X10657187Y8788400D01*
X10627197D01*
X10364425Y8758410D02*
Y8818390D01*
X10394415D01*
X10404411Y8808393D01*
Y8788400D01*
X10394415Y8778403D01*
X10364425D01*
X10384418D02*
X10404411Y8758410D01*
X10424405D02*
X10444399D01*
X10434402D01*
Y8818390D01*
X10424405Y8808393D01*
X10474389D02*
X10484385Y8818390D01*
X10504379D01*
X10514376Y8808393D01*
Y8768406D01*
X10504379Y8758410D01*
X10484385D01*
X10474389Y8768406D01*
Y8808393D01*
X10211616Y8758410D02*
Y8818390D01*
X10241607D01*
X10251603Y8808393D01*
Y8788400D01*
X10241607Y8778403D01*
X10211616D01*
X10231610D02*
X10251603Y8758410D01*
X10311584Y8818390D02*
X10271597D01*
Y8788400D01*
X10291591Y8798397D01*
X10301587D01*
X10311584Y8788400D01*
Y8768406D01*
X10301587Y8758410D01*
X10281594D01*
X10271597Y8768406D01*
X9025436Y10246850D02*
Y10306830D01*
X9055427D01*
X9065423Y10296833D01*
Y10276840D01*
X9055427Y10266843D01*
X9025436D01*
X9045430D02*
X9065423Y10246850D01*
X9115407D02*
Y10306830D01*
X9085417Y10276840D01*
X9125404D01*
X9345476Y10244310D02*
Y10304290D01*
X9375467D01*
X9385463Y10294293D01*
Y10274300D01*
X9375467Y10264303D01*
X9345476D01*
X9365470D02*
X9385463Y10244310D01*
X9405457Y10294293D02*
X9415454Y10304290D01*
X9435447D01*
X9445444Y10294293D01*
Y10284297D01*
X9435447Y10274300D01*
X9425451D01*
X9435447D01*
X9445444Y10264303D01*
Y10254306D01*
X9435447Y10244310D01*
X9415454D01*
X9405457Y10254306D01*
X9190536Y10246850D02*
Y10306830D01*
X9220527D01*
X9230523Y10296833D01*
Y10276840D01*
X9220527Y10266843D01*
X9190536D01*
X9210530D02*
X9230523Y10246850D01*
X9250517Y10256846D02*
X9260514Y10246850D01*
X9280507D01*
X9290504Y10256846D01*
Y10296833D01*
X9280507Y10306830D01*
X9260514D01*
X9250517Y10296833D01*
Y10286837D01*
X9260514Y10276840D01*
X9290504D01*
X9987933Y9972530D02*
Y10032510D01*
X10017923D01*
X10027920Y10022513D01*
Y10002520D01*
X10017923Y9992523D01*
X9987933D01*
X10007927D02*
X10027920Y9972530D01*
X10047914D02*
X10067907D01*
X10057910D01*
Y10032510D01*
X10047914Y10022513D01*
X10262416Y9972530D02*
Y10032510D01*
X10292407D01*
X10302403Y10022513D01*
Y10002520D01*
X10292407Y9992523D01*
X10262416D01*
X10282410D02*
X10302403Y9972530D01*
X10362384D02*
X10322397D01*
X10362384Y10012517D01*
Y10022513D01*
X10352387Y10032510D01*
X10332394D01*
X10322397Y10022513D01*
X10797703Y9722793D02*
X10787707Y9732790D01*
X10767713D01*
X10757716Y9722793D01*
Y9682806D01*
X10767713Y9672810D01*
X10787707D01*
X10797703Y9682806D01*
X10817697Y9722793D02*
X10827694Y9732790D01*
X10847687D01*
X10857684Y9722793D01*
Y9712797D01*
X10847687Y9702800D01*
X10857684Y9692803D01*
Y9682806D01*
X10847687Y9672810D01*
X10827694D01*
X10817697Y9682806D01*
Y9692803D01*
X10827694Y9702800D01*
X10817697Y9712797D01*
Y9722793D01*
X10827694Y9702800D02*
X10847687D01*
X10798111Y9323993D02*
X10788115Y9333990D01*
X10768121D01*
X10758125Y9323993D01*
Y9284006D01*
X10768121Y9274010D01*
X10788115D01*
X10798111Y9284006D01*
X10818105Y9274010D02*
X10838099D01*
X10828102D01*
Y9333990D01*
X10818105Y9323993D01*
X10908076Y9274010D02*
X10868089D01*
X10908076Y9313997D01*
Y9323993D01*
X10898079Y9333990D01*
X10878085D01*
X10868089Y9323993D01*
X10797703Y9519593D02*
X10787707Y9529590D01*
X10767713D01*
X10757716Y9519593D01*
Y9479606D01*
X10767713Y9469610D01*
X10787707D01*
X10797703Y9479606D01*
X10817697D02*
X10827694Y9469610D01*
X10847687D01*
X10857684Y9479606D01*
Y9519593D01*
X10847687Y9529590D01*
X10827694D01*
X10817697Y9519593D01*
Y9509597D01*
X10827694Y9499600D01*
X10857684D01*
X9223965Y9957290D02*
Y10017270D01*
X9253955D01*
X9263951Y10007273D01*
Y9987280D01*
X9253955Y9977283D01*
X9223965D01*
X9243958D02*
X9263951Y9957290D01*
X9283945D02*
X9303939D01*
X9293942D01*
Y10017270D01*
X9283945Y10007273D01*
X9373916Y9957290D02*
X9333929D01*
X9373916Y9997277D01*
Y10007273D01*
X9363919Y10017270D01*
X9343925D01*
X9333929Y10007273D01*
X9040921Y9954750D02*
Y10014730D01*
X9070911D01*
X9080908Y10004733D01*
Y9984740D01*
X9070911Y9974743D01*
X9040921D01*
X9060915D02*
X9080908Y9954750D01*
X9100902D02*
X9120895D01*
X9110898D01*
Y10014730D01*
X9100902Y10004733D01*
X9150885Y9954750D02*
X9170879D01*
X9160882D01*
Y10014730D01*
X9150885Y10004733D01*
X9577025Y8745710D02*
Y8805690D01*
X9607015D01*
X9617011Y8795693D01*
Y8775700D01*
X9607015Y8765703D01*
X9577025D01*
X9597018D02*
X9617011Y8745710D01*
X9637005D02*
X9656999D01*
X9647002D01*
Y8805690D01*
X9637005Y8795693D01*
X9716979Y8745710D02*
Y8805690D01*
X9686989Y8775700D01*
X9726976D01*
X9493123Y10244310D02*
Y10304290D01*
X9523113D01*
X9533110Y10294293D01*
Y10274300D01*
X9523113Y10264303D01*
X9493123D01*
X9513116D02*
X9533110Y10244310D01*
X9593090D02*
X9553103D01*
X9593090Y10284297D01*
Y10294293D01*
X9583094Y10304290D01*
X9563100D01*
X9553103Y10294293D01*
X9613084Y10244310D02*
X9633078D01*
X9623081D01*
Y10304290D01*
X9613084Y10294293D01*
X9614308Y8973493D02*
X9604311Y8983490D01*
X9584318D01*
X9574321Y8973493D01*
Y8933506D01*
X9584318Y8923510D01*
X9604311D01*
X9614308Y8933506D01*
X9634302Y8923510D02*
X9654295D01*
X9644298D01*
Y8983490D01*
X9634302Y8973493D01*
X9684285Y8923510D02*
X9704279D01*
X9694282D01*
Y8983490D01*
X9684285Y8973493D01*
X9396113Y8983490D02*
Y8923510D01*
X9426103D01*
X9436100Y8933506D01*
Y8973493D01*
X9426103Y8983490D01*
X9396113D01*
X9456094Y8923510D02*
X9476087D01*
X9466090D01*
Y8983490D01*
X9456094Y8973493D01*
X9083611Y8808393D02*
X9073615Y8818390D01*
X9053621D01*
X9043625Y8808393D01*
Y8768406D01*
X9053621Y8758410D01*
X9073615D01*
X9083611Y8768406D01*
X9103605Y8758410D02*
X9123599D01*
X9113602D01*
Y8818390D01*
X9103605Y8808393D01*
X9153589D02*
X9163585Y8818390D01*
X9183579D01*
X9193576Y8808393D01*
Y8768406D01*
X9183579Y8758410D01*
X9163585D01*
X9153589Y8768406D01*
Y8808393D01*
X8964313Y9554990D02*
Y9495010D01*
X9004300D01*
X9024294D02*
X9044287D01*
X9034290D01*
Y9554990D01*
X9024294Y9544993D01*
X9035257Y8394261D02*
X9025261Y8404258D01*
X9005267D01*
X8995270Y8394261D01*
Y8354274D01*
X9005267Y8344277D01*
X9025261D01*
X9035257Y8354274D01*
X9095238Y8404258D02*
X9075244Y8394261D01*
X9055251Y8374267D01*
Y8354274D01*
X9065248Y8344277D01*
X9085241D01*
X9095238Y8354274D01*
Y8364271D01*
X9085241Y8374267D01*
X9055251D01*
X9141460Y9910753D02*
X9131463Y9920750D01*
X9111470D01*
X9101473Y9910753D01*
Y9870766D01*
X9111470Y9860770D01*
X9131463D01*
X9141460Y9870766D01*
X9161454Y9860770D02*
X9181447D01*
X9171450D01*
Y9920750D01*
X9161454Y9910753D01*
X9258463Y9920913D02*
X9248467Y9930910D01*
X9228473D01*
X9218476Y9920913D01*
Y9880926D01*
X9228473Y9870930D01*
X9248467D01*
X9258463Y9880926D01*
X9318444Y9870930D02*
X9278457D01*
X9318444Y9910917D01*
Y9920913D01*
X9308447Y9930910D01*
X9288454D01*
X9278457Y9920913D01*
D39*
X9626600Y9872120D02*
X9660456Y9838264D01*
X9626600D02*
X9660456Y9872120D01*
X9626600Y9855192D02*
X9660456D01*
X9643528Y9838264D02*
Y9872120D01*
D40*
X7601698Y7892619D02*
X7703265D01*
X7652481Y7943403D02*
Y7841836D01*
%TF.MD5,30ad57c76200a1c2e84b160dd68e708b*%
M02*
