%TF.GenerationSoftware,Altium Limited,Altium Designer,20.2.3 (150)*%
G04 Layer_Physical_Order=1*
G04 Layer_Color=255*
%FSLAX26Y26*%
%MOIN*%
%TF.SameCoordinates,27716F98-0B22-40FE-96F5-AA6DB086EB47*%
%TF.FilePolarity,Positive*%
%TF.FileFunction,Copper,L1,Top,Signal*%
%TF.Part,Single*%
G01*
G75*
%TA.AperFunction,Conductor*%
%ADD10C,0.070000*%
%ADD11C,0.010000*%
%ADD12C,0.016000*%
%ADD13C,0.012000*%
%ADD14C,0.008000*%
%ADD15C,0.022000*%
%TA.AperFunction,SMDPad,SMDef*%
G04:AMPARAMS|DCode=16|XSize=78.74mil|YSize=59.055mil|CornerRadius=14.764mil|HoleSize=0mil|Usage=FLASHONLY|Rotation=270.000|XOffset=0mil|YOffset=0mil|HoleType=Round|Shape=RoundedRectangle|*
%AMROUNDEDRECTD16*
21,1,0.078740,0.029527,0,0,270.0*
21,1,0.049213,0.059055,0,0,270.0*
1,1,0.029528,-0.014764,-0.024606*
1,1,0.029528,-0.014764,0.024606*
1,1,0.029528,0.014764,0.024606*
1,1,0.029528,0.014764,-0.024606*
%
%ADD16ROUNDEDRECTD16*%
G04:AMPARAMS|DCode=17|XSize=59.055mil|YSize=1102.362mil|CornerRadius=14.764mil|HoleSize=0mil|Usage=FLASHONLY|Rotation=90.000|XOffset=0mil|YOffset=0mil|HoleType=Round|Shape=RoundedRectangle|*
%AMROUNDEDRECTD17*
21,1,0.059055,1.072835,0,0,90.0*
21,1,0.029527,1.102362,0,0,90.0*
1,1,0.029528,0.536417,0.014764*
1,1,0.029528,0.536417,-0.014764*
1,1,0.029528,-0.536417,-0.014764*
1,1,0.029528,-0.536417,0.014764*
%
%ADD17ROUNDEDRECTD17*%
G04:AMPARAMS|DCode=18|XSize=39.37mil|YSize=78.74mil|CornerRadius=9.842mil|HoleSize=0mil|Usage=FLASHONLY|Rotation=90.000|XOffset=0mil|YOffset=0mil|HoleType=Round|Shape=RoundedRectangle|*
%AMROUNDEDRECTD18*
21,1,0.039370,0.059055,0,0,90.0*
21,1,0.019685,0.078740,0,0,90.0*
1,1,0.019685,0.029528,0.009843*
1,1,0.019685,0.029528,-0.009843*
1,1,0.019685,-0.029528,-0.009843*
1,1,0.019685,-0.029528,0.009843*
%
%ADD18ROUNDEDRECTD18*%
G04:AMPARAMS|DCode=19|XSize=39.37mil|YSize=39.37mil|CornerRadius=9.842mil|HoleSize=0mil|Usage=FLASHONLY|Rotation=90.000|XOffset=0mil|YOffset=0mil|HoleType=Round|Shape=RoundedRectangle|*
%AMROUNDEDRECTD19*
21,1,0.039370,0.019685,0,0,90.0*
21,1,0.019685,0.039370,0,0,90.0*
1,1,0.019685,0.009843,0.009843*
1,1,0.019685,0.009843,-0.009843*
1,1,0.019685,-0.009843,-0.009843*
1,1,0.019685,-0.009843,0.009843*
%
%ADD19ROUNDEDRECTD19*%
G04:AMPARAMS|DCode=20|XSize=157.48mil|YSize=157.48mil|CornerRadius=39.37mil|HoleSize=0mil|Usage=FLASHONLY|Rotation=270.000|XOffset=0mil|YOffset=0mil|HoleType=Round|Shape=RoundedRectangle|*
%AMROUNDEDRECTD20*
21,1,0.157480,0.078740,0,0,270.0*
21,1,0.078740,0.157480,0,0,270.0*
1,1,0.078740,-0.039370,-0.039370*
1,1,0.078740,-0.039370,0.039370*
1,1,0.078740,0.039370,0.039370*
1,1,0.078740,0.039370,-0.039370*
%
%ADD20ROUNDEDRECTD20*%
G04:AMPARAMS|DCode=21|XSize=157.48mil|YSize=78.74mil|CornerRadius=19.685mil|HoleSize=0mil|Usage=FLASHONLY|Rotation=90.000|XOffset=0mil|YOffset=0mil|HoleType=Round|Shape=RoundedRectangle|*
%AMROUNDEDRECTD21*
21,1,0.157480,0.039370,0,0,90.0*
21,1,0.118110,0.078740,0,0,90.0*
1,1,0.039370,0.019685,0.059055*
1,1,0.039370,0.019685,-0.059055*
1,1,0.039370,-0.019685,-0.059055*
1,1,0.039370,-0.019685,0.059055*
%
%ADD21ROUNDEDRECTD21*%
%TA.AperFunction,SMDPad,CuDef*%
%ADD22R,0.053937X0.075197*%
%ADD23R,0.057087X0.033465*%
%ADD24R,0.041339X0.033465*%
%ADD25R,0.147638X0.185039*%
%ADD26R,0.106000X0.039000*%
%ADD27R,0.023622X0.016000*%
%ADD28R,0.017000X0.023622*%
%ADD29R,0.016000X0.023622*%
%ADD30R,0.019685X0.041339*%
%ADD31R,0.033465X0.011811*%
%ADD32R,0.011811X0.033465*%
%ADD33R,0.106299X0.106299*%
%ADD34R,0.036614X0.020000*%
%ADD35R,0.020000X0.036614*%
%ADD36R,0.023622X0.017000*%
%TA.AperFunction,ViaPad*%
%ADD37C,0.023622*%
%ADD38C,0.022000*%
%ADD39C,0.090551*%
G36*
X2364000Y2091591D02*
Y2090000D01*
X2365000Y2016000D01*
Y2014608D01*
X2363934Y2012035D01*
X2361965Y2010066D01*
X2359392Y2009000D01*
X2249011D01*
X2245335Y2010522D01*
X2242522Y2013335D01*
X2241000Y2017011D01*
Y2072000D01*
X2240789Y2074146D01*
X2239146Y2078111D01*
X2236111Y2081146D01*
X2232146Y2082789D01*
X2230000Y2083000D01*
X2204165D01*
X2203698Y2083698D01*
X2198717Y2087026D01*
X2200043Y2093026D01*
X2363405D01*
X2364000Y2091591D01*
D02*
G37*
G36*
X2124196Y2136260D02*
X2129260Y2131196D01*
X2132000Y2124580D01*
Y2121000D01*
X2132442Y2116513D01*
X2135876Y2108222D01*
X2142222Y2101876D01*
X2150513Y2098442D01*
X2152539Y2098242D01*
X2157701Y2094793D01*
X2166583Y2093026D01*
X2179957D01*
X2181283Y2087026D01*
X2176302Y2083698D01*
X2172102Y2077413D01*
X2170628Y2070000D01*
X2171539Y2065416D01*
X2172492Y2059811D01*
X2172492Y2059811D01*
X2172492Y2059811D01*
Y2020189D01*
X2178069D01*
X2179528Y2016666D01*
X2183666Y2012528D01*
X2189074Y2010288D01*
X2192000Y2010000D01*
X2198398D01*
X2199133Y2009696D01*
X2199695Y2009133D01*
X2200000Y2008398D01*
Y1984602D01*
X2199695Y1983867D01*
X2199133Y1983304D01*
X2198398Y1983000D01*
X2198000D01*
X2194098Y1982616D01*
X2186889Y1979629D01*
X2181371Y1974111D01*
X2180418Y1971811D01*
X2172492D01*
Y1971048D01*
X2166492Y1967841D01*
X2163413Y1969898D01*
X2156000Y1971372D01*
X2148587Y1969898D01*
X2142302Y1965698D01*
X2138102Y1959413D01*
X2136628Y1952000D01*
X2138102Y1944587D01*
X2142302Y1938302D01*
X2148587Y1934102D01*
X2156000Y1932628D01*
X2163413Y1934102D01*
X2166492Y1936159D01*
X2172492Y1932952D01*
Y1932189D01*
X2175737D01*
Y1923487D01*
X2176746Y1918414D01*
X2178000Y1916538D01*
Y1803235D01*
X2143265D01*
X2137328Y1807202D01*
X2129915Y1808677D01*
X2122501Y1807202D01*
X2116216Y1803003D01*
X2112017Y1796718D01*
X2110542Y1789305D01*
X2112017Y1781891D01*
X2116216Y1775607D01*
X2122501Y1771407D01*
X2124997Y1770911D01*
X2125318Y1770696D01*
X2130000Y1769765D01*
X2134682Y1770696D01*
X2135076Y1770959D01*
X2137328Y1771407D01*
X2143613Y1775607D01*
X2145723Y1778765D01*
X2178000D01*
Y1715806D01*
X2177086Y1713601D01*
X2175399Y1711913D01*
X2173193Y1711000D01*
X2137651D01*
X2131082Y1712307D01*
X2124895Y1714870D01*
X2119326Y1718590D01*
X2114590Y1723326D01*
X2110869Y1728895D01*
X2108307Y1735082D01*
X2107000Y1741651D01*
Y1746000D01*
X2106843Y1747599D01*
Y1763016D01*
X2094053D01*
X2092512Y1763654D01*
X2089000Y1764000D01*
X2085848D01*
X2079666Y1765230D01*
X2073842Y1767642D01*
X2068601Y1771144D01*
X2064144Y1775601D01*
X2060642Y1780842D01*
X2058230Y1786666D01*
X2057000Y1792848D01*
Y1796000D01*
Y2139000D01*
X2117580D01*
X2124196Y2136260D01*
D02*
G37*
G36*
X3466462Y2064651D02*
X3472651Y2058462D01*
X3476000Y2050376D01*
Y2046000D01*
Y1924000D01*
Y1919226D01*
X3472346Y1910405D01*
X3465595Y1903654D01*
X3456774Y1900000D01*
X3280000D01*
Y2036000D01*
X3352000D01*
X3353171Y2036115D01*
X3355333Y2037011D01*
X3356989Y2038667D01*
X3357885Y2040829D01*
X3358000Y2042000D01*
Y2044561D01*
X3358999Y2049584D01*
X3360959Y2054316D01*
X3363804Y2058574D01*
X3367426Y2062195D01*
X3371684Y2065041D01*
X3376416Y2067001D01*
X3381439Y2068000D01*
X3458376D01*
X3466462Y2064651D01*
D02*
G37*
G36*
X3463329Y1832955D02*
X3468955Y1827329D01*
X3472000Y1819978D01*
Y1816000D01*
Y1696000D01*
Y1691624D01*
X3468651Y1683538D01*
X3462462Y1677349D01*
X3454376Y1674000D01*
X3280000D01*
Y1816000D01*
X3376000D01*
X3377561Y1816154D01*
X3380445Y1817348D01*
X3382652Y1819555D01*
X3383846Y1822439D01*
X3384000Y1824000D01*
Y1826387D01*
X3385827Y1830797D01*
X3389202Y1834173D01*
X3393613Y1836000D01*
X3455978D01*
X3463329Y1832955D01*
D02*
G37*
G36*
X2420252Y1857094D02*
X2421000D01*
Y1833000D01*
X2421365Y1829293D01*
X2424202Y1822444D01*
X2429444Y1817202D01*
X2436293Y1814365D01*
X2440000Y1814000D01*
X2527973D01*
X2537161Y1810194D01*
X2544194Y1803161D01*
X2548000Y1793973D01*
Y1789000D01*
Y1649000D01*
Y1647409D01*
X2546782Y1644468D01*
X2544532Y1642218D01*
X2541591Y1641000D01*
X2360801D01*
X2360434Y1641152D01*
X2360152Y1641434D01*
X2360000Y1641801D01*
Y1642000D01*
X2356817D01*
X2350937Y1644436D01*
X2346436Y1648937D01*
X2344000Y1654817D01*
Y1658000D01*
Y1746000D01*
Y1748387D01*
X2345827Y1752797D01*
X2349202Y1756173D01*
X2353613Y1758000D01*
X2364000D01*
X2365171Y1758115D01*
X2367333Y1759011D01*
X2368989Y1760667D01*
X2369885Y1762829D01*
X2370000Y1764000D01*
Y1830000D01*
Y1832586D01*
X2371979Y1837364D01*
X2375636Y1841021D01*
X2380414Y1843000D01*
X2401000D01*
X2402366Y1843134D01*
X2404889Y1844180D01*
X2406820Y1846111D01*
X2407865Y1848634D01*
X2408000Y1850000D01*
Y1857094D01*
X2408693D01*
Y1899000D01*
X2420252D01*
Y1857094D01*
D02*
G37*
G36*
X3463329Y1612955D02*
X3468955Y1607329D01*
X3472000Y1599978D01*
Y1596000D01*
Y1476000D01*
Y1472022D01*
X3468955Y1464671D01*
X3463329Y1459045D01*
X3455978Y1456000D01*
X3283204D01*
X3281734Y1456609D01*
X3280609Y1457734D01*
X3280000Y1459204D01*
Y1460000D01*
Y1596000D01*
X3374000D01*
X3374780Y1596077D01*
X3376222Y1596674D01*
X3377326Y1597778D01*
X3377923Y1599220D01*
X3378000Y1600000D01*
Y1603182D01*
X3380436Y1609063D01*
X3384937Y1613564D01*
X3390817Y1616000D01*
X3455978D01*
X3463329Y1612955D01*
D02*
G37*
G36*
X2922000Y1437000D02*
X2834000D01*
Y2080000D01*
X2922000D01*
Y1437000D01*
D02*
G37*
G36*
X3234063Y2160000D02*
X3238033Y2159987D01*
X3245361Y2156931D01*
X3250967Y2151308D01*
X3254000Y2143970D01*
X3254000Y2140000D01*
X3254000Y2140000D01*
Y1420000D01*
Y1416022D01*
X3250955Y1408671D01*
X3245329Y1403045D01*
X3237978Y1400000D01*
X2976022D01*
X2968671Y1403045D01*
X2963045Y1408671D01*
X2960000Y1416022D01*
Y1420000D01*
Y2134000D01*
Y2136561D01*
X2960999Y2141584D01*
X2962959Y2146315D01*
X2965804Y2150574D01*
X2969426Y2154195D01*
X2973684Y2157041D01*
X2978416Y2159001D01*
X2983439Y2160000D01*
X2986000D01*
X2986000Y2160000D01*
X3234063Y2160000D01*
D02*
G37*
G36*
X2142167Y1517924D02*
X2147263Y1515813D01*
X2151849Y1512749D01*
X2155749Y1508849D01*
X2158813Y1504263D01*
X2160924Y1499167D01*
X2162000Y1493758D01*
Y1491000D01*
X2162294Y1485021D01*
X2164627Y1473293D01*
X2169203Y1462245D01*
X2175846Y1452302D01*
X2184302Y1443846D01*
X2194245Y1437203D01*
X2205293Y1432627D01*
X2217021Y1430294D01*
X2223000Y1430000D01*
X2812193D01*
X2814399Y1429086D01*
X2816086Y1427399D01*
X2817000Y1425193D01*
Y1424000D01*
X2817173Y1422244D01*
X2818517Y1419000D01*
X2821000Y1416517D01*
X2824244Y1415173D01*
X2826000Y1415000D01*
X2859398D01*
X2860133Y1414696D01*
X2860695Y1414133D01*
X2861000Y1413398D01*
Y1413000D01*
Y1356000D01*
Y1355204D01*
X2860391Y1353734D01*
X2859266Y1352609D01*
X2858362Y1352235D01*
X1950000Y1352235D01*
X1950000D01*
X1950000D01*
X1947265Y1352235D01*
X1941901Y1353302D01*
X1936848Y1355394D01*
X1932300Y1358433D01*
X1928433Y1362300D01*
X1925394Y1366848D01*
X1923302Y1371901D01*
X1923000Y1373417D01*
Y1376000D01*
Y1472000D01*
Y1476629D01*
X1924806Y1485709D01*
X1928349Y1494263D01*
X1933493Y1501961D01*
X1940039Y1508507D01*
X1947737Y1513651D01*
X1956291Y1517194D01*
X1965371Y1519000D01*
X2136758D01*
X2142167Y1517924D01*
D02*
G37*
D10*
X2878211Y1489664D02*
G03*
X2874875Y1493000I-3336J0D01*
G01*
X2774000D02*
X2874875D01*
D11*
X2473528Y1677472D02*
G03*
X2472000Y1679000I-1528J0D01*
G01*
X2131323Y1821000D02*
G03*
X2138685Y1828362I0J7362D01*
G01*
X2089000Y1827653D02*
G03*
X2095653Y1821000I6654J0D01*
G01*
X2089000Y1778000D02*
G03*
X2097000Y1770000I8000J0D01*
G01*
X2115000Y1752000D02*
G03*
X2097000Y1770000I-18000J0D01*
G01*
X2115000Y1747000D02*
G03*
X2136000Y1726000I21000J0D01*
G01*
X2510000Y1925000D02*
G03*
X2493213Y1908213I0J-16787D01*
G01*
X2772812Y1776000D02*
G03*
X2811627Y1814815I0J38815D01*
G01*
X2757008Y1821622D02*
G03*
X2808000Y1872614I0J50992D01*
G01*
X2267992Y1517000D02*
G03*
X2288992Y1538000I0J21000D01*
G01*
X2323008D02*
G03*
X2335732Y1550724I0J12724D01*
G01*
X2572000Y1903000D02*
G03*
X2646000Y1977000I0J74000D01*
G01*
X2572000Y1903000D02*
G03*
X2552268Y1883268I0J-19732D01*
G01*
X2549000Y1927000D02*
G03*
X2600000Y1978000I0J51000D01*
G01*
X2549000Y1927000D02*
G03*
X2532583Y1910583I0J-16417D01*
G01*
X2462000Y1836000D02*
G03*
X2473528Y1847528I0J11528D01*
G01*
X2510449Y1950000D02*
G03*
X2546000Y1985551I0J35551D01*
G01*
X2470000Y1950000D02*
G03*
X2453843Y1933842I0J-16157D01*
G01*
X2493992Y1606162D02*
G03*
X2493105Y1610280I-10000J0D01*
G01*
X2493992Y1593441D02*
G03*
X2493997Y1593100I13000J0D01*
G01*
X2494000Y1592793D02*
G03*
X2493997Y1593100I-10000J45D01*
G01*
X2484000Y1562000D02*
G03*
X2494000Y1572000I0J10000D01*
G01*
X2414472Y1577528D02*
G03*
X2430000Y1562000I15528J0D01*
G01*
X2376000Y1950000D02*
G03*
X2378000Y1952000I0J2000D01*
G01*
X3309268Y1630000D02*
G03*
X3308268Y1629000I0J-1000D01*
G01*
X3308921Y1850000D02*
G03*
X3307921Y1849000I0J-1000D01*
G01*
X2473528Y1610173D02*
Y1677472D01*
X2190000Y2041452D02*
Y2070000D01*
Y2041452D02*
X2190222Y2041230D01*
X2188992Y2040000D02*
X2190222Y2041230D01*
X2499218Y2019567D02*
Y2051218D01*
X2131323Y1821000D02*
X2166992D01*
X2095653D02*
X2131323D01*
X2138685Y1828362D02*
Y1871000D01*
X2089000Y1778000D02*
Y1827653D01*
X2115000Y1747000D02*
Y1752000D01*
X2136000Y1726000D02*
X2166992D01*
Y1766000D01*
X2510000Y1925000D02*
X2510603D01*
X2757008Y1694547D02*
Y1696000D01*
Y1694547D02*
X2760508Y1691047D01*
X2773579D01*
X2784357Y1680270D01*
X2798343D01*
X2799735Y1678877D01*
X2782326Y1710682D02*
X2794441D01*
X2757008Y1736000D02*
X2782326Y1710682D01*
X2757008Y1776000D02*
X2772812D01*
X2809964Y1814815D02*
X2811627D01*
X2757008Y1776000D02*
Y1776002D01*
X2760508Y1779502D01*
X2808000Y1872614D02*
Y1974000D01*
X2757008Y1821622D02*
X2757008Y1816000D01*
X2756443Y1581623D02*
X2757008Y1582188D01*
Y1656000D01*
X2760000Y1858992D02*
Y2060000D01*
X2757008Y1856000D02*
X2760000Y1858992D01*
X2239000Y1751000D02*
X2254000D01*
X2493213Y1881827D02*
Y1908213D01*
X2447000Y1836000D02*
X2462000D01*
X2190000Y1517000D02*
X2267992D01*
X2335732Y1550724D02*
Y1610173D01*
X2414472Y1775528D02*
Y1881827D01*
X2375102D02*
Y1950000D01*
X2512898Y1497102D02*
Y1610173D01*
X2646000Y1977000D02*
Y2007000D01*
X2552268Y1881827D02*
Y1883268D01*
X2532583Y1881827D02*
Y1910583D01*
X2600000Y1978000D02*
Y2005000D01*
X2473528Y1847528D02*
Y1881827D01*
X2470000Y1950000D02*
X2510449D01*
X2453843Y1881827D02*
Y1933842D01*
X2457218Y1985551D02*
X2499218D01*
X2415218D02*
X2457218D01*
X2684000Y1840000D02*
Y1846000D01*
X2104000Y1679000D02*
X2111000Y1686000D01*
X2414000Y1928000D02*
Y1984333D01*
X2394787Y1908787D02*
X2414000Y1928000D01*
Y1984333D02*
X2415218Y1985551D01*
X2394787Y1881827D02*
Y1908787D01*
X2308173Y1775528D02*
X2349559D01*
X2355417Y1781386D01*
Y1881827D01*
X2493104Y1610281D02*
X2493105Y1610280D01*
X2493992Y1593441D02*
Y1606162D01*
X2493997Y1593100D02*
X2493997D01*
X2494000Y1592793D02*
Y1592793D01*
Y1572000D02*
Y1592793D01*
X2430000Y1562000D02*
X2484000D01*
X2414472Y1577528D02*
Y1610173D01*
X2375102Y1952000D02*
Y2005102D01*
X2156000Y1952000D02*
X2188992D01*
X2223008Y1996000D02*
Y2040000D01*
Y1952000D02*
Y1996000D01*
X2681008Y1753249D02*
X2685065Y1757306D01*
X3309719Y1629549D02*
X3363526D01*
X3309268Y1630000D02*
X3309719Y1629549D01*
X3308921Y1850000D02*
X3366000D01*
X3308268Y2069000D02*
Y2117732D01*
X2681008Y1753249D02*
Y1756000D01*
Y1744685D02*
Y1753249D01*
X2677508Y1749749D02*
X2681008Y1753249D01*
X2646000Y1484992D02*
X2647496Y1483496D01*
X2682504D01*
X2684000Y1482000D01*
X2602000Y1519008D02*
X2646000D01*
X2558000D02*
X2602000D01*
X2532583Y1585086D02*
Y1610173D01*
X2558000Y1519008D02*
Y1559669D01*
X2532583Y1585086D02*
X2558000Y1559669D01*
X2525008Y1484992D02*
X2558000D01*
X2512898Y1497102D02*
X2525008Y1484992D01*
X2188992Y1923487D02*
Y1952000D01*
X2248000Y1846000D02*
Y1911771D01*
X2242142Y1917629D02*
X2248000Y1911771D01*
X2194850Y1917629D02*
X2242142D01*
X2188992Y1923487D02*
X2194850Y1917629D01*
X2259417Y1834583D02*
X2308173D01*
X2248000Y1846000D02*
X2259417Y1834583D01*
X2223008Y1952000D02*
X2268000D01*
X2276000Y1944000D01*
Y1860126D02*
Y1944000D01*
X2281858Y1854268D02*
X2308173D01*
X2276000Y1860126D02*
X2281858Y1854268D01*
X2389567Y2019567D02*
X2415218D01*
X2375102Y2005102D02*
X2389567Y2019567D01*
X2111000Y1686000D02*
X2254000D01*
X2579827Y1677102D02*
X2639201D01*
X2579827Y1755842D02*
X2643492D01*
X2221028Y1814189D02*
X2279374Y1755842D01*
X2614811Y1842590D02*
X2643582D01*
X2620331Y1815000D02*
X2659000D01*
X2633107Y1731189D02*
X2667512D01*
X2628139Y1736158D02*
X2633107Y1731189D01*
X2620000Y1626000D02*
X2692992D01*
X2716181Y1649189D02*
X2719492D01*
X2692992Y1626000D02*
X2716181Y1649189D01*
X2620112Y1657417D02*
X2632340Y1645189D01*
X2682072D01*
X2201008Y1726000D02*
X2249000D01*
X2659000Y1815000D02*
X2684000Y1840000D01*
X2639201Y1677102D02*
X2648992Y1667311D01*
X2643492Y1755842D02*
X2646992Y1752342D01*
Y1750000D02*
Y1752342D01*
X2606804Y1834583D02*
X2614811Y1842590D01*
X2579827Y1834583D02*
X2606804D01*
X2279374Y1755842D02*
X2308173D01*
X2254000Y1751000D02*
X2268843Y1736158D01*
X2200162Y1818035D02*
Y1870153D01*
X2719492Y1649189D02*
X2722992Y1652689D01*
Y1656000D01*
X2643582Y1842590D02*
X2646992Y1846000D01*
X2667512Y1731189D02*
X2681008Y1744685D01*
X2687971Y1651088D02*
Y1663473D01*
X2682072Y1645189D02*
X2687971Y1651088D01*
X2648992Y1664000D02*
Y1667311D01*
X2579827Y1814898D02*
X2620229D01*
X2620331Y1815000D01*
X2579827Y1736158D02*
X2628139D01*
X2608268Y1637732D02*
X2620000Y1626000D01*
X2579827Y1637732D02*
X2608268D01*
X2579827Y1657417D02*
X2620112D01*
X2308173Y1795213D02*
Y1814898D01*
X2249000Y1726000D02*
X2258528Y1716472D01*
X2308173D01*
X2268843Y1736158D02*
X2308173D01*
X2254000Y1686000D02*
X2264787Y1696787D01*
X2308173D01*
X2199315Y1871000D02*
X2200162Y1870153D01*
Y1818035D02*
X2204008Y1814189D01*
X2221028D01*
D12*
X2247307Y1646315D02*
G03*
X2249000Y1648008I0J1693D01*
G01*
X2359821Y2082000D02*
G03*
X2334000Y2056179I0J-25821D01*
G01*
X2468000Y2082000D02*
G03*
X2460000Y2074000I0J-8000D01*
G01*
X2546000Y2065000D02*
G03*
X2529000Y2082000I-17000J0D01*
G01*
X2457218Y2019567D02*
G03*
X2460000Y2022349I0J2782D01*
G01*
X2204000Y1646315D02*
X2247307D01*
X2359821Y2082000D02*
X2468000D01*
X2334000Y2017008D02*
Y2056179D01*
X2468000Y2082000D02*
X2529000D01*
X2460000Y2022349D02*
Y2074000D01*
X2546000Y2019567D02*
Y2065000D01*
D13*
X2414472Y1775528D02*
G03*
X2444000Y1746000I29528J0D01*
G01*
X2213862Y1564070D02*
X2229257Y1548675D01*
X2240615D02*
X2242529Y1546761D01*
X2213862Y1564070D02*
Y1581685D01*
X2229257Y1548675D02*
X2240615D01*
X2209862Y1585685D02*
X2213862Y1581685D01*
X2204000Y1585685D02*
X2214315D01*
D14*
X2335732Y1981260D02*
G03*
X2334000Y1982992I-1732J0D01*
G01*
X2139000Y1791000D02*
G03*
X2130000Y1782000I0J-9000D01*
G01*
X2313565Y1980196D02*
X2331204D01*
X2299103Y1965734D02*
X2313565Y1980196D01*
X2129915Y1782085D02*
Y1789305D01*
Y1782085D02*
X2130000Y1782000D01*
X2214315Y1585685D02*
X2238685D01*
X2331204Y1980196D02*
X2334000Y1982992D01*
X2335732Y1881827D02*
Y1981260D01*
X2139000Y1791000D02*
X2194314D01*
X2111315Y1585685D02*
X2204000D01*
X2608386Y1872000D02*
X2710303D01*
X2722992Y1859311D01*
X2634000Y1782000D02*
X2718492D01*
X2627373Y1798000D02*
X2674000D01*
X2627528Y1775528D02*
X2634000Y1782000D01*
X2692000Y1816000D02*
X2722992D01*
X2580220Y1696394D02*
X2722598D01*
X2626066Y1714189D02*
X2680681D01*
X2702492Y1736000D02*
X2722992D01*
X2239000Y1751000D02*
Y1756000D01*
X2280102Y1677102D02*
X2308173D01*
X2274000Y1671000D02*
X2280102Y1677102D01*
X2249000Y1596000D02*
Y1613992D01*
X2238685Y1585685D02*
X2249000Y1596000D01*
X2201008Y1726000D02*
Y1766000D01*
X2104000Y1593000D02*
X2111315Y1585685D01*
X2722992Y1856000D02*
Y1859311D01*
Y1776000D02*
Y1777500D01*
X2718492Y1782000D02*
X2722992Y1777500D01*
X2722598Y1696394D02*
X2722992Y1696000D01*
X2674000Y1798000D02*
X2692000Y1816000D01*
X2680681Y1714189D02*
X2702492Y1736000D01*
X2590654Y1854268D02*
X2608386Y1872000D01*
X2579827Y1854268D02*
X2590654D01*
X2624585Y1795213D02*
X2627373Y1798000D01*
X2579827Y1795213D02*
X2624585D01*
X2579827Y1775528D02*
X2627528D01*
X2579827Y1716472D02*
X2581052Y1715248D01*
X2625007D02*
X2626066Y1714189D01*
X2581052Y1715248D02*
X2625007D01*
X2579827Y1696787D02*
X2580220Y1696394D01*
X2274000Y1618678D02*
Y1671000D01*
X2249000Y1613992D02*
X2269314D01*
X2274000Y1618678D01*
X2199000Y1768008D02*
X2201008Y1766000D01*
X2199000Y1768008D02*
Y1786314D01*
X2194314Y1791000D02*
X2199000Y1786314D01*
D15*
X2089000Y1694000D02*
G03*
X2104000Y1679000I15000J0D01*
G01*
X2089000Y1694000D02*
Y1734347D01*
D16*
X2774000Y1493000D02*
D03*
D17*
X2703000Y2131000D02*
D03*
Y1385000D02*
D03*
D18*
X1967779Y1818324D02*
D03*
X1968000Y1741000D02*
D03*
D19*
X2647906Y2005382D02*
D03*
X2600000Y2005000D02*
D03*
D20*
X2022000Y2060000D02*
D03*
X2012000Y1440000D02*
D03*
D21*
X3430000Y1536000D02*
D03*
Y1756000D02*
D03*
Y1984000D02*
D03*
D22*
X2890055Y1852000D02*
D03*
X3001945D02*
D03*
X2889055Y1475000D02*
D03*
X3000945D02*
D03*
X2890055Y1566000D02*
D03*
X3001945D02*
D03*
X2890055Y1662000D02*
D03*
X3001945D02*
D03*
X2890055Y1947000D02*
D03*
X3001945D02*
D03*
X2890055Y2042000D02*
D03*
X3001945D02*
D03*
X2890055Y1757000D02*
D03*
X3001945D02*
D03*
D23*
X3308268Y1479000D02*
D03*
Y1529000D02*
D03*
Y1579000D02*
D03*
Y1629000D02*
D03*
X3307921Y1699000D02*
D03*
Y1749000D02*
D03*
Y1799000D02*
D03*
Y1849000D02*
D03*
X3308268Y1919000D02*
D03*
Y1969000D02*
D03*
Y2019000D02*
D03*
Y2069000D02*
D03*
D24*
X3083858Y1629000D02*
D03*
Y1579000D02*
D03*
Y1529000D02*
D03*
Y1479000D02*
D03*
X3083512Y1849000D02*
D03*
Y1799000D02*
D03*
Y1749000D02*
D03*
Y1699000D02*
D03*
X3083858Y2069000D02*
D03*
Y2019000D02*
D03*
Y1969000D02*
D03*
Y1919000D02*
D03*
D25*
X3178347Y1554000D02*
D03*
X3178000Y1774000D02*
D03*
X3178347Y1994000D02*
D03*
D26*
X2104000Y1679000D02*
D03*
Y1593000D02*
D03*
D27*
X2249000Y1648008D02*
D03*
Y1613992D02*
D03*
X2334000Y2017008D02*
D03*
Y1982992D02*
D03*
D28*
X2681008Y1846000D02*
D03*
X2646992D02*
D03*
X2681008Y1756000D02*
D03*
X2646992D02*
D03*
X2681008Y1670000D02*
D03*
X2646992D02*
D03*
X2757008Y1856000D02*
D03*
X2722992D02*
D03*
X2757008Y1816000D02*
D03*
X2722992D02*
D03*
X2757008Y1776000D02*
D03*
X2722992D02*
D03*
X2757008Y1736000D02*
D03*
X2722992D02*
D03*
X2757008Y1696000D02*
D03*
X2722992D02*
D03*
X2757008Y1656000D02*
D03*
X2722992D02*
D03*
X2188992Y2040000D02*
D03*
X2223008D02*
D03*
Y1952000D02*
D03*
X2188992D02*
D03*
X2223008Y1996000D02*
D03*
X2188992D02*
D03*
X2288992Y1538000D02*
D03*
X2323008D02*
D03*
D29*
X2166992Y1766000D02*
D03*
X2201008D02*
D03*
X2166992Y1821000D02*
D03*
X2201008D02*
D03*
X2166992Y1726000D02*
D03*
X2201008D02*
D03*
D30*
X2089000Y1734347D02*
D03*
Y1827653D02*
D03*
D31*
X2308173Y1854268D02*
D03*
Y1834583D02*
D03*
Y1814898D02*
D03*
Y1795213D02*
D03*
Y1775528D02*
D03*
Y1755842D02*
D03*
Y1736158D02*
D03*
Y1716472D02*
D03*
Y1696787D02*
D03*
Y1677102D02*
D03*
Y1657417D02*
D03*
Y1637732D02*
D03*
X2579827D02*
D03*
Y1657417D02*
D03*
Y1677102D02*
D03*
Y1696787D02*
D03*
Y1716472D02*
D03*
Y1736158D02*
D03*
Y1755842D02*
D03*
Y1775528D02*
D03*
Y1795213D02*
D03*
Y1814898D02*
D03*
Y1834583D02*
D03*
Y1854268D02*
D03*
D32*
X2335732Y1610173D02*
D03*
X2355417D02*
D03*
X2375102D02*
D03*
X2394787D02*
D03*
X2414472D02*
D03*
X2434157D02*
D03*
X2453843D02*
D03*
X2473528D02*
D03*
X2493213D02*
D03*
X2512898D02*
D03*
X2532583D02*
D03*
X2552268D02*
D03*
Y1881827D02*
D03*
X2532583D02*
D03*
X2512898D02*
D03*
X2493213D02*
D03*
X2473528D02*
D03*
X2453843D02*
D03*
X2434157D02*
D03*
X2414472D02*
D03*
X2394787D02*
D03*
X2375102D02*
D03*
X2355417D02*
D03*
X2335732D02*
D03*
D33*
X2444000Y1746000D02*
D03*
D34*
X2204000Y1585685D02*
D03*
Y1646315D02*
D03*
D35*
X2199315Y1871000D02*
D03*
X2138685D02*
D03*
D36*
X2646000Y1484992D02*
D03*
Y1519008D02*
D03*
X2558000D02*
D03*
Y1484992D02*
D03*
X2499218Y2019567D02*
D03*
Y1985551D02*
D03*
X2415218D02*
D03*
Y2019567D02*
D03*
X2546000Y2019567D02*
D03*
Y1985551D02*
D03*
X2602000Y1519008D02*
D03*
Y1484992D02*
D03*
X2457218Y1985551D02*
D03*
Y2019567D02*
D03*
D37*
X2602000Y1484992D02*
D03*
X2240000Y1646000D02*
D03*
X2216000D02*
D03*
X2301000Y2023000D02*
D03*
X2275000Y2023508D02*
D03*
X2847779Y1856483D02*
D03*
X2178000Y1383000D02*
D03*
X2206000D02*
D03*
X2236000Y1384000D02*
D03*
X2264000D02*
D03*
X2293000Y1383000D02*
D03*
X2349000D02*
D03*
X2400000Y1384000D02*
D03*
X2426000D02*
D03*
X2455000Y1383000D02*
D03*
X2486000D02*
D03*
X2513000D02*
D03*
X2571000D02*
D03*
X2655000Y1384000D02*
D03*
X2740000D02*
D03*
X2796000D02*
D03*
X2827000D02*
D03*
X2854000D02*
D03*
X2884000Y1383000D02*
D03*
X2910000D02*
D03*
X2940000Y1382000D02*
D03*
X2320779Y1382108D02*
D03*
X2374070Y1383249D02*
D03*
X2627501Y1383851D02*
D03*
X2597974Y1383236D02*
D03*
X2542611Y1382620D02*
D03*
X2766643Y1383443D02*
D03*
X2713267Y1383425D02*
D03*
X2683034Y1383840D02*
D03*
X2678034Y2131840D02*
D03*
X2708267Y2131425D02*
D03*
X2761643Y2131443D02*
D03*
X2537611Y2130620D02*
D03*
X2592974Y2131236D02*
D03*
X2622501Y2131851D02*
D03*
X2369070Y2131249D02*
D03*
X2315779Y2130108D02*
D03*
X2935000Y2130000D02*
D03*
X2905000Y2131000D02*
D03*
X2879000D02*
D03*
X2849000Y2132000D02*
D03*
X2822000D02*
D03*
X2791000D02*
D03*
X2735000D02*
D03*
X2650000D02*
D03*
X2566000Y2131000D02*
D03*
X2508000D02*
D03*
X2481000D02*
D03*
X2450000D02*
D03*
X2421000Y2132000D02*
D03*
X2395000D02*
D03*
X2344000Y2131000D02*
D03*
X2288000D02*
D03*
X2259000Y2132000D02*
D03*
X2231000D02*
D03*
X2201000Y2131000D02*
D03*
X2173000D02*
D03*
X2904312Y1461599D02*
D03*
X2877649Y1462160D02*
D03*
X2905995Y1489103D02*
D03*
X2878211Y1489664D02*
D03*
X2906276Y1515765D02*
D03*
X2878772Y1516326D02*
D03*
X2901555Y1688395D02*
D03*
X2874709D02*
D03*
X2901001Y1716347D02*
D03*
X2874986Y1714963D02*
D03*
X2903547Y1742786D02*
D03*
X2875636D02*
D03*
X2903180Y1769963D02*
D03*
X2875636Y1771432D02*
D03*
X2903547Y1798976D02*
D03*
X2876370Y1799343D02*
D03*
X2903011Y1883677D02*
D03*
X2875090Y1884771D02*
D03*
X2904379Y1910776D02*
D03*
X2876185Y1915155D02*
D03*
X2902190Y1940612D02*
D03*
X2875364Y1941981D02*
D03*
X2901010Y1996258D02*
D03*
X2874679Y1994713D02*
D03*
X2902282Y1586805D02*
D03*
X2875413D02*
D03*
X1993000Y1740000D02*
D03*
X1944000D02*
D03*
X1994000Y1819000D02*
D03*
X1946000D02*
D03*
X2438000Y1755000D02*
D03*
X2411000Y1754000D02*
D03*
X2438000Y1783000D02*
D03*
X2409000D02*
D03*
X2060000Y2018000D02*
D03*
X1982000Y2020000D02*
D03*
X2072000Y2092000D02*
D03*
X2088000Y2072000D02*
D03*
Y2048000D02*
D03*
Y2024000D02*
D03*
X2080000Y2002000D02*
D03*
X2058000Y1994000D02*
D03*
X2034000D02*
D03*
X2010000D02*
D03*
X1986000D02*
D03*
X1964000Y2002000D02*
D03*
X1956000Y2026000D02*
D03*
Y2050000D02*
D03*
Y2074000D02*
D03*
X1980000Y2102000D02*
D03*
X1956000Y2098000D02*
D03*
X2082000Y2116000D02*
D03*
X2060000Y2126000D02*
D03*
X2036000D02*
D03*
X2012000D02*
D03*
X1990000D02*
D03*
X1966000Y2120000D02*
D03*
X2076000Y1482000D02*
D03*
X2046000D02*
D03*
X2060000Y1460000D02*
D03*
X2064000Y1436000D02*
D03*
X2046000Y1400000D02*
D03*
X2076000Y1412000D02*
D03*
X2072000Y1388000D02*
D03*
X2050000Y1374000D02*
D03*
X2026000D02*
D03*
X2002000D02*
D03*
X1978000Y1378000D02*
D03*
X1954000Y1382000D02*
D03*
X1946000Y1406000D02*
D03*
Y1430000D02*
D03*
Y1456000D02*
D03*
X1948000Y1482000D02*
D03*
X2062000Y1504000D02*
D03*
X2036000Y1506000D02*
D03*
X2012000D02*
D03*
X1988000D02*
D03*
X1962000Y1502000D02*
D03*
X2908000Y2022000D02*
D03*
X2884000Y2020000D02*
D03*
X2858000Y2016000D02*
D03*
X2848000Y1990000D02*
D03*
Y1910000D02*
D03*
Y1886000D02*
D03*
Y1714000D02*
D03*
Y1688000D02*
D03*
Y1588000D02*
D03*
X2852000Y1516000D02*
D03*
Y1490000D02*
D03*
Y1464000D02*
D03*
X3440000Y1474000D02*
D03*
X3414000D02*
D03*
X3390000D02*
D03*
X3366000D02*
D03*
X3342000D02*
D03*
X3438000Y1500000D02*
D03*
X3414000D02*
D03*
X3390000D02*
D03*
X3366000D02*
D03*
X3342000D02*
D03*
X3438000Y1526000D02*
D03*
X3414000D02*
D03*
X3390000D02*
D03*
X3366000D02*
D03*
X3342000D02*
D03*
X3438000Y1550000D02*
D03*
X3414000Y1552000D02*
D03*
X3390000D02*
D03*
X3366000D02*
D03*
X3342000D02*
D03*
X3442000Y1602000D02*
D03*
X3418000D02*
D03*
X3394000D02*
D03*
X3438000Y1578000D02*
D03*
X3414000D02*
D03*
X3390000D02*
D03*
X3366000D02*
D03*
X3342000D02*
D03*
X3316000Y1504000D02*
D03*
Y1554000D02*
D03*
X3442000Y1698000D02*
D03*
X3416000D02*
D03*
X3392000D02*
D03*
X3368000D02*
D03*
X3342000D02*
D03*
X3442000Y1722000D02*
D03*
X3416000D02*
D03*
X3392000D02*
D03*
X3368000D02*
D03*
X3342000D02*
D03*
X3440000Y1746000D02*
D03*
X3416000D02*
D03*
X3390000D02*
D03*
X3366000D02*
D03*
X3342000D02*
D03*
X3440000Y1772000D02*
D03*
X3416000D02*
D03*
X3390000D02*
D03*
X3366000D02*
D03*
X3342000D02*
D03*
X3446000Y1822000D02*
D03*
X3422000D02*
D03*
X3398000D02*
D03*
X3438000Y1798000D02*
D03*
X3414000D02*
D03*
X3390000D02*
D03*
X3366000D02*
D03*
X3342000D02*
D03*
X3316000Y1724000D02*
D03*
Y1774000D02*
D03*
X3446000Y1918000D02*
D03*
X3420000D02*
D03*
X3394000D02*
D03*
X3370000D02*
D03*
X3344000D02*
D03*
X3446000Y1944000D02*
D03*
X3420000D02*
D03*
X3394000D02*
D03*
X3370000D02*
D03*
X3344000D02*
D03*
X3446000Y1970000D02*
D03*
X3420000D02*
D03*
X3394000D02*
D03*
X3370000D02*
D03*
X3344000D02*
D03*
X3446000Y1994000D02*
D03*
X3420000D02*
D03*
X3394000D02*
D03*
X3370000D02*
D03*
X3344000D02*
D03*
X3316000Y1944000D02*
D03*
Y1994000D02*
D03*
X3446000Y2018000D02*
D03*
X3420000D02*
D03*
X3448000Y2048000D02*
D03*
X3424000D02*
D03*
X3400000D02*
D03*
X3376000D02*
D03*
X3394000Y2018000D02*
D03*
X3370000D02*
D03*
X3344000D02*
D03*
X3316142Y1969000D02*
D03*
X2512000Y1540000D02*
D03*
X3316142Y1479000D02*
D03*
Y1529000D02*
D03*
Y1579000D02*
D03*
Y1699000D02*
D03*
Y1749000D02*
D03*
Y1799000D02*
D03*
Y1919000D02*
D03*
Y2019000D02*
D03*
X3230000Y1414000D02*
D03*
X3206000D02*
D03*
X3182000D02*
D03*
X3158000D02*
D03*
X3134000D02*
D03*
X3108000D02*
D03*
X3084000D02*
D03*
X3058000D02*
D03*
X3032000D02*
D03*
X3006000D02*
D03*
X2980000D02*
D03*
X3236000Y1438000D02*
D03*
X3208000D02*
D03*
X3182000D02*
D03*
X3156000D02*
D03*
X3130000D02*
D03*
X3104000D02*
D03*
X3078000D02*
D03*
X3052000D02*
D03*
X3026000D02*
D03*
X3000000D02*
D03*
X2974000D02*
D03*
Y2140000D02*
D03*
X3000000D02*
D03*
X3026000D02*
D03*
X3052000D02*
D03*
X3078000D02*
D03*
X3104000D02*
D03*
X3130000D02*
D03*
X3156000D02*
D03*
X3182000D02*
D03*
X3208000D02*
D03*
X3234000D02*
D03*
Y2114000D02*
D03*
X3208000D02*
D03*
X3182000D02*
D03*
X3156000D02*
D03*
X3130000D02*
D03*
X3104000D02*
D03*
X3078000D02*
D03*
X3052000D02*
D03*
X3026000D02*
D03*
X3000000D02*
D03*
X2974000D02*
D03*
D38*
X2299103Y1965734D02*
D03*
X2190000Y2070000D02*
D03*
X2499218Y2051218D02*
D03*
X2794441Y1710682D02*
D03*
X2799735Y1678877D02*
D03*
X2811627Y1814815D02*
D03*
X2756443Y1581623D02*
D03*
X2760000Y2060000D02*
D03*
X2129915Y1789305D02*
D03*
X1969864Y1818942D02*
D03*
X2447000Y1836000D02*
D03*
X1968000Y1741000D02*
D03*
X2190000Y1517000D02*
D03*
X2510603Y1925000D02*
D03*
X2242529Y1546761D02*
D03*
X2376000Y1950000D02*
D03*
X2156000Y1952000D02*
D03*
X2808000Y1974000D02*
D03*
X3363526Y1629549D02*
D03*
X3366000Y1850000D02*
D03*
X3308268Y2117732D02*
D03*
X2684000Y1482000D02*
D03*
X2239000Y1756000D02*
D03*
X2685971Y1669473D02*
D03*
X2685065Y1757306D02*
D03*
X2684000Y1846000D02*
D03*
D39*
X2022386Y2061758D02*
D03*
X2006000Y1442000D02*
D03*
%TF.MD5,b1f350d86299a245e4420ee6c86dc7e3*%
M02*
