%TF.GenerationSoftware,Altium Limited,Altium Designer,20.2.3 (150)*%
G04 Layer_Color=8388736*
%FSLAX26Y26*%
%MOIN*%
%TF.SameCoordinates,27716F98-0B22-40FE-96F5-AA6DB086EB47*%
%TF.FilePolarity,Negative*%
%TF.FileFunction,Soldermask,Top*%
%TF.Part,Single*%
G01*
G75*
%TA.AperFunction,SMDPad,CuDef*%
%ADD26R,0.106000X0.039000*%
%ADD43R,0.065087X0.041465*%
%ADD44R,0.049339X0.041465*%
%ADD45R,0.155638X0.193039*%
%TA.AperFunction,SMDPad,SMDef*%
G04:AMPARAMS|DCode=49|XSize=72.74mil|YSize=53.055mil|CornerRadius=11.764mil|HoleSize=0mil|Usage=FLASHONLY|Rotation=270.000|XOffset=0mil|YOffset=0mil|HoleType=Round|Shape=RoundedRectangle|*
%AMROUNDEDRECTD49*
21,1,0.072740,0.029527,0,0,270.0*
21,1,0.049213,0.053055,0,0,270.0*
1,1,0.023528,-0.014764,-0.024606*
1,1,0.023528,-0.014764,0.024606*
1,1,0.023528,0.014764,0.024606*
1,1,0.023528,0.014764,-0.024606*
%
%ADD49ROUNDEDRECTD49*%
G04:AMPARAMS|DCode=50|XSize=53.055mil|YSize=1096.362mil|CornerRadius=11.764mil|HoleSize=0mil|Usage=FLASHONLY|Rotation=90.000|XOffset=0mil|YOffset=0mil|HoleType=Round|Shape=RoundedRectangle|*
%AMROUNDEDRECTD50*
21,1,0.053055,1.072835,0,0,90.0*
21,1,0.029527,1.096362,0,0,90.0*
1,1,0.023528,0.536417,0.014764*
1,1,0.023528,0.536417,-0.014764*
1,1,0.023528,-0.536417,-0.014764*
1,1,0.023528,-0.536417,0.014764*
%
%ADD50ROUNDEDRECTD50*%
G04:AMPARAMS|DCode=51|XSize=33.37mil|YSize=72.74mil|CornerRadius=6.843mil|HoleSize=0mil|Usage=FLASHONLY|Rotation=90.000|XOffset=0mil|YOffset=0mil|HoleType=Round|Shape=RoundedRectangle|*
%AMROUNDEDRECTD51*
21,1,0.033370,0.059055,0,0,90.0*
21,1,0.019685,0.072740,0,0,90.0*
1,1,0.013685,0.029528,0.009843*
1,1,0.013685,0.029528,-0.009843*
1,1,0.013685,-0.029528,-0.009843*
1,1,0.013685,-0.029528,0.009843*
%
%ADD51ROUNDEDRECTD51*%
G04:AMPARAMS|DCode=52|XSize=33.37mil|YSize=33.37mil|CornerRadius=6.843mil|HoleSize=0mil|Usage=FLASHONLY|Rotation=90.000|XOffset=0mil|YOffset=0mil|HoleType=Round|Shape=RoundedRectangle|*
%AMROUNDEDRECTD52*
21,1,0.033370,0.019685,0,0,90.0*
21,1,0.019685,0.033370,0,0,90.0*
1,1,0.013685,0.009843,0.009843*
1,1,0.013685,0.009843,-0.009843*
1,1,0.013685,-0.009843,-0.009843*
1,1,0.013685,-0.009843,0.009843*
%
%ADD52ROUNDEDRECTD52*%
G04:AMPARAMS|DCode=53|XSize=151.48mil|YSize=151.48mil|CornerRadius=36.37mil|HoleSize=0mil|Usage=FLASHONLY|Rotation=270.000|XOffset=0mil|YOffset=0mil|HoleType=Round|Shape=RoundedRectangle|*
%AMROUNDEDRECTD53*
21,1,0.151480,0.078740,0,0,270.0*
21,1,0.078740,0.151480,0,0,270.0*
1,1,0.072740,-0.039370,-0.039370*
1,1,0.072740,-0.039370,0.039370*
1,1,0.072740,0.039370,0.039370*
1,1,0.072740,0.039370,-0.039370*
%
%ADD53ROUNDEDRECTD53*%
G04:AMPARAMS|DCode=54|XSize=151.48mil|YSize=72.74mil|CornerRadius=16.685mil|HoleSize=0mil|Usage=FLASHONLY|Rotation=90.000|XOffset=0mil|YOffset=0mil|HoleType=Round|Shape=RoundedRectangle|*
%AMROUNDEDRECTD54*
21,1,0.151480,0.039370,0,0,90.0*
21,1,0.118110,0.072740,0,0,90.0*
1,1,0.033370,0.019685,0.059055*
1,1,0.033370,0.019685,-0.059055*
1,1,0.033370,-0.019685,-0.059055*
1,1,0.033370,-0.019685,0.059055*
%
%ADD54ROUNDEDRECTD54*%
%TA.AperFunction,SMDPad,CuDef*%
%ADD55R,0.061937X0.083197*%
%ADD56R,0.031622X0.024000*%
%ADD57R,0.025000X0.031622*%
%ADD58R,0.024000X0.031622*%
%ADD59R,0.027685X0.049339*%
%ADD60R,0.041465X0.019811*%
%ADD61R,0.019811X0.041465*%
%ADD62R,0.114299X0.114299*%
%ADD63R,0.044614X0.028000*%
%ADD64R,0.028000X0.044614*%
%ADD65R,0.031622X0.025000*%
D26*
X2104000Y1679000D02*
D03*
Y1593000D02*
D03*
D43*
X3308268Y1479000D02*
D03*
Y1529000D02*
D03*
Y1579000D02*
D03*
Y1629000D02*
D03*
X3307921Y1699000D02*
D03*
Y1749000D02*
D03*
Y1799000D02*
D03*
Y1849000D02*
D03*
X3308268Y1919000D02*
D03*
Y1969000D02*
D03*
Y2019000D02*
D03*
Y2069000D02*
D03*
D44*
X3083858Y1629000D02*
D03*
Y1579000D02*
D03*
Y1529000D02*
D03*
Y1479000D02*
D03*
X3083512Y1849000D02*
D03*
Y1799000D02*
D03*
Y1749000D02*
D03*
Y1699000D02*
D03*
X3083858Y2069000D02*
D03*
Y2019000D02*
D03*
Y1969000D02*
D03*
Y1919000D02*
D03*
D45*
X3178347Y1554000D02*
D03*
X3178000Y1774000D02*
D03*
X3178347Y1994000D02*
D03*
D49*
X2774000Y1493000D02*
D03*
D50*
X2703000Y2131000D02*
D03*
Y1385000D02*
D03*
D51*
X1967779Y1818324D02*
D03*
X1968000Y1741000D02*
D03*
D52*
X2647906Y2005382D02*
D03*
X2600000Y2005000D02*
D03*
D53*
X2022000Y2060000D02*
D03*
X2012000Y1440000D02*
D03*
D54*
X3430000Y1536000D02*
D03*
Y1756000D02*
D03*
Y1984000D02*
D03*
D55*
X2890055Y1852000D02*
D03*
X3001945D02*
D03*
X2889055Y1475000D02*
D03*
X3000945D02*
D03*
X2890055Y1566000D02*
D03*
X3001945D02*
D03*
X2890055Y1662000D02*
D03*
X3001945D02*
D03*
X2890055Y1947000D02*
D03*
X3001945D02*
D03*
X2890055Y2042000D02*
D03*
X3001945D02*
D03*
X2890055Y1757000D02*
D03*
X3001945D02*
D03*
D56*
X2249000Y1648008D02*
D03*
Y1613992D02*
D03*
X2334000Y2017008D02*
D03*
Y1982992D02*
D03*
D57*
X2681008Y1846000D02*
D03*
X2646992D02*
D03*
X2681008Y1756000D02*
D03*
X2646992D02*
D03*
X2681008Y1670000D02*
D03*
X2646992D02*
D03*
X2757008Y1856000D02*
D03*
X2722992D02*
D03*
X2757008Y1816000D02*
D03*
X2722992D02*
D03*
X2757008Y1776000D02*
D03*
X2722992D02*
D03*
X2757008Y1736000D02*
D03*
X2722992D02*
D03*
X2757008Y1696000D02*
D03*
X2722992D02*
D03*
X2757008Y1656000D02*
D03*
X2722992D02*
D03*
X2188992Y2040000D02*
D03*
X2223008D02*
D03*
Y1952000D02*
D03*
X2188992D02*
D03*
X2223008Y1996000D02*
D03*
X2188992D02*
D03*
X2288992Y1538000D02*
D03*
X2323008D02*
D03*
D58*
X2166992Y1766000D02*
D03*
X2201008D02*
D03*
X2166992Y1821000D02*
D03*
X2201008D02*
D03*
X2166992Y1726000D02*
D03*
X2201008D02*
D03*
D59*
X2089000Y1734347D02*
D03*
Y1827653D02*
D03*
D60*
X2308173Y1854268D02*
D03*
Y1834583D02*
D03*
Y1814898D02*
D03*
Y1795213D02*
D03*
Y1775528D02*
D03*
Y1755842D02*
D03*
Y1736158D02*
D03*
Y1716472D02*
D03*
Y1696787D02*
D03*
Y1677102D02*
D03*
Y1657417D02*
D03*
Y1637732D02*
D03*
X2579827D02*
D03*
Y1657417D02*
D03*
Y1677102D02*
D03*
Y1696787D02*
D03*
Y1716472D02*
D03*
Y1736158D02*
D03*
Y1755842D02*
D03*
Y1775528D02*
D03*
Y1795213D02*
D03*
Y1814898D02*
D03*
Y1834583D02*
D03*
Y1854268D02*
D03*
D61*
X2335732Y1610173D02*
D03*
X2355417D02*
D03*
X2375102D02*
D03*
X2394787D02*
D03*
X2414472D02*
D03*
X2434157D02*
D03*
X2453843D02*
D03*
X2473528D02*
D03*
X2493213D02*
D03*
X2512898D02*
D03*
X2532583D02*
D03*
X2552268D02*
D03*
Y1881827D02*
D03*
X2532583D02*
D03*
X2512898D02*
D03*
X2493213D02*
D03*
X2473528D02*
D03*
X2453843D02*
D03*
X2434157D02*
D03*
X2414472D02*
D03*
X2394787D02*
D03*
X2375102D02*
D03*
X2355417D02*
D03*
X2335732D02*
D03*
D62*
X2444000Y1746000D02*
D03*
D63*
X2204000Y1585685D02*
D03*
Y1646315D02*
D03*
D64*
X2199315Y1871000D02*
D03*
X2138685D02*
D03*
D65*
X2646000Y1484992D02*
D03*
Y1519008D02*
D03*
X2558000D02*
D03*
Y1484992D02*
D03*
X2499218Y2019567D02*
D03*
Y1985551D02*
D03*
X2415218D02*
D03*
Y2019567D02*
D03*
X2546000Y2019567D02*
D03*
Y1985551D02*
D03*
X2602000Y1519008D02*
D03*
Y1484992D02*
D03*
X2457218Y1985551D02*
D03*
Y2019567D02*
D03*
%TF.MD5,653a76389344d9d255449d0e073e919b*%
M02*
