%TF.GenerationSoftware,Altium Limited,Altium Designer,20.2.3 (150)*%
G04 Layer_Physical_Order=5*
G04 Layer_Color=16737945*
%FSLAX26Y26*%
%MOIN*%
%TF.SameCoordinates,27716F98-0B22-40FE-96F5-AA6DB086EB47*%
%TF.FilePolarity,Positive*%
%TF.FileFunction,Copper,L5,Inr,Signal*%
%TF.Part,Single*%
G01*
G75*
%TA.AperFunction,ViaPad*%
%ADD37C,0.023622*%
%ADD38C,0.022000*%
%ADD39C,0.090551*%
G36*
X3253000Y1352235D02*
X1950000Y1352235D01*
X1947265Y1352235D01*
X1941901Y1353302D01*
X1936848Y1355394D01*
X1932300Y1358433D01*
X1928433Y1362300D01*
X1925394Y1366848D01*
X1923302Y1371901D01*
X1922235Y1377265D01*
Y1380000D01*
Y1711474D01*
X1933825Y1719620D01*
X1938235Y1720948D01*
X1944000Y1719801D01*
X1951730Y1721339D01*
X1957478Y1725179D01*
X1960587Y1723102D01*
X1968000Y1721628D01*
X1975413Y1723102D01*
X1979022Y1725514D01*
X1985270Y1721339D01*
X1993000Y1719801D01*
X2000730Y1721339D01*
X2007283Y1725717D01*
X2011661Y1732270D01*
X2013199Y1740000D01*
X2011661Y1747730D01*
X2007283Y1754283D01*
X2000730Y1758661D01*
X1993000Y1760199D01*
X1985270Y1758661D01*
X1980518Y1755486D01*
X1975413Y1758898D01*
X1968000Y1760372D01*
X1960587Y1758898D01*
X1955982Y1755821D01*
X1951730Y1758661D01*
X1944000Y1760199D01*
X1938235Y1759052D01*
X1933825Y1760380D01*
X1922235Y1768526D01*
Y1792302D01*
X1938235Y1800362D01*
X1938270Y1800339D01*
X1946000Y1798801D01*
X1953730Y1800339D01*
X1958618Y1803605D01*
X1962450Y1801044D01*
X1969864Y1799570D01*
X1977277Y1801044D01*
X1981245Y1803696D01*
X1986270Y1800339D01*
X1994000Y1798801D01*
X2001730Y1800339D01*
X2008283Y1804717D01*
X2012661Y1811270D01*
X2014199Y1819000D01*
X2012661Y1826730D01*
X2008283Y1833283D01*
X2001730Y1837661D01*
X1994000Y1839199D01*
X1986270Y1837661D01*
X1981159Y1834246D01*
X1977277Y1836840D01*
X1969864Y1838314D01*
X1962450Y1836840D01*
X1958705Y1834337D01*
X1953730Y1837661D01*
X1946000Y1839199D01*
X1938270Y1837661D01*
X1938235Y1837638D01*
X1922235Y1845698D01*
Y2006755D01*
X1934100Y2014969D01*
X1943874Y2002368D01*
X1943801Y2002000D01*
X1945339Y1994270D01*
X1949717Y1987717D01*
X1956270Y1983339D01*
X1964000Y1981801D01*
X1969583Y1982911D01*
X1971717Y1979717D01*
X1978270Y1975339D01*
X1986000Y1973801D01*
X1993730Y1975339D01*
X1998000Y1978192D01*
X2002270Y1975339D01*
X2010000Y1973801D01*
X2017730Y1975339D01*
X2022000Y1978192D01*
X2026270Y1975339D01*
X2034000Y1973801D01*
X2041730Y1975339D01*
X2046000Y1978192D01*
X2050270Y1975339D01*
X2058000Y1973801D01*
X2065730Y1975339D01*
X2072283Y1979717D01*
X2074417Y1982911D01*
X2080000Y1981801D01*
X2087730Y1983339D01*
X2094283Y1987717D01*
X2098662Y1994270D01*
X2100199Y2002000D01*
X2099089Y2007583D01*
X2102283Y2009717D01*
X2106662Y2016270D01*
X2108199Y2024000D01*
X2106662Y2031730D01*
X2103808Y2036000D01*
X2106662Y2040270D01*
X2108199Y2048000D01*
X2106662Y2055730D01*
X2103808Y2060000D01*
X2106662Y2064270D01*
X2108199Y2072000D01*
X2106662Y2079730D01*
X2102283Y2086283D01*
X2102133Y2086383D01*
X2097504Y2098517D01*
X2099218Y2106109D01*
X2100662Y2108270D01*
X2102199Y2116000D01*
X2100662Y2123730D01*
X2096283Y2130283D01*
X2089730Y2134662D01*
X2085971Y2135409D01*
X2080894Y2141765D01*
X2086177Y2154815D01*
X2089443Y2157765D01*
X3090000Y2157765D01*
X3253000D01*
Y1352235D01*
D02*
G37*
%LPC*%
G36*
X2190000Y2089372D02*
X2182587Y2087898D01*
X2176302Y2083698D01*
X2172102Y2077413D01*
X2170628Y2070000D01*
X2172102Y2062587D01*
X2176302Y2056302D01*
X2182587Y2052102D01*
X2190000Y2050628D01*
X2197413Y2052102D01*
X2203698Y2056302D01*
X2207898Y2062587D01*
X2209372Y2070000D01*
X2207898Y2077413D01*
X2203698Y2083698D01*
X2197413Y2087898D01*
X2190000Y2089372D01*
D02*
G37*
G36*
X2760000Y2079372D02*
X2752587Y2077898D01*
X2746302Y2073698D01*
X2742102Y2067413D01*
X2740628Y2060000D01*
X2742102Y2052587D01*
X2746302Y2046302D01*
X2752587Y2042102D01*
X2760000Y2040628D01*
X2767413Y2042102D01*
X2773698Y2046302D01*
X2777898Y2052587D01*
X2779372Y2060000D01*
X2777898Y2067413D01*
X2773698Y2073698D01*
X2767413Y2077898D01*
X2760000Y2079372D01*
D02*
G37*
G36*
X2908000Y2042199D02*
X2900270Y2040661D01*
X2894503Y2036808D01*
X2891730Y2038661D01*
X2884000Y2040199D01*
X2876270Y2038661D01*
X2869717Y2034283D01*
X2868661Y2032703D01*
X2865730Y2034661D01*
X2858000Y2036199D01*
X2850270Y2034661D01*
X2843717Y2030283D01*
X2839338Y2023730D01*
X2837801Y2016000D01*
X2839338Y2008270D01*
X2837955Y2007115D01*
X2833717Y2004283D01*
X2832646Y2002680D01*
X2827455Y1998344D01*
X2816185Y1992221D01*
X2815613Y1991981D01*
X2812226Y1992532D01*
X2808000Y1993372D01*
X2800587Y1991898D01*
X2794302Y1987698D01*
X2790102Y1981413D01*
X2788628Y1974000D01*
X2790102Y1966587D01*
X2794302Y1960302D01*
X2800587Y1956102D01*
X2808000Y1954628D01*
X2815413Y1956102D01*
X2821698Y1960302D01*
X2823969Y1963700D01*
X2826462Y1966773D01*
X2830824Y1968215D01*
X2843046Y1970786D01*
X2848000Y1969801D01*
X2855730Y1971339D01*
X2863357Y1957784D01*
X2861081Y1956264D01*
X2856703Y1949710D01*
X2855165Y1941981D01*
X2848690Y1931334D01*
X2842649Y1929135D01*
X2840270Y1928661D01*
X2833717Y1924283D01*
X2829338Y1917730D01*
X2827801Y1910000D01*
X2829338Y1902270D01*
X2832192Y1898000D01*
X2829338Y1893730D01*
X2827801Y1886000D01*
X2829338Y1878270D01*
X2833324Y1871076D01*
X2829117Y1864213D01*
X2827580Y1856483D01*
X2828809Y1850306D01*
X2829117Y1848753D01*
X2829117Y1848752D01*
X2829046Y1843806D01*
X2814612Y1833594D01*
X2811628Y1834188D01*
X2811627Y1834188D01*
X2811408Y1834144D01*
X2804214Y1832713D01*
X2797929Y1828514D01*
X2793730Y1822229D01*
X2792255Y1814815D01*
X2793730Y1807402D01*
X2797929Y1801117D01*
X2804214Y1796918D01*
X2811627Y1795443D01*
X2819041Y1796918D01*
X2825326Y1801117D01*
X2829525Y1807402D01*
X2831000Y1814815D01*
X2829525Y1822229D01*
Y1822229D01*
X2829695Y1826961D01*
X2844311Y1836973D01*
X2847779Y1836284D01*
X2855509Y1837821D01*
X2862062Y1842200D01*
X2866441Y1848753D01*
X2867978Y1856483D01*
X2874527Y1863932D01*
X2877373Y1865026D01*
X2882820Y1866110D01*
X2886388Y1868494D01*
X2888728Y1869394D01*
X2895281Y1865015D01*
X2903011Y1863477D01*
X2910741Y1865015D01*
X2917294Y1869394D01*
X2921672Y1875947D01*
X2923210Y1883677D01*
X2921672Y1891407D01*
X2918394Y1896313D01*
X2918662Y1896493D01*
X2923041Y1903046D01*
X2924579Y1910776D01*
X2923041Y1918505D01*
X2918662Y1925059D01*
X2916561Y1926462D01*
X2920851Y1932882D01*
X2922389Y1940612D01*
X2920851Y1948342D01*
X2916472Y1954895D01*
X2909920Y1959274D01*
X2907742Y1962326D01*
X2912371Y1980022D01*
X2915293Y1981975D01*
X2919672Y1988528D01*
X2921209Y1996258D01*
X2919672Y2003987D01*
X2918755Y2005360D01*
X2922283Y2007717D01*
X2926662Y2014270D01*
X2928199Y2022000D01*
X2926662Y2029730D01*
X2922283Y2036283D01*
X2915730Y2040661D01*
X2908000Y2042199D01*
D02*
G37*
G36*
X2499218Y2070590D02*
X2491804Y2069115D01*
X2485520Y2064916D01*
X2481320Y2058631D01*
X2479846Y2051218D01*
X2481320Y2043804D01*
X2485520Y2037520D01*
X2491804Y2033320D01*
X2499218Y2031846D01*
X2506631Y2033320D01*
X2512916Y2037520D01*
X2517115Y2043804D01*
X2518590Y2051218D01*
X2517115Y2058631D01*
X2512916Y2064916D01*
X2506631Y2069115D01*
X2499218Y2070590D01*
D02*
G37*
G36*
X2275000Y2043707D02*
X2267270Y2042170D01*
X2260717Y2037791D01*
X2256338Y2031238D01*
X2254801Y2023508D01*
X2256338Y2015778D01*
X2260717Y2009225D01*
X2267270Y2004847D01*
X2275000Y2003309D01*
X2282730Y2004847D01*
X2287620Y2008114D01*
X2293270Y2004339D01*
X2301000Y2002801D01*
X2308730Y2004339D01*
X2315283Y2008717D01*
X2319662Y2015270D01*
X2321199Y2023000D01*
X2319662Y2030730D01*
X2315283Y2037283D01*
X2308730Y2041661D01*
X2301000Y2043199D01*
X2293270Y2041661D01*
X2288380Y2038394D01*
X2282730Y2042170D01*
X2275000Y2043707D01*
D02*
G37*
G36*
X2299103Y1985106D02*
X2291689Y1983632D01*
X2285405Y1979432D01*
X2281205Y1973147D01*
X2279731Y1965734D01*
X2281205Y1958321D01*
X2285405Y1952036D01*
X2291689Y1947836D01*
X2299103Y1946362D01*
X2306516Y1947836D01*
X2312801Y1952036D01*
X2317000Y1958321D01*
X2318475Y1965734D01*
X2317000Y1973147D01*
X2312801Y1979432D01*
X2306516Y1983632D01*
X2299103Y1985106D01*
D02*
G37*
G36*
X2156000Y1971372D02*
X2148587Y1969898D01*
X2142302Y1965698D01*
X2138102Y1959413D01*
X2136628Y1952000D01*
X2138102Y1944587D01*
X2142302Y1938302D01*
X2148587Y1934102D01*
X2156000Y1932628D01*
X2163413Y1934102D01*
X2169698Y1938302D01*
X2173898Y1944587D01*
X2175372Y1952000D01*
X2173898Y1959413D01*
X2169698Y1965698D01*
X2163413Y1969898D01*
X2156000Y1971372D01*
D02*
G37*
G36*
X2376000Y1969372D02*
X2368587Y1967898D01*
X2362302Y1963698D01*
X2358102Y1957413D01*
X2356628Y1950000D01*
X2358102Y1942587D01*
X2362302Y1936302D01*
X2368587Y1932102D01*
X2376000Y1930628D01*
X2383413Y1932102D01*
X2389698Y1936302D01*
X2393898Y1942587D01*
X2395372Y1950000D01*
X2393898Y1957413D01*
X2389698Y1963698D01*
X2383413Y1967898D01*
X2376000Y1969372D01*
D02*
G37*
G36*
X2510603Y1944372D02*
X2503190Y1942898D01*
X2496905Y1938698D01*
X2492706Y1932413D01*
X2491231Y1925000D01*
X2492706Y1917587D01*
X2496905Y1911302D01*
X2503190Y1907102D01*
X2510603Y1905628D01*
X2518017Y1907102D01*
X2524301Y1911302D01*
X2528501Y1917587D01*
X2529975Y1925000D01*
X2528501Y1932413D01*
X2524301Y1938698D01*
X2518017Y1942898D01*
X2510603Y1944372D01*
D02*
G37*
G36*
X2684000Y1865372D02*
X2676587Y1863898D01*
X2670302Y1859698D01*
X2666102Y1853413D01*
X2664628Y1846000D01*
X2666102Y1838587D01*
X2670302Y1832302D01*
X2676587Y1828102D01*
X2684000Y1826628D01*
X2691413Y1828102D01*
X2697698Y1832302D01*
X2701898Y1838587D01*
X2703372Y1846000D01*
X2701898Y1853413D01*
X2697698Y1859698D01*
X2691413Y1863898D01*
X2684000Y1865372D01*
D02*
G37*
G36*
X2447000Y1855372D02*
X2439587Y1853898D01*
X2433302Y1849698D01*
X2429102Y1843413D01*
X2427628Y1836000D01*
X2429102Y1828587D01*
X2433296Y1822310D01*
X2433302Y1822302D01*
X2433303Y1822301D01*
X2439586Y1818102D01*
X2438000Y1803199D01*
X2430270Y1801661D01*
X2423717Y1797283D01*
X2423283D01*
X2416730Y1801661D01*
X2409000Y1803199D01*
X2401270Y1801661D01*
X2394717Y1797283D01*
X2390338Y1790730D01*
X2388801Y1783000D01*
X2390338Y1775270D01*
X2394717Y1768717D01*
X2396300Y1767659D01*
X2392338Y1761730D01*
X2390801Y1754000D01*
X2392338Y1746270D01*
X2396717Y1739717D01*
X2403270Y1735339D01*
X2411000Y1733801D01*
X2418730Y1735339D01*
X2425248Y1739694D01*
X2430270Y1736339D01*
X2438000Y1734801D01*
X2445730Y1736339D01*
X2452283Y1740717D01*
X2456662Y1747270D01*
X2458199Y1755000D01*
X2456662Y1762730D01*
X2452472Y1769000D01*
X2456662Y1775270D01*
X2458199Y1783000D01*
X2456662Y1790730D01*
X2452283Y1797283D01*
X2445730Y1801662D01*
X2447000Y1816628D01*
X2454409Y1818101D01*
X2454413Y1818102D01*
X2454414D01*
X2454901Y1818428D01*
X2460698Y1822302D01*
X2464898Y1828587D01*
X2466372Y1836000D01*
X2464898Y1843413D01*
X2460698Y1849698D01*
X2454413Y1853898D01*
X2447000Y1855372D01*
D02*
G37*
G36*
X2685065Y1776678D02*
X2677651Y1775203D01*
X2671367Y1771004D01*
X2667167Y1764719D01*
X2665693Y1757306D01*
X2667167Y1749892D01*
X2671367Y1743608D01*
X2677651Y1739408D01*
X2685065Y1737934D01*
X2692478Y1739408D01*
X2698763Y1743608D01*
X2702962Y1749892D01*
X2704437Y1757306D01*
X2702962Y1764719D01*
X2698763Y1771004D01*
X2692478Y1775203D01*
X2685065Y1776678D01*
D02*
G37*
G36*
X2239000Y1775372D02*
X2231587Y1773898D01*
X2225302Y1769698D01*
X2221102Y1763413D01*
X2219628Y1756000D01*
X2221102Y1748587D01*
X2225302Y1742302D01*
X2231587Y1738102D01*
X2239000Y1736628D01*
X2246413Y1738102D01*
X2252698Y1742302D01*
X2256898Y1748587D01*
X2258372Y1756000D01*
X2256898Y1763413D01*
X2252698Y1769698D01*
X2246413Y1773898D01*
X2239000Y1775372D01*
D02*
G37*
G36*
X2876370Y1819543D02*
X2868640Y1818005D01*
X2862087Y1813626D01*
X2857709Y1807073D01*
X2856171Y1799343D01*
X2857709Y1791613D01*
X2861558Y1785852D01*
X2861353Y1785715D01*
X2856974Y1779162D01*
X2855436Y1771432D01*
X2856974Y1763702D01*
X2861353Y1757149D01*
Y1757069D01*
X2856974Y1750516D01*
X2855436Y1742786D01*
X2848000Y1734199D01*
X2840270Y1732661D01*
X2833717Y1728283D01*
X2829338Y1721730D01*
X2828634Y1718188D01*
X2812523Y1718097D01*
X2812311Y1718138D01*
X2808140Y1724380D01*
X2801855Y1728580D01*
X2794441Y1730054D01*
X2787028Y1728580D01*
X2780743Y1724380D01*
X2776544Y1718096D01*
X2775069Y1710682D01*
X2776544Y1703269D01*
X2780743Y1696984D01*
X2786037Y1693447D01*
Y1692575D01*
X2781837Y1686291D01*
X2780363Y1678877D01*
X2781837Y1671464D01*
X2786037Y1665179D01*
X2792321Y1660980D01*
X2799735Y1659505D01*
X2807148Y1660980D01*
X2813433Y1665179D01*
X2816806Y1670227D01*
X2826880Y1672759D01*
X2833717Y1673717D01*
X2840270Y1669339D01*
X2848000Y1667801D01*
X2855730Y1669339D01*
X2861650Y1673294D01*
X2866979Y1669734D01*
X2874709Y1668196D01*
X2882439Y1669734D01*
X2888132Y1673537D01*
X2893825Y1669734D01*
X2901555Y1668196D01*
X2909285Y1669734D01*
X2915838Y1674112D01*
X2920216Y1680665D01*
X2921754Y1688395D01*
X2920216Y1696125D01*
X2915838Y1702678D01*
X2915738Y1702744D01*
X2919663Y1708617D01*
X2921200Y1716347D01*
X2919663Y1724077D01*
X2917052Y1727984D01*
X2917830Y1728503D01*
X2922209Y1735056D01*
X2923746Y1742786D01*
X2922209Y1750516D01*
X2918110Y1756649D01*
X2921841Y1762233D01*
X2923379Y1769963D01*
X2921841Y1777693D01*
X2917830Y1784693D01*
X2922209Y1791246D01*
X2923746Y1798976D01*
X2922209Y1806706D01*
X2917830Y1813259D01*
X2911277Y1817638D01*
X2903547Y1819175D01*
X2895817Y1817638D01*
X2890233Y1813907D01*
X2884100Y1818005D01*
X2876370Y1819543D01*
D02*
G37*
G36*
X2240000Y1666199D02*
X2232270Y1664661D01*
X2228000Y1661808D01*
X2223730Y1664661D01*
X2216000Y1666199D01*
X2208270Y1664661D01*
X2201717Y1660283D01*
X2197338Y1653730D01*
X2195801Y1646000D01*
X2197338Y1638270D01*
X2201717Y1631717D01*
X2208270Y1627339D01*
X2216000Y1625801D01*
X2223730Y1627339D01*
X2228000Y1630192D01*
X2232270Y1627339D01*
X2240000Y1625801D01*
X2247730Y1627339D01*
X2254283Y1631717D01*
X2258662Y1638270D01*
X2260199Y1646000D01*
X2258662Y1653730D01*
X2254283Y1660283D01*
X2247730Y1664661D01*
X2240000Y1666199D01*
D02*
G37*
G36*
X2685971Y1688845D02*
X2678557Y1687371D01*
X2672272Y1683171D01*
X2668073Y1676887D01*
X2666598Y1669473D01*
X2668073Y1662060D01*
X2672272Y1655775D01*
X2678557Y1651575D01*
X2685971Y1650101D01*
X2693384Y1651575D01*
X2699669Y1655775D01*
X2703868Y1662060D01*
X2705343Y1669473D01*
X2703868Y1676887D01*
X2699669Y1683171D01*
X2693384Y1687371D01*
X2685971Y1688845D01*
D02*
G37*
G36*
X2848000Y1608199D02*
X2840270Y1606661D01*
X2833717Y1602283D01*
X2829338Y1595730D01*
X2827801Y1588000D01*
X2829338Y1580270D01*
X2833717Y1573717D01*
X2840270Y1569339D01*
X2848000Y1567801D01*
X2855730Y1569339D01*
X2860934Y1572816D01*
X2861130Y1572522D01*
X2867683Y1568144D01*
X2875413Y1566606D01*
X2883143Y1568144D01*
X2888848Y1571955D01*
X2894552Y1568144D01*
X2902282Y1566606D01*
X2910012Y1568144D01*
X2916565Y1572522D01*
X2920944Y1579075D01*
X2922481Y1586805D01*
X2920944Y1594535D01*
X2916565Y1601088D01*
X2910012Y1605467D01*
X2902282Y1607004D01*
X2894552Y1605467D01*
X2888848Y1601655D01*
X2883143Y1605467D01*
X2875413Y1607004D01*
X2867683Y1605467D01*
X2862479Y1601989D01*
X2862283Y1602283D01*
X2855730Y1606661D01*
X2848000Y1608199D01*
D02*
G37*
G36*
X2756443Y1600995D02*
X2749030Y1599521D01*
X2742745Y1595321D01*
X2738546Y1589037D01*
X2737071Y1581623D01*
X2738546Y1574210D01*
X2742745Y1567925D01*
X2749030Y1563726D01*
X2756443Y1562251D01*
X2763857Y1563726D01*
X2770141Y1567925D01*
X2774341Y1574210D01*
X2775815Y1581623D01*
X2774341Y1589037D01*
X2770141Y1595321D01*
X2763857Y1599521D01*
X2756443Y1600995D01*
D02*
G37*
G36*
X2878772Y1536526D02*
X2871042Y1534988D01*
X2865142Y1531045D01*
X2859730Y1534661D01*
X2852000Y1536199D01*
X2844270Y1534661D01*
X2837717Y1530283D01*
X2833338Y1523730D01*
X2831801Y1516000D01*
X2833338Y1508270D01*
X2836860Y1503000D01*
X2833338Y1497730D01*
X2831801Y1490000D01*
X2833338Y1482270D01*
X2836860Y1477000D01*
X2833338Y1471730D01*
X2831801Y1464000D01*
X2833338Y1456270D01*
X2837717Y1449717D01*
X2844270Y1445339D01*
X2852000Y1443801D01*
X2859730Y1445339D01*
X2863448Y1447823D01*
X2869919Y1443499D01*
X2877649Y1441961D01*
X2885379Y1443499D01*
X2890561Y1446961D01*
X2896582Y1442937D01*
X2904312Y1441400D01*
X2912041Y1442937D01*
X2918595Y1447316D01*
X2922973Y1453869D01*
X2924511Y1461599D01*
X2922973Y1469329D01*
X2919605Y1474370D01*
X2920278Y1474820D01*
X2924657Y1481373D01*
X2926195Y1489103D01*
X2924657Y1496833D01*
X2921055Y1502224D01*
X2924938Y1508035D01*
X2926475Y1515765D01*
X2924938Y1523495D01*
X2920559Y1530048D01*
X2914006Y1534427D01*
X2906276Y1535964D01*
X2898546Y1534427D01*
X2892944Y1530683D01*
X2886502Y1534988D01*
X2878772Y1536526D01*
D02*
G37*
G36*
X2242529Y1566134D02*
X2235115Y1564659D01*
X2228831Y1560460D01*
X2224631Y1554175D01*
X2223157Y1546761D01*
X2224631Y1539348D01*
X2228831Y1533063D01*
X2235115Y1528864D01*
X2242529Y1527389D01*
X2249942Y1528864D01*
X2256227Y1533063D01*
X2260426Y1539348D01*
X2261901Y1546761D01*
X2260426Y1554175D01*
X2256227Y1560460D01*
X2249942Y1564659D01*
X2242529Y1566134D01*
D02*
G37*
G36*
X2512000Y1560199D02*
X2504270Y1558661D01*
X2497717Y1554283D01*
X2493338Y1547730D01*
X2491801Y1540000D01*
X2493338Y1532270D01*
X2497717Y1525717D01*
X2504270Y1521339D01*
X2512000Y1519801D01*
X2519730Y1521339D01*
X2526283Y1525717D01*
X2530662Y1532270D01*
X2532199Y1540000D01*
X2530662Y1547730D01*
X2526283Y1554283D01*
X2519730Y1558661D01*
X2512000Y1560199D01*
D02*
G37*
G36*
X2190000Y1536372D02*
X2182587Y1534898D01*
X2176302Y1530698D01*
X2172102Y1524413D01*
X2170628Y1517000D01*
X2172102Y1509587D01*
X2176302Y1503302D01*
X2182587Y1499102D01*
X2190000Y1497628D01*
X2197413Y1499102D01*
X2203698Y1503302D01*
X2207898Y1509587D01*
X2209372Y1517000D01*
X2207898Y1524413D01*
X2203698Y1530698D01*
X2197413Y1534898D01*
X2190000Y1536372D01*
D02*
G37*
G36*
X2602000Y1505191D02*
X2594270Y1503654D01*
X2587717Y1499275D01*
X2583338Y1492722D01*
X2581801Y1484992D01*
X2583338Y1477262D01*
X2587717Y1470709D01*
X2594270Y1466331D01*
X2602000Y1464793D01*
X2609730Y1466331D01*
X2616283Y1470709D01*
X2620662Y1477262D01*
X2622199Y1484992D01*
X2620662Y1492722D01*
X2616283Y1499275D01*
X2609730Y1503654D01*
X2602000Y1505191D01*
D02*
G37*
G36*
X2684000Y1501372D02*
X2676587Y1499898D01*
X2670302Y1495698D01*
X2666102Y1489413D01*
X2664628Y1482000D01*
X2666102Y1474587D01*
X2670302Y1468302D01*
X2676587Y1464102D01*
X2684000Y1462628D01*
X2691413Y1464102D01*
X2697698Y1468302D01*
X2701898Y1474587D01*
X2703372Y1482000D01*
X2701898Y1489413D01*
X2697698Y1495698D01*
X2691413Y1499898D01*
X2684000Y1501372D01*
D02*
G37*
%LPD*%
D37*
X2602000Y1484992D02*
D03*
X2240000Y1646000D02*
D03*
X2216000D02*
D03*
X2301000Y2023000D02*
D03*
X2275000Y2023508D02*
D03*
X2847779Y1856483D02*
D03*
X2178000Y1383000D02*
D03*
X2206000D02*
D03*
X2236000Y1384000D02*
D03*
X2264000D02*
D03*
X2293000Y1383000D02*
D03*
X2349000D02*
D03*
X2400000Y1384000D02*
D03*
X2426000D02*
D03*
X2455000Y1383000D02*
D03*
X2486000D02*
D03*
X2513000D02*
D03*
X2571000D02*
D03*
X2655000Y1384000D02*
D03*
X2740000D02*
D03*
X2796000D02*
D03*
X2827000D02*
D03*
X2854000D02*
D03*
X2884000Y1383000D02*
D03*
X2910000D02*
D03*
X2940000Y1382000D02*
D03*
X2320779Y1382108D02*
D03*
X2374070Y1383249D02*
D03*
X2627501Y1383851D02*
D03*
X2597974Y1383236D02*
D03*
X2542611Y1382620D02*
D03*
X2766643Y1383443D02*
D03*
X2713267Y1383425D02*
D03*
X2683034Y1383840D02*
D03*
X2678034Y2131840D02*
D03*
X2708267Y2131425D02*
D03*
X2761643Y2131443D02*
D03*
X2537611Y2130620D02*
D03*
X2592974Y2131236D02*
D03*
X2622501Y2131851D02*
D03*
X2369070Y2131249D02*
D03*
X2315779Y2130108D02*
D03*
X2935000Y2130000D02*
D03*
X2905000Y2131000D02*
D03*
X2879000D02*
D03*
X2849000Y2132000D02*
D03*
X2822000D02*
D03*
X2791000D02*
D03*
X2735000D02*
D03*
X2650000D02*
D03*
X2566000Y2131000D02*
D03*
X2508000D02*
D03*
X2481000D02*
D03*
X2450000D02*
D03*
X2421000Y2132000D02*
D03*
X2395000D02*
D03*
X2344000Y2131000D02*
D03*
X2288000D02*
D03*
X2259000Y2132000D02*
D03*
X2231000D02*
D03*
X2201000Y2131000D02*
D03*
X2173000D02*
D03*
X2904312Y1461599D02*
D03*
X2877649Y1462160D02*
D03*
X2905995Y1489103D02*
D03*
X2878211Y1489664D02*
D03*
X2906276Y1515765D02*
D03*
X2878772Y1516326D02*
D03*
X2901555Y1688395D02*
D03*
X2874709D02*
D03*
X2901001Y1716347D02*
D03*
X2874986Y1714963D02*
D03*
X2903547Y1742786D02*
D03*
X2875636D02*
D03*
X2903180Y1769963D02*
D03*
X2875636Y1771432D02*
D03*
X2903547Y1798976D02*
D03*
X2876370Y1799343D02*
D03*
X2903011Y1883677D02*
D03*
X2875090Y1884771D02*
D03*
X2904379Y1910776D02*
D03*
X2876185Y1915155D02*
D03*
X2902190Y1940612D02*
D03*
X2875364Y1941981D02*
D03*
X2901010Y1996258D02*
D03*
X2874679Y1994713D02*
D03*
X2902282Y1586805D02*
D03*
X2875413D02*
D03*
X1993000Y1740000D02*
D03*
X1944000D02*
D03*
X1994000Y1819000D02*
D03*
X1946000D02*
D03*
X2438000Y1755000D02*
D03*
X2411000Y1754000D02*
D03*
X2438000Y1783000D02*
D03*
X2409000D02*
D03*
X2060000Y2018000D02*
D03*
X1982000Y2020000D02*
D03*
X2072000Y2092000D02*
D03*
X2088000Y2072000D02*
D03*
Y2048000D02*
D03*
Y2024000D02*
D03*
X2080000Y2002000D02*
D03*
X2058000Y1994000D02*
D03*
X2034000D02*
D03*
X2010000D02*
D03*
X1986000D02*
D03*
X1964000Y2002000D02*
D03*
X1956000Y2026000D02*
D03*
Y2050000D02*
D03*
Y2074000D02*
D03*
X1980000Y2102000D02*
D03*
X1956000Y2098000D02*
D03*
X2082000Y2116000D02*
D03*
X2060000Y2126000D02*
D03*
X2036000D02*
D03*
X2012000D02*
D03*
X1990000D02*
D03*
X1966000Y2120000D02*
D03*
X2076000Y1482000D02*
D03*
X2046000D02*
D03*
X2060000Y1460000D02*
D03*
X2064000Y1436000D02*
D03*
X2046000Y1400000D02*
D03*
X2076000Y1412000D02*
D03*
X2072000Y1388000D02*
D03*
X2050000Y1374000D02*
D03*
X2026000D02*
D03*
X2002000D02*
D03*
X1978000Y1378000D02*
D03*
X1954000Y1382000D02*
D03*
X1946000Y1406000D02*
D03*
Y1430000D02*
D03*
Y1456000D02*
D03*
X1948000Y1482000D02*
D03*
X2062000Y1504000D02*
D03*
X2036000Y1506000D02*
D03*
X2012000D02*
D03*
X1988000D02*
D03*
X1962000Y1502000D02*
D03*
X2908000Y2022000D02*
D03*
X2884000Y2020000D02*
D03*
X2858000Y2016000D02*
D03*
X2848000Y1990000D02*
D03*
Y1910000D02*
D03*
Y1886000D02*
D03*
Y1714000D02*
D03*
Y1688000D02*
D03*
Y1588000D02*
D03*
X2852000Y1516000D02*
D03*
Y1490000D02*
D03*
Y1464000D02*
D03*
X3440000Y1474000D02*
D03*
X3414000D02*
D03*
X3390000D02*
D03*
X3366000D02*
D03*
X3342000D02*
D03*
X3438000Y1500000D02*
D03*
X3414000D02*
D03*
X3390000D02*
D03*
X3366000D02*
D03*
X3342000D02*
D03*
X3438000Y1526000D02*
D03*
X3414000D02*
D03*
X3390000D02*
D03*
X3366000D02*
D03*
X3342000D02*
D03*
X3438000Y1550000D02*
D03*
X3414000Y1552000D02*
D03*
X3390000D02*
D03*
X3366000D02*
D03*
X3342000D02*
D03*
X3442000Y1602000D02*
D03*
X3418000D02*
D03*
X3394000D02*
D03*
X3438000Y1578000D02*
D03*
X3414000D02*
D03*
X3390000D02*
D03*
X3366000D02*
D03*
X3342000D02*
D03*
X3316000Y1504000D02*
D03*
Y1554000D02*
D03*
X3442000Y1698000D02*
D03*
X3416000D02*
D03*
X3392000D02*
D03*
X3368000D02*
D03*
X3342000D02*
D03*
X3442000Y1722000D02*
D03*
X3416000D02*
D03*
X3392000D02*
D03*
X3368000D02*
D03*
X3342000D02*
D03*
X3440000Y1746000D02*
D03*
X3416000D02*
D03*
X3390000D02*
D03*
X3366000D02*
D03*
X3342000D02*
D03*
X3440000Y1772000D02*
D03*
X3416000D02*
D03*
X3390000D02*
D03*
X3366000D02*
D03*
X3342000D02*
D03*
X3446000Y1822000D02*
D03*
X3422000D02*
D03*
X3398000D02*
D03*
X3438000Y1798000D02*
D03*
X3414000D02*
D03*
X3390000D02*
D03*
X3366000D02*
D03*
X3342000D02*
D03*
X3316000Y1724000D02*
D03*
Y1774000D02*
D03*
X3446000Y1918000D02*
D03*
X3420000D02*
D03*
X3394000D02*
D03*
X3370000D02*
D03*
X3344000D02*
D03*
X3446000Y1944000D02*
D03*
X3420000D02*
D03*
X3394000D02*
D03*
X3370000D02*
D03*
X3344000D02*
D03*
X3446000Y1970000D02*
D03*
X3420000D02*
D03*
X3394000D02*
D03*
X3370000D02*
D03*
X3344000D02*
D03*
X3446000Y1994000D02*
D03*
X3420000D02*
D03*
X3394000D02*
D03*
X3370000D02*
D03*
X3344000D02*
D03*
X3316000Y1944000D02*
D03*
Y1994000D02*
D03*
X3446000Y2018000D02*
D03*
X3420000D02*
D03*
X3448000Y2048000D02*
D03*
X3424000D02*
D03*
X3400000D02*
D03*
X3376000D02*
D03*
X3394000Y2018000D02*
D03*
X3370000D02*
D03*
X3344000D02*
D03*
X3316142Y1969000D02*
D03*
X2512000Y1540000D02*
D03*
X3316142Y1479000D02*
D03*
Y1529000D02*
D03*
Y1579000D02*
D03*
Y1699000D02*
D03*
Y1749000D02*
D03*
Y1799000D02*
D03*
Y1919000D02*
D03*
Y2019000D02*
D03*
X3230000Y1414000D02*
D03*
X3206000D02*
D03*
X3182000D02*
D03*
X3158000D02*
D03*
X3134000D02*
D03*
X3108000D02*
D03*
X3084000D02*
D03*
X3058000D02*
D03*
X3032000D02*
D03*
X3006000D02*
D03*
X2980000D02*
D03*
X3236000Y1438000D02*
D03*
X3208000D02*
D03*
X3182000D02*
D03*
X3156000D02*
D03*
X3130000D02*
D03*
X3104000D02*
D03*
X3078000D02*
D03*
X3052000D02*
D03*
X3026000D02*
D03*
X3000000D02*
D03*
X2974000D02*
D03*
Y2140000D02*
D03*
X3000000D02*
D03*
X3026000D02*
D03*
X3052000D02*
D03*
X3078000D02*
D03*
X3104000D02*
D03*
X3130000D02*
D03*
X3156000D02*
D03*
X3182000D02*
D03*
X3208000D02*
D03*
X3234000D02*
D03*
Y2114000D02*
D03*
X3208000D02*
D03*
X3182000D02*
D03*
X3156000D02*
D03*
X3130000D02*
D03*
X3104000D02*
D03*
X3078000D02*
D03*
X3052000D02*
D03*
X3026000D02*
D03*
X3000000D02*
D03*
X2974000D02*
D03*
D38*
X2299103Y1965734D02*
D03*
X2190000Y2070000D02*
D03*
X2499218Y2051218D02*
D03*
X2794441Y1710682D02*
D03*
X2799735Y1678877D02*
D03*
X2811627Y1814815D02*
D03*
X2756443Y1581623D02*
D03*
X2760000Y2060000D02*
D03*
X2129915Y1789305D02*
D03*
X1969864Y1818942D02*
D03*
X2447000Y1836000D02*
D03*
X1968000Y1741000D02*
D03*
X2190000Y1517000D02*
D03*
X2510603Y1925000D02*
D03*
X2242529Y1546761D02*
D03*
X2376000Y1950000D02*
D03*
X2156000Y1952000D02*
D03*
X2808000Y1974000D02*
D03*
X3363526Y1629549D02*
D03*
X3366000Y1850000D02*
D03*
X3308268Y2117732D02*
D03*
X2684000Y1482000D02*
D03*
X2239000Y1756000D02*
D03*
X2685971Y1669473D02*
D03*
X2685065Y1757306D02*
D03*
X2684000Y1846000D02*
D03*
D39*
X2022386Y2061758D02*
D03*
X2006000Y1442000D02*
D03*
%TF.MD5,a55a101a1f5404aa445cd00070a9fa4d*%
M02*
